<svg xmlns="http://www.w3.org/2000/svg" width="50.852mm" height="128.5mm" viewBox="0 0 144.146 364.252"><title>Aspect</title><g id="ea199252-0ff0-4675-93ec-c50bb63076c5" data-name="Aspect"><rect id="9740b6b0-e6b6-44ce-8199-0dfd963cfbb8" data-name="BG" y="0.374" width="144" height="364.252" fill="#333"/><g id="f871e024-1e48-4044-9fe6-cdb6ced1f2c6" data-name="Header"><rect width="144" height="31.181" fill="#fd495c"/></g><g id="add7e610-5806-441a-8f2b-312cbfdecdec" data-name="Text"><path d="M13.093,68.437a3.747,3.747,0,0,0,2.552-1.078l-.231,1.54a4.067,4.067,0,0,1-2.5.814A3.28,3.28,0,0,1,9.66,65.73a4.661,4.661,0,0,1,4.533-3.982,3.208,3.208,0,0,1,2.289.814l-.243,1.551a2.488,2.488,0,0,0-2.134-1.089,3.221,3.221,0,0,0-3.059,2.706A2.167,2.167,0,0,0,13.093,68.437Z" fill="#d7d7d7"/><path d="M19.363,61l-1.485,8.581H16.722L18.174,61Z" fill="#d7d7d7"/><path d="M22.486,64.41a2.232,2.232,0,0,1,2.289,2.641,3.07,3.07,0,0,1-3.037,2.64,2.237,2.237,0,0,1-2.288-2.64A3.071,3.071,0,0,1,22.486,64.41Zm-.66,4.225a1.833,1.833,0,0,0,1.739-1.584,1.256,1.256,0,0,0-1.178-1.585,1.833,1.833,0,0,0-1.738,1.585A1.255,1.255,0,0,0,21.826,68.635Z" fill="#d7d7d7"/><path d="M27.832,68.657a2.338,2.338,0,0,0,1.772-.836l-.187,1.3a2.731,2.731,0,0,1-1.717.572,2.246,2.246,0,0,1-2.31-2.64,3.066,3.066,0,0,1,3.048-2.641,2.4,2.4,0,0,1,1.606.572l-.187,1.31a1.555,1.555,0,0,0-1.453-.848,1.873,1.873,0,0,0-1.8,1.607A1.287,1.287,0,0,0,27.832,68.657Z" fill="#d7d7d7"/><path d="M35.7,64.521l-2.552,2.156,1.837,2.9H33.619l-1.595-2.574-.441,2.574H30.439L31.891,61h1.167l-.9,5.248L34.2,64.521Z" fill="#d7d7d7"/><path d="M13.618,98.259a2.086,2.086,0,0,1,2.332,2.4,2.738,2.738,0,0,1-2.069,2.256l1.585,3.047h-1.5l-1.4-2.916H11.8l-.495,2.916H10.031l1.3-7.7Zm-1.189,1.133-.44,2.574h.947a1.6,1.6,0,0,0,1.694-1.287,1.064,1.064,0,0,0-1.188-1.287Z" fill="#d7d7d7"/><path d="M16.345,103.76a2.944,2.944,0,0,1,2.971-2.971,2,2,0,0,1,2.178,2.223,2.447,2.447,0,0,1-.121.693h-3.84c-.022.814.374,1.386,1.188,1.386a1.775,1.775,0,0,0,1.474-.8l.991.407a2.907,2.907,0,0,1-2.564,1.375A2.135,2.135,0,0,1,16.345,103.76Zm1.331-.881h2.6v-.022c0-.726-.352-1.166-1.057-1.166A1.628,1.628,0,0,0,17.676,102.879Z" fill="#d7d7d7"/><path d="M24.045,105.146a.637.637,0,0,0,.7-.594c.011-.44-.484-.671-.968-.858-.616-.242-1.265-.606-1.243-1.464a1.591,1.591,0,0,1,1.782-1.441,2.353,2.353,0,0,1,1.859.891l-.66.694a1.677,1.677,0,0,0-1.21-.683c-.4,0-.66.2-.66.484-.022.4.418.561.924.77.748.32,1.364.66,1.342,1.541a1.714,1.714,0,0,1-1.859,1.628,2.744,2.744,0,0,1-2.211-1.122l.748-.682A1.94,1.94,0,0,0,24.045,105.146Z" fill="#d7d7d7"/><path d="M26.608,103.76a2.944,2.944,0,0,1,2.97-2.971,2,2,0,0,1,2.178,2.223,2.412,2.412,0,0,1-.121.693H27.8c-.022.814.374,1.386,1.188,1.386a1.777,1.777,0,0,0,1.474-.8l.99.407a2.9,2.9,0,0,1-2.563,1.375A2.135,2.135,0,0,1,26.608,103.76Zm1.331-.881h2.6v-.022c0-.726-.352-1.166-1.056-1.166A1.628,1.628,0,0,0,27.939,102.879Z" fill="#d7d7d7"/><path d="M33.274,100.9l.3-1.76h1.178l-.308,1.76h.836l-.187,1.045h-.825l-.7,4.016H32.416l.682-4.016h-.815l.187-1.045Z" fill="#d7d7d7"/><path d="M32.9,138.6a3.231,3.231,0,0,0,1.145-1.705,1.027,1.027,0,0,0-1.056-1.21c-.924-.022-1.475.792-1.651,1.694H30.064a3.132,3.132,0,0,1,3.059-2.86,2.082,2.082,0,0,1,2.244,2.31A3.7,3.7,0,0,1,34.025,139l-2.442,2.146h3.223l-.187,1.21H28.887Z" fill="#d7d7d7"/><path d="M33.992,171.056l.8-.011-.869,5.105H35.1l-.187,1.122H33.739l-.253,1.474h-1.32l.253-1.474-3.686-.011Zm-1.32,5.182.484-2.795L30.8,176.238Z" fill="#d7d7d7"/><path d="M31.516,211a1.632,1.632,0,0,1-.836-1.738,2.5,2.5,0,0,1,2.553-1.981,1.808,1.808,0,0,1,1.969,2,2.225,2.225,0,0,1-1.441,1.761,1.825,1.825,0,0,1,1.067,1.981,2.851,2.851,0,0,1-2.872,2.221,2.014,2.014,0,0,1-2.189-2.221A2.563,2.563,0,0,1,31.516,211Zm.551,3.147a1.578,1.578,0,0,0,1.54-1.3,1.087,1.087,0,0,0-1.023-1.3,1.64,1.64,0,0,0-1.53,1.3A1.044,1.044,0,0,0,32.067,214.143Zm.626-3.654A1.327,1.327,0,0,0,33.97,209.4a.87.87,0,0,0-.837-1.088,1.307,1.307,0,0,0-1.265,1.1A.87.87,0,0,0,32.693,210.489Z" fill="#d7d7d7"/><path d="M25.444,244.364l3.125-.693L27.205,251.5H25.95l1.09-6.381-1.827.484Z" fill="#d7d7d7"/><path d="M34.938,243.825l-2.575,2.728a2.021,2.021,0,0,1,.748-.132,2.069,2.069,0,0,1,1.915,2.486,3.131,3.131,0,0,1-3.146,2.729,2.288,2.288,0,0,1-2.366-2.729,3.458,3.458,0,0,1,.891-1.815l2.883-3.267Zm-2.949,6.667a1.84,1.84,0,0,0,1.783-1.585A1.286,1.286,0,0,0,32.54,247.3a1.859,1.859,0,0,0-1.783,1.605A1.269,1.269,0,0,0,31.989,250.492Z" fill="#d7d7d7"/><path d="M23.464,285.561h1.277a1.05,1.05,0,0,0,1.122,1.21,1.448,1.448,0,0,0,1.485-1.21c.154-.87-.572-1.244-1.463-1.288l.044-.3.088-.683a1.634,1.634,0,0,0,1.65-1.21.809.809,0,0,0-.814-1.034,1.37,1.37,0,0,0-1.32,1.055l-1.21-.01a2.6,2.6,0,0,1,2.618-2.157,1.854,1.854,0,0,1,2.024,2.08,2.234,2.234,0,0,1-1.672,1.727,1.7,1.7,0,0,1,1.32,1.97,2.726,2.726,0,0,1-2.882,2.178A2.089,2.089,0,0,1,23.464,285.561Z" fill="#d7d7d7"/><path d="M32.9,284.009a3.235,3.235,0,0,0,1.144-1.705,1.027,1.027,0,0,0-1.056-1.21c-.924-.023-1.474.792-1.65,1.694H30.065a3.132,3.132,0,0,1,3.058-2.86,2.082,2.082,0,0,1,2.244,2.31,3.7,3.7,0,0,1-1.341,2.167l-2.443,2.146h3.223l-.187,1.21H28.888Z" fill="#d7d7d7"/><path d="M28.228,316.476,25.654,319.2a2.014,2.014,0,0,1,.748-.132,2.071,2.071,0,0,1,1.915,2.487,3.131,3.131,0,0,1-3.147,2.728,2.288,2.288,0,0,1-2.365-2.728,3.454,3.454,0,0,1,.891-1.816l2.882-3.266Zm-2.948,6.667a1.841,1.841,0,0,0,1.782-1.585,1.287,1.287,0,0,0-1.232-1.606,1.86,1.86,0,0,0-1.782,1.606A1.27,1.27,0,0,0,25.28,323.143Z" fill="#d7d7d7"/><path d="M33.992,316.464l.8-.011-.869,5.105H35.1l-.187,1.122H33.739l-.253,1.474h-1.32l.253-1.474-3.686-.011Zm-1.32,5.182.484-2.794L30.8,321.646Z" fill="#d7d7d7"/><path d="M90.079,62.441l3.125-.693-1.365,7.833H90.585L91.674,63.2l-1.826.484Z" fill="#d7d7d7"/><path d="M91,102.208a3.242,3.242,0,0,0,1.145-1.7,1.028,1.028,0,0,0-1.057-1.21c-.924-.022-1.474.792-1.65,1.694H88.165a3.132,3.132,0,0,1,3.058-2.86,2.081,2.081,0,0,1,2.244,2.31,3.7,3.7,0,0,1-1.341,2.167l-2.443,2.146h3.223l-.187,1.21H86.988Z" fill="#d7d7d7"/><path d="M88,140.153h1.276a1.049,1.049,0,0,0,1.122,1.21,1.447,1.447,0,0,0,1.485-1.21c.154-.869-.572-1.243-1.463-1.287l.044-.3.088-.682a1.635,1.635,0,0,0,1.65-1.21.809.809,0,0,0-.814-1.034,1.367,1.367,0,0,0-1.32,1.056l-1.21-.011a2.6,2.6,0,0,1,2.618-2.157,1.854,1.854,0,0,1,2.025,2.08,2.236,2.236,0,0,1-1.673,1.727,1.7,1.7,0,0,1,1.321,1.969,2.726,2.726,0,0,1-2.883,2.178A2.087,2.087,0,0,1,88,140.153Z" fill="#d7d7d7"/><path d="M92.093,171.056l.8-.011-.869,5.105H93.2l-.187,1.122H91.84l-.253,1.474h-1.32l.253-1.474-3.686-.011Zm-1.32,5.182.484-2.795L88.9,176.238Z" fill="#d7d7d7"/><path d="M90.057,215.231a3.036,3.036,0,0,1-2.629-1.375l.858-.924A2.109,2.109,0,0,0,90,214.021a1.767,1.767,0,0,0,1.849-1.5,1.259,1.259,0,0,0-1.321-1.485,4.057,4.057,0,0,0-2.112.594l1.65-4.225h3.873l-.187,1.145H90.882l-.792,1.759a3.069,3.069,0,0,1,1.21-.263,2.043,2.043,0,0,1,1.892,2.552A3.053,3.053,0,0,1,90.057,215.231Z" fill="#d7d7d7"/><path d="M93.039,243.825l-2.575,2.728a2.014,2.014,0,0,1,.748-.132,2.07,2.07,0,0,1,1.915,2.486,3.131,3.131,0,0,1-3.147,2.729,2.288,2.288,0,0,1-2.365-2.729,3.458,3.458,0,0,1,.891-1.815l2.882-3.267Zm-2.949,6.667a1.84,1.84,0,0,0,1.782-1.585A1.286,1.286,0,0,0,90.64,247.3a1.859,1.859,0,0,0-1.782,1.605A1.269,1.269,0,0,0,90.09,250.492Z" fill="#d7d7d7"/><path d="M88.336,280.06h5.622l-4.8,7.7h-1.4l4.07-6.469-3.7-.011Z" fill="#d7d7d7"/><path d="M89.617,320.04a1.632,1.632,0,0,1-.836-1.738,2.5,2.5,0,0,1,2.552-1.981,1.807,1.807,0,0,1,1.969,2,2.225,2.225,0,0,1-1.441,1.761,1.824,1.824,0,0,1,1.067,1.98,2.85,2.85,0,0,1-2.871,2.222,2.014,2.014,0,0,1-2.189-2.222A2.562,2.562,0,0,1,89.617,320.04Zm.55,3.147a1.577,1.577,0,0,0,1.54-1.3,1.087,1.087,0,0,0-1.023-1.3,1.64,1.64,0,0,0-1.529,1.3A1.043,1.043,0,0,0,90.167,323.187Zm.627-3.654a1.327,1.327,0,0,0,1.276-1.089.871.871,0,0,0-.836-1.089,1.309,1.309,0,0,0-1.265,1.1A.87.87,0,0,0,90.794,319.533Z" fill="#d7d7d7"/></g><path d="M17.335,27.74V7.191l4.482-4.043h7.121L33,7.63V27.74H28.515V18.792h-6.7V27.74Zm4.482-13.412,4.471,2.777h2.227V7.63L26.288,5.38l-2.244-.545H21.817Z" fill="#333"/><path d="M37.04,13.15V7.63l2.784-4.5h8.958l2.8,2.25L51.6,7.63H48.343L46.087,5.38l-2.238-.545H41.523v5.52l2.238,2.25L46,13.15l2.978.545,2.25,2.25,1.529,1.687v5.625l-2.8,4.483H41.015l-2.8-2.25V23.257h3.222V23.24l4.511,2.8h2.327V20.41l-2.256-2.25-2.958-.528-2.289-.545Z" fill="#333"/><path d="M56.8,27.74V3.13H68.417L72.46,7.613V14.75l-4.482,4.042h-6.7V27.74ZM61.28,14.31l4.465,2.8h2.233V7.613L65.745,5.38l-2.232-.562v.017H61.28Z" fill="#333"/><path d="M76.45,27.74V3.148L88.087,3.13l2.777,2.25.018,2.233H87.648L85.415,5.38l-2.232-.545h-2.25v9.493h4.482V16.56H80.933v9.475H83.78v.017l4.465-2.795v.018H91.48v2.232l-2.8,2.233Z" fill="#333"/><path d="M94.151,23.257V7.613L98.194,3.13h7.577l2.918,2.25V7.613h-3.358L103.1,5.38l-2.233-.562H98.634V23.257l4.465,2.795,1.125-3.533h4.465v1.758l-4.465,3.445v.018h-6.03Z" fill="#333"/><path d="M110.2,7.613V3.13h17.912V7.613H125.88l-2.232-2.25H121.4V27.74h-4.483V5.363h-2.232l-2.25,2.25Z" fill="#333"/><g id="da7a09af-19cf-452f-b200-913d5d33ba5d" data-name="Logo"><polygon points="68.542 345.697 66.188 345.697 66.188 348.052 66.188 350.406 66.188 352.76 66.188 355.114 68.542 355.114 68.542 352.76 68.542 350.406 70.896 350.406 70.896 348.052 73.25 348.052 73.25 345.697 70.896 345.697 68.542 345.697" fill="#d7d7d7"/><polygon points="70.896 355.114 73.25 355.114 75.604 355.114 77.959 355.114 77.959 352.76 77.959 350.406 77.959 348.052 77.959 345.698 75.604 345.698 75.604 348.052 75.604 350.406 73.25 350.406 73.25 352.76 70.896 352.76 70.896 355.114" fill="#d7d7d7"/><polygon points="80.313 342.121 63.834 342.121 63.834 343.389 80.313 343.389 80.313 357.442 63.834 357.442 63.834 342.121 62.657 342.121 62.657 358.619 63.834 358.619 81.49 358.619 81.49 357.442 81.49 342.121 80.313 342.121" fill="#d7d7d7"/></g><g id="c9f827f2-1cc8-4b5d-89dd-a0f7c83feeb7" data-name="Legend"><circle cx="53.048" cy="66.38" r="13.636" fill="none" stroke="#fd495c" stroke-miterlimit="10"/><circle cx="53.048" cy="102.759" r="13.636" fill="none" stroke="#fd495c" stroke-miterlimit="10"/></g></g></svg>