<svg xmlns="http://www.w3.org/2000/svg" width="50.85167mm" height="128.5mm" viewBox="0 0 144.14647 364.25197">
  <title>master9</title>
  <g id="531cd7a8-3254-45b3-baf2-0af08cf023d6" data-name="Aspect">
    <rect id="58c22dac-e52f-4afd-a4b7-741bced662f4" data-name="BG" width="144" height="364.25192" style="fill: #2a2d30"/>
    <g id="0fbb7171-02bc-4618-81c3-6e1260d43d6c" data-name="Text">
      <g>
        <path d="M13.09288,68.437a3.75037,3.75037,0,0,0,2.55225-1.07812l-.231,1.54a4.06843,4.06843,0,0,1-2.49756.814,3.27942,3.27942,0,0,1-3.25634-3.98242A4.66068,4.66068,0,0,1,14.193,61.74805a3.2057,3.2057,0,0,1,2.28858.814l-.24219,1.55127a2.48809,2.48809,0,0,0-2.13428-1.08935,3.22127,3.22127,0,0,0-3.05859,2.70654A2.16643,2.16643,0,0,0,13.09288,68.437Z" style="fill: #d7d7d7"/>
        <path d="M19.3629,61l-1.48535,8.58105H16.72228L18.17443,61Z" style="fill: #d7d7d7"/>
        <path d="M22.48644,64.41016A2.232,2.232,0,0,1,24.775,67.05078a3.07077,3.07077,0,0,1-3.03662,2.64014,2.23634,2.23634,0,0,1-2.28808-2.64014A3.07033,3.07033,0,0,1,22.48644,64.41016Zm-.66016,4.22461a1.83188,1.83188,0,0,0,1.73828-1.584,1.25513,1.25513,0,0,0-1.17724-1.58447A1.83274,1.83274,0,0,0,20.649,67.05078,1.25519,1.25519,0,0,0,21.82628,68.63477Z" style="fill: #d7d7d7"/>
        <path d="M27.83214,68.65674a2.33492,2.33492,0,0,0,1.77149-.83594l-.187,1.29834a2.728,2.728,0,0,1-1.7163.57178,2.2469,2.2469,0,0,1-2.31055-2.64014,3.06592,3.06592,0,0,1,3.04785-2.64062,2.3981,2.3981,0,0,1,1.606.57226l-.187,1.30908a1.55426,1.55426,0,0,0-1.45215-.84716,1.87266,1.87266,0,0,0-1.8042,1.60644A1.28669,1.28669,0,0,0,27.83214,68.65674Z" style="fill: #d7d7d7"/>
        <path d="M35.69786,64.52051l-2.55224,2.15625,1.8374,2.90429H33.61876l-1.59521-2.57421-.44043,2.57421h-1.144L31.89122,61h1.16651l-.90235,5.24756,2.04639-1.727Z" style="fill: #d7d7d7"/>
      </g>
      <g>
        <path d="M13.61779,98.25879a2.08617,2.08617,0,0,1,2.332,2.39844,2.73661,2.73661,0,0,1-2.06836,2.25537L15.46593,105.96H13.96984l-1.39746-2.91553h-.77L11.30724,105.96H10.03136l1.29785-7.70117Zm-1.18848,1.1333-.43994,2.57422h.94629A1.59845,1.59845,0,0,0,14.63,100.6792a1.0643,1.0643,0,0,0-1.18847-1.28711Z" style="fill: #d7d7d7"/>
        <path d="M16.34484,103.75977a2.94426,2.94426,0,0,1,2.9707-2.97071,1.99954,1.99954,0,0,1,2.17822,2.22266,2.43869,2.43869,0,0,1-.12109.69287H17.53331c-.022.814.374,1.38623,1.188,1.38623a1.77613,1.77613,0,0,0,1.47412-.80322l.99024.40722a2.90633,2.90633,0,0,1-2.56348,1.375A2.13489,2.13489,0,0,1,16.34484,103.75977Zm1.33154-.88038h2.59619v-.022c0-.72607-.35205-1.166-1.05615-1.166A1.62741,1.62741,0,0,0,17.67638,102.87939Z" style="fill: #d7d7d7"/>
        <path d="M24.045,105.146a.63727.63727,0,0,0,.7041-.59424c.01123-.43994-.48388-.6709-.96826-.85791-.61572-.24219-1.26513-.60547-1.24316-1.46338a1.59125,1.59125,0,0,1,1.78222-1.44141,2.35431,2.35431,0,0,1,1.85938.89112l-.66016.69336a1.67651,1.67651,0,0,0-1.21-.68213c-.396,0-.66015.19775-.66015.48388-.022.396.418.561.92431.77.748.31934,1.36377.66016,1.3418,1.54053a1.71322,1.71322,0,0,1-1.85889,1.62793,2.7438,2.7438,0,0,1-2.21142-1.12207l.748-.68213A1.94045,1.94045,0,0,0,24.045,105.146Z" style="fill: #d7d7d7"/>
        <path d="M26.60753,103.75977a2.94427,2.94427,0,0,1,2.97071-2.97071,1.99954,1.99954,0,0,1,2.17822,2.22266,2.43866,2.43866,0,0,1-.1211.69287H27.796c-.022.814.374,1.38623,1.188,1.38623a1.77614,1.77614,0,0,0,1.47412-.80322l.99023.40722a2.90631,2.90631,0,0,1-2.56347,1.375A2.1349,2.1349,0,0,1,26.60753,103.75977Zm1.33155-.88038h2.59619v-.022c0-.72607-.35205-1.166-1.05616-1.166A1.62741,1.62741,0,0,0,27.93908,102.87939Z" style="fill: #d7d7d7"/>
        <path d="M33.27355,100.89941l.29687-1.76025h1.17725l-.30811,1.76025H35.276l-.187,1.04493h-.8252l-.7041,4.01562h-1.144l.68213-4.01562h-.81446l.187-1.04493Z" style="fill: #d7d7d7"/>
      </g>
      <g>
        <path d="M29.77941,134.65234l-6.02881,9.35157-1.19922-.01123,6.02881-9.34034Z" style="fill: #d7d7d7"/>
        <path d="M32.90245,138.60205A3.2378,3.2378,0,0,0,34.047,136.897a1.02778,1.02778,0,0,0-1.05616-1.21045c-.92431-.022-1.47461.792-1.65039,1.69434H30.06408a3.13233,3.13233,0,0,1,3.05859-2.86035,2.08206,2.08206,0,0,1,2.24414,2.31006,3.702,3.702,0,0,1-1.3418,2.16748l-2.44238,2.1455h3.22314l-.187,1.21H28.88732Z" style="fill: #d7d7d7"/>
      </g>
      <g>
        <path d="M29.50451,171.04492l-6.02881,9.35156-1.19922-.01123,6.02881-9.34033Z" style="fill: #d7d7d7"/>
        <path d="M33.99181,171.05615l.80322-.01123-.86914,5.105h1.17725l-.187,1.12207H33.73888l-.25293,1.47412H32.16564l.25293-1.47412-3.68555-.01123ZM32.672,176.23779l.48388-2.79443-2.35449,2.79443Z" style="fill: #d7d7d7"/>
      </g>
      <g>
        <path d="M30.05431,207.40918l-6.02881,9.35156L22.82628,216.75l6.02881-9.34082Z" style="fill: #d7d7d7"/>
        <path d="M31.51622,210.99609a1.63284,1.63284,0,0,1-.83593-1.73828,2.50185,2.50185,0,0,1,2.55224-1.98047,1.80738,1.80738,0,0,1,1.96924,2.002A2.22511,2.22511,0,0,1,33.76085,211.04a1.8242,1.8242,0,0,1,1.0669,1.98047,2.85146,2.85146,0,0,1-2.87158,2.22168,2.01435,2.01435,0,0,1-2.189-2.22168A2.56333,2.56333,0,0,1,31.51622,210.99609Zm.5503,3.14649a1.57642,1.57642,0,0,0,1.54-1.29883,1.08665,1.08665,0,0,0-1.023-1.29785,1.64087,1.64087,0,0,0-1.5293,1.29785A1.043,1.043,0,0,0,32.06652,214.14258Zm.627-3.65332a1.32767,1.32767,0,0,0,1.27637-1.08887.871.871,0,0,0-.83643-1.08887,1.30826,1.30826,0,0,0-1.26514,1.10059A.87037.87037,0,0,0,32.69347,210.48926Z" style="fill: #d7d7d7"/>
      </g>
      <g>
        <path d="M24.63146,243.80273l-6.02881,9.35157-1.19922-.01075,6.02881-9.34082Z" style="fill: #d7d7d7"/>
        <path d="M25.44445,244.36426l3.12451-.69336-1.36426,7.833H25.95031l1.08935-6.38086-1.82617.48437Z" style="fill: #d7d7d7"/>
        <path d="M34.9381,243.8252l-2.57422,2.72753a2.01748,2.01748,0,0,1,.748-.13183,2.06977,2.06977,0,0,1,1.91455,2.48633A3.13078,3.13078,0,0,1,31.88,251.63574a2.28777,2.28777,0,0,1-2.36523-2.72851,3.45493,3.45493,0,0,1,.89111-1.81543l2.88233-3.2666Zm-2.94824,6.667a1.83968,1.83968,0,0,0,1.78222-1.585,1.28629,1.28629,0,0,0-1.23193-1.60547,1.85929,1.85929,0,0,0-1.78223,1.60547A1.26922,1.26922,0,0,0,31.98986,250.49219Z" style="fill: #d7d7d7"/>
      </g>
      <g>
        <path d="M23.64122,280.05957l-6.0288,9.35156-1.19922-.01074,6.02881-9.34082Z" style="fill: #d7d7d7"/>
        <path d="M23.464,285.56055h1.27637a1.04974,1.04974,0,0,0,1.12207,1.21,1.4482,1.4482,0,0,0,1.48535-1.21c.15381-.86914-.57227-1.24317-1.46338-1.28711l.04394-.29688.08789-.68261a1.635,1.635,0,0,0,1.65039-1.21.80881.80881,0,0,0-.814-1.03418,1.37019,1.37019,0,0,0-1.32031,1.05567l-1.21045-.01074a2.59886,2.59886,0,0,1,2.61865-2.15625,1.85369,1.85369,0,0,1,2.02441,2.0791,2.23507,2.23507,0,0,1-1.67236,1.72754,1.69663,1.69663,0,0,1,1.32031,1.96972,2.72576,2.72576,0,0,1-2.88281,2.17774A2.08719,2.08719,0,0,1,23.464,285.56055Z" style="fill: #d7d7d7"/>
        <path d="M32.90245,284.00879a3.23411,3.23411,0,0,0,1.14454-1.70508,1.0276,1.0276,0,0,0-1.05616-1.21c-.92431-.02246-1.47461.792-1.65039,1.69434H30.06408a3.13234,3.13234,0,0,1,3.05859-2.86036,2.08222,2.08222,0,0,1,2.24414,2.31055,3.70226,3.70226,0,0,1-1.3418,2.167l-2.44238,2.14551h3.22314l-.187,1.21H28.88732Z" style="fill: #d7d7d7"/>
      </g>
      <g>
        <path d="M22.97081,316.45312l-6.0288,9.35157-1.19922-.01074,6.02881-9.34083Z" style="fill: #d7d7d7"/>
        <path d="M28.22814,316.47559l-2.57422,2.72753a2.01744,2.01744,0,0,1,.748-.13183,2.06977,2.06977,0,0,1,1.91455,2.48633A3.13078,3.13078,0,0,1,25.17,324.28613a2.28777,2.28777,0,0,1-2.36523-2.72851,3.455,3.455,0,0,1,.89111-1.81543l2.88233-3.2666Zm-2.94824,6.667a1.83968,1.83968,0,0,0,1.78222-1.585,1.28629,1.28629,0,0,0-1.23193-1.60547,1.85929,1.85929,0,0,0-1.78223,1.60547A1.26958,1.26958,0,0,0,25.2799,323.14258Z" style="fill: #d7d7d7"/>
        <path d="M33.9923,316.46387l.80322-.01075-.86914,5.1045h1.17725l-.187,1.12207H33.73937l-.25293,1.47461H32.16613l.25293-1.47461-3.68555-.01074Zm-1.31983,5.18164.48389-2.79395-2.35449,2.79395Z" style="fill: #d7d7d7"/>
      </g>
      <path d="M90.07921,62.44092l3.12451-.69287-1.36425,7.833h-1.2544l1.08936-6.38085-1.82617.48388Z" style="fill: #d7d7d7"/>
      <path d="M91.003,102.2085a3.23778,3.23778,0,0,0,1.14453-1.70508A1.02777,1.02777,0,0,0,91.09142,99.293c-.92432-.022-1.47461.792-1.65039,1.69433H88.16466a3.13233,3.13233,0,0,1,3.0586-2.86035A2.08207,2.08207,0,0,1,93.4674,100.437a3.70193,3.70193,0,0,1-1.3418,2.16748L89.68322,104.75h3.22314l-.187,1.21H86.9879Z" style="fill: #d7d7d7"/>
      <path d="M87.99962,140.15332H89.276a1.04974,1.04974,0,0,0,1.12207,1.21,1.44777,1.44777,0,0,0,1.48535-1.21c.15381-.86914-.57226-1.24316-1.46338-1.28711l.044-.29736.08789-.68213a1.635,1.635,0,0,0,1.65039-1.21.80916.80916,0,0,0-.814-1.03418,1.369,1.369,0,0,0-1.32031,1.05615l-1.21-.01123a2.59842,2.59842,0,0,1,2.61816-2.15625,1.85365,1.85365,0,0,1,2.02442,2.07959,2.23449,2.23449,0,0,1-1.67236,1.727,1.6964,1.6964,0,0,1,1.32031,1.96924,2.7251,2.7251,0,0,1-2.88233,2.17822A2.08733,2.08733,0,0,1,87.99962,140.15332Z" style="fill: #d7d7d7"/>
      <path d="M92.09288,171.05615l.80323-.01123-.86914,5.105h1.17724l-.187,1.12207H91.84l-.25293,1.47412H90.26671l.25293-1.47412-3.68554-.01123Zm-1.31982,5.18164.48389-2.79443-2.3545,2.79443Z" style="fill: #d7d7d7"/>
      <path d="M90.05724,215.23145a3.03682,3.03682,0,0,1-2.62939-1.375l.85839-.92481a2.10788,2.10788,0,0,0,1.71582,1.08984,1.76624,1.76624,0,0,0,1.84864-1.49609A1.25887,1.25887,0,0,0,90.53038,211.04a4.058,4.058,0,0,0-2.1123.59375l1.65039-4.22461H93.941l-.187,1.14453H90.88243l-.792,1.75977a3.06841,3.06841,0,0,1,1.21-.26368,2.04424,2.04424,0,0,1,1.89209,2.55176A3.054,3.054,0,0,1,90.05724,215.23145Z" style="fill: #d7d7d7"/>
      <path d="M93.03868,243.8252l-2.5747,2.72753a2.01742,2.01742,0,0,1,.748-.13183,2.06977,2.06977,0,0,1,1.91456,2.48633,3.13078,3.13078,0,0,1-3.14649,2.72851,2.28776,2.28776,0,0,1-2.36523-2.72851,3.45493,3.45493,0,0,1,.89111-1.81543l2.88232-3.2666Zm-2.94873,6.667a1.83968,1.83968,0,0,0,1.78223-1.585,1.28629,1.28629,0,0,0-1.23193-1.60547,1.85929,1.85929,0,0,0-1.78223,1.60547A1.26922,1.26922,0,0,0,90.09,250.49219Z" style="fill: #d7d7d7"/>
      <path d="M88.33556,280.05957h5.62207l-4.79687,7.70117h-1.397L91.8341,281.292l-3.69629-.01074Z" style="fill: #d7d7d7"/>
      <path d="M89.61681,320.04a1.63288,1.63288,0,0,1-.83594-1.73828,2.50185,2.50185,0,0,1,2.55225-1.98047,1.80738,1.80738,0,0,1,1.96924,2.002,2.2251,2.2251,0,0,1-1.44092,1.76074,1.82479,1.82479,0,0,1,1.06689,1.98047,2.85145,2.85145,0,0,1-2.87158,2.22168,2.01434,2.01434,0,0,1-2.189-2.22168A2.56332,2.56332,0,0,1,89.61681,320.04Zm.55029,3.14648a1.57639,1.57639,0,0,0,1.54-1.29882,1.08667,1.08667,0,0,0-1.02295-1.29786,1.64086,1.64086,0,0,0-1.52929,1.29786A1.043,1.043,0,0,0,90.1671,323.18652Zm.627-3.65332a1.32765,1.32765,0,0,0,1.27636-1.08886.871.871,0,0,0-.83642-1.08887,1.30867,1.30867,0,0,0-1.26514,1.09961A.87081.87081,0,0,0,90.79406,319.5332Z" style="fill: #d7d7d7"/>
    </g>
    <g>
      <path d="M29.70324,24.67041V8.76465L33.173,5.63525h5.51172L41.82628,9.105V24.67041H38.35656V17.74463H33.173v6.92578ZM33.173,14.28857l3.46045,2.14991h1.72315V9.105l-1.72315-1.7417-1.7373-.42187H33.173Z" style="fill: #d7d7d7"/>
      <path d="M44.95617,13.377V9.105L47.111,5.62158H54.045l2.16358,1.7417.01367,1.7417H53.7047l-1.74609-1.7417-1.73243-.42187H48.4254v4.27246l1.73291,1.7417,1.73145.42138,2.30517.42188,1.74122,1.7417,1.18408,1.30615v4.354l-2.16358,3.46973H48.03234l-2.16846-1.7417v-1.728H48.358V21.187l3.4917,2.16358H53.6505v-4.354l-1.74609-1.7417-2.28955-.4082-1.772-.42188Z" style="fill: #d7d7d7"/>
      <path d="M60.24913,24.67041V5.62158h8.99414l3.1294,3.46973v5.52392l-3.46973,3.1294H63.71886v6.92578Zm3.46973-10.395,3.45606,2.16309h1.728V9.09131l-1.728-1.728-1.728-.43555v.01368h-1.728Z" style="fill: #d7d7d7"/>
      <path d="M75.46154,24.67041V5.63525l9.00732-.01367,2.1499,1.7417.01367,1.728h-2.5039l-1.728-1.728-1.728-.42187H78.93126v7.34716H82.4005v1.728H78.93126v7.334h2.2041v.01367l3.45606-2.16358v.01368h2.50342v1.728l-2.16358,1.728Z" style="fill: #d7d7d7"/>
      <path d="M89.1632,21.20068V9.09131l3.12939-3.46973h5.86426l2.25879,1.7417v1.728H97.81652l-1.728-1.728-1.728-.43555h-1.728V21.20068l3.45606,2.16358.87109-2.73487h3.45606v1.36036l-3.45606,2.667v.01367h-4.667Z" style="fill: #d7d7d7"/>
      <path d="M101.58556,9.09131V5.62158h13.86475V9.09131h-1.728l-1.728-1.7417h-1.7417v17.3208h-3.46972V7.34961h-1.728l-1.74121,1.7417Z" style="fill: #d7d7d7"/>
    </g>
    <g id="60a9ea0d-599f-4dd4-9807-828bff40827f" data-name="Logo">
      <polygon points="68.542 345.697 66.188 345.697 66.188 348.052 66.188 350.406 66.188 352.76 66.188 355.114 68.542 355.114 68.542 352.76 68.542 350.406 70.896 350.406 70.896 348.052 73.25 348.052 73.25 345.697 70.896 345.697 68.542 345.697" style="fill: #d7d7d7"/>
      <polygon points="70.896 355.114 73.25 355.114 75.604 355.114 77.959 355.114 77.959 352.76 77.959 350.406 77.959 348.052 77.959 345.698 75.604 345.698 75.604 348.052 75.604 350.406 73.25 350.406 73.25 352.76 70.896 352.76 70.896 355.114" style="fill: #d7d7d7"/>
      <polygon points="80.313 342.121 63.834 342.121 63.834 343.389 80.313 343.389 80.313 357.442 63.834 357.442 63.834 342.121 62.657 342.121 62.657 358.619 63.834 358.619 81.49 358.619 81.49 357.442 81.49 342.121 80.313 342.121" style="fill: #d7d7d7"/>
    </g>
    <g id="aad52cf6-d73f-41f1-ba64-b9354c84d870" data-name="Legend">
      <circle cx="53.04837" cy="66.37988" r="13.63575" style="fill: none;stroke: #fd495c;stroke-miterlimit: 10"/>
      <circle cx="53.04837" cy="102.75879" r="13.63575" style="fill: none;stroke: #fd495c;stroke-miterlimit: 10"/>
    </g>
  </g>
</svg>
