<svg xmlns="http://www.w3.org/2000/svg" width="50.852mm" height="128.5mm" viewBox="0 0 144.146 364.252">
  <title>Aspect</title>
  <g id="4e7edca1-a514-48d4-988b-05e3a4b3dab1" data-name="Aspect">
    <rect id="88b6545f-6e15-4b97-92de-6e2fff5edd32" data-name="BG" y="0.374" width="144" height="364.252" style="fill: #333"/>
    <g id="ec9a7286-140a-473f-a0d1-f99ab5e8abd6" data-name="Header">
      <rect width="144" height="31.181" style="fill: #fd495c"/>
    </g>
    <g id="e6b6f3ae-f8ac-4bb8-8638-b72cf5a072d7" data-name="Text">
      <g>
        <path d="M13.093,68.437a3.747,3.747,0,0,0,2.552-1.078l-.231,1.54a4.067,4.067,0,0,1-2.5.814A3.28,3.28,0,0,1,9.66,65.73a4.661,4.661,0,0,1,4.533-3.982,3.208,3.208,0,0,1,2.289.814l-.243,1.551a2.488,2.488,0,0,0-2.134-1.089,3.221,3.221,0,0,0-3.059,2.706A2.167,2.167,0,0,0,13.093,68.437Z" style="fill: #d7d7d7"/>
        <path d="M19.363,61l-1.485,8.581H16.722L18.174,61Z" style="fill: #d7d7d7"/>
        <path d="M22.486,64.41a2.232,2.232,0,0,1,2.289,2.641,3.07,3.07,0,0,1-3.037,2.64,2.237,2.237,0,0,1-2.288-2.64A3.071,3.071,0,0,1,22.486,64.41Zm-.66,4.225a1.833,1.833,0,0,0,1.739-1.584,1.256,1.256,0,0,0-1.178-1.585,1.833,1.833,0,0,0-1.738,1.585A1.255,1.255,0,0,0,21.826,68.635Z" style="fill: #d7d7d7"/>
        <path d="M27.832,68.657a2.338,2.338,0,0,0,1.772-.836l-.187,1.3a2.731,2.731,0,0,1-1.717.572,2.246,2.246,0,0,1-2.31-2.64,3.066,3.066,0,0,1,3.048-2.641,2.4,2.4,0,0,1,1.606.572l-.187,1.31a1.555,1.555,0,0,0-1.453-.848,1.873,1.873,0,0,0-1.8,1.607A1.287,1.287,0,0,0,27.832,68.657Z" style="fill: #d7d7d7"/>
        <path d="M35.7,64.521l-2.552,2.156,1.837,2.9H33.619l-1.595-2.574-.441,2.574H30.439L31.891,61h1.167l-.9,5.248L34.2,64.521Z" style="fill: #d7d7d7"/>
      </g>
      <g>
        <path d="M13.618,98.259a2.086,2.086,0,0,1,2.332,2.4,2.738,2.738,0,0,1-2.069,2.256l1.585,3.047h-1.5l-1.4-2.916H11.8l-.495,2.916H10.031l1.3-7.7Zm-1.189,1.133-.44,2.574h.947a1.6,1.6,0,0,0,1.694-1.287,1.064,1.064,0,0,0-1.188-1.287Z" style="fill: #d7d7d7"/>
        <path d="M16.345,103.76a2.944,2.944,0,0,1,2.971-2.971,2,2,0,0,1,2.178,2.223,2.447,2.447,0,0,1-.121.693h-3.84c-.022.814.374,1.386,1.188,1.386a1.775,1.775,0,0,0,1.474-.8l.991.407a2.907,2.907,0,0,1-2.564,1.375A2.135,2.135,0,0,1,16.345,103.76Zm1.331-.881h2.6v-.022c0-.726-.352-1.166-1.057-1.166A1.628,1.628,0,0,0,17.676,102.879Z" style="fill: #d7d7d7"/>
        <path d="M24.045,105.146a.637.637,0,0,0,.7-.594c.011-.44-.484-.671-.968-.858-.616-.242-1.265-.606-1.243-1.464a1.591,1.591,0,0,1,1.782-1.441,2.353,2.353,0,0,1,1.859.891l-.66.694a1.677,1.677,0,0,0-1.21-.683c-.4,0-.66.2-.66.484-.022.4.418.561.924.77.748.32,1.364.66,1.342,1.541a1.714,1.714,0,0,1-1.859,1.628,2.744,2.744,0,0,1-2.211-1.122l.748-.682A1.94,1.94,0,0,0,24.045,105.146Z" style="fill: #d7d7d7"/>
        <path d="M26.608,103.76a2.944,2.944,0,0,1,2.97-2.971,2,2,0,0,1,2.178,2.223,2.412,2.412,0,0,1-.121.693H27.8c-.022.814.374,1.386,1.188,1.386a1.777,1.777,0,0,0,1.474-.8l.99.407a2.9,2.9,0,0,1-2.563,1.375A2.135,2.135,0,0,1,26.608,103.76Zm1.331-.881h2.6v-.022c0-.726-.352-1.166-1.056-1.166A1.628,1.628,0,0,0,27.939,102.879Z" style="fill: #d7d7d7"/>
        <path d="M33.274,100.9l.3-1.76h1.178l-.308,1.76h.836l-.187,1.045h-.825l-.7,4.016H32.416l.682-4.016h-.815l.187-1.045Z" style="fill: #d7d7d7"/>
      </g>
      <g>
        <path d="M29.779,134.652,23.751,144l-1.2-.011,6.029-9.341Z" style="fill: #d7d7d7"/>
        <path d="M32.9,138.6a3.231,3.231,0,0,0,1.145-1.705,1.027,1.027,0,0,0-1.056-1.21c-.924-.022-1.475.792-1.651,1.694H30.064a3.132,3.132,0,0,1,3.059-2.86,2.082,2.082,0,0,1,2.244,2.31A3.7,3.7,0,0,1,34.025,139l-2.442,2.146h3.223l-.187,1.21H28.887Z" style="fill: #d7d7d7"/>
      </g>
      <g>
        <path d="M29.505,171.045,23.476,180.4l-1.2-.011,6.029-9.34Z" style="fill: #d7d7d7"/>
        <path d="M33.992,171.056l.8-.011-.869,5.105H35.1l-.187,1.122H33.739l-.253,1.474h-1.32l.253-1.474-3.686-.011Zm-1.32,5.182.484-2.795L30.8,176.238Z" style="fill: #d7d7d7"/>
      </g>
      <g>
        <path d="M30.054,207.409l-6.028,9.352-1.2-.011,6.029-9.341Z" style="fill: #d7d7d7"/>
        <path d="M31.516,211a1.632,1.632,0,0,1-.836-1.738,2.5,2.5,0,0,1,2.553-1.981,1.808,1.808,0,0,1,1.969,2,2.225,2.225,0,0,1-1.441,1.761,1.825,1.825,0,0,1,1.067,1.981,2.851,2.851,0,0,1-2.872,2.221,2.014,2.014,0,0,1-2.189-2.221A2.563,2.563,0,0,1,31.516,211Zm.551,3.147a1.578,1.578,0,0,0,1.54-1.3,1.087,1.087,0,0,0-1.023-1.3,1.64,1.64,0,0,0-1.53,1.3A1.044,1.044,0,0,0,32.067,214.143Zm.626-3.654A1.327,1.327,0,0,0,33.97,209.4a.87.87,0,0,0-.837-1.088,1.307,1.307,0,0,0-1.265,1.1A.87.87,0,0,0,32.693,210.489Z" style="fill: #d7d7d7"/>
      </g>
      <g>
        <path d="M24.631,243.8,18.6,253.154l-1.2-.01,6.029-9.341Z" style="fill: #d7d7d7"/>
        <path d="M25.444,244.364l3.125-.693L27.205,251.5H25.95l1.09-6.381-1.827.484Z" style="fill: #d7d7d7"/>
        <path d="M34.938,243.825l-2.574,2.728a2.014,2.014,0,0,1,.748-.132,2.069,2.069,0,0,1,1.914,2.486,3.13,3.13,0,0,1-3.146,2.729,2.288,2.288,0,0,1-2.365-2.729,3.451,3.451,0,0,1,.891-1.815l2.882-3.267Zm-2.948,6.667a1.84,1.84,0,0,0,1.782-1.585A1.286,1.286,0,0,0,32.54,247.3a1.859,1.859,0,0,0-1.782,1.605A1.269,1.269,0,0,0,31.99,250.492Z" style="fill: #d7d7d7"/>
      </g>
      <g>
        <path d="M23.641,280.06l-6.029,9.351-1.2-.011,6.029-9.34Z" style="fill: #d7d7d7"/>
        <path d="M23.464,285.561H24.74a1.05,1.05,0,0,0,1.122,1.21,1.45,1.45,0,0,0,1.486-1.21c.154-.87-.572-1.244-1.464-1.288l.044-.3.088-.683a1.634,1.634,0,0,0,1.651-1.21.809.809,0,0,0-.814-1.034,1.37,1.37,0,0,0-1.321,1.055l-1.21-.01a2.6,2.6,0,0,1,2.619-2.157,1.854,1.854,0,0,1,2.024,2.08,2.234,2.234,0,0,1-1.672,1.727,1.7,1.7,0,0,1,1.32,1.97,2.727,2.727,0,0,1-2.883,2.178A2.087,2.087,0,0,1,23.464,285.561Z" style="fill: #d7d7d7"/>
        <path d="M32.9,284.009a3.231,3.231,0,0,0,1.145-1.705,1.027,1.027,0,0,0-1.056-1.21c-.924-.023-1.475.792-1.651,1.694H30.064a3.133,3.133,0,0,1,3.059-2.86,2.082,2.082,0,0,1,2.244,2.31,3.7,3.7,0,0,1-1.342,2.167l-2.442,2.146h3.223l-.187,1.21H28.887Z" style="fill: #d7d7d7"/>
      </g>
      <g>
        <path d="M22.971,316.453l-6.029,9.352-1.2-.011,6.029-9.341Z" style="fill: #d7d7d7"/>
        <path d="M28.228,316.476,25.654,319.2a2.014,2.014,0,0,1,.748-.132,2.071,2.071,0,0,1,1.915,2.487,3.131,3.131,0,0,1-3.147,2.728,2.288,2.288,0,0,1-2.365-2.728,3.454,3.454,0,0,1,.891-1.816l2.882-3.266Zm-2.948,6.667a1.841,1.841,0,0,0,1.782-1.585,1.287,1.287,0,0,0-1.232-1.606,1.86,1.86,0,0,0-1.782,1.606A1.27,1.27,0,0,0,25.28,323.143Z" style="fill: #d7d7d7"/>
        <path d="M33.992,316.464l.8-.011-.87,5.105H35.1l-.187,1.122H33.739l-.253,1.474h-1.32l.253-1.474-3.685-.011Zm-1.32,5.182.484-2.794L30.8,321.646Z" style="fill: #d7d7d7"/>
      </g>
      <path d="M90.079,62.441l3.125-.693-1.365,7.833H90.585L91.674,63.2l-1.826.484Z" style="fill: #d7d7d7"/>
      <path d="M91,102.208a3.242,3.242,0,0,0,1.145-1.7,1.028,1.028,0,0,0-1.057-1.21c-.924-.022-1.474.792-1.65,1.694H88.165a3.132,3.132,0,0,1,3.058-2.86,2.081,2.081,0,0,1,2.244,2.31,3.7,3.7,0,0,1-1.341,2.167l-2.443,2.146h3.223l-.187,1.21H86.988Z" style="fill: #d7d7d7"/>
      <path d="M88,140.153h1.276a1.049,1.049,0,0,0,1.122,1.21,1.447,1.447,0,0,0,1.485-1.21c.154-.869-.572-1.243-1.463-1.287l.044-.3.088-.682a1.635,1.635,0,0,0,1.65-1.21.809.809,0,0,0-.814-1.034,1.367,1.367,0,0,0-1.32,1.056l-1.21-.011a2.6,2.6,0,0,1,2.618-2.157,1.854,1.854,0,0,1,2.025,2.08,2.236,2.236,0,0,1-1.673,1.727,1.7,1.7,0,0,1,1.321,1.969,2.726,2.726,0,0,1-2.883,2.178A2.087,2.087,0,0,1,88,140.153Z" style="fill: #d7d7d7"/>
      <path d="M92.093,171.056l.8-.011-.869,5.105H93.2l-.187,1.122H91.84l-.253,1.474h-1.32l.253-1.474-3.686-.011Zm-1.32,5.182.484-2.795L88.9,176.238Z" style="fill: #d7d7d7"/>
      <path d="M90.057,215.231a3.036,3.036,0,0,1-2.629-1.375l.858-.924A2.109,2.109,0,0,0,90,214.021a1.767,1.767,0,0,0,1.849-1.5,1.259,1.259,0,0,0-1.321-1.485,4.057,4.057,0,0,0-2.112.594l1.65-4.225h3.873l-.187,1.145H90.882l-.792,1.759a3.069,3.069,0,0,1,1.21-.263,2.043,2.043,0,0,1,1.892,2.552A3.053,3.053,0,0,1,90.057,215.231Z" style="fill: #d7d7d7"/>
      <path d="M93.039,243.825l-2.575,2.728a2.014,2.014,0,0,1,.748-.132,2.07,2.07,0,0,1,1.915,2.486,3.131,3.131,0,0,1-3.147,2.729,2.288,2.288,0,0,1-2.365-2.729,3.458,3.458,0,0,1,.891-1.815l2.882-3.267Zm-2.949,6.667a1.84,1.84,0,0,0,1.782-1.585A1.286,1.286,0,0,0,90.64,247.3a1.859,1.859,0,0,0-1.782,1.605A1.269,1.269,0,0,0,90.09,250.492Z" style="fill: #d7d7d7"/>
      <path d="M88.336,280.06h5.622l-4.8,7.7h-1.4l4.07-6.469-3.7-.011Z" style="fill: #d7d7d7"/>
      <path d="M89.617,320.04a1.632,1.632,0,0,1-.836-1.738,2.5,2.5,0,0,1,2.552-1.981,1.807,1.807,0,0,1,1.969,2,2.225,2.225,0,0,1-1.441,1.761,1.824,1.824,0,0,1,1.067,1.98,2.85,2.85,0,0,1-2.871,2.222,2.014,2.014,0,0,1-2.189-2.222A2.562,2.562,0,0,1,89.617,320.04Zm.55,3.147a1.577,1.577,0,0,0,1.54-1.3,1.087,1.087,0,0,0-1.023-1.3,1.64,1.64,0,0,0-1.529,1.3A1.043,1.043,0,0,0,90.167,323.187Zm.627-3.654a1.327,1.327,0,0,0,1.276-1.089.871.871,0,0,0-.836-1.089,1.309,1.309,0,0,0-1.265,1.1A.87.87,0,0,0,90.794,319.533Z" style="fill: #d7d7d7"/>
    </g>
    <g>
      <path d="M31.546,24.974V9.76l3.319-2.993h5.272l3.005,3.318V24.974H39.824V18.349H34.865v6.625Zm3.319-9.931,3.31,2.057h1.649V10.085L38.175,8.419l-1.661-.4H34.865Z" style="fill: #333"/>
      <path d="M46.136,14.171V10.085L48.2,6.753h6.632L56.9,8.419l.013,1.666H54.5l-1.67-1.666-1.657-.4H49.454V12.1l1.657,1.665,1.657.4,2.2.4,1.666,1.666,1.133,1.249v4.165L55.7,24.974H49.078L47,23.308V21.655h2.385v-.013l3.341,2.069h1.722V19.546l-1.67-1.665-2.191-.391-1.694-.4Z" style="fill: #333"/>
      <path d="M60.764,24.974V6.753h8.6l2.994,3.319v5.284l-3.319,2.993H64.083v6.625Zm3.319-9.943L67.388,17.1h1.653V10.072L67.388,8.419,65.735,8v.013H64.083Z" style="fill: #333"/>
      <path d="M75.314,24.974V6.767l8.616-.014,2.056,1.666L86,10.072H83.605L81.952,8.419l-1.653-.4H78.633v7.027h3.319V16.7H78.633v7.015h2.108v.013l3.306-2.069v.013h2.395v1.653l-2.07,1.653Z" style="fill: #333"/>
      <path d="M88.42,21.655V10.072l2.993-3.319h5.609l2.16,1.666v1.653H96.7L95.044,8.419,93.391,8H91.738V21.655l3.306,2.069.833-2.616h3.305v1.3l-3.305,2.55v.014H91.413Z" style="fill: #333"/>
      <path d="M100.3,10.072V6.753h13.262v3.319h-1.653l-1.653-1.666h-1.666V24.974h-3.318V8.406h-1.653l-1.666,1.666Z" style="fill: #333"/>
    </g>
    <g id="34a4ab32-4e2d-489e-a71a-01c7d6006c5c" data-name="Logo">
      <polygon points="68.542 345.697 66.188 345.697 66.188 348.052 66.188 350.406 66.188 352.76 66.188 355.114 68.542 355.114 68.542 352.76 68.542 350.406 70.896 350.406 70.896 348.052 73.25 348.052 73.25 345.697 70.896 345.697 68.542 345.697" style="fill: #d7d7d7"/>
      <polygon points="70.896 355.114 73.25 355.114 75.604 355.114 77.959 355.114 77.959 352.76 77.959 350.406 77.959 348.052 77.959 345.698 75.604 345.698 75.604 348.052 75.604 350.406 73.25 350.406 73.25 352.76 70.896 352.76 70.896 355.114" style="fill: #d7d7d7"/>
      <polygon points="80.313 342.121 63.834 342.121 63.834 343.389 80.313 343.389 80.313 357.442 63.834 357.442 63.834 342.121 62.657 342.121 62.657 358.619 63.834 358.619 81.49 358.619 81.49 357.442 81.49 342.121 80.313 342.121" style="fill: #d7d7d7"/>
    </g>
    <g id="56f01c89-d05f-40c1-9b34-2ff284a5462b" data-name="Legend">
      <circle cx="53.048" cy="66.38" r="13.636" style="fill: none;stroke: #fd495c;stroke-miterlimit: 10"/>
      <circle cx="53.048" cy="102.759" r="13.636" style="fill: none;stroke: #fd495c;stroke-miterlimit: 10"/>
    </g>
  </g>
</svg>
