<svg xmlns="http://www.w3.org/2000/svg" width="182.88mm" height="128.5mm" viewBox="0 0 518.4 364.25197">
  <title>Botzinger</title>
  <g id="e54d8bdc-252a-4ae7-bf43-804fb24f8dd2" data-name="Nova">
    <g id="c51ee0bc-5dca-42ec-8869-4c18b45a9deb" data-name="KNOBS">
      <g>
        <circle cx="466.72628" cy="185.64892" r="21.25984" style="fill: #666"/>
        <circle cx="466.72628" cy="185.59375" r="18.60733" style="fill: #c9c9c9"/>
        <circle cx="466.72628" cy="173.59964" r="2.65748" style="fill: #333"/>
      </g>
      <g>
        <circle cx="358.38202" cy="66.41665" r="14.17323" style="fill: #666"/>
        <circle cx="358.38202" cy="66.37988" r="12.40488" style="fill: #c9c9c9"/>
        <circle cx="358.38202" cy="58.3838" r="1.77165" style="fill: #333"/>
      </g>
      <g>
        <circle cx="315.72135" cy="66.41665" r="14.17323" style="fill: #666"/>
        <circle cx="315.72135" cy="66.37988" r="12.40488" style="fill: #c9c9c9"/>
        <circle cx="315.72135" cy="58.3838" r="1.77165" style="fill: #333"/>
      </g>
      <g>
        <circle cx="273.06067" cy="66.41665" r="14.17323" style="fill: #666"/>
        <circle cx="273.06067" cy="66.37988" r="12.40488" style="fill: #c9c9c9"/>
        <circle cx="273.06067" cy="58.3838" r="1.77165" style="fill: #333"/>
      </g>
      <g>
        <circle cx="230.4" cy="66.41665" r="14.17323" style="fill: #666"/>
        <circle cx="230.4" cy="66.37988" r="12.40488" style="fill: #c9c9c9"/>
        <circle cx="230.4" cy="58.3838" r="1.77165" style="fill: #333"/>
      </g>
      <g>
        <circle cx="187.73933" cy="66.41665" r="14.17323" style="fill: #666"/>
        <circle cx="187.73933" cy="66.37988" r="12.40488" style="fill: #c9c9c9"/>
        <circle cx="187.73933" cy="58.3838" r="1.77165" style="fill: #333"/>
      </g>
      <g>
        <circle cx="145.07865" cy="66.41665" r="14.17323" style="fill: #666"/>
        <circle cx="145.07865" cy="66.37988" r="12.40488" style="fill: #c9c9c9"/>
        <circle cx="145.07865" cy="58.3838" r="1.77165" style="fill: #333"/>
      </g>
      <g>
        <circle cx="102.41798" cy="66.41665" r="14.17323" style="fill: #666"/>
        <circle cx="102.41798" cy="66.37988" r="12.40488" style="fill: #c9c9c9"/>
        <circle cx="102.41798" cy="58.3838" r="1.77165" style="fill: #333"/>
      </g>
      <g>
        <circle cx="401.0427" cy="66.41665" r="14.17323" style="fill: #666"/>
        <circle cx="401.0427" cy="66.37988" r="12.40488" style="fill: #c9c9c9"/>
        <circle cx="401.0427" cy="58.3838" r="1.77165" style="fill: #333"/>
      </g>
      <g>
        <circle cx="466.72628" cy="258.72366" r="21.25984" style="fill: #666"/>
        <circle cx="466.72628" cy="258.66849" r="18.60733" style="fill: #c9c9c9"/>
        <circle cx="466.72628" cy="246.67438" r="2.65748" style="fill: #333"/>
      </g>
      <g>
        <circle cx="466.72628" cy="112.51901" r="21.25984" style="fill: #666"/>
        <circle cx="466.72628" cy="112.46384" r="18.60733" style="fill: #c9c9c9"/>
        <circle cx="466.72628" cy="100.46973" r="2.65748" style="fill: #333"/>
      </g>
    </g>
  </g>
  <g id="3baf1d90-a583-41c2-8b3b-60d762ba1887" data-name="Botzinger">
    <g id="0e70190a-a9fa-42f3-9116-71547bb2460a" data-name="BG">
      <rect width="518.4" height="364.25197" style="fill: #2a2d30"/>
    </g>
    <g id="3792e048-9893-448e-b1f2-4972f279047d" data-name="Logo">
      <g>
        <polygon points="255.669 345.662 253.315 345.662 253.315 348.016 253.315 350.37 253.315 352.724 253.315 355.078 255.669 355.078 255.669 352.724 255.669 350.37 258.023 350.37 258.023 348.016 260.377 348.016 260.377 345.662 258.023 345.662 255.669 345.662" style="fill: #d7d7d7"/>
        <polygon points="258.023 355.078 260.377 355.078 262.731 355.078 265.085 355.078 265.085 352.724 265.085 350.37 265.085 348.016 265.085 345.662 262.731 345.662 262.731 348.016 262.731 350.37 260.377 350.37 260.377 352.724 258.023 352.724 258.023 355.078" style="fill: #d7d7d7"/>
        <polygon points="267.439 342.085 250.961 342.085 250.961 343.353 267.439 343.353 267.439 357.406 250.961 357.406 250.961 342.085 249.783 342.085 249.783 358.583 250.961 358.583 268.617 358.583 268.617 357.406 268.617 342.085 267.439 342.085" style="fill: #d7d7d7"/>
      </g>
    </g>
    <g id="6117abe7-b7fc-4d7f-b4d8-6b0656555ff8" data-name="Legend">
      <g>
        <g>
          <line x1="386.6966" y1="82.20234" x2="386.69563" y2="86.85578" style="fill: none;stroke: #8576cf;stroke-miterlimit: 10"/>
          <polygon points="385.001 84.864 386.696 86.56 388.391 84.864 388.391 86.304 386.695 87.999 385.001 86.303 385.001 84.864" style="fill: #8576cf"/>
        </g>
        <circle cx="386.69649" cy="68.56659" r="13.63575" style="fill: none;stroke: #8576cf;stroke-miterlimit: 10"/>
      </g>
      <g>
        <path d="M378.45738,265.30406a.39214.39214,0,0,1-.22338-.06945,14.9528,14.9528,0,1,1,16.935-.00617.39531.39531,0,0,1-.4483-.65124,14.16333,14.16333,0,1,0-16.03919.00617.39507.39507,0,0,1-.22415.72069Z" style="fill: #8576cf"/>
        <path d="M379.08441,263.86386a1.18829,1.18829,0,1,1-1.64829.32734A1.18841,1.18841,0,0,1,379.08441,263.86386Z" style="fill: #8576cf"/>
        <circle cx="394.97678" cy="264.84638" r="1.18829" style="fill: #8576cf"/>
      </g>
      <g>
        <path d="M335.93769,265.30406a.39217.39217,0,0,1-.22338-.06945,14.95281,14.95281,0,1,1,16.935-.00617.39532.39532,0,0,1-.44831-.65124,14.16333,14.16333,0,1,0-16.03918.00617.39508.39508,0,0,1-.22416.72069Z" style="fill: #8576cf"/>
        <path d="M336.56473,263.86386a1.18829,1.18829,0,1,1-1.64829.32734A1.18842,1.18842,0,0,1,336.56473,263.86386Z" style="fill: #8576cf"/>
        <circle cx="352.4571" cy="264.84638" r="1.18829" style="fill: #8576cf"/>
      </g>
      <g>
        <path d="M293.418,265.30406a.39214.39214,0,0,1-.22338-.06945,14.9528,14.9528,0,1,1,16.935-.00617.39531.39531,0,0,1-.4483-.65124,14.16333,14.16333,0,1,0-16.03919.00617.39507.39507,0,0,1-.22415.72069Z" style="fill: #8576cf"/>
        <path d="M294.045,263.86386a1.18829,1.18829,0,1,1-1.64829.32734A1.18841,1.18841,0,0,1,294.045,263.86386Z" style="fill: #8576cf"/>
        <circle cx="309.93741" cy="264.84638" r="1.18829" style="fill: #8576cf"/>
      </g>
      <g>
        <path d="M250.96088,265.30406a.39217.39217,0,0,1-.22338-.06945,14.95281,14.95281,0,1,1,16.935-.00617.39532.39532,0,0,1-.44831-.65124,14.16333,14.16333,0,1,0-16.03918.00617.39508.39508,0,0,1-.22416.72069Z" style="fill: #8576cf"/>
        <path d="M251.58792,263.86386a1.18829,1.18829,0,1,1-1.64829.32734A1.18842,1.18842,0,0,1,251.58792,263.86386Z" style="fill: #8576cf"/>
        <circle cx="267.48029" cy="264.84638" r="1.18829" style="fill: #8576cf"/>
      </g>
      <g>
        <path d="M378.45738,298.08467a.39214.39214,0,0,1-.22338-.06945,14.9528,14.9528,0,1,1,16.935-.00617.39531.39531,0,0,1-.4483-.65124,14.16333,14.16333,0,1,0-16.03919.00617.39507.39507,0,0,1-.22415.72069Z" style="fill: #8576cf"/>
        <path d="M379.08441,296.64447a1.18829,1.18829,0,1,1-1.64829.32734A1.18841,1.18841,0,0,1,379.08441,296.64447Z" style="fill: #8576cf"/>
        <circle cx="394.97678" cy="297.62698" r="1.18829" style="fill: #8576cf"/>
      </g>
      <g>
        <path d="M335.93769,298.08467a.39217.39217,0,0,1-.22338-.06945,14.95281,14.95281,0,1,1,16.935-.00617.39532.39532,0,0,1-.44831-.65124,14.16333,14.16333,0,1,0-16.03918.00617.39508.39508,0,0,1-.22416.72069Z" style="fill: #8576cf"/>
        <path d="M336.56473,296.64447a1.18829,1.18829,0,1,1-1.64829.32734A1.18842,1.18842,0,0,1,336.56473,296.64447Z" style="fill: #8576cf"/>
        <circle cx="352.4571" cy="297.62698" r="1.18829" style="fill: #8576cf"/>
      </g>
      <g>
        <path d="M293.418,298.08467a.39214.39214,0,0,1-.22338-.06945,14.9528,14.9528,0,1,1,16.935-.00617.39531.39531,0,0,1-.4483-.65124,14.16333,14.16333,0,1,0-16.03919.00617.39507.39507,0,0,1-.22415.72069Z" style="fill: #8576cf"/>
        <path d="M294.045,296.64447a1.18829,1.18829,0,1,1-1.64829.32734A1.18841,1.18841,0,0,1,294.045,296.64447Z" style="fill: #8576cf"/>
        <circle cx="309.93741" cy="297.62698" r="1.18829" style="fill: #8576cf"/>
      </g>
      <g>
        <path d="M250.96088,298.08467a.39217.39217,0,0,1-.22338-.06945,14.95281,14.95281,0,1,1,16.935-.00617.39532.39532,0,0,1-.44831-.65124,14.16333,14.16333,0,1,0-16.03918.00617.39508.39508,0,0,1-.22416.72069Z" style="fill: #8576cf"/>
        <path d="M251.58792,296.64447a1.18829,1.18829,0,1,1-1.64829.32734A1.18842,1.18842,0,0,1,251.58792,296.64447Z" style="fill: #8576cf"/>
        <circle cx="267.48029" cy="297.62698" r="1.18829" style="fill: #8576cf"/>
      </g>
      <g>
        <g>
          <line x1="344.17683" y1="82.20234" x2="344.17609" y2="86.85578" style="fill: none;stroke: #8576cf;stroke-miterlimit: 10"/>
          <polygon points="342.481 84.864 344.176 86.56 345.872 84.864 345.871 86.304 344.176 87.999 342.481 86.303 342.481 84.864" style="fill: #8576cf"/>
        </g>
        <circle cx="344.17681" cy="68.56659" r="13.63575" style="fill: none;stroke: #8576cf;stroke-miterlimit: 10"/>
      </g>
      <g>
        <g>
          <line x1="301.65717" y1="82.20234" x2="301.65632" y2="86.85578" style="fill: none;stroke: #8576cf;stroke-miterlimit: 10"/>
          <polygon points="299.961 84.864 301.656 86.56 303.352 84.864 303.352 86.304 301.656 87.999 299.961 86.303 299.961 84.864" style="fill: #8576cf"/>
        </g>
        <circle cx="301.65712" cy="68.56659" r="13.63575" style="fill: none;stroke: #8576cf;stroke-miterlimit: 10"/>
      </g>
      <g>
        <g>
          <line x1="259.20002" y1="82.20234" x2="259.19917" y2="86.85578" style="fill: none;stroke: #8576cf;stroke-miterlimit: 10"/>
          <polygon points="257.504 84.864 259.199 86.56 260.895 84.864 260.895 86.304 259.199 87.999 257.504 86.303 257.504 84.864" style="fill: #8576cf"/>
        </g>
        <circle cx="259.2" cy="68.56659" r="13.63575" style="fill: none;stroke: #8576cf;stroke-miterlimit: 10"/>
      </g>
      <g>
        <g>
          <line x1="386.6966" y1="230.46308" x2="386.69563" y2="235.11652" style="fill: none;stroke: #8576cf;stroke-miterlimit: 10"/>
          <polygon points="385.001 233.124 386.696 234.821 388.391 233.125 388.391 234.564 386.695 236.259 385.001 234.564 385.001 233.124" style="fill: #8576cf"/>
        </g>
        <circle cx="386.69649" cy="216.82733" r="13.63575" style="fill: none;stroke: #8576cf;stroke-miterlimit: 10"/>
      </g>
      <g>
        <g>
          <line x1="344.17683" y1="230.46308" x2="344.17609" y2="235.11652" style="fill: none;stroke: #8576cf;stroke-miterlimit: 10"/>
          <polygon points="342.481 233.124 344.176 234.821 345.872 233.125 345.871 234.564 344.176 236.259 342.481 234.564 342.481 233.124" style="fill: #8576cf"/>
        </g>
        <circle cx="344.17681" cy="216.82733" r="13.63575" style="fill: none;stroke: #8576cf;stroke-miterlimit: 10"/>
      </g>
      <g>
        <g>
          <line x1="301.65717" y1="230.46308" x2="301.65632" y2="235.11652" style="fill: none;stroke: #8576cf;stroke-miterlimit: 10"/>
          <polygon points="299.961 233.124 301.656 234.821 303.352 233.125 303.352 234.564 301.656 236.259 299.961 234.564 299.961 233.124" style="fill: #8576cf"/>
        </g>
        <circle cx="301.65712" cy="216.82733" r="13.63575" style="fill: none;stroke: #8576cf;stroke-miterlimit: 10"/>
      </g>
      <g>
        <g>
          <line x1="259.20002" y1="230.46308" x2="259.19917" y2="235.11652" style="fill: none;stroke: #8576cf;stroke-miterlimit: 10"/>
          <polygon points="257.504 233.124 259.199 234.821 260.895 233.125 260.895 234.564 259.199 236.259 257.504 234.564 257.504 233.124" style="fill: #8576cf"/>
        </g>
        <circle cx="259.2" cy="216.82733" r="13.63575" style="fill: none;stroke: #8576cf;stroke-miterlimit: 10"/>
      </g>
      <g>
        <g>
          <line x1="216.68037" y1="82.20234" x2="216.67951" y2="86.85578" style="fill: none;stroke: #8576cf;stroke-miterlimit: 10"/>
          <polygon points="214.985 84.864 216.68 86.56 218.375 84.864 218.375 86.304 216.679 87.999 214.984 86.303 214.985 84.864" style="fill: #8576cf"/>
        </g>
        <circle cx="216.68031" cy="68.56659" r="13.63575" style="fill: none;stroke: #8576cf;stroke-miterlimit: 10"/>
      </g>
      <g>
        <path d="M208.4412,265.30406a.39214.39214,0,0,1-.22338-.06945,14.9528,14.9528,0,1,1,16.935-.00617.39531.39531,0,0,1-.4483-.65124,14.16333,14.16333,0,1,0-16.03919.00617.39507.39507,0,0,1-.22415.72069Z" style="fill: #8576cf"/>
        <path d="M209.06823,263.86386a1.18829,1.18829,0,1,1-1.64829.32734A1.18841,1.18841,0,0,1,209.06823,263.86386Z" style="fill: #8576cf"/>
        <circle cx="224.9606" cy="264.84638" r="1.18829" style="fill: #8576cf"/>
      </g>
      <g>
        <path d="M165.92151,265.30406a.39217.39217,0,0,1-.22338-.06945,14.95281,14.95281,0,1,1,16.935-.00617.39532.39532,0,0,1-.44831-.65124,14.16333,14.16333,0,1,0-16.03918.00617.39508.39508,0,0,1-.22416.72069Z" style="fill: #8576cf"/>
        <path d="M166.54855,263.86386a1.18829,1.18829,0,1,1-1.64829.32734A1.18842,1.18842,0,0,1,166.54855,263.86386Z" style="fill: #8576cf"/>
        <circle cx="182.44092" cy="264.84638" r="1.18829" style="fill: #8576cf"/>
      </g>
      <g>
        <path d="M123.40183,265.30406a.39214.39214,0,0,1-.22338-.06945,14.9528,14.9528,0,1,1,16.935-.00617.39531.39531,0,0,1-.4483-.65124,14.16333,14.16333,0,1,0-16.03919.00617.39507.39507,0,0,1-.22415.72069Z" style="fill: #8576cf"/>
        <path d="M124.02886,263.86386a1.18829,1.18829,0,1,1-1.64829.32734A1.18841,1.18841,0,0,1,124.02886,263.86386Z" style="fill: #8576cf"/>
        <circle cx="139.92123" cy="264.84638" r="1.18829" style="fill: #8576cf"/>
      </g>
      <g>
        <path d="M80.9447,265.30406a.39217.39217,0,0,1-.22338-.06945,14.95281,14.95281,0,1,1,16.935-.00617.39532.39532,0,0,1-.44831-.65124,14.16333,14.16333,0,1,0-16.03918.00617.39508.39508,0,0,1-.22416.72069Z" style="fill: #8576cf"/>
        <path d="M81.57174,263.86386a1.18829,1.18829,0,1,1-1.64829.32734A1.18842,1.18842,0,0,1,81.57174,263.86386Z" style="fill: #8576cf"/>
        <circle cx="97.46411" cy="264.84638" r="1.18829" style="fill: #8576cf"/>
      </g>
      <g>
        <path d="M208.4412,298.08467a.39214.39214,0,0,1-.22338-.06945,14.9528,14.9528,0,1,1,16.935-.00617.39531.39531,0,0,1-.4483-.65124,14.16333,14.16333,0,1,0-16.03919.00617.39507.39507,0,0,1-.22415.72069Z" style="fill: #8576cf"/>
        <path d="M209.06823,296.64447a1.18829,1.18829,0,1,1-1.64829.32734A1.18841,1.18841,0,0,1,209.06823,296.64447Z" style="fill: #8576cf"/>
        <circle cx="224.9606" cy="297.62698" r="1.18829" style="fill: #8576cf"/>
      </g>
      <g>
        <path d="M165.92151,298.08467a.39217.39217,0,0,1-.22338-.06945,14.95281,14.95281,0,1,1,16.935-.00617.39532.39532,0,0,1-.44831-.65124,14.16333,14.16333,0,1,0-16.03918.00617.39508.39508,0,0,1-.22416.72069Z" style="fill: #8576cf"/>
        <path d="M166.54855,296.64447a1.18829,1.18829,0,1,1-1.64829.32734A1.18842,1.18842,0,0,1,166.54855,296.64447Z" style="fill: #8576cf"/>
        <circle cx="182.44092" cy="297.62698" r="1.18829" style="fill: #8576cf"/>
      </g>
      <g>
        <path d="M123.40183,298.08467a.39214.39214,0,0,1-.22338-.06945,14.9528,14.9528,0,1,1,16.935-.00617.39531.39531,0,0,1-.4483-.65124,14.16333,14.16333,0,1,0-16.03919.00617.39507.39507,0,0,1-.22415.72069Z" style="fill: #8576cf"/>
        <path d="M124.02886,296.64447a1.18829,1.18829,0,1,1-1.64829.32734A1.18841,1.18841,0,0,1,124.02886,296.64447Z" style="fill: #8576cf"/>
        <circle cx="139.92123" cy="297.62698" r="1.18829" style="fill: #8576cf"/>
      </g>
      <g>
        <path d="M80.9447,298.08467a.39217.39217,0,0,1-.22338-.06945,14.95281,14.95281,0,1,1,16.935-.00617.39532.39532,0,0,1-.44831-.65124,14.16333,14.16333,0,1,0-16.03918.00617.39508.39508,0,0,1-.22416.72069Z" style="fill: #8576cf"/>
        <path d="M81.57174,296.64447a1.18829,1.18829,0,1,1-1.64829.32734A1.18842,1.18842,0,0,1,81.57174,296.64447Z" style="fill: #8576cf"/>
        <circle cx="97.46411" cy="297.62698" r="1.18829" style="fill: #8576cf"/>
      </g>
      <g>
        <g>
          <line x1="174.16059" y1="82.20234" x2="174.15986" y2="86.85578" style="fill: none;stroke: #8576cf;stroke-miterlimit: 10"/>
          <polygon points="172.465 84.864 174.16 86.56 175.856 84.864 175.855 86.304 174.16 87.999 172.465 86.303 172.465 84.864" style="fill: #8576cf"/>
        </g>
        <circle cx="174.16063" cy="68.56659" r="13.63575" style="fill: none;stroke: #8576cf;stroke-miterlimit: 10"/>
      </g>
      <g>
        <g>
          <line x1="131.64094" y1="82.20234" x2="131.64008" y2="86.85578" style="fill: none;stroke: #8576cf;stroke-miterlimit: 10"/>
          <polygon points="129.945 84.864 131.64 86.56 133.336 84.864 133.336 86.304 131.64 87.999 129.945 86.303 129.945 84.864" style="fill: #8576cf"/>
        </g>
        <circle cx="131.64094" cy="68.56659" r="13.63575" style="fill: none;stroke: #8576cf;stroke-miterlimit: 10"/>
      </g>
      <g>
        <g>
          <line x1="89.18379" y1="82.20234" x2="89.18305" y2="86.85578" style="fill: none;stroke: #8576cf;stroke-miterlimit: 10"/>
          <polygon points="87.488 84.864 89.183 86.56 90.879 84.864 90.878 86.304 89.183 87.999 87.488 86.303 87.488 84.864" style="fill: #8576cf"/>
        </g>
        <circle cx="89.18382" cy="68.56659" r="13.63575" style="fill: none;stroke: #8576cf;stroke-miterlimit: 10"/>
      </g>
      <g>
        <g>
          <line x1="216.68037" y1="230.46308" x2="216.67951" y2="235.11652" style="fill: none;stroke: #8576cf;stroke-miterlimit: 10"/>
          <polygon points="214.985 233.124 216.68 234.821 218.375 233.125 218.375 234.564 216.679 236.259 214.984 234.564 214.985 233.124" style="fill: #8576cf"/>
        </g>
        <circle cx="216.68031" cy="216.82733" r="13.63575" style="fill: none;stroke: #8576cf;stroke-miterlimit: 10"/>
      </g>
      <g>
        <g>
          <line x1="174.16059" y1="230.46308" x2="174.15986" y2="235.11652" style="fill: none;stroke: #8576cf;stroke-miterlimit: 10"/>
          <polygon points="172.465 233.124 174.16 234.821 175.856 233.125 175.855 234.564 174.16 236.259 172.465 234.564 172.465 233.124" style="fill: #8576cf"/>
        </g>
        <circle cx="174.16063" cy="216.82733" r="13.63575" style="fill: none;stroke: #8576cf;stroke-miterlimit: 10"/>
      </g>
      <g>
        <g>
          <line x1="131.64094" y1="230.46308" x2="131.64008" y2="235.11652" style="fill: none;stroke: #8576cf;stroke-miterlimit: 10"/>
          <polygon points="129.945 233.124 131.64 234.821 133.336 233.125 133.336 234.564 131.64 236.259 129.945 234.564 129.945 233.124" style="fill: #8576cf"/>
        </g>
        <circle cx="131.64094" cy="216.82733" r="13.63575" style="fill: none;stroke: #8576cf;stroke-miterlimit: 10"/>
      </g>
      <g>
        <g>
          <line x1="89.18379" y1="230.46308" x2="89.18305" y2="235.11652" style="fill: none;stroke: #8576cf;stroke-miterlimit: 10"/>
          <polygon points="87.488 233.124 89.183 234.821 90.879 233.125 90.878 234.564 89.183 236.259 87.488 234.564 87.488 233.124" style="fill: #8576cf"/>
        </g>
        <circle cx="89.18382" cy="216.82733" r="13.63575" style="fill: none;stroke: #8576cf;stroke-miterlimit: 10"/>
      </g>
      <g>
        <line x1="453.9051" y1="216.82734" x2="459.29744" y2="216.82734" style="fill: none;stroke: #8576cf;stroke-miterlimit: 10"/>
        <polygon points="457.306 218.523 459.002 216.827 457.306 215.132 458.745 215.132 460.441 216.827 458.745 218.523 457.306 218.523" style="fill: #8576cf"/>
      </g>
      <circle cx="440.26924" cy="216.82733" r="13.63575" style="fill: none;stroke: #8576cf;stroke-miterlimit: 10"/>
      <g>
        <line x1="453.9051" y1="276.3401" x2="459.29744" y2="276.3401" style="fill: none;stroke: #8576cf;stroke-miterlimit: 10"/>
        <polygon points="457.306 278.035 459.002 276.34 457.306 274.645 458.745 274.645 460.441 276.34 458.745 278.035 457.306 278.035" style="fill: #8576cf"/>
      </g>
      <circle cx="440.26924" cy="276.34009" r="13.63575" style="fill: none;stroke: #8576cf;stroke-miterlimit: 10"/>
      <rect x="361.89542" y="320.24425" width="7.08246" height="1.41732" rx="0.62107" ry="0.62107" style="fill: #8576cf"/>
      <rect x="319.39138" y="320.24425" width="7.08246" height="1.41732" rx="0.62107" ry="0.62107" style="fill: #8576cf"/>
      <rect x="276.88733" y="320.24425" width="7.08246" height="1.41732" rx="0.62107" ry="0.62107" style="fill: #8576cf"/>
      <rect x="234.38329" y="320.24425" width="7.08246" height="1.41732" rx="0.62107" ry="0.62107" style="fill: #8576cf"/>
      <rect x="191.87924" y="320.24425" width="7.08246" height="1.41732" rx="0.62107" ry="0.62107" style="fill: #8576cf"/>
      <rect x="149.3752" y="320.24425" width="7.08246" height="1.41732" rx="0.62107" ry="0.62107" style="fill: #8576cf"/>
      <rect x="106.87115" y="320.24425" width="7.08246" height="1.41732" rx="0.62107" ry="0.62107" style="fill: #8576cf"/>
      <g>
        <line x1="402.74666" y1="320.95289" x2="423.99593" y2="320.95289" style="fill: none;stroke: #8576cf;stroke-linecap: round;stroke-miterlimit: 10;stroke-width: 1.39999997615814px"/>
        <polygon points="421.207 323.326 423.582 320.953 421.207 318.579 423.223 318.579 425.596 320.953 423.223 323.326 421.207 323.326" style="fill: #8576cf"/>
      </g>
      <circle cx="440.26924" cy="68.56615" r="13.63575" style="fill: none;stroke: #8576cf;stroke-miterlimit: 10"/>
      <g>
        <path d="M444.34233,163.95907a.65884.65884,0,0,1-.37532-.11668,25.12324,25.12324,0,1,1,28.45371-.01037.6642.6642,0,0,1-.75323-1.0942,23.79679,23.79679,0,1,0-26.94855.01038.66379.66379,0,0,1-.37661,1.21087Z" style="fill: #8576cf"/>
        <path d="M445.39585,161.5393a1.99652,1.99652,0,1,1-2.76941.55A1.99674,1.99674,0,0,1,445.39585,161.5393Z" style="fill: #8576cf"/>
        <circle cx="472.09772" cy="163.19009" r="1.99653" style="fill: #8576cf"/>
      </g>
      <circle cx="476.10174" cy="68.56615" r="13.63575" style="fill: none;stroke: #8576cf;stroke-miterlimit: 10"/>
    </g>
    <g id="25f3bc71-5362-4ead-a3c6-016ce6bfaeff" data-name="Text">
      <g>
        <path d="M449.96443,197.27118a1.30453,1.30453,0,0,0,1.39649-1.18847c.02246-.748-.61524-.99024-1.38575-1.3418a2.35888,2.35888,0,0,1-1.70508-2.13477,2.39055,2.39055,0,0,1,2.585-2.15625,2.48891,2.48891,0,0,1,2.40918,1.66114l-1.06641.56152a1.54521,1.54521,0,0,0-1.47461-1.06738.98843.98843,0,0,0-1.12207.91308c-.0332.61621.583.99024,1.45215,1.33106a2.21586,2.21586,0,0,1,1.65039,2.14551,2.71557,2.71557,0,0,1-2.80567,2.45312,2.85763,2.85763,0,0,1-2.67285-1.96875l.98926-.68262C448.60017,196.66571,449.08357,197.27118,449.96443,197.27118Z" style="fill: #d7d7d7"/>
        <path d="M454.43025,193.22236l.29688-1.75977h1.17675l-.30761,1.75977h.83593l-.1875,1.04492h-.82519l-.7041,4.01562h-1.14356l.68164-4.01562H453.44l.18652-1.04492Z" style="fill: #d7d7d7"/>
        <path d="M459.1822,193.112a1.5844,1.5844,0,0,1,1.55079,1.10059l.165-.99023h1.166l-.87988,5.06054h-1.13282l.14258-.84668a2.27312,2.27312,0,0,1-1.82617.957,2.11246,2.11246,0,0,1-2.002-2.64062A2.95487,2.95487,0,0,1,459.1822,193.112Zm-.44043,4.24707a1.86251,1.86251,0,0,0,1.69434-1.60644c.11035-.84668-.30762-1.584-1.07812-1.60645a1.86416,1.86416,0,0,0-1.78223,1.60645C457.44392,196.611,457.88338,197.35907,458.74177,197.35907Z" style="fill: #d7d7d7"/>
        <path d="M465.2867,194.22333c-.53907-.01074-.86914.44043-1.0127.957l-.53906,3.10254h-1.166l.87989-5.06054h1.166l-.09863.57226a1.64472,1.64472,0,0,1,1.19922-.68262,1.21643,1.21643,0,0,1,.87988.39649l-.7041.99023A.90729.90729,0,0,0,465.2867,194.22333Z" style="fill: #d7d7d7"/>
        <path d="M467.54158,193.22236l.29687-1.75977h1.17676l-.30762,1.75977h.83594l-.1875,1.04492h-.82519l-.7041,4.01562h-1.14356l.68164-4.01562h-.81348l.18653-1.04492Z" style="fill: #d7d7d7"/>
      </g>
      <g>
        <path d="M437.45076,257.7956l1.29785-7.70117h2.39844a3.1303,3.1303,0,0,1,3.23437,3.85058,4.44249,4.44249,0,0,1-4.46679,3.85059Zm2.41992-6.47949-.91309,5.25878h1.04493a3.02112,3.02112,0,0,0,3.05859-2.62988,2.0402,2.0402,0,0,0-2.0791-2.6289Z" style="fill: #d7d7d7"/>
        <path d="M446.97615,252.73505l-.8584,5.06055h-1.166l.84765-5.06055Zm-.24219-2.72851a.716.716,0,1,1-.748.71484A.72177.72177,0,0,1,446.734,250.00654Z" style="fill: #d7d7d7"/>
        <path d="M450.37654,253.736c-.53906-.01074-.86914.44043-1.0127.957l-.53906,3.10254h-1.166l.87988-5.06055h1.167l-.09961.57227a1.64472,1.64472,0,0,1,1.19922-.68262,1.21645,1.21645,0,0,1,.87988.39648l-.7041.99024A.90724.90724,0,0,0,450.37654,253.736Z" style="fill: #d7d7d7"/>
        <path d="M451.5406,255.5954a2.94457,2.94457,0,0,1,2.97071-2.9707,2.00012,2.00012,0,0,1,2.17871,2.22266,2.45956,2.45956,0,0,1-.1211.69335h-3.83984c-.02246.81348.374,1.38575,1.18848,1.38575a1.77481,1.77481,0,0,0,1.47363-.80274l.99023.40723a2.90748,2.90748,0,0,1-2.56347,1.375A2.135,2.135,0,0,1,451.5406,255.5954Zm1.33106-.87988h2.59668v-.02246c0-.72559-.35157-1.166-1.05567-1.166A1.62814,1.62814,0,0,0,452.87166,254.71552Z" style="fill: #d7d7d7"/>
        <path d="M459.70369,256.87177a2.33443,2.33443,0,0,0,1.77051-.83594l-.18653,1.29785a2.72684,2.72684,0,0,1-1.71679.57227,2.2466,2.2466,0,0,1-2.30957-2.64063,3.06456,3.06456,0,0,1,3.04687-2.64062,2.40191,2.40191,0,0,1,1.60645.57226l-.18653,1.30958a1.55529,1.55529,0,0,0-1.45312-.84766,1.87222,1.87222,0,0,0-1.80371,1.60644A1.28717,1.28717,0,0,0,459.70369,256.87177Z" style="fill: #d7d7d7"/>
        <path d="M463.34431,252.73505l.29688-1.75976H464.818l-.30762,1.75976h.83594l-.1875,1.04492h-.8252l-.7041,4.01563h-1.14355l.68164-4.01563h-.81348l.18652-1.04492Z" style="fill: #d7d7d7"/>
        <path d="M467.3697,252.73505l-.85839,5.06055h-1.166l.84766-5.06055Zm-.24218-2.72851a.716.716,0,1,1-.748.71484A.72176.72176,0,0,1,467.12752,250.00654Z" style="fill: #d7d7d7"/>
        <path d="M471.22029,252.6247a2.2319,2.2319,0,0,1,2.28809,2.64062,3.07147,3.07147,0,0,1-3.03614,2.64063,2.23716,2.23716,0,0,1-2.28906-2.64063A3.0717,3.0717,0,0,1,471.22029,252.6247Zm-.66016,4.22461a1.83271,1.83271,0,0,0,1.73829-1.584,1.255,1.255,0,0,0-1.17774-1.584,1.83188,1.83188,0,0,0-1.73828,1.584A1.255,1.255,0,0,0,470.56013,256.84931Z" style="fill: #d7d7d7"/>
        <path d="M477.07283,253.59345a1.28377,1.28377,0,0,0-1.28711,1.08887l-.53906,3.11328h-1.18848l.87988-5.06055h1.17774l-.1211.74805a1.83309,1.83309,0,0,1,1.5625-.8584c1.1543,0,1.584.88086,1.42969,1.959l-.5498,3.21192h-1.21l.5498-3.08008C477.85408,254.12177,477.733,253.59345,477.07283,253.59345Z" style="fill: #d7d7d7"/>
      </g>
      <g>
        <path d="M37.16853,63.58857h5.23731l-.209,1.19922H40.22713L39.1158,71.28974H37.818L38.94,64.78779H36.95955Z" style="fill: #d7d7d7"/>
        <path d="M44.02205,66.22919l-.8584,5.06055h-1.166l.84766-5.06055Zm-.24219-2.72851a.71558.71558,0,1,1-.748.71484A.72117.72117,0,0,1,43.77986,63.50068Z" style="fill: #d7d7d7"/>
        <path d="M51.76717,71.28974H50.57869l.5498-3.08106c.06641-.59375,0-1.12207-.59375-1.12207a1.19556,1.19556,0,0,0-1.18847,1.10059l-.53907,3.10254H47.63045l.53906-3.08106c.06543-.59375.01074-1.12207-.583-1.12207a1.18224,1.18224,0,0,0-1.17773,1.07813l-.53907,3.125h-1.166l.87988-5.06055H46.7281l-.11035.7041a1.703,1.703,0,0,1,1.46387-.81445,1.165,1.165,0,0,1,1.26465.94629,2.03984,2.03984,0,0,1,1.69433-.94629c1.12207,0,1.39746.90234,1.26563,1.958Z" style="fill: #d7d7d7"/>
        <path d="M53.28279,69.08954a2.94456,2.94456,0,0,1,2.9707-2.9707A1.99968,1.99968,0,0,1,58.4322,68.3415a2.45241,2.45241,0,0,1-.12109.69238H54.47127c-.02246.81445.374,1.38672,1.18847,1.38672a1.77574,1.77574,0,0,0,1.47364-.80371l.99023.40722a2.90748,2.90748,0,0,1-2.56348,1.375A2.13428,2.13428,0,0,1,53.28279,69.08954Zm1.33105-.88086h2.59668V68.1872c0-.72656-.35156-1.166-1.05566-1.166A1.62723,1.62723,0,0,0,54.61384,68.20868Z" style="fill: #d7d7d7"/>
      </g>
      <g>
        <path d="M28.84236,229.2497a2.08745,2.08745,0,0,1,2.333,2.39844A2.7385,2.7385,0,0,1,29.107,233.904l1.584,3.04687H29.1949l-1.39746-2.915h-.76953l-.49512,2.915H25.25642l1.29785-7.70117Zm-1.1875,1.13379-.44043,2.57422h.94629a1.59889,1.59889,0,0,0,1.69434-1.28711,1.06431,1.06431,0,0,0-1.18848-1.28711Z" style="fill: #d7d7d7"/>
        <path d="M31.5699,234.75068A2.944,2.944,0,0,1,34.5406,231.78a2.00012,2.00012,0,0,1,2.17871,2.22266,2.45972,2.45972,0,0,1-.12109.69336H32.75838c-.02246.81347.374,1.38574,1.18847,1.38574a1.77483,1.77483,0,0,0,1.47364-.80273l.99023.40722a2.90748,2.90748,0,0,1-2.56348,1.375A2.135,2.135,0,0,1,31.5699,234.75068Zm1.33105-.87989h2.59668v-.02246c0-.72558-.35156-1.166-1.05566-1.166A1.62814,1.62814,0,0,0,32.901,233.87079Z" style="fill: #d7d7d7"/>
        <path d="M36.76228,239.37177l1.29785-7.48145h1.166l-.13184.81446a2.21579,2.21579,0,0,1,1.794-.94629,2.11112,2.11112,0,0,1,1.99121,2.66211,2.94671,2.94671,0,0,1-2.81641,2.66211,1.55232,1.55232,0,0,1-1.52929-1.07813l-.56153,3.36719Zm3.74024-6.53516a1.84128,1.84128,0,0,0-1.69434,1.584c-.10937.84765.31934,1.5625,1.07813,1.584a1.84223,1.84223,0,0,0,1.78222-1.584A1.2307,1.2307,0,0,0,40.50252,232.83661Z" style="fill: #d7d7d7"/>
        <path d="M43.58162,234.75068a2.944,2.944,0,0,1,2.9707-2.97071,2.00012,2.00012,0,0,1,2.17871,2.22266,2.45972,2.45972,0,0,1-.12109.69336H44.77009c-.02246.81347.374,1.38574,1.18848,1.38574a1.77483,1.77483,0,0,0,1.47363-.80273l.99024.40722a2.90748,2.90748,0,0,1-2.56348,1.375A2.135,2.135,0,0,1,43.58162,234.75068Zm1.331-.87989h2.59668v-.02246c0-.72558-.35156-1.166-1.05566-1.166A1.62814,1.62814,0,0,0,44.91267,233.87079Z" style="fill: #d7d7d7"/>
        <path d="M52.11873,231.78a1.58439,1.58439,0,0,1,1.55078,1.10059l.165-.99024h1.166l-.87988,5.06055H52.98787l.14258-.84668a2.27175,2.27175,0,0,1-1.82618.957,2.11246,2.11246,0,0,1-2.002-2.64062A2.95487,2.95487,0,0,1,52.11873,231.78ZM51.6783,236.027a1.8625,1.8625,0,0,0,1.69433-1.60644c.11036-.84668-.30761-1.584-1.07812-1.60645a1.86415,1.86415,0,0,0-1.78223,1.60645C50.38045,235.279,50.8199,236.027,51.6783,236.027Z" style="fill: #d7d7d7"/>
        <path d="M56.51814,231.89032l.29688-1.75976h1.17675l-.30761,1.75976h.83593l-.1875,1.04493H57.5074l-.7041,4.01562H55.65974l.68164-4.01562h-.81347l.18652-1.04493Z" style="fill: #d7d7d7"/>
      </g>
      <g>
        <path d="M40.1949,280.38251h1.51855l-4.335,8.12988-1.45215-5.43457-3.168,5.44532-1.80469-8.14063H32.4283l.92383,5.19238,3.02539-5.5996,1.26562,5.5996Z" style="fill: #d7d7d7"/>
        <path d="M43.32869,283.02314l-.8584,5.06054h-1.166l.84766-5.06054Zm-.24219-2.72852a.71558.71558,0,1,1-.748.71484A.72117.72117,0,0,1,43.0865,280.29462Z" style="fill: #d7d7d7"/>
        <path d="M46.89314,282.91279a1.58189,1.58189,0,0,1,1.5293,1.04492l.75879-4.45508H50.3697l-1.47461,8.58105H47.71834l.13183-.78125a2.23068,2.23068,0,0,1-1.77148.89063,2.112,2.112,0,0,1-2.002-2.63965A2.95485,2.95485,0,0,1,46.89314,282.91279Zm-.44043,4.24609a1.86248,1.86248,0,0,0,1.69434-1.60547c.11035-.84766-.30762-1.585-1.07813-1.60645a1.86324,1.86324,0,0,0-1.78222,1.60645C45.15486,286.41083,45.59431,287.15888,46.45271,287.15888Z" style="fill: #d7d7d7"/>
        <path d="M51.29353,283.02314l.29688-1.76075h1.17676l-.30762,1.76075h.83594l-.1875,1.04492h-.8252l-.7041,4.01562H50.43513l.68164-4.01562H50.3033l.18652-1.04492Z" style="fill: #d7d7d7"/>
        <path d="M56.18806,283.88056a1.34608,1.34608,0,0,0-1.29785,1.07812l-.53906,3.125H53.16267l1.47461-8.58105h1.1875l-.72558,4.22461a1.87837,1.87837,0,0,1,1.5625-.83692c1.14355,0,1.55078.84766,1.4082,1.94727l-.56152,3.24609H56.33162l.5498-3.08105C56.94685,284.40888,56.82674,283.903,56.18806,283.88056Z" style="fill: #d7d7d7"/>
      </g>
      <g>
        <path d="M46.00154,315.84247a3.26915,3.26915,0,0,1,3.25684,3.98242,4.68269,4.68269,0,0,1-4.53223,4.01563,3.2958,3.2958,0,0,1-3.25684-4.01563A4.6806,4.6806,0,0,1,46.00154,315.84247ZM44.858,322.55341a3.176,3.176,0,0,0,3.03613-2.72852,2.13391,2.13391,0,0,0-2.02442-2.72851,3.176,3.176,0,0,0-3.03613,2.72851A2.139,2.139,0,0,0,44.858,322.55341Z" style="fill: #d7d7d7"/>
        <path d="M51.91951,322.81806a1.285,1.285,0,0,0,1.29785-1.0791l.54981-3.124H54.9449l-.86914,5.06055H52.88728l.1211-.748a1.84675,1.84675,0,0,1-1.5625.8584c-1.14356,0-1.57325-.8916-1.419-1.958l.54981-3.21289h1.18847l-.52832,3.08008C51.15974,322.28974,51.28084,322.81806,51.91951,322.81806Z" style="fill: #d7d7d7"/>
        <path d="M56.51814,318.61493l.29688-1.75976h1.17675l-.30761,1.75976h.83593l-.1875,1.04493H57.5074l-.7041,4.01562H55.65974l.68164-4.01562h-.81347l.18652-1.04493Z" style="fill: #d7d7d7"/>
      </g>
      <g>
        <path d="M431.0572,46.57392a3.7516,3.7516,0,0,0,2.55274-1.07813l-.23145,1.54a4.06322,4.06322,0,0,1-2.49707.81446,3.27972,3.27972,0,0,1-3.25683-3.98243,4.6604,4.6604,0,0,1,4.5332-3.98242,3.205,3.205,0,0,1,2.28809.81348l-.24219,1.55176a2.48873,2.48873,0,0,0-2.13477-1.08985,3.22066,3.22066,0,0,0-3.05761,2.707A2.16549,2.16549,0,0,0,431.0572,46.57392Z" style="fill: #d7d7d7"/>
        <path d="M437.32674,39.13739l-1.48438,8.58106h-1.15527l1.45215-8.58106Z" style="fill: #d7d7d7"/>
        <path d="M440.45174,42.54755a2.2319,2.2319,0,0,1,2.28808,2.64063,3.07059,3.07059,0,0,1-3.03613,2.63964,2.23638,2.23638,0,0,1-2.28906-2.63964A3.0717,3.0717,0,0,1,440.45174,42.54755Zm-.66016,4.22461a1.83268,1.83268,0,0,0,1.73828-1.584,1.25585,1.25585,0,0,0-1.17773-1.585,1.83282,1.83282,0,0,0-1.73829,1.585A1.255,1.255,0,0,0,439.79158,46.77216Z" style="fill: #d7d7d7"/>
        <path d="M445.79744,46.79364a2.33121,2.33121,0,0,0,1.77051-.83593l-.18653,1.29883a2.73209,2.73209,0,0,1-1.71679.57128,2.24583,2.24583,0,0,1-2.30957-2.63964,3.06456,3.06456,0,0,1,3.04687-2.64063,2.397,2.397,0,0,1,1.60645.57227l-.18653,1.30859a1.55619,1.55619,0,0,0-1.45312-.84668,1.87132,1.87132,0,0,0-1.80371,1.60645A1.28635,1.28635,0,0,0,445.79744,46.79364Z" style="fill: #d7d7d7"/>
        <path d="M453.66267,42.6579l-2.55273,2.15625,1.83691,2.9043h-1.36426l-1.59472-2.57422-.44043,2.57422h-1.14356l1.45215-8.58106h1.166l-.90235,5.24707,2.0459-1.72656Z" style="fill: #d7d7d7"/>
      </g>
      <g>
        <path d="M427.51228,106.82782a2.08708,2.08708,0,0,1,2.333,2.39844,2.73731,2.73731,0,0,1-2.06836,2.25488l1.584,3.04786h-1.4961l-1.39746-2.916h-.76953l-.49512,2.916h-1.27637l1.29786-7.70118Zm-1.1875,1.13282-.44043,2.57422h.94629a1.598,1.598,0,0,0,1.69434-1.28711,1.06431,1.06431,0,0,0-1.18848-1.28711Z" style="fill: #d7d7d7"/>
        <path d="M433.03474,109.3581a1.58356,1.58356,0,0,1,1.55078,1.09961l.165-.98926h1.166l-.87988,5.06055h-1.13282l.14258-.84766a2.27312,2.27312,0,0,1-1.82617.957,2.112,2.112,0,0,1-2.00195-2.63965A2.95486,2.95486,0,0,1,433.03474,109.3581Zm-.44043,4.24609a1.86248,1.86248,0,0,0,1.69434-1.60547c.11035-.84765-.30762-1.585-1.07813-1.60644a1.86324,1.86324,0,0,0-1.78222,1.60644C431.29646,112.85614,431.73592,113.60419,432.59431,113.60419Z" style="fill: #d7d7d7"/>
        <path d="M437.43416,109.46845l.29687-1.76074h1.17676l-.30762,1.76074h.83594l-.1875,1.04492h-.82519l-.70411,4.01563h-1.14355l.68164-4.01563h-.81348l.18653-1.04492Z" style="fill: #d7d7d7"/>
        <path d="M439.39119,112.3288a2.944,2.944,0,0,1,2.9707-2.9707,1.99968,1.99968,0,0,1,2.17871,2.22265,2.45242,2.45242,0,0,1-.12109.69239h-3.83984c-.02247.81445.374,1.38672,1.18847,1.38672a1.77572,1.77572,0,0,0,1.47363-.80372l.99024.40723a2.90748,2.90748,0,0,1-2.56348,1.375A2.13427,2.13427,0,0,1,439.39119,112.3288Zm1.33105-.88086h2.59668v-.02148c0-.72657-.35156-1.166-1.05566-1.166A1.62723,1.62723,0,0,0,440.72224,111.44794Z" style="fill: #d7d7d7"/>
        <path d="M449.358,114.529h-1.34278l2.4209-8.09766,2.15625,5.21484,4.00391-5.25879-.374,8.14161h-1.32031l.28613-4.63184-2.92578,3.92773-1.585-3.98242Z" style="fill: #d7d7d7"/>
        <path d="M459.55525,113.6706a1.285,1.285,0,0,0,1.29785-1.07813l.54981-3.124h1.17773l-.86914,5.06055H460.523l.1211-.748a1.84811,1.84811,0,0,1-1.5625.85742c-1.14356,0-1.57324-.89062-1.41895-1.958l.54981-3.21191H459.401l-.52832,3.08008C458.79549,113.14228,458.91658,113.6706,459.55525,113.6706Z" style="fill: #d7d7d7"/>
        <path d="M465.80232,105.94794,464.318,114.529h-1.15528l1.45215-8.58106Z" style="fill: #d7d7d7"/>
        <path d="M466.77107,109.46845l.29688-1.76074h1.17675l-.30761,1.76074h.83593l-.1875,1.04492h-.82519l-.7041,4.01563h-1.14356l.68164-4.01563h-.81347l.18652-1.04492Z" style="fill: #d7d7d7"/>
        <path d="M470.79646,109.46845l-.8584,5.06055h-1.166l.84765-5.06055Zm-.24219-2.72852a.71558.71558,0,1,1-.748.71485A.72117.72117,0,0,1,470.55427,106.73993Z" style="fill: #d7d7d7"/>
        <path d="M471.01619,116.94892l1.29785-7.48047h1.166l-.13184.81348a2.21577,2.21577,0,0,1,1.79395-.94629,2.11193,2.11193,0,0,1,1.99121,2.66308,2.94838,2.94838,0,0,1-2.81641,2.66211,1.55348,1.55348,0,0,1-1.5293-1.07812l-.56152,3.36621Zm3.74023-6.53516a1.84227,1.84227,0,0,0-1.69433,1.585c-.10938.84668.31933,1.56153,1.07812,1.584a1.844,1.844,0,0,0,1.78223-1.584A1.2315,1.2315,0,0,0,474.75642,110.41376Z" style="fill: #d7d7d7"/>
        <path d="M480.40974,105.94794l-1.48437,8.58106h-1.15528l1.45215-8.58106Z" style="fill: #d7d7d7"/>
        <path d="M482.52205,109.46845l-.8584,5.06055h-1.166l.84766-5.06055Zm-.24219-2.72852a.71558.71558,0,1,1-.748.71485A.72117.72117,0,0,1,482.27986,106.73993Z" style="fill: #d7d7d7"/>
        <path d="M483.29158,112.3288a2.944,2.944,0,0,1,2.9707-2.9707,1.99968,1.99968,0,0,1,2.17871,2.22265,2.45242,2.45242,0,0,1-.12109.69239h-3.83984c-.02247.81445.374,1.38672,1.18847,1.38672a1.77574,1.77574,0,0,0,1.47364-.80372l.99023.40723a2.90748,2.90748,0,0,1-2.56348,1.375A2.13428,2.13428,0,0,1,483.29158,112.3288Zm1.33105-.88086h2.59668v-.02148c0-.72657-.35156-1.166-1.05566-1.166A1.62723,1.62723,0,0,0,484.62263,111.44794Z" style="fill: #d7d7d7"/>
        <path d="M491.66365,110.46943c-.53906-.01172-.86914.43945-1.0127.957l-.53906,3.10254h-1.166l.87988-5.06055h1.167l-.09961.57129a1.64343,1.64343,0,0,1,1.19922-.68164,1.21917,1.21917,0,0,1,.87988.39551l-.7041.99023A.91066.91066,0,0,0,491.66365,110.46943Z" style="fill: #d7d7d7"/>
      </g>
      <g>
        <path d="M467.41267,40.01728a2.08708,2.08708,0,0,1,2.333,2.39843,2.73732,2.73732,0,0,1-2.06836,2.25489l1.584,3.04785h-1.4961l-1.39746-2.916h-.76953l-.49512,2.916h-1.27636l1.29785-7.70117Zm-1.1875,1.13281-.44043,2.57422h.94629a1.598,1.598,0,0,0,1.69434-1.28711,1.06431,1.06431,0,0,0-1.18848-1.28711Z" style="fill: #d7d7d7"/>
        <path d="M470.14021,45.51825a2.94456,2.94456,0,0,1,2.97071-2.9707,1.99968,1.99968,0,0,1,2.17871,2.22266,2.45232,2.45232,0,0,1-.1211.69238h-3.83984c-.02246.81445.374,1.38672,1.18848,1.38672a1.77574,1.77574,0,0,0,1.47363-.80371l.99023.40722a2.90748,2.90748,0,0,1-2.56347,1.375A2.13428,2.13428,0,0,1,470.14021,45.51825Zm1.33106-.88086H474.068v-.02148c0-.72656-.35157-1.166-1.05567-1.166A1.62722,1.62722,0,0,0,471.47127,44.63739Z" style="fill: #d7d7d7"/>
        <path d="M477.84041,46.904a.63728.63728,0,0,0,.70508-.59375c.01074-.44043-.48438-.6709-.96875-.8584-.61622-.24219-1.26465-.60547-1.24317-1.46289a1.59066,1.59066,0,0,1,1.78223-1.44141,2.35393,2.35393,0,0,1,1.85937.89063l-.66015.69336a1.67506,1.67506,0,0,0-1.21-.68165c-.39649,0-.66016.19727-.66016.4834-.02246.39649.418.56153.92383.77051.748.31934,1.36426.66016,1.34277,1.54a1.71394,1.71394,0,0,1-1.85937,1.62793,2.74479,2.74479,0,0,1-2.21192-1.12207l.748-.68164A1.94307,1.94307,0,0,0,477.84041,46.904Z" style="fill: #d7d7d7"/>
        <path d="M480.40291,45.51825a2.944,2.944,0,0,1,2.9707-2.9707,1.99968,1.99968,0,0,1,2.17871,2.22266,2.45234,2.45234,0,0,1-.12109.69238h-3.83985c-.02246.81445.374,1.38672,1.18848,1.38672a1.77574,1.77574,0,0,0,1.47363-.80371l.99024.40722a2.90748,2.90748,0,0,1-2.56348,1.375A2.13427,2.13427,0,0,1,480.40291,45.51825Zm1.33105-.88086h2.59668v-.02148c0-.72656-.35156-1.166-1.05566-1.166A1.62722,1.62722,0,0,0,481.734,44.63739Z" style="fill: #d7d7d7"/>
        <path d="M487.0699,42.6579l.29687-1.76074h1.17676l-.30761,1.76074h.83593l-.1875,1.04492h-.82519l-.7041,4.01563H486.2115l.68164-4.01563h-.81347l.18652-1.04492Z" style="fill: #d7d7d7"/>
      </g>
    </g>
    <g id="fc091038-9c46-49a1-bd4a-5582f478cc3e" data-name="Title">
      <path d="M162.82478,24.09736l-.34179-12.417,2.67578.0625,8.55761-.0625q4.10889-.06151,6.00586,1.26075a4.54682,4.54682,0,0,1,1.89844,3.998,4.10846,4.10846,0,0,1-.21777,1.36914,3.062,3.062,0,0,1-.65332,1.08985,4.42835,4.42835,0,0,1-.73145.63769,12.24818,12.24818,0,0,1-1.50879.82422,6.33566,6.33566,0,0,1,3.08008,2.02344,5.179,5.179,0,0,1,1.08984,3.3291,4.65006,4.65006,0,0,1-2.3496,4.31055q-2.34961,1.38427-7.95118,1.35351l-7.21972-.0625-2.67578.0625Zm2.05371-1.86719-.06152,1.86719.21777,5.13378h8.93067a12.71118,12.71118,0,0,0,5.13476-.77734,2.49283,2.49283,0,0,0,1.64942-2.334,3.17443,3.17443,0,0,0-1.665-2.91016,9.67262,9.67262,0,0,0-4.83887-.97949Zm11.76368-7.749q-.68556-.09375-1.60254-.13964-.91846-.04687-2.81641-.04688h-7.12695l-.15528,5.29h8.09082a14.49668,14.49668,0,0,0,5.07227-.66895q1.68163-.66942,1.68066-1.97656a1.9358,1.9358,0,0,0-.76269-1.61816A5.2301,5.2301,0,0,0,176.64217,14.48114Z" style="fill: #d7d7d7"/>
      <g>
        <polygon points="201.413 6.795 200.105 6.857 198.673 6.795 198.673 9.533 201.413 9.533 201.413 6.795" style="fill: #d7d7d7"/>
        <polygon points="195.313 6.795 194.006 6.857 192.575 6.795 192.575 9.533 195.313 9.533 195.313 6.795" style="fill: #d7d7d7"/>
        <path d="M205.25545,14.06122a13.67387,13.67387,0,0,0-16.86621,0,9.91328,9.91328,0,0,0-3.22071,7.73242,9.80124,9.80124,0,0,0,3.29785,7.7334,13.42745,13.42745,0,0,0,16.69532,0,9.82154,9.82154,0,0,0,3.2832-7.7334A9.96257,9.96257,0,0,0,205.25545,14.06122Zm-1.35352,13.52149a12.36424,12.36424,0,0,1-14.1748.01465,7.64822,7.64822,0,0,1-2.66114-6.208,6.65275,6.65275,0,0,1,2.73926-5.49219,12.64025,12.64025,0,0,1,14.04981,0,6.66565,6.66565,0,0,1,2.72265,5.49219A7.6414,7.6414,0,0,1,203.90193,27.58271Z" style="fill: #d7d7d7"/>
      </g>
      <path d="M220.79939,31.81415l-1.33789.0625.3418-7.77929-.2793-9.80274h-9.21191V11.68036h20.94336v2.61426h-9.17969l-.28027,9.80274.34179,7.77929Z" style="fill: #d7d7d7"/>
      <path d="M252.82088,31.87665H232.56209V30.321l9.33593-8.99414,7.126-7.126-7.251-.09277-8.33984.09277.0625-1.27539-.0625-1.24512h19.01367v1.61817L243.609,22.04267l-7.21875,7.376,7.59278.06153,8.83789-.124-.0625,1.2754Z" style="fill: #d7d7d7"/>
      <path d="M257.95564,31.81415l-1.33789.0625.3418-7.77929-.3418-12.417,1.33789.0625,1.33789-.0625-.34179,12.417.34179,7.77929Z" style="fill: #d7d7d7"/>
      <path d="M266.82381,31.81415l-1.33789.0625.34179-7.77929-.46679-12.44825h2.832l15.124,17.11524.09277-4.667L283.068,11.64911l1.58691.0625,1.40039-.0625-.3418,12.44825.4668,7.77929h-2.77051L268.34822,14.63642l-.21777,9.46094.34277,7.77929Z" style="fill: #d7d7d7"/>
      <path d="M300.86775,23.194l-.0625-1.4004,10.48731.09375-.0625,6.47266.0625,1.64941a13.80676,13.80676,0,0,1-4.03028,1.80469,18.126,18.126,0,0,1-4.83886.623q-5.44629,0-8.55762-2.91016a10.19662,10.19662,0,0,1-3.11231-7.82617,9.93957,9.93957,0,0,1,3.09668-7.71777,11.95092,11.95092,0,0,1,8.38672-2.832,18.48326,18.48326,0,0,1,3.874.38964,15.54561,15.54561,0,0,1,3.501,1.19727L308.398,15.01044a16.00624,16.00624,0,0,0-2.90918-.93359,14.27611,14.27611,0,0,0-3.00292-.31153,10.90438,10.90438,0,0,0-7.20411,2.19434,7.48776,7.48776,0,0,0-2.62988,6.083,6.84229,6.84229,0,0,0,2.66113,5.69531,11.43257,11.43257,0,0,0,7.23438,2.085,16.02226,16.02226,0,0,0,3.501-.3584,12.5736,12.5736,0,0,0,3.00292-1.07324l.125-3.95215-8.37109.0625Z" style="fill: #d7d7d7"/>
      <path d="M316.33357,24.09736l-.3418-12.417,2.67579.0625,15.27929-.0625-.06152,1.30664.06152,1.30762H318.60506l-.15528,5.75684h13.19434l-.06153,1.27539.06153,1.24511H318.357l-.03125,1.5254.21777,5.13378h15.71485l-.0625,1.30762.0625,1.33789-15.59082-.0625-2.67579.0625Z" style="fill: #d7d7d7"/>
      <path d="M357.068,31.87665l-3.08008.09375L350.315,25.06122,349.22615,23.319h-8.68164l.31055,8.55761-1.33789-.0625-1.3379.0625.3418-7.77929-.3418-12.417,2.61329.0625,8.77636-.0625q3.98292-.03075,5.92774,1.40039A5.05546,5.05546,0,0,1,357.442,17.4372a5.30793,5.30793,0,0,1-1.47852,3.95215,7.22933,7.22933,0,0,1-4.37207,1.80469l.4668.84082Zm-1.49317-14.4082a2.54227,2.54227,0,0,0-1.35351-2.47363q-1.355-.7002-5.33692-.7002h-8.09179l-.18653,6.50391h8.27832a12.42761,12.42761,0,0,0,5.24317-.7627A2.669,2.669,0,0,0,355.57478,17.46845Z" style="fill: #d7d7d7"/>
    </g>
  </g>
</svg>
