<svg xmlns="http://www.w3.org/2000/svg" width="111.76mm" height="128.5mm" viewBox="0 0 316.8 364.25197">
  <title>master9</title>
  <g id="e7a59bb2-c51c-4407-83c7-f621c477c166" data-name="Chi">
    <rect id="56646005-6e32-4ff7-b606-58dd798c3dc5" data-name="BG" width="316.8" height="364.25197" style="fill: #2a2d30"/>
    <g id="a49697c3-52b4-4480-901c-d43ba5c9d5e5" data-name="Logo">
      <g>
        <polygon points="154.869 345.662 152.515 345.662 152.515 348.016 152.515 350.37 152.515 352.724 152.515 355.078 154.869 355.078 154.869 352.724 154.869 350.37 157.223 350.37 157.223 348.016 159.577 348.016 159.577 345.662 157.223 345.662 154.869 345.662" style="fill: #d7d7d7"/>
        <polygon points="157.223 355.078 159.577 355.078 161.931 355.078 164.285 355.078 164.285 352.724 164.285 350.37 164.285 348.016 164.285 345.662 161.931 345.662 161.931 348.016 161.931 350.37 159.577 350.37 159.577 352.724 157.223 352.724 157.223 355.078" style="fill: #d7d7d7"/>
        <polygon points="166.639 342.085 150.161 342.085 150.161 343.353 166.639 343.353 166.639 357.406 150.161 357.406 150.161 342.085 148.983 342.085 148.983 358.583 150.161 358.583 167.817 358.583 167.817 357.406 167.817 342.085 166.639 342.085" style="fill: #d7d7d7"/>
      </g>
    </g>
    <path d="M152.94852,5.528c.94727,2.78613,2.1875,6.21289,2.3545,6.63086l.02734.07031a2.83189,2.83189,0,0,0,.43262.84961c.15332.09766.334.23633.57129.418A6.75084,6.75084,0,0,0,158.53446,14.82a6.74076,6.74076,0,0,0,2.20117-1.32324c.23731-.18164.418-.32031.57129-.418a4.15139,4.15139,0,0,0,.43262-.84961l.02734-.05566c.209-.418,1.35157-3.873,2.3125-6.64551h3.2461c-.61328,1.83887-2.39649,7.18848-2.73047,7.84277l-.02832.05567a5.50373,5.50373,0,0,1-1.60156,2.22949l-.376.27832-.585.43164c.55664.55762.3623.26563.543.4043l.3623.27832a4.2576,4.2576,0,0,1,1.61621,2.22949l.02735.06934c.26465.65527,2.0205,5.7539,2.68945,7.60644h-3.24609c-.94727-2.73047-2.11817-6.00391-2.27149-6.42187l-.02734-.05567a5.03187,5.03187,0,0,0-.43164-.84961,6.24939,6.24939,0,0,1-.58594-.418,6.73255,6.73255,0,0,0-2.20117-1.32422,6.46721,6.46721,0,0,0-2.18653,1.32422,6.38512,6.38512,0,0,1-.585.418,4.93967,4.93967,0,0,0-.43261.84961l-.02735.05567c-.15332.418-1.28222,3.6914-2.22949,6.42187h-3.24609c.66894-1.99219,2.39648-6.96484,2.64746-7.60644l.02734-.06934a4.2355,4.2355,0,0,1,1.60254-2.22949c.06934-.041.22266-.167.376-.27832l.585-.43164c-.18067-.15332-.36231-.251-.5293-.4043l-.376-.27832a4.78855,4.78855,0,0,1-1.60253-2.22949l-.02735-.06934c-.27832-.68262-2.15918-6.00391-2.77246-7.8291Z" style="fill: #d7d7d7"/>
    <g id="8ff97aab-db98-45d5-aee9-510eed37535c" data-name="Text">
      <g>
        <path d="M104.16337,294.1872l-1.3418,7.70117H101.5452l1.29786-7.70117Z" style="fill: #d7d7d7"/>
        <path d="M107.37528,297.68525a1.28376,1.28376,0,0,0-1.28711,1.08984l-.53906,3.11328h-1.18848l.87989-5.06055h1.17773l-.12109.74805a1.83307,1.83307,0,0,1,1.5625-.8584c1.15429,0,1.584.87989,1.42968,1.958l-.5498,3.21289h-1.21l.5498-3.08105C108.15653,298.21357,108.03544,297.68525,107.37528,297.68525Z" style="fill: #d7d7d7"/>
      </g>
      <g>
        <path d="M207.803,294.05536a3.269,3.269,0,0,1,3.25586,3.98243,4.68357,4.68357,0,0,1-4.53223,4.01562,3.29617,3.29617,0,0,1-3.25684-4.01562A4.68082,4.68082,0,0,1,207.803,294.05536Zm-1.14453,6.71094a3.176,3.176,0,0,0,3.03613-2.72851c.21972-1.40821-.4834-2.71778-2.02442-2.72852a3.176,3.176,0,0,0-3.03613,2.72852A2.13929,2.13929,0,0,0,206.65849,300.7663Z" style="fill: #d7d7d7"/>
        <path d="M213.72,301.03a1.285,1.285,0,0,0,1.29785-1.07812l.54981-3.124h1.17773l-.86914,5.06055h-1.18848l.1211-.74805a1.84811,1.84811,0,0,1-1.5625.85743c-1.14356,0-1.57325-.89063-1.41895-1.958l.54981-3.21192h1.18847l-.52832,3.08008C212.96024,300.50165,213.08134,301.03,213.72,301.03Z" style="fill: #d7d7d7"/>
        <path d="M218.31864,296.82782l.29688-1.76074h1.17675l-.30761,1.76074h.83593l-.1875,1.04493h-.82519l-.7041,4.01562h-1.14356l.68164-4.01562h-.81347l.18652-1.04493Z" style="fill: #d7d7d7"/>
      </g>
      <g>
        <path d="M106.969,266.59736l-2.88281,3.71875,1.80469,3.98242h-1.51856l-1.13281-2.9375-2.10156,2.9375H99.554l3.124-4.02539-1.62793-3.67578h1.50683l.9795,2.58593,1.83691-2.58593Z" style="fill: #d7d7d7"/>
        <path d="M107.88017,267.15888l3.125-.69238-1.36426,7.832H108.387l1.08887-6.38086-1.82617.48437Z" style="fill: #d7d7d7"/>
      </g>
      <g>
        <path d="M150.52958,274.29853h-1.34277l2.42089-8.09668,2.15625,5.21484,4.00391-5.25879-.374,8.14063h-1.32032l.28614-4.63184-2.92578,3.92774-1.585-3.98243Z" style="fill: #d7d7d7"/>
        <path d="M160.66044,269.238l-.8584,5.06055h-1.166l.84766-5.06055Zm-.24219-2.72852a.71605.71605,0,1,1-.74805.71485A.72178.72178,0,0,1,160.41825,266.50946Z" style="fill: #d7d7d7"/>
        <path d="M164.22489,269.12763a1.584,1.584,0,0,1,1.5293,1.0459l.75879-4.45606h1.18847l-1.47461,8.58106h-1.17675l.13183-.78125a2.22881,2.22881,0,0,1-1.77148.8916,2.11246,2.11246,0,0,1-2.00195-2.64063A2.95486,2.95486,0,0,1,164.22489,269.12763Zm-.44043,4.24707a1.86251,1.86251,0,0,0,1.69434-1.60645c.11035-.84668-.30762-1.584-1.07813-1.60644a1.86412,1.86412,0,0,0-1.78222,1.60644C162.48661,272.62665,162.92606,273.3747,163.78446,273.3747Z" style="fill: #d7d7d7"/>
      </g>
      <g>
        <path d="M212.27372,266.59736l-2.88281,3.71875,1.80468,3.98242H209.677l-1.13281-2.9375-2.10156,2.9375h-1.584l3.124-4.02539-1.62793-3.67578h1.50684l.97949,2.58593,1.83692-2.58593Z" style="fill: #d7d7d7"/>
        <path d="M215.4954,270.54755a3.23356,3.23356,0,0,0,1.14453-1.70605,1.02671,1.02671,0,0,0-1.05664-1.209c-.92383-.02246-1.47363.791-1.65039,1.69336h-1.27539a3.13073,3.13073,0,0,1,3.05859-2.85937,2.08265,2.08265,0,0,1,2.24414,2.30957,3.70618,3.70618,0,0,1-1.34277,2.167l-2.44238,2.14648h3.22363l-.18652,1.209h-5.73243Z" style="fill: #d7d7d7"/>
      </g>
      <g>
        <path d="M256.17313,266.59833l-.50586,2.97071H259.386l.50586-2.97071h1.30957l-1.33105,7.70117H258.594l.59375-3.542h-3.72949l-.60449,3.542h-1.27637l1.29785-7.70117Z" style="fill: #d7d7d7"/>
        <path d="M263.54325,269.239l-.8584,5.06054h-1.166l.84765-5.06054Zm-.24219-2.72852a.716.716,0,1,1-.748.71485A.72178.72178,0,0,1,263.30106,266.51044Z" style="fill: #d7d7d7"/>
        <path d="M265.03934,274.652a1.06481,1.06481,0,0,0,1.166,1.1875,1.814,1.814,0,0,0,1.73828-1.64941l.1211-.7041a2.28414,2.28414,0,0,1-1.77149.85742,2.08107,2.08107,0,0,1-2.002-2.5957,2.94206,2.94206,0,0,1,2.8164-2.61914,1.58771,1.58771,0,0,1,1.54,1.03418l.1543-.92383h1.14355l-.83593,4.95117a2.93333,2.93333,0,0,1-2.92676,2.68359,2.03381,2.03381,0,0,1-2.28809-2.2334Zm1.62793-1.34277a1.82014,1.82014,0,0,0,1.66114-1.375l.05566-.27539a1.24216,1.24216,0,0,0-1.10058-1.49609,1.82731,1.82731,0,0,0-1.78223,1.585A1.21322,1.21322,0,0,0,266.66727,273.30927Z" style="fill: #d7d7d7"/>
        <path d="M273.49833,270.09736a1.34411,1.34411,0,0,0-1.29785,1.07812l-.53906,3.124h-1.18848l1.47461-8.58105h1.1875l-.72559,4.22461a1.87991,1.87991,0,0,1,1.5625-.83594c1.14356,0,1.55078.84668,1.40821,1.94727l-.56153,3.24511h-1.17676l.54981-3.08007C274.25712,270.62568,274.137,270.11884,273.49833,270.09736Z" style="fill: #d7d7d7"/>
      </g>
      <g>
        <path d="M45.90165,266.59833l-1.12207,6.53516h2.9707l-.19824,1.166H43.29423l1.32031-7.70117Z" style="fill: #d7d7d7"/>
        <path d="M51.49052,269.12861a2.23189,2.23189,0,0,1,2.28808,2.64062,3.07146,3.07146,0,0,1-3.03613,2.64063,2.23762,2.23762,0,0,1-2.28906-2.64063A3.0717,3.0717,0,0,1,51.49052,269.12861Zm-.66016,4.2246a1.83268,1.83268,0,0,0,1.73828-1.584,1.255,1.255,0,0,0-1.17773-1.584,1.83187,1.83187,0,0,0-1.73828,1.584A1.255,1.255,0,0,0,50.83036,273.35321Z" style="fill: #d7d7d7"/>
        <path d="M55.55985,269.239l.627,2.9707,1.958-3.37793.83594,3.39941,1.66211-2.99218h1.30859l-3.25586,5.44629-.93554-3.42188-2.0791,3.42188L54.31669,269.239Z" style="fill: #d7d7d7"/>
      </g>
    </g>
    <g id="0aba137f-6df5-49bd-a0ed-870cbb734db8" data-name="Legend">
      <circle cx="52.36441" cy="248.30211" r="13.63575" style="fill: none;stroke: #ad976e;stroke-miterlimit: 10"/>
      <circle cx="105.38459" cy="248.30211" r="13.63575" style="fill: none;stroke: #ad976e;stroke-miterlimit: 10"/>
      <circle cx="158.4" cy="248.30211" r="13.63575" style="fill: none;stroke: #ad976e;stroke-miterlimit: 10"/>
      <circle cx="211.42018" cy="248.30211" r="13.63575" style="fill: none;stroke: #ad976e;stroke-miterlimit: 10"/>
      <circle cx="264.44036" cy="248.30211" r="13.63575" style="fill: none;stroke: #ad976e;stroke-miterlimit: 10"/>
      <path d="M32.77417,42.8806H74.91126a50.27656,50.27656,0,0,1,35.55089,14.72566L141.13785,88.282" style="fill: none;stroke: #ad976e;stroke-linecap: round;stroke-miterlimit: 10;stroke-width: 2px"/>
      <path d="M284.02806,42.8806H241.891a50.27655,50.27655,0,0,0-35.55088,14.72566L175.66438,88.282" style="fill: none;stroke: #ad976e;stroke-linecap: round;stroke-miterlimit: 10;stroke-width: 2px"/>
      <path d="M170.746,42.8806H135.85031a50.27653,50.27653,0,0,0-35.55088,14.72566L69.62372,88.282" style="fill: none;stroke: #ad976e;stroke-linecap: round;stroke-miterlimit: 10;stroke-width: 2px"/>
      <g>
        <path d="M244.52436,164.68294a.953.953,0,0,1-.54092-.16787,36.14826,36.14826,0,1,1,40.93621-.01679.9543.9543,0,1,1-1.08183-1.57239,34.23756,34.23756,0,1,0-38.77254.01493.955.955,0,0,1-.54092,1.74212Z" style="fill: #ad976e"/>
        <path d="M246.04009,161.20136a2.87244,2.87244,0,1,1-3.98442.79128A2.87278,2.87278,0,0,1,246.04009,161.20136Z" style="fill: #ad976e"/>
        <path d="M282.8588,161.18948a2.87246,2.87246,0,1,0,3.98489.78889A2.87273,2.87273,0,0,0,282.8588,161.18948Z" style="fill: #ad976e"/>
      </g>
      <g>
        <path d="M257.7422,183.803h2.504v.95913h-2.504Z" style="fill: #ad976e"/>
        <path d="M271.81288,184.7925h-1.35579v1.34982H269.498V184.7925H268.0873v-.95913H269.498v-1.41066h.95913v1.41066h1.35579Z" style="fill: #ad976e"/>
        <path d="M276.27873,198.693a11.84635,11.84635,0,0,0-10.07293-11.6925,1.78448,1.78448,0,0,0-3.53083.00012,11.82144,11.82144,0,0,0-6.5501,20.11048,1.51389,1.51389,0,1,0,.66717-.74878,10.82065,10.82065,0,0,1,6.01123-18.37085,1.78772,1.78772,0,0,0,3.27441-.00006,10.82118,10.82118,0,0,1,6.01636,18.36615,1.4964,1.4964,0,1,0,.66724.748A11.73357,11.73357,0,0,0,276.27873,198.693Zm-11.83837-10.38195a1.04248,1.04248,0,1,1,1.04248-1.04248A1.04248,1.04248,0,0,1,264.44036,188.31106Z" style="fill: #ad976e"/>
      </g>
      <g>
        <path d="M138.484,164.68294a.953.953,0,0,1-.54092-.16787,36.14826,36.14826,0,1,1,40.9362-.01679.9543.9543,0,1,1-1.08183-1.57239,34.23755,34.23755,0,1,0-38.77254.01493.955.955,0,0,1-.54091,1.74212Z" style="fill: #ad976e"/>
        <path d="M139.99974,161.20136a2.87245,2.87245,0,1,1-3.98442.79128A2.87279,2.87279,0,0,1,139.99974,161.20136Z" style="fill: #ad976e"/>
        <path d="M176.81845,161.18948a2.87246,2.87246,0,1,0,3.98489.78889A2.87274,2.87274,0,0,0,176.81845,161.18948Z" style="fill: #ad976e"/>
      </g>
      <g>
        <path d="M32.44842,164.68294a.953.953,0,0,1-.54092-.16787,36.14826,36.14826,0,1,1,40.9362-.01679.9543.9543,0,1,1-1.08183-1.57239,34.23755,34.23755,0,1,0-38.77254.01493.955.955,0,0,1-.54091,1.74212Z" style="fill: #ad976e"/>
        <path d="M33.96415,161.20136a2.87245,2.87245,0,1,1-3.98442.79128A2.87279,2.87279,0,0,1,33.96415,161.20136Z" style="fill: #ad976e"/>
        <path d="M70.78286,161.18948a2.87246,2.87246,0,1,0,3.98489.78889A2.87274,2.87274,0,0,0,70.78286,161.18948Z" style="fill: #ad976e"/>
      </g>
      <g>
        <path d="M151.70185,183.803h2.504v.95913h-2.504Z" style="fill: #ad976e"/>
        <path d="M165.77252,184.7925h-1.35578v1.34982h-.95913V184.7925H162.047v-.95913h1.41066v-1.41066h.95913v1.41066h1.35578Z" style="fill: #ad976e"/>
        <path d="M170.23838,198.693a11.84636,11.84636,0,0,0-10.07294-11.6925,1.78447,1.78447,0,0,0-3.53082.00012,11.82144,11.82144,0,0,0-6.55011,20.11048,1.5139,1.5139,0,1,0,.66717-.74878,10.82064,10.82064,0,0,1,6.01124-18.37085,1.78772,1.78772,0,0,0,3.27441-.00006,10.82118,10.82118,0,0,1,6.01636,18.36615,1.4964,1.4964,0,1,0,.66723.748A11.73358,11.73358,0,0,0,170.23838,198.693ZM158.4,188.31106a1.04248,1.04248,0,1,1,1.04248-1.04248A1.04249,1.04249,0,0,1,158.4,188.31106Z" style="fill: #ad976e"/>
      </g>
      <g>
        <path d="M45.66625,183.803h2.504v.95913h-2.504Z" style="fill: #ad976e"/>
        <path d="M59.73693,184.7925H58.38115v1.34982H57.422V184.7925H56.01136v-.95913H57.422v-1.41066h.95913v1.41066h1.35578Z" style="fill: #ad976e"/>
        <path d="M64.20279,198.693a11.84636,11.84636,0,0,0-10.07294-11.6925,1.78447,1.78447,0,0,0-3.53082.00012,11.82144,11.82144,0,0,0-6.55011,20.11048,1.5139,1.5139,0,1,0,.66717-.74878,10.82065,10.82065,0,0,1,6.01123-18.37085,1.78773,1.78773,0,0,0,3.27442-.00006,10.82118,10.82118,0,0,1,6.01636,18.36615,1.4964,1.4964,0,1,0,.66723.748A11.73358,11.73358,0,0,0,64.20279,198.693ZM52.36441,188.31106a1.04248,1.04248,0,1,1,1.04248-1.04248A1.04249,1.04249,0,0,1,52.36441,188.31106Z" style="fill: #ad976e"/>
      </g>
      <circle cx="105.38459" cy="320.95292" r="13.63575" style="fill: none;stroke: #ad976e;stroke-miterlimit: 10"/>
      <path d="M146.05313,42.8806h34.89571a50.27656,50.27656,0,0,1,35.55089,14.72566L247.17543,88.282" style="fill: none;stroke: #ad976e;stroke-linecap: round;stroke-miterlimit: 10;stroke-width: 2px"/>
    </g>
  </g>
</svg>
