<?xml version="1.0" encoding="UTF-8" standalone="no"?>
<svg
   xmlns:dc="http://purl.org/dc/elements/1.1/"
   xmlns:cc="http://creativecommons.org/ns#"
   xmlns:rdf="http://www.w3.org/1999/02/22-rdf-syntax-ns#"
   xmlns:svg="http://www.w3.org/2000/svg"
   xmlns="http://www.w3.org/2000/svg"
   xmlns:sodipodi="http://sodipodi.sourceforge.net/DTD/sodipodi-0.dtd"
   xmlns:inkscape="http://www.inkscape.org/namespaces/inkscape"
   inkscape:version="1.0 (b51213c273, 2020-08-10)"
   sodipodi:docname="Chi.svg"
   id="svg1008"
   version="1.1"
   viewBox="0 0 111.76 128.5"
   height="128.5mm"
   width="111.76mm">
  <metadata
     id="metadata1014">
    <rdf:RDF>
      <cc:Work
         rdf:about="">
        <dc:format>image/svg+xml</dc:format>
        <dc:type
           rdf:resource="http://purl.org/dc/dcmitype/StillImage" />
        <dc:title>Chi</dc:title>
      </cc:Work>
    </rdf:RDF>
  </metadata>
  <defs
     id="defs1012" />
  <sodipodi:namedview
     inkscape:current-layer="layer1"
     inkscape:window-maximized="1"
     inkscape:window-y="27"
     inkscape:window-x="0"
     inkscape:cy="242.83465"
     inkscape:cx="211.2"
     inkscape:zoom="1.3589015"
     inkscape:document-units="mm"
     showgrid="false"
     id="namedview1010"
     inkscape:window-height="2028"
     inkscape:window-width="3840"
     inkscape:pageshadow="2"
     inkscape:pageopacity="0"
     guidetolerance="10"
     gridtolerance="10"
     objecttolerance="10"
     borderopacity="1"
     bordercolor="#666666"
     pagecolor="#ffffff"
     inkscape:document-rotation="0" />
  <title
     id="title833">Chi</title>
  <g
     sodipodi:insensitive="true"
     style="display:inline"
     inkscape:label="layer1"
     id="layer2"
     inkscape:groupmode="layer">
    <rect
       id="164b6a83-29bf-4a55-89d4-ee6710ea95ce"
       data-name="BG"
       width="111.76"
       height="128.50002"
       style="fill:#333333;stroke-width:0.352778"
       x="0"
       y="0" />
    <rect
       id="9f119d68-65e8-47be-9a91-73df1861ea31"
       data-name="Header"
       width="111.76"
       height="10.999964"
       style="fill:#ad976e;stroke-width:0.352778"
       x="0"
       y="0" />
    <g
       transform="scale(0.3527778)"
       id="8c4afc31-f2d2-4e27-b448-ec8942af88c0"
       data-name="Logo">
      <g
         id="g843">
        <polygon
           points="157.223,348.016 159.577,348.016 159.577,345.662 157.223,345.662 154.869,345.662 152.515,345.662 152.515,348.016 152.515,350.37 152.515,352.724 152.515,355.078 154.869,355.078 154.869,352.724 154.869,350.37 157.223,350.37 "
           style="fill:#d7d7d7"
           id="polygon837" />
        <polygon
           points="161.931,350.37 159.577,350.37 159.577,352.724 157.223,352.724 157.223,355.078 159.577,355.078 161.931,355.078 164.285,355.078 164.285,352.724 164.285,350.37 164.285,348.016 164.285,345.662 161.931,345.662 161.931,348.016 "
           style="fill:#d7d7d7"
           id="polygon839" />
        <polygon
           points="167.817,357.406 167.817,342.085 166.639,342.085 150.161,342.085 150.161,343.353 166.639,343.353 166.639,357.406 150.161,357.406 150.161,342.085 148.983,342.085 148.983,358.583 150.161,358.583 167.817,358.583 "
           style="fill:#d7d7d7"
           id="polygon841" />
      </g>
    </g>
    <path
       d="m 53.939724,1.6386528 c 0.337608,0.992364 0.779286,2.2133279 0.838906,2.3636112 l 0.0099,0.025047 a 1.0177639,1.0177639 0 0 0 0.153812,0.3026833 c 0.05468,0.035278 0.119238,0.084314 0.203552,0.1488722 a 2.398889,2.398889 0 0 0 0.784225,0.4713111 2.3967723,2.3967723 0 0 0 0.783873,-0.4713111 c 0.08467,-0.064558 0.148872,-0.1143 0.203905,-0.1488722 A 1.4717889,1.4717889 0 0 0 57.071708,4.027311 l 0.0095,-0.020108 c 0.07444,-0.1488722 0.481895,-1.3797139 0.824089,-2.367139 h 1.156406 c -0.21837,0.6529917 -0.85337,2.5579918 -0.972609,2.792589 l -0.0099,0.020108 a 1.9646195,1.9646195 0 0 1 -0.571148,0.7941028 l -0.133702,0.099131 -0.208492,0.1538111 c 0.198614,0.1986139 0.129117,0.094192 0.193675,0.1439334 l 0.129117,0.09913 a 1.5194139,1.5194139 0 0 1 0.575733,0.7941028 l 0.0099,0.025047 c 0.09419,0.2331861 0.719314,2.0496389 0.957791,2.7096862 H 57.875313 C 57.538058,8.2990975 57.121427,7.1328141 57.066394,6.9835891 l -0.0099,-0.019755 A 1.7769417,1.7769417 0 0 0 56.903058,6.6611502 2.1519445,2.1519445 0 0 1 56.694566,6.512278 2.398889,2.398889 0 0 0 55.909988,6.0409669 2.3011695,2.3011695 0 0 0 55.131055,6.512278 2.1960417,2.1960417 0 0 1 54.922563,6.6611502 1.770239,1.770239 0 0 0 54.768752,6.9638336 l -0.01023,0.019755 c -0.05433,0.149225 -0.456141,1.3155084 -0.79375,2.2881168 h -1.156405 c 0.238125,-0.7094362 0.853369,-2.481439 0.942975,-2.7096862 l 0.0099,-0.025047 a 1.5056556,1.5056556 0 0 1 0.570794,-0.7941028 c 0.02469,-0.014817 0.07937,-0.059619 0.133703,-0.09913 L 54.674207,5.489928 C 54.610002,5.4352474 54.545444,5.4006752 54.485824,5.3459946 L 54.351769,5.2468641 A 1.7067389,1.7067389 0 0 1 53.780974,4.4527613 l -0.0099,-0.025047 C 53.671613,4.1846501 53.001688,2.2888223 52.783318,1.6386528 Z"
       style="fill:#333333;stroke-width:0.352778"
       id="path846" />
    <g
       transform="scale(0.3527778)"
       id="ebecec49-cc8b-4566-ada0-8f215b387479"
       data-name="Text">
      <g
         id="g852">
        <path
           d="m 104.164,294.187 -1.342,7.7 h -1.276 l 1.3,-7.7 z"
           style="fill:#d9d8d6"
           id="path848" />
        <path
           d="m 107.376,297.686 a 1.283,1.283 0 0 0 -1.287,1.088 l -0.539,3.114 h -1.189 l 0.88,-5.061 h 1.178 l -0.121,0.748 a 1.833,1.833 0 0 1 1.562,-0.858 c 1.154,0 1.584,0.881 1.43,1.959 l -0.55,3.212 h -1.21 l 0.55,-3.08 c 0.077,-0.594 -0.044,-1.122 -0.704,-1.122 z"
           style="fill:#d9d8d6"
           id="path850" />
      </g>
      <g
         id="g860">
        <path
           d="m 207.8,294.055 a 3.268,3.268 0 0 1 3.255,3.982 4.682,4.682 0 0 1 -4.532,4.016 3.3,3.3 0 0 1 -3.257,-4.016 4.681,4.681 0 0 1 4.534,-3.982 z m -1.145,6.711 a 3.177,3.177 0 0 0 3.036,-2.729 c 0.22,-1.408 -0.483,-2.717 -2.024,-2.728 a 3.175,3.175 0 0 0 -3.036,2.728 2.139,2.139 0 0 0 2.027,2.729 z"
           style="fill:#d9d8d6"
           id="path854" />
        <path
           d="m 213.72,301.03 a 1.284,1.284 0 0 0 1.3,-1.079 l 0.55,-3.124 h 1.178 l -0.869,5.061 h -1.189 l 0.121,-0.748 a 1.846,1.846 0 0 1 -1.562,0.858 c -1.144,0 -1.573,-0.892 -1.419,-1.958 l 0.55,-3.213 h 1.188 l -0.528,3.08 c -0.08,0.593 0.041,1.123 0.68,1.123 z"
           style="fill:#d9d8d6"
           id="path856" />
        <path
           d="m 218.318,296.827 0.3,-1.76 h 1.177 l -0.308,1.76 h 0.836 l -0.187,1.045 h -0.826 l -0.7,4.016 h -1.15 l 0.681,-4.016 h -0.813 l 0.186,-1.045 z"
           style="fill:#d9d8d6"
           id="path858" />
      </g>
      <g
         id="g866">
        <path
           d="m 106.97,266.6 -2.883,3.718 1.8,3.983 h -1.518 l -1.133,-2.938 -2.1,2.938 h -1.582 l 3.125,-4.027 -1.628,-3.674 h 1.506 l 0.98,2.586 1.837,-2.586 z"
           style="fill:#d9d8d6"
           id="path862" />
        <path
           d="m 107.881,267.159 3.125,-0.693 -1.365,7.833 h -1.254 l 1.089,-6.381 -1.826,0.484 z"
           style="fill:#d9d8d6"
           id="path864" />
      </g>
      <g
         id="g874">
        <path
           d="m 150.53,274.3 h -1.343 l 2.421,-8.1 2.156,5.215 4,-5.259 -0.374,8.141 h -1.32 l 0.286,-4.632 -2.926,3.928 -1.585,-3.983 z"
           style="fill:#d9d8d6"
           id="path868" />
        <path
           d="M 160.661,269.238 159.8,274.3 h -1.166 l 0.847,-5.061 z m -0.242,-2.728 a 0.716,0.716 0 1 1 -0.748,0.715 0.721,0.721 0 0 1 0.748,-0.715 z"
           style="fill:#d9d8d6"
           id="path870" />
        <path
           d="m 164.225,269.128 a 1.585,1.585 0 0 1 1.53,1.046 l 0.758,-4.456 h 1.187 l -1.475,8.581 h -1.176 l 0.131,-0.781 a 2.23,2.23 0 0 1 -1.771,0.891 2.112,2.112 0 0 1 -2,-2.64 2.954,2.954 0 0 1 2.816,-2.641 z m -0.44,4.247 a 1.862,1.862 0 0 0 1.694,-1.606 c 0.111,-0.847 -0.307,-1.584 -1.078,-1.607 a 1.865,1.865 0 0 0 -1.782,1.607 c -0.132,0.858 0.308,1.606 1.166,1.606 z"
           style="fill:#d9d8d6"
           id="path872" />
      </g>
      <g
         id="g880">
        <path
           d="m 212.274,266.6 -2.883,3.718 1.809,3.982 h -1.518 l -1.133,-2.938 -2.1,2.938 h -1.584 l 3.124,-4.027 -1.628,-3.674 h 1.507 l 0.98,2.586 1.837,-2.586 z"
           style="fill:#d9d8d6"
           id="path876" />
        <path
           d="m 215.5,270.548 a 3.235,3.235 0 0 0 1.144,-1.706 1.027,1.027 0 0 0 -1.056,-1.21 c -0.924,-0.022 -1.474,0.792 -1.651,1.694 h -1.275 a 3.132,3.132 0 0 1 3.059,-2.86 2.083,2.083 0 0 1 2.244,2.31 3.705,3.705 0 0 1 -1.343,2.167 l -2.442,2.146 h 3.22 l -0.186,1.21 h -5.734 z"
           style="fill:#d9d8d6"
           id="path878" />
      </g>
      <g
         id="g890">
        <path
           d="m 256.174,266.6 -0.506,2.97 h 3.719 l 0.5,-2.97 h 1.31 l -1.331,7.7 H 258.6 l 0.593,-3.543 h -3.729 l -0.6,3.543 h -1.276 l 1.3,-7.7 z"
           style="fill:#d9d8d6"
           id="path882" />
        <path
           d="m 263.544,269.239 -0.859,5.061 h -1.166 l 0.848,-5.061 z m -0.242,-2.728 a 0.715,0.715 0 1 1 -0.748,0.715 0.721,0.721 0 0 1 0.746,-0.715 z"
           style="fill:#d9d8d6"
           id="path884" />
        <path
           d="m 265.04,274.651 a 1.065,1.065 0 0 0 1.166,1.189 1.814,1.814 0 0 0 1.738,-1.651 l 0.121,-0.7 a 2.279,2.279 0 0 1 -1.771,0.859 2.082,2.082 0 0 1 -2,-2.6 2.941,2.941 0 0 1 2.816,-2.618 1.587,1.587 0 0 1 1.54,1.034 l 0.155,-0.924 h 1.143 l -0.836,4.95 a 2.934,2.934 0 0 1 -2.927,2.685 2.034,2.034 0 0 1 -2.288,-2.233 z m 1.628,-1.341 a 1.822,1.822 0 0 0 1.661,-1.375 l 0.056,-0.276 a 1.242,1.242 0 0 0 -1.1,-1.5 1.826,1.826 0 0 0 -1.782,1.584 1.214,1.214 0 0 0 1.165,1.567 z"
           style="fill:#d9d8d6"
           id="path886" />
        <path
           d="m 273.5,270.1 a 1.345,1.345 0 0 0 -1.3,1.078 l -0.539,3.125 h -1.189 l 1.475,-8.581 h 1.188 l -0.726,4.224 a 1.88,1.88 0 0 1 1.562,-0.837 c 1.144,0 1.551,0.848 1.409,1.948 l -0.562,3.246 h -1.177 l 0.55,-3.081 c 0.067,-0.597 -0.054,-1.103 -0.691,-1.122 z"
           style="fill:#d9d8d6"
           id="path888" />
      </g>
      <g
         id="g898">
        <path
           d="m 45.9,266.6 -1.122,6.535 h 2.971 l -0.2,1.166 H 43.3 l 1.32,-7.7 z"
           style="fill:#d9d8d6"
           id="path892" />
        <path
           d="m 51.491,269.129 a 2.232,2.232 0 0 1 2.288,2.641 3.07,3.07 0 0 1 -3.036,2.639 2.236,2.236 0 0 1 -2.289,-2.639 3.071,3.071 0 0 1 3.037,-2.641 z m -0.66,4.225 a 1.833,1.833 0 0 0 1.738,-1.584 1.255,1.255 0 0 0 -1.178,-1.585 1.832,1.832 0 0 0 -1.738,1.585 1.255,1.255 0 0 0 1.178,1.584 z"
           style="fill:#d9d8d6"
           id="path894" />
        <path
           d="m 55.56,269.239 0.627,2.97 1.958,-3.377 0.836,3.4 1.662,-2.992 h 1.309 l -3.252,5.445 -0.935,-3.422 -2.08,3.422 -1.364,-5.446 z"
           style="fill:#d9d8d6"
           id="path896" />
      </g>
    </g>
    <g
       transform="scale(0.3527778)"
       id="81ca6600-f0a5-42e3-8054-9b336ac61c8b"
       data-name="Legend">
      <circle
         cx="52.363998"
         cy="248.302"
         r="13.636"
         style="fill:none;stroke:#ad976e;stroke-miterlimit:10"
         id="circle901" />
      <circle
         cx="105.385"
         cy="248.302"
         r="13.636"
         style="fill:none;stroke:#ad976e;stroke-miterlimit:10"
         id="circle903" />
      <circle
         cx="158.39999"
         cy="248.302"
         r="13.636"
         style="fill:none;stroke:#ad976e;stroke-miterlimit:10"
         id="circle905" />
      <circle
         cx="211.42"
         cy="248.302"
         r="13.636"
         style="fill:none;stroke:#ad976e;stroke-miterlimit:10"
         id="circle907" />
      <circle
         cx="264.44"
         cy="248.302"
         r="13.636"
         style="fill:none;stroke:#ad976e;stroke-miterlimit:10"
         id="circle909" />
      <path
         d="m 32.774,42.881 h 42.137 a 50.28,50.28 0 0 1 35.551,14.725 l 30.676,30.676"
         style="fill:none;stroke:#ad976e;stroke-width:2px;stroke-linecap:round;stroke-miterlimit:10"
         id="path911" />
      <path
         d="M 284.028,42.881 H 241.891 A 50.28,50.28 0 0 0 206.34,57.606 l -30.676,30.676"
         style="fill:none;stroke:#ad976e;stroke-width:2px;stroke-linecap:round;stroke-miterlimit:10"
         id="path913" />
      <path
         d="m 170.746,42.881 h -34.9 A 50.28,50.28 0 0 0 100.3,57.606 L 69.624,88.282"
         style="fill:none;stroke:#ad976e;stroke-width:2px;stroke-linecap:round;stroke-miterlimit:10"
         id="path915" />
      <g
         id="g923">
        <path
           d="m 244.524,164.683 a 0.953,0.953 0 0 1 -0.541,-0.168 36.149,36.149 0 1 1 40.937,-0.017 0.95418918,0.95418918 0 1 1 -1.082,-1.572 34.238,34.238 0 1 0 -38.773,0.015 0.955,0.955 0 0 1 -0.541,1.742 z"
           style="fill:#ad976e"
           id="path917" />
        <path
           d="m 246.04,161.2 a 2.873,2.873 0 1 1 -3.984,0.792 2.873,2.873 0 0 1 3.984,-0.792 z"
           style="fill:#ad976e"
           id="path919" />
        <path
           d="m 282.859,161.189 a 2.873,2.873 0 1 0 3.985,0.789 2.873,2.873 0 0 0 -3.985,-0.789 z"
           style="fill:#ad976e"
           id="path921" />
      </g>
      <g
         id="g931">
        <path
           d="m 257.742,183.8 h 2.5 v 0.959 h -2.5 z"
           style="fill:#ad976e"
           id="path925" />
        <path
           d="m 271.813,184.793 h -1.356 v 1.349 H 269.5 v -1.349 h -1.411 v -0.96 h 1.411 v -1.41 h 0.959 v 1.41 h 1.356 z"
           style="fill:#ad976e"
           id="path927" />
        <path
           d="M 276.279,198.693 A 11.845,11.845 0 0 0 266.206,187 a 1.784,1.784 0 0 0 -3.531,0 11.821,11.821 0 0 0 -6.55,20.11 1.513,1.513 0 1 0 0.667,-0.749 10.821,10.821 0 0 1 6.011,-18.371 1.788,1.788 0 0 0 3.275,0 10.822,10.822 0 0 1 6.016,18.367 1.5,1.5 0 1 0 0.667,0.748 11.732,11.732 0 0 0 3.518,-8.412 z M 264.44,188.311 a 1.043,1.043 0 1 1 1.043,-1.042 1.043,1.043 0 0 1 -1.043,1.042 z"
           style="fill:#ad976e"
           id="path929" />
      </g>
      <g
         id="g939">
        <path
           d="m 138.484,164.683 a 0.951,0.951 0 0 1 -0.541,-0.168 36.148,36.148 0 1 1 40.936,-0.017 0.95418918,0.95418918 0 1 1 -1.082,-1.572 34.237,34.237 0 1 0 -38.772,0.015 0.955,0.955 0 0 1 -0.541,1.742 z"
           style="fill:#ad976e"
           id="path933" />
        <path
           d="m 140,161.2 a 2.873,2.873 0 1 1 -3.985,0.792 A 2.874,2.874 0 0 1 140,161.2 Z"
           style="fill:#ad976e"
           id="path935" />
        <path
           d="m 176.818,161.189 a 2.873,2.873 0 1 0 3.985,0.789 2.872,2.872 0 0 0 -3.985,-0.789 z"
           style="fill:#ad976e"
           id="path937" />
      </g>
      <g
         id="g947">
        <path
           d="m 32.448,164.683 a 0.955,0.955 0 0 1 -0.541,-0.168 36.149,36.149 0 1 1 40.937,-0.017 0.95418918,0.95418918 0 1 1 -1.082,-1.572 34.238,34.238 0 1 0 -38.773,0.015 0.955,0.955 0 0 1 -0.541,1.742 z"
           style="fill:#ad976e"
           id="path941" />
        <path
           d="m 33.964,161.2 a 2.873,2.873 0 1 1 -3.984,0.792 2.873,2.873 0 0 1 3.984,-0.792 z"
           style="fill:#ad976e"
           id="path943" />
        <path
           d="m 70.783,161.189 a 2.873,2.873 0 1 0 3.985,0.789 2.873,2.873 0 0 0 -3.985,-0.789 z"
           style="fill:#ad976e"
           id="path945" />
      </g>
      <g
         id="g955">
        <path
           d="m 151.7,183.8 h 2.5 v 0.959 h -2.5 z"
           style="fill:#ad976e"
           id="path949" />
        <path
           d="m 165.773,184.793 h -1.356 v 1.349 h -0.959 v -1.349 h -1.411 v -0.96 h 1.411 v -1.41 h 0.959 v 1.41 h 1.356 z"
           style="fill:#ad976e"
           id="path951" />
        <path
           d="M 170.238,198.693 A 11.845,11.845 0 0 0 160.165,187 a 1.784,1.784 0 0 0 -3.53,0 11.821,11.821 0 0 0 -6.55,20.11 1.513,1.513 0 1 0 0.667,-0.749 10.821,10.821 0 0 1 6.011,-18.371 1.787,1.787 0 0 0 3.274,0 10.822,10.822 0 0 1 6.017,18.367 1.5,1.5 0 1 0 0.667,0.748 11.736,11.736 0 0 0 3.517,-8.412 z M 158.4,188.311 a 1.043,1.043 0 1 1 1.042,-1.042 1.042,1.042 0 0 1 -1.042,1.042 z"
           style="fill:#ad976e"
           id="path953" />
      </g>
      <g
         id="g963">
        <path
           d="m 45.666,183.8 h 2.5 v 0.959 h -2.5 z"
           style="fill:#ad976e"
           id="path957" />
        <path
           d="m 59.737,184.793 h -1.356 v 1.349 h -0.959 v -1.349 h -1.411 v -0.96 h 1.411 v -1.41 h 0.959 v 1.41 h 1.356 z"
           style="fill:#ad976e"
           id="path959" />
        <path
           d="M 64.2,198.693 A 11.845,11.845 0 0 0 54.13,187 a 1.784,1.784 0 0 0 -3.531,0 11.821,11.821 0 0 0 -6.55,20.11 1.513,1.513 0 1 0 0.667,-0.749 10.821,10.821 0 0 1 6.011,-18.371 1.788,1.788 0 0 0 3.275,0 10.822,10.822 0 0 1 6.016,18.367 1.5,1.5 0 1 0 0.667,0.748 11.732,11.732 0 0 0 3.515,-8.412 z M 52.364,188.311 a 1.043,1.043 0 1 1 1.043,-1.042 1.043,1.043 0 0 1 -1.043,1.042 z"
           style="fill:#ad976e"
           id="path961" />
      </g>
      <circle
         cx="105.385"
         cy="320.953"
         r="13.636"
         style="fill:none;stroke:#ad976e;stroke-miterlimit:10"
         id="circle965" />
      <path
         d="m 146.053,42.881 h 34.9 A 50.28,50.28 0 0 1 216.5,57.606 l 30.675,30.676"
         style="fill:none;stroke:#ad976e;stroke-width:2px;stroke-linecap:round;stroke-miterlimit:10"
         id="path967" />
    </g>
  </g>
  <g
     style="display:none"
     inkscape:label="components"
     id="layer1"
     inkscape:groupmode="layer">
    <circle
       inkscape:label="HIGH_GAIN"
       id="circle970"
       style="fill:#ff0000;stroke:none;stroke-width:0.352778;stroke-opacity:1"
       r="1.9998974"
       cy="47.126175"
       cx="93.288559" />
    <circle
       inkscape:label="LOW_GAIN_CV"
       id="circle972"
       style="fill:#ff0000;stroke:none;stroke-width:0.352778;stroke-opacity:1"
       r="1.9998974"
       cy="70.062729"
       cx="18.472857" />
    <circle
       inkscape:label="MID_GAIN_CV"
       id="circle974"
       style="fill:#ff0000;stroke:none;stroke-width:0.352778;stroke-opacity:1"
       r="1.9998974"
       cy="70.062729"
       cx="55.880001" />
    <circle
       inkscape:label="HIGH_GAIN_CV"
       id="circle976"
       style="fill:#ff0000;stroke:none;stroke-width:0.352778;stroke-opacity:1"
       r="1.9998974"
       cy="70.062729"
       cx="93.288559" />
    <circle
       inkscape:label="LOW_X"
       id="circle978"
       style="fill:#ff0000;stroke:none;stroke-width:0.352778;stroke-opacity:1"
       r="1.9998974"
       cy="70.062729"
       cx="37.17749" />
    <circle
       inkscape:label="HIGH_X"
       id="circle980"
       style="fill:#ff0000;stroke:none;stroke-width:0.352778;stroke-opacity:1"
       r="1.9998974"
       cy="70.062729"
       cx="74.584282" />
    <circle
       inkscape:label="OUT"
       id="circle982"
       style="fill:#0000ff;stroke:none;stroke-width:0.352778;stroke-opacity:1"
       r="1.9998974"
       cy="113.2251"
       cx="74.584282" />
    <circle
       inkscape:label="LOW_GAIN"
       id="circle984"
       style="fill:#ff0000;stroke:none;stroke-width:0.352778;stroke-opacity:1"
       r="1.9998974"
       cy="47.126175"
       cx="18.472857" />
    <circle
       inkscape:label="MID_GAIN"
       id="circle986"
       style="fill:#ff0000;stroke:none;stroke-width:0.352778;stroke-opacity:1"
       r="1.9998974"
       cy="47.126175"
       cx="55.880001" />
    <circle
       inkscape:label="IN"
       id="circle988"
       style="fill:#00ff00;stroke:none;stroke-width:0.352778;stroke-opacity:1"
       r="1.9998974"
       cy="113.2251"
       cx="37.17749" />
    <circle
       inkscape:label="LOW_GAIN"
       id="circle990"
       style="fill:#00ff00;stroke:none;stroke-width:0.352778;stroke-opacity:1"
       r="1.9998974"
       cy="87.595436"
       cx="18.472857" />
    <circle
       inkscape:label="MID_GAIN"
       id="circle992"
       style="fill:#00ff00;stroke:none;stroke-width:0.352778;stroke-opacity:1"
       r="1.9998974"
       cy="87.595436"
       cx="55.880001" />
    <circle
       inkscape:label="HIGH_GAIN"
       id="circle994"
       style="fill:#00ff00;stroke:none;stroke-width:0.352778;stroke-opacity:1"
       r="1.9998974"
       cy="87.595436"
       cx="93.288559" />
    <circle
       inkscape:label="LOW_X"
       id="circle996"
       style="fill:#00ff00;stroke:none;stroke-width:0.352778;stroke-opacity:1"
       r="1.9998974"
       cy="87.595436"
       cx="37.17749" />
    <circle
       inkscape:label="MID_X"
       id="circle998"
       style="fill:#00ff00;stroke:none;stroke-width:0.352778;stroke-opacity:1"
       r="1.9998974"
       cy="87.595436"
       cx="74.584282" />
    <circle
       id="LOW"
       style="fill:#0000ff;stroke:none;stroke-width:0.352778;stroke-opacity:1"
       r="1.9998974"
       cy="23.417389"
       cx="18.472857" />
    <circle
       id="MID"
       style="fill:#0000ff;stroke:none;stroke-width:0.352778;stroke-opacity:1"
       r="1.9998974"
       cy="23.417389"
       cx="55.880001" />
    <circle
       id="HIGH"
       style="fill:#0000ff;stroke:none;stroke-width:0.352778;stroke-opacity:1"
       r="1.9998974"
       cy="23.417389"
       cx="93.288559" />
  </g>
</svg>
