<?xml version="1.0" encoding="UTF-8" standalone="no"?>
<svg
   xmlns:dc="http://purl.org/dc/elements/1.1/"
   xmlns:cc="http://creativecommons.org/ns#"
   xmlns:rdf="http://www.w3.org/1999/02/22-rdf-syntax-ns#"
   xmlns:svg="http://www.w3.org/2000/svg"
   xmlns="http://www.w3.org/2000/svg"
   xmlns:sodipodi="http://sodipodi.sourceforge.net/DTD/sodipodi-0.dtd"
   xmlns:inkscape="http://www.inkscape.org/namespaces/inkscape"
   width="81.279999mm"
   height="128.5mm"
   viewBox="0 0 81.279995 128.5"
   version="1.1"
   id="svg1118"
   sodipodi:docname="Fax.svg"
   inkscape:version="1.0 (4035a4f, 2020-05-01)">
  <metadata
     id="metadata1124">
    <rdf:RDF>
      <cc:Work
         rdf:about="">
        <dc:format>image/svg+xml</dc:format>
        <dc:type
           rdf:resource="http://purl.org/dc/dcmitype/StillImage" />
        <dc:title>Fax</dc:title>
      </cc:Work>
    </rdf:RDF>
  </metadata>
  <defs
     id="defs1122" />
  <sodipodi:namedview
     inkscape:document-units="mm"
     inkscape:document-rotation="0"
     pagecolor="#ffffff"
     bordercolor="#666666"
     borderopacity="1"
     objecttolerance="10"
     gridtolerance="10"
     guidetolerance="10"
     inkscape:pageopacity="0"
     inkscape:pageshadow="2"
     inkscape:window-width="1920"
     inkscape:window-height="1152"
     id="namedview1120"
     showgrid="false"
     inkscape:zoom="1.6629198"
     inkscape:cx="153.95496"
     inkscape:cy="269.65692"
     inkscape:window-x="0"
     inkscape:window-y="22"
     inkscape:window-maximized="1"
     inkscape:current-layer="layer1" />
  <title
     id="title877">Fax</title>
  <g
     inkscape:groupmode="layer"
     id="layer2"
     inkscape:label="layer1"
     style="display:inline">
    <rect
       style="stroke-width:0.352778"
       y="0"
       x="0"
       fill="#333333"
       height="128.50002"
       width="81.279999"
       data-name="BG"
       id="b8a124f1-0bdd-43d6-8e8c-b9a4f0432b7a" />
    <rect
       style="stroke-width:0.352961"
       y="0"
       fill="#b2ff78"
       height="10.999964"
       width="81.279999"
       x="4.8957752e-18"
       data-name="Header"
       id="2d4f7cd8-9e6e-4b55-9a60-784a4d8708c4" />
    <g
       transform="scale(0.35277779)"
       data-name="Title"
       id="0defe638-6d2f-4c79-98cf-1e8fa9edc662">
      <path
         id="path881"
         fill="#333333"
         d="m 78.681,7.9 a 3.169,3.169 0 0 0 -0.716,2.333 3.166,3.166 0 0 0 0.716,2.333 3.162,3.162 0 0 0 2.333,0.716 2.377,2.377 0 0 1 1.755,0.539 2.378,2.378 0 0 1 0.539,1.755 2.381,2.381 0 0 1 -0.539,1.756 2.377,2.377 0 0 1 -1.755,0.539 3.166,3.166 0 0 0 -2.333,0.715 3.166,3.166 0 0 0 -0.716,2.333 2.381,2.381 0 0 1 -0.539,1.756 3.127,3.127 0 0 1 -3.51,0 2.381,2.381 0 0 1 -0.539,-1.756 2.378,2.378 0 0 1 0.539,-1.755 2.378,2.378 0 0 1 1.755,-0.539 A 3.162,3.162 0 0 0 78,17.91 3.162,3.162 0 0 0 78.715,15.577 3.159,3.159 0 0 0 78,13.245 3.162,3.162 0 0 0 75.667,12.529 2.378,2.378 0 0 1 73.912,11.99 2.381,2.381 0 0 1 73.373,10.234 2.378,2.378 0 0 1 73.912,8.479 2.378,2.378 0 0 1 75.667,7.94 3.162,3.162 0 0 0 78,7.224 a 3.161,3.161 0 0 0 0.715,-2.332 2.383,2.383 0 0 1 0.539,-1.756 3.128,3.128 0 0 1 3.511,0 2.379,2.379 0 0 1 0.539,1.756 A 2.378,2.378 0 0 1 82.765,6.647 2.377,2.377 0 0 1 81.01,7.186 3.166,3.166 0 0 0 78.681,7.9 Z m -4.765,9.432 a 2.381,2.381 0 0 1 -0.539,-1.756 2.378,2.378 0 0 1 0.539,-1.755 3.127,3.127 0 0 1 3.51,0 2.378,2.378 0 0 1 0.539,1.755 2.381,2.381 0 0 1 -0.539,1.756 3.127,3.127 0 0 1 -3.51,0 z m 3.51,7.175 a 2.377,2.377 0 0 1 0.539,1.755 2.381,2.381 0 0 1 -0.539,1.756 3.127,3.127 0 0 1 -3.51,0 2.381,2.381 0 0 1 -0.539,-1.756 2.377,2.377 0 0 1 0.539,-1.755 3.127,3.127 0 0 1 3.51,0 z M 88.113,3.136 a 2.383,2.383 0 0 1 0.538,1.756 2.382,2.382 0 0 1 -0.538,1.755 3.13,3.13 0 0 1 -3.512,0 2.382,2.382 0 0 1 -0.538,-1.755 2.383,2.383 0 0 1 0.537,-1.756 3.13,3.13 0 0 1 3.512,0 z m 0,10.686 a 2.382,2.382 0 0 1 0.538,1.755 2.385,2.385 0 0 1 -0.538,1.756 3.13,3.13 0 0 1 -3.512,0 2.385,2.385 0 0 1 -0.538,-1.756 2.382,2.382 0 0 1 0.538,-1.755 3.13,3.13 0 0 1 3.512,0 z m 11.225,-3.588 a 2.377,2.377 0 0 1 -0.54,1.756 3.127,3.127 0 0 1 -3.51,0 A 2.381,2.381 0 0 1 94.749,10.234 3.168,3.168 0 0 0 94.033,7.9 3.166,3.166 0 0 0 91.7,7.186 2.377,2.377 0 0 1 89.945,6.647 2.378,2.378 0 0 1 89.406,4.892 a 2.379,2.379 0 0 1 0.539,-1.756 3.128,3.128 0 0 1 3.511,0 2.379,2.379 0 0 1 0.544,1.756 3.157,3.157 0 0 0 0.716,2.332 3.158,3.158 0 0 0 2.332,0.716 2.378,2.378 0 0 1 1.755,0.539 2.374,2.374 0 0 1 0.535,1.755 z" />
      <path
         id="path883"
         fill="#333333"
         d="m 126.656,24.508 a 2.377,2.377 0 0 1 0.539,1.755 2.381,2.381 0 0 1 -0.539,1.756 3.128,3.128 0 0 1 -3.511,0 2.381,2.381 0 0 1 -0.539,-1.756 3.164,3.164 0 0 0 -0.716,-2.332 3.162,3.162 0 0 0 -2.333,-0.716 2.382,2.382 0 0 1 -1.755,-0.539 2.381,2.381 0 0 1 -0.539,-1.756 2.378,2.378 0 0 1 0.539,-1.755 2.378,2.378 0 0 1 1.755,-0.539 3.162,3.162 0 0 0 2.333,-0.716 3.166,3.166 0 0 0 0.716,-2.333 3.164,3.164 0 0 0 -0.716,-2.332 3.162,3.162 0 0 0 -2.333,-0.716 2.382,2.382 0 0 1 -1.755,-0.539 2.381,2.381 0 0 1 -0.539,-1.756 3.165,3.165 0 0 0 -0.716,-2.333 4.164,4.164 0 0 0 -4.666,0 3.166,3.166 0 0 0 -0.715,2.333 v 0 a 2.381,2.381 0 0 1 -0.539,1.756 2.384,2.384 0 0 1 -1.755,0.539 3.162,3.162 0 0 0 -2.333,0.716 3.159,3.159 0 0 0 -0.716,2.332 3.162,3.162 0 0 0 0.716,2.333 3.162,3.162 0 0 0 2.333,0.716 2.38,2.38 0 0 1 1.755,0.539 2.378,2.378 0 0 1 0.539,1.755 2.381,2.381 0 0 1 -0.539,1.756 2.384,2.384 0 0 1 -1.755,0.539 3.162,3.162 0 0 0 -2.333,0.716 3.159,3.159 0 0 0 -0.716,2.332 2.381,2.381 0 0 1 -0.539,1.756 3.128,3.128 0 0 1 -3.511,0 2.381,2.381 0 0 1 -0.539,-1.756 2.377,2.377 0 0 1 0.539,-1.755 2.379,2.379 0 0 1 1.756,-0.539 3.159,3.159 0 0 0 2.332,-0.716 3.162,3.162 0 0 0 0.716,-2.333 3.162,3.162 0 0 0 -0.716,-2.333 3.163,3.163 0 0 0 -2.332,-0.715 2.379,2.379 0 0 1 -1.756,-0.539 2.381,2.381 0 0 1 -0.539,-1.756 2.378,2.378 0 0 1 0.539,-1.755 2.379,2.379 0 0 1 1.756,-0.539 3.159,3.159 0 0 0 2.332,-0.716 3.162,3.162 0 0 0 0.716,-2.333 2.382,2.382 0 0 1 0.539,-1.755 2.379,2.379 0 0 1 1.756,-0.539 3.158,3.158 0 0 0 2.332,-0.716 3.161,3.161 0 0 0 0.717,-2.332 2.379,2.379 0 0 1 0.538,-1.756 3.128,3.128 0 0 1 3.511,0 2.383,2.383 0 0 1 0.538,1.756 3.161,3.161 0 0 0 0.717,2.332 3.159,3.159 0 0 0 2.332,0.716 2.379,2.379 0 0 1 1.756,0.539 2.378,2.378 0 0 1 0.539,1.755 3.162,3.162 0 0 0 0.716,2.333 3.159,3.159 0 0 0 2.332,0.716 2.379,2.379 0 0 1 1.756,0.539 2.378,2.378 0 0 1 0.539,1.755 2.381,2.381 0 0 1 -0.539,1.756 2.379,2.379 0 0 1 -1.756,0.539 3.163,3.163 0 0 0 -2.332,0.715 3.162,3.162 0 0 0 -0.716,2.333 3.162,3.162 0 0 0 0.716,2.333 3.159,3.159 0 0 0 2.332,0.716 2.379,2.379 0 0 1 1.756,0.539 z m -24.883,-1.832 a 2.381,2.381 0 0 1 -0.539,-1.756 2.378,2.378 0 0 1 0.539,-1.755 3.128,3.128 0 0 1 3.511,0 2.378,2.378 0 0 1 0.539,1.755 2.381,2.381 0 0 1 -0.539,1.756 3.128,3.128 0 0 1 -3.511,0 z m 14.2,-3.511 a 2.382,2.382 0 0 1 0.538,1.755 2.385,2.385 0 0 1 -0.538,1.756 3.128,3.128 0 0 1 -3.511,0 2.381,2.381 0 0 1 -0.538,-1.756 2.378,2.378 0 0 1 0.538,-1.755 3.128,3.128 0 0 1 3.511,0 z m 10.686,0 a 2.378,2.378 0 0 1 0.539,1.755 2.381,2.381 0 0 1 -0.539,1.756 3.128,3.128 0 0 1 -3.511,0 2.381,2.381 0 0 1 -0.539,-1.756 2.378,2.378 0 0 1 0.539,-1.755 3.128,3.128 0 0 1 3.511,0 z" />
      <path
         id="path885"
         fill="#333333"
         d="m 156.368,24.508 a 2.377,2.377 0 0 1 0.539,1.755 2.381,2.381 0 0 1 -0.539,1.756 3.128,3.128 0 0 1 -3.511,0 2.381,2.381 0 0 1 -0.539,-1.756 3.164,3.164 0 0 0 -0.716,-2.332 3.162,3.162 0 0 0 -2.333,-0.716 2.382,2.382 0 0 1 -1.755,-0.539 2.381,2.381 0 0 1 -0.539,-1.756 3.162,3.162 0 0 0 -0.716,-2.333 3.166,3.166 0 0 0 -2.333,-0.715 2.38,2.38 0 0 1 -1.755,-0.539 2.381,2.381 0 0 1 -0.539,-1.756 3.163,3.163 0 0 0 -0.715,-2.332 3.163,3.163 0 0 0 -2.333,-0.716 2.383,2.383 0 0 1 -1.756,-0.539 2.385,2.385 0 0 1 -0.539,-1.756 3.163,3.163 0 0 0 -0.716,-2.333 3.163,3.163 0 0 0 -2.332,-0.715 2.379,2.379 0 0 1 -1.756,-0.539 2.378,2.378 0 0 1 -0.539,-1.755 2.379,2.379 0 0 1 0.539,-1.756 3.128,3.128 0 0 1 3.511,0 2.379,2.379 0 0 1 0.539,1.756 3.161,3.161 0 0 0 0.716,2.332 3.16,3.16 0 0 0 2.333,0.716 2.375,2.375 0 0 1 1.754,0.539 2.374,2.374 0 0 1 0.54,1.755 3.166,3.166 0 0 0 0.715,2.333 3.163,3.163 0 0 0 2.333,0.716 2.379,2.379 0 0 1 1.756,0.539 2.382,2.382 0 0 1 0.538,1.755 3.162,3.162 0 0 0 0.717,2.333 3.159,3.159 0 0 0 2.332,0.716 2.379,2.379 0 0 1 1.756,0.539 2.378,2.378 0 0 1 0.539,1.755 3.162,3.162 0 0 0 0.716,2.333 3.159,3.159 0 0 0 2.332,0.716 2.381,2.381 0 0 1 1.756,0.539 z m -16.03,-10.686 a 2.374,2.374 0 0 1 0.54,1.755 2.377,2.377 0 0 1 -0.54,1.756 2.375,2.375 0 0 1 -1.754,0.539 3.165,3.165 0 0 0 -2.333,0.715 3.162,3.162 0 0 0 -0.716,2.333 2.381,2.381 0 0 1 -0.535,1.756 3.128,3.128 0 0 1 -3.511,0 2.381,2.381 0 0 1 -0.539,-1.756 2.378,2.378 0 0 1 0.539,-1.755 2.379,2.379 0 0 1 1.756,-0.539 3.159,3.159 0 0 0 2.332,-0.716 3.162,3.162 0 0 0 0.716,-2.333 2.382,2.382 0 0 1 0.539,-1.755 3.127,3.127 0 0 1 3.51,0 z M 135,24.508 a 2.377,2.377 0 0 1 0.539,1.755 2.381,2.381 0 0 1 -0.539,1.756 3.128,3.128 0 0 1 -3.511,0 2.381,2.381 0 0 1 -0.539,-1.756 2.377,2.377 0 0 1 0.539,-1.755 3.128,3.128 0 0 1 3.511,0 z M 156.368,8.479 a 2.378,2.378 0 0 1 0.539,1.755 2.381,2.381 0 0 1 -0.539,1.756 2.385,2.385 0 0 1 -1.756,0.539 3.159,3.159 0 0 0 -2.332,0.716 3.159,3.159 0 0 0 -0.716,2.332 2.381,2.381 0 0 1 -0.539,1.756 3.128,3.128 0 0 1 -3.511,0 2.381,2.381 0 0 1 -0.539,-1.756 2.378,2.378 0 0 1 0.539,-1.755 2.378,2.378 0 0 1 1.755,-0.539 3.162,3.162 0 0 0 2.333,-0.716 3.166,3.166 0 0 0 0.716,-2.333 2.378,2.378 0 0 1 0.539,-1.755 3.128,3.128 0 0 1 3.511,0 z m -3.511,-1.832 a 2.378,2.378 0 0 1 -0.539,-1.755 2.379,2.379 0 0 1 0.539,-1.756 3.128,3.128 0 0 1 3.511,0 2.379,2.379 0 0 1 0.539,1.756 2.378,2.378 0 0 1 -0.539,1.755 3.128,3.128 0 0 1 -3.511,0 z" />
    </g>
    <g
       transform="scale(0.35277779)"
       data-name="Text"
       id="f87bb02f-df72-4044-8818-2222f628a993">
      <path
         id="path888"
         fill="#d7d7d7"
         d="m 161.66,47.933 a 3.751,3.751 0 0 0 2.553,-1.078 l -0.232,1.54 a 4.069,4.069 0 0 1 -2.5,0.814 3.28,3.28 0 0 1 -3.257,-3.982 4.661,4.661 0 0 1 4.533,-3.983 3.2,3.2 0 0 1 2.288,0.814 l -0.242,1.551 a 2.489,2.489 0 0 0 -2.135,-1.089 3.22,3.22 0 0 0 -3.057,2.707 2.166,2.166 0 0 0 2.049,2.706 z" />
      <path
         id="path890"
         fill="#d7d7d7"
         d="m 167.929,40.5 -1.484,8.581 h -1.155 l 1.452,-8.581 z" />
      <path
         id="path892"
         fill="#d7d7d7"
         d="m 171.054,43.906 a 2.232,2.232 0 0 1 2.288,2.641 3.07,3.07 0 0 1 -3.036,2.64 2.237,2.237 0 0 1 -2.289,-2.64 3.072,3.072 0 0 1 3.037,-2.641 z m -0.66,4.225 a 1.832,1.832 0 0 0 1.738,-1.584 1.255,1.255 0 0 0 -1.177,-1.585 1.834,1.834 0 0 0 -1.739,1.585 1.256,1.256 0 0 0 1.178,1.584 z" />
      <path
         id="path894"
         fill="#d7d7d7"
         d="m 176.4,48.153 a 2.334,2.334 0 0 0 1.771,-0.836 l -0.187,1.3 a 2.729,2.729 0 0 1 -1.717,0.572 2.246,2.246 0 0 1 -2.309,-2.64 3.064,3.064 0 0 1 3.042,-2.643 2.4,2.4 0 0 1 1.607,0.573 l -0.187,1.309 a 1.556,1.556 0 0 0 -1.453,-0.848 1.871,1.871 0 0 0 -1.8,1.607 1.286,1.286 0 0 0 1.233,1.606 z" />
      <path
         id="path896"
         fill="#d7d7d7"
         d="m 184.265,44.017 -2.552,2.156 1.836,2.9 h -1.364 l -1.595,-2.573 -0.44,2.574 h -1.144 l 1.453,-8.581 h 1.166 l -0.9,5.248 2.046,-1.727 z" />
      <path
         id="path898"
         fill="#d7d7d7"
         d="m 49.832,48.064 a 1.3,1.3 0 0 0 1.4,-1.188 c 0.023,-0.748 -0.615,-0.99 -1.386,-1.342 a 2.359,2.359 0 0 1 -1.7,-2.134 2.39,2.39 0 0 1 2.585,-2.156 2.486,2.486 0 0 1 2.409,1.661 l -1.066,0.561 A 1.546,1.546 0 0 0 50.59,42.4 0.988,0.988 0 0 0 49.468,43.313 c -0.033,0.616 0.583,0.99 1.453,1.331 a 2.215,2.215 0 0 1 1.65,2.145 2.716,2.716 0 0 1 -2.806,2.454 2.859,2.859 0 0 1 -2.673,-1.97 l 0.99,-0.682 c 0.385,0.868 0.869,1.473 1.75,1.473 z" />
      <path
         id="path900"
         fill="#d7d7d7"
         d="m 54.3,44.016 0.3,-1.76 h 1.177 l -0.308,1.76 H 56.3 l -0.187,1.045 h -0.825 l -0.7,4.016 h -1.149 l 0.682,-4.016 h -0.814 l 0.187,-1.045 z" />
      <path
         id="path902"
         fill="#d7d7d7"
         d="m 56.254,46.876 a 2.944,2.944 0 0 1 2.971,-2.97 2,2 0 0 1 2.175,2.222 2.447,2.447 0 0 1 -0.121,0.693 h -3.84 c -0.022,0.814 0.374,1.387 1.188,1.387 a 1.775,1.775 0 0 0 1.474,-0.8 l 0.99,0.408 a 2.908,2.908 0 0 1 -2.563,1.375 2.136,2.136 0 0 1 -2.274,-2.315 z M 57.586,46 h 2.6 v -0.022 c 0,-0.726 -0.351,-1.166 -1.055,-1.166 A 1.627,1.627 0 0 0 57.586,46 Z" />
      <path
         id="path904"
         fill="#d7d7d7"
         d="m 61.447,51.5 1.3,-7.481 h 1.166 l -0.132,0.814 a 2.217,2.217 0 0 1 1.794,-0.946 2.111,2.111 0 0 1 1.991,2.662 2.947,2.947 0 0 1 -2.816,2.662 1.552,1.552 0 0 1 -1.53,-1.078 L 62.657,51.5 Z m 3.74,-6.535 a 1.842,1.842 0 0 0 -1.694,1.584 c -0.11,0.848 0.319,1.562 1.078,1.584 a 1.843,1.843 0 0 0 1.782,-1.584 1.23,1.23 0 0 0 -1.166,-1.587 z" />
      <path
         id="path906"
         fill="#d7d7d7"
         d="m 70.224,48.263 a 0.637,0.637 0 0 0 0.7,-0.595 c 0.011,-0.439 -0.484,-0.67 -0.968,-0.857 -0.617,-0.243 -1.265,-0.606 -1.244,-1.464 a 1.592,1.592 0 0 1 1.788,-1.441 2.353,2.353 0 0 1 1.859,0.891 l -0.66,0.693 a 1.676,1.676 0 0 0 -1.21,-0.682 c -0.4,0 -0.66,0.2 -0.66,0.484 -0.023,0.4 0.418,0.561 0.924,0.77 0.748,0.319 1.364,0.66 1.342,1.541 a 1.713,1.713 0 0 1 -1.859,1.627 2.744,2.744 0 0 1 -2.212,-1.122 l 0.748,-0.682 a 1.945,1.945 0 0 0 1.452,0.837 z" />
      <path
         id="path908"
         fill="#d7d7d7"
         d="m 26.89,155.863 a 1.305,1.305 0 0 0 1.4,-1.188 c 0.022,-0.748 -0.616,-0.99 -1.386,-1.342 a 2.36,2.36 0 0 1 -1.7,-2.135 2.391,2.391 0 0 1 2.585,-2.156 2.489,2.489 0 0 1 2.401,1.658 l -1.066,0.561 a 1.546,1.546 0 0 0 -1.475,-1.067 0.988,0.988 0 0 0 -1.122,0.913 c -0.033,0.616 0.583,0.99 1.452,1.331 a 2.214,2.214 0 0 1 1.65,2.145 2.715,2.715 0 0 1 -2.8,2.454 2.858,2.858 0 0 1 -2.673,-1.969 l 0.989,-0.682 c 0.381,0.872 0.864,1.477 1.745,1.477 z" />
      <path
         id="path910"
         fill="#d7d7d7"
         d="m 31.356,151.814 0.3,-1.76 h 1.174 l -0.308,1.76 h 0.836 l -0.187,1.045 h -0.826 l -0.7,4.016 H 30.5 l 0.681,-4.016 h -0.813 l 0.186,-1.045 z" />
      <path
         id="path912"
         fill="#d7d7d7"
         d="m 33.313,154.675 a 2.944,2.944 0 0 1 2.971,-2.971 2,2 0 0 1 2.179,2.223 2.445,2.445 0 0 1 -0.122,0.693 H 34.5 c -0.023,0.814 0.374,1.386 1.188,1.386 a 1.777,1.777 0 0 0 1.474,-0.8 l 0.99,0.407 a 2.908,2.908 0 0 1 -2.564,1.375 2.135,2.135 0 0 1 -2.275,-2.313 z m 1.331,-0.881 h 2.6 v -0.022 c 0,-0.726 -0.352,-1.166 -1.056,-1.166 a 1.628,1.628 0 0 0 -1.544,1.188 z" />
      <path
         id="path914"
         fill="#d7d7d7"
         d="m 38.505,159.295 1.3,-7.481 h 1.166 l -0.131,0.814 a 2.214,2.214 0 0 1 1.793,-0.946 2.112,2.112 0 0 1 1.992,2.663 2.948,2.948 0 0 1 -2.817,2.662 1.553,1.553 0 0 1 -1.529,-1.078 l -0.562,3.366 z m 3.741,-6.535 a 1.842,1.842 0 0 0 -1.7,1.585 c -0.109,0.847 0.32,1.562 1.078,1.584 a 1.844,1.844 0 0 0 1.783,-1.584 1.231,1.231 0 0 0 -1.161,-1.585 z" />
      <path
         id="path916"
         fill="#d7d7d7"
         d="m 37.133,302.348 a 1.306,1.306 0 0 0 1.4,-1.188 c 0.022,-0.748 -0.615,-0.99 -1.386,-1.343 a 2.359,2.359 0 0 1 -1.7,-2.133 2.391,2.391 0 0 1 2.585,-2.157 2.488,2.488 0 0 1 2.409,1.661 l -1.066,0.561 a 1.546,1.546 0 0 0 -1.475,-1.066 0.988,0.988 0 0 0 -1.122,0.913 c -0.033,0.615 0.583,0.989 1.452,1.331 a 2.213,2.213 0 0 1 1.651,2.144 2.716,2.716 0 0 1 -2.806,2.454 2.859,2.859 0 0 1 -2.673,-1.969 l 0.989,-0.682 c 0.378,0.869 0.862,1.474 1.742,1.474 z" />
      <path
         id="path918"
         fill="#d7d7d7"
         d="m 41.6,298.3 0.3,-1.761 h 1.177 L 42.769,298.3 H 43.6 l -0.187,1.045 h -0.826 l -0.7,4.015 h -1.146 l 0.681,-4.015 H 40.609 L 40.8,298.3 Z" />
      <path
         id="path920"
         fill="#d7d7d7"
         d="m 46.351,298.189 a 1.585,1.585 0 0 1 1.551,1.1 l 0.165,-0.989 h 1.166 l -0.88,5.06 H 47.22 l 0.143,-0.847 a 2.274,2.274 0 0 1 -1.826,0.957 2.112,2.112 0 0 1 -2,-2.64 2.956,2.956 0 0 1 2.814,-2.641 z m -0.44,4.247 a 1.863,1.863 0 0 0 1.694,-1.606 c 0.11,-0.848 -0.308,-1.585 -1.078,-1.606 a 1.862,1.862 0 0 0 -1.782,1.606 c -0.132,0.858 0.307,1.606 1.166,1.606 z" />
      <path
         id="path922"
         fill="#d7d7d7"
         d="m 52.456,299.3 c -0.539,-0.012 -0.869,0.439 -1.013,0.957 l -0.539,3.1 h -1.166 l 0.88,-5.06 h 1.166 l -0.1,0.571 a 1.645,1.645 0 0 1 1.2,-0.682 1.22,1.22 0 0 1 0.88,0.4 l -0.7,0.99 A 0.909,0.909 0 0 0 52.456,299.3 Z" />
      <path
         id="path924"
         fill="#d7d7d7"
         d="m 54.711,298.3 0.3,-1.761 h 1.177 l -0.307,1.761 h 0.836 l -0.188,1.045 H 55.7 L 55,303.36 h -1.148 l 0.682,-4.015 H 53.72 l 0.187,-1.045 z" />
      <path
         id="path926"
         fill="#d7d7d7"
         d="m 187.613,149.174 a 2.087,2.087 0 0 1 2.333,2.4 2.738,2.738 0 0 1 -2.068,2.256 l 1.584,3.047 h -1.5 l -1.4,-2.916 h -0.77 l -0.5,2.916 h -1.276 l 1.3,-7.7 z m -1.188,1.133 -0.44,2.574 h 0.946 a 1.6,1.6 0 0 0 1.695,-1.287 1.065,1.065 0 0 0 -1.189,-1.287 z" />
      <path
         id="path928"
         fill="#d7d7d7"
         d="m 190.34,154.675 a 2.945,2.945 0 0 1 2.971,-2.971 2,2 0 0 1 2.179,2.223 2.483,2.483 0 0 1 -0.121,0.693 h -3.84 c -0.023,0.814 0.374,1.386 1.188,1.386 a 1.777,1.777 0 0 0 1.474,-0.8 l 0.99,0.407 a 2.906,2.906 0 0 1 -2.563,1.375 2.135,2.135 0 0 1 -2.278,-2.313 z m 1.331,-0.881 h 2.6 v -0.022 c 0,-0.726 -0.351,-1.166 -1.055,-1.166 a 1.628,1.628 0 0 0 -1.545,1.188 z" />
      <path
         id="path930"
         fill="#d7d7d7"
         d="m 198.041,156.061 a 0.637,0.637 0 0 0 0.705,-0.594 c 0.01,-0.44 -0.485,-0.671 -0.969,-0.858 -0.616,-0.242 -1.265,-0.606 -1.243,-1.463 a 1.591,1.591 0 0 1 1.782,-1.442 2.353,2.353 0 0 1 1.859,0.891 l -0.66,0.694 a 1.676,1.676 0 0 0 -1.21,-0.683 c -0.4,0 -0.66,0.2 -0.66,0.484 -0.022,0.4 0.418,0.561 0.924,0.77 0.748,0.32 1.364,0.661 1.343,1.541 a 1.715,1.715 0 0 1 -1.86,1.628 2.746,2.746 0 0 1 -2.212,-1.122 l 0.748,-0.682 a 1.944,1.944 0 0 0 1.453,0.836 z" />
      <path
         id="path932"
         fill="#d7d7d7"
         d="m 200.6,154.675 a 2.944,2.944 0 0 1 2.971,-2.971 2,2 0 0 1 2.179,2.223 2.445,2.445 0 0 1 -0.122,0.693 h -3.839 c -0.023,0.814 0.374,1.386 1.188,1.386 a 1.777,1.777 0 0 0 1.474,-0.8 l 0.99,0.407 a 2.908,2.908 0 0 1 -2.564,1.375 2.135,2.135 0 0 1 -2.277,-2.313 z m 1.331,-0.881 h 2.6 v -0.022 c 0,-0.726 -0.352,-1.166 -1.056,-1.166 a 1.628,1.628 0 0 0 -1.541,1.188 z" />
      <path
         id="path934"
         fill="#d7d7d7"
         d="m 207.27,151.814 0.3,-1.76 h 1.177 l -0.308,1.76 h 0.836 l -0.187,1.045 h -0.826 l -0.7,4.016 h -1.143 l 0.681,-4.016 h -0.813 l 0.186,-1.045 z" />
      <path
         id="path936"
         fill="#d7d7d7"
         d="m 180.552,295.659 a 2.087,2.087 0 0 1 2.333,2.4 2.738,2.738 0 0 1 -2.068,2.255 l 1.584,3.047 h -1.5 l -1.4,-2.916 h -0.769 l -0.5,2.916 h -1.277 l 1.3,-7.7 z m -1.187,1.133 -0.441,2.574 h 0.947 a 1.6,1.6 0 0 0 1.694,-1.287 1.064,1.064 0 0 0 -1.188,-1.287 z" />
      <path
         id="path938"
         fill="#d7d7d7"
         d="m 183.28,301.16 a 2.945,2.945 0 0 1 2.971,-2.971 2,2 0 0 1 2.178,2.223 2.433,2.433 0 0 1 -0.121,0.692 h -3.84 c -0.022,0.815 0.374,1.387 1.189,1.387 a 1.774,1.774 0 0 0 1.473,-0.8 l 0.991,0.407 a 2.909,2.909 0 0 1 -2.564,1.375 2.135,2.135 0 0 1 -2.277,-2.313 z m 1.331,-0.881 h 2.6 v -0.021 c 0,-0.727 -0.352,-1.166 -1.056,-1.166 a 1.627,1.627 0 0 0 -1.544,1.187 z" />
      <path
         id="path940"
         fill="#d7d7d7"
         d="m 191.443,302.436 a 2.33,2.33 0 0 0 1.77,-0.836 l -0.186,1.3 a 2.729,2.729 0 0 1 -1.717,0.572 2.246,2.246 0 0 1 -2.31,-2.642 3.064,3.064 0 0 1 3.046,-2.641 2.4,2.4 0 0 1 1.607,0.573 l -0.187,1.308 a 1.556,1.556 0 0 0 -1.453,-0.846 1.869,1.869 0 0 0 -1.8,1.606 1.286,1.286 0 0 0 1.23,1.606 z" />
      <path
         id="path942"
         fill="#d7d7d7"
         d="m 111.583,261.347 a 3.268,3.268 0 0 1 3.255,3.982 4.683,4.683 0 0 1 -4.532,4.016 3.3,3.3 0 0 1 -3.257,-4.016 4.682,4.682 0 0 1 4.534,-3.982 z m -1.145,6.711 a 3.177,3.177 0 0 0 3.036,-2.729 c 0.22,-1.408 -0.483,-2.718 -2.024,-2.728 a 3.175,3.175 0 0 0 -3.036,2.728 2.14,2.14 0 0 0 2.024,2.729 z" />
      <path
         id="path944"
         fill="#d7d7d7"
         d="m 117.5,268.321 a 1.284,1.284 0 0 0 1.3,-1.078 l 0.55,-3.124 h 1.178 l -0.869,5.061 h -1.189 l 0.121,-0.748 a 1.847,1.847 0 0 1 -1.562,0.857 c -1.144,0 -1.573,-0.891 -1.419,-1.958 l 0.55,-3.212 h 1.188 l -0.528,3.08 c -0.08,0.594 0.041,1.122 0.68,1.122 z" />
      <path
         id="path946"
         fill="#d7d7d7"
         d="m 122.1,264.119 0.3,-1.761 h 1.177 l -0.308,1.761 h 0.836 l -0.187,1.045 h -0.825 l -0.7,4.016 h -1.153 l 0.681,-4.016 h -0.813 l 0.187,-1.045 z" />
      <path
         id="path948"
         fill="#d7d7d7"
         d="m 155.571,277.682 h 5.237 l -0.209,1.2 h -1.97 l -1.111,6.5 h -1.3 l 1.122,-6.5 h -1.98 z" />
      <path
         id="path950"
         fill="#d7d7d7"
         d="m 162.106,281.323 c -0.539,-0.01 -0.869,0.441 -1.013,0.957 l -0.539,3.1 h -1.166 l 0.88,-5.061 h 1.167 l -0.1,0.573 a 1.643,1.643 0 0 1 1.2,-0.683 1.219,1.219 0 0 1 0.88,0.4 l -0.7,0.991 a 0.907,0.907 0 0 0 -0.609,-0.277 z" />
      <path
         id="path952"
         fill="#d7d7d7"
         d="m 165.5,280.322 -0.858,5.061 h -1.162 l 0.848,-5.061 z m -0.242,-2.728 a 0.716,0.716 0 1 1 -0.748,0.715 0.721,0.721 0 0 1 0.752,-0.715 z" />
      <path
         id="path954"
         fill="#d7d7d7"
         d="m 167,285.735 a 1.065,1.065 0 0 0 1.166,1.188 1.814,1.814 0 0 0 1.738,-1.65 l 0.121,-0.7 a 2.283,2.283 0 0 1 -1.772,0.858 2.081,2.081 0 0 1 -2,-2.6 2.942,2.942 0 0 1 2.816,-2.619 1.59,1.59 0 0 1 1.54,1.034 l 0.154,-0.924 h 1.144 l -0.836,4.951 a 2.933,2.933 0 0 1 -2.927,2.684 2.034,2.034 0 0 1 -2.288,-2.233 z m 1.628,-1.342 a 1.822,1.822 0 0 0 1.661,-1.375 l 0.055,-0.275 a 1.242,1.242 0 0 0 -1.1,-1.5 1.827,1.827 0 0 0 -1.782,1.585 1.213,1.213 0 0 0 1.167,1.565 z" />
      <path
         id="path956"
         fill="#d7d7d7"
         d="m 202.257,281.357 h 3.587 c -0.33,2.19 -1.848,4.192 -4.312,4.192 a 3.3,3.3 0 0 1 -3.3,-4.016 4.663,4.663 0 0 1 4.588,-3.982 3.171,3.171 0 0 1 2.971,1.717 l -1.134,0.7 a 2.038,2.038 0 0 0 -1.958,-1.211 3.252,3.252 0 0 0 -3.113,2.772 c -0.221,1.475 0.539,2.795 2.079,2.795 a 2.861,2.861 0 0 0 2.64,-1.87 h -2.245 z" />
      <path
         id="path958"
         fill="#d7d7d7"
         d="m 209.21,280.213 a 1.584,1.584 0 0 1 1.55,1.1 l 0.165,-0.99 h 1.166 l -0.879,5.061 h -1.133 l 0.142,-0.847 a 2.272,2.272 0 0 1 -1.826,0.957 2.113,2.113 0 0 1 -2,-2.64 2.954,2.954 0 0 1 2.815,-2.641 z m -0.441,4.247 a 1.862,1.862 0 0 0 1.694,-1.606 c 0.111,-0.847 -0.307,-1.584 -1.078,-1.607 a 1.865,1.865 0 0 0 -1.782,1.607 c -0.132,0.858 0.308,1.606 1.166,1.606 z" />
      <path
         id="path960"
         fill="#d7d7d7"
         d="m 213.61,280.323 0.3,-1.76 h 1.177 l -0.308,1.76 h 0.836 l -0.188,1.045 H 214.6 l -0.7,4.016 h -1.143 l 0.681,-4.016 h -0.813 l 0.186,-1.045 z" />
      <path
         id="path962"
         fill="#d7d7d7"
         d="m 215.567,283.184 a 2.945,2.945 0 0 1 2.971,-2.971 2,2 0 0 1 2.178,2.223 2.447,2.447 0 0 1 -0.121,0.693 h -3.84 c -0.022,0.813 0.374,1.386 1.189,1.386 a 1.777,1.777 0 0 0 1.474,-0.8 l 0.99,0.407 a 2.909,2.909 0 0 1 -2.564,1.375 2.135,2.135 0 0 1 -2.277,-2.313 z m 1.331,-0.88 h 2.6 v -0.023 c 0,-0.725 -0.352,-1.166 -1.056,-1.166 A 1.629,1.629 0 0 0 216.9,282.3 Z" />
      <path
         id="path964"
         fill="#d7d7d7"
         d="m 15.731,277.683 h 5.237 l -0.209,1.2 H 18.79 l -1.112,6.5 h -1.3 l 1.123,-6.5 h -1.979 z" />
      <path
         id="path966"
         fill="#d7d7d7"
         d="m 22.266,281.324 c -0.539,-0.011 -0.869,0.44 -1.012,0.957 l -0.54,3.1 h -1.166 l 0.88,-5.061 H 21.6 l -0.1,0.572 a 1.642,1.642 0 0 1 1.2,-0.682 1.22,1.22 0 0 1 0.88,0.395 l -0.7,0.991 a 0.91,0.91 0 0 0 -0.614,-0.272 z" />
      <path
         id="path968"
         fill="#d7d7d7"
         d="m 25.665,280.323 -0.859,5.061 H 23.64 l 0.848,-5.061 z m -0.243,-2.728 a 0.715,0.715 0 1 1 -0.748,0.715 0.722,0.722 0 0 1 0.748,-0.71 z" />
      <path
         id="path970"
         fill="#d7d7d7"
         d="m 27.161,285.735 a 1.065,1.065 0 0 0 1.166,1.189 1.815,1.815 0 0 0 1.738,-1.651 l 0.121,-0.7 a 2.28,2.28 0 0 1 -1.771,0.859 2.081,2.081 0 0 1 -2,-2.6 2.941,2.941 0 0 1 2.816,-2.618 1.587,1.587 0 0 1 1.54,1.034 l 0.154,-0.924 h 1.144 l -0.836,4.95 a 2.934,2.934 0 0 1 -2.927,2.685 2.034,2.034 0 0 1 -2.288,-2.233 z m 1.628,-1.341 a 1.822,1.822 0 0 0 1.661,-1.375 l 0.055,-0.276 a 1.241,1.241 0 0 0 -1.1,-1.5 1.826,1.826 0 0 0 -1.782,1.584 1.214,1.214 0 0 0 1.166,1.567 z" />
      <path
         id="path972"
         fill="#d7d7d7"
         d="m 62.59,281.357 h 3.587 c -0.33,2.189 -1.848,4.192 -4.312,4.192 a 3.3,3.3 0 0 1 -3.3,-4.016 4.662,4.662 0 0 1 4.588,-3.982 3.171,3.171 0 0 1 2.971,1.716 l -1.134,0.7 a 2.038,2.038 0 0 0 -1.958,-1.211 3.252,3.252 0 0 0 -3.113,2.773 c -0.221,1.474 0.539,2.794 2.079,2.794 a 2.859,2.859 0 0 0 2.64,-1.87 h -2.245 z" />
      <path
         id="path974"
         fill="#d7d7d7"
         d="m 69.543,280.213 a 1.583,1.583 0 0 1 1.55,1.1 l 0.165,-0.991 h 1.166 l -0.879,5.061 h -1.133 l 0.142,-0.847 a 2.272,2.272 0 0 1 -1.826,0.957 2.112,2.112 0 0 1 -2,-2.639 2.953,2.953 0 0 1 2.815,-2.641 z m -0.441,4.246 a 1.862,1.862 0 0 0 1.694,-1.605 c 0.111,-0.848 -0.307,-1.585 -1.078,-1.608 a 1.866,1.866 0 0 0 -1.782,1.608 1.249,1.249 0 0 0 1.164,1.605 z" />
      <path
         id="path976"
         fill="#d7d7d7"
         d="m 73.943,280.322 0.3,-1.759 h 1.177 l -0.308,1.759 h 0.836 l -0.188,1.045 h -0.825 l -0.7,4.016 h -1.15 l 0.681,-4.016 h -0.813 l 0.186,-1.045 z" />
      <path
         id="path978"
         fill="#d7d7d7"
         d="m 75.9,283.184 a 2.944,2.944 0 0 1 2.971,-2.971 2,2 0 0 1 2.178,2.223 2.44,2.44 0 0 1 -0.121,0.692 h -3.84 c -0.022,0.813 0.375,1.386 1.189,1.386 a 1.777,1.777 0 0 0 1.474,-0.8 l 0.99,0.407 a 2.908,2.908 0 0 1 -2.564,1.375 2.134,2.134 0 0 1 -2.277,-2.312 z m 1.331,-0.881 h 2.6 v -0.022 c 0,-0.726 -0.352,-1.166 -1.056,-1.166 a 1.628,1.628 0 0 0 -1.544,1.185 z" />
      <path
         id="path980"
         fill="#d7d7d7"
         d="m 113.979,119.746 -1.342,7.7 h -1.276 l 1.3,-7.7 z" />
      <path
         id="path982"
         fill="#d7d7d7"
         d="m 117.191,123.244 a 1.284,1.284 0 0 0 -1.287,1.089 l -0.539,3.114 h -1.189 l 0.88,-5.061 h 1.178 l -0.121,0.748 a 1.833,1.833 0 0 1 1.562,-0.858 c 1.155,0 1.584,0.88 1.43,1.958 l -0.55,3.213 h -1.21 l 0.55,-3.081 c 0.077,-0.594 -0.044,-1.122 -0.704,-1.122 z" />
    </g>
    <g
       transform="scale(0.35277779)"
       data-name="Logo"
       id="bbe9ae00-0ff3-4c38-b44c-2b4a2dd88646">
      <polygon
         id="polygon985"
         fill="#d7d7d7"
         points="111.669,350.441 114.023,350.441 114.023,348.086 116.377,348.086 116.377,345.732 114.023,345.732 111.669,345.732 109.315,345.732 109.315,348.086 109.315,350.441 109.315,352.795 109.315,355.149 111.669,355.149 111.669,352.795 " />
      <polygon
         id="polygon987"
         fill="#d7d7d7"
         points="118.731,345.732 118.731,348.087 118.731,350.441 116.377,350.441 116.377,352.795 114.023,352.795 114.023,355.149 116.377,355.149 118.731,355.149 121.085,355.149 121.085,352.795 121.085,350.441 121.085,348.087 121.085,345.732 " />
      <polygon
         id="polygon989"
         fill="#d7d7d7"
         points="105.783,358.654 106.961,358.654 124.617,358.654 124.617,357.476 124.617,342.156 123.439,342.156 106.961,342.156 106.961,343.424 123.439,343.424 123.439,357.476 106.961,357.476 106.961,342.156 105.783,342.156 " />
    </g>
    <g
       transform="scale(0.35277779)"
       data-name="Legend"
       id="7e686ad8-2550-4387-be3e-1ec5a9439fa5">
      <circle
         id="circle992"
         stroke-miterlimit="10"
         stroke="#b2ff78"
         fill="none"
         r="13.636"
         cy="102.759"
         cx="115.2" />
      <circle
         id="circle994"
         stroke-miterlimit="10"
         stroke="#b2ff78"
         fill="none"
         r="13.636"
         cy="66.379997"
         cx="170.87199" />
      <circle
         id="circle996"
         stroke-miterlimit="10"
         stroke="#b2ff78"
         fill="none"
         r="13.636"
         cy="66.379997"
         cx="59.528" />
      <circle
         id="circle998"
         stroke-miterlimit="10"
         stroke="#b2ff78"
         fill="none"
         r="13.636"
         cy="212.53101"
         cx="33.745998" />
      <circle
         id="circle1000"
         stroke-miterlimit="10"
         stroke="#b2ff78"
         fill="none"
         r="13.636"
         cy="212.53101"
         cx="196.384" />
      <circle
         id="circle1002"
         stroke-miterlimit="10"
         stroke="#b2ff78"
         fill="none"
         r="13.636"
         cy="320.953"
         cx="185.04601" />
      <circle
         id="circle1004"
         stroke-miterlimit="10"
         stroke="#b2ff78"
         fill="none"
         r="13.636"
         cy="320.953"
         cx="45.354" />
      <line
         id="line1006"
         stroke-miterlimit="10"
         stroke="#b2ff78"
         fill="none"
         y2="192.657"
         x2="34.015999"
         y1="198.895"
         x1="34.015999" />
      <polygon
         id="polygon1008"
         fill="#b2ff78"
         points="32.32,194.649 32.32,193.21 34.016,191.514 35.711,193.21 35.711,194.649 34.016,192.953 " />
      <line
         id="line1010"
         stroke-miterlimit="10"
         stroke="#b2ff78"
         fill="none"
         y2="192.657"
         x2="196.384"
         y1="198.895"
         x1="196.384" />
      <polygon
         id="polygon1012"
         fill="#b2ff78"
         points="194.689,194.649 194.689,193.21 196.384,191.514 198.08,193.21 198.08,194.649 196.384,192.953 " />
    </g>
  </g>
  <g
     inkscape:groupmode="layer"
     id="layer1"
     inkscape:label="components"
     style="display:inline">
    <circle
       style="stroke:none;stroke-width:0.352778;stroke-opacity:1;fill:#00ff00;"
       cx="69.279915"
       cy="74.976219"
       r="2.4299333"
       id="circle1080"
       inkscape:label="RESET" />
    <circle
       style="stroke:none;stroke-width:0.352778;stroke-opacity:1;fill:#00ff00;"
       cx="65.280121"
       cy="113.22509"
       r="2.4299333"
       id="circle1082"
       inkscape:label="REC" />
    <circle
       style="stroke:none;stroke-width:0.352778;stroke-opacity:1;fill:#00ff00;"
       cx="15.999884"
       cy="113.22509"
       r="2.4299333"
       id="circle1084"
       inkscape:label="START" />
    <circle
       style="stroke:none;stroke-width:0.352778;stroke-opacity:1;fill:#00ff00;"
       cx="21.000156"
       cy="23.417389"
       r="2.4299333"
       id="circle1086"
       inkscape:label="NSTEPS" />
    <circle
       style="stroke:none;stroke-width:0.352778;stroke-opacity:1;fill:#00ff00;"
       cx="40.639999"
       cy="36.251095"
       r="2.4299333"
       id="circle1092"
       inkscape:label="IN" />
    <circle
       style="stroke-width:0.352778;fill:#0000ff;"
       cx="40.639999"
       cy="100.38644"
       r="2.4299333"
       id="circle1094"
       inkscape:label="OUT" />
    <circle
       style="stroke:none;stroke-width:0.352778;stroke-opacity:1;fill:#00ff00;"
       cx="11.904839"
       cy="74.976219"
       r="2.4299333"
       id="circle1096"
       inkscape:label="STEPADV" />
    <circle
       style="stroke-width:0.352778;fill:#ff0000;"
       cx="60.279842"
       cy="37.562016"
       r="2.4299333"
       id="circle1098"
       inkscape:label="CLOCK" />
    <circle
       style="stroke-width:0.352778;fill:#ff0000;"
       cx="65.280121"
       cy="90.009491"
       r="2.4299333"
       id="circle1100"
       inkscape:label="REC" />
    <circle
       style="stroke-width:0.352778;fill:#ff0000;"
       cx="40.724316"
       cy="68.342583"
       r="2.4299333"
       id="circle1102"
       inkscape:label="CV" />
    <circle
       style="stroke-width:0.352778;fill:#ff0000;"
       cx="69.279915"
       cy="62.05608"
       r="2.4299333"
       id="circle1104"
       inkscape:label="RESET" />
    <circle
       style="stroke-width:0.352778;fill:#ff0000;"
       cx="12.000089"
       cy="62.05608"
       r="2.4299333"
       id="circle1106"
       inkscape:label="STEPADV" />
    <circle
       style="stroke-width:0.352778;fill:#ff0000;"
       cx="21.000156"
       cy="37.562016"
       r="2.4299333"
       id="circle1108"
       inkscape:label="NSTEPS" />
    <circle
       style="stroke-width:0.352778;fill:#ff0000;"
       cx="15.999884"
       cy="90.009491"
       r="2.4299333"
       id="circle1110"
       inkscape:label="START" />
    <circle
       style="stroke-width:0.352778;fill:#ff0000;"
       cx="65.280121"
       cy="99.716171"
       r="2.4299333"
       id="circle1112"
       inkscape:label="RECTOGGLE" />
    <circle
       style="stroke-width:0.352778;fill:#ff0000;"
       cx="15.999884"
       cy="99.716171"
       r="2.4299333"
       id="circle1114"
       inkscape:label="STARTTOGGLE" />
    <circle
       style="stroke-width:0.352778;fill:#ff00ff;"
       id="circle1015"
       r="1.0001251"
       cy="74.84816"
       cx="56.430336"
       inkscape:label="LED22" />
    <circle
       style="stroke-width:0.352778;fill:#ff00ff;"
       id="circle1017"
       r="1.0001251"
       cy="80.363487"
       cx="52.74522"
       inkscape:label="LED23" />
    <circle
       style="stroke-width:0.352778;fill:#ff00ff;"
       id="circle1019"
       r="1.0001251"
       cy="84.04895"
       cx="47.229893"
       inkscape:label="LED24" />
    <circle
       style="stroke-width:0.352778;fill:#ff00ff;"
       id="circle1021"
       r="1.0001251"
       cy="85.342949"
       cx="40.723965"
       inkscape:label="LED25" />
    <circle
       style="stroke-width:0.352778;fill:#ff00ff;"
       id="circle1023"
       r="1.0001251"
       cy="84.04895"
       cx="34.218037"
       inkscape:label="LED26" />
    <circle
       style="stroke-width:0.352778;fill:#ff00ff;"
       id="circle1025"
       r="1.0001251"
       cy="80.363487"
       cx="28.702705"
       inkscape:label="LED27" />
    <circle
       style="stroke-width:0.352778;fill:#ff00ff;"
       id="circle1027"
       r="1.0001251"
       cy="74.84816"
       cx="25.01759"
       inkscape:label="LED28" />
    <circle
       style="stroke-width:0.352778;fill:#ff00ff;"
       id="circle1029"
       r="1.0001251"
       cy="68.342583"
       cx="23.7236"
       inkscape:label="LED29" />
    <circle
       style="stroke-width:0.352778;fill:#ff00ff;"
       id="circle1031"
       r="1.0001251"
       cy="61.836655"
       cx="25.01759"
       inkscape:label="LED30" />
    <circle
       style="stroke-width:0.352778;fill:#ff00ff;"
       id="circle1033"
       r="1.0001251"
       cy="56.321327"
       cx="28.702705"
       inkscape:label="LED31" />
    <circle
       style="stroke-width:0.352778;fill:#ff00ff;"
       id="circle1035"
       r="1.0001251"
       cy="52.636211"
       cx="34.218037"
       inkscape:label="LED32" />
    <circle
       style="stroke-width:0.352778;fill:#ff00ff;"
       id="circle1037"
       r="1.0001251"
       cy="51.34222"
       cx="40.723965"
       inkscape:label="LED17" />
    <circle
       style="stroke-width:0.352778;fill:#ff00ff;"
       id="circle1039"
       r="1.0001251"
       cy="52.636211"
       cx="47.229893"
       inkscape:label="LED18" />
    <circle
       style="stroke-width:0.352778;fill:#ff00ff;"
       id="circle1041"
       r="1.0001251"
       cy="56.321327"
       cx="52.74522"
       inkscape:label="LED19" />
    <circle
       style="stroke-width:0.352778;fill:#ff00ff;"
       id="circle1043"
       r="1.0001251"
       cy="61.836655"
       cx="56.430336"
       inkscape:label="LED20" />
    <circle
       style="stroke-width:0.352778;fill:#ff00ff;"
       id="circle1045"
       r="1.0001251"
       cy="68.342583"
       cx="57.724327"
       inkscape:label="LED21" />
    <circle
       style="stroke-width:0.352778;fill:#ff00ff;"
       id="circle1047"
       r="1.0001251"
       cy="73.317451"
       cx="52.734989"
       inkscape:label="LED6" />
    <circle
       style="stroke-width:0.352778;fill:#ff00ff;"
       id="circle1049"
       r="1.0001251"
       cy="77.535271"
       cx="49.916645"
       inkscape:label="LED7" />
    <circle
       style="stroke-width:0.352778;fill:#ff00ff;"
       id="circle1051"
       r="1.0001251"
       cy="80.353256"
       cx="45.699188"
       inkscape:label="LED8" />
    <circle
       style="stroke-width:0.352778;fill:#ff00ff;"
       id="circle1053"
       r="1.0001251"
       cy="81.343147"
       cx="40.723965"
       inkscape:label="LED9" />
    <circle
       style="stroke-width:0.352778;fill:#ff00ff;"
       id="circle1055"
       r="1.0001251"
       cy="80.353256"
       cx="35.748737"
       inkscape:label="LED10" />
    <circle
       style="stroke-width:0.352778;fill:#ff00ff;"
       id="circle1057"
       r="1.0001251"
       cy="77.535271"
       cx="31.531277"
       inkscape:label="LED11" />
    <circle
       style="stroke-width:0.352778;fill:#ff00ff;"
       id="circle1059"
       r="1.0001251"
       cy="73.317451"
       cx="28.712936"
       inkscape:label="LED12" />
    <circle
       style="stroke-width:0.352778;fill:#ff00ff;"
       id="circle1061"
       r="1.0001251"
       cy="68.342583"
       cx="27.723394"
       inkscape:label="LED13" />
    <circle
       style="stroke-width:0.352778;fill:#ff00ff;"
       id="circle1063"
       r="1.0001251"
       cy="63.367355"
       cx="28.712936"
       inkscape:label="LED14" />
    <circle
       style="stroke-width:0.352778;fill:#ff00ff;"
       id="circle1065"
       r="1.0001251"
       cy="59.149902"
       cx="31.531277"
       inkscape:label="LED15" />
    <circle
       style="stroke-width:0.352778;fill:#ff00ff;"
       id="circle1067"
       r="1.0001251"
       cy="56.331554"
       cx="35.748737"
       inkscape:label="LED16" />
    <circle
       style="stroke-width:0.352778;fill:#ff00ff;"
       id="circle1069"
       r="1.0001251"
       cy="55.342014"
       cx="40.723965"
       inkscape:label="LED1" />
    <circle
       style="stroke-width:0.352778;fill:#ff00ff;"
       id="circle1071"
       r="1.0001251"
       cy="56.331554"
       cx="45.699188"
       inkscape:label="LED2" />
    <circle
       style="stroke-width:0.352778;fill:#ff00ff;"
       id="circle1073"
       r="1.0001251"
       cy="59.149902"
       cx="49.916645"
       inkscape:label="LED3" />
    <circle
       style="stroke-width:0.352778;fill:#ff00ff;"
       id="circle1075"
       r="1.0001251"
       cy="63.367355"
       cx="52.734989"
       inkscape:label="LED4" />
    <circle
       style="stroke-width:0.352778;fill:#ff00ff;"
       id="circle1077"
       r="1.0001251"
       cy="68.342583"
       cx="53.724525"
       inkscape:label="LED5" />
    <circle
       style="stroke:none;stroke-width:0.352778;stroke-opacity:1;fill:#00ff00;"
       cx="60.279842"
       cy="23.417389"
       r="2.4299333"
       id="circle1088"
       inkscape:label="CLOCK" />
  </g>
</svg>
