<?xml version="1.0" encoding="UTF-8" standalone="no"?>
<svg
   xmlns:dc="http://purl.org/dc/elements/1.1/"
   xmlns:cc="http://creativecommons.org/ns#"
   xmlns:rdf="http://www.w3.org/1999/02/22-rdf-syntax-ns#"
   xmlns:svg="http://www.w3.org/2000/svg"
   xmlns="http://www.w3.org/2000/svg"
   xmlns:sodipodi="http://sodipodi.sourceforge.net/DTD/sodipodi-0.dtd"
   xmlns:inkscape="http://www.inkscape.org/namespaces/inkscape"
   inkscape:version="1.0 (4035a4f, 2020-05-01)"
   sodipodi:docname="Fax.svg"
   id="svg1002"
   version="1.1"
   viewBox="0 0 81.279995 128.5"
   height="128.5mm"
   width="81.279999mm">
  <metadata
     id="metadata1008">
    <rdf:RDF>
      <cc:Work
         rdf:about="">
        <dc:format>image/svg+xml</dc:format>
        <dc:type
           rdf:resource="http://purl.org/dc/dcmitype/StillImage" />
        <dc:title>Fax</dc:title>
      </cc:Work>
    </rdf:RDF>
  </metadata>
  <defs
     id="defs1006" />
  <sodipodi:namedview
     inkscape:current-layer="svg1002"
     inkscape:window-maximized="0"
     inkscape:window-y="22"
     inkscape:window-x="0"
     inkscape:cy="731.7411"
     inkscape:cx="433.96576"
     inkscape:zoom="0.49038335"
     inkscape:document-units="mm"
     showgrid="false"
     id="namedview1004"
     inkscape:window-height="913"
     inkscape:window-width="1587"
     inkscape:pageshadow="2"
     inkscape:pageopacity="0"
     guidetolerance="10"
     gridtolerance="10"
     objecttolerance="10"
     borderopacity="1"
     bordercolor="#666666"
     pagecolor="#ffffff" />
  <title
     id="title833">Fax</title>
  <g
     transform="scale(0.35277777)"
     data-name="Fax"
     id="7f790c9c-244c-423c-81a5-7fbe227c33ed">
    <rect
       y="0"
       x="0"
       fill="#333333"
       height="364.25201"
       width="230.39999"
       data-name="BG"
       id="e6ede9a5-2dae-492e-b87f-8bab2917fc74" />
    <rect
       y="0"
       fill="#b2ff78"
       height="31.181"
       width="230.162"
       x="0.23800001"
       data-name="Header"
       id="babdf18d-6c57-402a-b385-e0b0a82f8a77" />
    <g
       data-name="Title"
       id="c55ffa62-3a94-4577-b2d5-80fcec21ef40">
      <path
         id="path837"
         fill="#333333"
         d="m 78.681,7.9 a 3.169,3.169 0 0 0 -0.716,2.333 3.166,3.166 0 0 0 0.716,2.333 3.162,3.162 0 0 0 2.333,0.716 2.377,2.377 0 0 1 1.755,0.539 2.378,2.378 0 0 1 0.539,1.755 2.381,2.381 0 0 1 -0.539,1.756 2.377,2.377 0 0 1 -1.755,0.539 3.166,3.166 0 0 0 -2.333,0.715 3.166,3.166 0 0 0 -0.716,2.333 2.381,2.381 0 0 1 -0.539,1.756 3.127,3.127 0 0 1 -3.51,0 2.381,2.381 0 0 1 -0.539,-1.756 2.378,2.378 0 0 1 0.539,-1.755 2.378,2.378 0 0 1 1.755,-0.539 A 3.162,3.162 0 0 0 78,17.91 3.162,3.162 0 0 0 78.715,15.577 3.159,3.159 0 0 0 78,13.245 3.162,3.162 0 0 0 75.667,12.529 2.378,2.378 0 0 1 73.912,11.99 2.381,2.381 0 0 1 73.373,10.234 2.378,2.378 0 0 1 73.912,8.479 2.378,2.378 0 0 1 75.667,7.94 3.162,3.162 0 0 0 78,7.224 a 3.161,3.161 0 0 0 0.715,-2.332 2.383,2.383 0 0 1 0.539,-1.756 3.128,3.128 0 0 1 3.511,0 2.379,2.379 0 0 1 0.539,1.756 A 2.378,2.378 0 0 1 82.765,6.647 2.377,2.377 0 0 1 81.01,7.186 3.166,3.166 0 0 0 78.681,7.9 Z m -4.765,9.432 a 2.381,2.381 0 0 1 -0.539,-1.756 2.378,2.378 0 0 1 0.539,-1.755 3.127,3.127 0 0 1 3.51,0 2.378,2.378 0 0 1 0.539,1.755 2.381,2.381 0 0 1 -0.539,1.756 3.127,3.127 0 0 1 -3.51,0 z m 3.51,7.175 a 2.377,2.377 0 0 1 0.539,1.755 2.381,2.381 0 0 1 -0.539,1.756 3.127,3.127 0 0 1 -3.51,0 2.381,2.381 0 0 1 -0.539,-1.756 2.377,2.377 0 0 1 0.539,-1.755 3.127,3.127 0 0 1 3.51,0 z M 88.113,3.136 a 2.383,2.383 0 0 1 0.538,1.756 2.382,2.382 0 0 1 -0.538,1.755 3.13,3.13 0 0 1 -3.512,0 2.382,2.382 0 0 1 -0.538,-1.755 2.383,2.383 0 0 1 0.537,-1.756 3.13,3.13 0 0 1 3.512,0 z m 0,10.686 a 2.382,2.382 0 0 1 0.538,1.755 2.385,2.385 0 0 1 -0.538,1.756 3.13,3.13 0 0 1 -3.512,0 2.385,2.385 0 0 1 -0.538,-1.756 2.382,2.382 0 0 1 0.538,-1.755 3.13,3.13 0 0 1 3.512,0 z m 11.225,-3.588 a 2.377,2.377 0 0 1 -0.54,1.756 3.127,3.127 0 0 1 -3.51,0 A 2.381,2.381 0 0 1 94.749,10.234 3.168,3.168 0 0 0 94.033,7.9 3.166,3.166 0 0 0 91.7,7.186 2.377,2.377 0 0 1 89.945,6.647 2.378,2.378 0 0 1 89.406,4.892 a 2.379,2.379 0 0 1 0.539,-1.756 3.128,3.128 0 0 1 3.511,0 2.379,2.379 0 0 1 0.544,1.756 3.157,3.157 0 0 0 0.716,2.332 3.158,3.158 0 0 0 2.332,0.716 2.378,2.378 0 0 1 1.755,0.539 2.374,2.374 0 0 1 0.535,1.755 z" />
      <path
         id="path839"
         fill="#333333"
         d="m 126.656,24.508 a 2.377,2.377 0 0 1 0.539,1.755 2.381,2.381 0 0 1 -0.539,1.756 3.128,3.128 0 0 1 -3.511,0 2.381,2.381 0 0 1 -0.539,-1.756 3.164,3.164 0 0 0 -0.716,-2.332 3.162,3.162 0 0 0 -2.333,-0.716 2.382,2.382 0 0 1 -1.755,-0.539 2.381,2.381 0 0 1 -0.539,-1.756 2.378,2.378 0 0 1 0.539,-1.755 2.378,2.378 0 0 1 1.755,-0.539 3.162,3.162 0 0 0 2.333,-0.716 3.166,3.166 0 0 0 0.716,-2.333 3.164,3.164 0 0 0 -0.716,-2.332 3.162,3.162 0 0 0 -2.333,-0.716 2.382,2.382 0 0 1 -1.755,-0.539 2.381,2.381 0 0 1 -0.539,-1.756 3.165,3.165 0 0 0 -0.716,-2.333 4.164,4.164 0 0 0 -4.666,0 3.166,3.166 0 0 0 -0.715,2.333 v 0 a 2.381,2.381 0 0 1 -0.539,1.756 2.384,2.384 0 0 1 -1.755,0.539 3.162,3.162 0 0 0 -2.333,0.716 3.159,3.159 0 0 0 -0.716,2.332 3.162,3.162 0 0 0 0.716,2.333 3.162,3.162 0 0 0 2.333,0.716 2.38,2.38 0 0 1 1.755,0.539 2.378,2.378 0 0 1 0.539,1.755 2.381,2.381 0 0 1 -0.539,1.756 2.384,2.384 0 0 1 -1.755,0.539 3.162,3.162 0 0 0 -2.333,0.716 3.159,3.159 0 0 0 -0.716,2.332 2.381,2.381 0 0 1 -0.539,1.756 3.128,3.128 0 0 1 -3.511,0 2.381,2.381 0 0 1 -0.539,-1.756 2.377,2.377 0 0 1 0.539,-1.755 2.379,2.379 0 0 1 1.756,-0.539 3.159,3.159 0 0 0 2.332,-0.716 3.162,3.162 0 0 0 0.716,-2.333 3.162,3.162 0 0 0 -0.716,-2.333 3.163,3.163 0 0 0 -2.332,-0.715 2.379,2.379 0 0 1 -1.756,-0.539 2.381,2.381 0 0 1 -0.539,-1.756 2.378,2.378 0 0 1 0.539,-1.755 2.379,2.379 0 0 1 1.756,-0.539 3.159,3.159 0 0 0 2.332,-0.716 3.162,3.162 0 0 0 0.716,-2.333 2.382,2.382 0 0 1 0.539,-1.755 2.379,2.379 0 0 1 1.756,-0.539 3.158,3.158 0 0 0 2.332,-0.716 3.161,3.161 0 0 0 0.717,-2.332 2.379,2.379 0 0 1 0.538,-1.756 3.128,3.128 0 0 1 3.511,0 2.383,2.383 0 0 1 0.538,1.756 3.161,3.161 0 0 0 0.717,2.332 3.159,3.159 0 0 0 2.332,0.716 2.379,2.379 0 0 1 1.756,0.539 2.378,2.378 0 0 1 0.539,1.755 3.162,3.162 0 0 0 0.716,2.333 3.159,3.159 0 0 0 2.332,0.716 2.379,2.379 0 0 1 1.756,0.539 2.378,2.378 0 0 1 0.539,1.755 2.381,2.381 0 0 1 -0.539,1.756 2.379,2.379 0 0 1 -1.756,0.539 3.163,3.163 0 0 0 -2.332,0.715 3.162,3.162 0 0 0 -0.716,2.333 3.162,3.162 0 0 0 0.716,2.333 3.159,3.159 0 0 0 2.332,0.716 2.379,2.379 0 0 1 1.756,0.539 z m -24.883,-1.832 a 2.381,2.381 0 0 1 -0.539,-1.756 2.378,2.378 0 0 1 0.539,-1.755 3.128,3.128 0 0 1 3.511,0 2.378,2.378 0 0 1 0.539,1.755 2.381,2.381 0 0 1 -0.539,1.756 3.128,3.128 0 0 1 -3.511,0 z m 14.2,-3.511 a 2.382,2.382 0 0 1 0.538,1.755 2.385,2.385 0 0 1 -0.538,1.756 3.128,3.128 0 0 1 -3.511,0 2.381,2.381 0 0 1 -0.538,-1.756 2.378,2.378 0 0 1 0.538,-1.755 3.128,3.128 0 0 1 3.511,0 z m 10.686,0 a 2.378,2.378 0 0 1 0.539,1.755 2.381,2.381 0 0 1 -0.539,1.756 3.128,3.128 0 0 1 -3.511,0 2.381,2.381 0 0 1 -0.539,-1.756 2.378,2.378 0 0 1 0.539,-1.755 3.128,3.128 0 0 1 3.511,0 z" />
      <path
         id="path841"
         fill="#333333"
         d="m 156.368,24.508 a 2.377,2.377 0 0 1 0.539,1.755 2.381,2.381 0 0 1 -0.539,1.756 3.128,3.128 0 0 1 -3.511,0 2.381,2.381 0 0 1 -0.539,-1.756 3.164,3.164 0 0 0 -0.716,-2.332 3.162,3.162 0 0 0 -2.333,-0.716 2.382,2.382 0 0 1 -1.755,-0.539 2.381,2.381 0 0 1 -0.539,-1.756 3.162,3.162 0 0 0 -0.716,-2.333 3.166,3.166 0 0 0 -2.333,-0.715 2.38,2.38 0 0 1 -1.755,-0.539 2.381,2.381 0 0 1 -0.539,-1.756 3.163,3.163 0 0 0 -0.715,-2.332 3.163,3.163 0 0 0 -2.333,-0.716 2.383,2.383 0 0 1 -1.756,-0.539 2.385,2.385 0 0 1 -0.539,-1.756 3.163,3.163 0 0 0 -0.716,-2.333 3.163,3.163 0 0 0 -2.332,-0.715 2.379,2.379 0 0 1 -1.756,-0.539 2.378,2.378 0 0 1 -0.539,-1.755 2.379,2.379 0 0 1 0.539,-1.756 3.128,3.128 0 0 1 3.511,0 2.379,2.379 0 0 1 0.539,1.756 3.161,3.161 0 0 0 0.716,2.332 3.16,3.16 0 0 0 2.333,0.716 2.375,2.375 0 0 1 1.754,0.539 2.374,2.374 0 0 1 0.54,1.755 3.166,3.166 0 0 0 0.715,2.333 3.163,3.163 0 0 0 2.333,0.716 2.379,2.379 0 0 1 1.756,0.539 2.382,2.382 0 0 1 0.538,1.755 3.162,3.162 0 0 0 0.717,2.333 3.159,3.159 0 0 0 2.332,0.716 2.379,2.379 0 0 1 1.756,0.539 2.378,2.378 0 0 1 0.539,1.755 3.162,3.162 0 0 0 0.716,2.333 3.159,3.159 0 0 0 2.332,0.716 2.381,2.381 0 0 1 1.756,0.539 z m -16.03,-10.686 a 2.374,2.374 0 0 1 0.54,1.755 2.377,2.377 0 0 1 -0.54,1.756 2.375,2.375 0 0 1 -1.754,0.539 3.165,3.165 0 0 0 -2.333,0.715 3.162,3.162 0 0 0 -0.716,2.333 2.381,2.381 0 0 1 -0.535,1.756 3.128,3.128 0 0 1 -3.511,0 2.381,2.381 0 0 1 -0.539,-1.756 2.378,2.378 0 0 1 0.539,-1.755 2.379,2.379 0 0 1 1.756,-0.539 3.159,3.159 0 0 0 2.332,-0.716 3.162,3.162 0 0 0 0.716,-2.333 2.382,2.382 0 0 1 0.539,-1.755 3.127,3.127 0 0 1 3.51,0 z M 135,24.508 a 2.377,2.377 0 0 1 0.539,1.755 2.381,2.381 0 0 1 -0.539,1.756 3.128,3.128 0 0 1 -3.511,0 2.381,2.381 0 0 1 -0.539,-1.756 2.377,2.377 0 0 1 0.539,-1.755 3.128,3.128 0 0 1 3.511,0 z M 156.368,8.479 a 2.378,2.378 0 0 1 0.539,1.755 2.381,2.381 0 0 1 -0.539,1.756 2.385,2.385 0 0 1 -1.756,0.539 3.159,3.159 0 0 0 -2.332,0.716 3.159,3.159 0 0 0 -0.716,2.332 2.381,2.381 0 0 1 -0.539,1.756 3.128,3.128 0 0 1 -3.511,0 2.381,2.381 0 0 1 -0.539,-1.756 2.378,2.378 0 0 1 0.539,-1.755 2.378,2.378 0 0 1 1.755,-0.539 3.162,3.162 0 0 0 2.333,-0.716 3.166,3.166 0 0 0 0.716,-2.333 2.378,2.378 0 0 1 0.539,-1.755 3.128,3.128 0 0 1 3.511,0 z m -3.511,-1.832 a 2.378,2.378 0 0 1 -0.539,-1.755 2.379,2.379 0 0 1 0.539,-1.756 3.128,3.128 0 0 1 3.511,0 2.379,2.379 0 0 1 0.539,1.756 2.378,2.378 0 0 1 -0.539,1.755 3.128,3.128 0 0 1 -3.511,0 z" />
    </g>
    <g
       data-name="Text"
       id="bc0cf755-b426-4fc6-9fbd-6edfd6ddfb6b">
      <path
         id="path844"
         fill="#d7d7d7"
         d="m 153.156,47.933 a 3.751,3.751 0 0 0 2.553,-1.078 l -0.232,1.54 a 4.067,4.067 0 0 1 -2.5,0.814 3.28,3.28 0 0 1 -3.257,-3.982 4.661,4.661 0 0 1 4.533,-3.983 3.208,3.208 0 0 1 2.289,0.814 l -0.243,1.551 a 2.488,2.488 0 0 0 -2.134,-1.089 3.22,3.22 0 0 0 -3.058,2.707 2.166,2.166 0 0 0 2.049,2.706 z" />
      <path
         id="path846"
         fill="#d7d7d7"
         d="m 159.425,40.5 -1.484,8.581 h -1.155 l 1.452,-8.581 z" />
      <path
         id="path848"
         fill="#d7d7d7"
         d="m 162.55,43.906 a 2.232,2.232 0 0 1 2.288,2.641 3.07,3.07 0 0 1 -3.036,2.64 2.237,2.237 0 0 1 -2.289,-2.64 3.073,3.073 0 0 1 3.037,-2.641 z m -0.66,4.225 a 1.834,1.834 0 0 0 1.739,-1.584 1.256,1.256 0 0 0 -1.178,-1.585 1.832,1.832 0 0 0 -1.738,1.585 1.254,1.254 0 0 0 1.177,1.584 z" />
      <path
         id="path850"
         fill="#d7d7d7"
         d="m 167.9,48.153 a 2.334,2.334 0 0 0 1.771,-0.836 l -0.187,1.3 a 2.729,2.729 0 0 1 -1.717,0.572 2.246,2.246 0 0 1 -2.309,-2.64 3.065,3.065 0 0 1 3.047,-2.641 2.394,2.394 0 0 1 1.606,0.573 l -0.186,1.309 a 1.558,1.558 0 0 0 -1.454,-0.848 1.871,1.871 0 0 0 -1.8,1.607 1.286,1.286 0 0 0 1.229,1.604 z" />
      <path
         id="path852"
         fill="#d7d7d7"
         d="m 175.761,44.017 -2.552,2.156 1.837,2.9 h -1.365 l -1.594,-2.573 -0.441,2.574 H 170.5 l 1.452,-8.581 h 1.166 l -0.9,5.248 2.046,-1.727 z" />
      <path
         id="path854"
         fill="#d7d7d7"
         d="m 58.336,48.064 a 1.3,1.3 0 0 0 1.4,-1.188 c 0.022,-0.748 -0.615,-0.99 -1.386,-1.342 a 2.359,2.359 0 0 1 -1.7,-2.134 2.39,2.39 0 0 1 2.585,-2.156 2.486,2.486 0 0 1 2.409,1.661 l -1.066,0.561 A 1.546,1.546 0 0 0 59.094,42.4 0.988,0.988 0 0 0 57.972,43.313 c -0.033,0.616 0.583,0.99 1.452,1.331 a 2.215,2.215 0 0 1 1.651,2.145 2.716,2.716 0 0 1 -2.806,2.454 2.859,2.859 0 0 1 -2.673,-1.97 l 0.99,-0.682 c 0.385,0.868 0.869,1.473 1.75,1.473 z" />
      <path
         id="path856"
         fill="#d7d7d7"
         d="m 62.8,44.016 0.3,-1.76 h 1.177 l -0.308,1.76 H 64.8 l -0.187,1.045 h -0.825 l -0.7,4.016 h -1.145 l 0.682,-4.016 H 61.811 L 62,44.016 Z" />
      <path
         id="path858"
         fill="#d7d7d7"
         d="m 64.758,46.876 a 2.944,2.944 0 0 1 2.971,-2.97 2,2 0 0 1 2.179,2.222 2.483,2.483 0 0 1 -0.121,0.693 h -3.84 c -0.023,0.814 0.374,1.387 1.188,1.387 a 1.775,1.775 0 0 0 1.474,-0.8 l 0.99,0.408 a 2.908,2.908 0 0 1 -2.563,1.375 2.135,2.135 0 0 1 -2.278,-2.315 z M 66.089,46 h 2.6 v -0.022 c 0,-0.726 -0.351,-1.166 -1.056,-1.166 A 1.628,1.628 0 0 0 66.089,46 Z" />
      <path
         id="path860"
         fill="#d7d7d7"
         d="m 69.951,51.5 1.3,-7.481 h 1.166 l -0.132,0.814 a 2.217,2.217 0 0 1 1.794,-0.946 2.111,2.111 0 0 1 1.991,2.662 2.947,2.947 0 0 1 -2.816,2.662 1.552,1.552 0 0 1 -1.53,-1.078 L 71.161,51.5 Z m 3.74,-6.535 A 1.84,1.84 0 0 0 72,46.546 c -0.11,0.848 0.319,1.562 1.078,1.584 a 1.843,1.843 0 0 0 1.782,-1.584 1.231,1.231 0 0 0 -1.169,-1.584 z" />
      <path
         id="path862"
         fill="#d7d7d7"
         d="m 78.728,48.263 a 0.637,0.637 0 0 0 0.705,-0.595 C 79.444,47.229 78.949,46.998 78.464,46.811 77.848,46.568 77.2,46.205 77.221,45.347 A 1.591,1.591 0 0 1 79,43.906 a 2.353,2.353 0 0 1 1.859,0.891 l -0.66,0.693 a 1.676,1.676 0 0 0 -1.21,-0.682 c -0.4,0 -0.66,0.2 -0.66,0.484 -0.023,0.4 0.418,0.561 0.923,0.77 0.748,0.319 1.365,0.66 1.343,1.541 A 1.713,1.713 0 0 1 78.74,49.23 2.742,2.742 0 0 1 76.528,48.108 l 0.748,-0.682 a 1.945,1.945 0 0 0 1.452,0.837 z" />
      <path
         id="path864"
         fill="#d7d7d7"
         d="m 26.89,155.863 a 1.305,1.305 0 0 0 1.4,-1.188 c 0.022,-0.748 -0.616,-0.99 -1.386,-1.342 a 2.36,2.36 0 0 1 -1.7,-2.135 2.391,2.391 0 0 1 2.585,-2.156 2.489,2.489 0 0 1 2.401,1.658 l -1.066,0.561 a 1.546,1.546 0 0 0 -1.475,-1.067 0.988,0.988 0 0 0 -1.122,0.913 c -0.033,0.616 0.583,0.99 1.452,1.331 a 2.214,2.214 0 0 1 1.65,2.145 2.715,2.715 0 0 1 -2.8,2.454 2.858,2.858 0 0 1 -2.673,-1.969 l 0.989,-0.682 c 0.381,0.872 0.864,1.477 1.745,1.477 z" />
      <path
         id="path866"
         fill="#d7d7d7"
         d="m 31.356,151.814 0.3,-1.76 h 1.174 l -0.308,1.76 h 0.836 l -0.187,1.045 h -0.826 l -0.7,4.016 H 30.5 l 0.681,-4.016 h -0.813 l 0.186,-1.045 z" />
      <path
         id="path868"
         fill="#d7d7d7"
         d="m 33.313,154.675 a 2.944,2.944 0 0 1 2.971,-2.971 2,2 0 0 1 2.179,2.223 2.445,2.445 0 0 1 -0.122,0.693 H 34.5 c -0.023,0.814 0.374,1.386 1.188,1.386 a 1.777,1.777 0 0 0 1.474,-0.8 l 0.99,0.407 a 2.908,2.908 0 0 1 -2.564,1.375 2.135,2.135 0 0 1 -2.275,-2.313 z m 1.331,-0.881 h 2.6 v -0.022 c 0,-0.726 -0.352,-1.166 -1.056,-1.166 a 1.628,1.628 0 0 0 -1.544,1.188 z" />
      <path
         id="path870"
         fill="#d7d7d7"
         d="m 38.505,159.295 1.3,-7.481 h 1.166 l -0.131,0.814 a 2.214,2.214 0 0 1 1.793,-0.946 2.112,2.112 0 0 1 1.992,2.663 2.948,2.948 0 0 1 -2.817,2.662 1.553,1.553 0 0 1 -1.529,-1.078 l -0.562,3.366 z m 3.741,-6.535 a 1.842,1.842 0 0 0 -1.7,1.585 c -0.109,0.847 0.32,1.562 1.078,1.584 a 1.844,1.844 0 0 0 1.783,-1.584 1.231,1.231 0 0 0 -1.161,-1.585 z" />
      <path
         id="path872"
         fill="#d7d7d7"
         d="m 37.133,302.348 a 1.306,1.306 0 0 0 1.4,-1.188 c 0.022,-0.748 -0.615,-0.99 -1.386,-1.343 a 2.359,2.359 0 0 1 -1.7,-2.133 2.391,2.391 0 0 1 2.585,-2.157 2.488,2.488 0 0 1 2.409,1.661 l -1.066,0.561 a 1.546,1.546 0 0 0 -1.475,-1.066 0.988,0.988 0 0 0 -1.122,0.913 c -0.033,0.615 0.583,0.989 1.452,1.331 a 2.213,2.213 0 0 1 1.651,2.144 2.716,2.716 0 0 1 -2.806,2.454 2.859,2.859 0 0 1 -2.673,-1.969 l 0.989,-0.682 c 0.378,0.869 0.862,1.474 1.742,1.474 z" />
      <path
         id="path874"
         fill="#d7d7d7"
         d="m 41.6,298.3 0.3,-1.761 h 1.177 L 42.769,298.3 H 43.6 l -0.187,1.045 h -0.826 l -0.7,4.015 h -1.146 l 0.681,-4.015 H 40.609 L 40.8,298.3 Z" />
      <path
         id="path876"
         fill="#d7d7d7"
         d="m 46.351,298.189 a 1.585,1.585 0 0 1 1.551,1.1 l 0.165,-0.989 h 1.166 l -0.88,5.06 H 47.22 l 0.143,-0.847 a 2.274,2.274 0 0 1 -1.826,0.957 2.112,2.112 0 0 1 -2,-2.64 2.956,2.956 0 0 1 2.814,-2.641 z m -0.44,4.247 a 1.863,1.863 0 0 0 1.694,-1.606 c 0.11,-0.848 -0.308,-1.585 -1.078,-1.606 a 1.862,1.862 0 0 0 -1.782,1.606 c -0.132,0.858 0.307,1.606 1.166,1.606 z" />
      <path
         id="path878"
         fill="#d7d7d7"
         d="m 52.456,299.3 c -0.539,-0.012 -0.869,0.439 -1.013,0.957 l -0.539,3.1 h -1.166 l 0.88,-5.06 h 1.166 l -0.1,0.571 a 1.645,1.645 0 0 1 1.2,-0.682 1.22,1.22 0 0 1 0.88,0.4 l -0.7,0.99 A 0.909,0.909 0 0 0 52.456,299.3 Z" />
      <path
         id="path880"
         fill="#d7d7d7"
         d="m 54.711,298.3 0.3,-1.761 h 1.177 l -0.307,1.761 h 0.836 l -0.188,1.045 H 55.7 L 55,303.36 h -1.148 l 0.682,-4.015 H 53.72 l 0.187,-1.045 z" />
      <path
         id="path882"
         fill="#d7d7d7"
         d="m 187.613,149.174 a 2.087,2.087 0 0 1 2.333,2.4 2.738,2.738 0 0 1 -2.068,2.256 l 1.584,3.047 h -1.5 l -1.4,-2.916 h -0.77 l -0.5,2.916 h -1.276 l 1.3,-7.7 z m -1.188,1.133 -0.44,2.574 h 0.946 a 1.6,1.6 0 0 0 1.695,-1.287 1.065,1.065 0 0 0 -1.189,-1.287 z" />
      <path
         id="path884"
         fill="#d7d7d7"
         d="m 190.34,154.675 a 2.945,2.945 0 0 1 2.971,-2.971 2,2 0 0 1 2.179,2.223 2.483,2.483 0 0 1 -0.121,0.693 h -3.84 c -0.023,0.814 0.374,1.386 1.188,1.386 a 1.777,1.777 0 0 0 1.474,-0.8 l 0.99,0.407 a 2.906,2.906 0 0 1 -2.563,1.375 2.135,2.135 0 0 1 -2.278,-2.313 z m 1.331,-0.881 h 2.6 v -0.022 c 0,-0.726 -0.351,-1.166 -1.055,-1.166 a 1.628,1.628 0 0 0 -1.545,1.188 z" />
      <path
         id="path886"
         fill="#d7d7d7"
         d="m 198.041,156.061 a 0.637,0.637 0 0 0 0.705,-0.594 c 0.01,-0.44 -0.485,-0.671 -0.969,-0.858 -0.616,-0.242 -1.265,-0.606 -1.243,-1.463 a 1.591,1.591 0 0 1 1.782,-1.442 2.353,2.353 0 0 1 1.859,0.891 l -0.66,0.694 a 1.676,1.676 0 0 0 -1.21,-0.683 c -0.4,0 -0.66,0.2 -0.66,0.484 -0.022,0.4 0.418,0.561 0.924,0.77 0.748,0.32 1.364,0.661 1.343,1.541 a 1.715,1.715 0 0 1 -1.86,1.628 2.746,2.746 0 0 1 -2.212,-1.122 l 0.748,-0.682 a 1.944,1.944 0 0 0 1.453,0.836 z" />
      <path
         id="path888"
         fill="#d7d7d7"
         d="m 200.6,154.675 a 2.944,2.944 0 0 1 2.971,-2.971 2,2 0 0 1 2.179,2.223 2.445,2.445 0 0 1 -0.122,0.693 h -3.839 c -0.023,0.814 0.374,1.386 1.188,1.386 a 1.777,1.777 0 0 0 1.474,-0.8 l 0.99,0.407 a 2.908,2.908 0 0 1 -2.564,1.375 2.135,2.135 0 0 1 -2.277,-2.313 z m 1.331,-0.881 h 2.6 v -0.022 c 0,-0.726 -0.352,-1.166 -1.056,-1.166 a 1.628,1.628 0 0 0 -1.541,1.188 z" />
      <path
         id="path890"
         fill="#d7d7d7"
         d="m 207.27,151.814 0.3,-1.76 h 1.177 l -0.308,1.76 h 0.836 l -0.187,1.045 h -0.826 l -0.7,4.016 h -1.143 l 0.681,-4.016 h -0.813 l 0.186,-1.045 z" />
      <path
         id="path892"
         fill="#d7d7d7"
         d="m 180.552,295.659 a 2.087,2.087 0 0 1 2.333,2.4 2.738,2.738 0 0 1 -2.068,2.255 l 1.584,3.047 h -1.5 l -1.4,-2.916 h -0.769 l -0.5,2.916 h -1.277 l 1.3,-7.7 z m -1.187,1.133 -0.441,2.574 h 0.947 a 1.6,1.6 0 0 0 1.694,-1.287 1.064,1.064 0 0 0 -1.188,-1.287 z" />
      <path
         id="path894"
         fill="#d7d7d7"
         d="m 183.28,301.16 a 2.945,2.945 0 0 1 2.971,-2.971 2,2 0 0 1 2.178,2.223 2.433,2.433 0 0 1 -0.121,0.692 h -3.84 c -0.022,0.815 0.374,1.387 1.189,1.387 a 1.774,1.774 0 0 0 1.473,-0.8 l 0.991,0.407 a 2.909,2.909 0 0 1 -2.564,1.375 2.135,2.135 0 0 1 -2.277,-2.313 z m 1.331,-0.881 h 2.6 v -0.021 c 0,-0.727 -0.352,-1.166 -1.056,-1.166 a 1.627,1.627 0 0 0 -1.544,1.187 z" />
      <path
         id="path896"
         fill="#d7d7d7"
         d="m 191.443,302.436 a 2.33,2.33 0 0 0 1.77,-0.836 l -0.186,1.3 a 2.729,2.729 0 0 1 -1.717,0.572 2.246,2.246 0 0 1 -2.31,-2.642 3.064,3.064 0 0 1 3.046,-2.641 2.4,2.4 0 0 1 1.607,0.573 l -0.187,1.308 a 1.556,1.556 0 0 0 -1.453,-0.846 1.869,1.869 0 0 0 -1.8,1.606 1.286,1.286 0 0 0 1.23,1.606 z" />
      <path
         id="path898"
         fill="#d7d7d7"
         d="m 111.583,261.347 a 3.268,3.268 0 0 1 3.255,3.982 4.683,4.683 0 0 1 -4.532,4.016 3.3,3.3 0 0 1 -3.257,-4.016 4.682,4.682 0 0 1 4.534,-3.982 z m -1.145,6.711 a 3.177,3.177 0 0 0 3.036,-2.729 c 0.22,-1.408 -0.483,-2.718 -2.024,-2.728 a 3.175,3.175 0 0 0 -3.036,2.728 2.14,2.14 0 0 0 2.024,2.729 z" />
      <path
         id="path900"
         fill="#d7d7d7"
         d="m 117.5,268.321 a 1.284,1.284 0 0 0 1.3,-1.078 l 0.55,-3.124 h 1.178 l -0.869,5.061 h -1.189 l 0.121,-0.748 a 1.847,1.847 0 0 1 -1.562,0.857 c -1.144,0 -1.573,-0.891 -1.419,-1.958 l 0.55,-3.212 h 1.188 l -0.528,3.08 c -0.08,0.594 0.041,1.122 0.68,1.122 z" />
      <path
         id="path902"
         fill="#d7d7d7"
         d="m 122.1,264.119 0.3,-1.761 h 1.177 l -0.308,1.761 h 0.836 l -0.187,1.045 h -0.825 l -0.7,4.016 h -1.153 l 0.681,-4.016 h -0.813 l 0.187,-1.045 z" />
      <path
         id="path904"
         fill="#d7d7d7"
         d="m 155.571,277.682 h 5.237 l -0.209,1.2 h -1.97 l -1.111,6.5 h -1.3 l 1.122,-6.5 h -1.98 z" />
      <path
         id="path906"
         fill="#d7d7d7"
         d="m 162.106,281.323 c -0.539,-0.01 -0.869,0.441 -1.013,0.957 l -0.539,3.1 h -1.166 l 0.88,-5.061 h 1.167 l -0.1,0.573 a 1.643,1.643 0 0 1 1.2,-0.683 1.219,1.219 0 0 1 0.88,0.4 l -0.7,0.991 a 0.907,0.907 0 0 0 -0.609,-0.277 z" />
      <path
         id="path908"
         fill="#d7d7d7"
         d="m 165.5,280.322 -0.858,5.061 h -1.162 l 0.848,-5.061 z m -0.242,-2.728 a 0.716,0.716 0 1 1 -0.748,0.715 0.721,0.721 0 0 1 0.752,-0.715 z" />
      <path
         id="path910"
         fill="#d7d7d7"
         d="m 167,285.735 a 1.065,1.065 0 0 0 1.166,1.188 1.814,1.814 0 0 0 1.738,-1.65 l 0.121,-0.7 a 2.283,2.283 0 0 1 -1.772,0.858 2.081,2.081 0 0 1 -2,-2.6 2.942,2.942 0 0 1 2.816,-2.619 1.59,1.59 0 0 1 1.54,1.034 l 0.154,-0.924 h 1.144 l -0.836,4.951 a 2.933,2.933 0 0 1 -2.927,2.684 2.034,2.034 0 0 1 -2.288,-2.233 z m 1.628,-1.342 a 1.822,1.822 0 0 0 1.661,-1.375 l 0.055,-0.275 a 1.242,1.242 0 0 0 -1.1,-1.5 1.827,1.827 0 0 0 -1.782,1.585 1.213,1.213 0 0 0 1.167,1.565 z" />
      <path
         id="path912"
         fill="#d7d7d7"
         d="m 202.257,281.357 h 3.587 c -0.33,2.19 -1.848,4.192 -4.312,4.192 a 3.3,3.3 0 0 1 -3.3,-4.016 4.663,4.663 0 0 1 4.588,-3.982 3.171,3.171 0 0 1 2.971,1.717 l -1.134,0.7 a 2.038,2.038 0 0 0 -1.958,-1.211 3.252,3.252 0 0 0 -3.113,2.772 c -0.221,1.475 0.539,2.795 2.079,2.795 a 2.861,2.861 0 0 0 2.64,-1.87 h -2.245 z" />
      <path
         id="path914"
         fill="#d7d7d7"
         d="m 209.21,280.213 a 1.584,1.584 0 0 1 1.55,1.1 l 0.165,-0.99 h 1.166 l -0.879,5.061 h -1.133 l 0.142,-0.847 a 2.272,2.272 0 0 1 -1.826,0.957 2.113,2.113 0 0 1 -2,-2.64 2.954,2.954 0 0 1 2.815,-2.641 z m -0.441,4.247 a 1.862,1.862 0 0 0 1.694,-1.606 c 0.111,-0.847 -0.307,-1.584 -1.078,-1.607 a 1.865,1.865 0 0 0 -1.782,1.607 c -0.132,0.858 0.308,1.606 1.166,1.606 z" />
      <path
         id="path916"
         fill="#d7d7d7"
         d="m 213.61,280.323 0.3,-1.76 h 1.177 l -0.308,1.76 h 0.836 l -0.188,1.045 H 214.6 l -0.7,4.016 h -1.143 l 0.681,-4.016 h -0.813 l 0.186,-1.045 z" />
      <path
         id="path918"
         fill="#d7d7d7"
         d="m 215.567,283.184 a 2.945,2.945 0 0 1 2.971,-2.971 2,2 0 0 1 2.178,2.223 2.447,2.447 0 0 1 -0.121,0.693 h -3.84 c -0.022,0.813 0.374,1.386 1.189,1.386 a 1.777,1.777 0 0 0 1.474,-0.8 l 0.99,0.407 a 2.909,2.909 0 0 1 -2.564,1.375 2.135,2.135 0 0 1 -2.277,-2.313 z m 1.331,-0.88 h 2.6 v -0.023 c 0,-0.725 -0.352,-1.166 -1.056,-1.166 A 1.629,1.629 0 0 0 216.9,282.3 Z" />
      <path
         id="path920"
         fill="#d7d7d7"
         d="m 15.731,277.683 h 5.237 l -0.209,1.2 H 18.79 l -1.112,6.5 h -1.3 l 1.123,-6.5 h -1.979 z" />
      <path
         id="path922"
         fill="#d7d7d7"
         d="m 22.266,281.324 c -0.539,-0.011 -0.869,0.44 -1.012,0.957 l -0.54,3.1 h -1.166 l 0.88,-5.061 H 21.6 l -0.1,0.572 a 1.642,1.642 0 0 1 1.2,-0.682 1.22,1.22 0 0 1 0.88,0.395 l -0.7,0.991 a 0.91,0.91 0 0 0 -0.614,-0.272 z" />
      <path
         id="path924"
         fill="#d7d7d7"
         d="m 25.665,280.323 -0.859,5.061 H 23.64 l 0.848,-5.061 z m -0.243,-2.728 a 0.715,0.715 0 1 1 -0.748,0.715 0.722,0.722 0 0 1 0.748,-0.71 z" />
      <path
         id="path926"
         fill="#d7d7d7"
         d="m 27.161,285.735 a 1.065,1.065 0 0 0 1.166,1.189 1.815,1.815 0 0 0 1.738,-1.651 l 0.121,-0.7 a 2.28,2.28 0 0 1 -1.771,0.859 2.081,2.081 0 0 1 -2,-2.6 2.941,2.941 0 0 1 2.816,-2.618 1.587,1.587 0 0 1 1.54,1.034 l 0.154,-0.924 h 1.144 l -0.836,4.95 a 2.934,2.934 0 0 1 -2.927,2.685 2.034,2.034 0 0 1 -2.288,-2.233 z m 1.628,-1.341 a 1.822,1.822 0 0 0 1.661,-1.375 l 0.055,-0.276 a 1.241,1.241 0 0 0 -1.1,-1.5 1.826,1.826 0 0 0 -1.782,1.584 1.214,1.214 0 0 0 1.166,1.567 z" />
      <path
         id="path928"
         fill="#d7d7d7"
         d="m 62.59,281.357 h 3.587 c -0.33,2.189 -1.848,4.192 -4.312,4.192 a 3.3,3.3 0 0 1 -3.3,-4.016 4.662,4.662 0 0 1 4.588,-3.982 3.171,3.171 0 0 1 2.971,1.716 l -1.134,0.7 a 2.038,2.038 0 0 0 -1.958,-1.211 3.252,3.252 0 0 0 -3.113,2.773 c -0.221,1.474 0.539,2.794 2.079,2.794 a 2.859,2.859 0 0 0 2.64,-1.87 h -2.245 z" />
      <path
         id="path930"
         fill="#d7d7d7"
         d="m 69.543,280.213 a 1.583,1.583 0 0 1 1.55,1.1 l 0.165,-0.991 h 1.166 l -0.879,5.061 h -1.133 l 0.142,-0.847 a 2.272,2.272 0 0 1 -1.826,0.957 2.112,2.112 0 0 1 -2,-2.639 2.953,2.953 0 0 1 2.815,-2.641 z m -0.441,4.246 a 1.862,1.862 0 0 0 1.694,-1.605 c 0.111,-0.848 -0.307,-1.585 -1.078,-1.608 a 1.866,1.866 0 0 0 -1.782,1.608 1.249,1.249 0 0 0 1.164,1.605 z" />
      <path
         id="path932"
         fill="#d7d7d7"
         d="m 73.943,280.322 0.3,-1.759 h 1.177 l -0.308,1.759 h 0.836 l -0.188,1.045 h -0.825 l -0.7,4.016 h -1.15 l 0.681,-4.016 h -0.813 l 0.186,-1.045 z" />
      <path
         id="path934"
         fill="#d7d7d7"
         d="m 75.9,283.184 a 2.944,2.944 0 0 1 2.971,-2.971 2,2 0 0 1 2.178,2.223 2.44,2.44 0 0 1 -0.121,0.692 h -3.84 c -0.022,0.813 0.375,1.386 1.189,1.386 a 1.777,1.777 0 0 0 1.474,-0.8 l 0.99,0.407 a 2.908,2.908 0 0 1 -2.564,1.375 2.134,2.134 0 0 1 -2.277,-2.312 z m 1.331,-0.881 h 2.6 v -0.022 c 0,-0.726 -0.352,-1.166 -1.056,-1.166 a 1.628,1.628 0 0 0 -1.544,1.185 z" />
      <path
         id="path936"
         fill="#d7d7d7"
         d="m 113.979,119.746 -1.342,7.7 h -1.276 l 1.3,-7.7 z" />
      <path
         id="path938"
         fill="#d7d7d7"
         d="m 117.191,123.244 a 1.284,1.284 0 0 0 -1.287,1.089 l -0.539,3.114 h -1.189 l 0.88,-5.061 h 1.178 l -0.121,0.748 a 1.833,1.833 0 0 1 1.562,-0.858 c 1.155,0 1.584,0.88 1.43,1.958 l -0.55,3.213 h -1.21 l 0.55,-3.081 c 0.077,-0.594 -0.044,-1.122 -0.704,-1.122 z" />
      <path
         id="path940"
         fill="#d7d7d7"
         d="m 199.241,55.071 h -2.751 l -1.189,1.98 h -1.484 l 5.083,-8.141 2.256,8.141 h -1.408 z m -2.2,-1.1 h 2.024 l -0.594,-2.443 z" />
      <path
         id="path942"
         fill="#d7d7d7"
         d="m 203.9,56.193 a 1.285,1.285 0 0 0 1.3,-1.078 l 0.55,-3.124 h 1.177 l -0.869,5.06 h -1.188 l 0.121,-0.748 a 1.847,1.847 0 0 1 -1.563,0.858 c -1.143,0 -1.573,-0.891 -1.419,-1.958 l 0.55,-3.212 h 1.189 l -0.529,3.08 c -0.075,0.594 0.046,1.122 0.681,1.122 z" />
      <path
         id="path944"
         fill="#d7d7d7"
         d="m 208.5,51.991 0.3,-1.761 h 1.177 l -0.307,1.761 h 0.835 l -0.187,1.045 h -0.825 l -0.7,4.015 h -1.144 l 0.682,-4.015 h -0.814 l 0.187,-1.045 z" />
      <path
         id="path946"
         fill="#d7d7d7"
         d="m 213.541,51.88 a 2.233,2.233 0 0 1 2.288,2.641 3.072,3.072 0 0 1 -3.036,2.64 2.237,2.237 0 0 1 -2.289,-2.64 3.071,3.071 0 0 1 3.037,-2.641 z m -0.661,4.225 a 1.833,1.833 0 0 0 1.739,-1.584 1.256,1.256 0 0 0 -1.178,-1.584 1.832,1.832 0 0 0 -1.738,1.584 1.255,1.255 0 0 0 1.177,1.584 z" />
      <path
         id="path948"
         fill="#d7d7d7"
         d="m 197.513,67.039 a 1.305,1.305 0 0 0 1.4,-1.188 c 0.022,-0.748 -0.615,-0.99 -1.386,-1.342 a 2.358,2.358 0 0 1 -1.705,-2.134 2.391,2.391 0 0 1 2.585,-2.157 2.488,2.488 0 0 1 2.409,1.661 l -1.066,0.561 a 1.547,1.547 0 0 0 -1.475,-1.066 0.988,0.988 0 0 0 -1.122,0.913 c -0.033,0.615 0.583,0.989 1.452,1.331 a 2.216,2.216 0 0 1 1.651,2.145 2.716,2.716 0 0 1 -2.806,2.453 2.859,2.859 0 0 1 -2.673,-1.969 l 0.989,-0.682 c 0.383,0.869 0.866,1.474 1.747,1.474 z" />
      <path
         id="path950"
         fill="#d7d7d7"
         d="m 201.979,62.991 0.3,-1.761 h 1.177 l -0.308,1.761 h 0.836 l -0.187,1.045 h -0.826 l -0.7,4.015 h -1.143 l 0.681,-4.015 h -0.813 l 0.186,-1.045 z" />
      <path
         id="path952"
         fill="#d7d7d7"
         d="m 207.017,62.88 a 2.232,2.232 0 0 1 2.288,2.641 3.071,3.071 0 0 1 -3.036,2.64 2.237,2.237 0 0 1 -2.289,-2.64 3.072,3.072 0 0 1 3.037,-2.641 z m -0.66,4.225 a 1.832,1.832 0 0 0 1.738,-1.584 1.255,1.255 0 0 0 -1.177,-1.584 1.832,1.832 0 0 0 -1.739,1.584 1.256,1.256 0 0 0 1.178,1.584 z" />
      <path
         id="path954"
         fill="#d7d7d7"
         d="m 209.392,70.472 1.3,-7.481 h 1.166 l -0.132,0.814 a 2.215,2.215 0 0 1 1.794,-0.947 2.112,2.112 0 0 1 1.991,2.663 2.947,2.947 0 0 1 -2.816,2.662 1.553,1.553 0 0 1 -1.529,-1.078 l -0.562,3.367 z m 3.74,-6.535 a 1.842,1.842 0 0 0 -1.694,1.584 c -0.109,0.847 0.319,1.562 1.078,1.584 a 1.842,1.842 0 0 0 1.782,-1.584 1.23,1.23 0 0 0 -1.166,-1.584 z" />
      <path
         id="path956"
         fill="#d7d7d7"
         d="m 21.834,60.35 c 1.54,0 2.519,0.946 2.321,2.4 A 2.866,2.866 0 0 1 21.1,65.136 h -1.026 l -0.5,2.915 H 18.3 l 1.3,-7.7 z m -1.134,1.144 -0.43,2.5 h 0.936 A 1.593,1.593 0 0 0 22.9,62.749 c 0.132,-0.782 -0.374,-1.255 -1.188,-1.255 z" />
      <path
         id="path958"
         fill="#d7d7d7"
         d="m 26.85,63.992 c -0.539,-0.012 -0.869,0.44 -1.012,0.957 l -0.54,3.1 h -1.166 l 0.88,-5.06 h 1.167 l -0.1,0.572 a 1.647,1.647 0 0 1 1.2,-0.683 1.221,1.221 0 0 1 0.88,0.4 l -0.7,0.991 A 0.91,0.91 0 0 0 26.85,63.992 Z" />
      <path
         id="path960"
         fill="#d7d7d7"
         d="m 28.015,65.851 a 2.945,2.945 0 0 1 2.971,-2.971 2,2 0 0 1 2.179,2.22 2.483,2.483 0 0 1 -0.121,0.693 H 29.2 c -0.023,0.814 0.374,1.386 1.188,1.386 a 1.777,1.777 0 0 0 1.474,-0.8 l 0.99,0.407 a 2.906,2.906 0 0 1 -2.563,1.375 2.135,2.135 0 0 1 -2.274,-2.31 z m 1.331,-0.88 h 2.6 v -0.022 c 0,-0.726 -0.352,-1.166 -1.056,-1.166 a 1.628,1.628 0 0 0 -1.544,1.188 z" />
      <path
         id="path962"
         fill="#d7d7d7"
         d="m 19.677,100.159 c 1.54,0 2.52,0.946 2.322,2.4 a 2.867,2.867 0 0 1 -3.059,2.387 h -1.022 l -0.5,2.915 h -1.272 l 1.3,-7.7 z m -1.132,1.141 -0.43,2.5 h 0.935 a 1.593,1.593 0 0 0 1.7,-1.243 c 0.132,-0.782 -0.374,-1.255 -1.189,-1.255 z" />
      <path
         id="path964"
         fill="#d7d7d7"
         d="m 25.035,102.689 a 2.233,2.233 0 0 1 2.288,2.641 3.071,3.071 0 0 1 -3.036,2.64 2.237,2.237 0 0 1 -2.287,-2.64 3.071,3.071 0 0 1 3.035,-2.641 z m -0.66,4.225 a 1.833,1.833 0 0 0 1.738,-1.584 1.255,1.255 0 0 0 -1.178,-1.584 1.832,1.832 0 0 0 -1.735,1.584 1.255,1.255 0 0 0 1.175,1.584 z" />
      <path
         id="path966"
         fill="#d7d7d7"
         d="m 29.918,107.046 a 0.637,0.637 0 0 0 0.705,-0.594 c 0.01,-0.44 -0.485,-0.671 -0.969,-0.858 -0.616,-0.242 -1.265,-0.6 -1.243,-1.463 a 1.591,1.591 0 0 1 1.782,-1.442 2.354,2.354 0 0 1 1.859,0.892 l -0.66,0.693 a 1.674,1.674 0 0 0 -1.21,-0.682 c -0.4,0 -0.66,0.2 -0.66,0.484 -0.022,0.4 0.418,0.561 0.924,0.77 0.748,0.319 1.364,0.66 1.343,1.54 a 1.715,1.715 0 0 1 -1.86,1.628 2.746,2.746 0 0 1 -2.212,-1.122 l 0.748,-0.682 a 1.944,1.944 0 0 0 1.453,0.836 z" />
      <path
         id="path968"
         fill="#d7d7d7"
         d="m 33.405,102.8 0.3,-1.76 h 1.177 l -0.308,1.76 h 0.836 l -0.188,1.045 h -0.825 l -0.7,4.015 h -1.151 l 0.682,-4.015 H 32.415 L 32.6,102.8 Z" />
    </g>
    <g
       data-name="Logo"
       id="49b8ce25-e7a3-4496-b592-a6bf470396c3">
      <polygon
         id="polygon971"
         fill="#d7d7d7"
         points="109.315,348.086 109.315,350.441 109.315,352.795 109.315,355.149 111.669,355.149 111.669,352.795 111.669,350.441 114.023,350.441 114.023,348.086 116.377,348.086 116.377,345.732 114.023,345.732 111.669,345.732 109.315,345.732 " />
      <polygon
         id="polygon973"
         fill="#d7d7d7"
         points="118.731,355.149 121.085,355.149 121.085,352.795 121.085,350.441 121.085,348.087 121.085,345.732 118.731,345.732 118.731,348.087 118.731,350.441 116.377,350.441 116.377,352.795 114.023,352.795 114.023,355.149 116.377,355.149 " />
      <polygon
         id="polygon975"
         fill="#d7d7d7"
         points="106.961,343.424 123.439,343.424 123.439,357.476 106.961,357.476 106.961,342.156 105.783,342.156 105.783,358.654 106.961,358.654 124.617,358.654 124.617,357.476 124.617,342.156 123.439,342.156 106.961,342.156 " />
    </g>
    <g
       data-name="Legend"
       id="3cdcbd36-edf9-4222-abd2-3d84a0b17ff4">
      <circle
         id="circle978"
         stroke-miterlimit="10"
         stroke="#b2ff78"
         fill="none"
         r="13.636"
         cy="102.759"
         cx="115.2" />
      <circle
         id="circle980"
         stroke-miterlimit="10"
         stroke="#b2ff78"
         fill="none"
         r="13.636"
         cy="66.379997"
         cx="162.369" />
      <circle
         id="circle982"
         stroke-miterlimit="10"
         stroke="#b2ff78"
         fill="none"
         r="13.636"
         cy="66.379997"
         cx="68.030998" />
      <circle
         id="circle984"
         stroke-miterlimit="10"
         stroke="#b2ff78"
         fill="none"
         r="13.636"
         cy="212.53101"
         cx="33.745998" />
      <circle
         id="circle986"
         stroke-miterlimit="10"
         stroke="#b2ff78"
         fill="none"
         r="13.636"
         cy="212.53101"
         cx="196.384" />
      <circle
         id="circle988"
         stroke-miterlimit="10"
         stroke="#b2ff78"
         fill="none"
         r="13.636"
         cy="320.953"
         cx="185.04601" />
      <circle
         id="circle990"
         stroke-miterlimit="10"
         stroke="#b2ff78"
         fill="none"
         r="13.636"
         cy="320.953"
         cx="45.354" />
      <line
         id="line992"
         stroke-miterlimit="10"
         stroke="#b2ff78"
         fill="none"
         y2="192.657"
         x2="34.015999"
         y1="198.895"
         x1="34.015999" />
      <polygon
         id="polygon994"
         fill="#b2ff78"
         points="32.32,194.649 32.32,193.21 34.016,191.514 35.711,193.21 35.711,194.649 34.016,192.953 " />
      <line
         id="line996"
         stroke-miterlimit="10"
         stroke="#b2ff78"
         fill="none"
         y2="192.657"
         x2="196.384"
         y1="198.895"
         x1="196.384" />
      <polygon
         id="polygon998"
         fill="#b2ff78"
         points="194.689,194.649 194.689,193.21 196.384,191.514 198.08,193.21 198.08,194.649 196.384,192.953 " />
    </g>
  </g>
</svg>
