<svg xmlns="http://www.w3.org/2000/svg" width="81.28mm" height="128.5mm" viewBox="0 0 230.4 364.25197">
  <title>master9</title>
  <g id="f5e4e305-f6e7-4100-8275-285f5e48d741" data-name="Fax">
    <rect id="2e8eea54-a22d-467b-b576-106e201d2ff7" data-name="BG" width="230.4" height="364.25197" style="fill: #2a2d30"/>
    <g id="7df48708-140d-450d-bae6-bfda0a8439c6" data-name="Title">
      <path d="M83.99758,10.01709a2.70175,2.70175,0,0,0-.61231,1.99268,2.70227,2.70227,0,0,0,.61231,1.99316,2.69968,2.69968,0,0,0,1.99219.61182,2.032,2.032,0,0,1,1.5.46045,2.03019,2.03019,0,0,1,.46093,1.49951,2.03074,2.03074,0,0,1-.46093,1.5,2.03205,2.03205,0,0,1-1.5.46045,2.69967,2.69967,0,0,0-1.99219.61181,2.69682,2.69682,0,0,0-.61231,1.99268,2.03481,2.03481,0,0,1-.46,1.5,2.67349,2.67349,0,0,1-3,0,2.03486,2.03486,0,0,1-.46-1.5,2.03431,2.03431,0,0,1,.46-1.49951,2.03349,2.03349,0,0,1,1.5-.46045,2.70225,2.70225,0,0,0,1.99317-.61182,2.70149,2.70149,0,0,0,.61132-1.99316,2.701,2.701,0,0,0-.61132-1.99268,2.70225,2.70225,0,0,0-1.99317-.61182,2.03353,2.03353,0,0,1-1.5-.46044,2.03487,2.03487,0,0,1-.46-1.5,2.03434,2.03434,0,0,1,.46-1.49952,2.03353,2.03353,0,0,1,1.5-.46045A2.70225,2.70225,0,0,0,83.41848,9.438a2.70226,2.70226,0,0,0,.61132-1.99317,2.03021,2.03021,0,0,1,.46094-1.49951,2.67191,2.67191,0,0,1,2.999,0,2.03021,2.03021,0,0,1,.46093,1.49951,2.03072,2.03072,0,0,1-.46093,1.5,2.032,2.032,0,0,1-1.5.46045A2.69968,2.69968,0,0,0,83.99758,10.01709Zm-4.07227,8.05762a2.03486,2.03486,0,0,1-.46-1.5,2.03431,2.03431,0,0,1,.46-1.49951,2.67349,2.67349,0,0,1,3,0,2.03427,2.03427,0,0,1,.46,1.49951,2.03481,2.03481,0,0,1-.46,1.5,2.67349,2.67349,0,0,1-3,0Zm3,6.13037a2.03427,2.03427,0,0,1,.46,1.49951,2.0348,2.0348,0,0,1-.46,1.5,2.67349,2.67349,0,0,1-3,0,2.03484,2.03484,0,0,1-.46-1.5,2.03431,2.03431,0,0,1,.46-1.49951,2.67349,2.67349,0,0,1,3,0ZM92.05519,5.94531a2.03428,2.03428,0,0,1,.46,1.49951,2.0348,2.0348,0,0,1-.46,1.5,2.67349,2.67349,0,0,1-3,0,2.03484,2.03484,0,0,1-.46-1.5,2.03433,2.03433,0,0,1,.46-1.49951,2.67349,2.67349,0,0,1,3,0Zm0,9.12989a2.03427,2.03427,0,0,1,.46,1.49951,2.03481,2.03481,0,0,1-.46,1.5,2.67349,2.67349,0,0,1-3,0,2.03486,2.03486,0,0,1-.46-1.5,2.03431,2.03431,0,0,1,.46-1.49951,2.67349,2.67349,0,0,1,3,0Zm9.58985-3.06543a2.03487,2.03487,0,0,1-.46,1.5,2.67354,2.67354,0,0,1-3,0,2.03483,2.03483,0,0,1-.46-1.5,2.701,2.701,0,0,0-.61231-1.99268,2.70222,2.70222,0,0,0-1.99316-.61182,2.031,2.031,0,0,1-1.499-.46045,2.03072,2.03072,0,0,1-.46093-1.5,2.03021,2.03021,0,0,1,.46093-1.49951,2.67191,2.67191,0,0,1,2.999,0,2.03021,2.03021,0,0,1,.46094,1.49951A2.70226,2.70226,0,0,0,97.69191,9.438a2.70225,2.70225,0,0,0,1.99317.61181,2.03355,2.03355,0,0,1,1.5.46045A2.03434,2.03434,0,0,1,101.645,12.00977Z" style="fill: #d7d7d7"/>
      <path d="M124.98293,24.20508a2.03427,2.03427,0,0,1,.46,1.49951,2.0348,2.0348,0,0,1-.46,1.5,2.67349,2.67349,0,0,1-3,0,2.0348,2.0348,0,0,1-.46-1.5,2.701,2.701,0,0,0-.61231-1.99268,2.70225,2.70225,0,0,0-1.99316-.61181,2.031,2.031,0,0,1-1.499-.46045,2.03069,2.03069,0,0,1-.46094-1.5,2.03015,2.03015,0,0,1,.46094-1.49951,2.03092,2.03092,0,0,1,1.499-.46045,2.70221,2.70221,0,0,0,1.99316-.61182,2.70151,2.70151,0,0,0,.61231-1.99316,2.701,2.701,0,0,0-.61231-1.99268,2.70221,2.70221,0,0,0-1.99316-.61182,2.031,2.031,0,0,1-1.499-.46044,2.03071,2.03071,0,0,1-.46094-1.5,2.70169,2.70169,0,0,0-.61133-1.99268,3.55254,3.55254,0,0,0-3.98633,0,2.70093,2.70093,0,0,0-.61133,1.99268,2.03075,2.03075,0,0,1-.46093,1.5,2.032,2.032,0,0,1-1.5.46044,2.69968,2.69968,0,0,0-1.99219.61182,2.701,2.701,0,0,0-.61231,1.99268,2.70225,2.70225,0,0,0,.61231,1.99316,2.69968,2.69968,0,0,0,1.99219.61182,2.032,2.032,0,0,1,1.5.46045,2.03019,2.03019,0,0,1,.46093,1.49951,2.03074,2.03074,0,0,1-.46093,1.5,2.032,2.032,0,0,1-1.5.46045,2.69972,2.69972,0,0,0-1.99219.61181,2.701,2.701,0,0,0-.61231,1.99268,2.0348,2.0348,0,0,1-.46,1.5,2.67349,2.67349,0,0,1-3,0,2.03484,2.03484,0,0,1-.46-1.5,2.03431,2.03431,0,0,1,.46-1.49951,2.03351,2.03351,0,0,1,1.5-.46045,2.70225,2.70225,0,0,0,1.99317-.61182,2.70219,2.70219,0,0,0,.61133-1.99316,2.70093,2.70093,0,0,0-.61133-1.99268,2.70225,2.70225,0,0,0-1.99317-.61181,2.03355,2.03355,0,0,1-1.5-.46045,2.03486,2.03486,0,0,1-.46-1.5,2.03431,2.03431,0,0,1,.46-1.49951,2.03351,2.03351,0,0,1,1.5-.46045,2.70225,2.70225,0,0,0,1.99317-.61182,2.70221,2.70221,0,0,0,.61133-1.99316,2.03022,2.03022,0,0,1,.46093-1.49952,2.031,2.031,0,0,1,1.499-.46045,2.70222,2.70222,0,0,0,1.99316-.61181,2.70228,2.70228,0,0,0,.61231-1.99317,2.03428,2.03428,0,0,1,.46-1.49951,2.67349,2.67349,0,0,1,3,0,2.03433,2.03433,0,0,1,.46,1.49951,2.69814,2.69814,0,0,0,.6123,1.99317,2.69967,2.69967,0,0,0,1.99219.61181,2.032,2.032,0,0,1,1.5.46045,2.03022,2.03022,0,0,1,.46094,1.49952,2.70221,2.70221,0,0,0,.61133,1.99316,2.70221,2.70221,0,0,0,1.99316.61182,2.03349,2.03349,0,0,1,1.5.46045,2.03427,2.03427,0,0,1,.46,1.49951,2.03481,2.03481,0,0,1-.46,1.5,2.03353,2.03353,0,0,1-1.5.46045,2.70221,2.70221,0,0,0-1.99316.61181,2.70093,2.70093,0,0,0-.61133,1.99268,2.70219,2.70219,0,0,0,.61133,1.99316,2.70221,2.70221,0,0,0,1.99316.61182A2.03349,2.03349,0,0,1,124.98293,24.20508Zm-21.25977-1.56543a2.03486,2.03486,0,0,1-.46-1.5,2.03431,2.03431,0,0,1,.46-1.49951,2.67349,2.67349,0,0,1,3,0,2.03427,2.03427,0,0,1,.46,1.49951,2.03481,2.03481,0,0,1-.46,1.5,2.67349,2.67349,0,0,1-3,0Zm12.12989-2.99951a2.03431,2.03431,0,0,1,.46,1.49951,2.03486,2.03486,0,0,1-.46,1.5,2.67349,2.67349,0,0,1-3,0,2.03481,2.03481,0,0,1-.46-1.5,2.03427,2.03427,0,0,1,.46-1.49951,2.67349,2.67349,0,0,1,3,0Zm9.12988,0a2.03427,2.03427,0,0,1,.46,1.49951,2.03481,2.03481,0,0,1-.46,1.5,2.67349,2.67349,0,0,1-3,0,2.03481,2.03481,0,0,1-.46-1.5,2.03427,2.03427,0,0,1,.46-1.49951,2.67349,2.67349,0,0,1,3,0Z" style="fill: #d7d7d7"/>
      <path d="M150.36477,24.20508a2.03431,2.03431,0,0,1,.46,1.49951,2.03484,2.03484,0,0,1-.46,1.5,2.67349,2.67349,0,0,1-3,0,2.0348,2.0348,0,0,1-.46-1.5,2.701,2.701,0,0,0-.6123-1.99268,2.70228,2.70228,0,0,0-1.99316-.61181,2.031,2.031,0,0,1-1.499-.46045,2.03074,2.03074,0,0,1-.46094-1.5,2.701,2.701,0,0,0-.61132-1.99268,2.70225,2.70225,0,0,0-1.99317-.61181,2.03355,2.03355,0,0,1-1.5-.46045,2.03486,2.03486,0,0,1-.46-1.5,2.701,2.701,0,0,0-.6123-1.99268,2.70225,2.70225,0,0,0-1.99317-.61182,2.031,2.031,0,0,1-1.499-.46044,2.03075,2.03075,0,0,1-.46094-1.5,2.70093,2.70093,0,0,0-.61133-1.99268,2.70221,2.70221,0,0,0-1.99316-.61182,2.03349,2.03349,0,0,1-1.5-.46045,2.0348,2.0348,0,0,1-.46-1.5,2.03428,2.03428,0,0,1,.46-1.49951,2.67349,2.67349,0,0,1,3,0,2.03428,2.03428,0,0,1,.46,1.49951,2.6981,2.6981,0,0,0,.61231,1.99317,2.69963,2.69963,0,0,0,1.99218.61181,2.032,2.032,0,0,1,1.5.46045,2.03017,2.03017,0,0,1,.46094,1.49952,2.70221,2.70221,0,0,0,.61133,1.99316,2.70222,2.70222,0,0,0,1.99316.61182,2.03349,2.03349,0,0,1,1.5.46045,2.03427,2.03427,0,0,1,.46,1.49951,2.70225,2.70225,0,0,0,.61231,1.99316,2.69968,2.69968,0,0,0,1.99219.61182,2.032,2.032,0,0,1,1.5.46045,2.03019,2.03019,0,0,1,.46093,1.49951,2.70219,2.70219,0,0,0,.61133,1.99316,2.70225,2.70225,0,0,0,1.99317.61182A2.035,2.035,0,0,1,150.36477,24.20508ZM136.66945,15.0752a2.03015,2.03015,0,0,1,.46094,1.49951,2.03069,2.03069,0,0,1-.46094,1.5,2.032,2.032,0,0,1-1.5.46045,2.69963,2.69963,0,0,0-1.99218.61181,2.701,2.701,0,0,0-.61231,1.99268,2.03481,2.03481,0,0,1-.46,1.5,2.67349,2.67349,0,0,1-3,0,2.03481,2.03481,0,0,1-.46-1.5,2.03427,2.03427,0,0,1,.46-1.49951,2.03349,2.03349,0,0,1,1.5-.46045,2.70221,2.70221,0,0,0,1.99316-.61182,2.70219,2.70219,0,0,0,.61133-1.99316,2.03019,2.03019,0,0,1,.46094-1.49951,2.67189,2.67189,0,0,1,2.999,0ZM132.105,24.20508a2.03427,2.03427,0,0,1,.46,1.49951,2.0348,2.0348,0,0,1-.46,1.5,2.67349,2.67349,0,0,1-3,0,2.0348,2.0348,0,0,1-.46-1.5,2.03427,2.03427,0,0,1,.46-1.49951,2.67349,2.67349,0,0,1,3,0Zm18.25977-13.69483a2.03434,2.03434,0,0,1,.46,1.49952,2.03487,2.03487,0,0,1-.46,1.5,2.03506,2.03506,0,0,1-1.5.46044,2.70225,2.70225,0,0,0-1.99317.61182,2.70093,2.70093,0,0,0-.61133,1.99268,2.03074,2.03074,0,0,1-.46093,1.5,2.67191,2.67191,0,0,1-2.999,0,2.03074,2.03074,0,0,1-.46094-1.5,2.03019,2.03019,0,0,1,.46094-1.49951,2.03095,2.03095,0,0,1,1.499-.46045,2.70224,2.70224,0,0,0,1.99316-.61182,2.70227,2.70227,0,0,0,.6123-1.99316,2.03429,2.03429,0,0,1,.46-1.49952,2.67349,2.67349,0,0,1,3,0Zm-3-1.56543a2.0348,2.0348,0,0,1-.46-1.5,2.03428,2.03428,0,0,1,.46-1.49951,2.67349,2.67349,0,0,1,3,0,2.03433,2.03433,0,0,1,.46,1.49951,2.03484,2.03484,0,0,1-.46,1.5,2.67349,2.67349,0,0,1-3,0Z" style="fill: #d7d7d7"/>
    </g>
    <g id="2e1d1de5-6425-4439-85ef-538596a16693" data-name="Text">
      <g>
        <path d="M153.15676,47.93311a3.75158,3.75158,0,0,0,2.55273-1.07813l-.23144,1.54a4.06909,4.06909,0,0,1-2.49707.814,3.27952,3.27952,0,0,1-3.25684-3.98242,4.6604,4.6604,0,0,1,4.5332-3.98242,3.20523,3.20523,0,0,1,2.28809.814l-.24219,1.55127A2.48833,2.48833,0,0,0,154.16848,42.52a3.22068,3.22068,0,0,0-3.05762,2.70654A2.1659,2.1659,0,0,0,153.15676,47.93311Z" style="fill: #d7d7d7"/>
        <path d="M159.42629,40.49609l-1.48438,8.58106h-1.15527l1.45215-8.58106Z" style="fill: #d7d7d7"/>
        <path d="M162.55129,43.90625a2.23189,2.23189,0,0,1,2.28808,2.64063,3.071,3.071,0,0,1-3.03613,2.64013,2.23677,2.23677,0,0,1-2.28906-2.64013A3.0717,3.0717,0,0,1,162.55129,43.90625Zm-.66016,4.22461a1.83268,1.83268,0,0,0,1.73828-1.584,1.25543,1.25543,0,0,0-1.17773-1.58448,1.83233,1.83233,0,0,0-1.73828,1.58448A1.255,1.255,0,0,0,161.89113,48.13086Z" style="fill: #d7d7d7"/>
        <path d="M167.897,48.15283a2.33279,2.33279,0,0,0,1.77051-.83594l-.18652,1.29834a2.72941,2.72941,0,0,1-1.7168.57178,2.24622,2.24622,0,0,1-2.30957-2.64013,3.06456,3.06456,0,0,1,3.04687-2.64063,2.39937,2.39937,0,0,1,1.60645.57227l-.18652,1.30908a1.55575,1.55575,0,0,0-1.45313-.84717,1.87178,1.87178,0,0,0-1.80371,1.60645A1.28676,1.28676,0,0,0,167.897,48.15283Z" style="fill: #d7d7d7"/>
        <path d="M175.76223,44.0166l-2.55274,2.15625,1.83692,2.9043h-1.36426l-1.59473-2.57422-.44043,2.57422h-1.14355l1.45215-8.58106h1.166l-.90234,5.24756,2.0459-1.72705Z" style="fill: #d7d7d7"/>
      </g>
      <g>
        <path d="M58.33547,48.06445a1.30449,1.30449,0,0,0,1.39648-1.188c.02246-.748-.61523-.99023-1.38574-1.34228a2.35878,2.35878,0,0,1-1.70508-2.13428,2.39054,2.39054,0,0,1,2.585-2.15625,2.48827,2.48827,0,0,1,2.40918,1.66114l-1.0664.561a1.546,1.546,0,0,0-1.47461-1.06689.98815.98815,0,0,0-1.12207.91308c-.03321.61572.583.98975,1.45215,1.33106a2.21482,2.21482,0,0,1,1.65039,2.145,2.71561,2.71561,0,0,1-2.80567,2.45361,2.85806,2.85806,0,0,1-2.67285-1.96924l.98926-.68213C56.97121,47.45947,57.45461,48.06445,58.33547,48.06445Z" style="fill: #d7d7d7"/>
        <path d="M62.80129,44.01611l.29687-1.76025h1.17676l-.30762,1.76025h.83594l-.1875,1.04493h-.82519l-.70411,4.01562H61.94289l.68164-4.01562h-.81348l.18653-1.04493Z" style="fill: #d7d7d7"/>
        <path d="M64.75832,46.87646a2.94456,2.94456,0,0,1,2.9707-2.9707,1.9999,1.9999,0,0,1,2.17871,2.22266,2.456,2.456,0,0,1-.12109.69287H65.9468c-.02246.814.374,1.38623,1.18847,1.38623a1.77528,1.77528,0,0,0,1.47364-.80322l.99023.40722a2.90748,2.90748,0,0,1-2.56348,1.375A2.13466,2.13466,0,0,1,64.75832,46.87646Zm1.33105-.88037h2.59668v-.022c0-.72607-.35156-1.166-1.05566-1.166A1.62768,1.62768,0,0,0,66.08937,45.99609Z" style="fill: #d7d7d7"/>
        <path d="M69.9507,51.49707l1.29785-7.481h1.166l-.13184.814a2.21579,2.21579,0,0,1,1.79395-.94629,2.11153,2.11153,0,0,1,1.99121,2.6626,2.94754,2.94754,0,0,1-2.81641,2.66211,1.55291,1.55291,0,0,1-1.52929-1.07813l-.56153,3.3667Zm3.74024-6.53516a1.84178,1.84178,0,0,0-1.69434,1.58448c-.10937.84716.31934,1.562,1.07813,1.584a1.84312,1.84312,0,0,0,1.78222-1.584A1.23109,1.23109,0,0,0,73.69094,44.96191Z" style="fill: #d7d7d7"/>
        <path d="M78.72805,48.2627a.63761.63761,0,0,0,.70507-.59424c.01075-.43994-.48437-.6709-.96875-.85791-.61621-.24219-1.26464-.60547-1.24316-1.46338a1.591,1.591,0,0,1,1.78223-1.44141,2.35429,2.35429,0,0,1,1.85937.89112l-.66015.69335a1.67567,1.67567,0,0,0-1.21-.68212c-.39648,0-.66015.19775-.66015.48388-.02246.396.418.561.92383.77.748.31934,1.36425.66016,1.34277,1.54053a1.71394,1.71394,0,0,1-1.85937,1.62793,2.74479,2.74479,0,0,1-2.21192-1.12207l.748-.68213A1.9437,1.9437,0,0,0,78.72805,48.2627Z" style="fill: #d7d7d7"/>
      </g>
      <g>
        <path d="M26.89016,155.86279a1.30449,1.30449,0,0,0,1.39648-1.188c.02246-.748-.61523-.99023-1.38574-1.34228a2.35876,2.35876,0,0,1-1.70508-2.13428,2.39054,2.39054,0,0,1,2.585-2.15625A2.48828,2.48828,0,0,1,30.19,150.70312l-1.06641.561a1.546,1.546,0,0,0-1.47461-1.06689.98815.98815,0,0,0-1.12207.91308c-.0332.61572.583.98975,1.45215,1.33106a2.21481,2.21481,0,0,1,1.65039,2.145A2.71559,2.71559,0,0,1,26.82375,157.04a2.85806,2.85806,0,0,1-2.67285-1.96924l.98926-.68213C25.5259,155.25781,26.0093,155.86279,26.89016,155.86279Z" style="fill: #d7d7d7"/>
        <path d="M31.356,151.81445l.29687-1.76025h1.17676l-.30762,1.76025h.83594l-.1875,1.04493h-.8252l-.7041,4.01562H30.49758l.68164-4.01562h-.81348l.18653-1.04493Z" style="fill: #d7d7d7"/>
        <path d="M33.313,154.6748a2.944,2.944,0,0,1,2.9707-2.9707,1.9999,1.9999,0,0,1,2.17871,2.22266,2.45606,2.45606,0,0,1-.12109.69287H34.50148c-.02246.814.374,1.38623,1.18848,1.38623a1.77528,1.77528,0,0,0,1.47363-.80322l.99024.40722a2.90748,2.90748,0,0,1-2.56348,1.375A2.13465,2.13465,0,0,1,33.313,154.6748Zm1.33105-.88037h2.59668v-.022c0-.72607-.35156-1.166-1.05566-1.166A1.62767,1.62767,0,0,0,34.64406,153.79443Z" style="fill: #d7d7d7"/>
        <path d="M38.50539,159.29541l1.29785-7.481h1.166l-.13184.814a2.21577,2.21577,0,0,1,1.79395-.94629,2.11153,2.11153,0,0,1,1.99121,2.6626,2.94755,2.94755,0,0,1-2.81641,2.66211,1.55292,1.55292,0,0,1-1.5293-1.07813l-.56152,3.3667Zm3.74023-6.53516a1.84177,1.84177,0,0,0-1.69433,1.58448c-.10938.84716.31933,1.562,1.07812,1.584a1.84313,1.84313,0,0,0,1.78223-1.584A1.2311,1.2311,0,0,0,42.24562,152.76025Z" style="fill: #d7d7d7"/>
      </g>
      <g>
        <path d="M37.13332,302.34766a1.30446,1.30446,0,0,0,1.39648-1.1875c.02247-.74805-.61523-.99024-1.38574-1.34278a2.35866,2.35866,0,0,1-1.70508-2.13379,2.39055,2.39055,0,0,1,2.585-2.15625,2.48766,2.48766,0,0,1,2.40918,1.66114l-1.0664.56054a1.54563,1.54563,0,0,0-1.47461-1.0664.98786.98786,0,0,0-1.12207.91308c-.0332.61524.583.98926,1.45215,1.33106a2.2138,2.2138,0,0,1,1.65039,2.14453,2.71564,2.71564,0,0,1-2.80567,2.4541,2.8585,2.8585,0,0,1-2.67285-1.96973l.98926-.68164C35.76906,301.74316,36.25246,302.34766,37.13332,302.34766Z" style="fill: #d7d7d7"/>
        <path d="M41.59914,298.2998l.29688-1.76074h1.17675l-.30761,1.76074h.83593l-.1875,1.04493H42.5884l-.7041,4.01562H40.74074l.68164-4.01562h-.81347l.18652-1.04493Z" style="fill: #d7d7d7"/>
        <path d="M46.35109,298.18945a1.58357,1.58357,0,0,1,1.55078,1.09961l.165-.98926h1.166l-.87988,5.06055H47.22023l.14258-.84765a2.27314,2.27314,0,0,1-1.82617.957,2.112,2.112,0,0,1-2.002-2.63965A2.95486,2.95486,0,0,1,46.35109,298.18945Zm-.44043,4.2461a1.86248,1.86248,0,0,0,1.69434-1.60547c.11035-.84766-.30762-1.585-1.07813-1.60645a1.86324,1.86324,0,0,0-1.78222,1.60645C44.61281,301.6875,45.05227,302.43555,45.91066,302.43555Z" style="fill: #d7d7d7"/>
        <path d="M52.45559,299.30078c-.53907-.01172-.86915.43945-1.0127.957l-.53906,3.10254h-1.166l.87988-5.06055h1.166l-.09863.57129a1.64344,1.64344,0,0,1,1.19922-.68164,1.21923,1.21923,0,0,1,.87988.39551l-.7041.99024A.91069.91069,0,0,0,52.45559,299.30078Z" style="fill: #d7d7d7"/>
        <path d="M54.71047,298.2998l.29687-1.76074H56.1841l-.30762,1.76074h.83594l-.1875,1.04493h-.82519l-.70411,4.01562H53.85207l.68164-4.01562h-.81348l.18653-1.04493Z" style="fill: #d7d7d7"/>
      </g>
      <g>
        <path d="M187.61281,149.17383a2.08726,2.08726,0,0,1,2.333,2.39844,2.73791,2.73791,0,0,1-2.06836,2.25537l1.584,3.04736h-1.49609l-1.39746-2.91553h-.76953l-.49512,2.91553h-1.27637l1.29786-7.70117Zm-1.1875,1.1333-.44043,2.57422h.94629a1.59847,1.59847,0,0,0,1.69434-1.28711,1.06431,1.06431,0,0,0-1.18848-1.28711Z" style="fill: #d7d7d7"/>
        <path d="M190.34035,154.6748a2.94456,2.94456,0,0,1,2.9707-2.9707,1.99991,1.99991,0,0,1,2.17872,2.22266,2.456,2.456,0,0,1-.1211.69287h-3.83984c-.02246.814.374,1.38623,1.18847,1.38623a1.77528,1.77528,0,0,0,1.47364-.80322l.99023.40722a2.90748,2.90748,0,0,1-2.56348,1.375A2.13466,2.13466,0,0,1,190.34035,154.6748Zm1.33106-.88037h2.59668v-.022c0-.72607-.35157-1.166-1.05567-1.166A1.62767,1.62767,0,0,0,191.67141,153.79443Z" style="fill: #d7d7d7"/>
        <path d="M198.04055,156.061a.63761.63761,0,0,0,.70507-.59424c.01075-.43994-.48437-.6709-.96875-.85791-.61621-.24219-1.26464-.60547-1.24316-1.46338a1.591,1.591,0,0,1,1.78223-1.44141,2.35431,2.35431,0,0,1,1.85937.89111l-.66015.69336a1.67567,1.67567,0,0,0-1.21-.68212c-.39648,0-.66015.19775-.66015.48388-.02246.396.418.561.92383.77.748.31934,1.36425.66016,1.34277,1.54053a1.71394,1.71394,0,0,1-1.85937,1.62793,2.74479,2.74479,0,0,1-2.21192-1.12207l.74805-.68213A1.9437,1.9437,0,0,0,198.04055,156.061Z" style="fill: #d7d7d7"/>
        <path d="M200.60305,154.6748a2.944,2.944,0,0,1,2.9707-2.9707,1.9999,1.9999,0,0,1,2.17871,2.22266,2.45642,2.45642,0,0,1-.12109.69287h-3.83985c-.02246.814.374,1.38623,1.18848,1.38623a1.77528,1.77528,0,0,0,1.47363-.80322l.99024.40722a2.90748,2.90748,0,0,1-2.56348,1.375A2.13465,2.13465,0,0,1,200.60305,154.6748Zm1.33105-.88037h2.59668v-.022c0-.72607-.35156-1.166-1.05566-1.166A1.62767,1.62767,0,0,0,201.9341,153.79443Z" style="fill: #d7d7d7"/>
        <path d="M207.27,151.81445l.29687-1.76025h1.17676l-.30762,1.76025h.83594l-.1875,1.04493h-.82519l-.70411,4.01562h-1.14355l.68164-4.01562h-.81348l.18653-1.04493Z" style="fill: #d7d7d7"/>
      </g>
      <g>
        <path d="M180.55227,295.65918a2.08708,2.08708,0,0,1,2.333,2.39844,2.73732,2.73732,0,0,1-2.06836,2.25488l1.584,3.04785h-1.4961l-1.39746-2.916h-.76953l-.49512,2.916h-1.27636l1.29785-7.70117Zm-1.1875,1.13281-.44043,2.57422h.94628a1.598,1.598,0,0,0,1.69434-1.28711,1.06431,1.06431,0,0,0-1.18848-1.28711Z" style="fill: #d7d7d7"/>
        <path d="M183.2798,301.16016a2.94457,2.94457,0,0,1,2.97071-2.97071,1.99969,1.99969,0,0,1,2.17871,2.22266,2.45232,2.45232,0,0,1-.1211.69238h-3.83984c-.02246.81446.374,1.38672,1.18848,1.38672a1.77571,1.77571,0,0,0,1.47363-.80371l.99023.40723a2.9075,2.9075,0,0,1-2.56347,1.375A2.13428,2.13428,0,0,1,183.2798,301.16016Zm1.33106-.88086h2.59668v-.02149c0-.72656-.35156-1.166-1.05567-1.166A1.62722,1.62722,0,0,0,184.61086,300.2793Z" style="fill: #d7d7d7"/>
        <path d="M191.44289,302.43555a2.3312,2.3312,0,0,0,1.77051-.83594l-.18653,1.29883a2.73209,2.73209,0,0,1-1.71679.57129,2.24584,2.24584,0,0,1-2.30957-2.63965,3.06456,3.06456,0,0,1,3.04687-2.64063,2.397,2.397,0,0,1,1.60645.57227l-.18653,1.30859a1.55618,1.55618,0,0,0-1.45312-.84668,1.87134,1.87134,0,0,0-1.80371,1.60645A1.28637,1.28637,0,0,0,191.44289,302.43555Z" style="fill: #d7d7d7"/>
      </g>
      <g>
        <path d="M111.58254,261.34668a3.269,3.269,0,0,1,3.25586,3.98242,4.68357,4.68357,0,0,1-4.53223,4.01563,3.29616,3.29616,0,0,1-3.25683-4.01563A4.68082,4.68082,0,0,1,111.58254,261.34668Zm-1.14453,6.71094a3.176,3.176,0,0,0,3.03613-2.72852c.21973-1.4082-.4834-2.71777-2.02441-2.72851a3.176,3.176,0,0,0-3.03614,2.72851A2.1393,2.1393,0,0,0,110.438,268.05762Z" style="fill: #d7d7d7"/>
        <path d="M117.49953,268.32129a1.285,1.285,0,0,0,1.29785-1.07813l.54981-3.124h1.17773l-.86914,5.06055H118.4673l.1211-.748a1.84811,1.84811,0,0,1-1.5625.85742c-1.14356,0-1.57324-.89062-1.41895-1.958l.54981-3.21191h1.18847l-.52832,3.08008C116.73977,267.793,116.86086,268.32129,117.49953,268.32129Z" style="fill: #d7d7d7"/>
        <path d="M122.09816,264.11914l.29688-1.76074h1.17676l-.30762,1.76074h.83594l-.1875,1.04492h-.8252l-.7041,4.01563h-1.14355l.68164-4.01563h-.81348l.18652-1.04492Z" style="fill: #d7d7d7"/>
      </g>
      <g>
        <path d="M155.57082,277.68164h5.2373l-.209,1.19922h-1.96973l-1.11132,6.502h-1.29786l1.12207-6.502h-1.98046Z" style="fill: #d7d7d7"/>
        <path d="M162.106,281.32324c-.53907-.01074-.86914.44043-1.0127.957l-.53906,3.10254h-1.166l.87989-5.06054h1.167l-.09961.57226a1.64472,1.64472,0,0,1,1.19922-.68262,1.21643,1.21643,0,0,1,.87988.39649l-.7041.99023A.90731.90731,0,0,0,162.106,281.32324Z" style="fill: #d7d7d7"/>
        <path d="M165.50441,280.32227l-.85839,5.06054H163.48l.84766-5.06054Zm-.24218-2.72852a.716.716,0,1,1-.748.71484A.72177.72177,0,0,1,165.26223,277.59375Z" style="fill: #d7d7d7"/>
        <path d="M167.00051,285.73535a1.0648,1.0648,0,0,0,1.166,1.1875,1.814,1.814,0,0,0,1.73828-1.64941l.1211-.7041a2.28413,2.28413,0,0,1-1.77149.85742,2.08108,2.08108,0,0,1-2.00195-2.59571,2.94293,2.94293,0,0,1,2.81641-2.61914,1.589,1.589,0,0,1,1.54,1.03418l.15429-.92382h1.14356l-.83594,4.95117a2.93333,2.93333,0,0,1-2.92676,2.68359,2.0338,2.0338,0,0,1-2.28808-2.2334Zm1.62793-1.34277a1.82013,1.82013,0,0,0,1.66113-1.375l.05566-.27442a1.24261,1.24261,0,0,0-1.10058-1.49707,1.82733,1.82733,0,0,0-1.78223,1.585A1.21323,1.21323,0,0,0,168.62844,284.39258Z" style="fill: #d7d7d7"/>
      </g>
      <g>
        <path d="M202.25734,281.35742h3.58692c-.33008,2.18946-1.84864,4.19141-4.3125,4.19141a3.29639,3.29639,0,0,1-3.30078-4.01563,4.66291,4.66291,0,0,1,4.58789-3.98242,3.17126,3.17126,0,0,1,2.9707,1.7168l-1.13379.7041a2.03749,2.03749,0,0,0-1.958-1.21094,3.25225,3.25225,0,0,0-3.11328,2.77246c-.2207,1.47461.53906,2.79492,2.0791,2.79492a2.861,2.861,0,0,0,2.64063-1.87011h-2.24414Z" style="fill: #d7d7d7"/>
        <path d="M209.20949,280.21289a1.58437,1.58437,0,0,1,1.55078,1.10059l.165-.99024h1.166l-.87989,5.06055h-1.13281l.14258-.84668a2.27312,2.27312,0,0,1-1.82617.957,2.11246,2.11246,0,0,1-2.00195-2.64062A2.95486,2.95486,0,0,1,209.20949,280.21289Zm-.44043,4.24707a1.86251,1.86251,0,0,0,1.69434-1.60644c.11035-.84668-.30762-1.584-1.07813-1.60645a1.86413,1.86413,0,0,0-1.78222,1.60645C207.47121,283.71191,207.91066,284.46,208.76906,284.46Z" style="fill: #d7d7d7"/>
        <path d="M213.60988,280.32324l.29688-1.75976h1.17676l-.30762,1.75976h.83594l-.1875,1.04492h-.8252l-.7041,4.01563h-1.14356l.68164-4.01563h-.81347l.18652-1.04492Z" style="fill: #d7d7d7"/>
        <path d="M215.56691,283.18359a2.94457,2.94457,0,0,1,2.97071-2.9707,2.00012,2.00012,0,0,1,2.17871,2.22266,2.4597,2.4597,0,0,1-.1211.69336h-3.83984c-.02246.81347.374,1.38574,1.18848,1.38574a1.77481,1.77481,0,0,0,1.47363-.80274l.99023.40723a2.90748,2.90748,0,0,1-2.56347,1.375A2.135,2.135,0,0,1,215.56691,283.18359Zm1.33106-.87988h2.59668v-.02246c0-.72559-.35156-1.166-1.05567-1.166A1.62814,1.62814,0,0,0,216.898,282.30371Z" style="fill: #d7d7d7"/>
      </g>
      <g>
        <path d="M15.731,277.68262h5.2373l-.209,1.19922H18.78957l-1.11133,6.50195H16.38039l1.12207-6.50195H15.522Z" style="fill: #d7d7d7"/>
        <path d="M22.26613,281.32422c-.53906-.01172-.86914.43945-1.01269.957l-.53907,3.10254h-1.166l.87988-5.06055h1.167l-.09961.57129a1.64343,1.64343,0,0,1,1.19922-.68164,1.21925,1.21925,0,0,1,.87989.39551l-.70411.99023A.91066.91066,0,0,0,22.26613,281.32422Z" style="fill: #d7d7d7"/>
        <path d="M25.66457,280.32324l-.8584,5.06055h-1.166l.84765-5.06055Zm-.24219-2.72851a.71558.71558,0,1,1-.748.71484A.72117.72117,0,0,1,25.42238,277.59473Z" style="fill: #d7d7d7"/>
        <path d="M27.16066,285.73535a1.0651,1.0651,0,0,0,1.166,1.18848,1.81492,1.81492,0,0,0,1.73828-1.65039l.12109-.7041a2.282,2.282,0,0,1-1.77148.85839,2.0815,2.0815,0,0,1-2.002-2.59668,2.942,2.942,0,0,1,2.8164-2.61816,1.58644,1.58644,0,0,1,1.54,1.03418l.1543-.92383h1.14355l-.83593,4.9502a2.9342,2.9342,0,0,1-2.92676,2.68457,2.03381,2.03381,0,0,1-2.28809-2.2334Zm1.62793-1.3418a1.82133,1.82133,0,0,0,1.66114-1.375l.05566-.27539a1.24171,1.24171,0,0,0-1.10059-1.49609,1.82556,1.82556,0,0,0-1.78222,1.584A1.21367,1.21367,0,0,0,28.78859,284.39355Z" style="fill: #d7d7d7"/>
      </g>
      <g>
        <path d="M62.59035,281.35742h3.58692c-.33008,2.18848-1.84864,4.19141-4.3125,4.19141A3.2964,3.2964,0,0,1,58.564,281.5332a4.662,4.662,0,0,1,4.58789-3.98242,3.17051,3.17051,0,0,1,2.97071,1.71582l-1.13379.7041a2.0375,2.0375,0,0,0-1.958-1.21093,3.25224,3.25224,0,0,0-3.11328,2.77343c-.2207,1.47364.53906,2.79395,2.0791,2.79395a2.85958,2.85958,0,0,0,2.64063-1.87012H62.39309Z" style="fill: #d7d7d7"/>
        <path d="M69.5425,280.21289a1.58358,1.58358,0,0,1,1.55078,1.09961l.165-.99023h1.166l-.87989,5.06054H70.41164l.14258-.84668a2.27313,2.27313,0,0,1-1.82617.957,2.112,2.112,0,0,1-2.002-2.63964A2.954,2.954,0,0,1,69.5425,280.21289Zm-.44043,4.24609a1.86248,1.86248,0,0,0,1.69434-1.60546c.11035-.84766-.30762-1.585-1.07813-1.60743a1.86508,1.86508,0,0,0-1.78223,1.60743C67.80422,283.71094,68.24367,284.459,69.10207,284.459Z" style="fill: #d7d7d7"/>
        <path d="M73.94289,280.32227l.29688-1.75977h1.17675l-.30761,1.75977h.83593l-.1875,1.04492h-.82519l-.7041,4.01562H73.08449l.68164-4.01562h-.81347l.18652-1.04492Z" style="fill: #d7d7d7"/>
        <path d="M75.89992,283.18359a2.944,2.944,0,0,1,2.9707-2.9707,1.99969,1.99969,0,0,1,2.17872,2.22266,2.45232,2.45232,0,0,1-.1211.69238H77.0884c-.02246.81348.374,1.38574,1.18847,1.38574a1.77483,1.77483,0,0,0,1.47364-.80273l.99023.40722a2.90748,2.90748,0,0,1-2.56347,1.375A2.13476,2.13476,0,0,1,75.89992,283.18359Zm1.33106-.88086h2.59668v-.02148c0-.72656-.35157-1.166-1.05567-1.166A1.62722,1.62722,0,0,0,77.231,282.30273Z" style="fill: #d7d7d7"/>
      </g>
      <g>
        <path d="M113.979,119.74561l-1.34179,7.70117h-1.27637l1.29785-7.70117Z" style="fill: #d7d7d7"/>
        <path d="M117.19094,123.24414a1.28376,1.28376,0,0,0-1.28711,1.08936l-.53906,3.11328h-1.18848l.87988-5.06055h1.17774l-.1211.74805a1.83307,1.83307,0,0,1,1.5625-.8584c1.1543,0,1.584.88037,1.42969,1.9585l-.54981,3.2124h-1.21l.54981-3.08057C117.97219,123.77246,117.85109,123.24414,117.19094,123.24414Z" style="fill: #d7d7d7"/>
      </g>
      <g>
        <path d="M199.24074,55.0708h-2.751l-1.18848,1.98047h-1.48438l5.082-8.14111,2.25586,8.14111h-1.4082Zm-2.20117-1.1001H199.064l-.59375-2.44238Z" style="fill: #d7d7d7"/>
        <path d="M203.90383,56.19336a1.285,1.285,0,0,0,1.29785-1.07813l.5498-3.12451h1.17774l-.86914,5.06055H204.8716l.12109-.748a1.84741,1.84741,0,0,1-1.5625.85791c-1.14355,0-1.57324-.89111-1.41894-1.958l.5498-3.2124h1.18848l-.52832,3.08008C203.14406,55.665,203.26516,56.19336,203.90383,56.19336Z" style="fill: #d7d7d7"/>
        <path d="M208.50246,51.99072l.29688-1.76025h1.17675l-.30761,1.76025h.83593l-.1875,1.04492h-.82519l-.7041,4.01563h-1.14356l.68164-4.01563h-.81347l.18652-1.04492Z" style="fill: #d7d7d7"/>
        <path d="M213.54055,51.88037a2.2319,2.2319,0,0,1,2.28808,2.64063,3.071,3.071,0,0,1-3.03613,2.64013,2.23723,2.23723,0,0,1-2.28906-2.64013A3.0717,3.0717,0,0,1,213.54055,51.88037Zm-.66016,4.22461a1.83268,1.83268,0,0,0,1.73828-1.584,1.25543,1.25543,0,0,0-1.17773-1.58448,1.83234,1.83234,0,0,0-1.73828,1.58448A1.255,1.255,0,0,0,212.88039,56.105Z" style="fill: #d7d7d7"/>
        <path d="M197.5132,67.03906a1.3045,1.3045,0,0,0,1.39649-1.188c.02246-.748-.61524-.99023-1.38575-1.34228a2.35875,2.35875,0,0,1-1.70507-2.13428,2.39053,2.39053,0,0,1,2.585-2.15625,2.48829,2.48829,0,0,1,2.40918,1.66113l-1.06641.561a1.546,1.546,0,0,0-1.47461-1.06689.98815.98815,0,0,0-1.12207.91308c-.0332.61572.583.98975,1.45215,1.33106a2.21481,2.21481,0,0,1,1.65039,2.145,2.7156,2.7156,0,0,1-2.80566,2.45361,2.85807,2.85807,0,0,1-2.67286-1.96924l.98926-.68213C196.14894,66.43408,196.63234,67.03906,197.5132,67.03906Z" style="fill: #d7d7d7"/>
        <path d="M201.979,62.99072l.29688-1.76025h1.17676l-.30762,1.76025h.83594l-.1875,1.04492h-.8252l-.7041,4.01563h-1.14356l.68165-4.01563h-.81348l.18652-1.04492Z" style="fill: #d7d7d7"/>
        <path d="M207.01711,62.88037a2.23189,2.23189,0,0,1,2.28808,2.64063,3.071,3.071,0,0,1-3.03613,2.64013A2.23723,2.23723,0,0,1,203.98,65.521,3.0717,3.0717,0,0,1,207.01711,62.88037ZM206.357,67.105a1.83268,1.83268,0,0,0,1.73828-1.584,1.25543,1.25543,0,0,0-1.17773-1.58448,1.83234,1.83234,0,0,0-1.73828,1.58448A1.255,1.255,0,0,0,206.357,67.105Z" style="fill: #d7d7d7"/>
        <path d="M209.39211,70.47168l1.29785-7.481h1.166l-.13184.814a2.21577,2.21577,0,0,1,1.79395-.94629,2.11153,2.11153,0,0,1,1.99121,2.6626,2.94755,2.94755,0,0,1-2.81641,2.66211,1.55292,1.55292,0,0,1-1.5293-1.07813l-.56152,3.3667Zm3.74023-6.53516A1.84177,1.84177,0,0,0,211.438,65.521c-.10938.84716.31933,1.562,1.07812,1.584a1.84313,1.84313,0,0,0,1.78223-1.584A1.2311,1.2311,0,0,0,213.13234,63.93652Z" style="fill: #d7d7d7"/>
      </g>
      <g>
        <path d="M21.83352,60.3501c1.54,0,2.51953.94629,2.32128,2.39844a2.86607,2.86607,0,0,1-3.05859,2.3872H20.07375l-.49512,2.91553H18.30227l1.29785-7.70117Zm-1.13282,1.144L20.271,63.9917h.93554a1.59243,1.59243,0,0,0,1.69434-1.24316c.13183-.78125-.374-1.2544-1.18848-1.2544Z" style="fill: #d7d7d7"/>
        <path d="M26.85012,63.9917c-.53907-.01123-.86914.43994-1.0127.957l-.53906,3.10254h-1.166l.87989-5.06055h1.167l-.09961.57178a1.64407,1.64407,0,0,1,1.19922-.68213,1.21783,1.21783,0,0,1,.87988.396l-.7041.99023A.909.909,0,0,0,26.85012,63.9917Z" style="fill: #d7d7d7"/>
        <path d="M28.01516,65.85107a2.944,2.944,0,0,1,2.9707-2.9707A1.9999,1.9999,0,0,1,33.16457,65.103a2.45642,2.45642,0,0,1-.12109.69287H29.20363c-.02246.814.374,1.38623,1.18848,1.38623a1.77528,1.77528,0,0,0,1.47363-.80322l.99024.40722a2.90748,2.90748,0,0,1-2.56348,1.375A2.13465,2.13465,0,0,1,28.01516,65.85107Zm1.331-.88037h2.59668v-.022c0-.72607-.35156-1.166-1.05566-1.166A1.62768,1.62768,0,0,0,29.34621,64.9707Z" style="fill: #d7d7d7"/>
      </g>
      <g>
        <path d="M19.67727,100.15918c1.54,0,2.51953.94629,2.32128,2.39844a2.86607,2.86607,0,0,1-3.05859,2.3872H17.9175l-.49512,2.91553H16.146l1.29785-7.70117Zm-1.13282,1.144-.42968,2.49756h.93554a1.59243,1.59243,0,0,0,1.69434-1.24316c.13183-.78125-.374-1.2544-1.18848-1.2544Z" style="fill: #d7d7d7"/>
        <path d="M25.03469,102.68945a2.23189,2.23189,0,0,1,2.28808,2.64063,3.071,3.071,0,0,1-3.03613,2.64013,2.23723,2.23723,0,0,1-2.28906-2.64013A3.0717,3.0717,0,0,1,25.03469,102.68945Zm-.66016,4.22461a1.83268,1.83268,0,0,0,1.73828-1.584,1.25542,1.25542,0,0,0-1.17773-1.58447,1.83233,1.83233,0,0,0-1.73828,1.58447A1.255,1.255,0,0,0,24.37453,106.91406Z" style="fill: #d7d7d7"/>
        <path d="M29.9175,107.04639a.63762.63762,0,0,0,.70508-.59424c.01074-.43994-.48438-.6709-.96875-.85791-.61621-.24219-1.26465-.60547-1.24317-1.46338a1.591,1.591,0,0,1,1.78223-1.44141,2.35433,2.35433,0,0,1,1.85938.89112l-.66016.69336a1.67565,1.67565,0,0,0-1.21-.68213c-.39649,0-.66016.19775-.66016.48388-.02246.396.418.561.92383.77.748.31934,1.36426.66016,1.34277,1.54053a1.71394,1.71394,0,0,1-1.85937,1.62793,2.74476,2.74476,0,0,1-2.21192-1.12207l.748-.68213A1.94369,1.94369,0,0,0,29.9175,107.04639Z" style="fill: #d7d7d7"/>
        <path d="M33.4048,102.7998l.29688-1.76025h1.17676l-.30762,1.76025h.83594l-.1875,1.04493h-.8252l-.7041,4.01562H32.54641l.68164-4.01562h-.81348l.18652-1.04493Z" style="fill: #d7d7d7"/>
      </g>
    </g>
    <g id="4e11a607-117f-43c4-a14a-2e09e534c6e3" data-name="Logo">
      <g>
        <polygon points="111.669 345.732 109.315 345.732 109.315 348.086 109.315 350.441 109.315 352.795 109.315 355.149 111.669 355.149 111.669 352.795 111.669 350.441 114.023 350.441 114.023 348.086 116.377 348.086 116.377 345.732 114.023 345.732 111.669 345.732" style="fill: #d7d7d7"/>
        <polygon points="114.023 355.149 116.377 355.149 118.731 355.149 121.085 355.149 121.085 352.795 121.085 350.441 121.085 348.087 121.085 345.732 118.731 345.732 118.731 348.087 118.731 350.441 116.377 350.441 116.377 352.795 114.023 352.795 114.023 355.149" style="fill: #d7d7d7"/>
        <polygon points="123.439 342.156 106.961 342.156 106.961 343.424 123.439 343.424 123.439 357.476 106.961 357.476 106.961 342.156 105.783 342.156 105.783 358.654 106.961 358.654 124.617 358.654 124.617 357.476 124.617 342.156 123.439 342.156" style="fill: #d7d7d7"/>
      </g>
    </g>
    <g id="2ef3c739-dbbe-4bd2-aaf2-c0a7cd07589f" data-name="Legend">
      <circle cx="115.2" cy="102.75879" r="13.63575" style="fill: none;stroke: #b1ff78;stroke-miterlimit: 10"/>
      <circle cx="162.3685" cy="66.37988" r="13.63575" style="fill: none;stroke: #b1ff78;stroke-miterlimit: 10"/>
      <circle cx="68.0315" cy="66.37988" r="13.63575" style="fill: none;stroke: #b1ff78;stroke-miterlimit: 10"/>
      <circle cx="33.74577" cy="212.53063" r="13.63575" style="fill: none;stroke: #b1ff78;stroke-miterlimit: 10"/>
      <circle cx="196.38425" cy="212.53063" r="13.63575" style="fill: none;stroke: #b1ff78;stroke-miterlimit: 10"/>
      <circle cx="185.04567" cy="320.95292" r="13.63575" style="fill: none;stroke: #b1ff78;stroke-miterlimit: 10"/>
      <circle cx="45.35433" cy="320.95292" r="13.63575" style="fill: none;stroke: #b1ff78;stroke-miterlimit: 10"/>
      <g>
        <line x1="34.01573" y1="198.89488" x2="34.01573" y2="192.65727" style="fill: none;stroke: #b1ff78;stroke-miterlimit: 10"/>
        <polygon points="35.711 194.649 34.016 192.953 32.32 194.649 32.32 193.21 34.016 191.514 35.711 193.21 35.711 194.649" style="fill: #b1ff78"/>
      </g>
      <g>
        <line x1="196.38426" y1="198.89488" x2="196.38426" y2="192.65727" style="fill: none;stroke: #b1ff78;stroke-miterlimit: 10"/>
        <polygon points="198.08 194.649 196.384 192.953 194.689 194.649 194.689 193.21 196.384 191.514 198.08 193.21 198.08 194.649" style="fill: #b1ff78"/>
      </g>
    </g>
  </g>
</svg>
