<svg xmlns="http://www.w3.org/2000/svg" width="50.85mm" height="128.49998mm" viewBox="0 0 144.14173 364.25192">
  <title>Lilt</title>
  <g id="ecae6fe4-05bd-4ff8-bf9d-3639456db1bd" data-name="Lilt">
    <rect id="0a265dfb-f834-478a-b132-bb7345e69bcb" data-name="BG" width="144.14173" height="364.25197" style="fill: #2a2d30"/>
    <g id="63e5ec5e-6123-45f1-b448-7fc5e27b7d0f" data-name="Logo">
      <g>
        <polygon points="68.54 345.732 66.186 345.732 66.186 348.086 66.186 350.441 66.186 352.795 66.186 355.149 68.54 355.149 68.54 352.795 68.54 350.441 70.894 350.441 70.894 348.086 73.248 348.086 73.248 345.732 70.894 345.732 68.54 345.732" style="fill: #d7d7d7"/>
        <polygon points="70.894 355.149 73.248 355.149 75.602 355.149 77.956 355.149 77.956 352.795 77.956 350.441 77.956 348.087 77.956 345.732 75.602 345.732 75.602 348.087 75.602 350.441 73.248 350.441 73.248 352.795 70.894 352.795 70.894 355.149" style="fill: #d7d7d7"/>
        <polygon points="80.31 342.156 63.831 342.156 63.831 343.424 80.31 343.424 80.31 357.476 63.831 357.476 63.831 342.156 62.654 342.156 62.654 358.654 63.831 358.654 81.487 358.654 81.487 357.476 81.487 342.156 80.31 342.156" style="fill: #d7d7d7"/>
      </g>
    </g>
    <g>
      <path d="M49.24535,30.002c-2.38867,0-4.92285.23291-6.4082.23291-1.07715,0-1.77637-.52441-1.77637-1.28174,0-1.36865,1.04883-1.13574,2.24219-2.709.72851-.96094.90332-3.146.90332-5.59277v-2.8252c0-2.44678-.17481-4.63183-.90332-5.59277-1.19336-1.57324-1.95118-1.63135-1.95118-2.59278,0-.87353.69922-1.39794,1.77637-1.39794.874,0,1.98145.23291,3.20508.23291,1.25195,0,2.00977-.23291,3.2041-.23291,1.07715,0,1.77637.52441,1.77637,1.39794,0,.96143-.75684,1.01954-1.95117,2.59278-.72852.96094-.90332,3.146-.90332,5.59277v4.57324c0,2.88379.1455,5.06836,2.82519,5.06836,2.33106,0,3.75781-1.39843,5.47656-4.311.90332-1.54395,1.51465-2.50537,2.47559-2.30127,1.01953.2041,1.34082,2.82568,1.04883,5.68017-.291,2.82569-1.45606,3.72852-3,3.72852S51.60472,30.002,49.24535,30.002Z" style="fill: #d7d7d7"/>
      <path d="M62.14965,28.95312c0-1.36865,1.48535-1.22314,2.53418-2.62158.72851-.96093.90332-2.03906.90332-3.90332,0-3.49511-1.98047-2.67968-2.79688-4.04883a1.2974,1.2974,0,0,1,.52441-1.74755c.69922-.52442,2.00977-.96143,3.32129-1.74805,2.03907-1.22315,2.8545-1.31055,3.55371-.66992.81543.75732.46583,2.18506.20313,3.2915a13.66822,13.66822,0,0,0-.55273,4.19483c0,2.62158.1455,3.64111.90234,4.63134.75781.99073,1.92285,1.39844,1.86426,2.50537a1.55778,1.55778,0,0,1-1.68946,1.48536c-.873,0-1.95117-.23291-3.2041-.23291-1.22265,0-2.30078.23291-3.78613.23291C62.84886,30.32227,62.14965,29.71045,62.14965,28.95312ZM67.74242,5.53369a3.10233,3.10233,0,1,1-3.11621,3.0874A3.12086,3.12086,0,0,1,67.74242,5.53369Z" style="fill: #d7d7d7"/>
      <path d="M74.79125,28.95312c0-1.36865,1.04883-1.13574,2.24316-2.709.72754-.96094.90235-3.146.90235-5.59277V17.18506c0-6.08789-2.00977-5.27246-2.8252-6.64111A1.2971,1.2971,0,0,1,75.636,8.7959c.69922-.52442,2.00977-.96094,3.32032-1.74756,2.03906-1.22363,2.85547-1.311,3.55371-.66992.8164.75732.46679,2.18457.2041,3.2915-.291,1.165-.52442,1.981-.52442,7.36963v3.61182c0,2.44677.17481,4.63183.90333,5.59277,1.19433,1.57324,2.24316,1.34033,2.24316,2.709,0,.75733-.69922,1.28174-1.77734,1.28174-1.165,0-2.24317-.23291-3.49512-.23291-1.22363,0-2.00977.23291-3.49512.23291C75.49047,30.23486,74.79125,29.71045,74.79125,28.95312Z" style="fill: #d7d7d7"/>
      <path d="M89.20922,22.0498c.3789-6.292-1.71875-4.02-2.53418-5.38916a1.29663,1.29663,0,0,1,.52441-1.74755,34.59151,34.59151,0,0,0,3.0293-2.03907c1.457-1.22314,2.27246-2.79638,3.4082-2.21386.84473.437.69922,1.45654.4375,2.79638-.05859.34961-.14648.75733-.2041,1.19434l6.37891-.17481c.96093-.0288,1.19433.437.84472,1.10694-.81543,1.60205-1.10644,2.56347-3.583,2.38867l-3.93164-.2915c-.05859.81591-.11718,1.57324-.11718,2.09765-.08692,4.16553,1.457,6.75781,3.6123,6.75781a4.46826,4.46826,0,0,0,3.32031-1.25244c.61231-.52441.874-.61181,1.22364-.34961.43652.32032.3789.66993,0,1.36914a7.56631,7.56631,0,0,1-6.84571,4.22364C91.24828,30.52637,88.9182,26.94336,89.20922,22.0498Z" style="fill: #d7d7d7"/>
    </g>
    <g id="92f9c04d-e6ab-46c5-ba43-9f5eea651a1f" data-name="Text">
      <g>
        <path d="M81.92992,112.27734H79.48851l1.32032-7.70117h2.22168c1.29785,0,2.31054.63819,2.1123,1.93653a2.047,2.047,0,0,1-1.50781,1.606,1.67268,1.67268,0,0,1,1.332,1.93653C84.74633,111.55127,83.44847,112.27734,81.92992,112.27734Zm-.53906-3.60839-.43946,2.541,1.001-.01074a1.614,1.614,0,0,0,1.72754-1.27637c.13184-.792-.42969-1.24316-1.23242-1.24316Zm.17578-.99024.85937-.01123a1.31877,1.31877,0,0,0,1.38575-1.01172c.11035-.61621-.33008-1.00146-.96778-1.00146l-.9248-.01075Z" style="fill: #d7d7d7"/>
        <path d="M85.87914,110.07715a2.94394,2.94394,0,0,1,2.9707-2.9707,1.99919,1.99919,0,0,1,2.17774,2.22265,2.456,2.456,0,0,1-.1211.69287H87.06664c-.02149.814.375,1.38623,1.18847,1.38623a1.774,1.774,0,0,0,1.47364-.80322l.99023.40723a2.90467,2.90467,0,0,1-2.5625,1.375A2.13465,2.13465,0,0,1,85.87914,110.07715Zm1.331-.88037h2.59668v-.022c0-.72607-.35254-1.166-1.05664-1.166A1.62742,1.62742,0,0,0,87.21019,109.19678Z" style="fill: #d7d7d7"/>
        <path d="M92.54515,107.2168l.29688-1.76026h1.17676l-.30762,1.76026h.83594l-.1875,1.04492h-.82422l-.70508,4.01562H91.68676l.68261-4.01562h-.81445l.18652-1.04492Z" style="fill: #d7d7d7"/>
        <path d="M97.29711,107.10645a1.584,1.584,0,0,1,1.55078,1.10009l.165-.98974h1.167l-.88086,5.06054H98.16625l.14258-.84716a2.27178,2.27178,0,0,1-1.82618.957,2.11271,2.11271,0,0,1-2.002-2.64014A2.95486,2.95486,0,0,1,97.29711,107.10645Zm-.44043,4.24658a1.86249,1.86249,0,0,0,1.69433-1.606c.10938-.84717-.30859-1.58447-1.07812-1.60645a1.86449,1.86449,0,0,0-1.78223,1.60645C95.55883,110.605,95.99828,111.353,96.85668,111.353Z" style="fill: #d7d7d7"/>
        <path d="M106.7014,111.26514a1.30609,1.30609,0,0,0,1.39746-1.188c.02247-.74805-.61621-.99024-1.38574-1.34229a2.35752,2.35752,0,0,1-1.70508-2.13427,2.3902,2.3902,0,0,1,2.584-2.15625,2.48958,2.48958,0,0,1,2.41015,1.66113l-1.06738.561a1.54475,1.54475,0,0,0-1.47363-1.06689.98908.98908,0,0,0-1.123.91309c-.0332.61572.584.98974,1.45313,1.33105a2.21591,2.21591,0,0,1,1.65039,2.145,2.71654,2.71654,0,0,1-2.80664,2.45361,2.858,2.858,0,0,1-2.67285-1.96924l.99023-.68212C105.33812,110.66016,105.82152,111.26514,106.7014,111.26514Z" style="fill: #d7d7d7"/>
        <path d="M113.17992,108.07471a1.344,1.344,0,0,0-1.29688,1.07812l-.53906,3.12451h-1.18945l1.47461-8.581h1.18847l-.72558,4.22461a1.87739,1.87739,0,0,1,1.56152-.83643c1.14356,0,1.55176.84717,1.40821,1.94727l-.56153,3.2456h-1.17676l.54981-3.08056C113.93968,108.603,113.81859,108.09668,113.17992,108.07471Z" style="fill: #d7d7d7"/>
        <path d="M118.08617,107.2168l-.85742,5.06054h-1.166l.8457-5.06054Zm-.24219-2.72852a.71582.71582,0,1,1-.74805.71484A.72147.72147,0,0,1,117.844,104.48828Z" style="fill: #d7d7d7"/>
        <path d="M119.76976,107.2168l.31836-1.87061a1.87192,1.87192,0,0,1,1.8711-1.78223,1.40472,1.40472,0,0,1,1.07812.50635l-.68262.90186a.56708.56708,0,0,0-.46191-.28613c-.38477,0-.61621.41845-.68164.90234l-.27539,1.62842h1.14453l-.1875,1.04492h-1.14453l-.68164,4.01562h-1.166l.69336-4.01562h-.53906l.18652-1.04492Z" style="fill: #d7d7d7"/>
        <path d="M123.06859,107.2168l.29688-1.76026h1.17773l-.30859,1.76026h.83691l-.18652,1.04492h-.82617l-.70313,4.01562h-1.14453l.68164-4.01562h-.81445l.1875-1.04492Z" style="fill: #d7d7d7"/>
      </g>
      <g>
        <path d="M93.93578,303.24512H91.4934l1.32031-7.70117h2.22265c1.29786,0,2.31055.63769,2.11231,1.93652a2.04955,2.04955,0,0,1-1.50781,1.60644,1.67243,1.67243,0,0,1,1.332,1.93555C96.75218,302.51855,95.45433,303.24512,93.93578,303.24512Zm-.53906-3.6084-.43946,2.541,1.001-.01074a1.61275,1.61275,0,0,0,1.72656-1.27637c.13281-.792-.42871-1.24316-1.23144-1.24316Zm.17578-.99024.8584-.01074a1.319,1.319,0,0,0,1.38671-1.01269c.10938-.61621-.33007-1.001-.96875-1.001l-.92382-.01074Z" style="fill: #d7d7d7"/>
        <path d="M97.884,301.04492a2.94456,2.94456,0,0,1,2.9707-2.9707,1.99968,1.99968,0,0,1,2.17871,2.22265,2.46607,2.46607,0,0,1-.12109.69336H99.0725c-.02149.81348.374,1.38575,1.18847,1.38575a1.77721,1.77721,0,0,0,1.47364-.80274l.99023.40625a2.90385,2.90385,0,0,1-2.56348,1.376A2.13552,2.13552,0,0,1,97.884,301.04492Zm1.332-.87988h2.59571v-.02246c0-.72559-.35157-1.166-1.05567-1.166A1.62788,1.62788,0,0,0,99.21605,300.165Z" style="fill: #d7d7d7"/>
        <path d="M104.55,298.18457l.29687-1.76074h1.17774l-.3086,1.76074h.83692l-.1875,1.04492h-.8252l-.7041,4.01563h-1.14356l.68165-4.01563h-.81446l.1875-1.04492Z" style="fill: #d7d7d7"/>
        <path d="M109.302,298.07422a1.58356,1.58356,0,0,1,1.55176,1.10058l.165-.99023h1.166l-.87988,5.06055h-1.13379l.14355-.84668a2.2731,2.2731,0,0,1-1.82617.957,2.11391,2.11391,0,0,1-2.00293-2.64063A2.95564,2.95564,0,0,1,109.302,298.07422Zm-.43945,4.24707a1.86336,1.86336,0,0,0,1.69433-1.60645c.10938-.84765-.30859-1.584-1.07812-1.60644a1.86414,1.86414,0,0,0-1.78223,1.60644C107.56371,301.57324,108.00414,302.32129,108.86254,302.32129Z" style="fill: #d7d7d7"/>
      </g>
      <g>
        <path d="M33.36547,301.26465h-2.75L29.427,303.24512H27.94164l5.083-8.1416,2.25488,8.1416h-1.4082Zm-2.2002-1.09961h2.02441l-.59375-2.44238Z" style="fill: #d7d7d7"/>
        <path d="M38.68968,294.66406l-1.48535,8.58106H36.04906l1.45215-8.58106Z" style="fill: #d7d7d7"/>
        <path d="M38.18285,305.665l1.29883-7.48047h1.166l-.13281.81348a2.21885,2.21885,0,0,1,1.794-.94532A2.11066,2.11066,0,0,1,44.3,300.71484a2.94754,2.94754,0,0,1-2.81641,2.66211,1.55436,1.55436,0,0,1-1.5293-1.07812l-.56152,3.36621Zm3.74023-6.53418a1.83948,1.83948,0,0,0-1.69336,1.584c-.11035.84668.31836,1.5625,1.07813,1.584a1.84377,1.84377,0,0,0,1.78223-1.584A1.2317,1.2317,0,0,0,41.92308,299.13086Z" style="fill: #d7d7d7"/>
        <path d="M47.93968,299.043a1.34412,1.34412,0,0,0-1.29785,1.07812l-.53906,3.124H44.91429l1.47461-8.58106h1.18848l-.72656,4.22461a1.88121,1.88121,0,0,1,1.5625-.83594c1.14355,0,1.55078.84668,1.4082,1.94727L49.26,303.24512H48.08324l.5498-3.08008C48.69945,299.57031,48.57836,299.06445,47.93968,299.043Z" style="fill: #d7d7d7"/>
        <path d="M53.57152,298.07422a1.58356,1.58356,0,0,1,1.55176,1.10058l.165-.99023h1.166l-.87988,5.06055H54.44066l.14356-.84668a2.27313,2.27313,0,0,1-1.82618.957,2.11391,2.11391,0,0,1-2.00293-2.64063A2.95564,2.95564,0,0,1,53.57152,298.07422Zm-.43945,4.24707a1.86336,1.86336,0,0,0,1.69433-1.60645c.10938-.84765-.30859-1.584-1.07812-1.60644a1.86414,1.86414,0,0,0-1.78223,1.60644C51.83324,301.57324,52.27367,302.32129,53.13207,302.32129Z" style="fill: #d7d7d7"/>
      </g>
      <g>
        <path d="M21.10668,54.61328h-2.751l-1.1875,1.98047H15.68285l5.083-8.14111,2.25488,8.14111h-1.4082Zm-2.2002-1.1001H20.9309l-.59473-2.44238Z" style="fill: #d7d7d7"/>
        <path d="M26.42992,48.0127l-1.48438,8.581H23.78929l1.45313-8.581Z" style="fill: #d7d7d7"/>
        <path d="M25.92406,59.01416l1.29785-7.481h1.166l-.13184.814a2.214,2.214,0,0,1,1.793-.94629,2.11107,2.11107,0,0,1,1.99121,2.6626,2.94754,2.94754,0,0,1-2.81641,2.66211,1.55377,1.55377,0,0,1-1.52929-1.07813l-.56153,3.3667ZM29.66429,52.479A1.84009,1.84009,0,0,0,27.97,54.06348c-.11035.84716.31933,1.562,1.07812,1.584a1.84313,1.84313,0,0,0,1.78223-1.584A1.232,1.232,0,0,0,29.66429,52.479Z" style="fill: #d7d7d7"/>
        <path d="M35.6809,52.39111A1.34428,1.34428,0,0,0,34.383,53.46924L33.844,56.59375H32.65551l1.47363-8.581h1.18945L34.592,52.2373a1.87915,1.87915,0,0,1,1.5625-.83642c1.14355,0,1.55078.84717,1.4082,1.94726l-.56152,3.24561H35.82445l.54981-3.08057C36.43968,52.91943,36.31859,52.41309,35.6809,52.39111Z" style="fill: #d7d7d7"/>
        <path d="M41.31273,51.42285a1.5831,1.5831,0,0,1,1.55078,1.1001l.166-.98975h1.166l-.88086,5.06055H42.18187l.14258-.84717a2.27172,2.27172,0,0,1-1.82617.957,2.11317,2.11317,0,0,1-2.002-2.64013A2.95562,2.95562,0,0,1,41.31273,51.42285Zm-.43945,4.24658a1.86153,1.86153,0,0,0,1.69336-1.60595c.11035-.84717-.30762-1.58448-1.07813-1.60645a1.86351,1.86351,0,0,0-1.78125,1.60645A1.249,1.249,0,0,0,40.87328,55.66943Z" style="fill: #d7d7d7"/>
        <path d="M51.6975,48.89258a2.08658,2.08658,0,0,1,2.332,2.39844,2.73923,2.73923,0,0,1-2.06836,2.25537l1.584,3.04736H52.04906L50.6516,53.67822h-.77051L49.387,56.59375H48.10961l1.29882-7.70117ZM50.508,50.02588l-.43945,2.57422h.94629A1.5978,1.5978,0,0,0,52.70922,51.313a1.06467,1.06467,0,0,0-1.18848-1.28711Z" style="fill: #d7d7d7"/>
        <path d="M57.219,51.42285a1.584,1.584,0,0,1,1.55078,1.1001l.165-.98975h1.167l-.88086,5.06055H58.08812l.14258-.84717a2.27172,2.27172,0,0,1-1.82617.957,2.1127,2.1127,0,0,1-2.002-2.64013A2.95486,2.95486,0,0,1,57.219,51.42285Zm-.44043,4.24658a1.8625,1.8625,0,0,0,1.69434-1.60595c.10937-.84717-.3086-1.58448-1.07813-1.60645a1.86447,1.86447,0,0,0-1.78222,1.60645C55.4807,54.92139,55.92015,55.66943,56.77855,55.66943Z" style="fill: #d7d7d7"/>
        <path d="M61.6184,51.5332l.29687-1.76025H63.092l-.30762,1.76025h.83692l-.1875,1.04492h-.8252l-.7041,4.01563H60.76l.68261-4.01563h-.81445l.18652-1.04492Z" style="fill: #d7d7d7"/>
        <path d="M63.5764,54.39355a2.944,2.944,0,0,1,2.97071-2.9707,1.99919,1.99919,0,0,1,2.17773,2.22266,2.45642,2.45642,0,0,1-.12109.69287H64.7639c-.02148.814.375,1.38623,1.18848,1.38623a1.774,1.774,0,0,0,1.47363-.80322l.99024.40722a2.90467,2.90467,0,0,1-2.5625,1.375A2.13466,2.13466,0,0,1,63.5764,54.39355Zm1.33106-.88037h2.59668v-.022c0-.72607-.35254-1.166-1.05664-1.166A1.62741,1.62741,0,0,0,64.90746,53.51318Z" style="fill: #d7d7d7"/>
      </g>
      <g>
        <path d="M21.54711,189.57227c1.54,0,2.51953.94628,2.32129,2.39843a2.86606,2.86606,0,0,1-3.0586,2.3877H19.78636l-.49511,2.915H18.01488l1.29883-7.70117Zm-1.13379,1.14453-.42871,2.49707h.93554a1.59156,1.59156,0,0,0,1.69434-1.24317c.13184-.78125-.375-1.2539-1.18848-1.2539Z" style="fill: #d7d7d7"/>
        <path d="M26.06761,196.416a1.28429,1.28429,0,0,0,1.29786-1.07813l.55078-3.125H29.093l-.86915,5.06055H27.03539l.12109-.74805a1.8463,1.8463,0,0,1-1.56152.8584c-1.14453,0-1.57324-.8916-1.41992-1.958l.55078-3.21289h1.1875L25.386,195.293C25.30883,195.8877,25.42992,196.416,26.06761,196.416Z" style="fill: #d7d7d7"/>
        <path d="M32.31566,188.69238l-1.48535,8.58106H29.675l1.45214-8.58106Z" style="fill: #d7d7d7"/>
        <path d="M34.31761,196.46a.63762.63762,0,0,0,.70411-.59473c.01171-.43945-.4834-.67089-.96778-.85742-.61621-.24219-1.26562-.60547-1.24316-1.46386a1.5913,1.5913,0,0,1,1.78223-1.44141,2.35466,2.35466,0,0,1,1.85937.8916l-.66016.69336a1.67805,1.67805,0,0,0-1.21-.68262c-.39648,0-.66015.19824-.66015.48438-.02246.39551.418.56054.92382.76953.748.31933,1.36426.66016,1.3418,1.541a1.71248,1.71248,0,0,1-1.8584,1.62793,2.74476,2.74476,0,0,1-2.21191-1.12207l.748-.68261A1.94106,1.94106,0,0,0,34.31761,196.46Z" style="fill: #d7d7d7"/>
        <path d="M36.88011,195.07324a2.944,2.944,0,0,1,2.97071-2.9707,1.99941,1.99941,0,0,1,2.17773,2.22266,2.42549,2.42549,0,0,1-.12109.69335H38.06859c-.02246.81348.374,1.38575,1.1875,1.38575a1.77654,1.77654,0,0,0,1.47461-.80274l.99023.40723a2.90748,2.90748,0,0,1-2.56347,1.375A2.135,2.135,0,0,1,36.88011,195.07324Zm1.33106-.87988h2.59668v-.02246c0-.72559-.35254-1.166-1.05664-1.166A1.62788,1.62788,0,0,0,38.21117,194.19336Z" style="fill: #d7d7d7"/>
        <path d="M43.76683,192.21289l.627,2.9707,1.958-3.37793.83594,3.39942,1.66113-2.99219h1.30957l-3.25683,5.44629L45.967,194.2373,43.887,197.65918l-1.36328-5.44629Z" style="fill: #d7d7d7"/>
        <path d="M52.11547,192.21289l-.8584,5.06055h-1.166l.84668-5.06055Zm-.24219-2.72852a.71605.71605,0,1,1-.748.71485A.72178.72178,0,0,1,51.87328,189.48437Z" style="fill: #d7d7d7"/>
        <path d="M55.67894,192.10254a1.58305,1.58305,0,0,1,1.5293,1.0459l.75977-4.45606h1.1875l-1.47364,8.58106H56.50414l.13281-.78125a2.23023,2.23023,0,0,1-1.77148.8916,2.11353,2.11353,0,0,1-2.00293-2.64063A2.95562,2.95562,0,0,1,55.67894,192.10254Zm-.43945,4.24707a1.86338,1.86338,0,0,0,1.69434-1.60645c.10937-.84668-.3086-1.584-1.07813-1.60644a1.86414,1.86414,0,0,0-1.78223,1.60644C53.94066,195.60156,54.38109,196.34961,55.23949,196.34961Z" style="fill: #d7d7d7"/>
        <path d="M60.07933,192.21289l.29688-1.75977H61.553l-.30762,1.75977h.83594l-.18653,1.04492h-.82519l-.7041,4.01563H59.22093l.68262-4.01563H59.0891l.18652-1.04492Z" style="fill: #d7d7d7"/>
        <path d="M64.97386,193.07129a1.34412,1.34412,0,0,0-1.29785,1.07812l-.53906,3.124H61.94847l1.47461-8.58106h1.18848L63.885,192.917a1.88121,1.88121,0,0,1,1.5625-.83594c1.14355,0,1.55078.84668,1.4082,1.94727l-.56152,3.24512H65.11742l.5498-3.08008C65.73363,193.59961,65.61254,193.09277,64.97386,193.07129Z" style="fill: #d7d7d7"/>
      </g>
      <g>
        <path d="M61.24828,260.459a3.269,3.269,0,0,1,3.25586,3.98243,4.68279,4.68279,0,0,1-4.53223,4.01562,3.29616,3.29616,0,0,1-3.25683-4.01562A4.6816,4.6816,0,0,1,61.24828,260.459Zm-1.14453,6.71094a3.17522,3.17522,0,0,0,3.03613-2.72851c.2207-1.40821-.4834-2.71778-2.02344-2.72852a3.17621,3.17621,0,0,0-3.03711,2.72852A2.139,2.139,0,0,0,60.10375,267.16992Z" style="fill: #d7d7d7"/>
        <path d="M67.16527,267.43359a1.28514,1.28514,0,0,0,1.29883-1.07812l.5498-3.124h1.17774L69.3225,268.292H68.134l.12109-.748a1.84671,1.84671,0,0,1-1.5625.85839c-1.14453,0-1.57324-.8916-1.41894-1.959l.5498-3.21191H67.012l-.52832,3.08007C66.40648,266.90625,66.52758,267.43359,67.16527,267.43359Z" style="fill: #d7d7d7"/>
        <path d="M71.7639,263.23145l.29688-1.76075h1.17676l-.30762,1.76075h.83594l-.18653,1.04492h-.82519L72.05,268.292H70.90551l.68261-4.01562h-.81445l.18652-1.04492Z" style="fill: #d7d7d7"/>
        <path d="M73.17113,270.71191,74.47,263.23145h1.166l-.13281.81347a2.21884,2.21884,0,0,1,1.794-.94531,2.11066,2.11066,0,0,1,1.99121,2.66211,2.94755,2.94755,0,0,1-2.81641,2.66211,1.55435,1.55435,0,0,1-1.5293-1.07813l-.56152,3.36621Zm3.74023-6.53418a1.83946,1.83946,0,0,0-1.69335,1.584c-.11036.84668.31835,1.5625,1.07812,1.584a1.84377,1.84377,0,0,0,1.78223-1.584A1.23171,1.23171,0,0,0,76.91136,264.17773Z" style="fill: #d7d7d7"/>
        <path d="M82.12523,267.43359a1.28514,1.28514,0,0,0,1.29883-1.07812l.5498-3.124H85.1516l-.86914,5.06054H83.094l.1211-.748a1.84674,1.84674,0,0,1-1.5625.85839c-1.14454,0-1.57325-.8916-1.41895-1.959l.5498-3.21191h1.18848l-.52832,3.08007C81.36644,266.90625,81.48754,267.43359,82.12523,267.43359Z" style="fill: #d7d7d7"/>
        <path d="M86.72289,263.23145l.29687-1.76075H88.1975l-.3086,1.76075h.83692l-.1875,1.04492h-.8252L87.009,268.292H85.86547l.68164-4.01562h-.81446l.1875-1.04492Z" style="fill: #d7d7d7"/>
      </g>
    </g>
    <g id="6ae1eae1-bdea-4a11-aabf-3d2e26a040c6" data-name="Legend">
      <g>
        <path d="M31.96869,100.177a.49632.49632,0,0,1-.28271-.08789,18.92438,18.92438,0,1,1,21.4331-.00781.50032.50032,0,0,1-.56738-.82422,17.92523,17.92523,0,1,0-20.29932.00781.5.5,0,0,1-.28369.91211Z" style="fill: #ffa661"/>
        <path d="M32.76227,98.35433a1.5039,1.5039,0,1,1-2.08609.41428A1.50406,1.50406,0,0,1,32.76227,98.35433Z" style="fill: #ffa661"/>
        <circle cx="52.87578" cy="99.59781" r="1.50391" style="fill: #ffa661"/>
      </g>
      <circle cx="101.74556" cy="197.3734" r="13.63575" style="fill: none;stroke: #ffa661;stroke-miterlimit: 10"/>
      <circle cx="42.39618" cy="141.68979" r="13.63575" style="fill: none;stroke: #ffa661;stroke-miterlimit: 10"/>
      <g>
        <line x1="42.39623" y1="128.05404" x2="42.39623" y2="110.11936" style="fill: none;stroke: #ffa661;stroke-miterlimit: 10"/>
        <polygon points="44.092 112.111 42.396 110.415 40.701 112.111 40.701 110.672 42.396 108.976 44.092 110.672 44.092 112.111" style="fill: #ffa661"/>
      </g>
      <g>
        <line x1="101.6245" y1="183.73765" x2="101.6245" y2="165.80297" style="fill: none;stroke: #ffa661;stroke-miterlimit: 10"/>
        <polygon points="103.32 167.795 101.624 166.099 99.929 167.795 99.929 166.355 101.624 164.66 103.32 166.355 103.32 167.795" style="fill: #ffa661"/>
      </g>
      <g>
        <path d="M31.96869,239.85687a.49632.49632,0,0,1-.28271-.08789,18.92439,18.92439,0,1,1,21.4331-.00782.50031.50031,0,0,1-.56738-.82421,17.92523,17.92523,0,1,0-20.29932.00781.5.5,0,0,1-.28369.91211Z" style="fill: #ffa661"/>
        <path d="M32.76227,238.03414a1.5039,1.5039,0,1,1-2.08609.41429A1.50407,1.50407,0,0,1,32.76227,238.03414Z" style="fill: #ffa661"/>
        <circle cx="52.87578" cy="239.27762" r="1.50391" style="fill: #ffa661"/>
      </g>
      <g>
        <path d="M91.31807,154.48721a.49632.49632,0,0,1-.28271-.08789,18.92439,18.92439,0,1,1,21.4331-.00782.50031.50031,0,0,1-.56738-.82421,17.92523,17.92523,0,1,0-20.29932.00781.5.5,0,0,1-.28369.91211Z" style="fill: #ffa661"/>
        <path d="M92.11165,152.66448a1.50391,1.50391,0,1,1-2.08609.41429A1.50407,1.50407,0,0,1,92.11165,152.66448Z" style="fill: #ffa661"/>
        <circle cx="112.22516" cy="153.90796" r="1.50391" style="fill: #ffa661"/>
      </g>
    </g>
  </g>
</svg>
