<?xml version="1.0" encoding="UTF-8" standalone="no"?>
<svg
   xmlns:dc="http://purl.org/dc/elements/1.1/"
   xmlns:cc="http://creativecommons.org/ns#"
   xmlns:rdf="http://www.w3.org/1999/02/22-rdf-syntax-ns#"
   xmlns:svg="http://www.w3.org/2000/svg"
   xmlns="http://www.w3.org/2000/svg"
   xmlns:sodipodi="http://sodipodi.sourceforge.net/DTD/sodipodi-0.dtd"
   xmlns:inkscape="http://www.inkscape.org/namespaces/inkscape"
   width="50.849998mm"
   height="128.49998mm"
   viewBox="0 0 192.18896 485.66922"
   version="1.1"
   id="svg993"
   sodipodi:docname="Lilt.svg"
   inkscape:version="1.0 (4035a4f, 2020-05-01)">
  <metadata
     id="metadata999">
    <rdf:RDF>
      <cc:Work
         rdf:about="">
        <dc:format>image/svg+xml</dc:format>
        <dc:type
           rdf:resource="http://purl.org/dc/dcmitype/StillImage" />
        <dc:title>Lilt-14</dc:title>
      </cc:Work>
    </rdf:RDF>
  </metadata>
  <defs
     id="defs997" />
  <sodipodi:namedview
     inkscape:document-rotation="0"
     pagecolor="#ffffff"
     bordercolor="#666666"
     borderopacity="1"
     objecttolerance="10"
     gridtolerance="10"
     guidetolerance="10"
     inkscape:pageopacity="0"
     inkscape:pageshadow="2"
     inkscape:window-width="1920"
     inkscape:window-height="1155"
     id="namedview995"
     showgrid="false"
     units="mm"
     inkscape:zoom="1.5042819"
     inkscape:cx="45.921491"
     inkscape:cy="271.82686"
     inkscape:window-x="0"
     inkscape:window-y="23"
     inkscape:window-maximized="1"
     inkscape:current-layer="layer1" />
  <title
     id="title833">Lilt-14</title>
  <g
     inkscape:groupmode="layer"
     id="layer2"
     inkscape:label="Panel">
    <rect
       y="0"
       x="0"
       style="fill:#2a2d30;stroke-width:1.33333"
       height="485.66934"
       width="192.18898"
       data-name="BG"
       id="eab1ae2c-7187-41e5-bdf2-c004d2946b04" />
    <g
       data-name="Logo"
       id="247c7a74-7af5-41a7-aba6-1b3a551dea82"
       transform="scale(1.3333334)">
      <g
         id="g842">
        <polygon
           id="polygon836"
           style="fill:#d7d7d7"
           points="68.54,355.149 68.54,352.795 68.54,350.441 70.894,350.441 70.894,348.086 73.248,348.086 73.248,345.732 70.894,345.732 68.54,345.732 66.186,345.732 66.186,348.086 66.186,350.441 66.186,352.795 66.186,355.149 " />
        <polygon
           id="polygon838"
           style="fill:#d7d7d7"
           points="77.956,348.087 77.956,345.732 75.602,345.732 75.602,348.087 75.602,350.441 73.248,350.441 73.248,352.795 70.894,352.795 70.894,355.149 73.248,355.149 75.602,355.149 77.956,355.149 77.956,352.795 77.956,350.441 " />
        <polygon
           id="polygon840"
           style="fill:#d7d7d7"
           points="62.654,342.156 62.654,358.654 63.831,358.654 81.487,358.654 81.487,357.476 81.487,342.156 80.31,342.156 63.831,342.156 63.831,343.424 80.31,343.424 80.31,357.476 63.831,357.476 63.831,342.156 " />
      </g>
    </g>
    <g
       id="g853"
       transform="scale(1.3333334)">
      <path
         id="path845"
         style="fill:#d7d7d7"
         d="m 49.24535,30.002 c -2.38867,0 -4.92285,0.23291 -6.4082,0.23291 -1.07715,0 -1.77637,-0.52441 -1.77637,-1.28174 0,-1.36865 1.04883,-1.13574 2.24219,-2.709 0.72851,-0.96094 0.90332,-3.146 0.90332,-5.59277 v -2.8252 c 0,-2.44678 -0.17481,-4.63183 -0.90332,-5.59277 -1.19336,-1.57324 -1.95118,-1.63135 -1.95118,-2.59278 0,-0.87353 0.69922,-1.39794 1.77637,-1.39794 0.874,0 1.98145,0.23291 3.20508,0.23291 1.25195,0 2.00977,-0.23291 3.2041,-0.23291 1.07715,0 1.77637,0.52441 1.77637,1.39794 0,0.96143 -0.75684,1.01954 -1.95117,2.59278 -0.72852,0.96094 -0.90332,3.146 -0.90332,5.59277 v 4.57324 c 0,2.88379 0.1455,5.06836 2.82519,5.06836 2.33106,0 3.75781,-1.39843 5.47656,-4.311 0.90332,-1.54395 1.51465,-2.50537 2.47559,-2.30127 1.01953,0.2041 1.34082,2.82568 1.04883,5.68017 -0.291,2.82569 -1.45606,3.72852 -3,3.72852 -1.54394,0 -5.68067,-0.26222 -8.04004,-0.26222 z" />
      <path
         id="path847"
         style="fill:#d7d7d7"
         d="m 62.14965,28.95312 c 0,-1.36865 1.48535,-1.22314 2.53418,-2.62158 0.72851,-0.96093 0.90332,-2.03906 0.90332,-3.90332 0,-3.49511 -1.98047,-2.67968 -2.79688,-4.04883 a 1.2974,1.2974 0 0 1 0.52441,-1.74755 c 0.69922,-0.52442 2.00977,-0.96143 3.32129,-1.74805 2.03907,-1.22315 2.8545,-1.31055 3.55371,-0.66992 0.81543,0.75732 0.46583,2.18506 0.20313,3.2915 a 13.66822,13.66822 0 0 0 -0.55273,4.19483 c 0,2.62158 0.1455,3.64111 0.90234,4.63134 0.75781,0.99073 1.92285,1.39844 1.86426,2.50537 a 1.55778,1.55778 0 0 1 -1.68946,1.48536 c -0.873,0 -1.95117,-0.23291 -3.2041,-0.23291 -1.22265,0 -2.30078,0.23291 -3.78613,0.23291 -1.07813,0 -1.77734,-0.61182 -1.77734,-1.36915 z M 67.74242,5.53369 a 3.10233,3.10233 0 1 1 -3.11621,3.0874 3.12086,3.12086 0 0 1 3.11621,-3.0874 z" />
      <path
         id="path849"
         style="fill:#d7d7d7"
         d="m 74.79125,28.95312 c 0,-1.36865 1.04883,-1.13574 2.24316,-2.709 0.72754,-0.96094 0.90235,-3.146 0.90235,-5.59277 v -3.46629 c 0,-6.08789 -2.00977,-5.27246 -2.8252,-6.64111 A 1.2971,1.2971 0 0 1 75.636,8.7959 c 0.69922,-0.52442 2.00977,-0.96094 3.32032,-1.74756 2.03906,-1.22363 2.85547,-1.311 3.55371,-0.66992 0.8164,0.75732 0.46679,2.18457 0.2041,3.2915 -0.291,1.165 -0.52442,1.981 -0.52442,7.36963 v 3.61182 c 0,2.44677 0.17481,4.63183 0.90333,5.59277 1.19433,1.57324 2.24316,1.34033 2.24316,2.709 0,0.75733 -0.69922,1.28174 -1.77734,1.28174 -1.165,0 -2.24317,-0.23291 -3.49512,-0.23291 -1.22363,0 -2.00977,0.23291 -3.49512,0.23291 -1.07815,-2e-5 -1.77737,-0.52443 -1.77737,-1.28176 z" />
      <path
         id="path851"
         style="fill:#d7d7d7"
         d="m 89.20922,22.0498 c 0.3789,-6.292 -1.71875,-4.02 -2.53418,-5.38916 a 1.29663,1.29663 0 0 1 0.52441,-1.74755 34.59151,34.59151 0 0 0 3.0293,-2.03907 c 1.457,-1.22314 2.27246,-2.79638 3.4082,-2.21386 0.84473,0.437 0.69922,1.45654 0.4375,2.79638 -0.05859,0.34961 -0.14648,0.75733 -0.2041,1.19434 l 6.37891,-0.17481 c 0.96093,-0.0288 1.19433,0.437 0.84472,1.10694 -0.81543,1.60205 -1.10644,2.56347 -3.583,2.38867 l -3.93164,-0.2915 c -0.05859,0.81591 -0.11718,1.57324 -0.11718,2.09765 -0.08692,4.16553 1.457,6.75781 3.6123,6.75781 a 4.46826,4.46826 0 0 0 3.32031,-1.25244 c 0.61231,-0.52441 0.874,-0.61181 1.22364,-0.34961 0.43652,0.32032 0.3789,0.66993 0,1.36914 a 7.56631,7.56631 0 0 1 -6.84571,4.22364 c -3.52442,0 -5.8545,-3.58301 -5.56348,-8.47657 z" />
    </g>
    <g
       data-name="Text"
       id="b41e897b-f5b9-4a2b-954e-2101c7e28883"
       transform="scale(1.3333334)">
      <g
         id="g873">
        <path
           id="path855"
           style="fill:#d7d7d7"
           d="M 81.92992,100.47217 H 79.48851 L 80.80883,92.771 h 2.22168 c 1.29785,0 2.31054,0.63818 2.1123,1.93652 a 2.047,2.047 0 0 1 -1.50781,1.606 1.67267,1.67267 0 0 1 1.332,1.93648 c -0.22067,1.49609 -1.51853,2.22217 -3.03708,2.22217 z m -0.53906,-3.6084 -0.43946,2.541 1.001,-0.01075 a 1.614,1.614 0 0 0 1.72754,-1.27636 c 0.13184,-0.792 -0.42969,-1.24317 -1.23242,-1.24317 z m 0.17578,-0.99023 0.85937,-0.01124 a 1.31877,1.31877 0 0 0 1.38575,-1.01171 c 0.11035,-0.61622 -0.33008,-1.00147 -0.96778,-1.00147 l -0.9248,-0.01074 z" />
        <path
           id="path857"
           style="fill:#d7d7d7"
           d="m 85.87914,98.272 a 2.944,2.944 0 0 1 2.9707,-2.9707 1.9992,1.9992 0 0 1 2.17774,2.22266 2.456,2.456 0 0 1 -0.1211,0.69287 h -3.83984 c -0.02149,0.814 0.375,1.38623 1.18847,1.38623 a 1.774,1.774 0 0 0 1.47364,-0.80323 l 0.99023,0.40723 a 2.90465,2.90465 0 0 1 -2.5625,1.375 2.13465,2.13465 0 0 1 -2.27734,-2.31006 z m 1.331,-0.88037 h 2.59668 v -0.022 c 0,-0.72608 -0.35254,-1.166 -1.05664,-1.166 a 1.62742,1.62742 0 0 0 -1.53999,1.18797 z" />
        <path
           id="path859"
           style="fill:#d7d7d7"
           d="m 92.54515,95.41162 0.29688,-1.76025 h 1.17676 l -0.30762,1.76025 h 0.83594 l -0.1875,1.04492 h -0.82422 l -0.70508,4.01563 h -1.14355 l 0.68261,-4.01563 h -0.81445 l 0.18652,-1.04492 z" />
        <path
           id="path861"
           style="fill:#d7d7d7"
           d="m 97.29711,95.30127 a 1.584,1.584 0 0 1 1.55078,1.1001 l 0.165,-0.98975 h 1.167 l -0.88086,5.06055 H 98.16625 L 98.30883,99.625 a 2.27175,2.27175 0 0 1 -1.82618,0.957 2.11271,2.11271 0 0 1 -2.002,-2.64014 2.95487,2.95487 0 0 1 2.81646,-2.64059 z m -0.44043,4.24658 a 1.86249,1.86249 0 0 0 1.69433,-1.606 c 0.10938,-0.84716 -0.30859,-1.58447 -1.07812,-1.60644 a 1.86448,1.86448 0 0 0 -1.78223,1.60644 c -0.13183,0.85795 0.30762,1.606 1.16602,1.606 z" />
        <path
           id="path863"
           style="fill:#d7d7d7"
           d="m 106.7014,99.46 a 1.30609,1.30609 0 0 0 1.39746,-1.188 c 0.0225,-0.748 -0.61621,-0.99023 -1.38574,-1.34228 a 2.35754,2.35754 0 0 1 -1.70508,-2.13428 2.39021,2.39021 0 0 1 2.584,-2.15625 2.48958,2.48958 0 0 1 2.41015,1.66113 l -1.06738,0.561 a 1.54474,1.54474 0 0 0 -1.47363,-1.0669 0.98908,0.98908 0 0 0 -1.123,0.91309 c -0.0332,0.61572 0.584,0.98975 1.45313,1.33105 a 2.21591,2.21591 0 0 1 1.65039,2.145 2.71655,2.71655 0 0 1 -2.80664,2.45362 2.85806,2.85806 0 0 1 -2.67285,-1.96924 l 0.99023,-0.68213 c 0.38568,0.86919 0.86908,1.47419 1.74896,1.47419 z" />
        <path
           id="path865"
           style="fill:#d7d7d7"
           d="m 113.17992,96.26953 a 1.344,1.344 0 0 0 -1.29688,1.07813 l -0.53906,3.12451 h -1.18945 l 1.47461,-8.58106 h 1.18847 l -0.72558,4.22461 a 1.87738,1.87738 0 0 1 1.56152,-0.83642 c 1.14356,0 1.55176,0.84716 1.40821,1.94726 l -0.56153,3.24561 h -1.17676 l 0.54981,-3.08057 c 0.0664,-0.59375 -0.0547,-1.1001 -0.69336,-1.12207 z" />
        <path
           id="path867"
           style="fill:#d7d7d7"
           d="m 118.08617,95.41162 -0.85742,5.06055 h -1.166 l 0.8457,-5.06055 z m -0.24219,-2.72851 a 0.71581,0.71581 0 1 1 -0.74805,0.71484 0.72147,0.72147 0 0 1 0.74807,-0.71484 z" />
        <path
           id="path869"
           style="fill:#d7d7d7"
           d="m 119.76976,95.41162 0.31836,-1.8706 a 1.87192,1.87192 0 0 1 1.8711,-1.78223 1.40472,1.40472 0 0 1 1.07812,0.50635 l -0.68262,0.90185 a 0.56708,0.56708 0 0 0 -0.46191,-0.28613 c -0.38477,0 -0.61621,0.41846 -0.68164,0.90234 l -0.27539,1.62842 h 1.14453 l -0.1875,1.04492 h -1.14453 l -0.68164,4.01563 h -1.166 l 0.69336,-4.01563 h -0.53906 l 0.18652,-1.04492 z" />
        <path
           id="path871"
           style="fill:#d7d7d7"
           d="m 123.06859,95.41162 0.29688,-1.76025 h 1.17773 l -0.30859,1.76025 h 0.83691 l -0.18652,1.04492 h -0.82617 l -0.70313,4.01563 h -1.14453 l 0.68164,-4.01563 h -0.81445 l 0.1875,-1.04492 z" />
      </g>
      <g
         id="g883">
        <path
           id="path875"
           style="fill:#d7d7d7"
           d="M 93.93578,303.24512 H 91.4934 l 1.32031,-7.70117 h 2.22265 c 1.29786,0 2.31055,0.63769 2.11231,1.93652 a 2.04955,2.04955 0 0 1 -1.50781,1.60644 1.67243,1.67243 0 0 1 1.332,1.93555 c -0.22068,1.49609 -1.51853,2.22266 -3.03708,2.22266 z m -0.53906,-3.6084 -0.43946,2.541 1.001,-0.0107 a 1.61275,1.61275 0 0 0 1.72656,-1.27637 c 0.13281,-0.792 -0.42871,-1.24316 -1.23144,-1.24316 z m 0.17578,-0.99024 0.8584,-0.0107 a 1.319,1.319 0 0 0 1.38671,-1.01269 c 0.10938,-0.61621 -0.33007,-1.001 -0.96875,-1.001 l -0.92382,-0.0107 z" />
        <path
           id="path877"
           style="fill:#d7d7d7"
           d="m 97.884,301.04492 a 2.94456,2.94456 0 0 1 2.9707,-2.9707 1.99968,1.99968 0 0 1 2.17871,2.22265 2.46607,2.46607 0 0 1 -0.12109,0.69336 H 99.0725 c -0.02149,0.81348 0.374,1.38575 1.18847,1.38575 a 1.77721,1.77721 0 0 0 1.47364,-0.80274 l 0.99023,0.40625 a 2.90385,2.90385 0 0 1 -2.56348,1.376 2.13552,2.13552 0 0 1 -2.27736,-2.31057 z m 1.332,-0.87988 h 2.59571 v -0.0225 c 0,-0.72559 -0.35157,-1.166 -1.05567,-1.166 a 1.62788,1.62788 0 0 0 -1.53999,1.18842 z" />
        <path
           id="path879"
           style="fill:#d7d7d7"
           d="m 104.55,298.18457 0.29687,-1.76074 h 1.17774 l -0.3086,1.76074 h 0.83692 l -0.1875,1.04492 h -0.8252 l -0.7041,4.01563 h -1.14356 l 0.68165,-4.01563 h -0.81446 l 0.1875,-1.04492 z" />
        <path
           id="path881"
           style="fill:#d7d7d7"
           d="m 109.302,298.07422 a 1.58356,1.58356 0 0 1 1.55176,1.10058 l 0.165,-0.99023 h 1.166 l -0.87988,5.06055 h -1.13379 l 0.14355,-0.84668 a 2.2731,2.2731 0 0 1 -1.82617,0.957 2.11391,2.11391 0 0 1 -2.00293,-2.64063 2.95564,2.95564 0 0 1 2.81646,-2.64059 z m -0.43945,4.24707 a 1.86336,1.86336 0 0 0 1.69433,-1.60645 c 0.10938,-0.84765 -0.30859,-1.584 -1.07812,-1.60644 a 1.86414,1.86414 0 0 0 -1.78223,1.60644 c -0.13282,0.8584 0.30761,1.60645 1.16601,1.60645 z" />
      </g>
      <g
         id="g895">
        <path
           id="path885"
           style="fill:#d7d7d7"
           d="m 33.36547,301.26465 h -2.75 l -1.18847,1.98047 h -1.48536 l 5.083,-8.1416 2.25488,8.1416 h -1.4082 z m -2.2002,-1.09961 h 2.02441 l -0.59375,-2.44238 z" />
        <path
           id="path887"
           style="fill:#d7d7d7"
           d="m 38.68968,294.66406 -1.48535,8.58106 h -1.15527 l 1.45215,-8.58106 z" />
        <path
           id="path889"
           style="fill:#d7d7d7"
           d="m 38.18285,305.665 1.29883,-7.48047 h 1.166 l -0.13281,0.81348 a 2.21885,2.21885 0 0 1 1.794,-0.94532 2.11066,2.11066 0 0 1 1.99113,2.66215 2.94754,2.94754 0 0 1 -2.81641,2.66211 1.55436,1.55436 0 0 1 -1.5293,-1.07812 l -0.56152,3.36621 z m 3.74023,-6.53418 a 1.83948,1.83948 0 0 0 -1.69336,1.584 c -0.11035,0.84668 0.31836,1.5625 1.07813,1.584 a 1.84377,1.84377 0 0 0 1.78223,-1.584 1.2317,1.2317 0 0 0 -1.167,-1.58396 z" />
        <path
           id="path891"
           style="fill:#d7d7d7"
           d="m 47.93968,299.043 a 1.34412,1.34412 0 0 0 -1.29785,1.07812 l -0.53906,3.124 h -1.18848 l 1.47461,-8.58106 h 1.18848 l -0.72656,4.22461 a 1.88121,1.88121 0 0 1 1.5625,-0.83594 c 1.14355,0 1.55078,0.84668 1.4082,1.94727 L 49.26,303.24512 h -1.17676 l 0.5498,-3.08008 c 0.06641,-0.59473 -0.05468,-1.10059 -0.69336,-1.12204 z" />
        <path
           id="path893"
           style="fill:#d7d7d7"
           d="m 53.57152,298.07422 a 1.58356,1.58356 0 0 1 1.55176,1.10058 l 0.165,-0.99023 h 1.166 l -0.87988,5.06055 h -1.13374 l 0.14356,-0.84668 a 2.27313,2.27313 0 0 1 -1.82618,0.957 2.11391,2.11391 0 0 1 -2.00293,-2.64063 2.95564,2.95564 0 0 1 2.81641,-2.64059 z m -0.43945,4.24707 a 1.86336,1.86336 0 0 0 1.69433,-1.60645 c 0.10938,-0.84765 -0.30859,-1.584 -1.07812,-1.60644 a 1.86414,1.86414 0 0 0 -1.78223,1.60644 c -0.13281,0.8584 0.30762,1.60645 1.16602,1.60645 z" />
      </g>
      <g
         id="g915">
        <path
           id="path897"
           style="fill:#d7d7d7"
           d="m 21.10668,54.61328 h -2.751 l -1.1875,1.98047 h -1.48533 l 5.083,-8.14111 2.25488,8.14111 h -1.4082 z m -2.2002,-1.1001 H 20.9309 L 20.33617,51.0708 Z" />
        <path
           id="path899"
           style="fill:#d7d7d7"
           d="m 26.42992,48.0127 -1.48438,8.581 h -1.15625 l 1.45313,-8.581 z" />
        <path
           id="path901"
           style="fill:#d7d7d7"
           d="m 25.92406,59.01416 1.29785,-7.481 h 1.166 l -0.13184,0.814 a 2.214,2.214 0 0 1 1.793,-0.94629 2.11107,2.11107 0 0 1 1.99121,2.6626 2.94754,2.94754 0 0 1 -2.81641,2.66211 1.55377,1.55377 0 0 1 -1.52929,-1.07813 l -0.56153,3.3667 z M 29.66429,52.479 A 1.84009,1.84009 0 0 0 27.97,54.06348 c -0.11035,0.84716 0.31933,1.562 1.07812,1.584 a 1.84313,1.84313 0 0 0 1.78223,-1.584 1.232,1.232 0 0 0 -1.16606,-1.58448 z" />
        <path
           id="path903"
           style="fill:#d7d7d7"
           d="m 35.6809,52.39111 a 1.34428,1.34428 0 0 0 -1.2979,1.07813 l -0.539,3.12451 h -1.18849 l 1.47363,-8.581 h 1.18945 L 34.592,52.2373 a 1.87915,1.87915 0 0 1 1.5625,-0.83642 c 1.14355,0 1.55078,0.84717 1.4082,1.94726 l -0.56152,3.24561 h -1.17673 l 0.54981,-3.08057 c 0.06542,-0.59375 -0.05567,-1.10009 -0.69336,-1.12207 z" />
        <path
           id="path905"
           style="fill:#d7d7d7"
           d="m 41.31273,51.42285 a 1.5831,1.5831 0 0 1 1.55078,1.1001 l 0.166,-0.98975 h 1.166 l -0.88086,5.06055 h -1.13278 l 0.14258,-0.84717 a 2.27172,2.27172 0 0 1 -1.82617,0.957 2.11317,2.11317 0 0 1 -2.002,-2.64013 2.95562,2.95562 0 0 1 2.81645,-2.6406 z m -0.43945,4.24658 a 1.86153,1.86153 0 0 0 1.69336,-1.60595 C 42.67699,53.21631 42.25902,52.479 41.48851,52.45703 a 1.86351,1.86351 0 0 0 -1.78125,1.60645 1.249,1.249 0 0 0 1.16602,1.60595 z" />
        <path
           id="path907"
           style="fill:#d7d7d7"
           d="m 51.6975,48.89258 a 2.08658,2.08658 0 0 1 2.332,2.39844 2.73923,2.73923 0 0 1 -2.06836,2.25537 l 1.584,3.04736 H 52.04906 L 50.6516,53.67822 H 49.88109 L 49.387,56.59375 h -1.27739 l 1.29882,-7.70117 z m -1.1895,1.1333 -0.43945,2.57422 h 0.94629 a 1.5978,1.5978 0 0 0 1.69438,-1.2871 1.06467,1.06467 0 0 0 -1.18848,-1.28711 z" />
        <path
           id="path909"
           style="fill:#d7d7d7"
           d="m 57.219,51.42285 a 1.584,1.584 0 0 1 1.55078,1.1001 l 0.165,-0.98975 h 1.167 l -0.88086,5.06055 h -1.1328 l 0.14258,-0.84717 a 2.27172,2.27172 0 0 1 -1.82617,0.957 2.1127,2.1127 0 0 1 -2.002,-2.64013 2.95486,2.95486 0 0 1 2.81647,-2.6406 z m -0.44043,4.24658 a 1.8625,1.8625 0 0 0 1.69434,-1.60595 c 0.10937,-0.84717 -0.3086,-1.58448 -1.07813,-1.60645 a 1.86447,1.86447 0 0 0 -1.78222,1.60645 c -0.13186,0.85791 0.30759,1.60595 1.16599,1.60595 z" />
        <path
           id="path911"
           style="fill:#d7d7d7"
           d="m 61.6184,51.5332 0.29687,-1.76025 H 63.092 l -0.30762,1.76025 h 0.83692 l -0.1875,1.04492 h -0.8252 l -0.7041,4.01563 H 60.76 l 0.68261,-4.01563 h -0.81445 l 0.18652,-1.04492 z" />
        <path
           id="path913"
           style="fill:#d7d7d7"
           d="m 63.5764,54.39355 a 2.944,2.944 0 0 1 2.97071,-2.9707 1.99919,1.99919 0 0 1 2.17773,2.22266 2.45642,2.45642 0 0 1 -0.12109,0.69287 H 64.7639 c -0.02148,0.814 0.375,1.38623 1.18848,1.38623 a 1.774,1.774 0 0 0 1.47363,-0.80322 l 0.99024,0.40722 a 2.90467,2.90467 0 0 1 -2.5625,1.375 2.13466,2.13466 0 0 1 -2.27735,-2.31006 z m 1.33106,-0.88037 h 2.59668 v -0.022 c 0,-0.72607 -0.35254,-1.166 -1.05664,-1.166 a 1.62741,1.62741 0 0 0 -1.54004,1.188 z" />
      </g>
      <g
         id="g937">
        <path
           id="path917"
           style="fill:#d7d7d7"
           d="m 51.22093,215.541 c 1.54,0 2.51954,0.94628 2.32129,2.39843 a 2.86479,2.86479 0 0 1 -3.05859,2.38672 h -1.02246 l -0.49512,2.916 h -1.27637 l 1.29786,-7.70117 z m -1.13281,1.14355 -0.42871,2.498 H 50.594 a 1.592,1.592 0 0 0 1.69434,-1.24317 c 0.13183,-0.78125 -0.374,-1.25488 -1.18848,-1.25488 z" />
        <path
           id="path919"
           style="fill:#d7d7d7"
           d="m 55.74242,222.38379 a 1.28572,1.28572 0 0 0 1.29785,-1.07813 l 0.54981,-3.124 h 1.17773 l -0.86914,5.06055 h -1.18848 l 0.1211,-0.74805 a 1.84812,1.84812 0 0 1 -1.5625,0.85742 c -1.14453,0 -1.57325,-0.89062 -1.419,-1.958 l 0.54981,-3.21191 h 1.18847 l -0.52832,3.08008 c -0.0771,0.59372 0.044,1.12204 0.68267,1.12204 z" />
        <path
           id="path921"
           style="fill:#d7d7d7"
           d="m 61.99047,214.66113 -1.48536,8.58106 h -1.15527 l 1.45215,-8.58106 z" />
        <path
           id="path923"
           style="fill:#d7d7d7"
           d="m 63.99242,222.42773 a 0.63692,0.63692 0 0 0 0.7041,-0.59375 c 0.01074,-0.44043 -0.48437,-0.67089 -0.96875,-0.85839 -0.61523,-0.24219 -1.26465,-0.60547 -1.24316,-1.46289 a 1.59119,1.59119 0 0 1 1.78222,-1.44141 2.35394,2.35394 0 0 1 1.85938,0.89062 l -0.66016,0.69336 a 1.67506,1.67506 0 0 0 -1.21,-0.68164 c -0.39551,0 -0.66016,0.19727 -0.66016,0.4834 -0.02148,0.39649 0.418,0.56152 0.92481,0.77051 0.748,0.31933 1.36328,0.66016 1.3418,1.54 a 1.714,1.714 0 0 1 -1.85938,1.62793 2.74281,2.74281 0 0 1 -2.21094,-1.12207 l 0.748,-0.68164 a 1.93979,1.93979 0 0 0 1.45224,0.83597 z" />
        <path
           id="path925"
           style="fill:#d7d7d7"
           d="m 66.55394,221.042 a 2.94457,2.94457 0 0 1 2.97071,-2.9707 1.99968,1.99968 0 0 1 2.17871,2.22266 2.45239,2.45239 0 0 1 -0.1211,0.69238 h -3.83984 c -0.02149,0.81445 0.374,1.38672 1.18848,1.38672 a 1.77574,1.77574 0 0 0 1.47363,-0.80371 l 0.99023,0.40722 a 2.90514,2.90514 0 0 1 -2.56347,1.375 2.13476,2.13476 0 0 1 -2.27735,-2.30957 z m 1.332,-0.88086 h 2.59571 v -0.0215 c 0,-0.72656 -0.35157,-1.166 -1.05567,-1.166 a 1.627,1.627 0 0 0 -1.53998,1.18747 z" />
        <path
           id="path927"
           style="fill:#d7d7d7"
           d="m 73.44066,218.18164 0.627,2.96973 1.959,-3.377 0.83594,3.39942 1.66113,-2.99219 h 1.30859 l -3.25592,5.4454 -0.93554,-3.42187 -2.0791,3.42187 -1.36426,-5.44531 z" />
        <path
           id="path929"
           style="fill:#d7d7d7"
           d="m 81.78929,218.18164 -0.85742,5.06055 h -1.166 l 0.84668,-5.06055 z m -0.24121,-2.72852 a 0.71558,0.71558 0 1 1 -0.748,0.71485 0.72117,0.72117 0 0 1 0.748,-0.71485 z" />
        <path
           id="path931"
           style="fill:#d7d7d7"
           d="m 85.35375,218.07129 a 1.581,1.581 0 0 1 1.52929,1.04492 l 0.75879,-4.45508 h 1.18848 l -1.47461,8.58106 h -1.17676 l 0.13184,-0.78125 a 2.23071,2.23071 0 0 1 -1.77149,0.89062 2.11249,2.11249 0 0 1 -2.00195,-2.63965 2.95487,2.95487 0 0 1 2.81641,-2.64062 z m -0.44043,4.24609 a 1.86246,1.86246 0 0 0 1.69433,-1.60547 c 0.11036,-0.84765 -0.30761,-1.585 -1.07812,-1.60644 a 1.864,1.864 0 0 0 -1.78223,1.60644 1.24965,1.24965 0 0 0 1.16602,1.60547 z" />
        <path
           id="path933"
           style="fill:#d7d7d7"
           d="M 89.75316,218.18164 90.05,216.4209 h 1.17773 l -0.30859,1.76074 h 0.83691 l -0.1875,1.04492 H 90.7434 l -0.70411,4.01563 h -1.14355 l 0.68164,-4.01563 h -0.81445 l 0.1875,-1.04492 z" />
        <path
           id="path935"
           style="fill:#d7d7d7"
           d="m 94.64867,219.03906 a 1.34525,1.34525 0 0 0 -1.29785,1.07813 l -0.53906,3.125 h -1.18848 l 1.47363,-8.58106 h 1.18848 l -0.72559,4.22461 a 1.87668,1.87668 0 0 1 1.56153,-0.83691 c 1.14453,0 1.55175,0.84765 1.4082,1.94726 l -0.56055,3.2461 h -1.17773 l 0.55078,-3.08106 c 0.06543,-0.59375 -0.05567,-1.09961 -0.69336,-1.12207 z" />
      </g>
    </g>
    <g
       data-name="Legend"
       id="4eea16fd-8976-41e5-9cea-9614ab4fc384"
       transform="scale(1.3333334)">
      <g
         id="g946">
        <path
           id="path940"
           style="fill:#ffa661"
           d="m 31.96869,100.177 a 0.49632,0.49632 0 0 1 -0.28271,-0.0879 18.92438,18.92438 0 1 1 21.4331,-0.008 0.50032,0.50032 0 0 1 -0.56738,-0.82422 17.92523,17.92523 0 1 0 -20.29932,0.0078 0.5,0.5 0 0 1 -0.28369,0.91211 z" />
        <path
           id="path942"
           style="fill:#ffa661"
           d="m 32.76227,98.35433 a 1.5039,1.5039 0 1 1 -2.08609,0.41428 1.50406,1.50406 0 0 1 2.08609,-0.41428 z" />
        <circle
           id="circle944"
           style="fill:#ffa661"
           r="1.5039099"
           cy="99.597809"
           cx="52.875778" />
      </g>
      <circle
         id="circle948"
         style="fill:none;stroke:#ffa661;stroke-miterlimit:10"
         r="13.63575"
         cy="185.56827"
         cx="101.74556" />
      <circle
         id="circle950"
         style="fill:none;stroke:#ffa661;stroke-miterlimit:10"
         r="13.63575"
         cy="141.68979"
         cx="42.396179" />
      <circle
         id="circle952"
         style="fill:#ffa661"
         r="1.5039099"
         cy="108.6087"
         cx="101.74557" />
      <g
         id="g958">
        <line
           id="line954"
           style="fill:none;stroke:#ffa661;stroke-miterlimit:10"
           y2="110.11936"
           x2="42.396229"
           y1="128.05405"
           x1="42.396229" />
        <polygon
           id="polygon956"
           style="fill:#ffa661"
           points="40.701,112.111 40.701,110.672 42.396,108.976 44.092,110.672 44.092,112.111 42.396,110.415 " />
      </g>
      <g
         id="g964">
        <line
           id="line960"
           style="fill:none;stroke:#ffa661;stroke-miterlimit:10"
           y2="153.99783"
           x2="101.6245"
           y1="171.93253"
           x1="101.6245" />
        <polygon
           id="polygon962"
           style="fill:#ffa661"
           points="99.929,155.99 99.929,154.55 101.624,152.855 103.32,154.55 103.32,155.99 101.624,154.293 " />
      </g>
      <g
         id="g972">
        <path
           id="path966"
           style="fill:#ffa661"
           d="m 61.64338,266.8253 a 0.49635,0.49635 0 0 1 -0.28272,-0.0879 18.92438,18.92438 0 1 1 21.43311,-0.008 0.50032,0.50032 0 0 1 -0.56739,-0.82422 17.92522,17.92522 0 1 0 -20.29931,0.008 0.5,0.5 0 0 1 -0.28369,0.91211 z" />
        <path
           id="path968"
           style="fill:#ffa661"
           d="m 62.437,265.00258 a 1.5039,1.5039 0 1 1 -2.0861,0.41428 1.50408,1.50408 0 0 1 2.0861,-0.41428 z" />
        <circle
           id="circle970"
           style="fill:#ffa661"
           r="1.5039099"
           cy="266.24606"
           cx="82.550461" />
      </g>
      <circle
         id="circle974"
         style="fill:none;stroke:#ffa661;stroke-miterlimit:10"
         r="18.209749"
         cy="126.81845"
         cx="101.74556" />
    </g>
  </g>
  <g
     inkscape:groupmode="layer"
     id="layer1"
     inkscape:label="components"
     style="display:none">
    <circle
       cx="56.52824"
       cy="112.03297"
       r="7.5590539"
       style="fill:#ff0000;stroke:none;stroke-width:1.33333;stroke-opacity:1"
       id="circle977"
       inkscape:label="ALPHA_RATE" />
    <circle
       cx="56.52824"
       cy="427.93723"
       r="7.5590539"
       style="fill:#0000ff;stroke:none;stroke-width:1.33333;stroke-opacity:1"
       id="circle979"
       inkscape:label="ALPHA" />
    <circle
       cx="96.094498"
       cy="334.23065"
       r="7.5590539"
       style="fill:#ff0000;stroke:none;stroke-width:1.33333;stroke-opacity:1"
       id="circle981"
       inkscape:label="WIDTH" />
    <circle
       cx="135.66075"
       cy="247.42436"
       r="7.5590539"
       style="fill:#00ff00;stroke:none;stroke-width:1.33333;stroke-opacity:1"
       id="circle983"
       inkscape:label="SHIFT_IN" />
    <circle
       cx="56.52824"
       cy="188.91972"
       r="7.5590539"
       style="fill:#00ff00;stroke:none;stroke-width:1.33333;stroke-opacity:1"
       id="circle985"
       inkscape:label="RATE_IN" />
    <circle
       cx="135.66075"
       cy="169.09128"
       r="7.5590539"
       style="fill:#ff0000;stroke:none;stroke-width:1.33333;stroke-opacity:1"
       id="circle987"
       inkscape:label="BETA_SHIFT" />
    <circle
       cx="135.66075"
       cy="427.93723"
       r="7.5590539"
       style="fill:#0000ff;stroke:none;stroke-width:1.33333;stroke-opacity:1"
       id="circle989"
       inkscape:label="BETA" />
  </g>
</svg>
