<svg xmlns="http://www.w3.org/2000/svg" width="40.64mm" height="128.5mm" viewBox="0 0 115.2 364.252"><title>Luigi</title><g id="fc3d1f81-bdb1-4373-9411-b3c42aadd349" data-name="Luigi"><rect id="e7ac61de-7d2b-4935-9bc1-26719a4cd591" data-name="BG" width="115.2" height="364.252" fill="#333"/><g id="80660437-b549-497f-9fff-1b64aee63a9b" data-name="Text"><path d="M68.119,117.111l-1.342,7.7H65.5l1.3-7.7Z" fill="#d7d7d7"/><path d="M71.331,120.61a1.284,1.284,0,0,0-1.287,1.089l-.539,3.113H68.316l.881-5.06h1.177l-.121.748a1.833,1.833,0,0,1,1.562-.858c1.155,0,1.585.88,1.43,1.958l-.55,3.212h-1.21l.55-3.08C72.112,121.138,71.991,120.61,71.331,120.61Z" fill="#d7d7d7"/><path d="M75.137,119.752l.3-1.76h1.177l-.308,1.76h.836l-.187,1.045h-.825l-.7,4.015H74.279l.682-4.015h-.814l.187-1.045Z" fill="#d7d7d7"/><path d="M78.041,123.492a.76.76,0,1,1,0,1.519.76.76,0,1,1,0-1.519Z" fill="#d7d7d7"/><path d="M87.358,123.668a3.747,3.747,0,0,0,2.552-1.078l-.231,1.54a4.067,4.067,0,0,1-2.5.814,3.279,3.279,0,0,1-3.257-3.982,4.663,4.663,0,0,1,4.533-3.983,3.208,3.208,0,0,1,2.288.814l-.242,1.552a2.489,2.489,0,0,0-2.134-1.09,3.221,3.221,0,0,0-3.058,2.707A2.166,2.166,0,0,0,87.358,123.668Z" fill="#d7d7d7"/><path d="M93.628,116.231l-1.485,8.581H90.987l1.453-8.581Z" fill="#d7d7d7"/><path d="M96.752,119.642a2.231,2.231,0,0,1,2.288,2.64A3.07,3.07,0,0,1,96,124.922a2.237,2.237,0,0,1-2.289-2.64A3.07,3.07,0,0,1,96.752,119.642Zm-.661,4.224a1.832,1.832,0,0,0,1.739-1.584,1.255,1.255,0,0,0-1.178-1.584,1.832,1.832,0,0,0-1.738,1.584A1.255,1.255,0,0,0,96.091,123.866Z" fill="#d7d7d7"/><path d="M102.1,123.888a2.338,2.338,0,0,0,1.772-.836l-.187,1.3a2.728,2.728,0,0,1-1.717.571,2.246,2.246,0,0,1-2.31-2.64,3.065,3.065,0,0,1,3.048-2.64,2.4,2.4,0,0,1,1.606.572l-.187,1.309a1.555,1.555,0,0,0-1.452-.847,1.872,1.872,0,0,0-1.805,1.606A1.287,1.287,0,0,0,102.1,123.888Z" fill="#d7d7d7"/><path d="M109.963,119.752l-2.552,2.156,1.837,2.9h-1.364l-1.595-2.574-.441,2.574H104.7l1.452-8.581h1.167l-.9,5.248,2.047-1.727Z" fill="#d7d7d7"/><path d="M40.511,59.312l-.2,1.144H37l-.319,1.871h3.1l-.2,1.122H36.5l-.418,2.42H39.4l-.2,1.144H34.625l1.3-7.7Z" fill="#d7d7d7"/><path d="M45.67,61.953l-2.157,2.5,1.442,2.563H43.69l-.925-1.76-1.408,1.76H39.971l2.31-2.673L40.9,61.953h1.3l.836,1.584,1.3-1.584Z" fill="#d7d7d7"/><path d="M46.571,61.953l.3-1.761h1.177l-.308,1.761h.837L48.387,63h-.825l-.7,4.015H45.713L46.4,63h-.815l.187-1.045Z" fill="#d7d7d7"/><path d="M49.475,65.693a.759.759,0,1,1,0,1.518.759.759,0,1,1,0-1.518Z" fill="#d7d7d7"/><path d="M58.793,65.869a3.749,3.749,0,0,0,2.552-1.078l-.231,1.54a4.067,4.067,0,0,1-2.5.814,3.279,3.279,0,0,1-3.256-3.982,4.661,4.661,0,0,1,4.533-3.983,3.2,3.2,0,0,1,2.288.814l-.242,1.551a2.488,2.488,0,0,0-2.134-1.089,3.222,3.222,0,0,0-3.059,2.707A2.166,2.166,0,0,0,58.793,65.869Z" fill="#d7d7d7"/><path d="M65.063,58.432l-1.486,8.581H62.422l1.452-8.581Z" fill="#d7d7d7"/><path d="M68.186,61.842a2.233,2.233,0,0,1,2.289,2.641,3.072,3.072,0,0,1-3.037,2.64,2.237,2.237,0,0,1-2.288-2.64A3.071,3.071,0,0,1,68.186,61.842Zm-.66,4.225a1.832,1.832,0,0,0,1.738-1.584A1.256,1.256,0,0,0,68.087,62.9a1.833,1.833,0,0,0-1.738,1.585A1.255,1.255,0,0,0,67.526,66.067Z" fill="#d7d7d7"/><path d="M73.532,66.089a2.334,2.334,0,0,0,1.771-.836l-.187,1.3a2.728,2.728,0,0,1-1.716.572,2.248,2.248,0,0,1-2.311-2.64,3.067,3.067,0,0,1,3.048-2.641,2.394,2.394,0,0,1,1.606.573l-.187,1.309a1.555,1.555,0,0,0-1.452-.848,1.873,1.873,0,0,0-1.8,1.607A1.287,1.287,0,0,0,73.532,66.089Z" fill="#d7d7d7"/><path d="M81.4,61.953l-2.553,2.156,1.838,2.9H79.318l-1.595-2.574-.44,2.574H76.139l1.452-8.581h1.166l-.9,5.248L79.9,61.953Z" fill="#d7d7d7"/><path d="M42.124,247.443a2.087,2.087,0,0,1,2.332,2.4,2.738,2.738,0,0,1-2.069,2.256l1.585,3.047h-1.5l-1.4-2.916h-.77l-.495,2.916H38.537l1.3-7.7Zm-1.189,1.134-.44,2.574h.946a1.6,1.6,0,0,0,1.7-1.287,1.064,1.064,0,0,0-1.189-1.287Z" fill="#d7d7d7"/><path d="M47.645,249.974a1.583,1.583,0,0,1,1.551,1.1l.165-.99h1.167l-.88,5.061H48.514l.143-.847a2.272,2.272,0,0,1-1.826.957,2.113,2.113,0,0,1-2-2.641A2.954,2.954,0,0,1,47.645,249.974Zm-.44,4.247a1.865,1.865,0,0,0,1.7-1.607c.109-.846-.309-1.584-1.079-1.606a1.864,1.864,0,0,0-1.782,1.606C45.907,253.473,46.347,254.221,47.205,254.221Z" fill="#d7d7d7"/><path d="M54.047,250.942a1.284,1.284,0,0,0-1.287,1.089l-.539,3.114H51.033l.88-5.061H53.09l-.121.748a1.833,1.833,0,0,1,1.562-.858c1.156,0,1.585.88,1.431,1.959l-.55,3.212H54.2l.551-3.081C54.828,251.471,54.708,250.942,54.047,250.942Z" fill="#d7d7d7"/><path d="M59.723,249.974a1.581,1.581,0,0,1,1.529,1.046l.759-4.457H63.2l-1.474,8.582H60.548l.132-.782a2.228,2.228,0,0,1-1.771.892,2.114,2.114,0,0,1-2-2.641A2.955,2.955,0,0,1,59.723,249.974Zm-.44,4.247a1.863,1.863,0,0,0,1.694-1.607c.11-.846-.308-1.584-1.078-1.606a1.864,1.864,0,0,0-1.782,1.606C57.984,253.473,58.425,254.221,59.283,254.221Z" fill="#d7d7d7"/><path d="M66.279,249.974a2.231,2.231,0,0,1,2.288,2.64,3.071,3.071,0,0,1-3.036,2.641,2.237,2.237,0,0,1-2.288-2.641A3.07,3.07,0,0,1,66.279,249.974Zm-.66,4.224a1.832,1.832,0,0,0,1.738-1.584,1.255,1.255,0,0,0-1.177-1.584,1.834,1.834,0,0,0-1.739,1.584A1.256,1.256,0,0,0,65.619,254.2Z" fill="#d7d7d7"/><path d="M76.179,255.145H74.991l.55-3.081c.067-.593,0-1.122-.594-1.122a1.2,1.2,0,0,0-1.188,1.1l-.539,3.1H72.043l.539-3.081c.066-.593.011-1.122-.583-1.122a1.182,1.182,0,0,0-1.177,1.079l-.54,3.124H69.116L70,250.084h1.144l-.11.7a1.7,1.7,0,0,1,1.463-.814,1.166,1.166,0,0,1,1.265.946,2.039,2.039,0,0,1,1.694-.946c1.122,0,1.4.9,1.265,1.959Z" fill="#d7d7d7"/><path d="M48.581,267.2a3.738,3.738,0,0,0,2.552-1.078l-.231,1.541a4.067,4.067,0,0,1-2.5.814,3.28,3.28,0,0,1-3.256-3.983,4.66,4.66,0,0,1,4.533-3.982,3.2,3.2,0,0,1,2.288.814l-.242,1.551a2.488,2.488,0,0,0-2.134-1.089,3.221,3.221,0,0,0-3.059,2.706A2.166,2.166,0,0,0,48.581,267.2Z" fill="#d7d7d7"/><path d="M54.851,259.764l-1.486,8.581H52.21l1.452-8.581Z" fill="#d7d7d7"/><path d="M57.974,263.174a2.232,2.232,0,0,1,2.289,2.64,3.071,3.071,0,0,1-3.037,2.641,2.237,2.237,0,0,1-2.288-2.641A3.07,3.07,0,0,1,57.974,263.174Zm-.66,4.224a1.831,1.831,0,0,0,1.738-1.584,1.255,1.255,0,0,0-1.177-1.584,1.832,1.832,0,0,0-1.738,1.584A1.255,1.255,0,0,0,57.314,267.4Z" fill="#d7d7d7"/><path d="M63.32,267.421a2.334,2.334,0,0,0,1.771-.836l-.187,1.3a2.734,2.734,0,0,1-1.716.572,2.247,2.247,0,0,1-2.31-2.641,3.065,3.065,0,0,1,3.047-2.64,2.4,2.4,0,0,1,1.606.572l-.187,1.31a1.553,1.553,0,0,0-1.452-.848,1.872,1.872,0,0,0-1.8,1.606A1.288,1.288,0,0,0,63.32,267.421Z" fill="#d7d7d7"/><path d="M71.186,263.284l-2.553,2.156,1.838,2.905H69.107l-1.6-2.574-.44,2.574H65.927l1.452-8.581h1.166l-.9,5.248,2.047-1.728Z" fill="#d7d7d7"/><path d="M77.337,305.245l1.3-7.7h2.4a3.131,3.131,0,0,1,3.235,3.851,4.442,4.442,0,0,1-4.467,3.85Zm2.42-6.479-.913,5.258h1.045a3.02,3.02,0,0,0,3.058-2.629,2.04,2.04,0,0,0-2.079-2.629Z" fill="#d7d7d7"/><path d="M86.929,304.387a1.285,1.285,0,0,0,1.3-1.078l.55-3.124h1.178l-.869,5.06H87.9l.121-.748a1.847,1.847,0,0,1-1.562.858c-1.144,0-1.573-.891-1.419-1.959l.55-3.211h1.188l-.528,3.08C86.17,303.859,86.291,304.387,86.929,304.387Z" fill="#d7d7d7"/><path d="M92.561,304.431a.637.637,0,0,0,.7-.594c.011-.441-.484-.671-.968-.858-.616-.243-1.265-.6-1.243-1.463a1.591,1.591,0,0,1,1.782-1.442,2.351,2.351,0,0,1,1.859.892l-.66.692a1.675,1.675,0,0,0-1.21-.681c-.4,0-.66.2-.66.484-.022.395.418.56.924.769.748.32,1.364.661,1.342,1.541a1.713,1.713,0,0,1-1.859,1.628,2.744,2.744,0,0,1-2.211-1.122l.748-.682A1.94,1.94,0,0,0,92.561,304.431Z" fill="#d7d7d7"/><path d="M96.048,300.185l.3-1.761h1.177l-.308,1.761h.836l-.187,1.044h-.825l-.7,4.016H95.19l.682-4.016h-.814l.187-1.044Z" fill="#d7d7d7"/><path d="M22.762,297.544l-1.386,8.075-4.5-5.556-.892,5.182H14.72L16.1,297.17l4.511,5.556.9-5.182Z" fill="#d7d7d7"/><path d="M26.128,300.074a2.232,2.232,0,0,1,2.288,2.641,3.07,3.07,0,0,1-3.037,2.64,2.237,2.237,0,0,1-2.288-2.64A3.071,3.071,0,0,1,26.128,300.074Zm-.661,4.225a1.832,1.832,0,0,0,1.739-1.584,1.255,1.255,0,0,0-1.178-1.584,1.832,1.832,0,0,0-1.738,1.584A1.255,1.255,0,0,0,25.467,304.3Z" fill="#d7d7d7"/><path d="M31.121,300.185l-.858,5.06H29.1l.847-5.06Zm-.242-2.729a.716.716,0,1,1-.748.715A.722.722,0,0,1,30.879,297.456Z" fill="#d7d7d7"/><path d="M33.849,304.431a.637.637,0,0,0,.7-.594c.012-.441-.484-.671-.968-.858-.616-.243-1.265-.6-1.243-1.463a1.591,1.591,0,0,1,1.782-1.442,2.35,2.35,0,0,1,1.859.892l-.66.692a1.675,1.675,0,0,0-1.21-.681c-.4,0-.66.2-.66.484-.022.395.418.56.925.769.748.32,1.363.661,1.341,1.541A1.713,1.713,0,0,1,33.86,305.4a2.744,2.744,0,0,1-2.211-1.122l.748-.682A1.94,1.94,0,0,0,33.849,304.431Z" fill="#d7d7d7"/><path d="M36.412,303.045a2.944,2.944,0,0,1,2.97-2.971,2,2,0,0,1,2.179,2.223,2.454,2.454,0,0,1-.121.693H37.6c-.022.814.374,1.386,1.188,1.386a1.777,1.777,0,0,0,1.474-.8l.991.406a2.905,2.905,0,0,1-2.564,1.376A2.135,2.135,0,0,1,36.412,303.045Zm1.331-.88h2.6v-.022c0-.726-.352-1.166-1.056-1.166A1.628,1.628,0,0,0,37.743,302.165Z" fill="#d7d7d7"/><path d="M21.986,122.832H19.235l-1.188,1.98H16.562l5.083-8.141,2.255,8.141H22.492Zm-2.2-1.1H21.81l-.594-2.442Z" fill="#d7d7d7"/><path d="M31.71,124.812H30.522l.55-3.08c.066-.594,0-1.122-.594-1.122a1.2,1.2,0,0,0-1.188,1.1l-.539,3.1H27.574l.539-3.08c.066-.594.011-1.122-.584-1.122a1.181,1.181,0,0,0-1.176,1.078l-.54,3.124H24.647l.88-5.06h1.144l-.109.7a1.7,1.7,0,0,1,1.463-.814,1.166,1.166,0,0,1,1.265.946,2.039,2.039,0,0,1,1.694-.946c1.122,0,1.4.9,1.265,1.958Z" fill="#d7d7d7"/><path d="M32.677,127.233l1.3-7.481h1.166l-.132.814a2.215,2.215,0,0,1,1.793-.946,2.111,2.111,0,0,1,1.992,2.662,2.948,2.948,0,0,1-2.817,2.662,1.552,1.552,0,0,1-1.529-1.078l-.561,3.367Zm3.741-6.535a1.84,1.84,0,0,0-1.7,1.584c-.11.847.319,1.562,1.078,1.584a1.844,1.844,0,0,0,1.783-1.584A1.232,1.232,0,0,0,36.418,120.7Z" fill="#d7d7d7"/></g><rect id="f56bd8a4-d6f0-40b8-b7ac-a94c504cc176" data-name="Header" width="115.2" height="31.181" fill="#00ce7c"/><polygon points="54.069 345.733 51.715 345.733 51.715 348.087 51.715 350.442 51.715 352.796 51.715 355.15 54.069 355.15 54.069 352.796 54.069 350.442 56.423 350.442 56.423 348.087 58.777 348.087 58.777 345.733 56.423 345.733 54.069 345.733" fill="#d7d7d7"/><polygon points="56.423 355.15 58.777 355.15 61.131 355.15 63.485 355.15 63.485 352.796 63.485 350.442 63.485 348.088 63.485 345.733 61.131 345.733 61.131 348.088 61.131 350.442 58.777 350.442 58.777 352.796 56.423 352.796 56.423 355.15" fill="#d7d7d7"/><polygon points="65.839 342.157 49.361 342.157 49.361 343.425 65.839 343.425 65.839 357.477 49.36 357.477 49.36 342.157 48.183 342.157 48.183 358.655 49.36 358.655 67.017 358.655 67.017 357.477 67.017 342.157 65.839 342.157" fill="#d7d7d7"/><path d="M30.61,23.567c0-1.255.251-3.262.251-5.019V16.107c0-1.5-.251-5.041-.251-5.588a1.369,1.369,0,0,1,1.414-1.3,1.349,1.349,0,0,1,1.392,1.3c0,.524-.251,4.174-.251,5.588v6.775c0,2.236.981,2.829,2.509,2.829,2.646,0,1.757-4.768,4.106-4.768a1.739,1.739,0,0,1,1.962,1.689c0,2.828-2.829,3.878-6.3,3.878C31.545,26.51,30.61,26.213,30.61,23.567Z" fill="#333"/><path d="M57.028,19.461c0,4.608-2.464,7.208-6.867,7.208-4.22,0-6.592-2.6-6.592-7.208,0-5.68.524-10.448,5.224-10.448,2.349,0,3.262,1.027,3.262,2.076a1.472,1.472,0,0,1-1.483,1.346c-1.665,0-1.437-2.19-3.011-2.19-1.095,0-1.688,1.117-1.688,8.668,0,3.719,1.551,5.772,4.311,5.772,2.9,0,4.54-2.076,4.54-5.817V16.244c0-1.5-.251-5.2-.251-5.748a1.369,1.369,0,0,1,1.414-1.3,1.35,1.35,0,0,1,1.392,1.3c0,.525-.251,4.334-.251,5.748Z" fill="#333"/><path d="M61.661,20.738c0,1.414.251,4.084.251,4.608a1.348,1.348,0,0,1-1.391,1.3,1.368,1.368,0,0,1-1.414-1.3c0-.547.251-3.1.251-4.608V16.244c0-1.5-.251-5.2-.251-5.748a1.369,1.369,0,0,1,1.414-1.3,1.349,1.349,0,0,1,1.391,1.3c0,.525-.251,4.334-.251,5.748Z" fill="#333"/><path d="M71.79,9.1a6.558,6.558,0,0,1,6.342,4.2c.365.844-.388,1.391-1.118,1.391a1.057,1.057,0,0,1-1.049-.753,4.525,4.525,0,0,0-4.2-2.9c-3.422,0-5.726,2.715-5.726,6.8,0,4.54,2.121,7.574,5.292,7.574,1.779,0,3.148-.822,3.148-2.578,0-1.779-1.049-2.281-1.049-3.536a1.512,1.512,0,0,1,1.619-1.734c1.6,0,2.806,1.095,2.806,3.263,0,2.441,2.327,2.9,2.327,4.448A1.267,1.267,0,0,1,78.862,26.6c-1.574,0-1.871-2.167-1.779-5.909h-.137a5.784,5.784,0,0,1-5.612,5.954c-4.539,0-7.6-3.513-7.6-8.828C63.738,12.594,66.977,9.1,71.79,9.1Z" fill="#333"/><path d="M84.339,20.738c0,1.414.251,4.084.251,4.608a1.348,1.348,0,0,1-1.392,1.3,1.368,1.368,0,0,1-1.414-1.3c0-.547.251-3.1.251-4.608V16.244c0-1.5-.251-5.2-.251-5.748A1.369,1.369,0,0,1,83.2,9.2a1.349,1.349,0,0,1,1.392,1.3c0,.525-.251,4.334-.251,5.748Z" fill="#333"/><g id="8f7d8223-b2c1-41dc-9499-cc084d30f94d" data-name="Legend"><circle cx="57.6" cy="89.124" r="13.636" fill="none" stroke="#00ce7c" stroke-miterlimit="10"/><path d="M17.5,170.4a.5.5,0,0,1-.283-.088,18.924,18.924,0,1,1,21.433-.008.5.5,0,0,1-.567-.824,17.926,17.926,0,1,0-20.3.008.5.5,0,0,1-.284.912Z" fill="#00ce7c"/><path d="M18.291,168.573a1.5,1.5,0,1,1-2.086.414A1.5,1.5,0,0,1,18.291,168.573Z" fill="#00ce7c"/><circle cx="38.405" cy="169.816" r="1.504" fill="#00ce7c"/><circle cx="87.275" cy="211.908" r="13.636" fill="none" stroke="#00ce7c" stroke-miterlimit="10"/><circle cx="27.925" cy="211.908" r="13.636" fill="none" stroke="#00ce7c" stroke-miterlimit="10"/><path d="M76.847,169.034a.5.5,0,0,1-.283-.088A18.925,18.925,0,1,1,98,168.938a.5.5,0,0,1-.568-.824,17.925,17.925,0,1,0-20.3.008.5.5,0,0,1-.284.912Z" fill="#00ce7c"/><path d="M77.641,167.211a1.5,1.5,0,1,1-2.086.414A1.5,1.5,0,0,1,77.641,167.211Z" fill="#00ce7c"/><circle cx="97.754" cy="168.454" r="1.504" fill="#00ce7c"/><line x1="27.925" y1="198.273" x2="27.925" y2="180.338" fill="none" stroke="#00ce7c" stroke-miterlimit="10"/><polygon points="29.621 182.33 27.925 180.634 26.23 182.33 26.23 180.89 27.925 179.195 29.621 180.89 29.621 182.33" fill="#00ce7c"/><line x1="87.154" y1="198.273" x2="87.154" y2="180.338" fill="none" stroke="#00ce7c" stroke-miterlimit="10"/><polygon points="88.849 182.33 87.154 180.634 85.458 182.33 85.458 180.89 87.154 179.195 88.849 180.89 88.849 182.33" fill="#00ce7c"/></g></g></svg>