<svg xmlns="http://www.w3.org/2000/svg" width="40.63999mm" height="128.5mm" viewBox="0 0 115.19998 364.25196">
  <title>master9</title>
  <g id="3191c543-51ea-4036-91dc-954f4f37c917" data-name="Luigi">
    <rect id="4bf15124-d7eb-4fbc-96bc-6252f527499e" data-name="BG" width="115.19998" height="364.25197" style="fill: #2a2d30"/>
    <g id="b2983ddc-e69b-4c19-84bd-c5dc36225c98" data-name="Text">
      <g>
        <path d="M68.11923,119.11133l-1.34229,7.70117H65.50106l1.29785-7.70117Z" style="fill: #d7d7d7"/>
        <path d="M71.33114,122.60986a1.28377,1.28377,0,0,0-1.28711,1.08936L69.505,126.8125H68.31649l.88037-5.06055h1.17725L70.253,122.5a1.83223,1.83223,0,0,1,1.562-.8584c1.15527,0,1.58447.88037,1.43017,1.9585l-.5498,3.2124H71.485l.55029-3.08057C72.1119,123.13818,71.9913,122.60986,71.33114,122.60986Z" style="fill: #d7d7d7"/>
        <path d="M75.1368,121.752l.29688-1.76025h1.17725l-.30811,1.76025h.83643l-.187,1.04493H76.127l-.7041,4.01562h-1.144l.68213-4.01562h-.81445l.187-1.04493Z" style="fill: #d7d7d7"/>
        <path d="M78.04061,125.49219a.75958.75958,0,1,1,0,1.51855.75935.75935,0,1,1,0-1.51855Z" style="fill: #d7d7d7"/>
        <path d="M87.358,125.66846a3.75036,3.75036,0,0,0,2.55224-1.07813l-.231,1.54a4.06848,4.06848,0,0,1-2.49756.814,3.27944,3.27944,0,0,1-3.25635-3.98243,4.66107,4.66107,0,0,1,4.53271-3.98242,3.20363,3.20363,0,0,1,2.28809.814l-.2417,1.55127a2.48931,2.48931,0,0,0-2.13428-1.08936,3.22128,3.22128,0,0,0-3.05859,2.70654A2.16644,2.16644,0,0,0,87.358,125.66846Z" style="fill: #d7d7d7"/>
        <path d="M93.628,118.23145l-1.48536,8.58105H90.98739l1.45215-8.58105Z" style="fill: #d7d7d7"/>
        <path d="M96.75155,121.6416a2.23224,2.23224,0,0,1,2.28858,2.64063,3.07079,3.07079,0,0,1-3.03663,2.64013,2.23633,2.23633,0,0,1-2.28808-2.64013A3.07033,3.07033,0,0,1,96.75155,121.6416Zm-.66016,4.22461a1.83188,1.83188,0,0,0,1.73829-1.584,1.25514,1.25514,0,0,0-1.17725-1.58448,1.83275,1.83275,0,0,0-1.73828,1.58448A1.25519,1.25519,0,0,0,96.09139,125.86621Z" style="fill: #d7d7d7"/>
        <path d="M102.09725,125.88818a2.33491,2.33491,0,0,0,1.77149-.83593l-.187,1.29834a2.728,2.728,0,0,1-1.71631.57177,2.24689,2.24689,0,0,1-2.31055-2.64013,3.06592,3.06592,0,0,1,3.04785-2.64063,2.3981,2.3981,0,0,1,1.606.57227l-.187,1.30908a1.55426,1.55426,0,0,0-1.45215-.84717,1.87267,1.87267,0,0,0-1.8042,1.60645A1.28669,1.28669,0,0,0,102.09725,125.88818Z" style="fill: #d7d7d7"/>
        <path d="M109.963,121.752l-2.55225,2.15625,1.8374,2.9043h-1.36425l-1.59522-2.57422-.44043,2.57422h-1.144l1.45215-8.58105h1.1665l-.90234,5.24755,2.04638-1.72705Z" style="fill: #d7d7d7"/>
      </g>
      <g>
        <path d="M40.51132,59.312l-.19825,1.144H37.00155l-.31885,1.87061h3.10254L39.587,63.44873H36.49569l-.418,2.42041H39.4l-.19776,1.144H34.62509L35.92343,59.312Z" style="fill: #d7d7d7"/>
        <path d="M45.67,61.95264l-2.15674,2.49707,1.44141,2.56347H43.68954l-.92432-1.76025L41.357,67.01318H39.97079l2.31055-2.67334-1.38623-2.3872h1.29834l.83593,1.584,1.29834-1.584Z" style="fill: #d7d7d7"/>
        <path d="M46.57138,61.95264l.29687-1.76026H48.0455l-.30811,1.76026h.83643l-.187,1.04492h-.82519l-.7041,4.01562h-1.144l.68212-4.01562h-.81445l.187-1.04492Z" style="fill: #d7d7d7"/>
        <path d="M49.47518,65.69287a.75959.75959,0,1,1,0,1.51856.75935.75935,0,1,1,0-1.51856Z" style="fill: #d7d7d7"/>
        <path d="M58.79257,65.86914A3.75035,3.75035,0,0,0,61.34481,64.791l-.23095,1.54a4.06848,4.06848,0,0,1-2.49756.814A3.27943,3.27943,0,0,1,55.36,63.1626a4.66106,4.66106,0,0,1,4.53271-3.98242,3.20367,3.20367,0,0,1,2.28809.814l-.2417,1.55127a2.48931,2.48931,0,0,0-2.13428-1.08936,3.22128,3.22128,0,0,0-3.05859,2.70655A2.16643,2.16643,0,0,0,58.79257,65.86914Z" style="fill: #d7d7d7"/>
        <path d="M65.06259,58.43213l-1.48536,8.58105H62.422l1.45215-8.58105Z" style="fill: #d7d7d7"/>
        <path d="M68.18612,61.84229a2.23223,2.23223,0,0,1,2.28858,2.64062,3.0708,3.0708,0,0,1-3.03663,2.64014A2.23634,2.23634,0,0,1,65.15,64.48291,3.07033,3.07033,0,0,1,68.18612,61.84229Zm-.66015,4.2246a1.83188,1.83188,0,0,0,1.73828-1.584A1.25514,1.25514,0,0,0,68.087,62.89844a1.83274,1.83274,0,0,0-1.73828,1.58447A1.25519,1.25519,0,0,0,67.526,66.06689Z" style="fill: #d7d7d7"/>
        <path d="M73.53182,66.08887a2.33492,2.33492,0,0,0,1.77149-.83594l-.187,1.29834A2.728,2.728,0,0,1,73.4,67.12305a2.2469,2.2469,0,0,1-2.31055-2.64014,3.06592,3.06592,0,0,1,3.04785-2.64062,2.3981,2.3981,0,0,1,1.606.57226l-.187,1.30908a1.55426,1.55426,0,0,0-1.45215-.84717,1.87268,1.87268,0,0,0-1.8042,1.60645A1.2867,1.2867,0,0,0,73.53182,66.08887Z" style="fill: #d7d7d7"/>
        <path d="M81.39755,61.95264,78.8453,64.10889l1.8374,2.90429H79.31845L77.72323,64.439l-.44043,2.57422h-1.144l1.45215-8.58105h1.1665l-.90234,5.24756,2.04638-1.727Z" style="fill: #d7d7d7"/>
      </g>
      <g>
        <path d="M42.12362,246.44336a2.08635,2.08635,0,0,1,2.332,2.39844,2.73718,2.73718,0,0,1-2.06836,2.25586l1.58448,3.04687h-1.4961l-1.39746-2.915h-.77l-.49512,2.915H38.5372l1.29785-7.70117Zm-1.18848,1.13379-.43994,2.57422h.94629a1.59889,1.59889,0,0,0,1.69434-1.28711,1.06431,1.06431,0,0,0-1.18848-1.28711Z" style="fill: #d7d7d7"/>
        <path d="M47.64511,248.97363a1.58413,1.58413,0,0,1,1.55127,1.10059l.165-.99024h1.16651l-.88037,5.06055h-1.1333l.14306-.84668a2.27242,2.27242,0,0,1-1.82617.957,2.11323,2.11323,0,0,1-2.00244-2.64062A2.95524,2.95524,0,0,1,47.64511,248.97363Zm-.44,4.24707a1.863,1.863,0,0,0,1.69434-1.60644c.10986-.84668-.30811-1.584-1.07812-1.60645a1.86454,1.86454,0,0,0-1.78223,1.60645C45.90682,252.47266,46.34725,253.2207,47.20516,253.2207Z" style="fill: #d7d7d7"/>
        <path d="M54.04745,249.94238a1.28378,1.28378,0,0,0-1.28711,1.08887l-.53906,3.11328H51.0328l.88037-5.06055h1.17725l-.1211.74805a1.83226,1.83226,0,0,1,1.562-.8584c1.15527,0,1.58447.88086,1.43017,1.959l-.5498,3.21191H54.20126l.55029-3.08008C54.82821,250.4707,54.70761,249.94238,54.04745,249.94238Z" style="fill: #d7d7d7"/>
        <path d="M59.72274,248.97363a1.58305,1.58305,0,0,1,1.5293,1.0459l.75928-4.45605h1.188l-1.47412,8.58105H60.54794l.13232-.78125a2.22952,2.22952,0,0,1-1.77148.8916,2.11322,2.11322,0,0,1-2.00244-2.64062A2.95524,2.95524,0,0,1,59.72274,248.97363Zm-.43994,4.24707a1.863,1.863,0,0,0,1.69434-1.60644c.10986-.84668-.30811-1.584-1.07813-1.60645a1.86453,1.86453,0,0,0-1.78222,1.60645C57.98446,252.47266,58.42489,253.2207,59.2828,253.2207Z" style="fill: #d7d7d7"/>
        <path d="M66.27889,248.97363a2.23224,2.23224,0,0,1,2.28858,2.64063,3.07121,3.07121,0,0,1-3.03662,2.64062,2.23672,2.23672,0,0,1-2.28809-2.64062A3.07035,3.07035,0,0,1,66.27889,248.97363Zm-.66015,4.22461a1.83188,1.83188,0,0,0,1.73828-1.584,1.25473,1.25473,0,0,0-1.17725-1.584,1.83229,1.83229,0,0,0-1.73828,1.584A1.2552,1.2552,0,0,0,65.61874,253.19824Z" style="fill: #d7d7d7"/>
        <path d="M76.17929,254.14453h-1.188l.5498-3.08008c.06641-.59375,0-1.12207-.59375-1.12207a1.19614,1.19614,0,0,0-1.18847,1.09961l-.53907,3.10254H72.043l.53907-3.08008c.06592-.59375.01074-1.12207-.5835-1.12207a1.18092,1.18092,0,0,0-1.17676,1.07813l-.53955,3.124h-1.166l.88037-5.06055h1.144l-.10986.70411a1.70288,1.70288,0,0,1,1.46289-.81446,1.16636,1.16636,0,0,1,1.26514.94629,2.03986,2.03986,0,0,1,1.69433-.94629c1.12207,0,1.39746.90235,1.26514,1.959Z" style="fill: #d7d7d7"/>
        <path d="M48.58065,266.2002a3.74161,3.74161,0,0,0,2.55225-1.07813l-.231,1.541a4.06814,4.06814,0,0,1-2.49756.81347,3.27923,3.27923,0,0,1-3.25634-3.98242,4.661,4.661,0,0,1,4.53271-3.98242,3.19973,3.19973,0,0,1,2.28809.81445l-.2417,1.55078a2.489,2.489,0,0,0-2.13428-1.08886,3.22034,3.22034,0,0,0-3.05859,2.70605A2.16565,2.16565,0,0,0,48.58065,266.2002Z" style="fill: #d7d7d7"/>
        <path d="M54.85067,258.76367l-1.48535,8.58106H52.21005l1.45215-8.58106Z" style="fill: #d7d7d7"/>
        <path d="M57.97421,262.17383a2.23222,2.23222,0,0,1,2.28857,2.64062,3.0712,3.0712,0,0,1-3.03662,2.64063,2.23673,2.23673,0,0,1-2.28809-2.64063A3.07035,3.07035,0,0,1,57.97421,262.17383Zm-.66016,4.22461a1.83188,1.83188,0,0,0,1.73828-1.584,1.25472,1.25472,0,0,0-1.17724-1.584,1.83229,1.83229,0,0,0-1.73829,1.584A1.2552,1.2552,0,0,0,57.31405,266.39844Z" style="fill: #d7d7d7"/>
        <path d="M63.31991,266.4209a2.33649,2.33649,0,0,0,1.77148-.83594l-.187,1.29785a2.73117,2.73117,0,0,1-1.71631.57227,2.24727,2.24727,0,0,1-2.31054-2.64063,3.06592,3.06592,0,0,1,3.04785-2.64062,2.39565,2.39565,0,0,1,1.606.57226l-.187,1.30957a1.5538,1.5538,0,0,0-1.45214-.84765,1.87222,1.87222,0,0,0-1.8042,1.60644A1.2871,1.2871,0,0,0,63.31991,266.4209Z" style="fill: #d7d7d7"/>
        <path d="M71.18563,262.28418l-2.55224,2.15625,1.8374,2.9043H69.10653l-1.59521-2.57422-.44043,2.57422H65.92684l1.45215-8.58106H68.5455l-.90235,5.24805,2.04639-1.72754Z" style="fill: #d7d7d7"/>
      </g>
      <g>
        <path d="M77.337,303.24512l1.29785-7.70117h2.39844a3.1305,3.1305,0,0,1,3.23437,3.85058,4.4425,4.4425,0,0,1-4.46679,3.85059Zm2.41992-6.4795-.91308,5.25879h1.04541a3.021,3.021,0,0,0,3.0581-2.62988,2.0404,2.0404,0,0,0-2.0791-2.62891Z" style="fill: #d7d7d7"/>
        <path d="M86.9288,302.38672a1.28429,1.28429,0,0,0,1.29834-1.07813l.55029-3.124h1.17725l-.86914,5.06055H87.89706l.12109-.748a1.84651,1.84651,0,0,1-1.562.8584c-1.14453,0-1.57324-.8916-1.41943-1.959l.55029-3.21191h1.188l-.52783,3.08008C86.17,301.85938,86.2911,302.38672,86.9288,302.38672Z" style="fill: #d7d7d7"/>
        <path d="M92.56112,302.43066a.63692.63692,0,0,0,.7041-.59375c.01123-.44043-.48388-.67089-.96826-.85839-.61621-.24219-1.26514-.6045-1.24316-1.4629a1.59156,1.59156,0,0,1,1.78222-1.4414,2.35175,2.35175,0,0,1,1.85938.8916l-.66016.69238a1.67594,1.67594,0,0,0-1.21-.68164c-.396,0-.66015.19824-.66015.48438-.022.39551.418.56054.92382.76953.74854.31933,1.36426.66015,1.34229,1.54a1.71394,1.71394,0,0,1-1.85889,1.6289,2.74641,2.74641,0,0,1-2.21142-1.12207l.748-.68261A1.93687,1.93687,0,0,0,92.56112,302.43066Z" style="fill: #d7d7d7"/>
        <path d="M96.04794,298.18457l.29687-1.76074h1.17725l-.30811,1.76074h.83643l-.187,1.04492h-.8252l-.7041,4.01563H95.19l.68213-4.01563H95.0577l.187-1.04492Z" style="fill: #d7d7d7"/>
      </g>
      <g>
        <path d="M22.76229,295.544l-1.38623,8.07519-4.49951-5.55566-.89111,5.18164H14.7203l1.375-8.0752,4.51074,5.55567.90235-5.18164Z" style="fill: #d7d7d7"/>
        <path d="M26.12753,298.07422a2.232,2.232,0,0,1,2.28857,2.64062,3.0712,3.0712,0,0,1-3.03662,2.64063,2.23673,2.23673,0,0,1-2.28809-2.64063A3.07035,3.07035,0,0,1,26.12753,298.07422Zm-.66016,4.22461a1.83188,1.83188,0,0,0,1.73828-1.584,1.25472,1.25472,0,0,0-1.17724-1.584,1.83228,1.83228,0,0,0-1.73828,1.584A1.25519,1.25519,0,0,0,25.46737,302.29883Z" style="fill: #d7d7d7"/>
        <path d="M31.12118,298.18457l-.85791,5.06055h-1.166l.84668-5.06055Zm-.2417-2.72852a.71558.71558,0,1,1-.748.71485A.72117.72117,0,0,1,30.87948,295.45605Z" style="fill: #d7d7d7"/>
        <path d="M33.84921,302.43066a.63692.63692,0,0,0,.7041-.59375c.01123-.44043-.48389-.67089-.96826-.85839-.61573-.24219-1.26514-.6045-1.24317-1.4629a1.59157,1.59157,0,0,1,1.78223-1.4414,2.35173,2.35173,0,0,1,1.85937.8916l-.66015.69238a1.676,1.676,0,0,0-1.21-.68164c-.396,0-.66016.19824-.66016.48438-.022.39551.418.56054.92432.76953.748.31933,1.36377.66015,1.34179,1.54a1.71393,1.71393,0,0,1-1.85888,1.6289,2.74645,2.74645,0,0,1-2.21143-1.12207l.74805-.68261A1.93685,1.93685,0,0,0,33.84921,302.43066Z" style="fill: #d7d7d7"/>
        <path d="M36.41171,301.04492a2.94425,2.94425,0,0,1,2.9707-2.9707,1.99932,1.99932,0,0,1,2.17822,2.22266,2.44863,2.44863,0,0,1-.12109.69335H37.60018c-.022.81348.374,1.38575,1.188,1.38575a1.77805,1.77805,0,0,0,1.47412-.80274l.99024.40625a2.905,2.905,0,0,1-2.56348,1.376A2.13528,2.13528,0,0,1,36.41171,301.04492Zm1.33154-.87988h2.59619v-.02246c0-.72559-.35205-1.166-1.05615-1.166A1.62788,1.62788,0,0,0,37.74325,300.165Z" style="fill: #d7d7d7"/>
      </g>
      <g>
        <path d="M21.98593,124.832H19.23544l-1.188,1.98047H16.5621l5.083-8.14111L23.9,126.8125h-1.4082Zm-2.2002-1.1001h2.02441l-.59423-2.44238Z" style="fill: #d7d7d7"/>
        <path d="M31.71005,126.8125h-1.188l.5498-3.08057c.06641-.59375,0-1.12207-.59375-1.12207a1.1962,1.1962,0,0,0-1.18847,1.1001l-.53907,3.10254H27.57382l.53906-3.08057c.06592-.59375.01074-1.12207-.5835-1.12207a1.18128,1.18128,0,0,0-1.17675,1.07813l-.53956,3.12451h-1.166l.88037-5.06055h1.144l-.10986.7041a1.70182,1.70182,0,0,1,1.46289-.81445,1.166,1.166,0,0,1,1.26514.94629,2.03984,2.03984,0,0,1,1.69433-.94629c1.12207,0,1.39746.90235,1.26514,1.9585Z" style="fill: #d7d7d7"/>
        <path d="M32.67684,129.23291l1.29834-7.481h1.166l-.13184.814a2.214,2.214,0,0,1,1.793-.94629,2.11106,2.11106,0,0,1,1.99121,2.6626,2.94754,2.94754,0,0,1-2.8164,2.66211,1.55422,1.55422,0,0,1-1.5293-1.07813l-.561,3.3667Zm3.74073-6.53516a1.8401,1.8401,0,0,0-1.69434,1.58448c-.11035.84716.31885,1.562,1.07813,1.584a1.84388,1.84388,0,0,0,1.78222-1.584A1.23175,1.23175,0,0,0,36.41757,122.69775Z" style="fill: #d7d7d7"/>
      </g>
    </g>
    <g id="3f384bea-c38e-40a9-9198-f12b7ee32377" data-name="Logo">
      <g>
        <polygon points="54.069 345.733 51.715 345.733 51.715 348.087 51.715 350.442 51.715 352.796 51.715 355.15 54.069 355.15 54.069 352.796 54.069 350.442 56.423 350.442 56.423 348.087 58.777 348.087 58.777 345.733 56.423 345.733 54.069 345.733" style="fill: #d7d7d7"/>
        <polygon points="56.423 355.15 58.777 355.15 61.131 355.15 63.485 355.15 63.485 352.796 63.485 350.442 63.485 348.088 63.485 345.733 61.131 345.733 61.131 348.088 61.131 350.442 58.777 350.442 58.777 352.796 56.423 352.796 56.423 355.15" style="fill: #d7d7d7"/>
        <polygon points="65.839 342.157 49.361 342.157 49.361 343.425 65.839 343.425 65.839 357.477 49.36 357.477 49.36 342.157 48.183 342.157 48.183 358.655 49.36 358.655 67.017 358.655 67.017 357.477 67.017 342.157 65.839 342.157" style="fill: #d7d7d7"/>
      </g>
    </g>
    <g>
      <path d="M30.61,20.10254c0-1.2544.251-3.26221.251-5.01856V12.64307c0-1.50537-.251-5.04151-.251-5.58887A1.36869,1.36869,0,0,1,32.024,5.75391a1.34842,1.34842,0,0,1,1.3916,1.30029c0,.52441-.251,4.17432-.251,5.58887V19.418c0,2.23584.981,2.8291,2.50927,2.8291,2.64649,0,1.75684-4.76807,4.10645-4.76807a1.7378,1.7378,0,0,1,1.96143,1.68848c0,2.82861-2.82862,3.87793-6.2959,3.87793C31.545,23.04541,30.61,22.74854,30.61,20.10254Z" style="fill: #d7d7d7"/>
      <path d="M57.02792,15.99658c0,4.60791-2.46387,7.2085-6.8667,7.2085-4.22022,0-6.59229-2.60059-6.59229-7.2085,0-5.68017.52442-10.44824,5.22364-10.44824,2.34961,0,3.2622,1.02686,3.2622,2.07617a1.47163,1.47163,0,0,1-1.48291,1.3457c-1.665,0-1.437-2.18994-3.01074-2.18994-1.09521,0-1.68848,1.11768-1.68848,8.66846,0,3.71875,1.55127,5.77148,4.31153,5.77148,2.897,0,4.53955-2.07568,4.53955-5.81689V12.77979c0-1.50538-.251-5.20118-.251-5.74854A1.36946,1.36946,0,0,1,55.88729,5.731a1.349,1.349,0,0,1,1.3916,1.30029c0,.5249-.251,4.33447-.251,5.74854Z" style="fill: #d7d7d7"/>
      <path d="M61.66122,17.27393c0,1.41406.251,4.08349.251,4.60791a1.34843,1.34843,0,0,1-1.39161,1.30029,1.36869,1.36869,0,0,1-1.41406-1.30029c0-.54737.251-3.10254.251-4.60791V12.77979c0-1.50538-.251-5.20118-.251-5.74854A1.369,1.369,0,0,1,60.52059,5.731,1.34875,1.34875,0,0,1,61.9122,7.03125c0,.5249-.251,4.33447-.251,5.74854Z" style="fill: #d7d7d7"/>
      <path d="M71.79013,5.63965A6.55785,6.55785,0,0,1,78.13192,9.8374c.36524.84375-.38769,1.39112-1.11767,1.39112a1.05718,1.05718,0,0,1-1.04932-.75245,4.52477,4.52477,0,0,0-4.19727-2.89746c-3.42187,0-5.72607,2.71485-5.72607,6.79834,0,4.53955,2.12158,7.57325,5.29248,7.57325,1.7793,0,3.148-.82129,3.148-2.57764,0-1.7793-1.04932-2.28125-1.04932-3.53565A1.51207,1.51207,0,0,1,75.05233,14.103c1.59717,0,2.80615,1.09472,2.80615,3.2622,0,2.44092,2.32666,2.897,2.32666,4.44825a1.26685,1.26685,0,0,1-1.32324,1.32324c-1.57373,0-1.8706-2.16748-1.77929-5.90869h-.13672a5.78482,5.78482,0,0,1-5.61182,5.9541c-4.53955,0-7.59619-3.51318-7.59619-8.82813C63.73788,9.12988,66.97714,5.63965,71.79013,5.63965Z" style="fill: #d7d7d7"/>
      <path d="M84.339,17.27393c0,1.41406.251,4.08349.251,4.60791a1.34842,1.34842,0,0,1-1.3916,1.30029,1.36869,1.36869,0,0,1-1.41406-1.30029c0-.54737.251-3.10254.251-4.60791V12.77979c0-1.50538-.251-5.20118-.251-5.74854A1.369,1.369,0,0,1,83.19833,5.731a1.34874,1.34874,0,0,1,1.3916,1.30029c0,.5249-.251,4.33447-.251,5.74854Z" style="fill: #d7d7d7"/>
    </g>
    <g id="81cfc674-9b7a-43be-9696-7f9b0590c282" data-name="Legend">
      <circle cx="57.59999" cy="89.12376" r="13.63575" style="fill: none;stroke: #00ce7c;stroke-miterlimit: 10"/>
      <g>
        <path d="M17.49782,170.39574a.49635.49635,0,0,1-.28272-.08789A18.92439,18.92439,0,1,1,38.64821,170.3a.50032.50032,0,0,1-.56738-.82422,17.92523,17.92523,0,1,0-20.29932.00781.5.5,0,0,1-.28369.91211Z" style="fill: #00ce7c"/>
        <path d="M18.2914,168.573a1.5039,1.5039,0,1,1-2.08609.41428A1.50407,1.50407,0,0,1,18.2914,168.573Z" style="fill: #00ce7c"/>
        <circle cx="38.4049" cy="169.8165" r="1.50391" style="fill: #00ce7c"/>
      </g>
      <circle cx="87.27469" cy="211.90848" r="13.63575" style="fill: none;stroke: #00ce7c;stroke-miterlimit: 10"/>
      <circle cx="27.92531" cy="211.90848" r="13.63575" style="fill: none;stroke: #00ce7c;stroke-miterlimit: 10"/>
      <g>
        <path d="M76.8472,169.03374a.49635.49635,0,0,1-.28272-.08789,18.92439,18.92439,0,1,1,21.43311-.00781.50032.50032,0,0,1-.56739-.82422,17.92522,17.92522,0,1,0-20.29931.00781.5.5,0,0,1-.28369.91211Z" style="fill: #00ce7c"/>
        <path d="M77.64078,167.211a1.5039,1.5039,0,1,1-2.08609.41428A1.50408,1.50408,0,0,1,77.64078,167.211Z" style="fill: #00ce7c"/>
        <circle cx="97.75428" cy="168.45449" r="1.50391" style="fill: #00ce7c"/>
      </g>
      <g>
        <line x1="27.92532" y1="198.27274" x2="27.92532" y2="180.33805" style="fill: none;stroke: #00ce7c;stroke-miterlimit: 10"/>
        <polygon points="29.621 182.33 27.925 180.634 26.23 182.33 26.23 180.89 27.925 179.195 29.621 180.89 29.621 182.33" style="fill: #00ce7c"/>
      </g>
      <g>
        <line x1="87.15365" y1="198.27274" x2="87.15365" y2="180.33805" style="fill: none;stroke: #00ce7c;stroke-miterlimit: 10"/>
        <polygon points="88.849 182.33 87.154 180.634 85.458 182.33 85.458 180.89 87.154 179.195 88.849 180.89 88.849 182.33" style="fill: #00ce7c"/>
      </g>
    </g>
  </g>
</svg>
