<svg xmlns="http://www.w3.org/2000/svg" width="71.12mm" height="128.5mm" viewBox="0 0 201.6 364.25197">
  <title>master9</title>
  <g id="8aa4c77d-b660-467b-82b4-02cf1585b388" data-name="Monte">
    <g id="2775124f-c4bf-4214-bab6-16fa230a2fb8" data-name="BG">
      <rect width="201.6" height="364.25197" style="fill: #2a2d30"/>
    </g>
    <g>
      <path d="M93.17236,8.81641a11.49551,11.49551,0,0,0-3.07666,2.001,24.02078,24.02078,0,0,0-3.93408,4.73682l-1.57324,2.34473a17.30261,17.30261,0,0,1-2.21192,2.8374,2.52642,2.52642,0,0,1-1.66943.83642,1.37117,1.37117,0,0,1-.8916-.29736.91031.91031,0,0,1-.36719-.73437,1.2629,1.2629,0,0,1,.20117-.62549,6.56249,6.56249,0,0,1,.67286-.89112,8.43521,8.43521,0,0,0,2.43017-5.43994,4.93567,4.93567,0,0,0-1.38086-3.6582,4.95181,4.95181,0,0,0-3.65429-1.37549,7.98218,7.98218,0,0,0-2.84083.53174,9.18,9.18,0,0,0-2.56982,1.47705,7.64235,7.64235,0,0,0-1.82715,2.09473,4.59586,4.59586,0,0,0-.66455,2.32129,2.2639,2.2639,0,0,0,.27979,1.12548,4.10166,4.10166,0,0,0,.90918,1.04737l.45459.35986a1.16239,1.16239,0,0,1,.45459.85986,1.13838,1.13838,0,0,1-.46338.89844,1.63578,1.63578,0,0,1-1.0752.3833,2.9456,2.9456,0,0,1-1.80957-.64111,4.42908,4.42908,0,0,1-1.34619-1.72705,5.4342,5.4342,0,0,1-.49805-2.29053,6.953,6.953,0,0,1,.88282-3.36084,10.159,10.159,0,0,1,2.46533-2.94678,12.32228,12.32228,0,0,1,3.5664-2.07129A11.59842,11.59842,0,0,1,77.77,5.86182a9.45065,9.45065,0,0,1,2.95459.46923,7.98973,7.98973,0,0,1,2.5,1.313,6.35624,6.35624,0,0,1,1.66113,1.93067A4.82645,4.82645,0,0,1,85.48,11.92725a25.2538,25.2538,0,0,1,2.21143-2.59473,13.67331,13.67331,0,0,1,2.07177-1.67285,11.65835,11.65835,0,0,1,2.62256-1.34424,7.45306,7.45306,0,0,1,2.46533-.45361,2.475,2.475,0,0,1,1.51221.42236,1.37828,1.37828,0,0,1,.56787,1.17236,5.3503,5.3503,0,0,1-.73388,1.9541L87.82275,25.481a4.7173,4.7173,0,0,1-.918,1.35986,1.67434,1.67434,0,0,1-2.063.00781,1.11372,1.11372,0,0,1-.41065-.8833,3.641,3.641,0,0,1,.48926-1.34424ZM70.70654,24.62109l6.81885-13.06884a5.05974,5.05974,0,0,1,.93506-1.37549,1.49638,1.49638,0,0,1,1.023-.34424,1.51563,1.51563,0,0,1,1.02246.35205,1.09794,1.09794,0,0,1,.41113.86719,3.66335,3.66335,0,0,1-.50732,1.36035L73.59131,25.481a4.718,4.718,0,0,1-.91748,1.35986,1.67505,1.67505,0,0,1-2.06348.00781,1.11374,1.11374,0,0,1-.41064-.8833A3.558,3.558,0,0,1,70.70654,24.62109Z" style="fill: #d7d7d7"/>
      <path d="M92.63086,23.24512a7.66377,7.66377,0,0,1,.55078-2.84473,8.6883,8.6883,0,0,1,1.54688-2.53271,7.44462,7.44462,0,0,1,2.24658-1.77442,5.576,5.576,0,0,1,2.54394-.63281,4.35413,4.35413,0,0,1,2.07178.46094A3.16148,3.16148,0,0,1,102.91943,17.25a4.38124,4.38124,0,0,1,.46338,2.0874,8.03167,8.03167,0,0,1-.97021,3.814,8.15969,8.15969,0,0,1-2.57031,2.939,5.735,5.735,0,0,1-3.313,1.10987,3.80308,3.80308,0,0,1-2.832-1.07862A3.91249,3.91249,0,0,1,92.63086,23.24512Zm3.09424.03125a1.42439,1.42439,0,0,0,.34082,1.0083,1.19221,1.19221,0,0,0,.918.36767q1.18872,0,2.41259-2.17285a6.56425,6.56425,0,0,0,.96192-3.15771,1.6098,1.6098,0,0,0-.29736-1.04785,1.07037,1.07037,0,0,0-.874-.35938,1.98486,1.98486,0,0,0-1.355.60986,6.58054,6.58054,0,0,0-1.28515,1.86036A6.861,6.861,0,0,0,95.7251,23.27637Z" style="fill: #d7d7d7"/>
      <path d="M110.5332,16.66406a4.75764,4.75764,0,0,1,1.48584-.84424,4.82939,4.82939,0,0,1,1.6958-.35937,2.65035,2.65035,0,0,1,1.75733.5625,1.8428,1.8428,0,0,1,.67285,1.48535,6.18,6.18,0,0,1-.979,2.89209l-.78663,1.39111-.71679,1.28174a2.48025,2.48025,0,0,0-.40235,1.01612.47458.47458,0,0,0,.542.53173,1.57447,1.57447,0,0,0,.57714-.125,5.74963,5.74963,0,0,0,.8042-.42236q.48927-.29663,1.39844-.95361a14.32682,14.32682,0,0,1,1.27637-.8208,1.58744,1.58744,0,0,1,.73437-.17969,1.16414,1.16414,0,0,1,.8042.29736.93009.93009,0,0,1,.332.71875q0,.813-1.67822,1.93848-3.07764,2.12622-5.21,2.126a2.97153,2.97153,0,0,1-1.98437-.65625,2.15908,2.15908,0,0,1-.77784-1.73536,4.39647,4.39647,0,0,1,.36719-1.501q.33178-.7815,1.64307-3.09522a6.08959,6.08959,0,0,0,.78711-1.688q0-.438-.50733-.438a3.57047,3.57047,0,0,0-1.44238.49267,11.56858,11.56858,0,0,0-1.86182,1.21143l-3.042,5.81543a5.10434,5.10434,0,0,1-.86572,1.28955,1.37989,1.37989,0,0,1-.95264.30469,1.4175,1.4175,0,0,1-.95264-.32032,1.03024,1.03024,0,0,1-.376-.8208,3.43794,3.43794,0,0,1,.47217-1.26611l4.03857-7.73828a4.72656,4.72656,0,0,1,.85645-1.26612,1.38856,1.38856,0,0,1,.96142-.32812,1.45769,1.45769,0,0,1,.96192.30469.97868.97868,0,0,1,.36718.78955Z" style="fill: #d7d7d7"/>
      <path d="M122.92871,18.02393l-2.43017,4.62744a4.27846,4.27846,0,0,0-.55958,1.48486q0,.42188.48975.42236a3.46515,3.46515,0,0,0,1.38086-.42236q1.084-.50025,2.2207-1.14111l.90918-.53125a2.22351,2.22351,0,0,1,1.10108-.34424,1.27229,1.27229,0,0,1,.58593.14844,1.16224,1.16224,0,0,1,.45459.40673.96092.96092,0,0,1,.166.52344,1.41883,1.41883,0,0,1-.57715,1.03955,10.70445,10.70445,0,0,1-2.04541,1.25879,12.44143,12.44143,0,0,1-5.14013,1.70362,3.21356,3.21356,0,0,1-2.02784-.58594,1.92162,1.92162,0,0,1-.752-1.60254,6.485,6.485,0,0,1,.8916-2.73584l2.2207-4.252h-.15771a3.67133,3.67133,0,0,1-1.50342-.20313.95409.95409,0,0,1-.55957-.89111,1.11672,1.11672,0,0,1,.21-.625,1.27989,1.27989,0,0,1,.57715-.46924,5.13074,5.13074,0,0,1,1.57324-.15625h1.084l1.084-2.06348a4.7335,4.7335,0,0,1,.86524-1.28174,1.39786,1.39786,0,0,1,.95312-.313,1.4482,1.4482,0,0,1,.94385.313.983.983,0,0,1,.38476.79688,3.19293,3.19293,0,0,1-.47216,1.28223l-.647,1.26611h1.11914a3.74607,3.74607,0,0,1,1.6084.24219.85531.85531,0,0,1,.45459.8208,1.13539,1.13539,0,0,1-.78662,1.10986,4.5925,4.5925,0,0,1-1.57373.17188Z" style="fill: #d7d7d7"/>
      <path d="M128.05127,21.32227a3.15825,3.15825,0,0,1-.48975-1.60987q0-2.11011,3.07715-3.47021a18.85273,18.85273,0,0,1,1.91406-.72705,5.10611,5.10611,0,0,1,1.30274-.28907,1.41419,1.41419,0,0,1,.93555.3125,1.00019,1.00019,0,0,1-.11377,1.64112q-.31494.17285-1.71338.71924l-1.20655.46923a3.77846,3.77846,0,0,0-1.09228.60938.90987.90987,0,0,0-.32373.688,1.47675,1.47675,0,0,0,.15723.59375,8.14842,8.14842,0,0,1,2.36035-.75,1.2242,1.2242,0,0,1,.83935.32812,1.01544,1.01544,0,0,1,.36719.78174.98181.98181,0,0,1-.271.69531,2.36731,2.36731,0,0,1-.90039.52393q-.29736.12525-1.10156.4375l-1.57373.62549a6.60178,6.60178,0,0,0-1.38965.71142.89726.89726,0,0,0-.42822.71094q0,.57861.8916.57861a10.0377,10.0377,0,0,0,2.92822-.59423,21.8229,21.8229,0,0,0,3.5752-1.53174,4.53953,4.53953,0,0,1,1.67871-.67237,1.21,1.21,0,0,1,.83887.29737.96162.96162,0,0,1,.33252.75,1.44577,1.44577,0,0,1-.68213,1.11767,13.753,13.753,0,0,1-2.5,1.33692,22.29884,22.29884,0,0,1-3.50537,1.21924,12.64668,12.64668,0,0,1-2.981.375,4.46156,4.46156,0,0,1-2.68359-.71094,2.28313,2.28313,0,0,1-.97022-1.94629Q125.32373,22.60425,128.05127,21.32227Z" style="fill: #d7d7d7"/>
    </g>
    <g id="1920dee4-dcbc-42e4-b10f-5ad0dc3cfbb2" data-name="Text">
      <g>
        <path d="M26.83057,57.35889l-.17969,1.03955h-3.0083l-.29,1.69873H26.1709l-.17969,1.01953H23.18262l-.37989,2.19873h3.01856L25.64111,64.355H21.48389l1.1792-6.99609Z" style="fill: #d7d7d7"/>
        <path d="M31.521,59.75732l-1.9585,2.26905L30.87158,64.355H29.72217l-.83936-1.59912L27.60352,64.355H26.34424l2.09863-2.42871-1.25928-2.169h1.1792l.75977,1.43946,1.1792-1.43946Z" style="fill: #d7d7d7"/>
        <path d="M32.34326,59.75732l.27-1.59912h1.06934l-.27979,1.59912h.75928l-.16992.94971h-.74951L32.603,64.355H31.56348l.61963-3.64795h-.73926l.16992-.94971Z" style="fill: #d7d7d7"/>
        <path d="M34.98291,63.15576a.68974.68974,0,1,1,0,1.37891.68953.68953,0,1,1,0-1.37891Z" style="fill: #d7d7d7"/>
        <path d="M16.45215,72.31543a3.40149,3.40149,0,0,0,2.31885-.97949l-.21,1.39941a3.6968,3.6968,0,0,1-2.26856.73975,2.97969,2.97969,0,0,1-2.9585-3.61817,4.23435,4.23435,0,0,1,4.11768-3.61816,2.91307,2.91307,0,0,1,2.0791.73975l-.22021,1.40918a2.25987,2.25987,0,0,0-1.939-.98926,2.92557,2.92557,0,0,0-2.77832,2.45849A1.96788,1.96788,0,0,0,16.45215,72.31543Z" style="fill: #d7d7d7"/>
        <path d="M22.15283,65.55908,20.80371,73.355H19.75439l1.31934-7.7959Z" style="fill: #d7d7d7"/>
        <path d="M24.99268,68.65771a2.027,2.027,0,0,1,2.07861,2.39844,2.78933,2.78933,0,0,1-2.7583,2.39893,2.03255,2.03255,0,0,1-2.0791-2.39893A2.78978,2.78978,0,0,1,24.99268,68.65771Zm-.59961,3.8379a1.66492,1.66492,0,0,0,1.5791-1.43946,1.14014,1.14014,0,0,0-1.06934-1.439,1.664,1.664,0,0,0-1.5791,1.439A1.14009,1.14009,0,0,0,24.39307,72.49561Z" style="fill: #d7d7d7"/>
        <path d="M29.85254,72.51562a2.12027,2.12027,0,0,0,1.60889-.75976l-.16993,1.1792a2.47893,2.47893,0,0,1-1.55908.52,2.04086,2.04086,0,0,1-2.09863-2.39893,2.78364,2.78364,0,0,1,2.76807-2.39844,2.17938,2.17938,0,0,1,1.45947.51954l-.16992,1.18945a1.412,1.412,0,0,0-1.31934-.76953,1.70082,1.70082,0,0,0-1.63916,1.459A1.16955,1.16955,0,0,0,29.85254,72.51562Z" style="fill: #d7d7d7"/>
        <path d="M37.00146,68.75732l-2.31884,1.959L36.35156,73.355H35.1123l-1.44921-2.33887L33.26367,73.355H32.22412l1.31934-7.7959h1.05908l-.81934,4.76758,1.85889-1.56934Z" style="fill: #d7d7d7"/>
      </g>
      <g>
        <path d="M25.9624,146.82764l-1.21924,6.99609H23.5835l1.17968-6.99609Z" style="fill: #d7d7d7"/>
        <path d="M28.88232,150.00537a1.16727,1.16727,0,0,0-1.16943.99024l-.48975,2.82812H26.144l.79932-4.59766H28.0127l-.10987.67969a1.66652,1.66652,0,0,1,1.41944-.7793c1.04931,0,1.439.79981,1.29931,1.7793l-.5,2.918H29.02246l.49951-2.79883C29.59229,150.48584,29.48193,150.00537,28.88232,150.00537Z" style="fill: #d7d7d7"/>
        <path d="M32.34326,149.22607l.27-1.59863h1.06934l-.27979,1.59863h.75928l-.16992.94922h-.74951l-.63965,3.64844H31.56348l.61963-3.64844h-.73926l.16992-.94922Z" style="fill: #d7d7d7"/>
        <path d="M34.9834,152.62451a.68974.68974,0,1,1,0,1.37891.68953.68953,0,1,1,0-1.37891Z" style="fill: #d7d7d7"/>
        <path d="M16.45215,164.78467a3.40812,3.40812,0,0,0,2.31885-.97949l-.21,1.39843a3.694,3.694,0,0,1-2.26856.74024,2.97969,2.97969,0,0,1-2.9585-3.61817,4.23349,4.23349,0,0,1,4.11768-3.61816,2.91492,2.91492,0,0,1,2.0791.73926l-.22021,1.41015a2.25833,2.25833,0,0,0-1.939-.99023,2.92651,2.92651,0,0,0-2.77832,2.459A1.96866,1.96866,0,0,0,16.45215,164.78467Z" style="fill: #d7d7d7"/>
        <path d="M22.15283,158.02783l-1.34912,7.7959H19.75439l1.31934-7.7959Z" style="fill: #d7d7d7"/>
        <path d="M24.99268,161.12646a2.027,2.027,0,0,1,2.07861,2.39844,2.7889,2.7889,0,0,1-2.7583,2.39844,2.03217,2.03217,0,0,1-2.0791-2.39844A2.78978,2.78978,0,0,1,24.99268,161.12646Zm-.59961,3.8379a1.66447,1.66447,0,0,0,1.5791-1.43946,1.14073,1.14073,0,0,0-1.06934-1.43945,1.665,1.665,0,0,0-1.5791,1.43945A1.1399,1.1399,0,0,0,24.39307,164.96436Z" style="fill: #d7d7d7"/>
        <path d="M29.85254,164.98389a2.11952,2.11952,0,0,0,1.60889-.75879l-.16993,1.17871a2.47575,2.47575,0,0,1-1.55908.51953,2.04048,2.04048,0,0,1-2.09863-2.39844,2.78364,2.78364,0,0,1,2.76807-2.39844,2.18185,2.18185,0,0,1,1.45947.51954l-.16992,1.18945a1.412,1.412,0,0,0-1.31934-.76953,1.70082,1.70082,0,0,0-1.63916,1.459A1.16916,1.16916,0,0,0,29.85254,164.98389Z" style="fill: #d7d7d7"/>
        <path d="M37.00146,161.22607l-2.31884,1.959,1.66894,2.63867H35.1123l-1.44921-2.33887-.39942,2.33887H32.22412l1.31934-7.7959h1.05908l-.81934,4.76758,1.85889-1.56934Z" style="fill: #d7d7d7"/>
      </g>
      <g>
        <path d="M17.3125,98.60156a1.89588,1.89588,0,0,1,2.11914,2.17871,2.48648,2.48648,0,0,1-1.87891,2.04883l1.439,2.76856H17.63232l-1.269-2.64844h-.69971l-.4497,2.64844H14.0542l1.17969-6.9961Zm-1.0791,1.0293-.3999,2.33887h.85937a1.45142,1.45142,0,0,0,1.53906-1.16993.96661.96661,0,0,0-1.0791-1.16894Z" style="fill: #d7d7d7"/>
        <path d="M19.79443,103.59863a2.67418,2.67418,0,0,1,2.69825-2.69824,1.81618,1.81618,0,0,1,1.979,2.01856,2.22914,2.22914,0,0,1-.10986.62988H20.87354c-.02.73926.33984,1.25879,1.07958,1.25879a1.613,1.613,0,0,0,1.33936-.7295l.89941.37012a2.64042,2.64042,0,0,1-2.32861,1.249A1.939,1.939,0,0,1,19.79443,103.59863Zm1.209-.7998H23.3623v-.01953c0-.66016-.31982-1.05957-.95947-1.05957A1.4788,1.4788,0,0,0,21.00342,102.79883Z" style="fill: #d7d7d7"/>
        <path d="M26.79346,104.8584a.579.579,0,0,0,.63965-.54c.00976-.39941-.43995-.60938-.8794-.7793-.56006-.21972-1.14941-.5498-1.12939-1.3291a1.44506,1.44506,0,0,1,1.61914-1.30957,2.13767,2.13767,0,0,1,1.689.80957l-.59961.62988a1.52347,1.52347,0,0,0-1.09961-.62011c-.35986,0-.59961.17968-.59961.43945-.02.36035.37989.50977.83936.7002.67969.29,1.23975.5996,1.21973,1.39941a1.55723,1.55723,0,0,1-1.68946,1.47851,2.49172,2.49172,0,0,1-2.00879-1.01953l.67969-.61914A1.76553,1.76553,0,0,0,26.79346,104.8584Z" style="fill: #d7d7d7"/>
        <path d="M29.12451,103.59863a2.67418,2.67418,0,0,1,2.69824-2.69824,1.81618,1.81618,0,0,1,1.979,2.01856,2.22876,2.22876,0,0,1-.10987.62988H30.20361c-.02.73926.33985,1.25879,1.07959,1.25879a1.613,1.613,0,0,0,1.33936-.7295l.89941.37012a2.64042,2.64042,0,0,1-2.32861,1.249A1.939,1.939,0,0,1,29.12451,103.59863Zm1.209-.7998h2.35888v-.01953c0-.66016-.31982-1.05957-.95947-1.05957A1.4788,1.4788,0,0,0,30.3335,102.79883Z" style="fill: #d7d7d7"/>
        <path d="M35.18359,101l.27-1.59863H36.523L36.24316,101h.75928l-.16992.94922H36.083l-.63965,3.64844H34.40381l.61963-3.64844h-.73926L34.4541,101Z" style="fill: #d7d7d7"/>
      </g>
      <g>
        <path d="M16.52344,269.43359a1.18613,1.18613,0,0,0,1.26953-1.0791c.01953-.67969-.56055-.89941-1.25977-1.21972a2.14306,2.14306,0,0,1-1.54882-1.93848,2.1724,2.1724,0,0,1,2.34863-1.959,2.2624,2.2624,0,0,1,2.18847,1.50879l-.96972.50977a1.40265,1.40265,0,0,0-1.33887-.96973.89882.89882,0,0,0-1.01953.83008c-.03027.55957.5293.89941,1.31934,1.209a2.012,2.012,0,0,1,1.499,1.94921,2.46635,2.46635,0,0,1-2.54883,2.22852,2.59839,2.59839,0,0,1-2.42871-1.78906l.90039-.61914C15.28418,268.88379,15.72363,269.43359,16.52344,269.43359Z" style="fill: #d7d7d7"/>
        <path d="M20.584,265.75586l.27051-1.59961h1.06934l-.28028,1.59961h.75977l-.16992.94922h-.749l-.63965,3.64844h-1.04l.62011-3.64844h-.74023l.16992-.94922Z" style="fill: #d7d7d7"/>
        <path d="M22.36426,268.35449a2.67449,2.67449,0,0,1,2.69824-2.69824A1.81561,1.81561,0,0,1,27.041,267.6748a2.23625,2.23625,0,0,1-.10938.62989H23.44336c-.01953.73926.33984,1.25879,1.0791,1.25879a1.61486,1.61486,0,0,0,1.33984-.7295l.89942.37012a2.64008,2.64008,0,0,1-2.3291,1.249A1.93888,1.93888,0,0,1,22.36426,268.35449Zm1.209-.7998h2.3584v-.01953c0-.66016-.31934-1.05957-.959-1.05957A1.47926,1.47926,0,0,0,23.57324,267.55469Z" style="fill: #d7d7d7"/>
        <path d="M27.085,272.55176l1.17969-6.7959h1.05957l-.12012.73926a2.0122,2.0122,0,0,1,1.62891-.85938,1.91737,1.91737,0,0,1,1.80859,2.41895,2.67845,2.67845,0,0,1-2.55859,2.41894,1.41306,1.41306,0,0,1-1.38867-.97949l-.50977,3.05762Zm3.39844-5.93653a1.67117,1.67117,0,0,0-1.53906,1.43946c-.10059.76953.28906,1.41894.97949,1.43945a1.676,1.676,0,0,0,1.61914-1.43945A1.11968,1.11968,0,0,0,30.4834,266.61523Z" style="fill: #d7d7d7"/>
        <path d="M35.0625,269.61328a.57923.57923,0,0,0,.64062-.53906c.00977-.40039-.44042-.61035-.87988-.78027-.55957-.21973-1.14941-.54883-1.12988-1.32911a1.44552,1.44552,0,0,1,1.61914-1.30859,2.13792,2.13792,0,0,1,1.68945.80957l-.59961.62891a1.52311,1.52311,0,0,0-1.09961-.61914c-.35937,0-.59961.17968-.59961.43945-.01953.36035.37989.50976.83985.70019.67969.28907,1.23926.59961,1.21875,1.39844a1.5565,1.5565,0,0,1-1.68848,1.47949,2.49365,2.49365,0,0,1-2.00879-1.01953l.67969-.61914A1.75792,1.75792,0,0,0,35.0625,269.61328Z" style="fill: #d7d7d7"/>
      </g>
      <g>
        <path d="M25.62109,317.35059a2.97026,2.97026,0,0,1,2.9585,3.61816,4.25528,4.25528,0,0,1-4.11768,3.64844,2.99448,2.99448,0,0,1-2.95849-3.64844A4.25249,4.25249,0,0,1,25.62109,317.35059Zm-1.03955,6.09668a2.88534,2.88534,0,0,0,2.75879-2.47852,1.93843,1.93843,0,0,0-1.83935-2.47852,2.88484,2.88484,0,0,0-2.7583,2.47852A1.94285,1.94285,0,0,0,24.58154,323.44727Z" style="fill: #d7d7d7"/>
        <path d="M31.00244,323.6875a1.16775,1.16775,0,0,0,1.1792-.97949l.49951-2.83887h1.06934l-.78955,4.59766h-1.0791l.10986-.67969a1.67894,1.67894,0,0,1-1.41943.7793c-1.03907,0-1.4292-.80957-1.28907-1.77832l.49951-2.91895H30.8623l-.48,2.79883C30.3125,323.207,30.42236,323.6875,31.00244,323.6875Z" style="fill: #d7d7d7"/>
        <path d="M35.18311,319.86914l.27-1.59863h1.06934l-.27978,1.59863H37.002l-.16992.94922h-.74951l-.63965,3.64844H34.40332l.61963-3.64844h-.73926l.16992-.94922Z" style="fill: #d7d7d7"/>
      </g>
      <path d="M96.38867,39.66455a2.594,2.594,0,0,0-2.25,1.25977L92.939,40.0542a4.06374,4.06374,0,0,1,3.59961-1.84473,3.27963,3.27963,0,0,1,3.48,3.21,3.37222,3.37222,0,0,1-3.18017,3.17969l-.105,1.58984H95.47363l-.2998-2.65478h.41992c1.7998,0,2.78955-1.125,2.78955-2.11475C98.3833,40.29443,97.61865,39.66455,96.38867,39.66455ZM96.13379,47.209a1.01325,1.01325,0,0,1,1.0498.99024,1.02537,1.02537,0,0,1-1.0498,1.00488,1.03861,1.03861,0,0,1-1.06494-1.00488A1.02652,1.02652,0,0,1,96.13379,47.209Z" style="fill: #d7d7d7"/>
      <path d="M132.27393,47.73779a2.594,2.594,0,0,0,2.25-1.25976l1.1997.87011a4.06371,4.06371,0,0,1-3.59961,1.84473,3.27964,3.27964,0,0,1-3.48-3.21,3.37223,3.37223,0,0,1,3.18018-3.17969l.105-1.58984H133.189l.29981,2.65478h-.41992c-1.79981,0-2.78955,1.125-2.78955,2.11475C130.2793,47.10791,131.044,47.73779,132.27393,47.73779Zm.25488-7.54443a1.01326,1.01326,0,0,1-1.04981-.99024,1.02538,1.02538,0,0,1,1.04981-1.00488,1.03861,1.03861,0,0,1,1.06494,1.00488A1.02652,1.02652,0,0,1,132.52881,40.19336Z" style="fill: #d7d7d7"/>
      <g>
        <path d="M164.37646,43.69141h3.25831a4.10288,4.10288,0,0,1-3.91748,3.8081,2.99428,2.99428,0,0,1-2.99854-3.648,4.23514,4.23514,0,0,1,4.16748-3.61816,2.88039,2.88039,0,0,1,2.69873,1.55908l-1.0293.63965a1.85174,1.85174,0,0,0-1.77929-1.09912,2.95376,2.95376,0,0,0-2.82813,2.51855,1.99218,1.99218,0,0,0,1.88867,2.53858,2.59781,2.59781,0,0,0,2.39893-1.69922h-2.03906Z" style="fill: #d7d7d7"/>
        <path d="M170.69727,42.65234a1.43859,1.43859,0,0,1,1.40918.99952l.1499-.89991h1.05908l-.79932,4.59766h-1.02929l.12988-.76953a2.06471,2.06471,0,0,1-1.65918.86963,1.91932,1.91932,0,0,1-1.81885-2.39893A2.68338,2.68338,0,0,1,170.69727,42.65234Zm-.39991,3.85791a1.69239,1.69239,0,0,0,1.53907-1.45947c.10009-.76953-.27979-1.439-.9795-1.459a1.69381,1.69381,0,0,0-1.61914,1.459C169.11816,45.83057,169.51758,46.51025,170.29736,46.51025Z" style="fill: #d7d7d7"/>
        <path d="M174.69824,42.752l.27-1.59912h1.06934l-.27979,1.59912h.75928l-.16992.94971h-.74951l-.63965,3.648h-1.03955l.61963-3.648h-.73926l.16992-.94971Z" style="fill: #d7d7d7"/>
        <path d="M176.479,45.35059a2.67419,2.67419,0,0,1,2.69825-2.69825,1.816,1.816,0,0,1,1.979,2.01856,2.23236,2.23236,0,0,1-.10986.62988h-3.48828c-.02.73975.33984,1.25928,1.07959,1.25928a1.61533,1.61533,0,0,0,1.33935-.72949l.89941.36963a2.64082,2.64082,0,0,1-2.32861,1.24951A1.93941,1.93941,0,0,1,176.479,45.35059Zm1.209-.79932h2.35889v-.02c0-.65967-.31983-1.05957-.95948-1.05957A1.47926,1.47926,0,0,0,177.688,44.55127Z" style="fill: #d7d7d7"/>
        <path d="M183.47754,46.60986a.57866.57866,0,0,0,.63965-.53955c.00976-.3999-.43994-.60986-.8794-.77978-.55957-.21973-1.14941-.54932-1.12939-1.3291a1.445,1.445,0,0,1,1.61914-1.30909,2.13764,2.13764,0,0,1,1.689.80957l-.59961.6294a1.52282,1.52282,0,0,0-1.0996-.61963c-.35987,0-.59961.18018-.59961.43994-.02.35986.37988.50977.83984.69971.6792.28955,1.23926.59961,1.21924,1.39892a1.55766,1.55766,0,0,1-1.68946,1.4795,2.49435,2.49435,0,0,1-2.00878-1.01954l.67968-.61962A1.76341,1.76341,0,0,0,183.47754,46.60986Z" style="fill: #d7d7d7"/>
      </g>
    </g>
    <g id="96c77501-ed28-4727-9bd4-db96becd46de" data-name="Legend">
      <g>
        <polygon points="97.269 345.662 94.915 345.662 94.915 348.016 94.915 350.37 94.915 352.724 94.915 355.078 97.269 355.078 97.269 352.724 97.269 350.37 99.623 350.37 99.623 348.016 101.977 348.016 101.977 345.662 99.623 345.662 97.269 345.662" style="fill: #d7d7d7"/>
        <polygon points="99.623 355.078 101.977 355.078 104.331 355.078 106.685 355.078 106.685 352.724 106.685 350.37 106.685 348.016 106.685 345.662 104.331 345.662 104.331 348.016 104.331 350.37 101.977 350.37 101.977 352.724 99.623 352.724 99.623 355.078" style="fill: #d7d7d7"/>
        <polygon points="109.039 342.085 92.561 342.085 92.561 343.353 109.039 343.353 109.039 357.406 92.561 357.406 92.561 342.085 91.383 342.085 91.383 358.583 92.561 358.583 110.217 358.583 110.217 357.406 110.217 342.085 109.039 342.085" style="fill: #d7d7d7"/>
      </g>
      <g>
        <path d="M123.92236,115.35109a.39221.39221,0,0,1-.22338-.06944,14.9528,14.9528,0,1,1,16.935-.00618.39532.39532,0,0,1-.44831-.65124,14.16333,14.16333,0,1,0-16.03919.00617.39507.39507,0,0,1-.22415.72069Z" style="fill: #00cfb5"/>
        <path d="M124.54939,113.9109a1.18828,1.18828,0,1,1-1.64829.32734A1.1884,1.1884,0,0,1,124.54939,113.9109Z" style="fill: #00cfb5"/>
        <circle cx="140.44176" cy="114.89341" r="1.18829" style="fill: #00cfb5"/>
      </g>
      <g>
        <path d="M123.92236,151.75081a.39214.39214,0,0,1-.22338-.06945,14.9528,14.9528,0,1,1,16.935-.00617.39532.39532,0,0,1-.44831-.65125,14.16333,14.16333,0,1,0-16.03919.00618.39507.39507,0,0,1-.22415.72069Z" style="fill: #00cfb5"/>
        <path d="M124.54939,150.31061a1.18829,1.18829,0,1,1-1.64829.32734A1.18841,1.18841,0,0,1,124.54939,150.31061Z" style="fill: #00cfb5"/>
        <circle cx="140.44176" cy="151.29312" r="1.18829" style="fill: #00cfb5"/>
      </g>
      <g>
        <path d="M123.92236,188.15052a.39214.39214,0,0,1-.22338-.06945,14.9528,14.9528,0,1,1,16.935-.00617.39532.39532,0,0,1-.44831-.65124,14.16333,14.16333,0,1,0-16.03919.00617.39507.39507,0,0,1-.22415.72069Z" style="fill: #00cfb5"/>
        <path d="M124.54939,186.71032a1.18829,1.18829,0,1,1-1.64829.32734A1.18841,1.18841,0,0,1,124.54939,186.71032Z" style="fill: #00cfb5"/>
        <circle cx="140.44176" cy="187.69284" r="1.18829" style="fill: #00cfb5"/>
      </g>
      <g>
        <path d="M123.92236,224.55023a.39213.39213,0,0,1-.22338-.06944,14.9528,14.9528,0,1,1,16.935-.00618.39532.39532,0,0,1-.44831-.65124,14.16333,14.16333,0,1,0-16.03919.00617.39507.39507,0,0,1-.22415.72069Z" style="fill: #00cfb5"/>
        <path d="M124.54939,223.11a1.18828,1.18828,0,1,1-1.64829.32734A1.18841,1.18841,0,0,1,124.54939,223.11Z" style="fill: #00cfb5"/>
        <circle cx="140.44176" cy="224.09255" r="1.18829" style="fill: #00cfb5"/>
      </g>
      <g>
        <path d="M123.92236,260.95a.39214.39214,0,0,1-.22338-.06945,14.9528,14.9528,0,1,1,16.935-.00617.39532.39532,0,0,1-.44831-.65125,14.16333,14.16333,0,1,0-16.03919.00618.39507.39507,0,0,1-.22415.72069Z" style="fill: #00cfb5"/>
        <path d="M124.54939,259.50975a1.18829,1.18829,0,1,1-1.64829.32734A1.18841,1.18841,0,0,1,124.54939,259.50975Z" style="fill: #00cfb5"/>
        <circle cx="140.44176" cy="260.49226" r="1.18829" style="fill: #00cfb5"/>
      </g>
      <g>
        <path d="M123.92236,297.34966a.39214.39214,0,0,1-.22338-.06945,14.9528,14.9528,0,1,1,16.935-.00617.39532.39532,0,0,1-.44831-.65124,14.16333,14.16333,0,1,0-16.03919.00617.39507.39507,0,0,1-.22415.72069Z" style="fill: #00cfb5"/>
        <path d="M124.54939,295.90946a1.18829,1.18829,0,1,1-1.64829.32734A1.18841,1.18841,0,0,1,124.54939,295.90946Z" style="fill: #00cfb5"/>
        <circle cx="140.44176" cy="296.89198" r="1.18829" style="fill: #00cfb5"/>
      </g>
      <g>
        <path d="M123.92236,78.95138a.39214.39214,0,0,1-.22338-.06945,14.9528,14.9528,0,1,1,16.935-.00617.39532.39532,0,0,1-.44831-.65124,14.16333,14.16333,0,1,0-16.03919.00617.39507.39507,0,0,1-.22415.72069Z" style="fill: #00cfb5"/>
        <path d="M124.54939,77.51118a1.18829,1.18829,0,1,1-1.64829.32734A1.18841,1.18841,0,0,1,124.54939,77.51118Z" style="fill: #00cfb5"/>
        <circle cx="140.44176" cy="78.4937" r="1.18829" style="fill: #00cfb5"/>
      </g>
      <g>
        <path d="M123.92236,333.74937a.39213.39213,0,0,1-.22338-.06944,14.9528,14.9528,0,1,1,16.935-.00617.39532.39532,0,0,1-.44831-.65125,14.16333,14.16333,0,1,0-16.03919.00618.39506.39506,0,0,1-.22415.72068Z" style="fill: #00cfb5"/>
        <path d="M124.54939,332.30918a1.18828,1.18828,0,1,1-1.64829.32734A1.18841,1.18841,0,0,1,124.54939,332.30918Z" style="fill: #00cfb5"/>
        <circle cx="140.44176" cy="333.29169" r="1.18829" style="fill: #00cfb5"/>
      </g>
      <g>
        <g>
          <line x1="110.13678" y1="139.10579" x2="114.79022" y2="139.10659" style="fill: none;stroke: #00cfb5;stroke-miterlimit: 10"/>
          <polygon points="112.798 140.802 114.495 139.107 112.799 137.411 114.238 137.411 115.933 139.107 114.238 140.802 112.798 140.802" style="fill: #00cfb5"/>
        </g>
        <circle cx="96.50106" cy="139.10579" r="13.63575" style="fill: none;stroke: #00cfb5;stroke-miterlimit: 10"/>
      </g>
      <g>
        <line x1="57.30103" y1="270.08887" x2="57.30023" y2="265.62921" style="fill: none;stroke: #ef86ce;stroke-miterlimit: 10;stroke-width: 1.25px"/>
        <polygon points="59.42 268.119 57.3 265.999 55.182 268.119 55.181 266.32 57.3 264.201 59.419 266.319 59.42 268.119" style="fill: #ef86ce"/>
      </g>
      <circle cx="57.30102" cy="283.72462" r="13.63575" style="fill: none;stroke: #ef86ce;stroke-miterlimit: 10"/>
      <g>
        <line x1="57.30103" y1="161.90941" x2="57.30029" y2="157.60682" style="fill: none;stroke: #ef86ce;stroke-miterlimit: 10;stroke-width: 1.25px"/>
        <polygon points="59.42 160.096 57.3 157.976 55.182 160.097 55.181 158.298 57.3 156.178 59.42 158.297 59.42 160.096" style="fill: #ef86ce"/>
      </g>
      <circle cx="57.30102" cy="175.54516" r="13.63575" style="fill: none;stroke: #ef86ce;stroke-miterlimit: 10"/>
      <g>
        <g>
          <line x1="110.13678" y1="320.92305" x2="114.79022" y2="320.92386" style="fill: none;stroke: #00cfb5;stroke-miterlimit: 10"/>
          <polygon points="112.798 322.619 114.495 320.924 112.799 319.228 114.238 319.228 115.933 320.924 114.238 322.619 112.798 322.619" style="fill: #00cfb5"/>
        </g>
        <circle cx="96.50106" cy="320.92306" r="13.63575" style="fill: none;stroke: #00cfb5;stroke-miterlimit: 10"/>
      </g>
      <g>
        <g>
          <line x1="110.13678" y1="175.46924" x2="114.79022" y2="175.47004" style="fill: none;stroke: #00cfb5;stroke-miterlimit: 10"/>
          <polygon points="112.798 177.165 114.495 175.47 112.799 173.774 114.238 173.775 115.933 175.47 114.238 177.165 112.798 177.165" style="fill: #00cfb5"/>
        </g>
        <circle cx="96.50106" cy="175.46924" r="13.63575" style="fill: none;stroke: #00cfb5;stroke-miterlimit: 10"/>
      </g>
      <g>
        <g>
          <line x1="110.13678" y1="211.8327" x2="114.79022" y2="211.8335" style="fill: none;stroke: #00cfb5;stroke-miterlimit: 10"/>
          <polygon points="112.798 213.528 114.495 211.833 112.799 210.138 114.238 210.138 115.933 211.834 114.238 213.529 112.798 213.528" style="fill: #00cfb5"/>
        </g>
        <circle cx="96.50106" cy="211.83269" r="13.63575" style="fill: none;stroke: #00cfb5;stroke-miterlimit: 10"/>
      </g>
      <g>
        <g>
          <line x1="110.13678" y1="248.19615" x2="114.79022" y2="248.19695" style="fill: none;stroke: #00cfb5;stroke-miterlimit: 10"/>
          <polygon points="112.798 249.892 114.495 248.197 112.799 246.501 114.238 246.502 115.933 248.197 114.238 249.892 112.798 249.892" style="fill: #00cfb5"/>
        </g>
        <circle cx="96.50106" cy="248.19615" r="13.63575" style="fill: none;stroke: #00cfb5;stroke-miterlimit: 10"/>
      </g>
      <g>
        <g>
          <line x1="110.13678" y1="284.5596" x2="114.79022" y2="284.56041" style="fill: none;stroke: #00cfb5;stroke-miterlimit: 10"/>
          <polygon points="112.798 286.255 114.495 284.56 112.799 282.865 114.238 282.865 115.933 284.561 114.238 286.256 112.798 286.255" style="fill: #00cfb5"/>
        </g>
        <circle cx="96.50106" cy="284.5596" r="13.63575" style="fill: none;stroke: #00cfb5;stroke-miterlimit: 10"/>
      </g>
      <g>
        <g>
          <line x1="110.13678" y1="66.37888" x2="114.79022" y2="66.37968" style="fill: none;stroke: #00cfb5;stroke-miterlimit: 10"/>
          <polygon points="112.798 68.075 114.495 66.38 112.799 64.684 114.238 64.684 115.933 66.38 114.238 68.075 112.798 68.075" style="fill: #00cfb5"/>
        </g>
        <circle cx="96.50106" cy="66.37888" r="13.63575" style="fill: none;stroke: #00cfb5;stroke-miterlimit: 10"/>
      </g>
      <g>
        <g>
          <line x1="110.13678" y1="102.74233" x2="114.79022" y2="102.74313" style="fill: none;stroke: #00cfb5;stroke-miterlimit: 10"/>
          <polygon points="112.798 104.438 114.495 102.743 112.799 101.047 114.238 101.048 115.933 102.743 114.238 104.438 112.798 104.438" style="fill: #00cfb5"/>
        </g>
        <circle cx="96.50106" cy="102.74233" r="13.63575" style="fill: none;stroke: #00cfb5;stroke-miterlimit: 10"/>
      </g>
      <circle cx="57.29985" cy="66.37988" r="13.63575" style="fill: none;stroke: #ef86ce;stroke-miterlimit: 10"/>
      <circle cx="57.29985" cy="102.73322" r="13.63575" style="fill: none;stroke: #ef86ce;stroke-miterlimit: 10"/>
      <g>
        <path d="M49.0619,151.75081a.39217.39217,0,0,1-.22338-.06945,14.95281,14.95281,0,1,1,16.935-.00617.39532.39532,0,0,1-.44831-.65125,14.16333,14.16333,0,1,0-16.03918.00618.39508.39508,0,0,1-.22416.72069Z" style="fill: #ef86ce"/>
        <path d="M49.68894,150.31061a1.18829,1.18829,0,1,1-1.6483.32734A1.18842,1.18842,0,0,1,49.68894,150.31061Z" style="fill: #ef86ce"/>
        <circle cx="65.5813" cy="151.29312" r="1.18829" style="fill: #ef86ce"/>
      </g>
      <circle cx="49.87423" cy="261.08271" r="1.15228" style="fill: #ef86ce"/>
      <circle cx="45.94748" cy="257.76435" r="1.15228" style="fill: #ef86ce"/>
      <circle cx="43.39249" cy="253.30308" r="1.15228" style="fill: #ef86ce"/>
      <circle cx="42.51742" cy="248.23699" r="1.15228" style="fill: #ef86ce"/>
      <circle cx="43.42783" cy="243.17714" r="1.15228" style="fill: #ef86ce"/>
      <circle cx="46.01391" cy="238.73382" r="1.15228" style="fill: #ef86ce"/>
      <circle cx="49.96373" cy="235.44295" r="1.15228" style="fill: #ef86ce"/>
      <circle cx="54.8009" cy="233.70146" r="1.15228" style="fill: #ef86ce"/>
      <circle cx="59.94197" cy="233.71941" r="1.15228" style="fill: #ef86ce"/>
      <circle cx="64.76686" cy="235.49462" r="1.15228" style="fill: #ef86ce"/>
      <circle cx="68.69361" cy="238.81299" r="1.15228" style="fill: #ef86ce"/>
      <circle cx="71.2486" cy="243.27426" r="1.15228" style="fill: #ef86ce"/>
      <circle cx="72.12367" cy="248.34034" r="1.15228" style="fill: #ef86ce"/>
      <circle cx="71.21326" cy="253.40019" r="1.15228" style="fill: #ef86ce"/>
      <circle cx="68.62718" cy="257.84351" r="1.15228" style="fill: #ef86ce"/>
      <circle cx="64.67736" cy="261.13438" r="1.15228" style="fill: #ef86ce"/>
    </g>
  </g>
</svg>
