<svg xmlns="http://www.w3.org/2000/svg" width="71.12mm" height="128.5mm" viewBox="0 0 201.6 364.252"><title>Aspect</title><g id="f3d8b5a3-9c48-4cd2-b3f2-4ff5142104ed" data-name="Monte"><g id="476a33dc-4b5c-49a0-9e2a-0ab11bc00c83" data-name="BG"><rect y="0.057" width="201.6" height="364.252" fill="#333"/></g><g id="7ca3e8f4-6754-4ccf-a100-8e78a73aaf3a" data-name="Legend"><circle cx="47.668" cy="260.13" r="1.152" fill="#ef86ce"/><circle cx="44.409" cy="256.495" r="1.152" fill="#ef86ce"/><circle cx="42.491" cy="252.005" r="1.152" fill="#ef86ce"/><circle cx="42.119" cy="247.137" r="1.152" fill="#ef86ce"/><circle cx="43.331" cy="242.408" r="1.152" fill="#ef86ce"/><circle cx="45.999" cy="238.319" r="1.152" fill="#ef86ce"/><circle cx="49.839" cy="235.305" r="1.152" fill="#ef86ce"/><circle cx="54.445" cy="233.686" r="1.152" fill="#ef86ce"/><circle cx="59.327" cy="233.632" r="1.152" fill="#ef86ce"/><circle cx="63.966" cy="235.151" r="1.152" fill="#ef86ce"/><circle cx="67.872" cy="238.081" r="1.152" fill="#ef86ce"/><circle cx="70.628" cy="242.11" r="1.152" fill="#ef86ce"/><circle cx="71.943" cy="246.812" r="1.152" fill="#ef86ce"/><circle cx="71.677" cy="251.686" r="1.152" fill="#ef86ce"/><circle cx="69.858" cy="256.217" r="1.152" fill="#ef86ce"/><circle cx="66.679" cy="259.922" r="1.152" fill="#ef86ce"/><polygon points="97.269 345.662 94.915 345.662 94.915 348.016 94.915 350.37 94.915 352.724 94.915 355.078 97.269 355.078 97.269 352.724 97.269 350.37 99.623 350.37 99.623 348.016 101.977 348.016 101.977 345.662 99.623 345.662 97.269 345.662" fill="#d7d7d7"/><polygon points="99.623 355.078 101.977 355.078 104.331 355.078 106.685 355.078 106.685 352.724 106.685 350.37 106.685 348.016 106.685 345.662 104.331 345.662 104.331 348.016 104.331 350.37 101.977 350.37 101.977 352.724 99.623 352.724 99.623 355.078" fill="#d7d7d7"/><polygon points="109.039 342.085 92.561 342.085 92.561 343.353 109.039 343.353 109.039 357.406 92.561 357.406 92.561 342.085 91.383 342.085 91.383 358.583 92.561 358.583 110.217 358.583 110.217 357.406 110.217 342.085 109.039 342.085" fill="#d7d7d7"/><path d="M123.922,115.351a.391.391,0,0,1-.223-.069,14.954,14.954,0,1,1,16.935-.007.4.4,0,0,1-.448-.651,14.164,14.164,0,1,0-16.039.006.4.4,0,0,1-.225.721Z" fill="#00cfb5"/><path d="M124.549,113.911a1.188,1.188,0,1,1-1.648.327A1.189,1.189,0,0,1,124.549,113.911Z" fill="#00cfb5"/><circle cx="140.442" cy="114.893" r="1.188" fill="#00cfb5"/><path d="M123.922,151.751a.392.392,0,0,1-.223-.07,14.953,14.953,0,1,1,16.935-.006.4.4,0,0,1-.448-.651,14.164,14.164,0,1,0-16.039.006.4.4,0,0,1-.225.721Z" fill="#00cfb5"/><path d="M124.549,150.311a1.188,1.188,0,1,1-1.648.327A1.188,1.188,0,0,1,124.549,150.311Z" fill="#00cfb5"/><circle cx="140.442" cy="151.293" r="1.188" fill="#00cfb5"/><path d="M123.922,188.151a.392.392,0,0,1-.223-.07,14.953,14.953,0,1,1,16.935-.006.4.4,0,0,1-.448-.651,14.164,14.164,0,1,0-16.039.006.4.4,0,0,1-.225.721Z" fill="#00cfb5"/><path d="M124.549,186.71a1.188,1.188,0,1,1-1.648.328A1.19,1.19,0,0,1,124.549,186.71Z" fill="#00cfb5"/><circle cx="140.442" cy="187.693" r="1.188" fill="#00cfb5"/><path d="M123.922,224.55a.391.391,0,0,1-.223-.069,14.953,14.953,0,1,1,16.935-.006.4.4,0,0,1-.448-.652,14.163,14.163,0,1,0-16.039.007.395.395,0,0,1-.225.72Z" fill="#00cfb5"/><path d="M124.549,223.11a1.188,1.188,0,1,1-1.648.327A1.189,1.189,0,0,1,124.549,223.11Z" fill="#00cfb5"/><circle cx="140.442" cy="224.093" r="1.188" fill="#00cfb5"/><path d="M123.922,260.95a.391.391,0,0,1-.223-.069,14.954,14.954,0,1,1,16.935-.007.4.4,0,0,1-.448-.651,14.164,14.164,0,1,0-16.039.006.4.4,0,0,1-.225.721Z" fill="#00cfb5"/><path d="M124.549,259.51a1.188,1.188,0,1,1-1.648.327A1.188,1.188,0,0,1,124.549,259.51Z" fill="#00cfb5"/><circle cx="140.442" cy="260.492" r="1.188" fill="#00cfb5"/><path d="M123.922,297.35a.392.392,0,0,1-.223-.07,14.953,14.953,0,1,1,16.935-.006.4.4,0,0,1-.448-.651,14.164,14.164,0,1,0-16.039.006.4.4,0,0,1-.225.721Z" fill="#00cfb5"/><path d="M124.549,295.909a1.188,1.188,0,1,1-1.648.328A1.19,1.19,0,0,1,124.549,295.909Z" fill="#00cfb5"/><circle cx="140.442" cy="296.892" r="1.188" fill="#00cfb5"/><path d="M123.922,78.951a.391.391,0,0,1-.223-.069,14.953,14.953,0,1,1,16.935-.006.4.4,0,0,1-.448-.651,14.164,14.164,0,1,0-16.039.006.395.395,0,0,1-.225.72Z" fill="#00cfb5"/><path d="M124.549,77.511a1.188,1.188,0,1,1-1.648.328A1.189,1.189,0,0,1,124.549,77.511Z" fill="#00cfb5"/><circle cx="140.442" cy="78.494" r="1.188" fill="#00cfb5"/><path d="M123.922,333.749a.391.391,0,0,1-.223-.069,14.953,14.953,0,1,1,16.935-.006.4.4,0,0,1-.448-.651,14.164,14.164,0,1,0-16.039.006.395.395,0,0,1-.225.72Z" fill="#00cfb5"/><path d="M124.549,332.309a1.188,1.188,0,1,1-1.648.328A1.189,1.189,0,0,1,124.549,332.309Z" fill="#00cfb5"/><circle cx="140.442" cy="333.292" r="1.188" fill="#00cfb5"/><line x1="110.137" y1="139.106" x2="114.79" y2="139.107" fill="none" stroke="#00cfb5" stroke-miterlimit="10"/><polygon points="112.798 140.802 114.495 139.107 112.799 137.411 114.238 137.411 115.933 139.107 114.238 140.802 112.798 140.802" fill="#00cfb5"/><circle cx="96.501" cy="139.106" r="13.636" fill="none" stroke="#00cfb5" stroke-miterlimit="10"/><line x1="57.301" y1="270.089" x2="57.3" y2="265.629" fill="none" stroke="#ef86ce" stroke-miterlimit="10" stroke-width="1.25"/><polygon points="59.42 268.119 57.3 265.999 55.182 268.119 55.181 266.32 57.3 264.201 59.419 266.319 59.42 268.119" fill="#ef86ce"/><circle cx="57.301" cy="283.725" r="13.636" fill="none" stroke="#ef86ce" stroke-miterlimit="10"/><line x1="57.301" y1="161.909" x2="57.3" y2="157.607" fill="none" stroke="#ef86ce" stroke-miterlimit="10" stroke-width="1.25"/><polygon points="59.42 160.096 57.3 157.976 55.182 160.097 55.181 158.298 57.3 156.178 59.419 158.297 59.42 160.096" fill="#ef86ce"/><circle cx="57.301" cy="175.545" r="13.636" fill="none" stroke="#ef86ce" stroke-miterlimit="10"/><line x1="110.137" y1="320.923" x2="114.79" y2="320.924" fill="none" stroke="#00cfb5" stroke-miterlimit="10"/><polygon points="112.798 322.619 114.495 320.924 112.799 319.228 114.238 319.228 115.933 320.924 114.238 322.619 112.798 322.619" fill="#00cfb5"/><circle cx="96.501" cy="320.923" r="13.636" fill="none" stroke="#00cfb5" stroke-miterlimit="10"/><line x1="110.137" y1="175.469" x2="114.79" y2="175.47" fill="none" stroke="#00cfb5" stroke-miterlimit="10"/><polygon points="112.798 177.165 114.495 175.47 112.799 173.774 114.238 173.775 115.933 175.47 114.238 177.165 112.798 177.165" fill="#00cfb5"/><circle cx="96.501" cy="175.469" r="13.636" fill="none" stroke="#00cfb5" stroke-miterlimit="10"/><line x1="110.137" y1="211.833" x2="114.79" y2="211.833" fill="none" stroke="#00cfb5" stroke-miterlimit="10"/><polygon points="112.798 213.528 114.495 211.833 112.799 210.138 114.238 210.138 115.933 211.834 114.238 213.529 112.798 213.528" fill="#00cfb5"/><circle cx="96.501" cy="211.833" r="13.636" fill="none" stroke="#00cfb5" stroke-miterlimit="10"/><line x1="110.137" y1="248.196" x2="114.79" y2="248.197" fill="none" stroke="#00cfb5" stroke-miterlimit="10"/><polygon points="112.798 249.892 114.495 248.197 112.799 246.501 114.238 246.502 115.933 248.197 114.238 249.892 112.798 249.892" fill="#00cfb5"/><circle cx="96.501" cy="248.196" r="13.636" fill="none" stroke="#00cfb5" stroke-miterlimit="10"/><line x1="110.137" y1="284.56" x2="114.79" y2="284.56" fill="none" stroke="#00cfb5" stroke-miterlimit="10"/><polygon points="112.798 286.255 114.495 284.56 112.799 282.865 114.238 282.865 115.933 284.561 114.238 286.256 112.798 286.255" fill="#00cfb5"/><circle cx="96.501" cy="284.56" r="13.636" fill="none" stroke="#00cfb5" stroke-miterlimit="10"/><line x1="110.137" y1="66.379" x2="114.79" y2="66.38" fill="none" stroke="#00cfb5" stroke-miterlimit="10"/><polygon points="112.798 68.075 114.495 66.38 112.799 64.684 114.238 64.684 115.933 66.38 114.238 68.075 112.798 68.075" fill="#00cfb5"/><circle cx="96.501" cy="66.379" r="13.636" fill="none" stroke="#00cfb5" stroke-miterlimit="10"/><line x1="110.137" y1="102.742" x2="114.79" y2="102.743" fill="none" stroke="#00cfb5" stroke-miterlimit="10"/><polygon points="112.798 104.438 114.495 102.743 112.799 101.047 114.238 101.048 115.933 102.743 114.238 104.438 112.798 104.438" fill="#00cfb5"/><circle cx="96.501" cy="102.742" r="13.636" fill="none" stroke="#00cfb5" stroke-miterlimit="10"/><circle cx="57.3" cy="66.38" r="13.636" fill="none" stroke="#ef86ce" stroke-miterlimit="10"/><circle cx="57.3" cy="102.733" r="13.636" fill="none" stroke="#ef86ce" stroke-miterlimit="10"/><path d="M49.062,151.751a.392.392,0,0,1-.223-.07,14.952,14.952,0,1,1,16.935-.006.4.4,0,0,1-.449-.651,14.163,14.163,0,1,0-16.039.006.4.4,0,0,1-.224.721Z" fill="#ef86ce"/><path d="M49.689,150.311a1.188,1.188,0,1,1-1.648.327A1.188,1.188,0,0,1,49.689,150.311Z" fill="#ef86ce"/><circle cx="65.581" cy="151.293" r="1.188" fill="#ef86ce"/><path d="M0,0V31.181H201.6V0Z" fill="#ef86ce"/></g><path d="M92.692,6.781a12.122,12.122,0,0,0-3.265,2.375,28,28,0,0,0-4.175,5.622l-1.67,2.783a20.408,20.408,0,0,1-2.347,3.368,2.581,2.581,0,0,1-1.772.992,1.358,1.358,0,0,1-.946-.352,1.129,1.129,0,0,1-.39-.872,1.627,1.627,0,0,1,.213-.742,7.741,7.741,0,0,1,.715-1.058,10.618,10.618,0,0,0,2.579-6.457A6.257,6.257,0,0,0,80.168,8.1,4.962,4.962,0,0,0,76.29,6.465a7.7,7.7,0,0,0-3.015.631A9.58,9.58,0,0,0,70.547,8.85a8.865,8.865,0,0,0-1.939,2.486,5.945,5.945,0,0,0-.7,2.755,2.942,2.942,0,0,0,.3,1.336,4.768,4.768,0,0,0,.965,1.243l.482.427a1.437,1.437,0,0,1,.483,1.021,1.409,1.409,0,0,1-.492,1.067,1.629,1.629,0,0,1-1.141.454,2.92,2.92,0,0,1-1.92-.761,5.2,5.2,0,0,1-1.429-2.05,7.084,7.084,0,0,1-.529-2.718,9.024,9.024,0,0,1,.937-3.989,11.863,11.863,0,0,1,2.616-3.5,12.812,12.812,0,0,1,3.786-2.458,11.145,11.145,0,0,1,4.388-.891,9.032,9.032,0,0,1,3.135.557,8.212,8.212,0,0,1,2.654,1.558A7.367,7.367,0,0,1,83.9,7.681a6.262,6.262,0,0,1,.631,2.792,29.406,29.406,0,0,1,2.347-3.08,14.954,14.954,0,0,1,2.2-1.985,11.954,11.954,0,0,1,2.783-1.6,7.187,7.187,0,0,1,2.617-.538,2.433,2.433,0,0,1,1.6.5,1.714,1.714,0,0,1,.6,1.392,6.84,6.84,0,0,1-.78,2.319L87.015,26.56a5.661,5.661,0,0,1-.974,1.614,1.632,1.632,0,0,1-2.19.01,1.391,1.391,0,0,1-.436-1.049,4.652,4.652,0,0,1,.52-1.6ZM68.85,25.54l7.236-15.512A6.045,6.045,0,0,1,77.079,8.4a1.486,1.486,0,0,1,1.085-.408A1.512,1.512,0,0,1,79.25,8.4a1.374,1.374,0,0,1,.436,1.03,4.678,4.678,0,0,1-.539,1.614L71.911,26.56a5.638,5.638,0,0,1-.974,1.614,1.63,1.63,0,0,1-2.189.01,1.391,1.391,0,0,1-.436-1.049A4.541,4.541,0,0,1,68.85,25.54Z" fill="#333"/><path d="M92.117,23.907A10.041,10.041,0,0,1,92.7,20.53a10.575,10.575,0,0,1,1.642-3.006,8.093,8.093,0,0,1,2.384-2.106,5.417,5.417,0,0,1,2.7-.751,4.215,4.215,0,0,1,2.2.547,3.58,3.58,0,0,1,1.411,1.577,5.72,5.72,0,0,1,.491,2.477A10.446,10.446,0,0,1,102.5,23.8a9.442,9.442,0,0,1-2.728,3.489A5.674,5.674,0,0,1,96.255,28.6a3.815,3.815,0,0,1-3.006-1.28A4.964,4.964,0,0,1,92.117,23.907Zm3.284.037a1.822,1.822,0,0,0,.362,1.2,1.2,1.2,0,0,0,.974.436Q98,25.577,99.3,23a8.481,8.481,0,0,0,1.02-3.748A2.078,2.078,0,0,0,100,18.006a1.083,1.083,0,0,0-.928-.426,2.012,2.012,0,0,0-1.438.723,7.919,7.919,0,0,0-1.364,2.208A8.908,8.908,0,0,0,95.4,23.944Z" fill="#333"/><path d="M111.117,16.1a4.957,4.957,0,0,1,1.577-1,4.671,4.671,0,0,1,1.8-.426,2.623,2.623,0,0,1,1.865.667,2.3,2.3,0,0,1,.714,1.763,7.945,7.945,0,0,1-1.039,3.433l-.835,1.651-.761,1.522a3.172,3.172,0,0,0-.426,1.206q0,.631.575.631a1.521,1.521,0,0,0,.612-.149,5.894,5.894,0,0,0,.854-.5q.519-.352,1.484-1.132a15.061,15.061,0,0,1,1.355-.974,1.538,1.538,0,0,1,.779-.213,1.2,1.2,0,0,1,1.206,1.206q0,.965-1.781,2.3-3.267,2.523-5.53,2.523a2.949,2.949,0,0,1-2.106-.779,2.7,2.7,0,0,1-.825-2.06,5.76,5.76,0,0,1,.389-1.781q.352-.927,1.745-3.674a7.667,7.667,0,0,0,.835-2q0-.519-.539-.519a3.522,3.522,0,0,0-1.53.584,12.2,12.2,0,0,0-1.976,1.438l-3.229,6.9a6.129,6.129,0,0,1-.918,1.531,1.371,1.371,0,0,1-1.012.362,1.408,1.408,0,0,1-1.011-.38,1.29,1.29,0,0,1-.4-.974,4.4,4.4,0,0,1,.5-1.5l4.286-9.185a5.685,5.685,0,0,1,.91-1.5,1.376,1.376,0,0,1,1.02-.389,1.443,1.443,0,0,1,1.021.361,1.224,1.224,0,0,1,.389.937Z" fill="#333"/><path d="M124.272,17.709,121.693,23.2a5.466,5.466,0,0,0-.593,1.762c0,.334.172.5.519.5a3.394,3.394,0,0,0,1.466-.5q1.151-.593,2.356-1.354l.965-.631a2.189,2.189,0,0,1,1.169-.408,1.24,1.24,0,0,1,.622.176,1.289,1.289,0,0,1,.482.482,1.243,1.243,0,0,1,.176.622,1.749,1.749,0,0,1-.612,1.234,11.27,11.27,0,0,1-2.171,1.494q-3.507,2.022-5.455,2.022a3.159,3.159,0,0,1-2.152-.7,2.392,2.392,0,0,1-.8-1.9,8.355,8.355,0,0,1,.946-3.247l2.357-5.047H120.8a3.526,3.526,0,0,1-1.6-.241,1.151,1.151,0,0,1-.594-1.057,1.442,1.442,0,0,1,.223-.743,1.4,1.4,0,0,1,.612-.556,4.881,4.881,0,0,1,1.67-.186h1.151l1.15-2.449a5.633,5.633,0,0,1,.918-1.521,1.386,1.386,0,0,1,1.012-.372,1.436,1.436,0,0,1,1,.372,1.222,1.222,0,0,1,.408.946,4.091,4.091,0,0,1-.5,1.521l-.687,1.5h1.188a3.591,3.591,0,0,1,1.707.288,1.043,1.043,0,0,1,.482.974,1.347,1.347,0,0,1-.835,1.317,4.371,4.371,0,0,1-1.67.2Z" fill="#333"/><path d="M129.709,21.625a4.077,4.077,0,0,1-.52-1.912q0-2.505,3.266-4.119a18.845,18.845,0,0,1,2.032-.863,4.953,4.953,0,0,1,1.382-.343,1.4,1.4,0,0,1,.993.371,1.241,1.241,0,0,1,.4.947,1.2,1.2,0,0,1-.52,1q-.333.2-1.818.853l-1.28.557a3.9,3.9,0,0,0-1.16.723,1.138,1.138,0,0,0-.343.817,1.9,1.9,0,0,0,.167.7,7.969,7.969,0,0,1,2.505-.891,1.224,1.224,0,0,1,.89.39,1.267,1.267,0,0,1,.39.928,1.24,1.24,0,0,1-.288.825,2.482,2.482,0,0,1-.955.622q-.316.149-1.169.519l-1.67.743a6.71,6.71,0,0,0-1.475.844,1.093,1.093,0,0,0-.455.844q0,.687.946.687a9.665,9.665,0,0,0,3.108-.706,21.911,21.911,0,0,0,3.8-1.818,4.514,4.514,0,0,1,1.781-.8,1.206,1.206,0,0,1,1.243,1.243,1.76,1.76,0,0,1-.724,1.327,14.167,14.167,0,0,1-2.653,1.586,22.033,22.033,0,0,1-3.72,1.448,12.07,12.07,0,0,1-3.164.445,4.368,4.368,0,0,1-2.848-.844,2.829,2.829,0,0,1-1.03-2.31Q126.814,23.146,129.709,21.625Z" fill="#333"/><g id="2571d96f-00b2-44e3-bffe-3357d50e9a89" data-name="Text"><path d="M7.852,61.451l-.18,1.04H4.664l-.29,1.7H7.192l-.18,1.02H4.2l-.38,2.2H6.842l-.179,1.039H2.5l1.18-7Z" fill="#ef86ce"/><path d="M14.181,61.451l-2.618,3.378L13.2,68.447H11.823l-1.03-2.668L8.884,68.447H7.445l2.839-3.658L8.8,61.451h1.369l.89,2.349,1.669-2.349Z" fill="#ef86ce"/><path d="M14.744,61.451H19.5l-.189,1.09h-1.79l-1.009,5.906h-1.18l1.02-5.906h-1.8Z" fill="#ef86ce"/><path d="M18.954,67.248a.69.69,0,1,1,0,1.379.69.69,0,1,1,0-1.379Z" fill="#ef86ce"/><path d="M27.422,67.408a3.4,3.4,0,0,0,2.319-.98l-.21,1.4a3.7,3.7,0,0,1-2.268.739A2.98,2.98,0,0,1,24.3,64.949a4.235,4.235,0,0,1,4.118-3.618,2.907,2.907,0,0,1,2.078.74l-.219,1.409a2.261,2.261,0,0,0-1.939-.989,2.926,2.926,0,0,0-2.779,2.458A1.969,1.969,0,0,0,27.422,67.408Z" fill="#ef86ce"/><path d="M33.163,61.451l-1.019,5.937h2.7l-.18,1.059H30.794l1.2-7Z" fill="#ef86ce"/><path d="M37.853,61.451l-.49,2.859,2.958-2.859h1.45L38.3,64.75l2.378,3.7H39.3l-2.089-3.268-.569,3.268h-1.18l1.18-7Z" fill="#ef86ce"/><path d="M13.737,159.759a3.406,3.406,0,0,0,2.319-.98l-.21,1.4a3.691,3.691,0,0,1-2.268.74,2.98,2.98,0,0,1-2.959-3.618,4.234,4.234,0,0,1,4.118-3.618,2.911,2.911,0,0,1,2.078.739l-.219,1.41a2.259,2.259,0,0,0-1.939-.99,2.927,2.927,0,0,0-2.779,2.459A1.969,1.969,0,0,0,13.737,159.759Z" fill="#d7d7d7"/><path d="M19.478,153.8l-1.02,5.936h2.7l-.18,1.06H17.109l1.2-7Z" fill="#d7d7d7"/><path d="M24.168,153.8l-.49,2.858,2.958-2.858h1.449l-3.467,3.3L27,160.8H25.617l-2.089-3.269-.57,3.269H21.779l1.179-7Z" fill="#d7d7d7"/><path d="M13.677,98.6A1.9,1.9,0,0,1,15.8,100.78a2.484,2.484,0,0,1-1.879,2.049l1.439,2.769H14l-1.269-2.649h-.7l-.449,2.649h-1.16l1.18-7ZM12.6,99.631l-.4,2.339h.86A1.452,1.452,0,0,0,14.6,100.8a.967.967,0,0,0-1.079-1.169Z" fill="#ef86ce"/><path d="M18.548,104.678a1.186,1.186,0,0,0,1.269-1.079c.02-.68-.56-.9-1.259-1.219a2.147,2.147,0,0,1-1.55-1.94,2.174,2.174,0,0,1,2.349-1.959,2.262,2.262,0,0,1,2.189,1.51l-.969.509a1.405,1.405,0,0,0-1.34-.969.9.9,0,0,0-1.019.829c-.03.56.53.9,1.319,1.21a2.011,2.011,0,0,1,1.5,1.949,2.466,2.466,0,0,1-2.548,2.229,2.6,2.6,0,0,1-2.429-1.789l.9-.62C17.308,104.129,17.748,104.678,18.548,104.678Z" fill="#ef86ce"/><path d="M22.3,98.6h4.758l-.19,1.088H25.077l-1.01,5.908H22.888l1.02-5.908h-1.8Z" fill="#ef86ce"/><path d="M14.452,269.434a1.187,1.187,0,0,0,1.27-1.08c.019-.679-.561-.9-1.26-1.219a2.144,2.144,0,0,1-1.549-1.939,2.173,2.173,0,0,1,2.349-1.959,2.262,2.262,0,0,1,2.188,1.509l-.97.51a1.4,1.4,0,0,0-1.338-.97.9.9,0,0,0-1.02.83c-.03.56.529.9,1.319,1.209a2.012,2.012,0,0,1,1.5,1.949,2.466,2.466,0,0,1-2.548,2.229,2.6,2.6,0,0,1-2.429-1.789l.9-.619C13.213,268.884,13.652,269.434,14.452,269.434Z" fill="#d7d7d7"/><path d="M18.513,265.756l.27-1.6h1.07l-.281,1.6h.76l-.17.949h-.749l-.64,3.649h-1.04l.621-3.649h-.741l.17-.949Z" fill="#d7d7d7"/><path d="M20.293,268.354a2.675,2.675,0,0,1,2.7-2.7,1.816,1.816,0,0,1,1.979,2.019,2.231,2.231,0,0,1-.11.63H21.372c-.019.739.34,1.258,1.079,1.258a1.617,1.617,0,0,0,1.34-.729l.9.37a2.638,2.638,0,0,1-2.329,1.249A1.939,1.939,0,0,1,20.293,268.354Zm1.209-.8H23.86v-.02c0-.66-.319-1.059-.959-1.059A1.478,1.478,0,0,0,21.5,267.555Z" fill="#d7d7d7"/><path d="M25.014,272.552l1.179-6.8h1.06l-.12.739a2.012,2.012,0,0,1,1.629-.859,1.917,1.917,0,0,1,1.808,2.419,2.678,2.678,0,0,1-2.558,2.419,1.414,1.414,0,0,1-1.389-.98l-.51,3.058Zm3.4-5.937a1.671,1.671,0,0,0-1.539,1.44c-.1.769.289,1.419.98,1.439a1.676,1.676,0,0,0,1.619-1.439A1.12,1.12,0,0,0,28.412,266.615Z" fill="#d7d7d7"/><path d="M32.991,269.613a.579.579,0,0,0,.641-.539c.01-.4-.441-.61-.88-.78-.56-.22-1.149-.549-1.13-1.329a1.446,1.446,0,0,1,1.619-1.309,2.139,2.139,0,0,1,1.69.81l-.6.629a1.523,1.523,0,0,0-1.1-.619c-.359,0-.6.179-.6.439-.02.36.38.51.84.7.679.289,1.239.6,1.218,1.4A1.556,1.556,0,0,1,33,270.493a2.5,2.5,0,0,1-2.009-1.019l.68-.62A1.756,1.756,0,0,0,32.991,269.613Z" fill="#d7d7d7"/><path d="M29.293,317.351a2.97,2.97,0,0,1,2.958,3.618,4.254,4.254,0,0,1-4.117,3.648,3,3,0,0,1-2.959-3.648A4.252,4.252,0,0,1,29.293,317.351Zm-1.04,6.1a2.886,2.886,0,0,0,2.759-2.478,1.939,1.939,0,0,0-1.839-2.479,2.886,2.886,0,0,0-2.759,2.479A1.943,1.943,0,0,0,28.253,323.447Z" fill="#d7d7d7"/><path d="M34.674,323.688a1.17,1.17,0,0,0,1.18-.98l.5-2.839h1.069l-.789,4.6H35.554l.109-.68a1.678,1.678,0,0,1-1.419.779c-1.039,0-1.43-.809-1.289-1.778l.5-2.919h1.08l-.48,2.8C33.984,323.207,34.094,323.688,34.674,323.688Z" fill="#d7d7d7"/><path d="M38.854,319.869l.271-1.6h1.069l-.28,1.6h.76l-.17.949h-.75l-.64,3.649H38.075l.619-3.649h-.739l.17-.949Z" fill="#d7d7d7"/><path d="M98.529,39.679a3.165,3.165,0,0,0-2.4,1.23l-1.079-.885a4.856,4.856,0,0,1,3.764-1.815,2.781,2.781,0,0,1,2.91,3.21,4.157,4.157,0,0,1-3.615,3.18l-.375,1.59H96.459l.15-2.655H97a3.109,3.109,0,0,0,3.12-2.115C100.3,40.369,99.669,39.679,98.529,39.679Zm-1.77,7.53a.992.992,0,1,1-1.05.99A1.022,1.022,0,0,1,96.759,47.209Z" fill="#ef86ce"/><path d="M131.03,44.8a3.163,3.163,0,0,0,2.4-1.23l1.079.885a4.856,4.856,0,0,1-3.765,1.815,2.779,2.779,0,0,1-2.909-3.21,4.156,4.156,0,0,1,3.614-3.18l.375-1.59H133.1l-.151,2.655h-.389a3.111,3.111,0,0,0-3.121,2.115C129.261,44.112,129.891,44.8,131.03,44.8Zm1.771-7.53a.992.992,0,1,1,1.05-.99A1.022,1.022,0,0,1,132.8,37.272Z" fill="#ef86ce"/><path d="M164.376,43.691h3.259a4.1,4.1,0,0,1-3.918,3.809,2.994,2.994,0,0,1-3-3.648,4.236,4.236,0,0,1,4.167-3.619,2.882,2.882,0,0,1,2.7,1.559l-1.029.64a1.853,1.853,0,0,0-1.78-1.1,2.954,2.954,0,0,0-2.828,2.519,1.992,1.992,0,0,0,1.889,2.538,2.6,2.6,0,0,0,2.4-1.7H164.2Z" fill="#ef86ce"/><path d="M170.7,42.652a1.438,1.438,0,0,1,1.409,1l.15-.9h1.059l-.8,4.6h-1.029l.13-.77a2.065,2.065,0,0,1-1.659.87,1.919,1.919,0,0,1-1.819-2.4A2.683,2.683,0,0,1,170.7,42.652Zm-.4,3.858a1.69,1.69,0,0,0,1.539-1.459c.1-.77-.279-1.439-.979-1.459a1.693,1.693,0,0,0-1.619,1.459C169.118,45.831,169.518,46.51,170.3,46.51Z" fill="#ef86ce"/><path d="M174.7,42.752l.27-1.6h1.07l-.28,1.6h.759l-.17.95H175.6l-.64,3.648h-1.04l.62-3.648H173.8l.17-.95Z" fill="#ef86ce"/><path d="M176.479,45.351a2.675,2.675,0,0,1,2.7-2.7,1.816,1.816,0,0,1,1.979,2.019,2.225,2.225,0,0,1-.11.63h-3.488c-.02.74.34,1.259,1.08,1.259a1.615,1.615,0,0,0,1.339-.729l.9.369a2.64,2.64,0,0,1-2.328,1.25A1.939,1.939,0,0,1,176.479,45.351Zm1.209-.8h2.359v-.02c0-.659-.32-1.059-.96-1.059A1.48,1.48,0,0,0,177.688,44.551Z" fill="#ef86ce"/><path d="M183.478,46.61a.579.579,0,0,0,.639-.54c.01-.4-.44-.61-.879-.779-.56-.22-1.15-.55-1.13-1.33a1.446,1.446,0,0,1,1.62-1.309,2.139,2.139,0,0,1,1.689.81l-.6.629a1.523,1.523,0,0,0-1.1-.619c-.36,0-.6.18-.6.44-.02.359.38.509.84.7.679.29,1.239.6,1.219,1.4a1.559,1.559,0,0,1-1.69,1.48,2.491,2.491,0,0,1-2.008-1.02l.679-.619A1.766,1.766,0,0,0,183.478,46.61Z" fill="#ef86ce"/></g></g></svg>