<?xml version="1.0" encoding="UTF-8" standalone="no"?>
<svg
   xmlns:dc="http://purl.org/dc/elements/1.1/"
   xmlns:cc="http://creativecommons.org/ns#"
   xmlns:rdf="http://www.w3.org/1999/02/22-rdf-syntax-ns#"
   xmlns:svg="http://www.w3.org/2000/svg"
   xmlns="http://www.w3.org/2000/svg"
   xmlns:sodipodi="http://sodipodi.sourceforge.net/DTD/sodipodi-0.dtd"
   xmlns:inkscape="http://www.inkscape.org/namespaces/inkscape"
   inkscape:version="1.0 (4035a4f, 2020-05-01)"
   sodipodi:docname="Nova.svg"
   id="svg2016"
   version="1.1"
   viewBox="0 0 604.8 364.25197"
   height="128.5mm"
   width="213.36mm">
  <metadata
     id="metadata2022">
    <rdf:RDF>
      <cc:Work
         rdf:about="">
        <dc:format>image/svg+xml</dc:format>
        <dc:type
           rdf:resource="http://purl.org/dc/dcmitype/StillImage" />
        <dc:title>Nova</dc:title>
      </cc:Work>
    </rdf:RDF>
  </metadata>
  <defs
     id="defs2020" />
  <sodipodi:namedview
     inkscape:current-layer="g1579"
     inkscape:window-maximized="1"
     inkscape:window-y="23"
     inkscape:window-x="0"
     inkscape:cy="23.242839"
     inkscape:cx="391.66447"
     inkscape:zoom="6.8085312"
     showgrid="false"
     id="namedview2018"
     inkscape:window-height="1155"
     inkscape:window-width="1920"
     inkscape:pageshadow="2"
     inkscape:pageopacity="0"
     guidetolerance="10"
     gridtolerance="10"
     objecttolerance="10"
     borderopacity="1"
     bordercolor="#666666"
     pagecolor="#ffffff" />
  <title
     id="title1553">Nova</title>
  <g
     data-name="Nova"
     id="eb7d2a1c-02d8-4e42-8557-cc4f2111dbba">
    <g
       data-name="BG"
       id="58c0ca23-e921-4315-bcbb-437ed53c35ce">
      <rect
         y="0"
         x="0"
         id="rect1555"
         style="fill:#2a2d30"
         height="364.25198"
         width="604.79999" />
    </g>
    <g
       data-name="Logo"
       id="ebd57243-157c-4503-8651-83cd44809f1e">
      <g
         id="g1564">
        <polygon
           id="polygon1558"
           style="fill:#d7d7d7"
           points="301.223,345.662 298.869,345.662 296.515,345.662 296.515,348.016 296.515,350.37 296.515,352.724 296.515,355.078 298.869,355.078 298.869,352.724 298.869,350.37 301.223,350.37 301.223,348.016 303.577,348.016 303.577,345.662 " />
        <polygon
           id="polygon1560"
           style="fill:#d7d7d7"
           points="301.223,352.724 301.223,355.078 303.577,355.078 305.931,355.078 308.285,355.078 308.285,352.724 308.285,350.37 308.285,348.016 308.285,345.662 305.931,345.662 305.931,348.016 305.931,350.37 303.577,350.37 303.577,352.724 " />
        <polygon
           id="polygon1562"
           style="fill:#d7d7d7"
           points="310.639,342.085 294.161,342.085 294.161,343.353 310.639,343.353 310.639,357.406 294.161,357.406 294.161,342.085 292.983,342.085 292.983,358.583 294.161,358.583 311.817,358.583 311.817,357.406 311.817,342.085 " />
      </g>
    </g>
    <g
       data-name="TITLE"
       id="1f8ac472-4c4a-4f41-b80e-ceb0248e7ca2">
      <g
         id="g1581">
        <path
           id="path1567"
           style="fill:#d7d7d7"
           d="m 232.92693,26.73842 h 0.45452 V 7.63283 l 14.309,19.10559 H 248.92 V 7.63283 l 14.309,19.10559 h 1.22951 V 7.63283 l 14.309,19.10559 h 1.25884 V 5.66708 h -1.55626 v 18.12743 l -13.312,-17.7923 a 1.22779,1.22779 0 0 0 -1.03681,-0.47756 1.20619,1.20619 0 0 0 -1.18972,1.24627 v 17.02359 l -13.312,-17.7923 a 1.22779,1.22779 0 0 0 -1.03681,-0.47756 1.20619,1.20619 0 0 0 -1.18972,1.24627 V 23.79451 L 234.081,6.00221 a 1.22777,1.22777 0 0 0 -1.03681,-0.47756 1.20618,1.20618 0 0 0 -1.18971,1.24627 v 17.02359 l -13.312,-17.7923 A 1.22779,1.22779 0 0 0 217.50567,5.52465 1.20618,1.20618 0 0 0 216.316,6.77092 v 19.9675 h 1.52694 V 7.63283 l 14.309,19.10559 h 0.775 z" />
        <path
           id="path1569"
           style="fill:#d7d7d7"
           d="m 388.48348,26.69548 h -1.52694 v -5.227 h -10.35763 l -3.54191,4.71279 a 1.23739,1.23739 0 0 1 -1.02424,0.4985 1.12851,1.12851 0 0 1 -1.18972,-1.24731 v -3.964 h -10.35763 l -3.54191,4.71278 a 1.23739,1.23739 0 0 1 -1.02424,0.4985 1.12851,1.12851 0 0 1 -1.18972,-1.24731 v -3.964 h -10.35868 l -3.54186,4.71284 a 1.23739,1.23739 0 0 1 -1.02424,0.4985 1.12943,1.12943 0 0 1 -1.18971,-1.24731 v -3.964 h -10.35769 l -3.54191,4.71278 a 1.23739,1.23739 0 0 1 -1.02424,0.4985 1.21151,1.21151 0 0 1 -0.83573,-0.30162 1.33832,1.33832 0 0 1 -0.354,-0.94569 V 5.77809 h 1.55522 V 24.46582 L 337.81382,6.14988 a 1.33368,1.33368 0 0 1 1.11012,-0.58229 1.19222,1.19222 0 0 1 1.24627,1.18971 V 24.46582 L 353.92837,6.14988 a 1.33367,1.33367 0 0 1 1.11012,-0.58229 1.19222,1.19222 0 0 1 1.24627,1.18971 l -0.001,0.17909 0.001,17.52943 13.75711,-18.31594 a 1.33367,1.33367 0 0 1 1.11012,-0.58229 1.19222,1.19222 0 0 1 1.24627,1.18971 V 24.46582 L 386.15537,6.14988 a 1.33367,1.33367 0 0 1 1.11012,-0.58229 1.16467,1.16467 0 0 1 1.218,1.18971 z m -10.73779,-6.75393 h 9.21085 V 7.68624 Z m -16.1135,0 H 370.843 V 7.68624 Z m -16.1135,0 h 9.21085 V 7.68624 Z m -16.11455,0 H 338.615 V 7.68729 Z" />
        <g
           style="fill:#d7d7d7;fill-opacity:1"
           id="g1579">
          <path
             transform="scale(0.75)"
             d="m 392.39453,6.8984375 c -2.04546,0.037492 -4.08014,0.5009468 -5.93359,1.4296875 -6.03238,2.76049 -9.5171,9.956237 -7.94141,16.400391 1.34693,6.495816 7.58551,11.496657 14.21875,11.396484 1.03048,0.0097 2.0562,-0.10509 3.06055,-0.318359 0.98709,0.21365 1.99725,0.333797 3.01953,0.318359 1.03047,0.0097 2.0562,-0.10509 3.06055,-0.318359 0.98709,0.213652 1.99725,0.333795 3.01953,0.318359 1.03047,0.0097 2.05619,-0.105092 3.06054,-0.318359 0.9871,0.21365 1.99725,0.333797 3.01954,0.318359 4.33128,0.04088 8.60967,-1.97145 11.33984,-5.333984 4.34395,-5.103718 4.40214,-13.206525 0.14062,-18.376954 -3.34214,-4.3611916 -9.25995,-6.3287107 -14.56445,-5.1914058 -2.00138,-0.4163732 -4.08257,-0.4282673 -6.08008,0 -2.00123,-0.4162676 -4.08273,-0.4282377 -6.08007,0 -1.09811,-0.2284125 -2.21976,-0.3447492 -3.33985,-0.3242187 z m -1.21875,2.1660156 c -5.17736,3.1555589 -8.02838,9.7249139 -6.57617,15.6640629 0.80722,3.892974 3.37725,7.238538 6.73047,9.28125 -0.93559,-0.106573 -1.86253,-0.312025 -2.75586,-0.650391 -5.62137,-1.883073 -9.27298,-8.121934 -8.16211,-13.945313 0.80555,-5.342129 5.45887,-9.685956 10.76367,-10.3496089 z m 21.46289,0.017578 c 2.35221,0.3070926 4.61529,1.2745509 6.43555,2.8007809 4.606,3.692652 5.90038,10.766992 2.88476,15.845704 -1.88551,3.47775 -5.53103,5.744599 -9.39453,6.251953 1.39086,-0.846625 2.64357,-1.920559 3.67383,-3.189453 4.34393,-5.103707 4.40212,-13.206524 0.14063,-18.376954 -1.03148,-1.345994 -2.31166,-2.4614079 -3.74024,-3.3320309 z m -16.8457,0.2578126 c 0.24095,0.059712 0.47782,0.1313235 0.71484,0.2050781 -4.7023,3.3105102 -7.20921,9.5352072 -5.82812,15.1835942 0.73972,3.567479 2.95854,6.677917 5.90429,8.746093 -0.27383,0.08751 -0.54921,0.165105 -0.82812,0.234375 -0.37126,-0.0983 -0.73937,-0.212422 -1.10156,-0.349609 -5.62138,-1.883073 -9.27298,-8.121934 -8.16211,-13.945313 0.73054,-4.844703 4.6255,-8.87017 9.30078,-10.0742183 z m 6.08008,0 c 0.24094,0.059712 0.47781,0.1313235 0.71484,0.2050781 -0.23822,0.1677136 -0.46468,0.350977 -0.69141,0.5332032 -0.23459,-0.18579 -0.47489,-0.3629321 -0.7207,-0.5332032 0.23074,-0.074559 0.46227,-0.144558 0.69727,-0.2050781 z m 6.08007,0 c 1.84279,0.4566861 3.58393,1.3212453 5.04102,2.5429683 4.606,3.692652 5.90038,10.766992 2.88477,15.845704 -1.65051,3.044289 -4.65168,5.157608 -7.96485,5.980468 -0.23756,-0.06294 -0.47101,-0.143867 -0.70508,-0.222656 1.09756,-0.761332 2.10404,-1.654373 2.94922,-2.695312 4.34395,-5.103718 4.40215,-13.206525 0.14063,-18.376954 -0.85972,-1.121852 -1.89655,-2.075023 -3.04297,-2.8691402 0.23074,-0.074559 0.46227,-0.144558 0.69726,-0.2050781 z m -9.07226,1.2109373 c 0.5157,0.285471 1.00634,0.612535 1.47656,0.96875 -3.21531,3.485493 -4.73927,8.540076 -3.59765,13.208985 0.53407,2.575676 1.84474,4.908391 3.63671,6.789062 -0.49437,0.369287 -1.01359,0.703668 -1.55664,0.998047 -4.51685,-2.507503 -7.24774,-7.963321 -6.26757,-13.101563 0.56702,-3.760321 3.04417,-7.024226 6.30859,-8.863281 z m 6.07812,0 c 0.69094,0.382347 1.34905,0.82389 1.95508,1.332031 4.606,3.692652 5.90038,10.766992 2.88477,15.845704 -1.11579,2.058029 -2.85233,3.687469 -4.88086,4.787109 -0.52784,-0.29312 -1.02606,-0.631431 -1.50195,-1 0.22385,-0.238849 0.45536,-0.469973 0.6621,-0.724609 4.34395,-5.103718 4.40215,-13.206525 0.14063,-18.376954 -0.23554,-0.307356 -0.48607,-0.599374 -0.74609,-0.882812 0.47339,-0.360001 0.96863,-0.688751 1.48632,-0.980469 z m -3.02734,2.355469 c 3.68918,3.869509 4.54533,10.177045 1.78711,14.822266 -0.48588,0.896179 -1.09401,1.706448 -1.78711,2.433593 -2.64594,-2.836252 -4.01716,-6.880031 -3.2793,-10.748047 0.37271,-2.471685 1.5764,-4.726551 3.2793,-6.507812 z m -0.0195,20.013672 c 0.24369,0.194462 0.49682,0.375563 0.75195,0.554687 -0.27383,0.08751 -0.54921,0.165105 -0.82812,0.234375 -0.23819,-0.06307 -0.47236,-0.143662 -0.70703,-0.222656 0.26525,-0.183978 0.53072,-0.365173 0.7832,-0.566406 z"
             style="fill:#d7d7d7;fill-opacity:1;stroke-width:1.33333"
             id="path1571" />
        </g>
      </g>
    </g>
    <g
       data-name="Text"
       id="0b91ad78-4a24-4ef1-9d09-6dd1f481dfd1">
      <g
         id="g1594">
        <path
           id="path1584"
           style="fill:#d7d7d7"
           d="m 531.39045,222.54267 c 1.54,0 2.51953,0.94629 2.32129,2.39844 a 2.86605,2.86605 0 0 1 -3.0586,2.38769 h -1.02246 l -0.49511,2.915 h -1.27637 l 1.29785,-7.70117 z m -1.13281,1.14453 -0.42969,2.49707 h 0.93555 a 1.59154,1.59154 0 0 0 1.69433,-1.24316 c 0.13184,-0.78125 -0.374,-1.25391 -1.18848,-1.25391 z" />
        <path
           id="path1586"
           style="fill:#d7d7d7"
           d="m 536.06525,225.18329 -0.8584,5.06055 h -1.166 l 0.84766,-5.06055 z m -0.24218,-2.72851 a 0.716,0.716 0 1 1 -0.74805,0.71484 0.72177,0.72177 0 0 1 0.74805,-0.71484 z" />
        <path
           id="path1588"
           style="fill:#d7d7d7"
           d="m 537.75959,225.18329 0.29687,-1.75976 h 1.17676 l -0.30762,1.75976 h 0.83594 l -0.1875,1.04492 h -0.82519 l -0.7041,4.01563 h -1.14356 l 0.68164,-4.01563 h -0.81348 l 0.18653,-1.04492 z" />
        <path
           id="path1590"
           style="fill:#d7d7d7"
           d="m 542.13752,229.32 a 2.33443,2.33443 0 0 0 1.77051,-0.83594 l -0.18653,1.29786 a 2.7269,2.7269 0 0 1 -1.71679,0.57226 2.2466,2.2466 0 0 1 -2.30957,-2.64062 3.06456,3.06456 0 0 1 3.04687,-2.64063 2.40184,2.40184 0 0 1 1.60645,0.57227 l -0.18653,1.30957 a 1.55529,1.55529 0 0 0 -1.45312,-0.84766 1.87222,1.87222 0 0 0 -1.80371,1.60645 1.28716,1.28716 0 0 0 1.23242,1.60644 z" />
        <path
           id="path1592"
           style="fill:#d7d7d7"
           d="m 547.79084,226.04169 a 1.34412,1.34412 0 0 0 -1.29785,1.07813 l -0.53906,3.124 h -1.18848 l 1.47461,-8.58105 h 1.1875 l -0.72559,4.2246 a 1.87993,1.87993 0 0 1 1.5625,-0.83593 c 1.14356,0 1.55078,0.84668 1.40821,1.94726 l -0.56153,3.24512 h -1.17676 l 0.54981,-3.08008 c 0.0654,-0.59374 -0.0547,-1.10056 -0.69336,-1.12205 z" />
      </g>
      <g
         id="g1610">
        <path
           id="path1596"
           style="fill:#d7d7d7"
           d="m 524.35529,149.46845 a 2.08708,2.08708 0 0 1 2.333,2.39844 2.73732,2.73732 0 0 1 -2.06836,2.25488 l 1.584,3.04785 h -1.4961 l -1.39746,-2.916 h -0.76953 l -0.49512,2.916 h -1.27637 l 1.29786,-7.70117 z m -1.1875,1.13281 -0.44043,2.57422 h 0.94629 a 1.598,1.598 0 0 0 1.69434,-1.28711 1.06431,1.06431 0 0 0 -1.18848,-1.28711 z" />
        <path
           id="path1598"
           style="fill:#d7d7d7"
           d="m 527.08283,154.96943 a 2.944,2.944 0 0 1 2.9707,-2.97071 1.99969,1.99969 0 0 1 2.17872,2.22266 2.45232,2.45232 0 0 1 -0.1211,0.69238 h -3.83984 c -0.0225,0.81445 0.374,1.38672 1.18847,1.38672 a 1.77574,1.77574 0 0 0 1.47364,-0.80371 l 0.99023,0.40723 a 2.9075,2.9075 0 0 1 -2.56347,1.375 2.13428,2.13428 0 0 1 -2.27735,-2.30957 z m 1.33106,-0.88086 h 2.59668 v -0.0215 c 0,-0.72656 -0.35157,-1.166 -1.05567,-1.166 a 1.62721,1.62721 0 0 0 -1.54101,1.18749 z" />
        <path
           id="path1600"
           style="fill:#d7d7d7"
           d="m 535.39924,148.58857 -1.48438,8.58105 h -1.15527 l 1.45215,-8.58105 z" />
        <path
           id="path1602"
           style="fill:#d7d7d7"
           d="m 535.44221,154.96943 a 2.944,2.944 0 0 1 2.9707,-2.97071 1.99968,1.99968 0 0 1 2.17871,2.22266 2.4527,2.4527 0 0 1 -0.12109,0.69238 h -3.83985 c -0.0225,0.81445 0.374,1.38672 1.18848,1.38672 a 1.77574,1.77574 0 0 0 1.47363,-0.80371 l 0.99024,0.40723 a 2.9075,2.9075 0 0 1 -2.56348,1.375 2.13428,2.13428 0 0 1 -2.27734,-2.30957 z m 1.33105,-0.88086 h 2.59668 v -0.0215 c 0,-0.72656 -0.35156,-1.166 -1.05566,-1.166 a 1.62721,1.62721 0 0 0 -1.54102,1.18749 z" />
        <path
           id="path1604"
           style="fill:#d7d7d7"
           d="m 543.97932,151.99872 a 1.58358,1.58358 0 0 1 1.55078,1.09961 l 0.165,-0.98926 h 1.166 l -0.87988,5.06055 h -1.13281 l 0.14257,-0.84766 a 2.27173,2.27173 0 0 1 -1.82617,0.957 2.112,2.112 0 0 1 -2.00195,-2.63965 2.95486,2.95486 0 0 1 2.81646,-2.64059 z m -0.44043,4.2461 a 1.86248,1.86248 0 0 0 1.69433,-1.60547 c 0.11035,-0.84766 -0.30762,-1.585 -1.07812,-1.60645 a 1.86325,1.86325 0 0 0 -1.78223,1.60645 c -0.13187,0.85742 0.30762,1.60547 1.16602,1.60547 z" />
        <path
           id="path1606"
           style="fill:#d7d7d7"
           d="m 549.41291,156.35517 a 0.636,0.636 0 0 0 0.70312,-0.59375 c 0.0117,-0.44043 -0.48339,-0.6709 -0.96777,-0.8584 -0.61621,-0.24219 -1.26465,-0.60547 -1.24316,-1.46289 a 1.59066,1.59066 0 0 1 1.78222,-1.44141 2.354,2.354 0 0 1 1.85938,0.89063 l -0.66016,0.69336 a 1.675,1.675 0 0 0 -1.21,-0.68164 c -0.39648,0 -0.66015,0.19726 -0.66015,0.48339 -0.0225,0.39649 0.418,0.56153 0.92382,0.77051 0.74805,0.31934 1.36426,0.66016 1.34278,1.54 a 1.714,1.714 0 0 1 -1.85938,1.62793 2.74474,2.74474 0 0 1 -2.21191,-1.12207 l 0.748,-0.68164 a 1.9432,1.9432 0 0 0 1.45321,0.83598 z" />
        <path
           id="path1608"
           style="fill:#d7d7d7"
           d="m 551.97541,154.96943 a 2.944,2.944 0 0 1 2.9707,-2.97071 1.99968,1.99968 0 0 1 2.17871,2.22266 2.45234,2.45234 0 0 1 -0.12109,0.69238 h -3.83984 c -0.0225,0.81445 0.374,1.38672 1.18847,1.38672 a 1.77574,1.77574 0 0 0 1.47364,-0.80371 l 0.99023,0.40723 a 2.9075,2.9075 0 0 1 -2.56348,1.375 2.13428,2.13428 0 0 1 -2.27734,-2.30957 z m 1.33105,-0.88086 h 2.59668 v -0.0215 c 0,-0.72656 -0.35156,-1.166 -1.05566,-1.166 a 1.62722,1.62722 0 0 0 -1.54102,1.18749 z" />
      </g>
      <g
         id="g1624">
        <path
           id="path1612"
           style="fill:#d7d7d7"
           d="m 528.90412,82.05829 h -2.751 l -1.18847,1.98047 h -1.48438 l 5.082,-8.14062 2.25586,8.14062 H 529.41 Z M 526.703,80.95868 h 2.02441 l -0.59375,-2.44238 z" />
        <path
           id="path1614"
           style="fill:#d7d7d7"
           d="m 532.578,78.97821 0.29687,-1.75976 h 1.17676 l -0.30762,1.75976 h 0.83594 l -0.1875,1.04493 h -0.82519 l -0.70411,4.01562 h -1.14355 l 0.68164,-4.01562 h -0.81348 l 0.18653,-1.04493 z" />
        <path
           id="path1616"
           style="fill:#d7d7d7"
           d="m 535.45978,78.97821 0.29688,-1.75976 h 1.17676 l -0.30762,1.75976 h 0.83594 l -0.1875,1.04493 h -0.8252 l -0.7041,4.01562 h -1.14355 l 0.68164,-4.01562 h -0.81348 l 0.18652,-1.04493 z" />
        <path
           id="path1618"
           style="fill:#d7d7d7"
           d="m 540.21174,78.86786 a 1.5844,1.5844 0 0 1 1.55078,1.10059 l 0.165,-0.99024 h 1.166 l -0.87988,5.06055 h -1.13281 l 0.14258,-0.84668 a 2.27175,2.27175 0 0 1 -1.82618,0.957 2.11246,2.11246 0 0 1 -2.002,-2.64062 2.95487,2.95487 0 0 1 2.81651,-2.6406 z m -0.44043,4.24707 a 1.8625,1.8625 0 0 0 1.69433,-1.60644 c 0.11036,-0.84668 -0.30761,-1.584 -1.07812,-1.60645 a 1.86415,1.86415 0 0 0 -1.78223,1.60645 c -0.13183,0.8584 0.30762,1.60644 1.16602,1.60644 z" />
        <path
           id="path1620"
           style="fill:#d7d7d7"
           d="m 546.10725,83.11493 a 2.33439,2.33439 0 0 0 1.7705,-0.83593 l -0.18652,1.29785 a 2.72685,2.72685 0 0 1 -1.7168,0.57226 2.2466,2.2466 0 0 1 -2.30957,-2.64062 3.06458,3.06458 0 0 1 3.04688,-2.64063 2.40187,2.40187 0 0 1 1.60644,0.57227 l -0.18652,1.30957 a 1.5553,1.5553 0 0 0 -1.45313,-0.84766 1.87223,1.87223 0 0 0 -1.80371,1.60645 1.28717,1.28717 0 0 0 1.23243,1.60644 z" />
        <path
           id="path1622"
           style="fill:#d7d7d7"
           d="m 553.97248,78.97821 -2.55273,2.15625 1.83691,2.9043 h -1.36426 l -1.59472,-2.57422 -0.44043,2.57422 h -1.14356 l 1.45215,-8.581 h 1.166 l -0.90234,5.248 2.0459,-1.72754 z" />
      </g>
      <g
         id="g1632">
        <path
           id="path1626"
           style="fill:#d7d7d7"
           d="m 138.72834,308.87177 a 3.26915,3.26915 0 0 1 3.25684,3.98242 4.68358,4.68358 0 0 1 -4.53223,4.01563 3.29618,3.29618 0 0 1 -3.25684,-4.01563 4.6806,4.6806 0 0 1 4.53223,-3.98242 z m -1.14356,6.71094 a 3.176,3.176 0 0 0 3.03614,-2.72852 c 0.2207,-1.4082 -0.48438,-2.71777 -2.02442,-2.72851 a 3.176,3.176 0 0 0 -3.03613,2.72851 2.1393,2.1393 0 0 0 2.02441,2.72852 z" />
        <path
           id="path1628"
           style="fill:#d7d7d7"
           d="m 144.64631,315.84638 a 1.285,1.285 0 0 0 1.29785,-1.07813 l 0.5498,-3.124 h 1.17774 l -0.86914,5.06055 h -1.18848 l 0.1211,-0.74805 a 1.84812,1.84812 0 0 1 -1.5625,0.85742 c -1.14356,0 -1.57325,-0.89062 -1.419,-1.958 l 0.5498,-3.21191 h 1.18852 l -0.52832,3.08008 c -0.0771,0.59372 0.044,1.12204 0.68263,1.12204 z" />
        <path
           id="path1630"
           style="fill:#d7d7d7"
           d="m 149.24494,311.64423 0.29688,-1.76074 h 1.17675 l -0.30761,1.76074 h 0.83593 l -0.1875,1.04492 h -0.82519 l -0.7041,4.01563 h -1.14356 l 0.68164,-4.01563 h -0.81347 l 0.18652,-1.04492 z" />
      </g>
      <g
         id="g1648">
        <path
           id="path1634"
           style="fill:#d7d7d7"
           d="m 118.30158,253.72919 h 5.23731 l -0.209,1.19922 h -1.96972 l -1.11133,6.50195 H 118.951 l 1.12207,-6.50195 h -1.98047 z" />
        <path
           id="path1636"
           style="fill:#d7d7d7"
           d="m 124.83674,257.37079 c -0.53906,-0.0117 -0.86914,0.43946 -1.0127,0.957 l -0.53906,3.10254 h -1.166 l 0.87989,-5.06054 h 1.167 l -0.0996,0.57129 a 1.64347,1.64347 0 0 1 1.19922,-0.68165 1.21923,1.21923 0 0 1 0.87988,0.39551 l -0.7041,0.99024 a 0.91067,0.91067 0 0 0 -0.60452,-0.27439 z" />
        <path
           id="path1638"
           style="fill:#d7d7d7"
           d="m 128.23518,256.36982 -0.8584,5.06054 h -1.166 l 0.84766,-5.06054 z m -0.24219,-2.72852 a 0.71558,0.71558 0 1 1 -0.74805,0.71484 0.72116,0.72116 0 0 1 0.74806,-0.71484 z" />
        <path
           id="path1640"
           style="fill:#d7d7d7"
           d="m 129.73127,261.78193 a 1.0651,1.0651 0 0 0 1.166,1.18847 1.81494,1.81494 0 0 0 1.73829,-1.65039 l 0.12109,-0.7041 a 2.282,2.282 0 0 1 -1.77148,0.8584 2.08151,2.08151 0 0 1 -2.002,-2.59668 2.942,2.942 0 0 1 2.81641,-2.61817 1.58645,1.58645 0 0 1 1.54,1.03418 l 0.15429,-0.92382 h 1.14356 l -0.83594,4.95019 a 2.9342,2.9342 0 0 1 -2.92676,2.68457 2.0338,2.0338 0 0 1 -2.28808,-2.2334 z m 1.62793,-1.3418 a 1.82133,1.82133 0 0 0 1.66113,-1.375 l 0.0557,-0.27539 a 1.24172,1.24172 0 0 0 -1.10059,-1.4961 1.82558,1.82558 0 0 0 -1.78223,1.584 1.21368,1.21368 0 0 0 1.16602,1.56249 z" />
        <path
           id="path1642"
           style="fill:#d7d7d7"
           d="m 135.97932,261.78193 a 1.06509,1.06509 0 0 0 1.166,1.18847 1.81492,1.81492 0 0 0 1.73828,-1.65039 l 0.1211,-0.7041 a 2.282,2.282 0 0 1 -1.77149,0.8584 2.08151,2.08151 0 0 1 -2.00195,-2.59668 2.942,2.942 0 0 1 2.81641,-2.61817 1.58644,1.58644 0 0 1 1.54,1.03418 l 0.1543,-0.92382 h 1.14356 l -0.83594,4.95019 a 2.9342,2.9342 0 0 1 -2.92676,2.68457 2.03381,2.03381 0 0 1 -2.28809,-2.2334 z m 1.62793,-1.3418 a 1.82134,1.82134 0 0 0 1.66113,-1.375 l 0.0557,-0.27539 a 1.24172,1.24172 0 0 0 -1.10058,-1.4961 1.82557,1.82557 0 0 0 -1.78223,1.584 1.21367,1.21367 0 0 0 1.16602,1.56249 z" />
        <path
           id="path1644"
           style="fill:#d7d7d7"
           d="m 141.49982,259.23017 a 2.944,2.944 0 0 1 2.97071,-2.97071 1.99969,1.99969 0 0 1 2.17871,2.22266 2.45232,2.45232 0 0 1 -0.1211,0.69238 h -3.83984 c -0.0225,0.81446 0.374,1.38672 1.18848,1.38672 a 1.77571,1.77571 0 0 0 1.47363,-0.80371 l 0.99023,0.40723 a 2.90748,2.90748 0 0 1 -2.56347,1.375 2.13428,2.13428 0 0 1 -2.27735,-2.30957 z m 1.33106,-0.88086 h 2.59668 v -0.0215 c 0,-0.72656 -0.35156,-1.166 -1.05567,-1.166 a 1.62722,1.62722 0 0 0 -1.54101,1.18749 z" />
        <path
           id="path1646"
           style="fill:#d7d7d7"
           d="m 149.87189,257.37079 c -0.53906,-0.0117 -0.86914,0.43946 -1.01269,0.957 l -0.53906,3.10254 h -1.166 l 0.87988,-5.06054 h 1.167 l -0.0996,0.57129 a 1.64344,1.64344 0 0 1 1.19921,-0.68165 1.21925,1.21925 0 0 1 0.87989,0.39551 l -0.7041,0.99024 a 0.91072,0.91072 0 0 0 -0.60452,-0.27439 z" />
      </g>
      <g
         id="g1664">
        <path
           id="path1650"
           style="fill:#d7d7d7"
           d="m 118.534,192.43134 a 2.08708,2.08708 0 0 1 2.333,2.39844 2.73732,2.73732 0 0 1 -2.06836,2.25488 l 1.584,3.04785 h -1.4961 l -1.39746,-2.916 h -0.76953 l -0.49512,2.916 h -1.27636 l 1.29785,-7.70117 z m -1.1875,1.13281 -0.44043,2.57422 h 0.94629 a 1.598,1.598 0 0 0 1.69434,-1.28711 1.06431,1.06431 0 0 0 -1.18848,-1.28711 z" />
        <path
           id="path1652"
           style="fill:#d7d7d7"
           d="m 121.26154,197.93232 a 2.94457,2.94457 0 0 1 2.97071,-2.97071 1.99969,1.99969 0 0 1 2.17871,2.22266 2.45232,2.45232 0 0 1 -0.1211,0.69238 H 122.45 c -0.0225,0.81446 0.374,1.38672 1.18848,1.38672 a 1.77571,1.77571 0 0 0 1.47363,-0.80371 l 0.99023,0.40723 a 2.9075,2.9075 0 0 1 -2.56347,1.375 2.13428,2.13428 0 0 1 -2.27733,-2.30957 z m 1.33106,-0.88086 h 2.59668 V 197.03 c 0,-0.72656 -0.35157,-1.166 -1.05567,-1.166 a 1.62722,1.62722 0 0 0 -1.54101,1.18746 z" />
        <path
           id="path1654"
           style="fill:#d7d7d7"
           d="m 128.18146,195.072 0.76954,3.23438 1.78222,-3.23438 h 1.29883 l -3.41113,5.544 -1.70508,-5.544 z" />
        <path
           id="path1656"
           style="fill:#d7d7d7"
           d="m 131.72248,197.93232 a 2.94456,2.94456 0 0 1 2.9707,-2.97071 1.99969,1.99969 0 0 1 2.17871,2.22266 2.45234,2.45234 0 0 1 -0.12109,0.69238 h -3.8398 c -0.0225,0.81446 0.374,1.38672 1.18847,1.38672 a 1.77571,1.77571 0 0 0 1.47364,-0.80371 l 0.99023,0.40723 a 2.9075,2.9075 0 0 1 -2.56348,1.375 2.13428,2.13428 0 0 1 -2.27738,-2.30957 z m 1.33105,-0.88086 h 2.59668 V 197.03 c 0,-0.72656 -0.35156,-1.166 -1.05566,-1.166 a 1.62723,1.62723 0 0 0 -1.54102,1.18746 z" />
        <path
           id="path1658"
           style="fill:#d7d7d7"
           d="m 140.09455,196.07294 c -0.53906,-0.0117 -0.86914,0.43945 -1.0127,0.957 l -0.53906,3.10254 h -1.166 l 0.87988,-5.06055 h 1.166 l -0.0986,0.57129 a 1.64346,1.64346 0 0 1 1.19922,-0.68164 1.21921,1.21921 0 0 1 0.87988,0.39551 l -0.7041,0.99024 a 0.91067,0.91067 0 0 0 -0.60448,-0.27439 z" />
        <path
           id="path1660"
           style="fill:#d7d7d7"
           d="m 143.38166,199.31806 a 0.63728,0.63728 0 0 0 0.70508,-0.59375 c 0.0107,-0.44043 -0.48438,-0.6709 -0.96875,-0.8584 -0.61621,-0.24219 -1.26465,-0.60547 -1.24317,-1.46289 a 1.59067,1.59067 0 0 1 1.78223,-1.44141 2.354,2.354 0 0 1 1.85938,0.89063 l -0.66016,0.69336 a 1.675,1.675 0 0 0 -1.21,-0.68164 c -0.39649,0 -0.66016,0.19726 -0.66016,0.4834 -0.0225,0.39648 0.418,0.56152 0.92383,0.7705 0.74805,0.31934 1.36426,0.66016 1.34277,1.54 a 1.71394,1.71394 0 0 1 -1.85937,1.62793 2.74476,2.74476 0 0 1 -2.21192,-1.12207 l 0.74805,-0.68164 a 1.94306,1.94306 0 0 0 1.45219,0.83598 z" />
        <path
           id="path1662"
           style="fill:#d7d7d7"
           d="m 145.94514,197.93232 a 2.94456,2.94456 0 0 1 2.9707,-2.97071 1.99969,1.99969 0 0 1 2.17871,2.22266 2.4527,2.4527 0 0 1 -0.12109,0.69238 h -3.83985 c -0.0225,0.81446 0.374,1.38672 1.18848,1.38672 a 1.77571,1.77571 0 0 0 1.47363,-0.80371 l 0.99024,0.40723 a 2.9075,2.9075 0 0 1 -2.56348,1.375 2.13428,2.13428 0 0 1 -2.27734,-2.30957 z m 1.33105,-0.88086 h 2.59668 V 197.03 c 0,-0.72656 -0.35156,-1.166 -1.05566,-1.166 a 1.62722,1.62722 0 0 0 -1.54102,1.18746 z" />
      </g>
      <g
         id="g1674">
        <path
           id="path1666"
           style="fill:#d7d7d7"
           d="m 133.76838,155.45575 a 1.30452,1.30452 0 0 0 1.39648,-1.18847 c 0.0225,-0.74805 -0.61523,-0.99024 -1.38574,-1.3418 a 2.35888,2.35888 0 0 1 -1.70508,-2.13477 2.39054,2.39054 0 0 1 2.585,-2.15625 2.48889,2.48889 0 0 1 2.40918,1.66114 l -1.0664,0.56152 a 1.54522,1.54522 0 0 0 -1.47461,-1.06738 0.98843,0.98843 0 0 0 -1.12207,0.91308 c -0.0332,0.61622 0.583,0.99024 1.45215,1.33106 a 2.21586,2.21586 0 0 1 1.65039,2.14551 2.71557,2.71557 0 0 1 -2.80567,2.45312 2.85763,2.85763 0 0 1 -2.67285,-1.96875 l 0.98926,-0.68262 c 0.3857,0.86915 0.8691,1.47461 1.74996,1.47461 z" />
        <path
           id="path1668"
           style="fill:#d7d7d7"
           d="m 142.45881,151.40693 -2.55274,2.15625 1.83692,2.90429 h -1.36426 l -1.59473,-2.57422 -0.44043,2.57422 H 137.2 l 1.45215,-8.58105 h 1.166 l -0.90234,5.248 2.0459,-1.72753 z" />
        <path
           id="path1670"
           style="fill:#d7d7d7"
           d="m 144.64631,151.40693 -0.8584,5.06054 h -1.166 l 0.84766,-5.06054 z m -0.24219,-2.72852 a 0.716,0.716 0 1 1 -0.74805,0.71484 0.72177,0.72177 0 0 1 0.74805,-0.71484 z" />
        <path
           id="path1672"
           style="fill:#d7d7d7"
           d="m 144.866,158.88837 1.29786,-7.48144 h 1.166 l -0.13183,0.81445 a 2.21575,2.21575 0 0 1 1.79394,-0.94629 2.11112,2.11112 0 0 1 1.99121,2.66211 2.9467,2.9467 0 0 1 -2.8164,2.66211 1.55232,1.55232 0 0 1 -1.5293,-1.07813 l -0.56152,3.36719 z m 3.74024,-6.53516 a 1.8413,1.8413 0 0 0 -1.69434,1.584 c -0.10937,0.84766 0.31934,1.5625 1.07813,1.584 a 1.84221,1.84221 0 0 0 1.78222,-1.584 1.23069,1.23069 0 0 0 -1.16598,-1.584 z" />
      </g>
      <g
         id="g1684">
        <path
           id="path1676"
           style="fill:#d7d7d7"
           d="m 129.19221,112.80341 h -1.34278 l 2.4209,-8.09668 2.15625,5.21484 4.00391,-5.25878 -0.374,8.14062 h -1.32031 l 0.28613,-4.63184 -2.92578,3.92774 -1.585,-3.98242 z" />
        <path
           id="path1678"
           style="fill:#d7d7d7"
           d="m 139.38947,111.946 a 1.285,1.285 0 0 0 1.29785,-1.0791 l 0.54981,-3.124 h 1.17773 l -0.86914,5.06055 h -1.18847 l 0.12109,-0.74805 a 1.84672,1.84672 0 0 1 -1.5625,0.8584 c -1.14356,0 -1.57324,-0.8916 -1.41895,-1.958 l 0.54981,-3.21289 h 1.18848 l -0.52833,3.08008 c -0.0771,0.59468 0.0439,1.12301 0.68262,1.12301 z" />
        <path
           id="path1680"
           style="fill:#d7d7d7"
           d="m 143.98713,107.74286 0.29687,-1.75976 h 1.17676 l -0.30762,1.75976 h 0.83594 l -0.1875,1.04493 h -0.82519 l -0.70411,4.01562 h -1.14355 l 0.68164,-4.01562 h -0.81348 l 0.18653,-1.04493 z" />
        <path
           id="path1682"
           style="fill:#d7d7d7"
           d="m 145.94416,110.60321 a 2.94456,2.94456 0 0 1 2.9707,-2.9707 2.00012,2.00012 0 0 1 2.17871,2.22266 2.45972,2.45972 0 0 1 -0.12109,0.69336 h -3.83984 c -0.0225,0.81347 0.374,1.38574 1.18847,1.38574 a 1.77483,1.77483 0 0 0 1.47364,-0.80273 l 0.99023,0.40722 a 2.90748,2.90748 0 0 1 -2.56348,1.375 2.135,2.135 0 0 1 -2.27734,-2.31055 z m 1.331,-0.87988 h 2.59668 v -0.0225 c 0,-0.72558 -0.35156,-1.166 -1.05566,-1.166 a 1.62814,1.62814 0 0 0 -1.54097,1.18846 z" />
      </g>
      <g
         id="g1694">
        <path
           id="path1686"
           style="fill:#d7d7d7"
           d="M 132.6131,63.236 H 136.2 c -0.33008,2.18945 -1.84863,4.1914 -4.3125,4.1914 a 3.29638,3.29638 0 0 1 -3.30078,-4.01562 4.662,4.662 0 0 1 4.58789,-3.98242 3.17126,3.17126 0 0 1 2.9707,1.71679 l -1.13379,0.70313 a 2.03672,2.03672 0 0 0 -1.958,-1.21 3.25135,3.25135 0 0 0 -3.11328,2.77246 c -0.2207,1.47461 0.53907,2.79492 2.0791,2.79492 A 2.86044,2.86044 0 0 0 134.66,64.33564 h -2.24414 z" />
        <path
           id="path1688"
           style="fill:#d7d7d7"
           d="m 139.56525,62.0915 a 1.58473,1.58473 0 0 1 1.55078,1.09961 l 0.165,-0.98926 h 1.166 l -0.87988,5.06054 h -1.13282 l 0.14258,-0.84668 a 2.27577,2.27577 0 0 1 -1.82617,0.957 2.11284,2.11284 0 0 1 -2.00195,-2.64063 2.95485,2.95485 0 0 1 2.81646,-2.64058 z m -0.44043,4.24609 a 1.86152,1.86152 0 0 0 1.69434,-1.60547 c 0.11035,-0.84766 -0.30762,-1.584 -1.07813,-1.60644 a 1.86323,1.86323 0 0 0 -1.78222,1.60644 c -0.13181,0.85742 0.30762,1.60547 1.16601,1.60547 z" />
        <path
           id="path1690"
           style="fill:#d7d7d7"
           d="m 145.1092,62.20185 -0.8584,5.06054 h -1.166 l 0.84766,-5.06054 z m -0.24219,-2.72852 a 0.71605,0.71605 0 1 1 -0.74805,0.71485 0.72117,0.72117 0 0 1 0.74804,-0.71485 z" />
        <path
           id="path1692"
           style="fill:#d7d7d7"
           d="m 148.80549,63.06025 a 1.28291,1.28291 0 0 0 -1.28711,1.08886 l -0.53906,3.11328 h -1.18848 l 0.87988,-5.06054 h 1.17774 l -0.1211,0.748 a 1.83307,1.83307 0 0 1 1.5625,-0.85839 c 1.1543,0 1.584,0.88086 1.42969,1.959 l -0.5498,3.21191 h -1.21 l 0.54981,-3.081 c 0.0772,-0.59378 -0.0439,-1.12112 -0.70407,-1.12112 z" />
      </g>
      <g
         id="g1700">
        <path
           id="path1696"
           style="fill:#d7d7d7"
           d="M 63.63654,40.24286 62.29475,47.944 H 61.0174 l 1.29883,-7.70118 z" />
        <path
           id="path1698"
           style="fill:#d7d7d7"
           d="m 66.84748,43.74189 a 1.28365,1.28365 0 0 0 -1.28711,1.08886 L 65.02131,47.944 h -1.1875 l 0.8789,-5.06055 h 1.17774 l -0.1211,0.748 a 1.83429,1.83429 0 0 1 1.5625,-0.8584 c 1.1543,0 1.584,0.88086 1.42969,1.959 L 68.21271,47.944 h -1.21093 l 0.55078,-3.08106 c 0.07617,-0.59371 -0.04492,-1.12105 -0.70508,-1.12105 z" />
      </g>
      <g
         id="g1712">
        <path
           id="path1702"
           style="fill:#d7d7d7"
           d="M 55.56135,97.60614 A 3.75152,3.75152 0 0 0 58.11408,96.528 l -0.23144,1.54 a 4.06881,4.06881 0 0 1 -2.49707,0.81348 3.27934,3.27934 0 0 1 -3.25684,-3.98243 4.6604,4.6604 0 0 1 4.5332,-3.98242 3.2013,3.2013 0 0 1 2.28809,0.81445 l -0.24219,1.55079 a 2.488,2.488 0 0 0 -2.13476,-1.08887 3.22069,3.22069 0 0 0 -3.05762,2.706 2.1663,2.1663 0 0 0 2.0459,2.70714 z" />
        <path
           id="path1704"
           style="fill:#d7d7d7"
           d="M 61.83088,90.16864 60.3465,98.7497 h -1.15527 l 1.45215,-8.58106 z" />
        <path
           id="path1706"
           style="fill:#d7d7d7"
           d="m 64.95588,93.5788 a 2.23189,2.23189 0 0 1 2.28812,2.64063 3.07145,3.07145 0 0 1 -3.03613,2.64062 2.23716,2.23716 0 0 1 -2.28906,-2.64062 3.0717,3.0717 0 0 1 3.03707,-2.64063 z m -0.66016,4.22461 a 1.83268,1.83268 0 0 0 1.73828,-1.584 1.255,1.255 0 0 0 -1.17773,-1.584 1.83188,1.83188 0 0 0 -1.73828,1.584 1.255,1.255 0 0 0 1.17773,1.584 z" />
        <path
           id="path1708"
           style="fill:#d7d7d7"
           d="m 70.30158,97.82587 a 2.33442,2.33442 0 0 0 1.77051,-0.83594 l -0.18652,1.29786 a 2.72691,2.72691 0 0 1 -1.7168,0.57226 2.2466,2.2466 0 0 1 -2.30957,-2.64062 3.06456,3.06456 0 0 1 3.04687,-2.64063 2.40184,2.40184 0 0 1 1.60645,0.57227 L 72.326,95.46064 a 1.5553,1.5553 0 0 0 -1.45313,-0.84766 1.87222,1.87222 0 0 0 -1.80371,1.60645 1.28716,1.28716 0 0 0 1.23242,1.60644 z" />
        <path
           id="path1710"
           style="fill:#d7d7d7"
           d="M 78.16682,93.68915 75.61408,95.8454 77.451,98.7497 H 76.08674 L 74.492,96.17548 74.05157,98.7497 H 72.908 l 1.45215,-8.58106 h 1.166 l -0.90234,5.24805 2.0459,-1.72754 z" />
      </g>
      <g
         id="g1732">
        <path
           id="path1714"
           style="fill:#d7d7d7"
           d="m 44.12287,251.49384 1.29688,-7.70117 h 2.39843 a 3.12989,3.12989 0 0 1 3.23438,3.85058 4.44179,4.44179 0 0 1 -4.4668,3.85059 z m 2.41992,-6.47949 -0.91406,5.25879 h 1.04492 a 3.02045,3.02045 0 0 0 3.0586,-2.62989 2.04,2.04 0 0 0 -2.07813,-2.6289 z" />
        <path
           id="path1716"
           style="fill:#d7d7d7"
           d="m 53.64826,246.43329 -0.85937,5.06055 h -1.166 l 0.84766,-5.06055 z m -0.24219,-2.72851 a 0.716,0.716 0 1 1 -0.748,0.71484 0.72177,0.72177 0 0 1 0.748,-0.71484 z" />
        <path
           id="path1718"
           style="fill:#d7d7d7"
           d="m 57.04865,247.43427 c -0.53906,-0.0107 -0.86914,0.44043 -1.01367,0.957 l -0.53906,3.10254 h -1.166 l 0.88086,-5.06055 h 1.166 l -0.09961,0.57227 a 1.6447,1.6447 0 0 1 1.19922,-0.68262 1.21692,1.21692 0 0 1 0.88086,0.39649 l -0.70508,0.99023 a 0.905,0.905 0 0 0 -0.60352,-0.27536 z" />
        <path
           id="path1720"
           style="fill:#d7d7d7"
           d="m 58.21271,249.29364 a 2.944,2.944 0 0 1 2.97071,-2.9707 1.99941,1.99941 0 0 1 2.17773,2.22266 2.45972,2.45972 0 0 1 -0.12109,0.69336 h -3.83985 c -0.02148,0.81347 0.375,1.38574 1.18946,1.38574 a 1.77177,1.77177 0 0 0 1.47265,-0.80274 l 0.99024,0.40723 a 2.90467,2.90467 0 0 1 -2.5625,1.375 2.13456,2.13456 0 0 1 -2.27735,-2.31055 z m 1.33008,-0.87988 h 2.59766 v -0.0225 c 0,-0.72559 -0.35156,-1.166 -1.05664,-1.166 a 1.62993,1.62993 0 0 0 -1.54102,1.18846 z" />
        <path
           id="path1722"
           style="fill:#d7d7d7"
           d="m 66.37482,250.57 a 2.33491,2.33491 0 0 0 1.77149,-0.83594 l -0.1875,1.29786 a 2.72288,2.72288 0 0 1 -1.7168,0.57226 2.24546,2.24546 0 0 1 -2.30859,-2.64062 3.06456,3.06456 0 0 1 3.04687,-2.64063 2.40105,2.40105 0 0 1 1.60547,0.57227 l -0.18555,1.30957 a 1.55528,1.55528 0 0 0 -1.45312,-0.84766 1.87244,1.87244 0 0 0 -1.80469,1.60645 1.28763,1.28763 0 0 0 1.23242,1.60644 z" />
        <path
           id="path1724"
           style="fill:#d7d7d7"
           d="m 70.01545,246.43329 0.29687,-1.75976 h 1.17774 l -0.3086,1.75976 h 0.83594 l -0.1875,1.04492 h -0.82422 l -0.70508,4.01563 H 69.158 l 0.68164,-4.01563 h -0.81446 l 0.1875,-1.04492 z" />
        <path
           id="path1726"
           style="fill:#d7d7d7"
           d="m 74.04084,246.43329 -0.85742,5.06055 h -1.166 l 0.84766,-5.06055 z m -0.24219,-2.72851 a 0.716,0.716 0 1 1 -0.748,0.71484 0.72177,0.72177 0 0 1 0.748,-0.71484 z" />
        <path
           id="path1728"
           style="fill:#d7d7d7"
           d="m 77.8924,246.32294 a 2.23078,2.23078 0 0 1 2.28711,2.64063 3.07046,3.07046 0 0 1 -3.03516,2.64062 2.2367,2.2367 0 0 1 -2.28906,-2.64062 3.071,3.071 0 0 1 3.03711,-2.64063 z m -0.66015,4.22461 a 1.83269,1.83269 0 0 0 1.73828,-1.584 1.2555,1.2555 0 0 0 -1.17774,-1.584 1.83108,1.83108 0 0 0 -1.73828,1.584 1.25456,1.25456 0 0 0 1.17774,1.584 z" />
        <path
           id="path1730"
           style="fill:#d7d7d7"
           d="m 83.744,247.29169 a 1.28452,1.28452 0 0 0 -1.28711,1.08887 l -0.53906,3.11328 h -1.1875 l 0.87891,-5.06055 h 1.17773 l -0.12109,0.74805 a 1.8343,1.8343 0 0 1 1.5625,-0.8584 c 1.1543,0 1.584,0.88086 1.42969,1.959 l -0.54883,3.21191 h -1.21098 l 0.55078,-3.08008 C 84.52521,247.82 84.40412,247.29169 83.744,247.29169 Z" />
      </g>
      <g
         id="g1744">
        <path
           id="path1734"
           style="fill:#d7d7d7"
           d="m 56.05842,199.43525 a 3.75158,3.75158 0 0 0 2.55273,-1.07813 l -0.23242,1.54 a 4.06032,4.06032 0 0 1 -2.49609,0.81445 3.28035,3.28035 0 0 1 -3.25782,-3.98242 4.66118,4.66118 0 0 1 4.53321,-3.98242 3.20737,3.20737 0 0 1 2.28906,0.81348 L 59.2049,195.112 a 2.49,2.49 0 0 0 -2.13476,-1.08984 3.22169,3.22169 0 0 0 -3.0586,2.707 2.16562,2.16562 0 0 0 2.04688,2.70609 z" />
        <path
           id="path1736"
           style="fill:#d7d7d7"
           d="m 62.328,191.99872 -1.48438,8.58106 h -1.1563 l 1.45313,-8.58106 z" />
        <path
           id="path1738"
           style="fill:#d7d7d7"
           d="m 62.37092,198.37958 a 2.944,2.944 0 0 1 2.9707,-2.9707 2.00039,2.00039 0 0 1 2.17969,2.22266 2.45239,2.45239 0 0 1 -0.1211,0.69238 h -3.83984 c -0.02344,0.81445 0.373,1.38672 1.1875,1.38672 a 1.77878,1.77878 0 0 0 1.47461,-0.80371 l 0.99023,0.40722 a 2.91029,2.91029 0 0 1 -2.56445,1.375 2.13475,2.13475 0 0 1 -2.27734,-2.30957 z m 1.332,-0.88086 h 2.5957 v -0.0215 c 0,-0.72656 -0.35156,-1.166 -1.05469,-1.166 A 1.62543,1.62543 0 0 0 63.703,197.4987 Z" />
        <path
           id="path1740"
           style="fill:#d7d7d7"
           d="m 70.908,195.40888 a 1.58358,1.58358 0 0 1 1.55078,1.09961 l 0.16406,-0.98926 h 1.166 L 72.91,200.57978 h -1.13283 l 0.14258,-0.84766 a 2.27453,2.27453 0 0 1 -1.82618,0.957 2.1111,2.1111 0 0 1 -2.00195,-2.63965 2.9541,2.9541 0 0 1 2.81638,-2.64059 z m -0.44141,4.24609 a 1.86343,1.86343 0 0 0 1.69531,-1.60547 c 0.10938,-0.84765 -0.30859,-1.585 -1.07812,-1.60644 a 1.86344,1.86344 0 0 0 -1.78321,1.60644 c -0.13082,0.85743 0.30863,1.6055 1.16605,1.6055 z" />
        <path
           id="path1742"
           style="fill:#d7d7d7"
           d="m 77.0135,196.52021 c -0.53907,-0.0117 -0.86915,0.43945 -1.01368,0.957 l -0.53906,3.10254 h -1.166 l 0.88085,-5.06055 h 1.166 l -0.09961,0.57129 a 1.64343,1.64343 0 0 1 1.19922,-0.68164 1.2197,1.2197 0 0 1 0.88086,0.39551 l -0.70508,0.99023 a 0.90833,0.90833 0 0 0 -0.6035,-0.27438 z" />
      </g>
      <g
         id="g1756">
        <path
           id="path1746"
           style="fill:#d7d7d7"
           d="m 56.91,148.652 a 1.30381,1.30381 0 0 0 1.39648,-1.1875 c 0.02247,-0.748 -0.61523,-0.99023 -1.38574,-1.34277 a 2.35867,2.35867 0 0 1 -1.70508,-2.13379 2.39055,2.39055 0 0 1 2.585,-2.15625 2.48765,2.48765 0 0 1 2.40918,1.66113 l -1.0664,0.56055 a 1.54564,1.54564 0 0 0 -1.47461,-1.06641 0.98787,0.98787 0 0 0 -1.12207,0.91309 c -0.0332,0.61523 0.583,0.98926 1.45215,1.33105 a 2.21411,2.21411 0 0 1 1.65039,2.14551 2.71557,2.71557 0 0 1 -2.80567,2.45313 2.8585,2.8585 0 0 1 -2.67285,-1.96973 l 0.98926,-0.68164 c 0.38568,0.86918 0.86908,1.47363 1.74996,1.47363 z" />
        <path
           id="path1748"
           style="fill:#d7d7d7"
           d="m 61.3758,144.60419 0.29688,-1.76074 h 1.17675 l -0.30761,1.76074 h 0.83593 l -0.1875,1.04492 h -0.82519 l -0.7041,4.01563 H 60.5174 l 0.68164,-4.01563 h -0.81347 l 0.18652,-1.04492 z" />
        <path
           id="path1750"
           style="fill:#d7d7d7"
           d="m 66.12775,144.49384 a 1.58356,1.58356 0 0 1 1.55078,1.09961 l 0.165,-0.98926 h 1.166 l -0.87988,5.06055 h -1.13276 l 0.14258,-0.84766 a 2.27312,2.27312 0 0 1 -1.82617,0.957 2.112,2.112 0 0 1 -2.002,-2.63965 2.95486,2.95486 0 0 1 2.81645,-2.64059 z m -0.44043,4.24609 a 1.86248,1.86248 0 0 0 1.69434,-1.60547 c 0.11035,-0.84765 -0.30762,-1.585 -1.07813,-1.60644 a 1.86324,1.86324 0 0 0 -1.78222,1.60644 c -0.13184,0.85743 0.30762,1.60547 1.16601,1.60547 z" />
        <path
           id="path1752"
           style="fill:#d7d7d7"
           d="m 72.23225,145.60517 c -0.53907,-0.0117 -0.86915,0.43945 -1.0127,0.957 l -0.53906,3.10254 h -1.166 l 0.87988,-5.06055 h 1.166 l -0.09863,0.57129 a 1.64341,1.64341 0 0 1 1.19922,-0.68164 1.21923,1.21923 0 0 1 0.87988,0.39551 l -0.7041,0.99023 a 0.91068,0.91068 0 0 0 -0.60449,-0.27438 z" />
        <path
           id="path1754"
           style="fill:#d7d7d7"
           d="m 74.48713,144.60419 0.29687,-1.76074 h 1.17676 l -0.30762,1.76074 h 0.83594 l -0.1875,1.04492 h -0.82519 l -0.70411,4.01563 h -1.14355 l 0.68164,-4.01563 h -0.81348 l 0.18653,-1.04492 z" />
      </g>
      <g
         id="g1770">
        <path
           id="path1758"
           style="fill:#fd495c"
           d="m 51.992,294.70771 a 2.08638,2.08638 0 0 1 2.332,2.39843 2.736,2.736 0 0 1 -2.06836,2.25489 l 1.584,3.04785 h -1.4961 l -1.39648,-2.916 h -0.76953 l -0.4961,2.916 h -1.27536 l 1.29688,-7.70117 z m -1.1875,1.13281 -0.44141,2.57422 h 0.94727 a 1.597,1.597 0 0 0 1.69336,-1.28711 1.06331,1.06331 0 0 0 -1.1875,-1.28711 z" />
        <path
           id="path1760"
           style="fill:#fd495c"
           d="m 54.71857,300.20868 a 2.944,2.944 0 0 1 2.97071,-2.9707 2.00039,2.00039 0 0 1 2.17968,2.22266 2.45234,2.45234 0 0 1 -0.12109,0.69238 H 55.908 c -0.02344,0.81445 0.373,1.38672 1.1875,1.38672 a 1.77878,1.77878 0 0 0 1.47461,-0.80371 l 0.99023,0.40722 a 2.91032,2.91032 0 0 1 -2.56445,1.375 2.13476,2.13476 0 0 1 -2.27732,-2.30957 z m 1.332,-0.88086 h 2.59571 v -0.0215 c 0,-0.72656 -0.35156,-1.166 -1.05469,-1.166 a 1.62545,1.62545 0 0 0 -1.54099,1.18748 z" />
        <path
           id="path1762"
           style="fill:#fd495c"
           d="m 62.88264,301.48407 a 2.3307,2.3307 0 0 0 1.76953,-0.83593 l -0.18555,1.29882 a 2.73613,2.73613 0 0 1 -1.7168,0.57129 2.247,2.247 0 0 1 -2.31054,-2.63964 3.06456,3.06456 0 0 1 3.04687,-2.64063 2.3977,2.3977 0 0 1 1.60742,0.57227 l -0.1875,1.30859 a 1.55619,1.55619 0 0 0 -1.45312,-0.84668 1.87114,1.87114 0 0 0 -1.80274,1.60645 1.2859,1.2859 0 0 0 1.23243,1.60546 z" />
        <path
           id="path1764"
           style="fill:#fd495c"
           d="m 68.67951,297.238 a 2.23078,2.23078 0 0 1 2.28711,2.64063 3.06961,3.06961 0 0 1 -3.03516,2.63964 2.23593,2.23593 0 0 1 -2.28906,-2.63964 3.071,3.071 0 0 1 3.03711,-2.64063 z m -0.66016,4.22461 a 1.83269,1.83269 0 0 0 1.73829,-1.584 1.25632,1.25632 0 0 0 -1.17774,-1.585 1.832,1.832 0 0 0 -1.73828,1.585 1.25456,1.25456 0 0 0 1.17773,1.58398 z" />
        <path
           id="path1766"
           style="fill:#fd495c"
           d="m 74.2342,298.34931 c -0.53906,-0.0117 -0.86914,0.43945 -1.01367,0.957 l -0.53907,3.10254 h -1.166 l 0.88086,-5.06055 h 1.166 l -0.09961,0.57129 a 1.64343,1.64343 0 0 1 1.19922,-0.68164 1.2197,1.2197 0 0 1 0.88086,0.39551 l -0.70508,0.99023 a 0.90831,0.90831 0 0 0 -0.60351,-0.27438 z" />
        <path
           id="path1768"
           style="fill:#fd495c"
           d="m 78.3592,297.238 a 1.58189,1.58189 0 0 1 1.5293,1.04492 l 0.75781,-4.45508 h 1.18945 l -1.47461,8.58106 h -1.17773 l 0.13281,-0.78125 a 2.23213,2.23213 0 0 1 -1.77148,0.89062 2.11109,2.11109 0 0 1 -2.002,-2.63964 2.95411,2.95411 0 0 1 2.81645,-2.64063 z m -0.44141,4.24609 a 1.86342,1.86342 0 0 0 1.69531,-1.60546 c 0.10938,-0.84766 -0.30859,-1.585 -1.07812,-1.60645 a 1.86342,1.86342 0 0 0 -1.7832,1.60645 c -0.13086,0.85737 0.30859,1.60544 1.16601,1.60544 z" />
      </g>
    </g>
    <g
       data-name="LEGEND"
       id="20e0757b-a5f5-4ce3-88ac-c61d76ac3884">
      <g
         id="g1779">
        <path
           id="path1773"
           style="fill:#00886a"
           d="m 524.88317,133.46935 a 0.65888,0.65888 0 0 1 -0.37532,-0.11668 25.12325,25.12325 0 1 1 28.45372,-0.0104 0.6642,0.6642 0 0 1 -0.75323,-1.0942 23.7968,23.7968 0 1 0 -26.94855,0.0104 0.66379,0.66379 0 0 1 -0.37662,1.21088 z" />
        <path
           id="path1775"
           style="fill:#00886a"
           d="m 525.9367,131.04958 a 1.99652,1.99652 0 1 1 -2.76941,0.55 1.99674,1.99674 0 0 1 2.76941,-0.55 z" />
        <circle
           id="circle1777"
           style="fill:#00886a"
           r="1.9965301"
           cy="132.70036"
           cx="552.63855" />
      </g>
      <g
         id="g1787">
        <path
           id="path1781"
           style="fill:#00886a"
           d="m 524.88317,206.59926 a 0.659,0.659 0 0 1 -0.37532,-0.11668 25.12325,25.12325 0 1 1 28.45372,-0.0104 0.6642,0.6642 0 0 1 -0.75323,-1.0942 23.7968,23.7968 0 1 0 -26.94855,0.0104 0.66379,0.66379 0 0 1 -0.37662,1.21088 z" />
        <path
           id="path1783"
           style="fill:#00886a"
           d="m 525.9367,204.17949 a 1.99652,1.99652 0 1 1 -2.76941,0.55 1.99673,1.99673 0 0 1 2.76941,-0.55 z" />
        <circle
           id="circle1785"
           style="fill:#00886a"
           r="1.9965301"
           cy="205.83028"
           cx="552.63855" />
      </g>
      <g
         data-name="Halo"
         id="a7302338-bcb4-4f96-8cc5-d431d5eda35f">
        <circle
           id="circle1789"
           style="fill:none;stroke:#00886a;stroke-miterlimit:10"
           r="13.63575"
           cy="276.34052"
           cx="473.04269" />
        <circle
           id="circle1791"
           style="fill:none;stroke:#00886a;stroke-miterlimit:10"
           r="13.63575"
           cy="276.34052"
           cx="430.38202" />
        <circle
           id="circle1793"
           style="fill:none;stroke:#00886a;stroke-miterlimit:10"
           r="13.63575"
           cy="276.34052"
           cx="387.72134" />
        <circle
           id="circle1795"
           style="fill:none;stroke:#00886a;stroke-miterlimit:10"
           r="13.63575"
           cy="276.34052"
           cx="345.06067" />
        <circle
           id="circle1797"
           style="fill:none;stroke:#00886a;stroke-miterlimit:10"
           r="13.63575"
           cy="276.34052"
           cx="302.39999" />
        <circle
           id="circle1799"
           style="fill:none;stroke:#00886a;stroke-miterlimit:10"
           r="13.63575"
           cy="276.34052"
           cx="259.73932" />
        <circle
           id="circle1801"
           style="fill:none;stroke:#00886a;stroke-miterlimit:10"
           r="13.63575"
           cy="276.34052"
           cx="217.07864" />
        <circle
           id="circle1803"
           style="fill:none;stroke:#00886a;stroke-miterlimit:10"
           r="13.63575"
           cy="276.34052"
           cx="174.41798" />
      </g>
      <g
         data-name="Lines"
         id="a1c7f1ef-7ba6-4d6c-9dce-bae091f31677">
        <rect
           id="rect1806"
           style="fill:#00886a"
           ry="0.62107003"
           rx="0.62107003"
           height="1.41732"
           width="7.0824599"
           y="313.27295"
           x="448.17114" />
        <rect
           id="rect1808"
           style="fill:#00886a"
           ry="0.62107003"
           rx="0.62107003"
           height="1.41732"
           width="7.0824599"
           y="313.27295"
           x="448.17114" />
        <rect
           id="rect1810"
           style="fill:#00886a"
           ry="0.62107003"
           rx="0.62107003"
           height="1.41732"
           width="7.0824599"
           y="313.27295"
           x="405.51044" />
        <rect
           id="rect1812"
           style="fill:#00886a"
           ry="0.62107003"
           rx="0.62107003"
           height="1.41732"
           width="7.0824599"
           y="313.27295"
           x="362.84979" />
        <rect
           id="rect1814"
           style="fill:#00886a"
           ry="0.62107003"
           rx="0.62107003"
           height="1.41732"
           width="7.0824599"
           y="313.27295"
           x="320.18912" />
        <rect
           id="rect1816"
           style="fill:#00886a"
           ry="0.62107003"
           rx="0.62107003"
           height="1.41732"
           width="7.0824599"
           y="313.27295"
           x="277.52844" />
        <rect
           id="rect1818"
           style="fill:#00886a"
           ry="0.62107003"
           rx="0.62107003"
           height="1.41732"
           width="7.0824599"
           y="313.27295"
           x="234.86777" />
        <rect
           id="rect1820"
           style="fill:#00886a"
           ry="0.62107003"
           rx="0.62107003"
           height="1.41732"
           width="7.0824599"
           y="313.27295"
           x="192.20709" />
        <rect
           id="rect1822"
           style="fill:#00886a"
           ry="0.62107003"
           rx="0.62107003"
           height="1.41732"
           width="7.0824599"
           y="196.70139"
           x="448.17114" />
        <rect
           id="rect1824"
           style="fill:#00886a"
           ry="0.62107003"
           rx="0.62107003"
           height="1.41732"
           width="7.0824599"
           y="196.70139"
           x="405.51044" />
        <rect
           id="rect1826"
           style="fill:#00886a"
           ry="0.62107003"
           rx="0.62107003"
           height="1.41732"
           width="7.0824599"
           y="196.70139"
           x="362.84979" />
        <rect
           id="rect1828"
           style="fill:#00886a"
           ry="0.62107003"
           rx="0.62107003"
           height="1.41732"
           width="7.0824599"
           y="196.70139"
           x="320.18912" />
        <rect
           id="rect1830"
           style="fill:#00886a"
           ry="0.62107003"
           rx="0.62107003"
           height="1.41732"
           width="7.0824599"
           y="196.70139"
           x="277.52844" />
        <rect
           id="rect1832"
           style="fill:#00886a"
           ry="0.62107003"
           rx="0.62107003"
           height="1.41732"
           width="7.0824599"
           y="196.70139"
           x="234.86777" />
        <rect
           id="rect1834"
           style="fill:#00886a"
           ry="0.62107003"
           rx="0.62107003"
           height="1.41732"
           width="7.0824599"
           y="196.70139"
           x="192.20709" />
        <rect
           id="rect1836"
           style="fill:#00886a"
           ry="0.62107003"
           rx="0.62107003"
           height="1.41732"
           width="7.0824599"
           y="109.37246"
           x="448.17114" />
        <rect
           id="rect1838"
           style="fill:#00886a"
           ry="0.62107003"
           rx="0.62107003"
           height="1.41732"
           width="7.0824599"
           y="109.37246"
           x="405.51044" />
        <rect
           id="rect1840"
           style="fill:#00886a"
           ry="0.62107003"
           rx="0.62107003"
           height="1.41732"
           width="7.0824599"
           y="109.37246"
           x="362.84979" />
        <rect
           id="rect1842"
           style="fill:#00886a"
           ry="0.62107003"
           rx="0.62107003"
           height="1.41732"
           width="7.0824599"
           y="109.37246"
           x="320.18912" />
        <rect
           id="rect1844"
           style="fill:#00886a"
           ry="0.62107003"
           rx="0.62107003"
           height="1.41732"
           width="7.0824599"
           y="109.37246"
           x="277.52844" />
        <rect
           id="rect1846"
           style="fill:#00886a"
           ry="0.62107003"
           rx="0.62107003"
           height="1.41732"
           width="7.0824599"
           y="109.37246"
           x="234.86777" />
        <rect
           id="rect1848"
           style="fill:#00886a"
           ry="0.62107003"
           rx="0.62107003"
           height="1.41732"
           width="7.0824599"
           y="109.37246"
           x="192.20709" />
      </g>
      <g
         data-name="Arrows"
         id="14e6f003-0e80-4ca1-84c0-c7ee2bdbfe14">
        <g
           id="g1857">
          <path
             id="path1851"
             style="fill:#00886a"
             d="m 163.99049,82.48248 a 0.49629,0.49629 0 0 1 -0.28272,-0.0879 18.92439,18.92439 0 1 1 21.43311,-0.0078 0.50032,0.50032 0 0 1 -0.56738,-0.82422 17.92522,17.92522 0 1 0 -20.29932,0.0078 0.5,0.5 0 0 1 -0.28369,0.91211 z" />
          <path
             id="path1853"
             style="fill:#00886a"
             d="m 164.78407,80.65975 a 1.5039,1.5039 0 1 1 -2.08609,0.41429 1.50407,1.50407 0 0 1 2.08609,-0.41429 z" />
          <circle
             id="circle1855"
             style="fill:#00886a"
             r="1.5039099"
             cy="81.903229"
             cx="184.89757" />
        </g>
        <g
           id="g1865">
          <path
             id="path1859"
             style="fill:#00886a"
             d="m 462.61521,82.48248 a 0.49629,0.49629 0 0 1 -0.28272,-0.0879 18.92438,18.92438 0 1 1 21.43311,-0.0078 0.50032,0.50032 0 0 1 -0.56739,-0.82422 17.92521,17.92521 0 1 0 -20.29931,0.0078 0.5,0.5 0 0 1 -0.28369,0.91211 z" />
          <path
             id="path1861"
             style="fill:#00886a"
             d="m 463.40878,80.65975 a 1.5039,1.5039 0 1 1 -2.08609,0.41429 1.50407,1.50407 0 0 1 2.08609,-0.41429 z" />
          <circle
             id="circle1863"
             style="fill:#00886a"
             r="1.5039099"
             cy="81.903229"
             cx="483.52228" />
        </g>
        <g
           id="g1871">
          <line
             id="line1867"
             style="fill:none;stroke:#00886a;stroke-width:1.4px;stroke-miterlimit:10"
             y2="257.76944"
             x2="430.38199"
             y1="262.7048"
             x1="430.38199" />
          <polygon
             id="polygon1869"
             style="fill:#00886a"
             points="430.382,258.183 428.009,260.558 428.009,258.543 430.382,256.169 432.756,258.543 432.756,260.558 " />
        </g>
        <g
           id="g1877">
          <line
             id="line1873"
             style="fill:none;stroke:#00886a;stroke-width:1.4px;stroke-miterlimit:10"
             y2="257.76944"
             x2="387.72134"
             y1="262.7048"
             x1="387.72134" />
          <polygon
             id="polygon1875"
             style="fill:#00886a"
             points="387.721,258.183 385.348,260.558 385.348,258.543 387.721,256.169 390.095,258.543 390.095,260.558 " />
        </g>
        <g
           id="g1883">
          <line
             id="line1879"
             style="fill:none;stroke:#00886a;stroke-width:1.4px;stroke-miterlimit:10"
             y2="257.76944"
             x2="345.0607"
             y1="262.7048"
             x1="345.0607" />
          <polygon
             id="polygon1881"
             style="fill:#00886a"
             points="345.061,258.183 342.687,260.558 342.687,258.543 345.061,256.169 347.434,258.543 347.434,260.558 " />
        </g>
        <g
           id="g1889">
          <line
             id="line1885"
             style="fill:none;stroke:#00886a;stroke-width:1.4px;stroke-miterlimit:10"
             y2="257.76944"
             x2="302.40005"
             y1="262.7048"
             x1="302.40005" />
          <polygon
             id="polygon1887"
             style="fill:#00886a"
             points="302.4,258.183 300.027,260.558 300.027,258.543 302.4,256.169 304.773,258.543 304.773,260.558 " />
        </g>
        <g
           id="g1895">
          <line
             id="line1891"
             style="fill:none;stroke:#00886a;stroke-width:1.4px;stroke-miterlimit:10"
             y2="257.76944"
             x2="259.73929"
             y1="262.7048"
             x1="259.73929" />
          <polygon
             id="polygon1893"
             style="fill:#00886a"
             points="259.739,258.183 257.366,260.558 257.366,258.543 259.739,256.169 262.113,258.543 262.113,260.558 " />
        </g>
        <g
           id="g1901">
          <line
             id="line1897"
             style="fill:none;stroke:#00886a;stroke-width:1.4px;stroke-miterlimit:10"
             y2="257.76944"
             x2="217.07863"
             y1="262.7048"
             x1="217.07863" />
          <polygon
             id="polygon1899"
             style="fill:#00886a"
             points="217.079,258.183 214.705,260.558 214.705,258.543 217.079,256.169 219.452,258.543 219.452,260.558 " />
        </g>
        <g
           id="g1907">
          <line
             id="line1903"
             style="fill:none;stroke:#00886a;stroke-width:1.4px;stroke-miterlimit:10"
             y2="257.76944"
             x2="473.04276"
             y1="262.7048"
             x1="473.04276" />
          <polygon
             id="polygon1905"
             style="fill:#00886a"
             points="473.043,258.183 470.669,260.558 470.669,258.543 473.043,256.169 475.416,258.543 475.416,260.558 " />
        </g>
        <g
           id="g1913">
          <line
             id="line1909"
             style="fill:none;stroke:#00886a;stroke-width:1.4px;stroke-miterlimit:10"
             y2="257.76944"
             x2="174.41798"
             y1="262.7048"
             x1="174.41798" />
          <polygon
             id="polygon1911"
             style="fill:#00886a"
             points="174.418,258.183 172.045,260.558 172.045,258.543 174.418,256.169 176.791,258.543 176.791,260.558 " />
        </g>
        <g
           id="g1919">
          <line
             id="line1915"
             style="fill:none;stroke:#00886a;stroke-width:1.4px;stroke-linecap:round;stroke-miterlimit:10"
             y2="313.98114"
             x2="521.43036"
             y1="313.98114"
             x1="489.06989" />
          <polygon
             id="polygon1917"
             style="fill:#00886a"
             points="521.017,313.981 518.642,311.608 520.657,311.608 523.03,313.981 520.657,316.355 518.642,316.355 " />
        </g>
      </g>
      <g
         id="g1928">
        <path
           id="path1922"
           style="fill:#00886a"
           d="m 419.95453,82.48248 a 0.49626,0.49626 0 0 1 -0.28271,-0.0879 18.92438,18.92438 0 1 1 21.4331,-0.0078 0.50032,0.50032 0 0 1 -0.56738,-0.82422 17.92522,17.92522 0 1 0 -20.29932,0.0078 0.5,0.5 0 0 1 -0.28369,0.91211 z" />
        <path
           id="path1924"
           style="fill:#00886a"
           d="m 420.74811,80.65975 a 1.5039,1.5039 0 1 1 -2.08609,0.41429 1.50406,1.50406 0 0 1 2.08609,-0.41429 z" />
        <circle
           id="circle1926"
           style="fill:#00886a"
           r="1.5039099"
           cy="81.903229"
           cx="440.86163" />
      </g>
      <g
         id="g1936">
        <path
           id="path1930"
           style="fill:#00886a"
           d="m 377.29386,82.48248 a 0.49629,0.49629 0 0 1 -0.28272,-0.0879 18.92439,18.92439 0 1 1 21.43311,-0.0078 0.50032,0.50032 0 0 1 -0.56738,-0.82422 17.92522,17.92522 0 1 0 -20.29932,0.0078 0.5,0.5 0 0 1 -0.28369,0.91211 z" />
        <path
           id="path1932"
           style="fill:#00886a"
           d="m 378.08744,80.65975 a 1.5039,1.5039 0 1 1 -2.08609,0.41429 1.50407,1.50407 0 0 1 2.08609,-0.41429 z" />
        <circle
           id="circle1934"
           style="fill:#00886a"
           r="1.5039099"
           cy="81.903229"
           cx="398.20093" />
      </g>
      <g
         id="g1944">
        <path
           id="path1938"
           style="fill:#00886a"
           d="m 334.63318,82.48248 a 0.49626,0.49626 0 0 1 -0.28271,-0.0879 18.92438,18.92438 0 1 1 21.4331,-0.0078 0.50032,0.50032 0 0 1 -0.56738,-0.82422 17.92521,17.92521 0 1 0 -20.29931,0.0078 0.5,0.5 0 0 1 -0.2837,0.91211 z" />
        <path
           id="path1940"
           style="fill:#00886a"
           d="m 335.42676,80.65975 a 1.5039,1.5039 0 1 1 -2.08609,0.41429 1.50406,1.50406 0 0 1 2.08609,-0.41429 z" />
        <circle
           id="circle1942"
           style="fill:#00886a"
           r="1.5039099"
           cy="81.903229"
           cx="355.54028" />
      </g>
      <g
         id="g1952">
        <path
           id="path1946"
           style="fill:#00886a"
           d="m 291.97251,82.48248 a 0.49629,0.49629 0 0 1 -0.28272,-0.0879 18.92439,18.92439 0 1 1 21.43311,-0.0078 0.50032,0.50032 0 0 1 -0.56738,-0.82422 17.92522,17.92522 0 1 0 -20.29932,0.0078 0.5,0.5 0 0 1 -0.28369,0.91211 z" />
        <path
           id="path1948"
           style="fill:#00886a"
           d="M 292.76609,80.65975 A 1.5039,1.5039 0 1 1 290.68,81.074 a 1.50407,1.50407 0 0 1 2.08609,-0.41425 z" />
        <circle
           id="circle1950"
           style="fill:#00886a"
           r="1.5039099"
           cy="81.903229"
           cx="312.87961" />
      </g>
      <g
         id="g1960">
        <path
           id="path1954"
           style="fill:#00886a"
           d="m 249.31184,82.48248 a 0.49629,0.49629 0 0 1 -0.28272,-0.0879 18.92438,18.92438 0 1 1 21.43311,-0.0078 0.50032,0.50032 0 0 1 -0.56739,-0.82422 17.92521,17.92521 0 1 0 -20.29931,0.0078 0.5,0.5 0 0 1 -0.28369,0.91211 z" />
        <path
           id="path1956"
           style="fill:#00886a"
           d="m 250.10541,80.65975 a 1.5039,1.5039 0 1 1 -2.08609,0.41429 1.50407,1.50407 0 0 1 2.08609,-0.41429 z" />
        <circle
           id="circle1958"
           style="fill:#00886a"
           r="1.5039099"
           cy="81.903229"
           cx="270.21893" />
      </g>
      <g
         id="g1968">
        <path
           id="path1962"
           style="fill:#00886a"
           d="m 206.65116,82.48248 a 0.49626,0.49626 0 0 1 -0.28271,-0.0879 18.92438,18.92438 0 1 1 21.4331,-0.0078 0.50032,0.50032 0 0 1 -0.56738,-0.82422 17.92522,17.92522 0 1 0 -20.29932,0.0078 0.5,0.5 0 0 1 -0.28369,0.91211 z" />
        <path
           id="path1964"
           style="fill:#00886a"
           d="m 207.44474,80.65975 a 1.5039,1.5039 0 1 1 -2.08609,0.41429 1.50406,1.50406 0 0 1 2.08609,-0.41429 z" />
        <circle
           id="circle1966"
           style="fill:#00886a"
           r="1.5039099"
           cy="81.903229"
           cx="227.55824" />
      </g>
      <g
         id="g1974">
        <line
           id="line1970"
           style="fill:none;stroke:#00886a;stroke-width:1.4px;stroke-miterlimit:10"
           y2="320.95245"
           x2="64.876419"
           y1="320.95245"
           x1="59.941059" />
        <polygon
           id="polygon1972"
           style="fill:#00886a"
           points="64.463,320.952 62.088,318.579 64.103,318.579 66.477,320.952 64.103,323.326 62.088,323.326 " />
      </g>
      <circle
         id="circle1976"
         style="fill:none;stroke:#00886a;stroke-miterlimit:10"
         r="13.63575"
         cy="320.95248"
         cx="46.305309" />
      <g
         id="g1982">
        <line
           id="line1978"
           style="fill:none;stroke:#00886a;stroke-width:1.4px;stroke-miterlimit:10"
           y2="270.03784"
           x2="64.876419"
           y1="270.03784"
           x1="59.941059" />
        <polygon
           id="polygon1980"
           style="fill:#00886a"
           points="64.463,270.038 62.088,267.664 64.103,267.664 66.477,270.038 64.103,272.411 62.088,272.411 " />
      </g>
      <circle
         id="circle1984"
         style="fill:none;stroke:#00886a;stroke-miterlimit:10"
         r="13.63575"
         cy="270.03787"
         cx="46.305309" />
      <g
         id="g1990">
        <line
           id="line1986"
           style="fill:none;stroke:#00886a;stroke-width:1.4px;stroke-miterlimit:10"
           y2="219.12323"
           x2="64.876419"
           y1="219.12323"
           x1="59.941059" />
        <polygon
           id="polygon1988"
           style="fill:#00886a"
           points="64.463,219.123 62.088,216.75 64.103,216.75 66.477,219.123 64.103,221.497 62.088,221.497 " />
      </g>
      <circle
         id="circle1992"
         style="fill:none;stroke:#00886a;stroke-miterlimit:10"
         r="13.63575"
         cy="219.12326"
         cx="46.305309" />
      <g
         id="g1998">
        <line
           id="line1994"
           style="fill:none;stroke:#00886a;stroke-width:1.4px;stroke-miterlimit:10"
           y2="168.20868"
           x2="64.876419"
           y1="168.20868"
           x1="59.941059" />
        <polygon
           id="polygon1996"
           style="fill:#00886a"
           points="64.463,168.209 62.088,165.835 64.103,165.835 66.477,168.209 64.103,170.582 62.088,170.582 " />
      </g>
      <circle
         id="circle2000"
         style="fill:none;stroke:#00886a;stroke-miterlimit:10"
         r="13.63575"
         cy="168.20865"
         cx="46.305309" />
      <circle
         id="circle2002"
         style="fill:none;stroke:#00886a;stroke-miterlimit:10"
         r="13.63575"
         cy="117.29405"
         cx="64.857101" />
      <circle
         id="circle2004"
         style="fill:none;stroke:#00886a;stroke-miterlimit:10"
         r="13.63575"
         cy="66.37944"
         cx="64.857101" />
      <g
         id="g2012">
        <path
           id="path2006"
           style="fill:#00886a"
           d="m 524.88317,279.674 a 0.659,0.659 0 0 1 -0.37532,-0.11668 25.12325,25.12325 0 1 1 28.45372,-0.0104 0.6642,0.6642 0 0 1 -0.75323,-1.0942 23.7968,23.7968 0 1 0 -26.94855,0.0104 0.66379,0.66379 0 0 1 -0.37662,1.21088 z" />
        <path
           id="path2008"
           style="fill:#00886a"
           d="m 525.9367,277.25422 a 1.99652,1.99652 0 1 1 -2.76941,0.55 1.99674,1.99674 0 0 1 2.76941,-0.55 z" />
        <circle
           id="circle2010"
           style="fill:#00886a"
           r="1.9965301"
           cy="278.905"
           cx="552.63855" />
      </g>
    </g>
  </g>
</svg>
