<?xml version="1.0" encoding="UTF-8" standalone="no"?>
<svg
   xmlns:dc="http://purl.org/dc/elements/1.1/"
   xmlns:cc="http://creativecommons.org/ns#"
   xmlns:rdf="http://www.w3.org/1999/02/22-rdf-syntax-ns#"
   xmlns:svg="http://www.w3.org/2000/svg"
   xmlns="http://www.w3.org/2000/svg"
   xmlns:sodipodi="http://sodipodi.sourceforge.net/DTD/sodipodi-0.dtd"
   xmlns:inkscape="http://www.inkscape.org/namespaces/inkscape"
   inkscape:version="1.0 (4035a4f, 2020-05-01)"
   sodipodi:docname="Nova.svg"
   id="svg1453"
   version="1.1"
   viewBox="0 0 213.36001 128.5"
   height="128.5mm"
   width="213.36mm">
  <metadata
     id="metadata1459">
    <rdf:RDF>
      <cc:Work
         rdf:about="">
        <dc:format>image/svg+xml</dc:format>
        <dc:type
           rdf:resource="http://purl.org/dc/dcmitype/StillImage" />
        <dc:title>Nova</dc:title>
      </cc:Work>
    </rdf:RDF>
  </metadata>
  <defs
     id="defs1457" />
  <sodipodi:namedview
     inkscape:document-units="mm"
     inkscape:current-layer="layer6"
     inkscape:window-maximized="1"
     inkscape:window-y="22"
     inkscape:window-x="0"
     inkscape:cy="197.53958"
     inkscape:cx="424.96504"
     inkscape:zoom="1.310389"
     showgrid="false"
     id="namedview1455"
     inkscape:window-height="1152"
     inkscape:window-width="1920"
     inkscape:pageshadow="2"
     inkscape:pageopacity="0"
     guidetolerance="10"
     gridtolerance="10"
     objecttolerance="10"
     borderopacity="1"
     bordercolor="#666666"
     pagecolor="#ffffff"
     inkscape:document-rotation="0" />
  <title
     id="title833">Nova</title>
  <g
     style="display:inline"
     inkscape:label="BG"
     id="layer1"
     inkscape:groupmode="layer">
    <g
       transform="scale(0.35277776)"
       id="1b4425ac-4f7d-4fea-bcf0-a7cc3e0cf5b3"
       data-name="BG">
      <rect
         width="604.79999"
         height="364.25198"
         style="fill:#2a2d30"
         id="rect835"
         x="0"
         y="0" />
    </g>
  </g>
  <g
     style="display:inline"
     inkscape:label="Text"
     id="layer2"
     inkscape:groupmode="layer">
    <g
       transform="scale(0.35277776)"
       id="d1b639a1-d79f-4298-88ea-9883f596c00b"
       data-name="Text">
      <g
         id="g874">
        <path
           d="m 531.39045,222.54267 c 1.54,0 2.51953,0.94629 2.32129,2.39844 a 2.86605,2.86605 0 0 1 -3.0586,2.38769 h -1.02246 l -0.49511,2.915 h -1.27637 l 1.29785,-7.70117 z m -1.13281,1.14453 -0.42969,2.49707 h 0.93555 a 1.59154,1.59154 0 0 0 1.69433,-1.24316 c 0.13184,-0.78125 -0.374,-1.25391 -1.18848,-1.25391 z"
           style="fill:#d7d7d7"
           id="path864" />
        <path
           d="m 536.06525,225.18329 -0.8584,5.06055 h -1.166 l 0.84766,-5.06055 z m -0.24218,-2.72851 a 0.716,0.716 0 1 1 -0.74805,0.71484 0.72177,0.72177 0 0 1 0.74805,-0.71484 z"
           style="fill:#d7d7d7"
           id="path866" />
        <path
           d="m 537.75959,225.18329 0.29687,-1.75976 h 1.17676 l -0.30762,1.75976 h 0.83594 l -0.1875,1.04492 h -0.82519 l -0.7041,4.01563 h -1.14356 l 0.68164,-4.01563 h -0.81348 l 0.18653,-1.04492 z"
           style="fill:#d7d7d7"
           id="path868" />
        <path
           d="m 542.13752,229.32 a 2.33443,2.33443 0 0 0 1.77051,-0.83594 l -0.18653,1.29786 a 2.7269,2.7269 0 0 1 -1.71679,0.57226 2.2466,2.2466 0 0 1 -2.30957,-2.64062 3.06456,3.06456 0 0 1 3.04687,-2.64063 2.40184,2.40184 0 0 1 1.60645,0.57227 l -0.18653,1.30957 a 1.55529,1.55529 0 0 0 -1.45312,-0.84766 1.87222,1.87222 0 0 0 -1.80371,1.60645 1.28716,1.28716 0 0 0 1.23242,1.60644 z"
           style="fill:#d7d7d7"
           id="path870" />
        <path
           d="m 547.79084,226.04169 a 1.34412,1.34412 0 0 0 -1.29785,1.07813 l -0.53906,3.124 h -1.18848 l 1.47461,-8.58105 h 1.1875 l -0.72559,4.2246 a 1.87993,1.87993 0 0 1 1.5625,-0.83593 c 1.14356,0 1.55078,0.84668 1.40821,1.94726 l -0.56153,3.24512 h -1.17676 l 0.54981,-3.08008 c 0.0654,-0.59374 -0.0547,-1.10056 -0.69336,-1.12205 z"
           style="fill:#d7d7d7"
           id="path872" />
      </g>
      <g
         id="g890">
        <path
           d="m 524.35529,149.46845 a 2.08708,2.08708 0 0 1 2.333,2.39844 2.73732,2.73732 0 0 1 -2.06836,2.25488 l 1.584,3.04785 h -1.4961 l -1.39746,-2.916 h -0.76953 l -0.49512,2.916 h -1.27637 l 1.29786,-7.70117 z m -1.1875,1.13281 -0.44043,2.57422 h 0.94629 a 1.598,1.598 0 0 0 1.69434,-1.28711 1.06431,1.06431 0 0 0 -1.18848,-1.28711 z"
           style="fill:#d7d7d7"
           id="path876" />
        <path
           d="m 527.08283,154.96943 a 2.944,2.944 0 0 1 2.9707,-2.97071 1.99969,1.99969 0 0 1 2.17872,2.22266 2.45232,2.45232 0 0 1 -0.1211,0.69238 h -3.83984 c -0.0225,0.81445 0.374,1.38672 1.18847,1.38672 a 1.77574,1.77574 0 0 0 1.47364,-0.80371 l 0.99023,0.40723 a 2.9075,2.9075 0 0 1 -2.56347,1.375 2.13428,2.13428 0 0 1 -2.27735,-2.30957 z m 1.33106,-0.88086 h 2.59668 v -0.0215 c 0,-0.72656 -0.35157,-1.166 -1.05567,-1.166 a 1.62721,1.62721 0 0 0 -1.54101,1.18749 z"
           style="fill:#d7d7d7"
           id="path878" />
        <path
           d="m 535.39924,148.58857 -1.48438,8.58105 h -1.15527 l 1.45215,-8.58105 z"
           style="fill:#d7d7d7"
           id="path880" />
        <path
           d="m 535.44221,154.96943 a 2.944,2.944 0 0 1 2.9707,-2.97071 1.99968,1.99968 0 0 1 2.17871,2.22266 2.4527,2.4527 0 0 1 -0.12109,0.69238 h -3.83985 c -0.0225,0.81445 0.374,1.38672 1.18848,1.38672 a 1.77574,1.77574 0 0 0 1.47363,-0.80371 l 0.99024,0.40723 a 2.9075,2.9075 0 0 1 -2.56348,1.375 2.13428,2.13428 0 0 1 -2.27734,-2.30957 z m 1.33105,-0.88086 h 2.59668 v -0.0215 c 0,-0.72656 -0.35156,-1.166 -1.05566,-1.166 a 1.62721,1.62721 0 0 0 -1.54102,1.18749 z"
           style="fill:#d7d7d7"
           id="path882" />
        <path
           d="m 543.97932,151.99872 a 1.58358,1.58358 0 0 1 1.55078,1.09961 l 0.165,-0.98926 h 1.166 l -0.87988,5.06055 h -1.13281 l 0.14257,-0.84766 a 2.27173,2.27173 0 0 1 -1.82617,0.957 2.112,2.112 0 0 1 -2.00195,-2.63965 2.95486,2.95486 0 0 1 2.81646,-2.64059 z m -0.44043,4.2461 a 1.86248,1.86248 0 0 0 1.69433,-1.60547 c 0.11035,-0.84766 -0.30762,-1.585 -1.07812,-1.60645 a 1.86325,1.86325 0 0 0 -1.78223,1.60645 c -0.13187,0.85742 0.30762,1.60547 1.16602,1.60547 z"
           style="fill:#d7d7d7"
           id="path884" />
        <path
           d="m 549.41291,156.35517 a 0.636,0.636 0 0 0 0.70312,-0.59375 c 0.0117,-0.44043 -0.48339,-0.6709 -0.96777,-0.8584 -0.61621,-0.24219 -1.26465,-0.60547 -1.24316,-1.46289 a 1.59066,1.59066 0 0 1 1.78222,-1.44141 2.354,2.354 0 0 1 1.85938,0.89063 l -0.66016,0.69336 a 1.675,1.675 0 0 0 -1.21,-0.68164 c -0.39648,0 -0.66015,0.19726 -0.66015,0.48339 -0.0225,0.39649 0.418,0.56153 0.92382,0.77051 0.74805,0.31934 1.36426,0.66016 1.34278,1.54 a 1.714,1.714 0 0 1 -1.85938,1.62793 2.74474,2.74474 0 0 1 -2.21191,-1.12207 l 0.748,-0.68164 a 1.9432,1.9432 0 0 0 1.45321,0.83598 z"
           style="fill:#d7d7d7"
           id="path886" />
        <path
           d="m 551.97541,154.96943 a 2.944,2.944 0 0 1 2.9707,-2.97071 1.99968,1.99968 0 0 1 2.17871,2.22266 2.45234,2.45234 0 0 1 -0.12109,0.69238 h -3.83984 c -0.0225,0.81445 0.374,1.38672 1.18847,1.38672 a 1.77574,1.77574 0 0 0 1.47364,-0.80371 l 0.99023,0.40723 a 2.9075,2.9075 0 0 1 -2.56348,1.375 2.13428,2.13428 0 0 1 -2.27734,-2.30957 z m 1.33105,-0.88086 h 2.59668 v -0.0215 c 0,-0.72656 -0.35156,-1.166 -1.05566,-1.166 a 1.62722,1.62722 0 0 0 -1.54102,1.18749 z"
           style="fill:#d7d7d7"
           id="path888" />
      </g>
      <g
         id="g904">
        <path
           d="m 528.90412,82.05829 h -2.751 l -1.18847,1.98047 h -1.48438 l 5.082,-8.14062 2.25586,8.14062 H 529.41 Z M 526.703,80.95868 h 2.02441 l -0.59375,-2.44238 z"
           style="fill:#d7d7d7"
           id="path892" />
        <path
           d="m 532.578,78.97821 0.29687,-1.75976 h 1.17676 l -0.30762,1.75976 h 0.83594 l -0.1875,1.04493 h -0.82519 l -0.70411,4.01562 h -1.14355 l 0.68164,-4.01562 h -0.81348 l 0.18653,-1.04493 z"
           style="fill:#d7d7d7"
           id="path894" />
        <path
           d="m 535.45978,78.97821 0.29688,-1.75976 h 1.17676 l -0.30762,1.75976 h 0.83594 l -0.1875,1.04493 h -0.8252 l -0.7041,4.01562 h -1.14355 l 0.68164,-4.01562 h -0.81348 l 0.18652,-1.04493 z"
           style="fill:#d7d7d7"
           id="path896" />
        <path
           d="m 540.21174,78.86786 a 1.5844,1.5844 0 0 1 1.55078,1.10059 l 0.165,-0.99024 h 1.166 l -0.87988,5.06055 h -1.13281 l 0.14258,-0.84668 a 2.27175,2.27175 0 0 1 -1.82618,0.957 2.11246,2.11246 0 0 1 -2.002,-2.64062 2.95487,2.95487 0 0 1 2.81651,-2.6406 z m -0.44043,4.24707 a 1.8625,1.8625 0 0 0 1.69433,-1.60644 c 0.11036,-0.84668 -0.30761,-1.584 -1.07812,-1.60645 a 1.86415,1.86415 0 0 0 -1.78223,1.60645 c -0.13183,0.8584 0.30762,1.60644 1.16602,1.60644 z"
           style="fill:#d7d7d7"
           id="path898" />
        <path
           d="m 546.10725,83.11493 a 2.33439,2.33439 0 0 0 1.7705,-0.83593 l -0.18652,1.29785 a 2.72685,2.72685 0 0 1 -1.7168,0.57226 2.2466,2.2466 0 0 1 -2.30957,-2.64062 3.06458,3.06458 0 0 1 3.04688,-2.64063 2.40187,2.40187 0 0 1 1.60644,0.57227 l -0.18652,1.30957 a 1.5553,1.5553 0 0 0 -1.45313,-0.84766 1.87223,1.87223 0 0 0 -1.80371,1.60645 1.28717,1.28717 0 0 0 1.23243,1.60644 z"
           style="fill:#d7d7d7"
           id="path900" />
        <path
           d="m 553.97248,78.97821 -2.55273,2.15625 1.83691,2.9043 h -1.36426 l -1.59472,-2.57422 -0.44043,2.57422 h -1.14356 l 1.45215,-8.581 h 1.166 l -0.90234,5.248 2.0459,-1.72754 z"
           style="fill:#d7d7d7"
           id="path902" />
      </g>
      <g
         id="g912">
        <path
           d="m 138.72834,308.87177 a 3.26915,3.26915 0 0 1 3.25684,3.98242 4.68358,4.68358 0 0 1 -4.53223,4.01563 3.29618,3.29618 0 0 1 -3.25684,-4.01563 4.6806,4.6806 0 0 1 4.53223,-3.98242 z m -1.14356,6.71094 a 3.176,3.176 0 0 0 3.03614,-2.72852 c 0.2207,-1.4082 -0.48438,-2.71777 -2.02442,-2.72851 a 3.176,3.176 0 0 0 -3.03613,2.72851 2.1393,2.1393 0 0 0 2.02441,2.72852 z"
           style="fill:#d7d7d7"
           id="path906" />
        <path
           d="m 144.64631,315.84638 a 1.285,1.285 0 0 0 1.29785,-1.07813 l 0.5498,-3.124 h 1.17774 l -0.86914,5.06055 h -1.18848 l 0.1211,-0.74805 a 1.84812,1.84812 0 0 1 -1.5625,0.85742 c -1.14356,0 -1.57325,-0.89062 -1.419,-1.958 l 0.5498,-3.21191 h 1.18852 l -0.52832,3.08008 c -0.0771,0.59372 0.044,1.12204 0.68263,1.12204 z"
           style="fill:#d7d7d7"
           id="path908" />
        <path
           d="m 149.24494,311.64423 0.29688,-1.76074 h 1.17675 l -0.30761,1.76074 h 0.83593 l -0.1875,1.04492 h -0.82519 l -0.7041,4.01563 h -1.14356 l 0.68164,-4.01563 h -0.81347 l 0.18652,-1.04492 z"
           style="fill:#d7d7d7"
           id="path910" />
      </g>
      <g
         id="g928">
        <path
           d="m 118.30158,253.72919 h 5.23731 l -0.209,1.19922 h -1.96972 l -1.11133,6.50195 H 118.951 l 1.12207,-6.50195 h -1.98047 z"
           style="fill:#d7d7d7"
           id="path914" />
        <path
           d="m 124.83674,257.37079 c -0.53906,-0.0117 -0.86914,0.43946 -1.0127,0.957 l -0.53906,3.10254 h -1.166 l 0.87989,-5.06054 h 1.167 l -0.0996,0.57129 a 1.64347,1.64347 0 0 1 1.19922,-0.68165 1.21923,1.21923 0 0 1 0.87988,0.39551 l -0.7041,0.99024 a 0.91067,0.91067 0 0 0 -0.60452,-0.27439 z"
           style="fill:#d7d7d7"
           id="path916" />
        <path
           d="m 128.23518,256.36982 -0.8584,5.06054 h -1.166 l 0.84766,-5.06054 z m -0.24219,-2.72852 a 0.71558,0.71558 0 1 1 -0.74805,0.71484 0.72116,0.72116 0 0 1 0.74806,-0.71484 z"
           style="fill:#d7d7d7"
           id="path918" />
        <path
           d="m 129.73127,261.78193 a 1.0651,1.0651 0 0 0 1.166,1.18847 1.81494,1.81494 0 0 0 1.73829,-1.65039 l 0.12109,-0.7041 a 2.282,2.282 0 0 1 -1.77148,0.8584 2.08151,2.08151 0 0 1 -2.002,-2.59668 2.942,2.942 0 0 1 2.81641,-2.61817 1.58645,1.58645 0 0 1 1.54,1.03418 l 0.15429,-0.92382 h 1.14356 l -0.83594,4.95019 a 2.9342,2.9342 0 0 1 -2.92676,2.68457 2.0338,2.0338 0 0 1 -2.28808,-2.2334 z m 1.62793,-1.3418 a 1.82133,1.82133 0 0 0 1.66113,-1.375 l 0.0557,-0.27539 a 1.24172,1.24172 0 0 0 -1.10059,-1.4961 1.82558,1.82558 0 0 0 -1.78223,1.584 1.21368,1.21368 0 0 0 1.16602,1.56249 z"
           style="fill:#d7d7d7"
           id="path920" />
        <path
           d="m 135.97932,261.78193 a 1.06509,1.06509 0 0 0 1.166,1.18847 1.81492,1.81492 0 0 0 1.73828,-1.65039 l 0.1211,-0.7041 a 2.282,2.282 0 0 1 -1.77149,0.8584 2.08151,2.08151 0 0 1 -2.00195,-2.59668 2.942,2.942 0 0 1 2.81641,-2.61817 1.58644,1.58644 0 0 1 1.54,1.03418 l 0.1543,-0.92382 h 1.14356 l -0.83594,4.95019 a 2.9342,2.9342 0 0 1 -2.92676,2.68457 2.03381,2.03381 0 0 1 -2.28809,-2.2334 z m 1.62793,-1.3418 a 1.82134,1.82134 0 0 0 1.66113,-1.375 l 0.0557,-0.27539 a 1.24172,1.24172 0 0 0 -1.10058,-1.4961 1.82557,1.82557 0 0 0 -1.78223,1.584 1.21367,1.21367 0 0 0 1.16602,1.56249 z"
           style="fill:#d7d7d7"
           id="path922" />
        <path
           d="m 141.49982,259.23017 a 2.944,2.944 0 0 1 2.97071,-2.97071 1.99969,1.99969 0 0 1 2.17871,2.22266 2.45232,2.45232 0 0 1 -0.1211,0.69238 h -3.83984 c -0.0225,0.81446 0.374,1.38672 1.18848,1.38672 a 1.77571,1.77571 0 0 0 1.47363,-0.80371 l 0.99023,0.40723 a 2.90748,2.90748 0 0 1 -2.56347,1.375 2.13428,2.13428 0 0 1 -2.27735,-2.30957 z m 1.33106,-0.88086 h 2.59668 v -0.0215 c 0,-0.72656 -0.35156,-1.166 -1.05567,-1.166 a 1.62722,1.62722 0 0 0 -1.54101,1.18749 z"
           style="fill:#d7d7d7"
           id="path924" />
        <path
           d="m 149.87189,257.37079 c -0.53906,-0.0117 -0.86914,0.43946 -1.01269,0.957 l -0.53906,3.10254 h -1.166 l 0.87988,-5.06054 h 1.167 l -0.0996,0.57129 a 1.64344,1.64344 0 0 1 1.19921,-0.68165 1.21925,1.21925 0 0 1 0.87989,0.39551 l -0.7041,0.99024 a 0.91072,0.91072 0 0 0 -0.60452,-0.27439 z"
           style="fill:#d7d7d7"
           id="path926" />
      </g>
      <g
         id="g944">
        <path
           d="m 118.534,192.43134 a 2.08708,2.08708 0 0 1 2.333,2.39844 2.73732,2.73732 0 0 1 -2.06836,2.25488 l 1.584,3.04785 h -1.4961 l -1.39746,-2.916 h -0.76953 l -0.49512,2.916 h -1.27636 l 1.29785,-7.70117 z m -1.1875,1.13281 -0.44043,2.57422 h 0.94629 a 1.598,1.598 0 0 0 1.69434,-1.28711 1.06431,1.06431 0 0 0 -1.18848,-1.28711 z"
           style="fill:#d7d7d7"
           id="path930" />
        <path
           d="m 121.26154,197.93232 a 2.94457,2.94457 0 0 1 2.97071,-2.97071 1.99969,1.99969 0 0 1 2.17871,2.22266 2.45232,2.45232 0 0 1 -0.1211,0.69238 H 122.45 c -0.0225,0.81446 0.374,1.38672 1.18848,1.38672 a 1.77571,1.77571 0 0 0 1.47363,-0.80371 l 0.99023,0.40723 a 2.9075,2.9075 0 0 1 -2.56347,1.375 2.13428,2.13428 0 0 1 -2.27733,-2.30957 z m 1.33106,-0.88086 h 2.59668 V 197.03 c 0,-0.72656 -0.35157,-1.166 -1.05567,-1.166 a 1.62722,1.62722 0 0 0 -1.54101,1.18746 z"
           style="fill:#d7d7d7"
           id="path932" />
        <path
           d="m 128.18146,195.072 0.76954,3.23438 1.78222,-3.23438 h 1.29883 l -3.41113,5.544 -1.70508,-5.544 z"
           style="fill:#d7d7d7"
           id="path934" />
        <path
           d="m 131.72248,197.93232 a 2.94456,2.94456 0 0 1 2.9707,-2.97071 1.99969,1.99969 0 0 1 2.17871,2.22266 2.45234,2.45234 0 0 1 -0.12109,0.69238 h -3.8398 c -0.0225,0.81446 0.374,1.38672 1.18847,1.38672 a 1.77571,1.77571 0 0 0 1.47364,-0.80371 l 0.99023,0.40723 a 2.9075,2.9075 0 0 1 -2.56348,1.375 2.13428,2.13428 0 0 1 -2.27738,-2.30957 z m 1.33105,-0.88086 h 2.59668 V 197.03 c 0,-0.72656 -0.35156,-1.166 -1.05566,-1.166 a 1.62723,1.62723 0 0 0 -1.54102,1.18746 z"
           style="fill:#d7d7d7"
           id="path936" />
        <path
           d="m 140.09455,196.07294 c -0.53906,-0.0117 -0.86914,0.43945 -1.0127,0.957 l -0.53906,3.10254 h -1.166 l 0.87988,-5.06055 h 1.166 l -0.0986,0.57129 a 1.64346,1.64346 0 0 1 1.19922,-0.68164 1.21921,1.21921 0 0 1 0.87988,0.39551 l -0.7041,0.99024 a 0.91067,0.91067 0 0 0 -0.60448,-0.27439 z"
           style="fill:#d7d7d7"
           id="path938" />
        <path
           d="m 143.38166,199.31806 a 0.63728,0.63728 0 0 0 0.70508,-0.59375 c 0.0107,-0.44043 -0.48438,-0.6709 -0.96875,-0.8584 -0.61621,-0.24219 -1.26465,-0.60547 -1.24317,-1.46289 a 1.59067,1.59067 0 0 1 1.78223,-1.44141 2.354,2.354 0 0 1 1.85938,0.89063 l -0.66016,0.69336 a 1.675,1.675 0 0 0 -1.21,-0.68164 c -0.39649,0 -0.66016,0.19726 -0.66016,0.4834 -0.0225,0.39648 0.418,0.56152 0.92383,0.7705 0.74805,0.31934 1.36426,0.66016 1.34277,1.54 a 1.71394,1.71394 0 0 1 -1.85937,1.62793 2.74476,2.74476 0 0 1 -2.21192,-1.12207 l 0.74805,-0.68164 a 1.94306,1.94306 0 0 0 1.45219,0.83598 z"
           style="fill:#d7d7d7"
           id="path940" />
        <path
           d="m 145.94514,197.93232 a 2.94456,2.94456 0 0 1 2.9707,-2.97071 1.99969,1.99969 0 0 1 2.17871,2.22266 2.4527,2.4527 0 0 1 -0.12109,0.69238 h -3.83985 c -0.0225,0.81446 0.374,1.38672 1.18848,1.38672 a 1.77571,1.77571 0 0 0 1.47363,-0.80371 l 0.99024,0.40723 a 2.9075,2.9075 0 0 1 -2.56348,1.375 2.13428,2.13428 0 0 1 -2.27734,-2.30957 z m 1.33105,-0.88086 h 2.59668 V 197.03 c 0,-0.72656 -0.35156,-1.166 -1.05566,-1.166 a 1.62722,1.62722 0 0 0 -1.54102,1.18746 z"
           style="fill:#d7d7d7"
           id="path942" />
      </g>
      <g
         id="g954">
        <path
           d="m 133.76838,155.45575 a 1.30452,1.30452 0 0 0 1.39648,-1.18847 c 0.0225,-0.74805 -0.61523,-0.99024 -1.38574,-1.3418 a 2.35888,2.35888 0 0 1 -1.70508,-2.13477 2.39054,2.39054 0 0 1 2.585,-2.15625 2.48889,2.48889 0 0 1 2.40918,1.66114 l -1.0664,0.56152 a 1.54522,1.54522 0 0 0 -1.47461,-1.06738 0.98843,0.98843 0 0 0 -1.12207,0.91308 c -0.0332,0.61622 0.583,0.99024 1.45215,1.33106 a 2.21586,2.21586 0 0 1 1.65039,2.14551 2.71557,2.71557 0 0 1 -2.80567,2.45312 2.85763,2.85763 0 0 1 -2.67285,-1.96875 l 0.98926,-0.68262 c 0.3857,0.86915 0.8691,1.47461 1.74996,1.47461 z"
           style="fill:#d7d7d7"
           id="path946" />
        <path
           d="m 142.45881,151.40693 -2.55274,2.15625 1.83692,2.90429 h -1.36426 l -1.59473,-2.57422 -0.44043,2.57422 H 137.2 l 1.45215,-8.58105 h 1.166 l -0.90234,5.248 2.0459,-1.72753 z"
           style="fill:#d7d7d7"
           id="path948" />
        <path
           d="m 144.64631,151.40693 -0.8584,5.06054 h -1.166 l 0.84766,-5.06054 z m -0.24219,-2.72852 a 0.716,0.716 0 1 1 -0.74805,0.71484 0.72177,0.72177 0 0 1 0.74805,-0.71484 z"
           style="fill:#d7d7d7"
           id="path950" />
        <path
           d="m 144.866,158.88837 1.29786,-7.48144 h 1.166 l -0.13183,0.81445 a 2.21575,2.21575 0 0 1 1.79394,-0.94629 2.11112,2.11112 0 0 1 1.99121,2.66211 2.9467,2.9467 0 0 1 -2.8164,2.66211 1.55232,1.55232 0 0 1 -1.5293,-1.07813 l -0.56152,3.36719 z m 3.74024,-6.53516 a 1.8413,1.8413 0 0 0 -1.69434,1.584 c -0.10937,0.84766 0.31934,1.5625 1.07813,1.584 a 1.84221,1.84221 0 0 0 1.78222,-1.584 1.23069,1.23069 0 0 0 -1.16598,-1.584 z"
           style="fill:#d7d7d7"
           id="path952" />
      </g>
      <g
         id="g964">
        <path
           d="m 129.19221,112.80341 h -1.34278 l 2.4209,-8.09668 2.15625,5.21484 4.00391,-5.25878 -0.374,8.14062 h -1.32031 l 0.28613,-4.63184 -2.92578,3.92774 -1.585,-3.98242 z"
           style="fill:#d7d7d7"
           id="path956" />
        <path
           d="m 139.38947,111.946 a 1.285,1.285 0 0 0 1.29785,-1.0791 l 0.54981,-3.124 h 1.17773 l -0.86914,5.06055 h -1.18847 l 0.12109,-0.74805 a 1.84672,1.84672 0 0 1 -1.5625,0.8584 c -1.14356,0 -1.57324,-0.8916 -1.41895,-1.958 l 0.54981,-3.21289 h 1.18848 l -0.52833,3.08008 c -0.0771,0.59468 0.0439,1.12301 0.68262,1.12301 z"
           style="fill:#d7d7d7"
           id="path958" />
        <path
           d="m 143.98713,107.74286 0.29687,-1.75976 h 1.17676 l -0.30762,1.75976 h 0.83594 l -0.1875,1.04493 h -0.82519 l -0.70411,4.01562 h -1.14355 l 0.68164,-4.01562 h -0.81348 l 0.18653,-1.04493 z"
           style="fill:#d7d7d7"
           id="path960" />
        <path
           d="m 145.94416,110.60321 a 2.94456,2.94456 0 0 1 2.9707,-2.9707 2.00012,2.00012 0 0 1 2.17871,2.22266 2.45972,2.45972 0 0 1 -0.12109,0.69336 h -3.83984 c -0.0225,0.81347 0.374,1.38574 1.18847,1.38574 a 1.77483,1.77483 0 0 0 1.47364,-0.80273 l 0.99023,0.40722 a 2.90748,2.90748 0 0 1 -2.56348,1.375 2.135,2.135 0 0 1 -2.27734,-2.31055 z m 1.331,-0.87988 h 2.59668 v -0.0225 c 0,-0.72558 -0.35156,-1.166 -1.05566,-1.166 a 1.62814,1.62814 0 0 0 -1.54097,1.18846 z"
           style="fill:#d7d7d7"
           id="path962" />
      </g>
      <g
         id="g974">
        <path
           d="M 132.6131,63.236 H 136.2 c -0.33008,2.18945 -1.84863,4.1914 -4.3125,4.1914 a 3.29638,3.29638 0 0 1 -3.30078,-4.01562 4.662,4.662 0 0 1 4.58789,-3.98242 3.17126,3.17126 0 0 1 2.9707,1.71679 l -1.13379,0.70313 a 2.03672,2.03672 0 0 0 -1.958,-1.21 3.25135,3.25135 0 0 0 -3.11328,2.77246 c -0.2207,1.47461 0.53907,2.79492 2.0791,2.79492 A 2.86044,2.86044 0 0 0 134.66,64.33564 h -2.24414 z"
           style="fill:#d7d7d7"
           id="path966" />
        <path
           d="m 139.56525,62.0915 a 1.58473,1.58473 0 0 1 1.55078,1.09961 l 0.165,-0.98926 h 1.166 l -0.87988,5.06054 h -1.13282 l 0.14258,-0.84668 a 2.27577,2.27577 0 0 1 -1.82617,0.957 2.11284,2.11284 0 0 1 -2.00195,-2.64063 2.95485,2.95485 0 0 1 2.81646,-2.64058 z m -0.44043,4.24609 a 1.86152,1.86152 0 0 0 1.69434,-1.60547 c 0.11035,-0.84766 -0.30762,-1.584 -1.07813,-1.60644 a 1.86323,1.86323 0 0 0 -1.78222,1.60644 c -0.13181,0.85742 0.30762,1.60547 1.16601,1.60547 z"
           style="fill:#d7d7d7"
           id="path968" />
        <path
           d="m 145.1092,62.20185 -0.8584,5.06054 h -1.166 l 0.84766,-5.06054 z m -0.24219,-2.72852 a 0.71605,0.71605 0 1 1 -0.74805,0.71485 0.72117,0.72117 0 0 1 0.74804,-0.71485 z"
           style="fill:#d7d7d7"
           id="path970" />
        <path
           d="m 148.80549,63.06025 a 1.28291,1.28291 0 0 0 -1.28711,1.08886 l -0.53906,3.11328 h -1.18848 l 0.87988,-5.06054 h 1.17774 l -0.1211,0.748 a 1.83307,1.83307 0 0 1 1.5625,-0.85839 c 1.1543,0 1.584,0.88086 1.42969,1.959 l -0.5498,3.21191 h -1.21 l 0.54981,-3.081 c 0.0772,-0.59378 -0.0439,-1.12112 -0.70407,-1.12112 z"
           style="fill:#d7d7d7"
           id="path972" />
      </g>
      <g
         id="g980">
        <path
           d="M 63.63654,40.24286 62.29475,47.944 H 61.0174 l 1.29883,-7.70118 z"
           style="fill:#d7d7d7"
           id="path976" />
        <path
           d="m 66.84748,43.74189 a 1.28365,1.28365 0 0 0 -1.28711,1.08886 L 65.02131,47.944 h -1.1875 l 0.8789,-5.06055 h 1.17774 l -0.1211,0.748 a 1.83429,1.83429 0 0 1 1.5625,-0.8584 c 1.1543,0 1.584,0.88086 1.42969,1.959 L 68.21271,47.944 h -1.21093 l 0.55078,-3.08106 c 0.07617,-0.59371 -0.04492,-1.12105 -0.70508,-1.12105 z"
           style="fill:#d7d7d7"
           id="path978" />
      </g>
      <g
         id="g992">
        <path
           d="M 55.56135,97.60614 A 3.75152,3.75152 0 0 0 58.11408,96.528 l -0.23144,1.54 a 4.06881,4.06881 0 0 1 -2.49707,0.81348 3.27934,3.27934 0 0 1 -3.25684,-3.98243 4.6604,4.6604 0 0 1 4.5332,-3.98242 3.2013,3.2013 0 0 1 2.28809,0.81445 l -0.24219,1.55079 a 2.488,2.488 0 0 0 -2.13476,-1.08887 3.22069,3.22069 0 0 0 -3.05762,2.706 2.1663,2.1663 0 0 0 2.0459,2.70714 z"
           style="fill:#d7d7d7"
           id="path982" />
        <path
           d="M 61.83088,90.16864 60.3465,98.7497 h -1.15527 l 1.45215,-8.58106 z"
           style="fill:#d7d7d7"
           id="path984" />
        <path
           d="m 64.95588,93.5788 a 2.23189,2.23189 0 0 1 2.28812,2.64063 3.07145,3.07145 0 0 1 -3.03613,2.64062 2.23716,2.23716 0 0 1 -2.28906,-2.64062 3.0717,3.0717 0 0 1 3.03707,-2.64063 z m -0.66016,4.22461 a 1.83268,1.83268 0 0 0 1.73828,-1.584 1.255,1.255 0 0 0 -1.17773,-1.584 1.83188,1.83188 0 0 0 -1.73828,1.584 1.255,1.255 0 0 0 1.17773,1.584 z"
           style="fill:#d7d7d7"
           id="path986" />
        <path
           d="m 70.30158,97.82587 a 2.33442,2.33442 0 0 0 1.77051,-0.83594 l -0.18652,1.29786 a 2.72691,2.72691 0 0 1 -1.7168,0.57226 2.2466,2.2466 0 0 1 -2.30957,-2.64062 3.06456,3.06456 0 0 1 3.04687,-2.64063 2.40184,2.40184 0 0 1 1.60645,0.57227 L 72.326,95.46064 a 1.5553,1.5553 0 0 0 -1.45313,-0.84766 1.87222,1.87222 0 0 0 -1.80371,1.60645 1.28716,1.28716 0 0 0 1.23242,1.60644 z"
           style="fill:#d7d7d7"
           id="path988" />
        <path
           d="M 78.16682,93.68915 75.61408,95.8454 77.451,98.7497 H 76.08674 L 74.492,96.17548 74.05157,98.7497 H 72.908 l 1.45215,-8.58106 h 1.166 l -0.90234,5.24805 2.0459,-1.72754 z"
           style="fill:#d7d7d7"
           id="path990" />
      </g>
      <g
         id="g1012">
        <path
           d="m 44.12287,251.49384 1.29688,-7.70117 h 2.39843 a 3.12989,3.12989 0 0 1 3.23438,3.85058 4.44179,4.44179 0 0 1 -4.4668,3.85059 z m 2.41992,-6.47949 -0.91406,5.25879 h 1.04492 a 3.02045,3.02045 0 0 0 3.0586,-2.62989 2.04,2.04 0 0 0 -2.07813,-2.6289 z"
           style="fill:#d7d7d7"
           id="path994" />
        <path
           d="m 53.64826,246.43329 -0.85937,5.06055 h -1.166 l 0.84766,-5.06055 z m -0.24219,-2.72851 a 0.716,0.716 0 1 1 -0.748,0.71484 0.72177,0.72177 0 0 1 0.748,-0.71484 z"
           style="fill:#d7d7d7"
           id="path996" />
        <path
           d="m 57.04865,247.43427 c -0.53906,-0.0107 -0.86914,0.44043 -1.01367,0.957 l -0.53906,3.10254 h -1.166 l 0.88086,-5.06055 h 1.166 l -0.09961,0.57227 a 1.6447,1.6447 0 0 1 1.19922,-0.68262 1.21692,1.21692 0 0 1 0.88086,0.39649 l -0.70508,0.99023 a 0.905,0.905 0 0 0 -0.60352,-0.27536 z"
           style="fill:#d7d7d7"
           id="path998" />
        <path
           d="m 58.21271,249.29364 a 2.944,2.944 0 0 1 2.97071,-2.9707 1.99941,1.99941 0 0 1 2.17773,2.22266 2.45972,2.45972 0 0 1 -0.12109,0.69336 h -3.83985 c -0.02148,0.81347 0.375,1.38574 1.18946,1.38574 a 1.77177,1.77177 0 0 0 1.47265,-0.80274 l 0.99024,0.40723 a 2.90467,2.90467 0 0 1 -2.5625,1.375 2.13456,2.13456 0 0 1 -2.27735,-2.31055 z m 1.33008,-0.87988 h 2.59766 v -0.0225 c 0,-0.72559 -0.35156,-1.166 -1.05664,-1.166 a 1.62993,1.62993 0 0 0 -1.54102,1.18846 z"
           style="fill:#d7d7d7"
           id="path1000" />
        <path
           d="m 66.37482,250.57 a 2.33491,2.33491 0 0 0 1.77149,-0.83594 l -0.1875,1.29786 a 2.72288,2.72288 0 0 1 -1.7168,0.57226 2.24546,2.24546 0 0 1 -2.30859,-2.64062 3.06456,3.06456 0 0 1 3.04687,-2.64063 2.40105,2.40105 0 0 1 1.60547,0.57227 l -0.18555,1.30957 a 1.55528,1.55528 0 0 0 -1.45312,-0.84766 1.87244,1.87244 0 0 0 -1.80469,1.60645 1.28763,1.28763 0 0 0 1.23242,1.60644 z"
           style="fill:#d7d7d7"
           id="path1002" />
        <path
           d="m 70.01545,246.43329 0.29687,-1.75976 h 1.17774 l -0.3086,1.75976 h 0.83594 l -0.1875,1.04492 h -0.82422 l -0.70508,4.01563 H 69.158 l 0.68164,-4.01563 h -0.81446 l 0.1875,-1.04492 z"
           style="fill:#d7d7d7"
           id="path1004" />
        <path
           d="m 74.04084,246.43329 -0.85742,5.06055 h -1.166 l 0.84766,-5.06055 z m -0.24219,-2.72851 a 0.716,0.716 0 1 1 -0.748,0.71484 0.72177,0.72177 0 0 1 0.748,-0.71484 z"
           style="fill:#d7d7d7"
           id="path1006" />
        <path
           d="m 77.8924,246.32294 a 2.23078,2.23078 0 0 1 2.28711,2.64063 3.07046,3.07046 0 0 1 -3.03516,2.64062 2.2367,2.2367 0 0 1 -2.28906,-2.64062 3.071,3.071 0 0 1 3.03711,-2.64063 z m -0.66015,4.22461 a 1.83269,1.83269 0 0 0 1.73828,-1.584 1.2555,1.2555 0 0 0 -1.17774,-1.584 1.83108,1.83108 0 0 0 -1.73828,1.584 1.25456,1.25456 0 0 0 1.17774,1.584 z"
           style="fill:#d7d7d7"
           id="path1008" />
        <path
           d="m 83.744,247.29169 a 1.28452,1.28452 0 0 0 -1.28711,1.08887 l -0.53906,3.11328 h -1.1875 l 0.87891,-5.06055 h 1.17773 l -0.12109,0.74805 a 1.8343,1.8343 0 0 1 1.5625,-0.8584 c 1.1543,0 1.584,0.88086 1.42969,1.959 l -0.54883,3.21191 h -1.21098 l 0.55078,-3.08008 C 84.52521,247.82 84.40412,247.29169 83.744,247.29169 Z"
           style="fill:#d7d7d7"
           id="path1010" />
      </g>
      <g
         id="g1024">
        <path
           d="m 56.3592,192.87861 a 2.08776,2.08776 0 0 1 2.334,2.39843 2.73863,2.73863 0 0 1 -2.06836,2.25489 l 1.584,3.04785 h -1.4961 l -1.39843,-2.916 h -0.76953 l -0.49415,2.916 h -1.27737 l 1.29883,-7.70117 z m -1.1875,1.13281 -0.43945,2.57422 h 0.94531 a 1.59907,1.59907 0 0 0 1.69531,-1.28711 1.06531,1.06531 0 0 0 -1.18945,-1.28711 z"
           style="fill:#d7d7d7"
           id="path1014" />
        <path
           d="m 59.08771,198.37958 a 2.944,2.944 0 0 1 2.97071,-2.9707 1.999,1.999 0 0 1 2.17773,2.22266 2.45241,2.45241 0 0 1 -0.12109,0.69238 h -3.83985 c -0.02148,0.81445 0.375,1.38672 1.18946,1.38672 a 1.7727,1.7727 0 0 0 1.47265,-0.80371 l 0.99024,0.40722 a 2.90467,2.90467 0 0 1 -2.5625,1.375 2.1338,2.1338 0 0 1 -2.27735,-2.30957 z m 1.33008,-0.88086 h 2.59766 v -0.0215 c 0,-0.72656 -0.35156,-1.166 -1.05664,-1.166 a 1.629,1.629 0 0 0 -1.54102,1.18748 z"
           style="fill:#d7d7d7"
           id="path1016" />
        <path
           d="m 66.78693,199.76532 a 0.63671,0.63671 0 0 0 0.70508,-0.59375 c 0.01172,-0.44043 -0.48437,-0.67089 -0.96875,-0.85839 -0.61523,-0.24219 -1.26367,-0.60547 -1.24219,-1.46289 a 1.58977,1.58977 0 0 1 1.78125,-1.44141 2.35245,2.35245 0 0 1 1.85938,0.89062 l -0.66016,0.69336 a 1.67315,1.67315 0 0 0 -1.209,-0.68164 c -0.39649,0 -0.66016,0.19727 -0.66016,0.4834 -0.02344,0.39649 0.418,0.56152 0.92383,0.77051 0.748,0.31933 1.36328,0.66016 1.3418,1.54 a 1.714,1.714 0 0 1 -1.85938,1.62793 2.74281,2.74281 0 0 1 -2.21094,-1.12207 l 0.748,-0.68164 a 1.94127,1.94127 0 0 0 1.45124,0.83597 z"
           style="fill:#d7d7d7"
           id="path1018" />
        <path
           d="m 69.34943,198.37958 a 2.944,2.944 0 0 1 2.97071,-2.9707 2.00039,2.00039 0 0 1 2.17968,2.22266 2.45241,2.45241 0 0 1 -0.12109,0.69238 h -3.83984 c -0.02344,0.81445 0.373,1.38672 1.1875,1.38672 a 1.77878,1.77878 0 0 0 1.47461,-0.80371 l 0.99023,0.40722 a 2.91032,2.91032 0 0 1 -2.56445,1.375 2.13476,2.13476 0 0 1 -2.27735,-2.30957 z m 1.332,-0.88086 h 2.59571 v -0.0215 c 0,-0.72656 -0.35157,-1.166 -1.05469,-1.166 a 1.62545,1.62545 0 0 0 -1.54099,1.18748 z"
           style="fill:#d7d7d7"
           id="path1020" />
        <path
           d="m 76.0174,195.51923 0.29688,-1.76074 h 1.17578 l -0.30664,1.76074 h 0.83593 l -0.1875,1.04492 h -0.82617 l -0.70312,4.01563 H 75.158 l 0.68164,-4.01563 h -0.8125 l 0.18554,-1.04492 z"
           style="fill:#d7d7d7"
           id="path1022" />
      </g>
      <g
         id="g1036">
        <path
           d="m 56.91,148.652 a 1.30381,1.30381 0 0 0 1.39648,-1.1875 c 0.02247,-0.748 -0.61523,-0.99023 -1.38574,-1.34277 a 2.35867,2.35867 0 0 1 -1.70508,-2.13379 2.39055,2.39055 0 0 1 2.585,-2.15625 2.48765,2.48765 0 0 1 2.40918,1.66113 l -1.0664,0.56055 a 1.54564,1.54564 0 0 0 -1.47461,-1.06641 0.98787,0.98787 0 0 0 -1.12207,0.91309 c -0.0332,0.61523 0.583,0.98926 1.45215,1.33105 a 2.21411,2.21411 0 0 1 1.65039,2.14551 2.71557,2.71557 0 0 1 -2.80567,2.45313 2.8585,2.8585 0 0 1 -2.67285,-1.96973 l 0.98926,-0.68164 c 0.38568,0.86918 0.86908,1.47363 1.74996,1.47363 z"
           style="fill:#d7d7d7"
           id="path1026" />
        <path
           d="m 61.3758,144.60419 0.29688,-1.76074 h 1.17675 l -0.30761,1.76074 h 0.83593 l -0.1875,1.04492 h -0.82519 l -0.7041,4.01563 H 60.5174 l 0.68164,-4.01563 h -0.81347 l 0.18652,-1.04492 z"
           style="fill:#d7d7d7"
           id="path1028" />
        <path
           d="m 66.12775,144.49384 a 1.58356,1.58356 0 0 1 1.55078,1.09961 l 0.165,-0.98926 h 1.166 l -0.87988,5.06055 h -1.13276 l 0.14258,-0.84766 a 2.27312,2.27312 0 0 1 -1.82617,0.957 2.112,2.112 0 0 1 -2.002,-2.63965 2.95486,2.95486 0 0 1 2.81645,-2.64059 z m -0.44043,4.24609 a 1.86248,1.86248 0 0 0 1.69434,-1.60547 c 0.11035,-0.84765 -0.30762,-1.585 -1.07813,-1.60644 a 1.86324,1.86324 0 0 0 -1.78222,1.60644 c -0.13184,0.85743 0.30762,1.60547 1.16601,1.60547 z"
           style="fill:#d7d7d7"
           id="path1030" />
        <path
           d="m 72.23225,145.60517 c -0.53907,-0.0117 -0.86915,0.43945 -1.0127,0.957 l -0.53906,3.10254 h -1.166 l 0.87988,-5.06055 h 1.166 l -0.09863,0.57129 a 1.64341,1.64341 0 0 1 1.19922,-0.68164 1.21923,1.21923 0 0 1 0.87988,0.39551 l -0.7041,0.99023 a 0.91068,0.91068 0 0 0 -0.60449,-0.27438 z"
           style="fill:#d7d7d7"
           id="path1032" />
        <path
           d="m 74.48713,144.60419 0.29687,-1.76074 h 1.17676 l -0.30762,1.76074 h 0.83594 l -0.1875,1.04492 h -0.82519 l -0.70411,4.01563 h -1.14355 l 0.68164,-4.01563 h -0.81348 l 0.18653,-1.04492 z"
           style="fill:#d7d7d7"
           id="path1034" />
      </g>
      <g
         id="g1050">
        <path
           d="m 51.992,294.70771 a 2.08638,2.08638 0 0 1 2.332,2.39843 2.736,2.736 0 0 1 -2.06836,2.25489 l 1.584,3.04785 h -1.4961 l -1.39648,-2.916 h -0.76953 l -0.4961,2.916 h -1.27536 l 1.29688,-7.70117 z m -1.1875,1.13281 -0.44141,2.57422 h 0.94727 a 1.597,1.597 0 0 0 1.69336,-1.28711 1.06331,1.06331 0 0 0 -1.1875,-1.28711 z"
           style="fill:#fd495c"
           id="path1038" />
        <path
           d="m 54.71857,300.20868 a 2.944,2.944 0 0 1 2.97071,-2.9707 2.00039,2.00039 0 0 1 2.17968,2.22266 2.45234,2.45234 0 0 1 -0.12109,0.69238 H 55.908 c -0.02344,0.81445 0.373,1.38672 1.1875,1.38672 a 1.77878,1.77878 0 0 0 1.47461,-0.80371 l 0.99023,0.40722 a 2.91032,2.91032 0 0 1 -2.56445,1.375 2.13476,2.13476 0 0 1 -2.27732,-2.30957 z m 1.332,-0.88086 h 2.59571 v -0.0215 c 0,-0.72656 -0.35156,-1.166 -1.05469,-1.166 a 1.62545,1.62545 0 0 0 -1.54099,1.18748 z"
           style="fill:#fd495c"
           id="path1040" />
        <path
           d="m 62.88264,301.48407 a 2.3307,2.3307 0 0 0 1.76953,-0.83593 l -0.18555,1.29882 a 2.73613,2.73613 0 0 1 -1.7168,0.57129 2.247,2.247 0 0 1 -2.31054,-2.63964 3.06456,3.06456 0 0 1 3.04687,-2.64063 2.3977,2.3977 0 0 1 1.60742,0.57227 l -0.1875,1.30859 a 1.55619,1.55619 0 0 0 -1.45312,-0.84668 1.87114,1.87114 0 0 0 -1.80274,1.60645 1.2859,1.2859 0 0 0 1.23243,1.60546 z"
           style="fill:#fd495c"
           id="path1042" />
        <path
           d="m 68.67951,297.238 a 2.23078,2.23078 0 0 1 2.28711,2.64063 3.06961,3.06961 0 0 1 -3.03516,2.63964 2.23593,2.23593 0 0 1 -2.28906,-2.63964 3.071,3.071 0 0 1 3.03711,-2.64063 z m -0.66016,4.22461 a 1.83269,1.83269 0 0 0 1.73829,-1.584 1.25632,1.25632 0 0 0 -1.17774,-1.585 1.832,1.832 0 0 0 -1.73828,1.585 1.25456,1.25456 0 0 0 1.17773,1.58398 z"
           style="fill:#fd495c"
           id="path1044" />
        <path
           d="m 74.2342,298.34931 c -0.53906,-0.0117 -0.86914,0.43945 -1.01367,0.957 l -0.53907,3.10254 h -1.166 l 0.88086,-5.06055 h 1.166 l -0.09961,0.57129 a 1.64343,1.64343 0 0 1 1.19922,-0.68164 1.2197,1.2197 0 0 1 0.88086,0.39551 l -0.70508,0.99023 a 0.90831,0.90831 0 0 0 -0.60351,-0.27438 z"
           style="fill:#fd495c"
           id="path1046" />
        <path
           d="m 78.3592,297.238 a 1.58189,1.58189 0 0 1 1.5293,1.04492 l 0.75781,-4.45508 h 1.18945 l -1.47461,8.58106 h -1.17773 l 0.13281,-0.78125 a 2.23213,2.23213 0 0 1 -1.77148,0.89062 2.11109,2.11109 0 0 1 -2.002,-2.63964 2.95411,2.95411 0 0 1 2.81645,-2.64063 z m -0.44141,4.24609 a 1.86342,1.86342 0 0 0 1.69531,-1.60546 c 0.10938,-0.84766 -0.30859,-1.585 -1.07812,-1.60645 a 1.86342,1.86342 0 0 0 -1.7832,1.60645 c -0.13086,0.85737 0.30859,1.60544 1.16601,1.60544 z"
           style="fill:#fd495c"
           id="path1048" />
      </g>
    </g>
  </g>
  <g
     style="display:inline"
     inkscape:label="Title"
     id="layer3"
     inkscape:groupmode="layer">
    <g
       transform="scale(0.35277776)"
       id="4b75c4e4-5f56-4319-ae74-76e5675bc46f"
       data-name="TITLE">
      <g
         id="g861">
        <path
           d="m 232.92693,26.73842 h 0.45452 V 7.63283 l 14.309,19.10559 H 248.92 V 7.63283 l 14.309,19.10559 h 1.22951 V 7.63283 l 14.309,19.10559 h 1.25884 V 5.66708 h -1.55626 v 18.12743 l -13.312,-17.7923 a 1.22779,1.22779 0 0 0 -1.03681,-0.47756 1.20619,1.20619 0 0 0 -1.18972,1.24627 v 17.02359 l -13.312,-17.7923 a 1.22779,1.22779 0 0 0 -1.03681,-0.47756 1.20619,1.20619 0 0 0 -1.18972,1.24627 V 23.79451 L 234.081,6.00221 a 1.22777,1.22777 0 0 0 -1.03681,-0.47756 1.20618,1.20618 0 0 0 -1.18971,1.24627 v 17.02359 l -13.312,-17.7923 A 1.22779,1.22779 0 0 0 217.50567,5.52465 1.20618,1.20618 0 0 0 216.316,6.77092 v 19.9675 h 1.52694 V 7.63283 l 14.309,19.10559 h 0.775 z"
           style="fill:#d7d7d7"
           id="path847" />
        <path
           d="m 388.48348,26.69548 h -1.52694 v -5.227 h -10.35763 l -3.54191,4.71279 a 1.23739,1.23739 0 0 1 -1.02424,0.4985 1.12851,1.12851 0 0 1 -1.18972,-1.24731 v -3.964 h -10.35763 l -3.54191,4.71278 a 1.23739,1.23739 0 0 1 -1.02424,0.4985 1.12851,1.12851 0 0 1 -1.18972,-1.24731 v -3.964 h -10.35868 l -3.54186,4.71284 a 1.23739,1.23739 0 0 1 -1.02424,0.4985 1.12943,1.12943 0 0 1 -1.18971,-1.24731 v -3.964 h -10.35769 l -3.54191,4.71278 a 1.23739,1.23739 0 0 1 -1.02424,0.4985 1.21151,1.21151 0 0 1 -0.83573,-0.30162 1.33832,1.33832 0 0 1 -0.354,-0.94569 V 5.77809 h 1.55522 V 24.46582 L 337.81382,6.14988 a 1.33368,1.33368 0 0 1 1.11012,-0.58229 1.19222,1.19222 0 0 1 1.24627,1.18971 V 24.46582 L 353.92837,6.14988 a 1.33367,1.33367 0 0 1 1.11012,-0.58229 1.19222,1.19222 0 0 1 1.24627,1.18971 l -0.001,0.17909 0.001,17.52943 13.75711,-18.31594 a 1.33367,1.33367 0 0 1 1.11012,-0.58229 1.19222,1.19222 0 0 1 1.24627,1.18971 V 24.46582 L 386.15537,6.14988 a 1.33367,1.33367 0 0 1 1.11012,-0.58229 1.16467,1.16467 0 0 1 1.218,1.18971 z m -10.73779,-6.75393 h 9.21085 V 7.68624 Z m -16.1135,0 H 370.843 V 7.68624 Z m -16.1135,0 h 9.21085 V 7.68624 Z m -16.11455,0 H 338.615 V 7.68729 Z"
           style="fill:#d7d7d7"
           id="path849" />
        <g
           id="g859">
          <path
             d="m 308.23367,27.09345 a 10.962,10.962 0 1 1 10.99019,-10.93364 10.94553,10.94553 0 0 1 -10.99019,10.93364 z m 0,-20.36861 a 9.42093,9.42093 0 1 0 9.46325,9.435 9.431,9.431 0 0 0 -9.46325,-9.435 z"
             style="fill:#d7d7d7"
             id="path851" />
          <path
             d="M 303.67378,27.09345 A 10.962,10.962 0 1 1 314.664,16.15981 10.94553,10.94553 0 0 1 303.67378,27.09345 Z m 0,-20.36861 a 9.42093,9.42093 0 1 0 9.46325,9.435 9.431,9.431 0 0 0 -9.46325,-9.435 z"
             style="fill:#d7d7d7"
             id="path853" />
          <path
             d="m 299.11389,27.09345 a 10.962,10.962 0 1 1 10.99019,-10.93364 10.94553,10.94553 0 0 1 -10.99019,10.93364 z m 0,-20.36861 a 9.42093,9.42093 0 1 0 9.46325,9.435 9.431,9.431 0 0 0 -9.46325,-9.435 z"
             style="fill:#d7d7d7"
             id="path855" />
          <path
             d="M 294.554,27.09345 A 10.962,10.962 0 1 1 305.54419,16.15981 10.94553,10.94553 0 0 1 294.554,27.09345 Z m 0,-20.36861 a 9.42093,9.42093 0 1 0 9.46325,9.435 9.431,9.431 0 0 0 -9.46325,-9.435 z"
             style="fill:#d7d7d7"
             id="path857" />
        </g>
      </g>
    </g>
  </g>
  <g
     style="display:inline"
     inkscape:label="Logo"
     id="layer4"
     inkscape:groupmode="layer">
    <g
       transform="scale(0.35277776)"
       id="6dfe1ab0-0573-47bc-8abe-2c0af2f94db8"
       data-name="Logo">
      <g
         id="g844">
        <polygon
           points="296.515,355.078 298.869,355.078 298.869,352.724 298.869,350.37 301.223,350.37 301.223,348.016 303.577,348.016 303.577,345.662 301.223,345.662 298.869,345.662 296.515,345.662 296.515,348.016 296.515,350.37 296.515,352.724 "
           style="fill:#d7d7d7"
           id="polygon838" />
        <polygon
           points="308.285,350.37 308.285,348.016 308.285,345.662 305.931,345.662 305.931,348.016 305.931,350.37 303.577,350.37 303.577,352.724 301.223,352.724 301.223,355.078 303.577,355.078 305.931,355.078 308.285,355.078 308.285,352.724 "
           style="fill:#d7d7d7"
           id="polygon840" />
        <polygon
           points="311.817,358.583 311.817,357.406 311.817,342.085 310.639,342.085 294.161,342.085 294.161,343.353 310.639,343.353 310.639,357.406 294.161,357.406 294.161,342.085 292.983,342.085 292.983,358.583 294.161,358.583 "
           style="fill:#d7d7d7"
           id="polygon842" />
      </g>
    </g>
  </g>
  <g
     style="display:inline"
     inkscape:label="Legend"
     id="layer5"
     inkscape:groupmode="layer">
    <g
       transform="scale(0.35277776)"
       id="b6698f83-8ed2-4727-ba01-fc942efa8f36"
       data-name="LEGEND">
      <g
         id="g1059">
        <path
           d="m 524.88317,133.46935 a 0.65888,0.65888 0 0 1 -0.37532,-0.11668 25.12325,25.12325 0 1 1 28.45372,-0.0104 0.6642,0.6642 0 0 1 -0.75323,-1.0942 23.7968,23.7968 0 1 0 -26.94855,0.0104 0.66379,0.66379 0 0 1 -0.37662,1.21088 z"
           style="fill:#00886a"
           id="path1053" />
        <path
           d="m 525.9367,131.04958 a 1.99652,1.99652 0 1 1 -2.76941,0.55 1.99674,1.99674 0 0 1 2.76941,-0.55 z"
           style="fill:#00886a"
           id="path1055" />
        <circle
           cx="552.63855"
           cy="132.70036"
           r="1.9965301"
           style="fill:#00886a"
           id="circle1057" />
      </g>
      <g
         id="g1067">
        <path
           d="m 524.88317,206.59926 a 0.659,0.659 0 0 1 -0.37532,-0.11668 25.12325,25.12325 0 1 1 28.45372,-0.0104 0.6642,0.6642 0 0 1 -0.75323,-1.0942 23.7968,23.7968 0 1 0 -26.94855,0.0104 0.66379,0.66379 0 0 1 -0.37662,1.21088 z"
           style="fill:#00886a"
           id="path1061" />
        <path
           d="m 525.9367,204.17949 a 1.99652,1.99652 0 1 1 -2.76941,0.55 1.99673,1.99673 0 0 1 2.76941,-0.55 z"
           style="fill:#00886a"
           id="path1063" />
        <circle
           cx="552.63855"
           cy="205.83028"
           r="1.9965301"
           style="fill:#00886a"
           id="circle1065" />
      </g>
      <g
         id="fe18e398-9569-49b9-99ff-dbe00cdca58b"
         data-name="Halo">
        <circle
           cx="473.04269"
           cy="276.34052"
           r="13.63575"
           style="fill:none;stroke:#00886a;stroke-miterlimit:10"
           id="circle1069" />
        <circle
           cx="430.38202"
           cy="276.34052"
           r="13.63575"
           style="fill:none;stroke:#00886a;stroke-miterlimit:10"
           id="circle1071" />
        <circle
           cx="387.72134"
           cy="276.34052"
           r="13.63575"
           style="fill:none;stroke:#00886a;stroke-miterlimit:10"
           id="circle1073" />
        <circle
           cx="345.06067"
           cy="276.34052"
           r="13.63575"
           style="fill:none;stroke:#00886a;stroke-miterlimit:10"
           id="circle1075" />
        <circle
           cx="302.39999"
           cy="276.34052"
           r="13.63575"
           style="fill:none;stroke:#00886a;stroke-miterlimit:10"
           id="circle1077" />
        <circle
           cx="259.73932"
           cy="276.34052"
           r="13.63575"
           style="fill:none;stroke:#00886a;stroke-miterlimit:10"
           id="circle1079" />
        <circle
           cx="217.07864"
           cy="276.34052"
           r="13.63575"
           style="fill:none;stroke:#00886a;stroke-miterlimit:10"
           id="circle1081" />
        <circle
           cx="174.41798"
           cy="276.34052"
           r="13.63575"
           style="fill:none;stroke:#00886a;stroke-miterlimit:10"
           id="circle1083" />
      </g>
      <g
         id="dbc2fd75-379b-46e2-8908-06f916c34740"
         data-name="Lines">
        <rect
           x="448.17114"
           y="313.27295"
           width="7.0824599"
           height="1.41732"
           rx="0.62107003"
           ry="0.62107003"
           style="fill:#00886a"
           id="rect1086" />
        <rect
           x="448.17114"
           y="313.27295"
           width="7.0824599"
           height="1.41732"
           rx="0.62107003"
           ry="0.62107003"
           style="fill:#00886a"
           id="rect1088" />
        <rect
           x="405.51044"
           y="313.27295"
           width="7.0824599"
           height="1.41732"
           rx="0.62107003"
           ry="0.62107003"
           style="fill:#00886a"
           id="rect1090" />
        <rect
           x="362.84979"
           y="313.27295"
           width="7.0824599"
           height="1.41732"
           rx="0.62107003"
           ry="0.62107003"
           style="fill:#00886a"
           id="rect1092" />
        <rect
           x="320.18912"
           y="313.27295"
           width="7.0824599"
           height="1.41732"
           rx="0.62107003"
           ry="0.62107003"
           style="fill:#00886a"
           id="rect1094" />
        <rect
           x="277.52844"
           y="313.27295"
           width="7.0824599"
           height="1.41732"
           rx="0.62107003"
           ry="0.62107003"
           style="fill:#00886a"
           id="rect1096" />
        <rect
           x="234.86777"
           y="313.27295"
           width="7.0824599"
           height="1.41732"
           rx="0.62107003"
           ry="0.62107003"
           style="fill:#00886a"
           id="rect1098" />
        <rect
           x="192.20709"
           y="313.27295"
           width="7.0824599"
           height="1.41732"
           rx="0.62107003"
           ry="0.62107003"
           style="fill:#00886a"
           id="rect1100" />
        <rect
           x="448.17114"
           y="196.70139"
           width="7.0824599"
           height="1.41732"
           rx="0.62107003"
           ry="0.62107003"
           style="fill:#00886a"
           id="rect1102" />
        <rect
           x="405.51044"
           y="196.70139"
           width="7.0824599"
           height="1.41732"
           rx="0.62107003"
           ry="0.62107003"
           style="fill:#00886a"
           id="rect1104" />
        <rect
           x="362.84979"
           y="196.70139"
           width="7.0824599"
           height="1.41732"
           rx="0.62107003"
           ry="0.62107003"
           style="fill:#00886a"
           id="rect1106" />
        <rect
           x="320.18912"
           y="196.70139"
           width="7.0824599"
           height="1.41732"
           rx="0.62107003"
           ry="0.62107003"
           style="fill:#00886a"
           id="rect1108" />
        <rect
           x="277.52844"
           y="196.70139"
           width="7.0824599"
           height="1.41732"
           rx="0.62107003"
           ry="0.62107003"
           style="fill:#00886a"
           id="rect1110" />
        <rect
           x="234.86777"
           y="196.70139"
           width="7.0824599"
           height="1.41732"
           rx="0.62107003"
           ry="0.62107003"
           style="fill:#00886a"
           id="rect1112" />
        <rect
           x="192.20709"
           y="196.70139"
           width="7.0824599"
           height="1.41732"
           rx="0.62107003"
           ry="0.62107003"
           style="fill:#00886a"
           id="rect1114" />
        <rect
           x="448.17114"
           y="109.37246"
           width="7.0824599"
           height="1.41732"
           rx="0.62107003"
           ry="0.62107003"
           style="fill:#00886a"
           id="rect1116" />
        <rect
           x="405.51044"
           y="109.37246"
           width="7.0824599"
           height="1.41732"
           rx="0.62107003"
           ry="0.62107003"
           style="fill:#00886a"
           id="rect1118" />
        <rect
           x="362.84979"
           y="109.37246"
           width="7.0824599"
           height="1.41732"
           rx="0.62107003"
           ry="0.62107003"
           style="fill:#00886a"
           id="rect1120" />
        <rect
           x="320.18912"
           y="109.37246"
           width="7.0824599"
           height="1.41732"
           rx="0.62107003"
           ry="0.62107003"
           style="fill:#00886a"
           id="rect1122" />
        <rect
           x="277.52844"
           y="109.37246"
           width="7.0824599"
           height="1.41732"
           rx="0.62107003"
           ry="0.62107003"
           style="fill:#00886a"
           id="rect1124" />
        <rect
           x="234.86777"
           y="109.37246"
           width="7.0824599"
           height="1.41732"
           rx="0.62107003"
           ry="0.62107003"
           style="fill:#00886a"
           id="rect1126" />
        <rect
           x="192.20709"
           y="109.37246"
           width="7.0824599"
           height="1.41732"
           rx="0.62107003"
           ry="0.62107003"
           style="fill:#00886a"
           id="rect1128" />
      </g>
      <g
         id="23db77fd-62c7-47a3-a135-4d514cd0a0d4"
         data-name="Arrows">
        <g
           id="g1137">
          <path
             d="m 163.99049,82.48248 a 0.49629,0.49629 0 0 1 -0.28272,-0.0879 18.92439,18.92439 0 1 1 21.43311,-0.0078 0.50032,0.50032 0 0 1 -0.56738,-0.82422 17.92522,17.92522 0 1 0 -20.29932,0.0078 0.5,0.5 0 0 1 -0.28369,0.91211 z"
             style="fill:#00886a"
             id="path1131" />
          <path
             d="m 164.78407,80.65975 a 1.5039,1.5039 0 1 1 -2.08609,0.41429 1.50407,1.50407 0 0 1 2.08609,-0.41429 z"
             style="fill:#00886a"
             id="path1133" />
          <circle
             cx="184.89757"
             cy="81.903229"
             r="1.5039099"
             style="fill:#00886a"
             id="circle1135" />
        </g>
        <g
           id="g1145">
          <path
             d="m 462.61521,82.48248 a 0.49629,0.49629 0 0 1 -0.28272,-0.0879 18.92438,18.92438 0 1 1 21.43311,-0.0078 0.50032,0.50032 0 0 1 -0.56739,-0.82422 17.92521,17.92521 0 1 0 -20.29931,0.0078 0.5,0.5 0 0 1 -0.28369,0.91211 z"
             style="fill:#00886a"
             id="path1139" />
          <path
             d="m 463.40878,80.65975 a 1.5039,1.5039 0 1 1 -2.08609,0.41429 1.50407,1.50407 0 0 1 2.08609,-0.41429 z"
             style="fill:#00886a"
             id="path1141" />
          <circle
             cx="483.52228"
             cy="81.903229"
             r="1.5039099"
             style="fill:#00886a"
             id="circle1143" />
        </g>
        <g
           id="g1151">
          <line
             x1="430.38199"
             y1="262.7048"
             x2="430.38199"
             y2="257.76944"
             style="fill:none;stroke:#00886a;stroke-width:1.4px;stroke-miterlimit:10"
             id="line1147" />
          <polygon
             points="432.756,260.558 430.382,258.183 428.009,260.558 428.009,258.543 430.382,256.169 432.756,258.543 "
             style="fill:#00886a"
             id="polygon1149" />
        </g>
        <g
           id="g1157">
          <line
             x1="387.72134"
             y1="262.7048"
             x2="387.72134"
             y2="257.76944"
             style="fill:none;stroke:#00886a;stroke-width:1.4px;stroke-miterlimit:10"
             id="line1153" />
          <polygon
             points="390.095,260.558 387.721,258.183 385.348,260.558 385.348,258.543 387.721,256.169 390.095,258.543 "
             style="fill:#00886a"
             id="polygon1155" />
        </g>
        <g
           id="g1163">
          <line
             x1="345.0607"
             y1="262.7048"
             x2="345.0607"
             y2="257.76944"
             style="fill:none;stroke:#00886a;stroke-width:1.4px;stroke-miterlimit:10"
             id="line1159" />
          <polygon
             points="347.434,260.558 345.061,258.183 342.687,260.558 342.687,258.543 345.061,256.169 347.434,258.543 "
             style="fill:#00886a"
             id="polygon1161" />
        </g>
        <g
           id="g1169">
          <line
             x1="302.40005"
             y1="262.7048"
             x2="302.40005"
             y2="257.76944"
             style="fill:none;stroke:#00886a;stroke-width:1.4px;stroke-miterlimit:10"
             id="line1165" />
          <polygon
             points="304.773,260.558 302.4,258.183 300.027,260.558 300.027,258.543 302.4,256.169 304.773,258.543 "
             style="fill:#00886a"
             id="polygon1167" />
        </g>
        <g
           id="g1175">
          <line
             x1="259.73929"
             y1="262.7048"
             x2="259.73929"
             y2="257.76944"
             style="fill:none;stroke:#00886a;stroke-width:1.4px;stroke-miterlimit:10"
             id="line1171" />
          <polygon
             points="262.113,260.558 259.739,258.183 257.366,260.558 257.366,258.543 259.739,256.169 262.113,258.543 "
             style="fill:#00886a"
             id="polygon1173" />
        </g>
        <g
           id="g1181">
          <line
             x1="217.07863"
             y1="262.7048"
             x2="217.07863"
             y2="257.76944"
             style="fill:none;stroke:#00886a;stroke-width:1.4px;stroke-miterlimit:10"
             id="line1177" />
          <polygon
             points="219.452,260.558 217.079,258.183 214.705,260.558 214.705,258.543 217.079,256.169 219.452,258.543 "
             style="fill:#00886a"
             id="polygon1179" />
        </g>
        <g
           id="g1187">
          <line
             x1="473.04276"
             y1="262.7048"
             x2="473.04276"
             y2="257.76944"
             style="fill:none;stroke:#00886a;stroke-width:1.4px;stroke-miterlimit:10"
             id="line1183" />
          <polygon
             points="475.416,260.558 473.043,258.183 470.669,260.558 470.669,258.543 473.043,256.169 475.416,258.543 "
             style="fill:#00886a"
             id="polygon1185" />
        </g>
        <g
           id="g1193">
          <line
             x1="174.41798"
             y1="262.7048"
             x2="174.41798"
             y2="257.76944"
             style="fill:none;stroke:#00886a;stroke-width:1.4px;stroke-miterlimit:10"
             id="line1189" />
          <polygon
             points="176.791,260.558 174.418,258.183 172.045,260.558 172.045,258.543 174.418,256.169 176.791,258.543 "
             style="fill:#00886a"
             id="polygon1191" />
        </g>
        <g
           id="g1199">
          <line
             x1="489.06989"
             y1="313.98114"
             x2="521.43036"
             y2="313.98114"
             style="fill:none;stroke:#00886a;stroke-width:1.4px;stroke-linecap:round;stroke-miterlimit:10"
             id="line1195" />
          <polygon
             points="518.642,316.355 521.017,313.981 518.642,311.608 520.657,311.608 523.03,313.981 520.657,316.355 "
             style="fill:#00886a"
             id="polygon1197" />
        </g>
      </g>
      <g
         id="g1208">
        <path
           d="m 419.95453,82.48248 a 0.49626,0.49626 0 0 1 -0.28271,-0.0879 18.92438,18.92438 0 1 1 21.4331,-0.0078 0.50032,0.50032 0 0 1 -0.56738,-0.82422 17.92522,17.92522 0 1 0 -20.29932,0.0078 0.5,0.5 0 0 1 -0.28369,0.91211 z"
           style="fill:#00886a"
           id="path1202" />
        <path
           d="m 420.74811,80.65975 a 1.5039,1.5039 0 1 1 -2.08609,0.41429 1.50406,1.50406 0 0 1 2.08609,-0.41429 z"
           style="fill:#00886a"
           id="path1204" />
        <circle
           cx="440.86163"
           cy="81.903229"
           r="1.5039099"
           style="fill:#00886a"
           id="circle1206" />
      </g>
      <g
         id="g1216">
        <path
           d="m 377.29386,82.48248 a 0.49629,0.49629 0 0 1 -0.28272,-0.0879 18.92439,18.92439 0 1 1 21.43311,-0.0078 0.50032,0.50032 0 0 1 -0.56738,-0.82422 17.92522,17.92522 0 1 0 -20.29932,0.0078 0.5,0.5 0 0 1 -0.28369,0.91211 z"
           style="fill:#00886a"
           id="path1210" />
        <path
           d="m 378.08744,80.65975 a 1.5039,1.5039 0 1 1 -2.08609,0.41429 1.50407,1.50407 0 0 1 2.08609,-0.41429 z"
           style="fill:#00886a"
           id="path1212" />
        <circle
           cx="398.20093"
           cy="81.903229"
           r="1.5039099"
           style="fill:#00886a"
           id="circle1214" />
      </g>
      <g
         id="g1224">
        <path
           d="m 334.63318,82.48248 a 0.49626,0.49626 0 0 1 -0.28271,-0.0879 18.92438,18.92438 0 1 1 21.4331,-0.0078 0.50032,0.50032 0 0 1 -0.56738,-0.82422 17.92521,17.92521 0 1 0 -20.29931,0.0078 0.5,0.5 0 0 1 -0.2837,0.91211 z"
           style="fill:#00886a"
           id="path1218" />
        <path
           d="m 335.42676,80.65975 a 1.5039,1.5039 0 1 1 -2.08609,0.41429 1.50406,1.50406 0 0 1 2.08609,-0.41429 z"
           style="fill:#00886a"
           id="path1220" />
        <circle
           cx="355.54028"
           cy="81.903229"
           r="1.5039099"
           style="fill:#00886a"
           id="circle1222" />
      </g>
      <g
         id="g1232">
        <path
           d="m 291.97251,82.48248 a 0.49629,0.49629 0 0 1 -0.28272,-0.0879 18.92439,18.92439 0 1 1 21.43311,-0.0078 0.50032,0.50032 0 0 1 -0.56738,-0.82422 17.92522,17.92522 0 1 0 -20.29932,0.0078 0.5,0.5 0 0 1 -0.28369,0.91211 z"
           style="fill:#00886a"
           id="path1226" />
        <path
           d="M 292.76609,80.65975 A 1.5039,1.5039 0 1 1 290.68,81.074 a 1.50407,1.50407 0 0 1 2.08609,-0.41425 z"
           style="fill:#00886a"
           id="path1228" />
        <circle
           cx="312.87961"
           cy="81.903229"
           r="1.5039099"
           style="fill:#00886a"
           id="circle1230" />
      </g>
      <g
         id="g1240">
        <path
           d="m 249.31184,82.48248 a 0.49629,0.49629 0 0 1 -0.28272,-0.0879 18.92438,18.92438 0 1 1 21.43311,-0.0078 0.50032,0.50032 0 0 1 -0.56739,-0.82422 17.92521,17.92521 0 1 0 -20.29931,0.0078 0.5,0.5 0 0 1 -0.28369,0.91211 z"
           style="fill:#00886a"
           id="path1234" />
        <path
           d="m 250.10541,80.65975 a 1.5039,1.5039 0 1 1 -2.08609,0.41429 1.50407,1.50407 0 0 1 2.08609,-0.41429 z"
           style="fill:#00886a"
           id="path1236" />
        <circle
           cx="270.21893"
           cy="81.903229"
           r="1.5039099"
           style="fill:#00886a"
           id="circle1238" />
      </g>
      <g
         id="g1248">
        <path
           d="m 206.65116,82.48248 a 0.49626,0.49626 0 0 1 -0.28271,-0.0879 18.92438,18.92438 0 1 1 21.4331,-0.0078 0.50032,0.50032 0 0 1 -0.56738,-0.82422 17.92522,17.92522 0 1 0 -20.29932,0.0078 0.5,0.5 0 0 1 -0.28369,0.91211 z"
           style="fill:#00886a"
           id="path1242" />
        <path
           d="m 207.44474,80.65975 a 1.5039,1.5039 0 1 1 -2.08609,0.41429 1.50406,1.50406 0 0 1 2.08609,-0.41429 z"
           style="fill:#00886a"
           id="path1244" />
        <circle
           cx="227.55824"
           cy="81.903229"
           r="1.5039099"
           style="fill:#00886a"
           id="circle1246" />
      </g>
      <g
         id="g1254">
        <line
           x1="59.941059"
           y1="320.95245"
           x2="64.876419"
           y2="320.95245"
           style="fill:none;stroke:#00886a;stroke-width:1.4px;stroke-miterlimit:10"
           id="line1250" />
        <polygon
           points="64.463,320.952 62.088,318.579 64.103,318.579 66.477,320.952 64.103,323.326 62.088,323.326 "
           style="fill:#00886a"
           id="polygon1252" />
      </g>
      <circle
         cx="46.305309"
         cy="320.95248"
         r="13.63575"
         style="fill:none;stroke:#00886a;stroke-miterlimit:10"
         id="circle1256" />
      <g
         id="g1262">
        <line
           x1="59.941059"
           y1="270.03784"
           x2="64.876419"
           y2="270.03784"
           style="fill:none;stroke:#00886a;stroke-width:1.4px;stroke-miterlimit:10"
           id="line1258" />
        <polygon
           points="64.463,270.038 62.088,267.664 64.103,267.664 66.477,270.038 64.103,272.411 62.088,272.411 "
           style="fill:#00886a"
           id="polygon1260" />
      </g>
      <circle
         cx="46.305309"
         cy="270.03787"
         r="13.63575"
         style="fill:none;stroke:#00886a;stroke-miterlimit:10"
         id="circle1264" />
      <g
         id="g1270">
        <line
           x1="59.941059"
           y1="219.12323"
           x2="64.876419"
           y2="219.12323"
           style="fill:none;stroke:#00886a;stroke-width:1.4px;stroke-miterlimit:10"
           id="line1266" />
        <polygon
           points="64.463,219.123 62.088,216.75 64.103,216.75 66.477,219.123 64.103,221.497 62.088,221.497 "
           style="fill:#00886a"
           id="polygon1268" />
      </g>
      <circle
         cx="46.305309"
         cy="219.12326"
         r="13.63575"
         style="fill:none;stroke:#00886a;stroke-miterlimit:10"
         id="circle1272" />
      <g
         id="g1278">
        <line
           x1="59.941059"
           y1="168.20868"
           x2="64.876419"
           y2="168.20868"
           style="fill:none;stroke:#00886a;stroke-width:1.4px;stroke-miterlimit:10"
           id="line1274" />
        <polygon
           points="64.463,168.209 62.088,165.835 64.103,165.835 66.477,168.209 64.103,170.582 62.088,170.582 "
           style="fill:#00886a"
           id="polygon1276" />
      </g>
      <circle
         cx="46.305309"
         cy="168.20865"
         r="13.63575"
         style="fill:none;stroke:#00886a;stroke-miterlimit:10"
         id="circle1280" />
      <circle
         cx="64.857101"
         cy="117.29405"
         r="13.63575"
         style="fill:none;stroke:#00886a;stroke-miterlimit:10"
         id="circle1282" />
      <circle
         cx="64.857101"
         cy="66.37944"
         r="13.63575"
         style="fill:none;stroke:#00886a;stroke-miterlimit:10"
         id="circle1284" />
      <g
         id="g1292">
        <path
           d="m 524.88317,279.674 a 0.659,0.659 0 0 1 -0.37532,-0.11668 25.12325,25.12325 0 1 1 28.45372,-0.0104 0.6642,0.6642 0 0 1 -0.75323,-1.0942 23.7968,23.7968 0 1 0 -26.94855,0.0104 0.66379,0.66379 0 0 1 -0.37662,1.21088 z"
           style="fill:#00886a"
           id="path1286" />
        <path
           d="m 525.9367,277.25422 a 1.99652,1.99652 0 1 1 -2.76941,0.55 1.99674,1.99674 0 0 1 2.76941,-0.55 z"
           style="fill:#00886a"
           id="path1288" />
        <circle
           cx="552.63855"
           cy="278.905"
           r="1.9965301"
           style="fill:#00886a"
           id="circle1290" />
      </g>
    </g>
  </g>
  <g
     inkscape:label="components"
     id="layer6"
     inkscape:groupmode="layer"
     style="display:none">
    <circle
       inkscape:label="START"
       id="circle1295"
       style="fill:#00ff00;stroke:none;stroke-width:0.352777;stroke-opacity:1"
       r="1.9999995"
       cy="59.340271"
       cx="16.335484" />
    <circle
       inkscape:label="IN"
       id="circle1297"
       style="fill:#00ff00;stroke:none;stroke-width:0.352777;stroke-opacity:1"
       r="1.9999995"
       cy="23.417191"
       cx="22.880144" />
    <circle
       inkscape:label="CLOCK"
       id="circle1299"
       style="fill:#00ff00;stroke:none;stroke-width:0.352777;stroke-opacity:1"
       r="1.9999995"
       cy="41.378731"
       cx="22.880144" />
    <circle
       inkscape:label="START"
       id="circle1301"
       style="fill:#ff0000;stroke:none;stroke-width:0.352777;stroke-opacity:1"
       r="1.9999995"
       cy="59.340271"
       cx="28.976393" />
    <circle
       inkscape:label="RESET"
       id="circle1303"
       style="fill:#00ff00;stroke:none;stroke-width:0.352777;stroke-opacity:1"
       r="1.9999995"
       cy="77.301819"
       cx="16.335484" />
    <circle
       inkscape:label="RESET"
       id="circle1305"
       style="fill:#ff0000;stroke:none;stroke-width:0.352777;stroke-opacity:1"
       r="1.9999995"
       cy="77.301819"
       cx="28.976393" />
    <circle
       inkscape:label="DIRECTION"
       id="circle1307"
       style="fill:#00ff00;stroke:none;stroke-width:0.352777;stroke-opacity:1"
       r="1.9999995"
       cy="95.263351"
       cx="16.335484" />
    <circle
       inkscape:label="DIRECTION"
       id="circle1309"
       style="fill:#ff0000;stroke:none;stroke-width:0.352777;stroke-opacity:1"
       r="1.9999995"
       cy="95.263351"
       cx="28.976393" />
    <circle
       inkscape:label="RECORD"
       id="circle1311"
       style="fill:#00ff00;stroke:none;stroke-width:0.352777;stroke-opacity:1"
       r="1.9999995"
       cy="113.2249"
       cx="16.335484" />
    <circle
       inkscape:label="RECORD"
       id="circle1313"
       style="fill:#ff0000;stroke:none;stroke-width:0.352777;stroke-opacity:1"
       r="1.9999995"
       cy="113.2249"
       cx="28.976393" />
    <circle
       inkscape:label="GAIN7"
       id="circle1315"
       style="fill:#ff0000;stroke:none;stroke-width:0.352777;stroke-opacity:1"
       r="1.9999995"
       cy="23.430317"
       cx="151.82921" />
    <circle
       inkscape:label="GAIN8"
       id="circle1317"
       style="fill:#ff0000;stroke:none;stroke-width:0.352777;stroke-opacity:1"
       r="1.9999995"
       cy="23.430317"
       cx="166.87895" />
    <circle
       inkscape:label="GAIN6"
       id="circle1319"
       style="fill:#ff0000;stroke:none;stroke-width:0.352777;stroke-opacity:1"
       r="1.9999995"
       cy="23.430317"
       cx="136.77946" />
    <circle
       inkscape:label="GAIN5"
       id="circle1321"
       style="fill:#ff0000;stroke:none;stroke-width:0.352777;stroke-opacity:1"
       r="1.9999995"
       cy="23.430317"
       cx="121.72973" />
    <circle
       inkscape:label="GAIN4"
       id="circle1323"
       style="fill:#ff0000;stroke:none;stroke-width:0.352777;stroke-opacity:1"
       r="1.9999995"
       cy="23.430317"
       cx="106.67999" />
    <circle
       inkscape:label="GAIN3"
       id="circle1325"
       style="fill:#ff0000;stroke:none;stroke-width:0.352777;stroke-opacity:1"
       r="1.9999995"
       cy="23.430317"
       cx="91.630257" />
    <circle
       inkscape:label="GAIN2"
       id="circle1327"
       style="fill:#ff0000;stroke:none;stroke-width:0.352777;stroke-opacity:1"
       r="1.9999995"
       cy="23.430317"
       cx="76.580521" />
    <circle
       inkscape:label="GAIN1"
       id="circle1329"
       style="fill:#ff0000;stroke:none;stroke-width:0.352777;stroke-opacity:1"
       r="1.9999995"
       cy="23.430317"
       cx="61.530788" />
    <circle
       inkscape:label="MUTE7"
       id="circle1331"
       style="fill:#ff0000;stroke:none;stroke-width:0.352777;stroke-opacity:1"
       r="1.9999995"
       cy="38.834175"
       cx="151.82921" />
    <circle
       inkscape:label="MUTE8"
       id="circle1333"
       style="fill:#ff0000;stroke:none;stroke-width:0.352777;stroke-opacity:1"
       r="1.9999995"
       cy="38.834175"
       cx="166.87895" />
    <circle
       inkscape:label="MUTE6"
       id="circle1335"
       style="fill:#ff0000;stroke:none;stroke-width:0.352777;stroke-opacity:1"
       r="1.9999995"
       cy="38.834175"
       cx="136.77946" />
    <circle
       inkscape:label="MUTE5"
       id="circle1337"
       style="fill:#ff0000;stroke:none;stroke-width:0.352777;stroke-opacity:1"
       r="1.9999995"
       cy="38.834175"
       cx="121.72973" />
    <circle
       inkscape:label="MUTE4"
       id="circle1339"
       style="fill:#ff0000;stroke:none;stroke-width:0.352777;stroke-opacity:1"
       r="1.9999995"
       cy="38.834175"
       cx="106.67999" />
    <circle
       inkscape:label="MUTE3"
       id="circle1341"
       style="fill:#ff0000;stroke:none;stroke-width:0.352777;stroke-opacity:1"
       r="1.9999995"
       cy="38.834175"
       cx="91.630257" />
    <circle
       inkscape:label="MUTE2"
       id="circle1343"
       style="fill:#ff0000;stroke:none;stroke-width:0.352777;stroke-opacity:1"
       r="1.9999995"
       cy="38.834175"
       cx="76.580521" />
    <circle
       inkscape:label="MUTE1"
       id="circle1345"
       style="fill:#ff0000;stroke:none;stroke-width:0.352777;stroke-opacity:1"
       r="1.9999995"
       cy="38.834175"
       cx="61.530788" />
    <circle
       inkscape:label="SKIP7"
       id="circle1347"
       style="fill:#ff0000;stroke:none;stroke-width:0.352777;stroke-opacity:1"
       r="1.9999995"
       cy="54.238022"
       cx="151.82921" />
    <circle
       inkscape:label="SKIP8"
       id="circle1349"
       style="fill:#ff0000;stroke:none;stroke-width:0.352777;stroke-opacity:1"
       r="1.9999995"
       cy="54.238022"
       cx="166.87895" />
    <circle
       inkscape:label="SKIP6"
       id="circle1351"
       style="fill:#ff0000;stroke:none;stroke-width:0.352777;stroke-opacity:1"
       r="1.9999995"
       cy="54.238022"
       cx="136.77946" />
    <circle
       inkscape:label="SKIP5"
       id="circle1353"
       style="fill:#ff0000;stroke:none;stroke-width:0.352777;stroke-opacity:1"
       r="1.9999995"
       cy="54.238022"
       cx="121.72973" />
    <circle
       inkscape:label="SKIP4"
       id="circle1355"
       style="fill:#ff0000;stroke:none;stroke-width:0.352777;stroke-opacity:1"
       r="1.9999995"
       cy="54.238022"
       cx="106.67999" />
    <circle
       inkscape:label="SKIP3"
       id="circle1357"
       style="fill:#ff0000;stroke:none;stroke-width:0.352777;stroke-opacity:1"
       r="1.9999995"
       cy="54.238022"
       cx="91.630257" />
    <circle
       inkscape:label="SKIP2"
       r="1.9999995"
       id="circle1359"
       style="fill:#ff0000;stroke:none;stroke-width:0.352777;stroke-opacity:1"
       cy="54.238022"
       cx="76.580521" />
    <circle
       inkscape:label="SKIP1"
       id="circle1361"
       style="fill:#ff0000;stroke:none;stroke-width:0.352777;stroke-opacity:1"
       r="1.9999995"
       cy="54.238022"
       cx="61.530788" />
    <circle
       inkscape:label="REVERSE7"
       id="circle1363"
       style="fill:#ff0000;stroke:none;stroke-width:0.352777;stroke-opacity:1"
       r="1.9999995"
       cy="69.641869"
       cx="151.82921" />
    <circle
       inkscape:label="REVERSE8"
       id="circle1365"
       style="fill:#ff0000;stroke:none;stroke-width:0.352777;stroke-opacity:1"
       r="1.9999995"
       cy="69.641869"
       cx="166.87895" />
    <circle
       inkscape:label="REVERSE6"
       id="circle1367"
       style="fill:#ff0000;stroke:none;stroke-width:0.352777;stroke-opacity:1"
       r="1.9999995"
       cy="69.641869"
       cx="136.77946" />
    <circle
       inkscape:label="REVERSE5"
       id="circle1369"
       style="fill:#ff0000;stroke:none;stroke-width:0.352777;stroke-opacity:1"
       r="1.9999995"
       cy="69.641869"
       cx="121.72973" />
    <circle
       inkscape:label="REVERSE4"
       id="circle1371"
       style="fill:#ff0000;stroke:none;stroke-width:0.352777;stroke-opacity:1"
       r="1.9999995"
       cy="69.641869"
       cx="106.67999" />
    <circle
       inkscape:label="REVERSE3"
       id="circle1373"
       style="fill:#ff0000;stroke:none;stroke-width:0.352777;stroke-opacity:1"
       r="1.9999995"
       cy="69.641869"
       cx="91.630257" />
    <circle
       inkscape:label="REVERSE2"
       id="circle1375"
       style="fill:#ff0000;stroke:none;stroke-width:0.352777;stroke-opacity:1"
       r="1.9999995"
       cy="69.641869"
       cx="76.580521" />
    <circle
       inkscape:label="REVERSE1"
       id="circle1377"
       style="fill:#ff0000;stroke:none;stroke-width:0.352777;stroke-opacity:1"
       r="1.9999995"
       cy="69.641869"
       cx="61.530788" />
    <circle
       inkscape:label="TRIGGER7"
       id="circle1379"
       style="fill:#ff0000;stroke:none;stroke-width:0.352777;stroke-opacity:1"
       r="1.9999995"
       cy="85.045723"
       cx="151.82921" />
    <circle
       inkscape:label="TRIGGER8"
       id="circle1381"
       style="fill:#ff0000;stroke:none;stroke-width:0.352777;stroke-opacity:1"
       r="1.9999995"
       cy="85.045723"
       cx="166.87895" />
    <circle
       inkscape:label="TRIGGER6"
       id="circle1383"
       style="fill:#ff0000;stroke:none;stroke-width:0.352777;stroke-opacity:1"
       r="1.9999995"
       cy="85.045723"
       cx="136.77946" />
    <circle
       inkscape:label="TRIGGER5"
       id="circle1385"
       style="fill:#ff0000;stroke:none;stroke-width:0.352777;stroke-opacity:1"
       r="1.9999995"
       cy="85.045723"
       cx="121.72973" />
    <circle
       inkscape:label="TRIGGER4"
       id="circle1387"
       style="fill:#ff0000;stroke:none;stroke-width:0.352777;stroke-opacity:1"
       r="1.9999995"
       cy="85.045723"
       cx="106.67999" />
    <circle
       inkscape:label="TRIGGER3"
       id="circle1389"
       style="fill:#ff0000;stroke:none;stroke-width:0.352777;stroke-opacity:1"
       r="1.9999995"
       cy="85.045723"
       cx="91.630257" />
    <circle
       inkscape:label="TRIGGER2"
       id="circle1391"
       style="fill:#ff0000;stroke:none;stroke-width:0.352777;stroke-opacity:1"
       r="1.9999995"
       cy="85.045723"
       cx="76.580521" />
    <circle
       inkscape:label="TRIGGER1"
       id="circle1393"
       style="fill:#ff0000;stroke:none;stroke-width:0.352777;stroke-opacity:1"
       r="1.9999995"
       cy="85.045723"
       cx="61.530788" />
    <circle
       inkscape:label="TRIGGER7"
       id="circle1395"
       style="fill:#00ff00;stroke:none;stroke-width:0.352777;stroke-opacity:1"
       r="1.9999995"
       cy="97.486786"
       cx="151.82921" />
    <circle
       inkscape:label="TRIGGER8"
       id="circle1397"
       style="fill:#00ff00;stroke:none;stroke-width:0.352777;stroke-opacity:1"
       r="1.9999995"
       cy="97.486786"
       cx="166.87895" />
    <circle
       inkscape:label="TRIGGER6"
       id="circle1399"
       style="fill:#00ff00;stroke:none;stroke-width:0.352777;stroke-opacity:1"
       r="1.9999995"
       cy="97.486786"
       cx="136.77946" />
    <circle
       inkscape:label="TRIGGER5"
       id="circle1401"
       style="fill:#00ff00;stroke:none;stroke-width:0.352777;stroke-opacity:1"
       r="1.9999995"
       cy="97.486786"
       cx="121.72973" />
    <circle
       inkscape:label="TRIGGER4"
       id="circle1403"
       style="fill:#00ff00;stroke:none;stroke-width:0.352777;stroke-opacity:1"
       r="1.9999995"
       cy="97.486786"
       cx="106.67999" />
    <circle
       inkscape:label="TRIGGER3"
       id="circle1405"
       style="fill:#00ff00;stroke:none;stroke-width:0.352777;stroke-opacity:1"
       r="1.9999995"
       cy="97.486786"
       cx="91.630257" />
    <circle
       inkscape:label="TRIGGER2"
       id="circle1407"
       style="fill:#00ff00;stroke:none;stroke-width:0.352777;stroke-opacity:1"
       r="1.9999995"
       cy="97.486786"
       cx="76.580521" />
    <circle
       inkscape:label="TRIGGER1"
       id="circle1409"
       style="fill:#00ff00;stroke:none;stroke-width:0.352777;stroke-opacity:1"
       r="1.9999995"
       cy="97.486786"
       cx="61.530788" />
    <circle
       inkscape:label="OUT7"
       id="circle1411"
       style="fill:#0000ff;stroke:none;stroke-width:0.352777;stroke-opacity:1"
       r="1.9999995"
       cy="110.76572"
       cx="151.82921" />
    <circle
       inkscape:label="OUT8"
       id="circle1413"
       style="fill:#0000ff;stroke:none;stroke-width:0.352777;stroke-opacity:1"
       r="1.9999995"
       cy="110.76572"
       cx="166.87895" />
    <circle
       inkscape:label="OUT6"
       id="circle1415"
       style="fill:#0000ff;stroke:none;stroke-width:0.352777;stroke-opacity:1"
       r="1.9999995"
       cy="110.76572"
       cx="136.77946" />
    <circle
       inkscape:label="OUT5"
       id="circle1417"
       style="fill:#0000ff;stroke:none;stroke-width:0.352777;stroke-opacity:1"
       r="1.9999995"
       cy="110.76572"
       cx="121.72973" />
    <circle
       inkscape:label="OUT4"
       id="circle1419"
       style="fill:#0000ff;stroke:none;stroke-width:0.352777;stroke-opacity:1"
       r="1.9999995"
       cy="110.76572"
       cx="106.67999" />
    <circle
       inkscape:label="OUT3"
       id="circle1421"
       style="fill:#0000ff;stroke:none;stroke-width:0.352777;stroke-opacity:1"
       r="1.9999995"
       cy="110.76572"
       cx="91.630257" />
    <circle
       inkscape:label="OUT2"
       id="circle1423"
       style="fill:#0000ff;stroke:none;stroke-width:0.352777;stroke-opacity:1"
       r="1.9999995"
       cy="110.76572"
       cx="76.580521" />
    <circle
       inkscape:label="OUT1"
       id="circle1425"
       style="fill:#0000ff;stroke:none;stroke-width:0.352777;stroke-opacity:1"
       r="1.9999995"
       cy="110.76572"
       cx="61.530788" />
    <circle
       inkscape:label="SEQ7"
       id="circle1427"
       style="fill:#ff00ff;stroke:none;stroke-width:0.352777;stroke-opacity:1"
       r="1.9999995"
       cy="117.50256"
       cx="151.82921" />
    <circle
       inkscape:label="SEQ8"
       id="circle1429"
       style="fill:#ff00ff;stroke:none;stroke-width:0.352777;stroke-opacity:1"
       r="1.9999995"
       cy="117.50256"
       cx="166.87895" />
    <circle
       inkscape:label="SEQ6"
       id="circle1431"
       style="fill:#ff00ff;stroke:none;stroke-width:0.352777;stroke-opacity:1"
       r="1.9999995"
       cy="117.50256"
       cx="136.77946" />
    <circle
       inkscape:label="SEQ5"
       id="circle1433"
       style="fill:#ff00ff;stroke:none;stroke-width:0.352777;stroke-opacity:1"
       r="1.9999995"
       cy="117.50256"
       cx="121.72973" />
    <circle
       inkscape:label="SEQ4"
       id="circle1435"
       style="fill:#ff00ff;stroke:none;stroke-width:0.352777;stroke-opacity:1"
       r="1.9999995"
       cy="117.50256"
       cx="106.67999" />
    <circle
       inkscape:label="SEQ3"
       id="circle1437"
       style="fill:#ff00ff;stroke:none;stroke-width:0.352777;stroke-opacity:1"
       r="1.9999995"
       cy="117.50256"
       cx="91.630257" />
    <circle
       inkscape:label="SEQ2"
       id="circle1439"
       style="fill:#ff00ff;stroke:none;stroke-width:0.352777;stroke-opacity:1"
       r="1.9999995"
       cy="117.50256"
       cx="76.580521" />
    <circle
       inkscape:label="SEQ1"
       id="circle1441"
       style="fill:#ff00ff;stroke:none;stroke-width:0.352777;stroke-opacity:1"
       r="1.9999995"
       cy="117.50256"
       cx="61.530788" />
    <circle
       inkscape:label="ATTACK"
       id="circle1443"
       style="fill:#ff0000;stroke:none;stroke-width:0.352777;stroke-opacity:1"
       r="1.9999995"
       cy="39.694206"
       cx="190.05064" />
    <circle
       inkscape:label="RELEASE"
       id="circle1445"
       style="fill:#ff0000;stroke:none;stroke-width:0.352777;stroke-opacity:1"
       r="1.9999995"
       cy="65.492813"
       cx="190.05064" />
    <circle
       inkscape:label="PITCH"
       id="circle1447"
       style="fill:#ff0000;stroke:none;stroke-width:0.352777;stroke-opacity:1"
       r="1.9999995"
       cy="91.271957"
       cx="190.05064" />
    <circle
       inkscape:label="MAINOUT"
       id="circle1449"
       style="fill:#0000ff;stroke:none;stroke-width:0.352777;stroke-opacity:1"
       r="1.9999995"
       cy="110.76572"
       cx="190.05064" />
  </g>
</svg>
