<svg xmlns="http://www.w3.org/2000/svg" width="213.36mm" height="128.5mm" viewBox="0 0 604.8 364.25197">
  <title>Nova</title>
  <g id="eb7d2a1c-02d8-4e42-8557-cc4f2111dbba" data-name="Nova">
    <g id="58c0ca23-e921-4315-bcbb-437ed53c35ce" data-name="BG">
      <rect width="604.8" height="364.25197" style="fill: #2a2d30"/>
    </g>
    <g id="ebd57243-157c-4503-8651-83cd44809f1e" data-name="Logo">
      <g>
        <polygon points="298.869 345.662 296.515 345.662 296.515 348.016 296.515 350.37 296.515 352.724 296.515 355.078 298.869 355.078 298.869 352.724 298.869 350.37 301.223 350.37 301.223 348.016 303.577 348.016 303.577 345.662 301.223 345.662 298.869 345.662" style="fill: #d7d7d7"/>
        <polygon points="301.223 355.078 303.577 355.078 305.931 355.078 308.285 355.078 308.285 352.724 308.285 350.37 308.285 348.016 308.285 345.662 305.931 345.662 305.931 348.016 305.931 350.37 303.577 350.37 303.577 352.724 301.223 352.724 301.223 355.078" style="fill: #d7d7d7"/>
        <polygon points="310.639 342.085 294.161 342.085 294.161 343.353 310.639 343.353 310.639 357.406 294.161 357.406 294.161 342.085 292.983 342.085 292.983 358.583 294.161 358.583 311.817 358.583 311.817 357.406 311.817 342.085 310.639 342.085" style="fill: #d7d7d7"/>
      </g>
    </g>
    <g id="1f8ac472-4c4a-4f41-b80e-ceb0248e7ca2" data-name="TITLE">
      <g>
        <path d="M232.92693,26.73842h.45452V7.63283l14.309,19.10559H248.92V7.63283l14.309,19.10559h1.22951V7.63283l14.309,19.10559h1.25884V5.66708h-1.55626V23.79451l-13.312-17.7923a1.22779,1.22779,0,0,0-1.03681-.47756,1.20619,1.20619,0,0,0-1.18972,1.24627V23.79451l-13.312-17.7923a1.22779,1.22779,0,0,0-1.03681-.47756,1.20619,1.20619,0,0,0-1.18972,1.24627V23.79451L234.081,6.00221a1.22777,1.22777,0,0,0-1.03681-.47756,1.20618,1.20618,0,0,0-1.18971,1.24627V23.79451l-13.312-17.7923a1.22779,1.22779,0,0,0-1.03681-.47756A1.20618,1.20618,0,0,0,216.316,6.77092v19.9675h1.52694V7.63283l14.309,19.10559h.775Z" style="fill: #d7d7d7"/>
        <path d="M388.48348,26.69548h-1.52694v-5.227H376.59891L373.057,26.18127a1.23739,1.23739,0,0,1-1.02424.4985,1.12851,1.12851,0,0,1-1.18972-1.24731v-3.964H360.48541l-3.54191,4.71278a1.23739,1.23739,0,0,1-1.02424.4985,1.12851,1.12851,0,0,1-1.18972-1.24731v-3.964H344.37086L340.829,26.18127a1.23739,1.23739,0,0,1-1.02424.4985,1.12943,1.12943,0,0,1-1.18971-1.24731v-3.964H328.25736l-3.54191,4.71278a1.23739,1.23739,0,0,1-1.02424.4985,1.21151,1.21151,0,0,1-.83573-.30162,1.33832,1.33832,0,0,1-.354-.94569V5.77809h1.55522V24.46582L337.81382,6.14988a1.33368,1.33368,0,0,1,1.11012-.58229,1.19222,1.19222,0,0,1,1.24627,1.18971V24.46582L353.92837,6.14988a1.33367,1.33367,0,0,1,1.11012-.58229,1.19222,1.19222,0,0,1,1.24627,1.18971l-.00105.17909.00105,17.52943L370.04187,6.14988a1.33367,1.33367,0,0,1,1.11012-.58229,1.19222,1.19222,0,0,1,1.24627,1.18971V24.46582L386.15537,6.14988a1.33367,1.33367,0,0,1,1.11012-.58229,1.16467,1.16467,0,0,1,1.218,1.18971Zm-10.73779-6.75393h9.21085V7.68624Zm-16.1135,0H370.843V7.68624Zm-16.1135,0h9.21085V7.68624Zm-16.11455,0H338.615V7.68729Z" style="fill: #d7d7d7"/>
        <g>
          <path d="M308.23367,27.09345a10.962,10.962,0,1,1,10.99019-10.93364A10.94553,10.94553,0,0,1,308.23367,27.09345Zm0-20.36861a9.42093,9.42093,0,1,0,9.46325,9.435A9.431,9.431,0,0,0,308.23367,6.72484Z" style="fill: #d7d7d7"/>
          <path d="M303.67378,27.09345A10.962,10.962,0,1,1,314.664,16.15981,10.94553,10.94553,0,0,1,303.67378,27.09345Zm0-20.36861a9.42093,9.42093,0,1,0,9.46325,9.435A9.431,9.431,0,0,0,303.67378,6.72484Z" style="fill: #d7d7d7"/>
          <path d="M299.11389,27.09345a10.962,10.962,0,1,1,10.99019-10.93364A10.94553,10.94553,0,0,1,299.11389,27.09345Zm0-20.36861a9.42093,9.42093,0,1,0,9.46325,9.435A9.431,9.431,0,0,0,299.11389,6.72484Z" style="fill: #d7d7d7"/>
          <path d="M294.554,27.09345a10.962,10.962,0,1,1,10.99019-10.93364A10.94553,10.94553,0,0,1,294.554,27.09345Zm0-20.36861a9.42093,9.42093,0,1,0,9.46325,9.435A9.431,9.431,0,0,0,294.554,6.72484Z" style="fill: #d7d7d7"/>
        </g>
      </g>
    </g>
    <g id="0b91ad78-4a24-4ef1-9d09-6dd1f481dfd1" data-name="Text">
      <g>
        <path d="M531.39045,222.54267c1.54,0,2.51953.94629,2.32129,2.39844a2.86605,2.86605,0,0,1-3.0586,2.38769h-1.02246l-.49511,2.915H527.8592l1.29785-7.70117Zm-1.13281,1.14453-.42969,2.49707h.93555a1.59154,1.59154,0,0,0,1.69433-1.24316c.13184-.78125-.374-1.25391-1.18848-1.25391Z" style="fill: #d7d7d7"/>
        <path d="M536.06525,225.18329l-.8584,5.06055h-1.166l.84766-5.06055Zm-.24218-2.72851a.716.716,0,1,1-.74805.71484A.72177.72177,0,0,1,535.82307,222.45478Z" style="fill: #d7d7d7"/>
        <path d="M537.75959,225.18329l.29687-1.75976h1.17676l-.30762,1.75976h.83594l-.1875,1.04492h-.82519l-.7041,4.01563h-1.14356l.68164-4.01563h-.81348l.18653-1.04492Z" style="fill: #d7d7d7"/>
        <path d="M542.13752,229.32a2.33443,2.33443,0,0,0,1.77051-.83594l-.18653,1.29786a2.7269,2.7269,0,0,1-1.71679.57226,2.2466,2.2466,0,0,1-2.30957-2.64062,3.06456,3.06456,0,0,1,3.04687-2.64063,2.40184,2.40184,0,0,1,1.60645.57227l-.18653,1.30957a1.55529,1.55529,0,0,0-1.45312-.84766,1.87222,1.87222,0,0,0-1.80371,1.60645A1.28716,1.28716,0,0,0,542.13752,229.32Z" style="fill: #d7d7d7"/>
        <path d="M547.79084,226.04169a1.34412,1.34412,0,0,0-1.29785,1.07813l-.53906,3.124h-1.18848l1.47461-8.58105h1.1875l-.72559,4.2246a1.87993,1.87993,0,0,1,1.5625-.83593c1.14356,0,1.55078.84668,1.40821,1.94726l-.56153,3.24512h-1.17676l.54981-3.08008C548.54963,226.57,548.42951,226.06318,547.79084,226.04169Z" style="fill: #d7d7d7"/>
      </g>
      <g>
        <path d="M524.35529,149.46845a2.08708,2.08708,0,0,1,2.333,2.39844,2.73732,2.73732,0,0,1-2.06836,2.25488l1.584,3.04785h-1.4961l-1.39746-2.916h-.76953l-.49512,2.916h-1.27637l1.29786-7.70117Zm-1.1875,1.13281-.44043,2.57422h.94629a1.598,1.598,0,0,0,1.69434-1.28711,1.06431,1.06431,0,0,0-1.18848-1.28711Z" style="fill: #d7d7d7"/>
        <path d="M527.08283,154.96943a2.944,2.944,0,0,1,2.9707-2.97071,1.99969,1.99969,0,0,1,2.17872,2.22266,2.45232,2.45232,0,0,1-.1211.69238h-3.83984c-.02246.81445.374,1.38672,1.18847,1.38672a1.77574,1.77574,0,0,0,1.47364-.80371l.99023.40723a2.9075,2.9075,0,0,1-2.56347,1.375A2.13428,2.13428,0,0,1,527.08283,154.96943Zm1.33106-.88086h2.59668v-.02149c0-.72656-.35157-1.166-1.05567-1.166A1.62721,1.62721,0,0,0,528.41389,154.08857Z" style="fill: #d7d7d7"/>
        <path d="M535.39924,148.58857l-1.48438,8.58105h-1.15527l1.45215-8.58105Z" style="fill: #d7d7d7"/>
        <path d="M535.44221,154.96943a2.944,2.944,0,0,1,2.9707-2.97071,1.99968,1.99968,0,0,1,2.17871,2.22266,2.4527,2.4527,0,0,1-.12109.69238h-3.83985c-.02246.81445.374,1.38672,1.18848,1.38672a1.77574,1.77574,0,0,0,1.47363-.80371l.99024.40723a2.9075,2.9075,0,0,1-2.56348,1.375A2.13428,2.13428,0,0,1,535.44221,154.96943Zm1.33105-.88086h2.59668v-.02149c0-.72656-.35156-1.166-1.05566-1.166A1.62721,1.62721,0,0,0,536.77326,154.08857Z" style="fill: #d7d7d7"/>
        <path d="M543.97932,151.99872a1.58358,1.58358,0,0,1,1.55078,1.09961l.165-.98926h1.166l-.87988,5.06055h-1.13281l.14257-.84766a2.27173,2.27173,0,0,1-1.82617.957,2.112,2.112,0,0,1-2.00195-2.63965A2.95486,2.95486,0,0,1,543.97932,151.99872Zm-.44043,4.2461a1.86248,1.86248,0,0,0,1.69433-1.60547c.11035-.84766-.30762-1.585-1.07812-1.60645a1.86325,1.86325,0,0,0-1.78223,1.60645C542.241,155.49677,542.68049,156.24482,543.53889,156.24482Z" style="fill: #d7d7d7"/>
        <path d="M549.41291,156.35517a.636.636,0,0,0,.70312-.59375c.01172-.44043-.48339-.6709-.96777-.8584-.61621-.24219-1.26465-.60547-1.24316-1.46289a1.59066,1.59066,0,0,1,1.78222-1.44141,2.354,2.354,0,0,1,1.85938.89063l-.66016.69336a1.675,1.675,0,0,0-1.21-.68164c-.39648,0-.66015.19726-.66015.48339-.02247.39649.418.56153.92382.77051.74805.31934,1.36426.66016,1.34278,1.54a1.714,1.714,0,0,1-1.85938,1.62793,2.74474,2.74474,0,0,1-2.21191-1.12207l.748-.68164A1.9432,1.9432,0,0,0,549.41291,156.35517Z" style="fill: #d7d7d7"/>
        <path d="M551.97541,154.96943a2.944,2.944,0,0,1,2.9707-2.97071,1.99968,1.99968,0,0,1,2.17871,2.22266,2.45234,2.45234,0,0,1-.12109.69238h-3.83984c-.02246.81445.374,1.38672,1.18847,1.38672a1.77574,1.77574,0,0,0,1.47364-.80371l.99023.40723a2.9075,2.9075,0,0,1-2.56348,1.375A2.13428,2.13428,0,0,1,551.97541,154.96943Zm1.33105-.88086h2.59668v-.02149c0-.72656-.35156-1.166-1.05566-1.166A1.62722,1.62722,0,0,0,553.30646,154.08857Z" style="fill: #d7d7d7"/>
      </g>
      <g>
        <path d="M528.90412,82.05829h-2.751l-1.18847,1.98047h-1.48438l5.082-8.14062,2.25586,8.14062H529.41ZM526.703,80.95868h2.02441l-.59375-2.44238Z" style="fill: #d7d7d7"/>
        <path d="M532.578,78.97821l.29687-1.75976h1.17676l-.30762,1.75976h.83594l-.1875,1.04493h-.82519l-.70411,4.01562h-1.14355l.68164-4.01562h-.81348l.18653-1.04493Z" style="fill: #d7d7d7"/>
        <path d="M535.45978,78.97821l.29688-1.75976h1.17676l-.30762,1.75976h.83594l-.1875,1.04493h-.8252l-.7041,4.01562h-1.14355l.68164-4.01562h-.81348l.18652-1.04493Z" style="fill: #d7d7d7"/>
        <path d="M540.21174,78.86786a1.5844,1.5844,0,0,1,1.55078,1.10059l.165-.99024h1.166l-.87988,5.06055h-1.13281l.14258-.84668a2.27175,2.27175,0,0,1-1.82618.957,2.11246,2.11246,0,0,1-2.002-2.64062A2.95487,2.95487,0,0,1,540.21174,78.86786Zm-.44043,4.24707a1.8625,1.8625,0,0,0,1.69433-1.60644c.11036-.84668-.30761-1.584-1.07812-1.60645a1.86415,1.86415,0,0,0-1.78223,1.60645C538.47346,82.36689,538.91291,83.11493,539.77131,83.11493Z" style="fill: #d7d7d7"/>
        <path d="M546.10725,83.11493a2.33439,2.33439,0,0,0,1.7705-.83593l-.18652,1.29785a2.72685,2.72685,0,0,1-1.7168.57226,2.2466,2.2466,0,0,1-2.30957-2.64062,3.06458,3.06458,0,0,1,3.04688-2.64063,2.40187,2.40187,0,0,1,1.60644.57227l-.18652,1.30957a1.5553,1.5553,0,0,0-1.45313-.84766,1.87223,1.87223,0,0,0-1.80371,1.60645A1.28717,1.28717,0,0,0,546.10725,83.11493Z" style="fill: #d7d7d7"/>
        <path d="M553.97248,78.97821l-2.55273,2.15625,1.83691,2.9043H551.8924l-1.59472-2.57422-.44043,2.57422h-1.14356l1.45215-8.581h1.166l-.90234,5.248,2.0459-1.72754Z" style="fill: #d7d7d7"/>
      </g>
      <g>
        <path d="M138.72834,308.87177a3.26915,3.26915,0,0,1,3.25684,3.98242,4.68358,4.68358,0,0,1-4.53223,4.01563,3.29618,3.29618,0,0,1-3.25684-4.01563A4.6806,4.6806,0,0,1,138.72834,308.87177Zm-1.14356,6.71094a3.176,3.176,0,0,0,3.03614-2.72852c.2207-1.4082-.48438-2.71777-2.02442-2.72851a3.176,3.176,0,0,0-3.03613,2.72851A2.1393,2.1393,0,0,0,137.58478,315.58271Z" style="fill: #d7d7d7"/>
        <path d="M144.64631,315.84638a1.285,1.285,0,0,0,1.29785-1.07813l.5498-3.124h1.17774l-.86914,5.06055h-1.18848l.1211-.74805a1.84812,1.84812,0,0,1-1.5625.85742c-1.14356,0-1.57325-.89062-1.419-1.958l.5498-3.21191H144.492l-.52832,3.08008C143.88654,315.31806,144.00764,315.84638,144.64631,315.84638Z" style="fill: #d7d7d7"/>
        <path d="M149.24494,311.64423l.29688-1.76074h1.17675l-.30761,1.76074h.83593l-.1875,1.04492h-.82519l-.7041,4.01563h-1.14356l.68164-4.01563h-.81347l.18652-1.04492Z" style="fill: #d7d7d7"/>
      </g>
      <g>
        <path d="M118.30158,253.72919h5.23731l-.209,1.19922h-1.96972l-1.11133,6.50195H118.951l1.12207-6.50195H118.0926Z" style="fill: #d7d7d7"/>
        <path d="M124.83674,257.37079c-.53906-.01172-.86914.43946-1.0127.957l-.53906,3.10254h-1.166l.87989-5.06054h1.167l-.09961.57129a1.64347,1.64347,0,0,1,1.19922-.68165,1.21923,1.21923,0,0,1,.87988.39551l-.7041.99024A.91067.91067,0,0,0,124.83674,257.37079Z" style="fill: #d7d7d7"/>
        <path d="M128.23518,256.36982l-.8584,5.06054h-1.166l.84766-5.06054Zm-.24219-2.72852a.71558.71558,0,1,1-.74805.71484A.72116.72116,0,0,1,127.993,253.6413Z" style="fill: #d7d7d7"/>
        <path d="M129.73127,261.78193a1.0651,1.0651,0,0,0,1.166,1.18847,1.81494,1.81494,0,0,0,1.73829-1.65039l.12109-.7041a2.282,2.282,0,0,1-1.77148.8584,2.08151,2.08151,0,0,1-2.002-2.59668,2.942,2.942,0,0,1,2.81641-2.61817,1.58645,1.58645,0,0,1,1.54,1.03418l.15429-.92382h1.14356l-.83594,4.95019a2.9342,2.9342,0,0,1-2.92676,2.68457,2.0338,2.0338,0,0,1-2.28808-2.2334Zm1.62793-1.3418a1.82133,1.82133,0,0,0,1.66113-1.375l.05567-.27539a1.24172,1.24172,0,0,0-1.10059-1.4961,1.82558,1.82558,0,0,0-1.78223,1.584A1.21368,1.21368,0,0,0,131.3592,260.44013Z" style="fill: #d7d7d7"/>
        <path d="M135.97932,261.78193a1.06509,1.06509,0,0,0,1.166,1.18847,1.81492,1.81492,0,0,0,1.73828-1.65039l.1211-.7041a2.282,2.282,0,0,1-1.77149.8584,2.08151,2.08151,0,0,1-2.00195-2.59668,2.942,2.942,0,0,1,2.81641-2.61817,1.58644,1.58644,0,0,1,1.54,1.03418l.1543-.92382h1.14356l-.83594,4.95019a2.9342,2.9342,0,0,1-2.92676,2.68457,2.03381,2.03381,0,0,1-2.28809-2.2334Zm1.62793-1.3418a1.82134,1.82134,0,0,0,1.66113-1.375l.05566-.27539a1.24172,1.24172,0,0,0-1.10058-1.4961,1.82557,1.82557,0,0,0-1.78223,1.584A1.21367,1.21367,0,0,0,137.60725,260.44013Z" style="fill: #d7d7d7"/>
        <path d="M141.49982,259.23017a2.944,2.944,0,0,1,2.97071-2.97071,1.99969,1.99969,0,0,1,2.17871,2.22266,2.45232,2.45232,0,0,1-.1211.69238H142.6883c-.02246.81446.374,1.38672,1.18848,1.38672a1.77571,1.77571,0,0,0,1.47363-.80371l.99023.40723a2.90748,2.90748,0,0,1-2.56347,1.375A2.13428,2.13428,0,0,1,141.49982,259.23017Zm1.33106-.88086h2.59668v-.02149c0-.72656-.35156-1.166-1.05567-1.166A1.62722,1.62722,0,0,0,142.83088,258.34931Z" style="fill: #d7d7d7"/>
        <path d="M149.87189,257.37079c-.53906-.01172-.86914.43946-1.01269.957l-.53906,3.10254h-1.166l.87988-5.06054h1.167l-.09961.57129a1.64344,1.64344,0,0,1,1.19921-.68165,1.21925,1.21925,0,0,1,.87989.39551l-.7041.99024A.91072.91072,0,0,0,149.87189,257.37079Z" style="fill: #d7d7d7"/>
      </g>
      <g>
        <path d="M118.534,192.43134a2.08708,2.08708,0,0,1,2.333,2.39844,2.73732,2.73732,0,0,1-2.06836,2.25488l1.584,3.04785h-1.4961l-1.39746-2.916h-.76953l-.49512,2.916h-1.27636l1.29785-7.70117Zm-1.1875,1.13281-.44043,2.57422h.94629a1.598,1.598,0,0,0,1.69434-1.28711,1.06431,1.06431,0,0,0-1.18848-1.28711Z" style="fill: #d7d7d7"/>
        <path d="M121.26154,197.93232a2.94457,2.94457,0,0,1,2.97071-2.97071,1.99969,1.99969,0,0,1,2.17871,2.22266,2.45232,2.45232,0,0,1-.1211.69238H122.45c-.02246.81446.374,1.38672,1.18848,1.38672a1.77571,1.77571,0,0,0,1.47363-.80371l.99023.40723a2.9075,2.9075,0,0,1-2.56347,1.375A2.13428,2.13428,0,0,1,121.26154,197.93232Zm1.33106-.88086h2.59668V197.03c0-.72656-.35157-1.166-1.05567-1.166A1.62722,1.62722,0,0,0,122.5926,197.05146Z" style="fill: #d7d7d7"/>
        <path d="M128.18146,195.072l.76954,3.23438,1.78222-3.23438h1.29883l-3.41113,5.544-1.70508-5.544Z" style="fill: #d7d7d7"/>
        <path d="M131.72248,197.93232a2.94456,2.94456,0,0,1,2.9707-2.97071,1.99969,1.99969,0,0,1,2.17871,2.22266,2.45234,2.45234,0,0,1-.12109.69238H132.911c-.02246.81446.374,1.38672,1.18847,1.38672a1.77571,1.77571,0,0,0,1.47364-.80371l.99023.40723a2.9075,2.9075,0,0,1-2.56348,1.375A2.13428,2.13428,0,0,1,131.72248,197.93232Zm1.33105-.88086h2.59668V197.03c0-.72656-.35156-1.166-1.05566-1.166A1.62723,1.62723,0,0,0,133.05353,197.05146Z" style="fill: #d7d7d7"/>
        <path d="M140.09455,196.07294c-.53906-.01172-.86914.43945-1.0127.957l-.53906,3.10254h-1.166l.87988-5.06055h1.166l-.09864.57129a1.64346,1.64346,0,0,1,1.19922-.68164,1.21921,1.21921,0,0,1,.87988.39551l-.7041.99024A.91067.91067,0,0,0,140.09455,196.07294Z" style="fill: #d7d7d7"/>
        <path d="M143.38166,199.31806a.63728.63728,0,0,0,.70508-.59375c.01074-.44043-.48438-.6709-.96875-.8584-.61621-.24219-1.26465-.60547-1.24317-1.46289a1.59067,1.59067,0,0,1,1.78223-1.44141,2.354,2.354,0,0,1,1.85938.89063l-.66016.69336a1.675,1.675,0,0,0-1.21-.68164c-.39649,0-.66016.19726-.66016.4834-.02246.39648.418.56152.92383.7705.74805.31934,1.36426.66016,1.34277,1.54a1.71394,1.71394,0,0,1-1.85937,1.62793,2.74476,2.74476,0,0,1-2.21192-1.12207l.74805-.68164A1.94306,1.94306,0,0,0,143.38166,199.31806Z" style="fill: #d7d7d7"/>
        <path d="M145.94514,197.93232a2.94456,2.94456,0,0,1,2.9707-2.97071,1.99969,1.99969,0,0,1,2.17871,2.22266,2.4527,2.4527,0,0,1-.12109.69238h-3.83985c-.02246.81446.374,1.38672,1.18848,1.38672a1.77571,1.77571,0,0,0,1.47363-.80371l.99024.40723a2.9075,2.9075,0,0,1-2.56348,1.375A2.13428,2.13428,0,0,1,145.94514,197.93232Zm1.33105-.88086h2.59668V197.03c0-.72656-.35156-1.166-1.05566-1.166A1.62722,1.62722,0,0,0,147.27619,197.05146Z" style="fill: #d7d7d7"/>
      </g>
      <g>
        <path d="M133.76838,155.45575a1.30452,1.30452,0,0,0,1.39648-1.18847c.02246-.74805-.61523-.99024-1.38574-1.3418a2.35888,2.35888,0,0,1-1.70508-2.13477,2.39054,2.39054,0,0,1,2.585-2.15625,2.48889,2.48889,0,0,1,2.40918,1.66114l-1.0664.56152a1.54522,1.54522,0,0,0-1.47461-1.06738.98843.98843,0,0,0-1.12207.91308c-.03321.61622.583.99024,1.45215,1.33106a2.21586,2.21586,0,0,1,1.65039,2.14551,2.71557,2.71557,0,0,1-2.80567,2.45312,2.85763,2.85763,0,0,1-2.67285-1.96875l.98926-.68262C132.40412,154.85029,132.88752,155.45575,133.76838,155.45575Z" style="fill: #d7d7d7"/>
        <path d="M142.45881,151.40693l-2.55274,2.15625,1.83692,2.90429h-1.36426l-1.59473-2.57422-.44043,2.57422H137.2l1.45215-8.58105h1.166l-.90234,5.248,2.0459-1.72753Z" style="fill: #d7d7d7"/>
        <path d="M144.64631,151.40693l-.8584,5.06054h-1.166l.84766-5.06054Zm-.24219-2.72852a.716.716,0,1,1-.74805.71484A.72177.72177,0,0,1,144.40412,148.67841Z" style="fill: #d7d7d7"/>
        <path d="M144.866,158.88837l1.29786-7.48144h1.166l-.13183.81445a2.21575,2.21575,0,0,1,1.79394-.94629,2.11112,2.11112,0,0,1,1.99121,2.66211,2.9467,2.9467,0,0,1-2.8164,2.66211,1.55232,1.55232,0,0,1-1.5293-1.07813l-.56152,3.36719Zm3.74024-6.53516a1.8413,1.8413,0,0,0-1.69434,1.584c-.10937.84766.31934,1.5625,1.07813,1.584a1.84221,1.84221,0,0,0,1.78222-1.584A1.23069,1.23069,0,0,0,148.60627,152.35321Z" style="fill: #d7d7d7"/>
      </g>
      <g>
        <path d="M129.19221,112.80341h-1.34278l2.4209-8.09668,2.15625,5.21484,4.00391-5.25878-.374,8.14062h-1.32031l.28613-4.63184-2.92578,3.92774-1.585-3.98242Z" style="fill: #d7d7d7"/>
        <path d="M139.38947,111.946a1.285,1.285,0,0,0,1.29785-1.0791l.54981-3.124h1.17773l-.86914,5.06055h-1.18847l.12109-.74805a1.84672,1.84672,0,0,1-1.5625.8584c-1.14356,0-1.57324-.8916-1.41895-1.958l.54981-3.21289h1.18848l-.52833,3.08008C138.62971,111.41767,138.7508,111.946,139.38947,111.946Z" style="fill: #d7d7d7"/>
        <path d="M143.98713,107.74286l.29687-1.75976h1.17676l-.30762,1.75976h.83594l-.1875,1.04493h-.82519l-.70411,4.01562h-1.14355l.68164-4.01562h-.81348l.18653-1.04493Z" style="fill: #d7d7d7"/>
        <path d="M145.94416,110.60321a2.94456,2.94456,0,0,1,2.9707-2.9707,2.00012,2.00012,0,0,1,2.17871,2.22266,2.45972,2.45972,0,0,1-.12109.69336h-3.83984c-.02246.81347.374,1.38574,1.18847,1.38574a1.77483,1.77483,0,0,0,1.47364-.80273l.99023.40722a2.90748,2.90748,0,0,1-2.56348,1.375A2.135,2.135,0,0,1,145.94416,110.60321Zm1.331-.87988h2.59668v-.02246c0-.72558-.35156-1.166-1.05566-1.166A1.62814,1.62814,0,0,0,147.27521,109.72333Z" style="fill: #d7d7d7"/>
      </g>
      <g>
        <path d="M132.6131,63.236H136.2c-.33008,2.18945-1.84863,4.1914-4.3125,4.1914a3.29638,3.29638,0,0,1-3.30078-4.01562,4.662,4.662,0,0,1,4.58789-3.98242,3.17126,3.17126,0,0,1,2.9707,1.71679l-1.13379.70313a2.03672,2.03672,0,0,0-1.958-1.21,3.25135,3.25135,0,0,0-3.11328,2.77246c-.2207,1.47461.53907,2.79492,2.0791,2.79492A2.86044,2.86044,0,0,0,134.66,64.33564h-2.24414Z" style="fill: #d7d7d7"/>
        <path d="M139.56525,62.0915a1.58473,1.58473,0,0,1,1.55078,1.09961l.165-.98926h1.166l-.87988,5.06054h-1.13282l.14258-.84668a2.27577,2.27577,0,0,1-1.82617.957,2.11284,2.11284,0,0,1-2.00195-2.64063A2.95485,2.95485,0,0,1,139.56525,62.0915Zm-.44043,4.24609a1.86152,1.86152,0,0,0,1.69434-1.60547c.11035-.84766-.30762-1.584-1.07813-1.60644a1.86323,1.86323,0,0,0-1.78222,1.60644C137.827,65.58954,138.26643,66.33759,139.12482,66.33759Z" style="fill: #d7d7d7"/>
        <path d="M145.1092,62.20185l-.8584,5.06054h-1.166l.84766-5.06054Zm-.24219-2.72852a.71605.71605,0,1,1-.74805.71485A.72117.72117,0,0,1,144.867,59.47333Z" style="fill: #d7d7d7"/>
        <path d="M148.80549,63.06025a1.28291,1.28291,0,0,0-1.28711,1.08886l-.53906,3.11328h-1.18848l.87988-5.06054h1.17774l-.1211.748a1.83307,1.83307,0,0,1,1.5625-.85839c1.1543,0,1.584.88086,1.42969,1.959l-.5498,3.21191h-1.21l.54981-3.081C149.58674,63.58759,149.46564,63.06025,148.80549,63.06025Z" style="fill: #d7d7d7"/>
      </g>
      <g>
        <path d="M63.63654,40.24286,62.29475,47.944H61.0174l1.29883-7.70118Z" style="fill: #d7d7d7"/>
        <path d="M66.84748,43.74189a1.28365,1.28365,0,0,0-1.28711,1.08886L65.02131,47.944h-1.1875l.8789-5.06055h1.17774l-.1211.748a1.83429,1.83429,0,0,1,1.5625-.8584c1.1543,0,1.584.88086,1.42969,1.959L68.21271,47.944H67.00178l.55078-3.08106C67.62873,44.26923,67.50764,43.74189,66.84748,43.74189Z" style="fill: #d7d7d7"/>
      </g>
      <g>
        <path d="M55.56135,97.60614A3.75152,3.75152,0,0,0,58.11408,96.528l-.23144,1.54a4.06881,4.06881,0,0,1-2.49707.81348,3.27934,3.27934,0,0,1-3.25684-3.98243,4.6604,4.6604,0,0,1,4.5332-3.98242,3.2013,3.2013,0,0,1,2.28809.81445l-.24219,1.55079a2.488,2.488,0,0,0-2.13476-1.08887,3.22069,3.22069,0,0,0-3.05762,2.706A2.1663,2.1663,0,0,0,55.56135,97.60614Z" style="fill: #d7d7d7"/>
        <path d="M61.83088,90.16864,60.3465,98.7497H59.19123l1.45215-8.58106Z" style="fill: #d7d7d7"/>
        <path d="M64.95588,93.5788A2.23189,2.23189,0,0,1,67.244,96.21943a3.07145,3.07145,0,0,1-3.03613,2.64062,2.23716,2.23716,0,0,1-2.28906-2.64062A3.0717,3.0717,0,0,1,64.95588,93.5788Zm-.66016,4.22461a1.83268,1.83268,0,0,0,1.73828-1.584,1.255,1.255,0,0,0-1.17773-1.584,1.83188,1.83188,0,0,0-1.73828,1.584A1.255,1.255,0,0,0,64.29572,97.80341Z" style="fill: #d7d7d7"/>
        <path d="M70.30158,97.82587a2.33442,2.33442,0,0,0,1.77051-.83594l-.18652,1.29786a2.72691,2.72691,0,0,1-1.7168.57226,2.2466,2.2466,0,0,1-2.30957-2.64062,3.06456,3.06456,0,0,1,3.04687-2.64063,2.40184,2.40184,0,0,1,1.60645.57227L72.326,95.46064a1.5553,1.5553,0,0,0-1.45313-.84766,1.87222,1.87222,0,0,0-1.80371,1.60645A1.28716,1.28716,0,0,0,70.30158,97.82587Z" style="fill: #d7d7d7"/>
        <path d="M78.16682,93.68915,75.61408,95.8454,77.451,98.7497H76.08674L74.492,96.17548l-.44043,2.57422H72.908l1.45215-8.58106h1.166l-.90234,5.24805,2.0459-1.72754Z" style="fill: #d7d7d7"/>
      </g>
      <g>
        <path d="M44.12287,251.49384l1.29688-7.70117h2.39843a3.12989,3.12989,0,0,1,3.23438,3.85058,4.44179,4.44179,0,0,1-4.4668,3.85059Zm2.41992-6.47949-.91406,5.25879h1.04492a3.02045,3.02045,0,0,0,3.0586-2.62989,2.04,2.04,0,0,0-2.07813-2.6289Z" style="fill: #d7d7d7"/>
        <path d="M53.64826,246.43329l-.85937,5.06055h-1.166l.84766-5.06055Zm-.24219-2.72851a.716.716,0,1,1-.748.71484A.72177.72177,0,0,1,53.40607,243.70478Z" style="fill: #d7d7d7"/>
        <path d="M57.04865,247.43427c-.53906-.01074-.86914.44043-1.01367.957l-.53906,3.10254h-1.166l.88086-5.06055h1.166l-.09961.57227a1.6447,1.6447,0,0,1,1.19922-.68262,1.21692,1.21692,0,0,1,.88086.39649l-.70508.99023A.905.905,0,0,0,57.04865,247.43427Z" style="fill: #d7d7d7"/>
        <path d="M58.21271,249.29364a2.944,2.944,0,0,1,2.97071-2.9707,1.99941,1.99941,0,0,1,2.17773,2.22266,2.45972,2.45972,0,0,1-.12109.69336H59.40021c-.02148.81347.375,1.38574,1.18946,1.38574a1.77177,1.77177,0,0,0,1.47265-.80274l.99024.40723a2.90467,2.90467,0,0,1-2.5625,1.375A2.13456,2.13456,0,0,1,58.21271,249.29364Zm1.33008-.87988h2.59766v-.02246c0-.72559-.35156-1.166-1.05664-1.166A1.62993,1.62993,0,0,0,59.54279,248.41376Z" style="fill: #d7d7d7"/>
        <path d="M66.37482,250.57a2.33491,2.33491,0,0,0,1.77149-.83594l-.1875,1.29786a2.72288,2.72288,0,0,1-1.7168.57226,2.24546,2.24546,0,0,1-2.30859-2.64062,3.06456,3.06456,0,0,1,3.04687-2.64063,2.40105,2.40105,0,0,1,1.60547.57227l-.18555,1.30957a1.55528,1.55528,0,0,0-1.45312-.84766,1.87244,1.87244,0,0,0-1.80469,1.60645A1.28763,1.28763,0,0,0,66.37482,250.57Z" style="fill: #d7d7d7"/>
        <path d="M70.01545,246.43329l.29687-1.75976h1.17774l-.3086,1.75976h.83594l-.1875,1.04492h-.82422l-.70508,4.01563H69.158l.68164-4.01563h-.81446l.1875-1.04492Z" style="fill: #d7d7d7"/>
        <path d="M74.04084,246.43329l-.85742,5.06055h-1.166l.84766-5.06055Zm-.24219-2.72851a.716.716,0,1,1-.748.71484A.72177.72177,0,0,1,73.79865,243.70478Z" style="fill: #d7d7d7"/>
        <path d="M77.8924,246.32294a2.23078,2.23078,0,0,1,2.28711,2.64063,3.07046,3.07046,0,0,1-3.03516,2.64062,2.2367,2.2367,0,0,1-2.28906-2.64062A3.071,3.071,0,0,1,77.8924,246.32294Zm-.66015,4.22461a1.83269,1.83269,0,0,0,1.73828-1.584,1.2555,1.2555,0,0,0-1.17774-1.584,1.83108,1.83108,0,0,0-1.73828,1.584A1.25456,1.25456,0,0,0,77.23225,250.54755Z" style="fill: #d7d7d7"/>
        <path d="M83.744,247.29169a1.28452,1.28452,0,0,0-1.28711,1.08887l-.53906,3.11328h-1.1875l.87891-5.06055h1.17773l-.12109.74805a1.8343,1.8343,0,0,1,1.5625-.8584c1.1543,0,1.584.88086,1.42969,1.959l-.54883,3.21191H83.89826l.55078-3.08008C84.52521,247.82,84.40412,247.29169,83.744,247.29169Z" style="fill: #d7d7d7"/>
      </g>
      <g>
        <path d="M56.05842,199.43525a3.75158,3.75158,0,0,0,2.55273-1.07813l-.23242,1.54a4.06032,4.06032,0,0,1-2.49609.81445,3.28035,3.28035,0,0,1-3.25782-3.98242,4.66118,4.66118,0,0,1,4.53321-3.98242,3.20737,3.20737,0,0,1,2.28906.81348L59.2049,195.112a2.49,2.49,0,0,0-2.13476-1.08984,3.22169,3.22169,0,0,0-3.0586,2.707A2.16562,2.16562,0,0,0,56.05842,199.43525Z" style="fill: #d7d7d7"/>
        <path d="M62.328,191.99872l-1.48438,8.58106H59.68732l1.45313-8.58106Z" style="fill: #d7d7d7"/>
        <path d="M62.37092,198.37958a2.944,2.944,0,0,1,2.9707-2.9707,2.00039,2.00039,0,0,1,2.17969,2.22266,2.45239,2.45239,0,0,1-.1211.69238H63.56037c-.02344.81445.373,1.38672,1.1875,1.38672a1.77878,1.77878,0,0,0,1.47461-.80371l.99023.40722a2.91029,2.91029,0,0,1-2.56445,1.375A2.13475,2.13475,0,0,1,62.37092,198.37958Zm1.332-.88086h2.5957v-.02148c0-.72656-.35156-1.166-1.05469-1.166A1.62543,1.62543,0,0,0,63.703,197.49872Z" style="fill: #d7d7d7"/>
        <path d="M70.908,195.40888a1.58358,1.58358,0,0,1,1.55078,1.09961l.16406-.98926h1.166L72.91,200.57978H71.77717l.14258-.84766a2.27453,2.27453,0,0,1-1.82618.957,2.1111,2.1111,0,0,1-2.00195-2.63965A2.9541,2.9541,0,0,1,70.908,195.40888Zm-.44141,4.24609a1.86343,1.86343,0,0,0,1.69531-1.60547c.10938-.84765-.30859-1.585-1.07812-1.60644a1.86344,1.86344,0,0,0-1.78321,1.60644C69.16975,198.90693,69.6092,199.655,70.46662,199.655Z" style="fill: #d7d7d7"/>
        <path d="M77.0135,196.52021c-.53907-.01172-.86915.43945-1.01368.957l-.53906,3.10254h-1.166l.88085-5.06055h1.166l-.09961.57129a1.64343,1.64343,0,0,1,1.19922-.68164,1.2197,1.2197,0,0,1,.88086.39551l-.70508.99023A.90833.90833,0,0,0,77.0135,196.52021Z" style="fill: #d7d7d7"/>
      </g>
      <g>
        <path d="M56.91,148.652a1.30381,1.30381,0,0,0,1.39648-1.1875c.02247-.748-.61523-.99023-1.38574-1.34277a2.35867,2.35867,0,0,1-1.70508-2.13379,2.39055,2.39055,0,0,1,2.585-2.15625,2.48765,2.48765,0,0,1,2.40918,1.66113l-1.0664.56055a1.54564,1.54564,0,0,0-1.47461-1.06641.98787.98787,0,0,0-1.12207.91309c-.0332.61523.583.98926,1.45215,1.33105a2.21411,2.21411,0,0,1,1.65039,2.14551,2.71557,2.71557,0,0,1-2.80567,2.45313,2.8585,2.8585,0,0,1-2.67285-1.96973l.98926-.68164C55.54572,148.04755,56.02912,148.652,56.91,148.652Z" style="fill: #d7d7d7"/>
        <path d="M61.3758,144.60419l.29688-1.76074h1.17675l-.30761,1.76074h.83593l-.1875,1.04492h-.82519l-.7041,4.01563H60.5174l.68164-4.01563h-.81347l.18652-1.04492Z" style="fill: #d7d7d7"/>
        <path d="M66.12775,144.49384a1.58356,1.58356,0,0,1,1.55078,1.09961l.165-.98926h1.166l-.87988,5.06055H66.99689l.14258-.84766a2.27312,2.27312,0,0,1-1.82617.957,2.112,2.112,0,0,1-2.002-2.63965A2.95486,2.95486,0,0,1,66.12775,144.49384Zm-.44043,4.24609a1.86248,1.86248,0,0,0,1.69434-1.60547c.11035-.84765-.30762-1.585-1.07813-1.60644a1.86324,1.86324,0,0,0-1.78222,1.60644C64.38947,147.99189,64.82893,148.73993,65.68732,148.73993Z" style="fill: #d7d7d7"/>
        <path d="M72.23225,145.60517c-.53907-.01172-.86915.43945-1.0127.957l-.53906,3.10254h-1.166l.87988-5.06055h1.166l-.09863.57129a1.64341,1.64341,0,0,1,1.19922-.68164,1.21923,1.21923,0,0,1,.87988.39551l-.7041.99023A.91068.91068,0,0,0,72.23225,145.60517Z" style="fill: #d7d7d7"/>
        <path d="M74.48713,144.60419l.29687-1.76074h1.17676l-.30762,1.76074h.83594l-.1875,1.04492h-.82519l-.70411,4.01563H73.62873l.68164-4.01563h-.81348l.18653-1.04492Z" style="fill: #d7d7d7"/>
      </g>
      <g>
        <path d="M51.992,294.70771a2.08638,2.08638,0,0,1,2.332,2.39843,2.736,2.736,0,0,1-2.06836,2.25489l1.584,3.04785h-1.4961l-1.39648-2.916h-.76953l-.4961,2.916H48.40607l1.29688-7.70117Zm-1.1875,1.13281-.44141,2.57422h.94727a1.597,1.597,0,0,0,1.69336-1.28711,1.06331,1.06331,0,0,0-1.1875-1.28711Z" style="fill: #fd495c"/>
        <path d="M54.71857,300.20868a2.944,2.944,0,0,1,2.97071-2.9707,2.00039,2.00039,0,0,1,2.17968,2.22266,2.45234,2.45234,0,0,1-.12109.69238H55.908c-.02344.81445.373,1.38672,1.1875,1.38672a1.77878,1.77878,0,0,0,1.47461-.80371l.99023.40722a2.91032,2.91032,0,0,1-2.56445,1.375A2.13476,2.13476,0,0,1,54.71857,300.20868Zm1.332-.88086h2.59571v-.02148c0-.72656-.35156-1.166-1.05469-1.166A1.62545,1.62545,0,0,0,56.0506,299.32782Z" style="fill: #fd495c"/>
        <path d="M62.88264,301.48407a2.3307,2.3307,0,0,0,1.76953-.83593l-.18555,1.29882a2.73613,2.73613,0,0,1-1.7168.57129,2.247,2.247,0,0,1-2.31054-2.63964,3.06456,3.06456,0,0,1,3.04687-2.64063,2.3977,2.3977,0,0,1,1.60742.57227l-.1875,1.30859a1.55619,1.55619,0,0,0-1.45312-.84668,1.87114,1.87114,0,0,0-1.80274,1.60645A1.2859,1.2859,0,0,0,62.88264,301.48407Z" style="fill: #fd495c"/>
        <path d="M68.67951,297.238a2.23078,2.23078,0,0,1,2.28711,2.64063,3.06961,3.06961,0,0,1-3.03516,2.63964,2.23593,2.23593,0,0,1-2.28906-2.63964A3.071,3.071,0,0,1,68.67951,297.238Zm-.66016,4.22461a1.83269,1.83269,0,0,0,1.73829-1.584,1.25632,1.25632,0,0,0-1.17774-1.585,1.832,1.832,0,0,0-1.73828,1.585A1.25456,1.25456,0,0,0,68.01935,301.46259Z" style="fill: #fd495c"/>
        <path d="M74.2342,298.34931c-.53906-.01172-.86914.43945-1.01367.957l-.53907,3.10254h-1.166l.88086-5.06055h1.166l-.09961.57129a1.64343,1.64343,0,0,1,1.19922-.68164,1.2197,1.2197,0,0,1,.88086.39551l-.70508.99023A.90831.90831,0,0,0,74.2342,298.34931Z" style="fill: #fd495c"/>
        <path d="M78.3592,297.238a1.58189,1.58189,0,0,1,1.5293,1.04492l.75781-4.45508h1.18945l-1.47461,8.58106H79.18342l.13281-.78125a2.23213,2.23213,0,0,1-1.77148.89062,2.11109,2.11109,0,0,1-2.002-2.63964A2.95411,2.95411,0,0,1,78.3592,297.238Zm-.44141,4.24609a1.86342,1.86342,0,0,0,1.69531-1.60546c.10938-.84766-.30859-1.585-1.07812-1.60645a1.86342,1.86342,0,0,0-1.7832,1.60645C76.62092,300.736,77.06037,301.48407,77.91779,301.48407Z" style="fill: #fd495c"/>
      </g>
    </g>
    <g id="20e0757b-a5f5-4ce3-88ac-c61d76ac3884" data-name="LEGEND">
      <g>
        <path d="M524.88317,133.46935a.65888.65888,0,0,1-.37532-.11668,25.12325,25.12325,0,1,1,28.45372-.01037.6642.6642,0,0,1-.75323-1.0942,23.7968,23.7968,0,1,0-26.94855.01037.66379.66379,0,0,1-.37662,1.21088Z" style="fill: #00886a"/>
        <path d="M525.9367,131.04958a1.99652,1.99652,0,1,1-2.76941.55A1.99674,1.99674,0,0,1,525.9367,131.04958Z" style="fill: #00886a"/>
        <circle cx="552.63857" cy="132.70037" r="1.99653" style="fill: #00886a"/>
      </g>
      <g>
        <path d="M524.88317,206.59926a.659.659,0,0,1-.37532-.11668,25.12325,25.12325,0,1,1,28.45372-.01037.6642.6642,0,0,1-.75323-1.0942,23.7968,23.7968,0,1,0-26.94855.01037.66379.66379,0,0,1-.37662,1.21088Z" style="fill: #00886a"/>
        <path d="M525.9367,204.17949a1.99652,1.99652,0,1,1-2.76941.55A1.99673,1.99673,0,0,1,525.9367,204.17949Z" style="fill: #00886a"/>
        <circle cx="552.63857" cy="205.83027" r="1.99653" style="fill: #00886a"/>
      </g>
      <g id="a7302338-bcb4-4f96-8cc5-d431d5eda35f" data-name="Halo">
        <circle cx="473.0427" cy="276.34053" r="13.63575" style="fill: none;stroke: #00886a;stroke-miterlimit: 10"/>
        <circle cx="430.38202" cy="276.34053" r="13.63575" style="fill: none;stroke: #00886a;stroke-miterlimit: 10"/>
        <circle cx="387.72135" cy="276.34053" r="13.63575" style="fill: none;stroke: #00886a;stroke-miterlimit: 10"/>
        <circle cx="345.06067" cy="276.34053" r="13.63575" style="fill: none;stroke: #00886a;stroke-miterlimit: 10"/>
        <circle cx="302.4" cy="276.34053" r="13.63575" style="fill: none;stroke: #00886a;stroke-miterlimit: 10"/>
        <circle cx="259.73933" cy="276.34053" r="13.63575" style="fill: none;stroke: #00886a;stroke-miterlimit: 10"/>
        <circle cx="217.07865" cy="276.34053" r="13.63575" style="fill: none;stroke: #00886a;stroke-miterlimit: 10"/>
        <circle cx="174.41798" cy="276.34053" r="13.63575" style="fill: none;stroke: #00886a;stroke-miterlimit: 10"/>
      </g>
      <g id="a1c7f1ef-7ba6-4d6c-9dce-bae091f31677" data-name="Lines">
        <rect x="448.17113" y="313.27294" width="7.08246" height="1.41732" rx="0.62107" ry="0.62107" style="fill: #00886a"/>
        <rect x="448.17113" y="313.27294" width="7.08246" height="1.41732" rx="0.62107" ry="0.62107" style="fill: #00886a"/>
        <rect x="405.51045" y="313.27294" width="7.08246" height="1.41732" rx="0.62107" ry="0.62107" style="fill: #00886a"/>
        <rect x="362.84978" y="313.27294" width="7.08246" height="1.41732" rx="0.62107" ry="0.62107" style="fill: #00886a"/>
        <rect x="320.18911" y="313.27294" width="7.08246" height="1.41732" rx="0.62107" ry="0.62107" style="fill: #00886a"/>
        <rect x="277.52843" y="313.27294" width="7.08246" height="1.41732" rx="0.62107" ry="0.62107" style="fill: #00886a"/>
        <rect x="234.86776" y="313.27294" width="7.08246" height="1.41732" rx="0.62107" ry="0.62107" style="fill: #00886a"/>
        <rect x="192.20709" y="313.27294" width="7.08246" height="1.41732" rx="0.62107" ry="0.62107" style="fill: #00886a"/>
        <rect x="448.17113" y="196.70138" width="7.08246" height="1.41732" rx="0.62107" ry="0.62107" style="fill: #00886a"/>
        <rect x="405.51045" y="196.70138" width="7.08246" height="1.41732" rx="0.62107" ry="0.62107" style="fill: #00886a"/>
        <rect x="362.84978" y="196.70138" width="7.08246" height="1.41732" rx="0.62107" ry="0.62107" style="fill: #00886a"/>
        <rect x="320.18911" y="196.70138" width="7.08246" height="1.41732" rx="0.62107" ry="0.62107" style="fill: #00886a"/>
        <rect x="277.52843" y="196.70138" width="7.08246" height="1.41732" rx="0.62107" ry="0.62107" style="fill: #00886a"/>
        <rect x="234.86776" y="196.70138" width="7.08246" height="1.41732" rx="0.62107" ry="0.62107" style="fill: #00886a"/>
        <rect x="192.20709" y="196.70138" width="7.08246" height="1.41732" rx="0.62107" ry="0.62107" style="fill: #00886a"/>
        <rect x="448.17113" y="109.37246" width="7.08246" height="1.41732" rx="0.62107" ry="0.62107" style="fill: #00886a"/>
        <rect x="405.51045" y="109.37246" width="7.08246" height="1.41732" rx="0.62107" ry="0.62107" style="fill: #00886a"/>
        <rect x="362.84978" y="109.37246" width="7.08246" height="1.41732" rx="0.62107" ry="0.62107" style="fill: #00886a"/>
        <rect x="320.18911" y="109.37246" width="7.08246" height="1.41732" rx="0.62107" ry="0.62107" style="fill: #00886a"/>
        <rect x="277.52843" y="109.37246" width="7.08246" height="1.41732" rx="0.62107" ry="0.62107" style="fill: #00886a"/>
        <rect x="234.86776" y="109.37246" width="7.08246" height="1.41732" rx="0.62107" ry="0.62107" style="fill: #00886a"/>
        <rect x="192.20709" y="109.37246" width="7.08246" height="1.41732" rx="0.62107" ry="0.62107" style="fill: #00886a"/>
      </g>
      <g id="14e6f003-0e80-4ca1-84c0-c7ee2bdbfe14" data-name="Arrows">
        <g>
          <path d="M163.99049,82.48248a.49629.49629,0,0,1-.28272-.0879,18.92439,18.92439,0,1,1,21.43311-.00781.50032.50032,0,0,1-.56738-.82422,17.92522,17.92522,0,1,0-20.29932.00782.5.5,0,0,1-.28369.91211Z" style="fill: #00886a"/>
          <path d="M164.78407,80.65975a1.5039,1.5039,0,1,1-2.08609.41429A1.50407,1.50407,0,0,1,164.78407,80.65975Z" style="fill: #00886a"/>
          <circle cx="184.89757" cy="81.90323" r="1.50391" style="fill: #00886a"/>
        </g>
        <g>
          <path d="M462.61521,82.48248a.49629.49629,0,0,1-.28272-.0879,18.92438,18.92438,0,1,1,21.43311-.00781.50032.50032,0,0,1-.56739-.82422,17.92521,17.92521,0,1,0-20.29931.00782.5.5,0,0,1-.28369.91211Z" style="fill: #00886a"/>
          <path d="M463.40878,80.65975a1.5039,1.5039,0,1,1-2.08609.41429A1.50407,1.50407,0,0,1,463.40878,80.65975Z" style="fill: #00886a"/>
          <circle cx="483.52229" cy="81.90323" r="1.50391" style="fill: #00886a"/>
        </g>
        <g>
          <line x1="430.38198" y1="262.7048" x2="430.38198" y2="257.76944" style="fill: none;stroke: #00886a;stroke-miterlimit: 10;stroke-width: 1.39999997615814px"/>
          <polygon points="432.756 260.558 430.382 258.183 428.009 260.558 428.009 258.543 430.382 256.169 432.756 258.543 432.756 260.558" style="fill: #00886a"/>
        </g>
        <g>
          <line x1="387.72133" y1="262.7048" x2="387.72133" y2="257.76944" style="fill: none;stroke: #00886a;stroke-miterlimit: 10;stroke-width: 1.39999997615814px"/>
          <polygon points="390.095 260.558 387.721 258.183 385.348 260.558 385.348 258.543 387.721 256.169 390.095 258.543 390.095 260.558" style="fill: #00886a"/>
        </g>
        <g>
          <line x1="345.06069" y1="262.7048" x2="345.06069" y2="257.76944" style="fill: none;stroke: #00886a;stroke-miterlimit: 10;stroke-width: 1.39999997615814px"/>
          <polygon points="347.434 260.558 345.061 258.183 342.687 260.558 342.687 258.543 345.061 256.169 347.434 258.543 347.434 260.558" style="fill: #00886a"/>
        </g>
        <g>
          <line x1="302.40004" y1="262.7048" x2="302.40004" y2="257.76944" style="fill: none;stroke: #00886a;stroke-miterlimit: 10;stroke-width: 1.39999997615814px"/>
          <polygon points="304.773 260.558 302.4 258.183 300.027 260.558 300.027 258.543 302.4 256.169 304.773 258.543 304.773 260.558" style="fill: #00886a"/>
        </g>
        <g>
          <line x1="259.73928" y1="262.7048" x2="259.73928" y2="257.76944" style="fill: none;stroke: #00886a;stroke-miterlimit: 10;stroke-width: 1.39999997615814px"/>
          <polygon points="262.113 260.558 259.739 258.183 257.366 260.558 257.366 258.543 259.739 256.169 262.113 258.543 262.113 260.558" style="fill: #00886a"/>
        </g>
        <g>
          <line x1="217.07863" y1="262.7048" x2="217.07863" y2="257.76944" style="fill: none;stroke: #00886a;stroke-miterlimit: 10;stroke-width: 1.39999997615814px"/>
          <polygon points="219.452 260.558 217.079 258.183 214.705 260.558 214.705 258.543 217.079 256.169 219.452 258.543 219.452 260.558" style="fill: #00886a"/>
        </g>
        <g>
          <line x1="473.04274" y1="262.7048" x2="473.04274" y2="257.76944" style="fill: none;stroke: #00886a;stroke-miterlimit: 10;stroke-width: 1.39999997615814px"/>
          <polygon points="475.416 260.558 473.043 258.183 470.669 260.558 470.669 258.543 473.043 256.169 475.416 258.543 475.416 260.558" style="fill: #00886a"/>
        </g>
        <g>
          <line x1="174.41799" y1="262.7048" x2="174.41799" y2="257.76944" style="fill: none;stroke: #00886a;stroke-miterlimit: 10;stroke-width: 1.39999997615814px"/>
          <polygon points="176.791 260.558 174.418 258.183 172.045 260.558 172.045 258.543 174.418 256.169 176.791 258.543 176.791 260.558" style="fill: #00886a"/>
        </g>
        <g>
          <line x1="489.06989" y1="313.98114" x2="521.43037" y2="313.98114" style="fill: none;stroke: #00886a;stroke-linecap: round;stroke-miterlimit: 10;stroke-width: 1.39999997615814px"/>
          <polygon points="518.642 316.355 521.017 313.981 518.642 311.608 520.657 311.608 523.03 313.981 520.657 316.355 518.642 316.355" style="fill: #00886a"/>
        </g>
      </g>
      <g>
        <path d="M419.95453,82.48248a.49626.49626,0,0,1-.28271-.0879,18.92438,18.92438,0,1,1,21.4331-.00781.50032.50032,0,0,1-.56738-.82422,17.92522,17.92522,0,1,0-20.29932.00782.5.5,0,0,1-.28369.91211Z" style="fill: #00886a"/>
        <path d="M420.74811,80.65975a1.5039,1.5039,0,1,1-2.08609.41429A1.50406,1.50406,0,0,1,420.74811,80.65975Z" style="fill: #00886a"/>
        <circle cx="440.86162" cy="81.90323" r="1.50391" style="fill: #00886a"/>
      </g>
      <g>
        <path d="M377.29386,82.48248a.49629.49629,0,0,1-.28272-.0879,18.92439,18.92439,0,1,1,21.43311-.00781.50032.50032,0,0,1-.56738-.82422,17.92522,17.92522,0,1,0-20.29932.00782.5.5,0,0,1-.28369.91211Z" style="fill: #00886a"/>
        <path d="M378.08744,80.65975a1.5039,1.5039,0,1,1-2.08609.41429A1.50407,1.50407,0,0,1,378.08744,80.65975Z" style="fill: #00886a"/>
        <circle cx="398.20094" cy="81.90323" r="1.50391" style="fill: #00886a"/>
      </g>
      <g>
        <path d="M334.63318,82.48248a.49626.49626,0,0,1-.28271-.0879,18.92438,18.92438,0,1,1,21.4331-.00781.50032.50032,0,0,1-.56738-.82422,17.92521,17.92521,0,1,0-20.29931.00782.5.5,0,0,1-.2837.91211Z" style="fill: #00886a"/>
        <path d="M335.42676,80.65975a1.5039,1.5039,0,1,1-2.08609.41429A1.50406,1.50406,0,0,1,335.42676,80.65975Z" style="fill: #00886a"/>
        <circle cx="355.54027" cy="81.90323" r="1.50391" style="fill: #00886a"/>
      </g>
      <g>
        <path d="M291.97251,82.48248a.49629.49629,0,0,1-.28272-.0879,18.92439,18.92439,0,1,1,21.43311-.00781.50032.50032,0,0,1-.56738-.82422,17.92522,17.92522,0,1,0-20.29932.00782.5.5,0,0,1-.28369.91211Z" style="fill: #00886a"/>
        <path d="M292.76609,80.65975A1.5039,1.5039,0,1,1,290.68,81.074,1.50407,1.50407,0,0,1,292.76609,80.65975Z" style="fill: #00886a"/>
        <circle cx="312.8796" cy="81.90323" r="1.50391" style="fill: #00886a"/>
      </g>
      <g>
        <path d="M249.31184,82.48248a.49629.49629,0,0,1-.28272-.0879,18.92438,18.92438,0,1,1,21.43311-.00781.50032.50032,0,0,1-.56739-.82422,17.92521,17.92521,0,1,0-20.29931.00782.5.5,0,0,1-.28369.91211Z" style="fill: #00886a"/>
        <path d="M250.10541,80.65975a1.5039,1.5039,0,1,1-2.08609.41429A1.50407,1.50407,0,0,1,250.10541,80.65975Z" style="fill: #00886a"/>
        <circle cx="270.21892" cy="81.90323" r="1.50391" style="fill: #00886a"/>
      </g>
      <g>
        <path d="M206.65116,82.48248a.49626.49626,0,0,1-.28271-.0879,18.92438,18.92438,0,1,1,21.4331-.00781.50032.50032,0,0,1-.56738-.82422,17.92522,17.92522,0,1,0-20.29932.00782.5.5,0,0,1-.28369.91211Z" style="fill: #00886a"/>
        <path d="M207.44474,80.65975a1.5039,1.5039,0,1,1-2.08609.41429A1.50406,1.50406,0,0,1,207.44474,80.65975Z" style="fill: #00886a"/>
        <circle cx="227.55825" cy="81.90323" r="1.50391" style="fill: #00886a"/>
      </g>
      <g>
        <line x1="59.94106" y1="320.95246" x2="64.87642" y2="320.95246" style="fill: none;stroke: #00886a;stroke-miterlimit: 10;stroke-width: 1.39999997615814px"/>
        <polygon points="62.088 323.326 64.463 320.952 62.088 318.579 64.103 318.579 66.477 320.952 64.103 323.326 62.088 323.326" style="fill: #00886a"/>
      </g>
      <circle cx="46.30531" cy="320.95248" r="13.63575" style="fill: none;stroke: #00886a;stroke-miterlimit: 10"/>
      <g>
        <line x1="59.94106" y1="270.03785" x2="64.87642" y2="270.03785" style="fill: none;stroke: #00886a;stroke-miterlimit: 10;stroke-width: 1.39999997615814px"/>
        <polygon points="62.088 272.411 64.463 270.038 62.088 267.664 64.103 267.664 66.477 270.038 64.103 272.411 62.088 272.411" style="fill: #00886a"/>
      </g>
      <circle cx="46.30531" cy="270.03787" r="13.63575" style="fill: none;stroke: #00886a;stroke-miterlimit: 10"/>
      <g>
        <line x1="59.94106" y1="219.12323" x2="64.87642" y2="219.12323" style="fill: none;stroke: #00886a;stroke-miterlimit: 10;stroke-width: 1.39999997615814px"/>
        <polygon points="62.088 221.497 64.463 219.123 62.088 216.75 64.103 216.75 66.477 219.123 64.103 221.497 62.088 221.497" style="fill: #00886a"/>
      </g>
      <circle cx="46.30531" cy="219.12326" r="13.63575" style="fill: none;stroke: #00886a;stroke-miterlimit: 10"/>
      <g>
        <line x1="59.94106" y1="168.20868" x2="64.87642" y2="168.20868" style="fill: none;stroke: #00886a;stroke-miterlimit: 10;stroke-width: 1.39999997615814px"/>
        <polygon points="62.088 170.582 64.463 168.209 62.088 165.835 64.103 165.835 66.477 168.209 64.103 170.582 62.088 170.582" style="fill: #00886a"/>
      </g>
      <circle cx="46.30531" cy="168.20865" r="13.63575" style="fill: none;stroke: #00886a;stroke-miterlimit: 10"/>
      <circle cx="64.8571" cy="117.29405" r="13.63575" style="fill: none;stroke: #00886a;stroke-miterlimit: 10"/>
      <circle cx="64.8571" cy="66.37944" r="13.63575" style="fill: none;stroke: #00886a;stroke-miterlimit: 10"/>
      <g>
        <path d="M524.88317,279.674a.659.659,0,0,1-.37532-.11668,25.12325,25.12325,0,1,1,28.45372-.01037.6642.6642,0,0,1-.75323-1.0942,23.7968,23.7968,0,1,0-26.94855.01037.66379.66379,0,0,1-.37662,1.21088Z" style="fill: #00886a"/>
        <path d="M525.9367,277.25422a1.99652,1.99652,0,1,1-2.76941.55A1.99674,1.99674,0,0,1,525.9367,277.25422Z" style="fill: #00886a"/>
        <circle cx="552.63857" cy="278.90501" r="1.99653" style="fill: #00886a"/>
      </g>
    </g>
  </g>
</svg>
