<svg xmlns="http://www.w3.org/2000/svg" width="40.6mm" height="128.5mm" viewBox="0 0 115.08661 364.25197">
  <title>master9</title>
  <g id="23d4c8a6-37ba-46aa-a5a0-c391fe01342a" data-name="Planck">
    <rect id="bdac14de-3951-490d-a577-4125c02500e1" data-name="BG" width="115.08661" height="364.25192" style="fill: #2a2d30"/>
    <g>
      <path d="M38.92994,10.19629h-.02685l-2.42481,2.4248H34.02662V23.09424L31.575,25.519V10.40918l2.45166-2.4248v2.18505h2.47852V7.95752H31.575V5.53271h7.355Z" style="fill: #d7d7d7"/>
      <path d="M47.617,13.52734V25.519H40.262V5.53271h2.45166V20.749l-2.31836,2.34522h4.79687V15.95215Z" style="fill: #d7d7d7"/>
      <path d="M56.30446,7.93115v13.564H53.87965V12.56787H51.40114V23.12061l-2.45166,2.45166V10.38281l2.45166-2.45166V12.541l2.39843-2.39795h.08008V7.93115H48.94948V5.47949H53.8528Z" style="fill: #d7d7d7"/>
      <path d="M64.99147,7.93115v13.564H62.56666V7.93115H57.63649V5.47949h4.90332Zm-7.355,2.45166,2.45166-2.45166V23.12061l-2.45166,2.45166Z" style="fill: #d7d7d7"/>
      <path d="M73.67848,5.53271V7.95752h-7.355V5.53271Zm-2.4248,10.41944,2.4248-2.42481V25.519h-7.355V10.40918l2.45166-2.4248V20.749L66.4568,23.09424h4.79688Z" style="fill: #d7d7d7"/>
      <path d="M82.179,5.47949v4.66358h-.02686L79.72731,12.541,82.179,14.99268v6.50244H79.72731V12.56787H77.46217V23.12061l-2.45166,2.45166V5.47949h2.45166v4.63672h2.26514V5.47949Z" style="fill: #d7d7d7"/>
    </g>
    <g id="5083864d-f2fb-40d3-a869-5e57e25d4751" data-name="Logo">
      <g>
        <polygon points="54.012 345.733 51.658 345.733 51.658 348.087 51.658 350.442 51.658 352.796 51.658 355.15 54.012 355.15 54.012 352.796 54.012 350.442 56.366 350.442 56.366 348.087 58.72 348.087 58.72 345.733 56.366 345.733 54.012 345.733" style="fill: #d7d7d7"/>
        <polygon points="56.366 355.15 58.72 355.15 61.075 355.15 63.429 355.15 63.429 352.796 63.429 350.442 63.429 348.087 63.429 345.733 61.075 345.733 61.075 348.087 61.075 350.442 58.72 350.442 58.72 352.796 56.366 352.796 56.366 355.15" style="fill: #d7d7d7"/>
        <polygon points="65.783 342.157 49.304 342.157 49.304 343.425 65.783 343.425 65.783 357.477 49.304 357.477 49.304 342.157 48.127 342.157 48.127 358.655 49.304 358.655 66.96 358.655 66.96 357.477 66.96 342.157 65.783 342.157" style="fill: #d7d7d7"/>
      </g>
    </g>
    <g id="1287b3d0-73ab-43f2-a494-669a6ab1be8f" data-name="Text">
      <g>
        <path d="M81.19215,57.7085H78.74977l1.32031-7.70118h2.22217c1.29834,0,2.31055.63819,2.1123,1.93653a2.04635,2.04635,0,0,1-1.50732,1.606,1.67272,1.67272,0,0,1,1.33154,1.93653C84.00856,56.98242,82.71022,57.7085,81.19215,57.7085Zm-.53906-3.6084-.43994,2.541,1.001-.01074A1.61285,1.61285,0,0,0,82.94118,55.354c.13232-.792-.42872-1.24316-1.23194-1.24316Zm.17578-.99024.8584-.01123a1.3186,1.3186,0,0,0,1.38623-1.01172c.10986-.61621-.33008-1.00146-.96826-1.00146l-.92432-.01074Z" style="fill: #d7d7d7"/>
        <path d="M87.20875,52.648l-.85791,5.06055h-1.166l.84668-5.06055Zm-.2417-2.72852a.71582.71582,0,1,1-.748.71485A.72148.72148,0,0,1,86.96705,49.91943Z" style="fill: #d7d7d7"/>
        <path d="M88.9026,52.648l.29688-1.76025h1.17724l-.3081,1.76025H90.905l-.187,1.04492h-.82519l-.70411,4.01563h-1.144l.68213-4.01563h-.81445l.187-1.04492Z" style="fill: #d7d7d7"/>
        <path d="M74.75758,67.56445a3.75035,3.75035,0,0,0,2.55225-1.07812l-.231,1.54a4.06542,4.06542,0,0,1-2.49756.814A3.27943,3.27943,0,0,1,71.325,64.85791a4.66107,4.66107,0,0,1,4.53272-3.98242,3.20152,3.20152,0,0,1,2.28808.814l-.24169,1.55127a2.48935,2.48935,0,0,0-2.13428-1.08935,3.22128,3.22128,0,0,0-3.0586,2.70654A2.16643,2.16643,0,0,0,74.75758,67.56445Z" style="fill: #d7d7d7"/>
        <path d="M81.08229,64.64893c-.53906-.01123-.86914.43994-1.01172.957l-.53906,3.10254H78.365l.88037-5.06055h1.166l-.09912.57178a1.64407,1.64407,0,0,1,1.19922-.68213,1.21975,1.21975,0,0,1,.88037.396l-.7041.99024A.9113.9113,0,0,0,81.08229,64.64893Z" style="fill: #d7d7d7"/>
        <path d="M84.54713,67.85059A1.285,1.285,0,0,0,85.845,66.772l.5503-3.124h1.17724l-.86914,5.06055H85.51491l.12109-.74805a1.8472,1.8472,0,0,1-1.562.85791c-1.14453,0-1.57324-.89111-1.41944-1.958l.5503-3.2124h1.188L83.865,66.728C83.78785,67.32227,83.909,67.85059,84.54713,67.85059Z" style="fill: #d7d7d7"/>
        <path d="M90.179,67.89453a.63727.63727,0,0,0,.7041-.59424c.01123-.43994-.48389-.6709-.96826-.85791-.61572-.24218-1.26514-.60547-1.24317-1.46338a1.59125,1.59125,0,0,1,1.78223-1.4414,2.35432,2.35432,0,0,1,1.85938.89111l-.66016.69336a1.67658,1.67658,0,0,0-1.21-.68213c-.396,0-.66016.19776-.66016.48389-.022.396.418.561.92432.77.74805.31933,1.36377.66015,1.3418,1.54053A1.71352,1.71352,0,0,1,90.1902,68.8623a2.74377,2.74377,0,0,1-2.21143-1.12207l.74805-.68212A1.94045,1.94045,0,0,0,90.179,67.89453Z" style="fill: #d7d7d7"/>
        <path d="M95.679,64.50586A1.34468,1.34468,0,0,0,94.38112,65.584l-.53907,3.12452H92.65358l1.47412-8.58106h1.18848l-.72608,4.22461a1.87892,1.87892,0,0,1,1.562-.83643c1.14405,0,1.55127.84717,1.40821,1.94727l-.561,3.24561H95.822l.5503-3.08057C96.43825,65.03418,96.31715,64.52783,95.679,64.50586Z" style="fill: #d7d7d7"/>
      </g>
      <g>
        <path d="M27.99635,119.14453H25.554l1.32031-7.70117h2.22217c1.29834,0,2.31055.63769,2.1123,1.93652a2.049,2.049,0,0,1-1.50732,1.60645,1.67172,1.67172,0,0,1,1.33154,1.93555C30.81276,118.418,29.51442,119.14453,27.99635,119.14453Zm-.53906-3.6084-.43994,2.541,1.001-.01074A1.61326,1.61326,0,0,0,29.74537,116.79c.13233-.792-.42871-1.24316-1.23193-1.24316Zm.17578-.99023.8584-.01074a1.31843,1.31843,0,0,0,1.38623-1.0127c.10986-.61621-.33008-1.001-.96826-1.001l-.92432-.01074Z" style="fill: #d7d7d7"/>
        <path d="M34.01295,114.084l-.85791,5.06055H31.989l.84668-5.06055Zm-.2417-2.72851a.71558.71558,0,1,1-.748.71484A.72117.72117,0,0,1,33.77125,111.35547Z" style="fill: #d7d7d7"/>
        <path d="M35.7068,114.084l.29688-1.76074h1.17724l-.3081,1.76074h.83642l-.187,1.04493H36.697l-.7041,4.01562h-1.144l.68213-4.01562h-.81445l.187-1.04493Z" style="fill: #d7d7d7"/>
        <path d="M17.55153,130.14453l1.29834-7.70117H21.2483a3.13051,3.13051,0,0,1,3.23438,3.85059,4.44236,4.44236,0,0,1-4.46631,3.85058Zm2.42041-6.47949-.91309,5.25879h1.04541a3.021,3.021,0,0,0,3.05811-2.62988,2.04041,2.04041,0,0,0-2.07911-2.62891Z" style="fill: #d7d7d7"/>
        <path d="M25.00953,127.94434a2.94427,2.94427,0,0,1,2.97071-2.97071,1.99932,1.99932,0,0,1,2.17822,2.22266,2.44906,2.44906,0,0,1-.12109.69336H26.198c-.022.81347.374,1.38574,1.188,1.38574a1.77808,1.77808,0,0,0,1.47412-.80273l.99023.40625a2.905,2.905,0,0,1-2.56347,1.376A2.13528,2.13528,0,0,1,25.00953,127.94434Zm1.33155-.87989h2.59619V127.042c0-.72558-.35205-1.166-1.05615-1.166A1.62787,1.62787,0,0,0,26.34108,127.06445Z" style="fill: #d7d7d7"/>
        <path d="M30.20143,132.56445l1.29834-7.48047h1.166l-.13183.81348a2.21565,2.21565,0,0,1,1.793-.94531,2.11066,2.11066,0,0,1,1.99121,2.66211,2.94755,2.94755,0,0,1-2.81641,2.66211,1.55478,1.55478,0,0,1-1.52929-1.07813l-.561,3.36621Zm3.74072-6.53418a1.83959,1.83959,0,0,0-1.69433,1.584c-.11036.84668.31884,1.5625,1.07812,1.584a1.843,1.843,0,0,0,1.78223-1.584A1.23136,1.23136,0,0,0,33.94215,126.03027Z" style="fill: #d7d7d7"/>
        <path d="M37.94557,125.084l.29687-1.76074h1.17725l-.3081,1.76074H39.948l-.187,1.04493h-.8252l-.7041,4.01562h-1.144l.68213-4.01562h-.81445l.187-1.04493Z" style="fill: #d7d7d7"/>
        <path d="M42.84059,125.94238a1.3437,1.3437,0,0,0-1.29785,1.07813l-.53906,3.124H39.8152l1.47412-8.58105H42.4778l-.72608,4.22461a1.87969,1.87969,0,0,1,1.562-.83594c1.14405,0,1.55127.84668,1.40821,1.94726l-.561,3.24512H42.98366l.55029-3.08008C43.59987,126.46973,43.47877,125.96387,42.84059,125.94238Z" style="fill: #d7d7d7"/>
      </g>
      <g>
        <path d="M51.93971,317.60449a3.26929,3.26929,0,0,1,3.25635,3.98242,4.68329,4.68329,0,0,1-4.53272,4.01563,3.29585,3.29585,0,0,1-3.25634-4.01563A4.68109,4.68109,0,0,1,51.93971,317.60449Zm-1.144,6.71094a3.17562,3.17562,0,0,0,3.03613-2.72852c.22021-1.4082-.48389-2.71777-2.02393-2.72851a3.17611,3.17611,0,0,0-3.03662,2.72851A2.13873,2.13873,0,0,0,50.79567,324.31543Z" style="fill: #d7d7d7"/>
        <path d="M57.85719,324.5791a1.28428,1.28428,0,0,0,1.29834-1.07812l.55029-3.124h1.17725l-.86914,5.06055H58.82545l.1211-.748a1.84654,1.84654,0,0,1-1.562.8584c-1.14453,0-1.57324-.8916-1.41943-1.959l.55029-3.21192h1.188l-.52783,3.08008C57.0984,324.05176,57.2195,324.5791,57.85719,324.5791Z" style="fill: #d7d7d7"/>
        <path d="M62.45534,320.377l.29687-1.76074h1.17725l-.30811,1.76074h.83643l-.187,1.04493h-.82519l-.7041,4.01562h-1.144l.68212-4.01562H61.4651l.187-1.04493Z" style="fill: #d7d7d7"/>
        <path d="M66.37135,324.62305a.63692.63692,0,0,0,.7041-.59375c.01123-.44043-.48388-.6709-.96826-.8584-.61621-.24219-1.26514-.60449-1.24316-1.46289a1.59156,1.59156,0,0,1,1.78222-1.44141,2.35178,2.35178,0,0,1,1.85938.8916l-.66016.69239a1.6759,1.6759,0,0,0-1.21-.68164c-.396,0-.66016.19824-.66016.48437-.022.39551.418.56055.92383.76953.74854.31934,1.36426.66016,1.34229,1.54a1.714,1.714,0,0,1-1.85889,1.62891,2.74641,2.74641,0,0,1-2.21142-1.12207l.748-.68262A1.93688,1.93688,0,0,0,66.37135,324.62305Z" style="fill: #d7d7d7"/>
      </g>
      <g>
        <path d="M54.06227,280.34082,52.72,288.042H51.4441l1.29786-7.70117Z" style="fill: #d7d7d7"/>
        <path d="M57.27418,283.83984a1.28379,1.28379,0,0,0-1.28711,1.08887L55.448,288.042H54.25953l.88038-5.06054h1.17724l-.12109.748a1.83223,1.83223,0,0,1,1.562-.8584c1.15527,0,1.58447.87989,1.43018,1.958l-.54981,3.21289H57.428l.55029-3.08008C58.05494,284.36719,57.93434,283.83984,57.27418,283.83984Z" style="fill: #d7d7d7"/>
        <path d="M62.114,287.22754a.63692.63692,0,0,0,.7041-.59375c.01123-.44043-.48389-.6709-.96826-.8584-.61573-.24219-1.26514-.60449-1.24317-1.46289a1.59157,1.59157,0,0,1,1.78223-1.44141,2.35174,2.35174,0,0,1,1.85937.89161l-.66015.69238a1.67594,1.67594,0,0,0-1.21-.68164c-.396,0-.66016.19824-.66016.48437-.022.39551.418.56055.92432.76953.748.31934,1.36377.66016,1.34179,1.54a1.71394,1.71394,0,0,1-1.85888,1.62891,2.74645,2.74645,0,0,1-2.21143-1.12207l.748-.68262A1.93683,1.93683,0,0,0,62.114,287.22754Z" style="fill: #d7d7d7"/>
      </g>
    </g>
    <g id="d8d54e00-1093-40f7-8148-74d1013eb25f" data-name="Legend">
      <circle cx="27.83852" cy="248.30211" r="13.63575" style="fill: none;stroke: #00cfb5;stroke-miterlimit: 10"/>
      <circle cx="87.18623" cy="284.69573" r="13.63575" style="fill: none;stroke: #e4a5cb;stroke-miterlimit: 10"/>
      <circle cx="27.83852" cy="284.69573" r="13.63575" style="fill: none;stroke: #00cfb5;stroke-miterlimit: 10"/>
      <g>
        <path d="M69.8847,124.04534a.65889.65889,0,0,1-.37533-.11668,25.12325,25.12325,0,1,1,28.45372-.01037.6642.6642,0,0,1-.75323-1.0942,23.7968,23.7968,0,1,0-26.94855.01037.66379.66379,0,0,1-.37661,1.21088Z" style="fill: #e4a5cb"/>
        <path d="M70.93822,121.62557a1.99652,1.99652,0,1,1-2.76941.55A1.99675,1.99675,0,0,1,70.93822,121.62557Z" style="fill: #e4a5cb"/>
        <circle cx="97.64009" cy="123.27636" r="1.99653" style="fill: #e4a5cb"/>
      </g>
      <g>
        <path d="M32.75323,192.51879a61.01627,61.01627,0,0,1,6.3476,18.36962,62.45411,62.45411,0,0,1-1.0428,28.46446" style="fill: none;stroke: #00cfb5;stroke-miterlimit: 10"/>
        <polygon points="32.114 195.077 32.858 192.797 35.137 193.542 34.486 192.259 32.206 191.515 31.463 193.794 32.114 195.077" style="fill: #00cfb5"/>
      </g>
      <g>
        <path d="M80.60178,133.08474c-3.39344,14.01386-7.30617,28.37814-8.77661,45.69953-1.84991,21.779.65218,41.72036,3.193,63.49077" style="fill: none;stroke: #e4a5cb;stroke-miterlimit: 10"/>
        <polygon points="78.496 134.633 80.538 133.374 81.795 135.416 82.128 134.015 80.87 131.974 78.829 133.232 78.496 134.633" style="fill: #e4a5cb"/>
      </g>
      <circle cx="87.18623" cy="248.30211" r="13.63575" style="fill: none;stroke: #e4a5cb;stroke-miterlimit: 10"/>
      <g>
        <circle cx="18.71894" cy="186.15851" r="1.48345" style="fill: #00cfb5"/>
        <circle cx="12.13227" cy="180.63164" r="1.48345" style="fill: #00cfb5"/>
        <circle cx="7.83313" cy="173.18531" r="1.48345" style="fill: #00cfb5"/>
        <circle cx="6.34005" cy="164.71766" r="1.48345" style="fill: #00cfb5"/>
        <circle cx="7.83313" cy="156.25001" r="1.48345" style="fill: #00cfb5"/>
        <circle cx="12.13227" cy="148.80368" r="1.48345" style="fill: #00cfb5"/>
        <circle cx="18.71894" cy="143.27681" r="1.48345" style="fill: #00cfb5"/>
        <circle cx="26.79868" cy="140.33602" r="1.48345" style="fill: #00cfb5"/>
        <circle cx="35.39696" cy="140.33602" r="1.48345" style="fill: #00cfb5"/>
        <circle cx="43.4767" cy="143.27681" r="1.48345" style="fill: #00cfb5"/>
        <circle cx="50.06337" cy="148.80368" r="1.48345" style="fill: #00cfb5"/>
        <circle cx="54.36251" cy="156.25001" r="1.48345" style="fill: #00cfb5"/>
        <circle cx="55.85558" cy="164.71766" r="1.48345" style="fill: #00cfb5"/>
        <circle cx="54.36251" cy="173.18531" r="1.48345" style="fill: #00cfb5"/>
        <circle cx="50.06337" cy="180.63164" r="1.48345" style="fill: #00cfb5"/>
        <circle cx="43.4767" cy="186.15851" r="1.48345" style="fill: #00cfb5"/>
      </g>
    </g>
  </g>
</svg>
