<svg xmlns="http://www.w3.org/2000/svg" width="40.6mm" height="128.5mm" viewBox="0 0 115.087 364.252"><title>Planck</title><g id="31505f79-d39a-452a-9051-8aa7664caf81" data-name="Planck"><rect id="d9477066-3181-4a6f-98da-338df8daf2e2" data-name="BG" width="115.087" height="364.252" fill="#333"/><rect id="af010ae2-17b0-4c8c-bab3-daff11286b35" data-name="Header" width="115.087" height="31.181" fill="#a87bc9"/><path d="M39.654,15.618a19.5,19.5,0,0,1-.206,2.727,12.839,12.839,0,0,1-.569,2.465,6.082,6.082,0,0,1-.533.526,5.023,5.023,0,0,1-.717.54,1.276,1.276,0,0,1-.641.232,7.656,7.656,0,0,1-1.228-.16,13.157,13.157,0,0,1-1.489-.359l.261,1.351h1.492l.2.962a1.6,1.6,0,0,1-.518.553,3.43,3.43,0,0,1-.9.453,3.293,3.293,0,0,1-1.072.178,1.743,1.743,0,0,1-.8-.179,1.5,1.5,0,0,1-.551-.458.958.958,0,0,1-.2-.564q0-.329.054-1.249a8.466,8.466,0,0,1,.142-1.278,7.915,7.915,0,0,1-.4-1.743q-.222-1.392-.391-2.9t-.171-1.908l.007-.082A2.378,2.378,0,0,1,32.307,14a2.487,2.487,0,0,1,1.138-.279,2,2,0,0,1,1.188.371l-.688,3.657.21.1,1.934-4.009a3.606,3.606,0,0,1,.417-.082,3.746,3.746,0,0,1,.547-.039,3.089,3.089,0,0,1,.75.116,5.136,5.136,0,0,1,.931.352,4.3,4.3,0,0,1,.891.576C39.644,14.994,39.654,15.28,39.654,15.618Zm-2.826,1.87c0-.314-.014-.62-.043-.92l-.341-.058q-.528.816-1.155,1.85t-.844,1.5c.082.035.2.089.355.162q.477.228.818.365a1.655,1.655,0,0,0,.595.136c.2,0,.316-.081.34-.243A16.494,16.494,0,0,0,36.828,17.488Z" fill="#333"/><path d="M47.932,21.2A8.1,8.1,0,0,1,48,22.275a4.465,4.465,0,0,1-.4,2.013,1.439,1.439,0,0,1-1.4.8,4.677,4.677,0,0,1-2.594-1.18,2.023,2.023,0,0,1-1.783,1.18,2.018,2.018,0,0,1-.63-.527,4.308,4.308,0,0,1-.573-.858,2.33,2.33,0,0,1-.268-.858l.645-.927a2,2,0,0,1,.7-.1h.239q-.231-1.362-.359-2.488t-.242-2.494q-.051-.6-.105-1.156t-.12-.942a1.568,1.568,0,0,1,.485-.468,3.31,3.31,0,0,1,.83-.39,3.191,3.191,0,0,1,.989-.156,2.215,2.215,0,0,1,.631.084,1.739,1.739,0,0,1,.536.268l-.761,7.989.094.007,1.833.342.689-2.157,1.333.174A3.956,3.956,0,0,1,47.932,21.2Z" fill="#333"/><path d="M56.946,21.793a19.517,19.517,0,0,1,.315,2.554c0,.088-.005.2-.015.348a2.813,2.813,0,0,1-1.514.391,3.277,3.277,0,0,1-1.033-.159,1.752,1.752,0,0,1-.735-.427l.587-1.971-.138-.656h-.391q-.9,0-1.841-.08a15.549,15.549,0,0,1-.289,1.726,2.573,2.573,0,0,1-.562,1.111,1.432,1.432,0,0,1-1.134.456,2.34,2.34,0,0,1-1.181-.311,1.627,1.627,0,0,1-.746-.848l.326-1.181.957.08,1.26-6.34a8.445,8.445,0,0,1-1.666-.355A4.555,4.555,0,0,1,49.41,14.8a2.524,2.524,0,0,1,.663-1.079,43.822,43.822,0,0,1,5.579,1.326Q56.63,19.89,56.946,21.793Zm-2.91-1.6-.753-3.448-.624-.051c-.023.42-.064.969-.119,1.645s-.119,1.347-.192,2.014Z" fill="#333"/><path d="M64.934,21.968q-1.1-6.391-1.1-7.5a.9.9,0,0,1,.362-.371,2.416,2.416,0,0,1,.652-.277,2.87,2.87,0,0,1,.754-.1,2.6,2.6,0,0,1,.659.092,1.607,1.607,0,0,1,.558.252l-.623,8.358a4.536,4.536,0,0,1,.514.747,2.806,2.806,0,0,1,.268.825,1.59,1.59,0,0,1-.742.824,2.516,2.516,0,0,1-1.192.27,5.082,5.082,0,0,1-1.134-.134,2.2,2.2,0,0,1-.888-.372A1.944,1.944,0,0,1,63,24.261a3.87,3.87,0,0,1,.048-.6,1.767,1.767,0,0,1,.141-.5l-3.166-6.7-.037.015q.145.477.471,1.764t.627,2.67a21.09,21.09,0,0,1,.387,2.232c.01.145.015.253.015.326a1.76,1.76,0,0,1-.373,1.174,1.441,1.441,0,0,1-1.163.441,2.4,2.4,0,0,1-1.21-.318,1.919,1.919,0,0,1-.811-.855l.224-1.182.8.066L58.9,16.305a2.464,2.464,0,0,1-.671-.093,2.048,2.048,0,0,1-.583-.265,3.772,3.772,0,0,1,.243-1.4,1.9,1.9,0,0,1,.909-.97,8.929,8.929,0,0,1,1.645.4,6.135,6.135,0,0,1,1.652.822L64.905,22Z" fill="#333"/><path d="M71.107,17.464q0,1.124-.105,2.652t-.221,2.507a3.272,3.272,0,0,0,.66-.174q.384-.138,1.282-.486.768-.3,1.159-.442l.544,1.21a4.467,4.467,0,0,1-.826.972,6.069,6.069,0,0,1-1.308.905,4.34,4.34,0,0,1-1.547.478,1.72,1.72,0,0,1-.8-.253,6.649,6.649,0,0,1-.88-.58,1.671,1.671,0,0,1-.348-.351.883.883,0,0,1-.138-.352q-.085-1.746-.173-3.05-.2-3.059-.384-4.043a5.313,5.313,0,0,1-.044-.833,1.873,1.873,0,0,1,.417-.718,4.394,4.394,0,0,1,.779-.706,3.748,3.748,0,0,1,.877-.482,8.243,8.243,0,0,1,.945.241,8.414,8.414,0,0,1,.931.332h2.29a4.152,4.152,0,0,1,.094.863,3.63,3.63,0,0,1-.178,1.157,3.412,3.412,0,0,1-.42.881,1.251,1.251,0,0,1-.431.432,7.342,7.342,0,0,1-2.036-1.319l-.174.159Q71.107,16.914,71.107,17.464Z" fill="#333"/><path d="M84.294,22.413a3.146,3.146,0,0,1-.2,1.083,4.2,4.2,0,0,1-.478.953,1.383,1.383,0,0,1-.551.478,1.707,1.707,0,0,1-.746.159,2.867,2.867,0,0,1-.884-.152,1.328,1.328,0,0,1-.688-.5,3.874,3.874,0,0,1-.5-.942A9.426,9.426,0,0,1,79.8,21.6q-.842-.064-1.406-.123a28.962,28.962,0,0,1,.428,3.333,2.42,2.42,0,0,1-1.283.275,3.815,3.815,0,0,1-1.141-.157,2.1,2.1,0,0,1-.8-.429,17.634,17.634,0,0,1,.275-2.275,14.2,14.2,0,0,1,.5-2.029,14.746,14.746,0,0,1-.467-1.837q-.2-1.033-.438-2.518L75.3,14.812a1.636,1.636,0,0,1,.486-.5,3.22,3.22,0,0,1,.829-.421,2.983,2.983,0,0,1,.989-.168,1.7,1.7,0,0,1,1.2.442L78.28,20.2l.768-.087q.457-.862.931-1.989a11.019,11.019,0,0,0,.613-1.75l-1.022-.362a4.072,4.072,0,0,1,.409-1.435,1.807,1.807,0,0,1,.823-.862,3.729,3.729,0,0,1,.876.131,4.373,4.373,0,0,1,1.047.423,2.836,2.836,0,0,1,.873.736,7.106,7.106,0,0,1-.851,2.387,24.531,24.531,0,0,1-1.684,2.735,9.284,9.284,0,0,0,1.4,2.167,3.35,3.35,0,0,0,.978-.623Z" fill="#333"/><polygon points="54.012 345.733 51.658 345.733 51.658 348.087 51.658 350.442 51.658 352.796 51.658 355.15 54.012 355.15 54.012 352.796 54.012 350.442 56.366 350.442 56.366 348.087 58.72 348.087 58.72 345.733 56.366 345.733 54.012 345.733" fill="#d7d7d7"/><polygon points="56.366 355.15 58.72 355.15 61.075 355.15 63.429 355.15 63.429 352.796 63.429 350.442 63.429 348.087 63.429 345.733 61.075 345.733 61.075 348.087 61.075 350.442 58.72 350.442 58.72 352.796 56.366 352.796 56.366 355.15" fill="#d7d7d7"/><polygon points="65.783 342.157 49.304 342.157 49.304 343.425 65.783 343.425 65.783 357.477 49.304 357.477 49.304 342.157 48.127 342.157 48.127 358.655 49.304 358.655 66.96 358.655 66.96 357.477 66.96 342.157 65.783 342.157" fill="#d7d7d7"/><g id="e1bddaf8-ad73-4b9e-ac54-13e120ae8314" data-name="Text"><path d="M81.192,57.708H78.75l1.32-7.7h2.222c1.3,0,2.311.639,2.113,1.937A2.048,2.048,0,0,1,82.9,53.55a1.673,1.673,0,0,1,1.332,1.936C84.009,56.982,82.71,57.708,81.192,57.708ZM80.653,54.1l-.44,2.541,1-.011a1.613,1.613,0,0,0,1.727-1.276c.132-.792-.429-1.243-1.232-1.243Zm.176-.99.858-.011a1.318,1.318,0,0,0,1.386-1.012c.11-.616-.33-1-.968-1l-.924-.01Z" fill="#d7d7d7"/><path d="M87.209,52.648l-.858,5.06H85.185l.847-5.06Zm-.242-2.729a.716.716,0,1,1-.748.715A.722.722,0,0,1,86.967,49.919Z" fill="#d7d7d7"/><path d="M88.9,52.648l.3-1.76h1.178l-.308,1.76h.836l-.187,1.045h-.825l-.7,4.015H88.045l.682-4.015h-.815l.187-1.045Z" fill="#d7d7d7"/><path d="M74.758,69.765a3.756,3.756,0,0,0,2.552-1.078l-.231,1.54a4.067,4.067,0,0,1-2.5.814,3.28,3.28,0,0,1-3.256-3.983,4.66,4.66,0,0,1,4.533-3.982,3.2,3.2,0,0,1,2.288.814L77.9,65.441a2.488,2.488,0,0,0-2.134-1.089,3.221,3.221,0,0,0-3.059,2.706A2.167,2.167,0,0,0,74.758,69.765Z" fill="#d7d7d7"/><path d="M81.082,66.849c-.539-.011-.869.44-1.011.957l-.539,3.1H78.365l.88-5.061h1.166l-.1.572a1.642,1.642,0,0,1,1.2-.682,1.218,1.218,0,0,1,.881.4l-.7.99A.911.911,0,0,0,81.082,66.849Z" fill="#d7d7d7"/><path d="M84.547,70.051a1.285,1.285,0,0,0,1.3-1.079l.55-3.124h1.178l-.87,5.061H85.515l.121-.748a1.849,1.849,0,0,1-1.562.858c-1.145,0-1.573-.892-1.419-1.958l.55-3.213h1.188l-.528,3.08C83.788,69.522,83.909,70.051,84.547,70.051Z" fill="#d7d7d7"/><path d="M90.179,70.1a.637.637,0,0,0,.7-.595c.011-.439-.484-.67-.968-.857-.616-.243-1.265-.606-1.243-1.464a1.591,1.591,0,0,1,1.782-1.441,2.353,2.353,0,0,1,1.859.891l-.66.693a1.676,1.676,0,0,0-1.21-.682c-.4,0-.66.2-.66.484-.022.4.418.561.924.77.748.319,1.364.66,1.342,1.541a1.714,1.714,0,0,1-1.859,1.627,2.742,2.742,0,0,1-2.211-1.122l.748-.682A1.942,1.942,0,0,0,90.179,70.1Z" fill="#d7d7d7"/><path d="M95.679,66.706a1.345,1.345,0,0,0-1.3,1.078l-.539,3.125H92.654l1.474-8.581h1.188l-.726,4.224a1.88,1.88,0,0,1,1.562-.836c1.144,0,1.551.847,1.408,1.947L97,70.909H95.822l.55-3.081C96.438,67.234,96.317,66.728,95.679,66.706Z" fill="#d7d7d7"/><path d="M28,119.145H25.554l1.32-7.7H29.1c1.3,0,2.311.638,2.113,1.937a2.049,2.049,0,0,1-1.508,1.606,1.672,1.672,0,0,1,1.332,1.936C30.813,118.418,29.514,119.145,28,119.145Zm-.539-3.609-.44,2.541,1-.011a1.613,1.613,0,0,0,1.727-1.276c.133-.792-.428-1.243-1.232-1.243Zm.176-.99.858-.011a1.32,1.32,0,0,0,1.387-1.013c.11-.616-.33-1-.969-1l-.924-.01Z" fill="#d7d7d7"/><path d="M34.013,114.084l-.858,5.061H31.989l.847-5.061Zm-.242-2.729a.716.716,0,1,1-.748.715A.721.721,0,0,1,33.771,111.355Z" fill="#d7d7d7"/><path d="M35.707,114.084l.3-1.761h1.177l-.308,1.761h.836l-.187,1.045H36.7l-.7,4.016H34.849l.682-4.016h-.814l.187-1.045Z" fill="#d7d7d7"/><path d="M17.552,132.345l1.3-7.7h2.4a3.131,3.131,0,0,1,3.235,3.85,4.443,4.443,0,0,1-4.467,3.851Zm2.42-6.48-.913,5.259H20.1a3.02,3.02,0,0,0,3.058-2.63,2.04,2.04,0,0,0-2.079-2.629Z" fill="#d7d7d7"/><path d="M25.01,130.145a2.944,2.944,0,0,1,2.97-2.971,2,2,0,0,1,2.178,2.222,2.42,2.42,0,0,1-.121.694H26.2c-.022.813.374,1.386,1.188,1.386a1.779,1.779,0,0,0,1.474-.8l.99.406a2.9,2.9,0,0,1-2.563,1.376A2.135,2.135,0,0,1,25.01,130.145Zm1.331-.88h2.6v-.023c0-.725-.352-1.166-1.056-1.166A1.629,1.629,0,0,0,26.341,129.265Z" fill="#d7d7d7"/><path d="M30.2,134.765l1.3-7.481h1.166l-.132.814a2.215,2.215,0,0,1,1.793-.946,2.111,2.111,0,0,1,1.991,2.662,2.948,2.948,0,0,1-2.816,2.663,1.556,1.556,0,0,1-1.53-1.079l-.561,3.367Zm3.741-6.535a1.84,1.84,0,0,0-1.694,1.584c-.111.847.319,1.563,1.078,1.584a1.842,1.842,0,0,0,1.782-1.584A1.231,1.231,0,0,0,33.942,128.23Z" fill="#d7d7d7"/><path d="M37.946,127.284l.3-1.761H39.42l-.308,1.761h.836l-.187,1.045h-.825l-.7,4.016H37.088l.682-4.016h-.815l.187-1.045Z" fill="#d7d7d7"/><path d="M42.841,128.143a1.342,1.342,0,0,0-1.3,1.078L41,132.345H39.815l1.474-8.581h1.189l-.726,4.224a1.88,1.88,0,0,1,1.562-.836c1.144,0,1.551.847,1.408,1.948l-.561,3.245H42.984l.55-3.08C43.6,128.67,43.479,128.164,42.841,128.143Z" fill="#d7d7d7"/><path d="M51.94,317.6a3.27,3.27,0,0,1,3.256,3.983,4.684,4.684,0,0,1-4.533,4.016,3.3,3.3,0,0,1-3.256-4.016A4.681,4.681,0,0,1,51.94,317.6ZM50.8,324.315a3.175,3.175,0,0,0,3.036-2.728c.22-1.408-.484-2.718-2.024-2.729a3.178,3.178,0,0,0-3.037,2.729A2.138,2.138,0,0,0,50.8,324.315Z" fill="#d7d7d7"/><path d="M57.857,324.579a1.285,1.285,0,0,0,1.3-1.078l.55-3.124h1.177l-.869,5.061H58.825l.122-.749a1.846,1.846,0,0,1-1.562.859c-1.145,0-1.574-.892-1.42-1.959l.55-3.212H57.7l-.527,3.08C57.1,324.052,57.219,324.579,57.857,324.579Z" fill="#d7d7d7"/><path d="M62.455,320.377l.3-1.761h1.177l-.308,1.761h.837l-.187,1.045h-.825l-.7,4.016H61.6l.683-4.016h-.815l.187-1.045Z" fill="#d7d7d7"/><path d="M66.371,324.623a.637.637,0,0,0,.7-.594c.012-.44-.483-.671-.968-.858-.616-.242-1.265-.605-1.243-1.463a1.591,1.591,0,0,1,1.782-1.441,2.352,2.352,0,0,1,1.86.891l-.661.693a1.676,1.676,0,0,0-1.209-.682c-.4,0-.661.2-.661.484-.022.4.418.561.924.77.749.319,1.364.66,1.342,1.54a1.713,1.713,0,0,1-1.858,1.629,2.748,2.748,0,0,1-2.212-1.122l.748-.683A1.937,1.937,0,0,0,66.371,324.623Z" fill="#d7d7d7"/><path d="M54.062,280.341l-1.342,7.7H51.444l1.3-7.7Z" fill="#d7d7d7"/><path d="M57.274,283.84a1.284,1.284,0,0,0-1.287,1.089l-.539,3.113H54.26l.88-5.061h1.177l-.121.748a1.833,1.833,0,0,1,1.562-.858c1.155,0,1.585.88,1.43,1.958l-.55,3.213h-1.21l.55-3.08C58.055,284.367,57.934,283.84,57.274,283.84Z" fill="#d7d7d7"/><path d="M62.114,287.228a.637.637,0,0,0,.7-.594c.011-.441-.484-.671-.968-.859-.616-.242-1.265-.6-1.243-1.463a1.591,1.591,0,0,1,1.782-1.441,2.351,2.351,0,0,1,1.859.892l-.66.692a1.676,1.676,0,0,0-1.21-.682c-.4,0-.66.2-.66.485-.022.4.418.56.924.769.748.32,1.364.661,1.342,1.54a1.714,1.714,0,0,1-1.859,1.629,2.744,2.744,0,0,1-2.211-1.122l.748-.682A1.94,1.94,0,0,0,62.114,287.228Z" fill="#d7d7d7"/></g><g id="7802c155-8577-47c3-9fab-ed3b5eb956a0" data-name="Legend"><circle cx="27.839" cy="248.302" r="13.636" fill="none" stroke="#00cfb5" stroke-miterlimit="10"/><circle cx="87.186" cy="284.696" r="13.636" fill="none" stroke="#e4a5cb" stroke-miterlimit="10"/><circle cx="27.839" cy="284.696" r="13.636" fill="none" stroke="#00cfb5" stroke-miterlimit="10"/><path d="M69.885,124.045a.661.661,0,0,1-.376-.116,25.124,25.124,0,1,1,28.454-.011.664.664,0,0,1-.753-1.094,23.8,23.8,0,1,0-26.949.01.664.664,0,0,1-.376,1.211Z" fill="#e4a5cb"/><path d="M70.938,121.626a2,2,0,1,1-2.769.55A2,2,0,0,1,70.938,121.626Z" fill="#e4a5cb"/><circle cx="97.64" cy="123.276" r="1.997" fill="#e4a5cb"/><path d="M42.722,315.378c3.559-.817,11.5-.564,13.644-1.918,2.184-1.377.069-17.9,6.37-18.306,3.016-.193,4.957.228,8.4-1.077" fill="none" stroke="#d7d7d7" stroke-miterlimit="10" stroke-dasharray="2 2"/><polygon points="69.93 296.347 70.915 294.16 68.728 293.176 70.074 292.666 72.26 293.65 71.276 295.836 69.93 296.347" fill="#d7d7d7"/><path d="M32.753,192.519A61.013,61.013,0,0,1,39.1,210.888a62.452,62.452,0,0,1-1.043,28.465" fill="none" stroke="#00cfb5" stroke-miterlimit="10"/><polygon points="32.114 195.077 32.858 192.797 35.137 193.542 34.486 192.259 32.206 191.515 31.463 193.794 32.114 195.077" fill="#00cfb5"/><path d="M80.605,133.085c-3.288,13.907-5.159,26.24-6.63,43.559a327.925,327.925,0,0,0,1.043,65.631" fill="none" stroke="#e4a5cb" stroke-miterlimit="10"/><polygon points="78.54 134.671 80.56 133.379 81.851 135.4 82.161 133.994 80.87 131.974 78.849 133.265 78.54 134.671" fill="#e4a5cb"/><circle cx="87.186" cy="248.302" r="13.636" fill="none" stroke="#e4a5cb" stroke-miterlimit="10"/><circle cx="14.911" cy="185.014" r="1.483" fill="#00cfb5"/><circle cx="9.52" cy="178.784" r="1.483" fill="#00cfb5"/><circle cx="6.417" cy="171.152" r="1.483" fill="#00cfb5"/><circle cx="5.932" cy="162.928" r="1.483" fill="#00cfb5"/><circle cx="8.116" cy="154.984" r="1.483" fill="#00cfb5"/><circle cx="12.738" cy="148.164" r="1.483" fill="#00cfb5"/><circle cx="19.307" cy="143.192" r="1.483" fill="#00cfb5"/><circle cx="27.126" cy="140.595" r="1.483" fill="#00cfb5"/><circle cx="35.364" cy="140.649" r="1.483" fill="#00cfb5"/><circle cx="43.148" cy="143.348" r="1.483" fill="#00cfb5"/><circle cx="49.651" cy="148.406" r="1.483" fill="#00cfb5"/><circle cx="54.183" cy="155.286" r="1.483" fill="#00cfb5"/><circle cx="56.264" cy="163.257" r="1.483" fill="#00cfb5"/><circle cx="55.671" cy="171.475" r="1.483" fill="#00cfb5"/><circle cx="52.468" cy="179.065" r="1.483" fill="#00cfb5"/><circle cx="46.996" cy="185.224" r="1.483" fill="#00cfb5"/></g></g></svg>