<svg xmlns="http://www.w3.org/2000/svg" width="40.6mm" height="128.5mm" viewBox="0 0 115.087 364.252"><title>Planck</title><g id="637d3faf-5f4e-477e-ad3e-5f10fd8f2d02" data-name="Planck"><rect id="1bc75f19-81d9-407a-a5c7-8105bd959282" data-name="BG" width="115.087" height="364.252" fill="#333"/><rect id="a9b3d4da-01c3-4b44-a73c-0ba7a74451a5" data-name="Header" width="115.087" height="31.181" fill="#a87bc9"/><path d="M28.61,12.66a31.451,31.451,0,0,1-.334,4.41,20.75,20.75,0,0,1-.92,3.988,9.856,9.856,0,0,1-.862.851,8.3,8.3,0,0,1-1.16.873,2.057,2.057,0,0,1-1.037.376,12.462,12.462,0,0,1-1.986-.26,21.057,21.057,0,0,1-2.408-.58l.421,2.186h2.415l.328,1.556a2.605,2.605,0,0,1-.838.893,5.5,5.5,0,0,1-1.459.733,5.338,5.338,0,0,1-1.735.288,2.815,2.815,0,0,1-1.3-.29,2.426,2.426,0,0,1-.89-.74,1.556,1.556,0,0,1-.322-.913q0-.532.087-2.019a13.612,13.612,0,0,1,.229-2.068,13.012,13.012,0,0,1-.639-2.819q-.357-2.25-.632-4.686T15.3,11.353l.012-.132a3.833,3.833,0,0,1,1.418-1.183,4.035,4.035,0,0,1,1.84-.451,3.244,3.244,0,0,1,1.922.6L19.375,16.1l.34.164,3.129-6.482a5.467,5.467,0,0,1,.674-.133,6.063,6.063,0,0,1,.885-.064,4.969,4.969,0,0,1,1.212.188,8.171,8.171,0,0,1,1.506.569,6.967,6.967,0,0,1,1.442.932Q28.61,11.84,28.61,12.66Zm-4.571,3.026q0-.762-.07-1.488l-.551-.1q-.855,1.32-1.869,2.993T20.184,19.53c.133.055.324.143.574.262q.774.369,1.324.589a2.648,2.648,0,0,0,.961.22q.492,0,.551-.393A26.728,26.728,0,0,0,24.039,15.686Z" fill="#333"/><path d="M42,21.691a13.019,13.019,0,0,1,.112,1.736,7.21,7.21,0,0,1-.651,3.256,2.325,2.325,0,0,1-2.267,1.291A7.572,7.572,0,0,1,35,26.065a3.27,3.27,0,0,1-2.882,1.909,3.259,3.259,0,0,1-1.02-.853,6.916,6.916,0,0,1-.926-1.387,3.729,3.729,0,0,1-.433-1.388l1.043-1.5a3.226,3.226,0,0,1,1.136-.17H32.3q-.375-2.2-.58-4.023t-.393-4.034q-.081-.964-.17-1.869t-.193-1.523a2.514,2.514,0,0,1,.785-.757,5.318,5.318,0,0,1,1.342-.631,5.143,5.143,0,0,1,1.6-.253,3.55,3.55,0,0,1,1.019.136,2.8,2.8,0,0,1,.867.434l-1.23,12.92.152.012,2.965.554,1.113-3.489,2.157.281A6.455,6.455,0,0,1,42,21.691Z" fill="#333"/><path d="M56.576,22.648a31.488,31.488,0,0,1,.51,4.131c0,.14-.008.328-.023.562a4.552,4.552,0,0,1-2.449.633,5.278,5.278,0,0,1-1.67-.258,2.821,2.821,0,0,1-1.19-.691l.949-3.188-.222-1.06h-.633q-1.454,0-2.977-.129a25.062,25.062,0,0,1-.468,2.791,4.151,4.151,0,0,1-.909,1.8,2.315,2.315,0,0,1-1.834.738,3.775,3.775,0,0,1-1.91-.5A2.627,2.627,0,0,1,42.543,26.1l.528-1.91,1.546.129,2.04-10.254a13.54,13.54,0,0,1-2.7-.574,7.413,7.413,0,0,1,.428-2.157,4.089,4.089,0,0,1,1.072-1.746,70.778,70.778,0,0,1,9.024,2.145Q56.066,19.571,56.576,22.648Zm-4.7-2.584-1.218-5.578L49.645,14.4q-.059,1.018-.194,2.66t-.31,3.258Z" fill="#333"/><path d="M69.5,22.93Q67.715,12.6,67.715,10.8a1.46,1.46,0,0,1,.586-.6,3.828,3.828,0,0,1,1.055-.448,4.641,4.641,0,0,1,1.218-.166,4.147,4.147,0,0,1,1.067.15,2.544,2.544,0,0,1,.9.408L71.535,23.662a7.426,7.426,0,0,1,.832,1.207,4.54,4.54,0,0,1,.434,1.336,2.585,2.585,0,0,1-1.2,1.333,4.068,4.068,0,0,1-1.928.436,8.258,8.258,0,0,1-1.834-.217,3.551,3.551,0,0,1-1.435-.6,3.005,3.005,0,0,1-.036-.516,6.363,6.363,0,0,1,.077-.966,2.9,2.9,0,0,1,.228-.813L61.551,14.029l-.059.023q.236.774.762,2.854t1.014,4.318a34.558,34.558,0,0,1,.627,3.609c.015.235.023.411.023.528a2.844,2.844,0,0,1-.6,1.9,2.327,2.327,0,0,1-1.881.715,3.874,3.874,0,0,1-1.957-.516,3.1,3.1,0,0,1-1.313-1.382l.364-1.91,1.3.105-.093-10.5a3.94,3.94,0,0,1-1.084-.151,3.264,3.264,0,0,1-.944-.429,6.1,6.1,0,0,1,.393-2.27,3.069,3.069,0,0,1,1.471-1.569,14.616,14.616,0,0,1,2.66.645A9.851,9.851,0,0,1,64.9,11.329l4.546,11.648Z" fill="#333"/><path d="M79.481,15.646q0,1.816-.17,4.289t-.358,4.055a5.276,5.276,0,0,0,1.067-.282q.621-.22,2.074-.785,1.242-.48,1.875-.715l.879,1.958a7.149,7.149,0,0,1-1.336,1.57A9.771,9.771,0,0,1,81.4,27.2a7.026,7.026,0,0,1-2.5.773,2.786,2.786,0,0,1-1.3-.41,10.83,10.83,0,0,1-1.424-.938,2.6,2.6,0,0,1-.562-.568,1.383,1.383,0,0,1-.223-.568q-.141-2.824-.281-4.934-.317-4.946-.621-6.539a8.8,8.8,0,0,1-.071-1.348,3.052,3.052,0,0,1,.674-1.16,7.1,7.1,0,0,1,1.26-1.142,6.112,6.112,0,0,1,1.418-.78,12.929,12.929,0,0,1,1.529.392,13.354,13.354,0,0,1,1.506.534h3.7a6.614,6.614,0,0,1,.152,1.4,5.884,5.884,0,0,1-.287,1.871,5.533,5.533,0,0,1-.679,1.425,2.022,2.022,0,0,1-.7.7A11.819,11.819,0,0,1,79.7,13.771l-.281.258Q79.481,14.756,79.481,15.646Z" fill="#333"/><path d="M100.809,23.65a5.1,5.1,0,0,1-.328,1.752,6.841,6.841,0,0,1-.774,1.541,2.226,2.226,0,0,1-.89.773,2.763,2.763,0,0,1-1.207.258,4.663,4.663,0,0,1-1.43-.246,2.155,2.155,0,0,1-1.113-.809,6.282,6.282,0,0,1-.809-1.523,15.272,15.272,0,0,1-.726-3.059q-1.36-.105-2.274-.2a46.666,46.666,0,0,1,.691,5.391,3.913,3.913,0,0,1-2.074.445,6.2,6.2,0,0,1-1.845-.254,3.391,3.391,0,0,1-1.3-.7,28.218,28.218,0,0,1,.445-3.68,22.819,22.819,0,0,1,.809-3.281,23.407,23.407,0,0,1-.756-2.971q-.323-1.669-.709-4.072l-.27-1.664a2.627,2.627,0,0,1,.785-.816,5.177,5.177,0,0,1,1.342-.681,4.809,4.809,0,0,1,1.6-.273,2.758,2.758,0,0,1,1.945.715l-.844,9.774,1.242-.141q.739-1.395,1.506-3.217a17.874,17.874,0,0,0,.991-2.83L93.168,13.3a6.626,6.626,0,0,1,.662-2.322,2.928,2.928,0,0,1,1.33-1.393,5.978,5.978,0,0,1,1.418.213,7.02,7.02,0,0,1,1.694.683,4.606,4.606,0,0,1,1.412,1.19,11.521,11.521,0,0,1-1.377,3.862,39.562,39.562,0,0,1-2.725,4.423,15.066,15.066,0,0,0,2.262,3.5,5.4,5.4,0,0,0,1.582-1.007Z" fill="#333"/><polygon points="54.012 345.733 51.658 345.733 51.658 348.087 51.658 350.442 51.658 352.796 51.658 355.15 54.012 355.15 54.012 352.796 54.012 350.442 56.366 350.442 56.366 348.087 58.72 348.087 58.72 345.733 56.366 345.733 54.012 345.733" fill="#d7d7d7"/><polygon points="56.366 355.15 58.72 355.15 61.075 355.15 63.429 355.15 63.429 352.796 63.429 350.442 63.429 348.087 63.429 345.733 61.075 345.733 61.075 348.087 61.075 350.442 58.72 350.442 58.72 352.796 56.366 352.796 56.366 355.15" fill="#d7d7d7"/><polygon points="65.783 342.157 49.304 342.157 49.304 343.425 65.783 343.425 65.783 357.477 49.304 357.477 49.304 342.157 48.127 342.157 48.127 358.655 49.304 358.655 66.96 358.655 66.96 357.477 66.96 342.157 65.783 342.157" fill="#d7d7d7"/><g id="2720a481-598a-46bd-a742-7254972f3458" data-name="Text"><path d="M81.192,57.708H78.75l1.32-7.7h2.222c1.3,0,2.311.639,2.113,1.937A2.048,2.048,0,0,1,82.9,53.55a1.673,1.673,0,0,1,1.332,1.936C84.009,56.982,82.71,57.708,81.192,57.708ZM80.653,54.1l-.44,2.541,1-.011a1.613,1.613,0,0,0,1.727-1.276c.132-.792-.429-1.243-1.232-1.243Zm.176-.99.858-.011a1.318,1.318,0,0,0,1.386-1.012c.11-.616-.33-1-.968-1l-.924-.01Z" fill="#d7d7d7"/><path d="M87.209,52.648l-.858,5.06H85.185l.847-5.06Zm-.242-2.729a.716.716,0,1,1-.748.715A.722.722,0,0,1,86.967,49.919Z" fill="#d7d7d7"/><path d="M88.9,52.648l.3-1.76h1.178l-.308,1.76h.836l-.187,1.045h-.825l-.7,4.015H88.045l.682-4.015h-.815l.187-1.045Z" fill="#d7d7d7"/><path d="M70.747,70.909l1.3-7.7h2.4a3.13,3.13,0,0,1,3.234,3.85,4.443,4.443,0,0,1-4.466,3.851Zm2.421-6.48-.913,5.259H73.3a3.021,3.021,0,0,0,3.058-2.63,2.041,2.041,0,0,0-2.079-2.629Z" fill="#d7d7d7"/><path d="M78.205,68.708a2.944,2.944,0,0,1,2.971-2.97,2,2,0,0,1,2.178,2.222,2.441,2.441,0,0,1-.121.693H79.394c-.022.814.374,1.387,1.188,1.387a1.775,1.775,0,0,0,1.474-.8l.99.408a2.908,2.908,0,0,1-2.563,1.375A2.136,2.136,0,0,1,78.205,68.708Zm1.332-.88h2.6v-.022c0-.726-.352-1.166-1.056-1.166A1.628,1.628,0,0,0,79.537,67.828Z" fill="#d7d7d7"/><path d="M83.4,73.329l1.3-7.481h1.166l-.132.814a2.214,2.214,0,0,1,1.793-.946,2.111,2.111,0,0,1,1.991,2.662A2.948,2.948,0,0,1,86.7,71.041a1.555,1.555,0,0,1-1.53-1.079l-.561,3.367Zm3.741-6.535a1.838,1.838,0,0,0-1.694,1.584c-.111.848.318,1.562,1.078,1.584A1.843,1.843,0,0,0,88.3,68.378,1.231,1.231,0,0,0,87.138,66.794Z" fill="#d7d7d7"/><path d="M91.141,65.848l.3-1.76h1.177l-.308,1.76h.837l-.187,1.045h-.825l-.7,4.016H90.283l.683-4.016h-.815l.187-1.045Z" fill="#d7d7d7"/><path d="M96.036,66.706a1.343,1.343,0,0,0-1.3,1.078l-.54,3.125H93.011l1.474-8.581h1.189l-.726,4.224a1.878,1.878,0,0,1,1.562-.836c1.144,0,1.551.847,1.408,1.947l-.561,3.246H96.179l.551-3.081C96.8,67.234,96.675,66.728,96.036,66.706Z" fill="#d7d7d7"/><path d="M28,119.145H25.554l1.32-7.7H29.1c1.3,0,2.311.638,2.113,1.937a2.049,2.049,0,0,1-1.508,1.606,1.672,1.672,0,0,1,1.332,1.936C30.813,118.418,29.514,119.145,28,119.145Zm-.539-3.609-.44,2.541,1-.011a1.613,1.613,0,0,0,1.727-1.276c.133-.792-.428-1.243-1.232-1.243Zm.176-.99.858-.011a1.32,1.32,0,0,0,1.387-1.013c.11-.616-.33-1-.969-1l-.924-.01Z" fill="#d7d7d7"/><path d="M34.013,114.084l-.858,5.061H31.989l.847-5.061Zm-.242-2.729a.716.716,0,1,1-.748.715A.721.721,0,0,1,33.771,111.355Z" fill="#d7d7d7"/><path d="M35.707,114.084l.3-1.761h1.177l-.308,1.761h.836l-.187,1.045H36.7l-.7,4.016H34.849l.682-4.016h-.814l.187-1.045Z" fill="#d7d7d7"/><path d="M24.6,124.644a2.086,2.086,0,0,1,2.332,2.4,2.737,2.737,0,0,1-2.068,2.255l1.584,3.048h-1.5l-1.4-2.915h-.771l-.5,2.915H21.011l1.3-7.7Zm-1.189,1.132-.44,2.576h.947a1.6,1.6,0,0,0,1.694-1.288,1.065,1.065,0,0,0-1.188-1.288Z" fill="#d7d7d7"/><path d="M30.119,127.174a1.584,1.584,0,0,1,1.552,1.1l.165-.99H33l-.88,5.061H30.989l.143-.847a2.274,2.274,0,0,1-1.827.957,2.113,2.113,0,0,1-2-2.641A2.954,2.954,0,0,1,30.119,127.174Zm-.44,4.247a1.863,1.863,0,0,0,1.7-1.607c.11-.847-.308-1.584-1.078-1.606a1.866,1.866,0,0,0-1.783,1.606C28.381,130.673,28.822,131.421,29.679,131.421Z" fill="#d7d7d7"/><path d="M34.519,127.284l.3-1.761h1.177l-.308,1.761h.837l-.187,1.045H35.51l-.7,4.016H33.661l.683-4.016h-.815l.187-1.045Z" fill="#d7d7d7"/><path d="M36.477,130.145a2.944,2.944,0,0,1,2.971-2.971,2,2,0,0,1,2.178,2.222,2.455,2.455,0,0,1-.121.694h-3.84c-.022.813.374,1.386,1.188,1.386a1.778,1.778,0,0,0,1.474-.8l.991.406a2.905,2.905,0,0,1-2.564,1.376A2.135,2.135,0,0,1,36.477,130.145Zm1.331-.88h2.6v-.023c0-.725-.352-1.166-1.057-1.166A1.629,1.629,0,0,0,37.808,129.265Z" fill="#d7d7d7"/><path d="M51.94,317.6a3.27,3.27,0,0,1,3.256,3.983,4.684,4.684,0,0,1-4.533,4.016,3.3,3.3,0,0,1-3.256-4.016A4.681,4.681,0,0,1,51.94,317.6ZM50.8,324.315a3.175,3.175,0,0,0,3.036-2.728c.22-1.408-.484-2.718-2.024-2.729a3.178,3.178,0,0,0-3.037,2.729A2.138,2.138,0,0,0,50.8,324.315Z" fill="#d7d7d7"/><path d="M57.857,324.579a1.285,1.285,0,0,0,1.3-1.078l.55-3.124h1.177l-.869,5.061H58.825l.122-.749a1.846,1.846,0,0,1-1.562.859c-1.145,0-1.574-.892-1.42-1.959l.55-3.212H57.7l-.527,3.08C57.1,324.052,57.219,324.579,57.857,324.579Z" fill="#d7d7d7"/><path d="M62.455,320.377l.3-1.761h1.177l-.308,1.761h.837l-.187,1.045h-.825l-.7,4.016H61.6l.683-4.016h-.815l.187-1.045Z" fill="#d7d7d7"/><path d="M66.371,324.623a.637.637,0,0,0,.7-.594c.012-.44-.483-.671-.968-.858-.616-.242-1.265-.605-1.243-1.463a1.591,1.591,0,0,1,1.782-1.441,2.352,2.352,0,0,1,1.86.891l-.661.693a1.676,1.676,0,0,0-1.209-.682c-.4,0-.661.2-.661.484-.022.4.418.561.924.77.749.319,1.364.66,1.342,1.54a1.713,1.713,0,0,1-1.858,1.629,2.748,2.748,0,0,1-2.212-1.122l.748-.683A1.937,1.937,0,0,0,66.371,324.623Z" fill="#d7d7d7"/><path d="M54.062,280.341l-1.342,7.7H51.444l1.3-7.7Z" fill="#d7d7d7"/><path d="M57.274,283.84a1.284,1.284,0,0,0-1.287,1.089l-.539,3.113H54.26l.88-5.061h1.177l-.121.748a1.833,1.833,0,0,1,1.562-.858c1.155,0,1.585.88,1.43,1.958l-.55,3.213h-1.21l.55-3.08C58.055,284.367,57.934,283.84,57.274,283.84Z" fill="#d7d7d7"/><path d="M62.114,287.228a.637.637,0,0,0,.7-.594c.011-.441-.484-.671-.968-.859-.616-.242-1.265-.6-1.243-1.463a1.591,1.591,0,0,1,1.782-1.441,2.351,2.351,0,0,1,1.859.892l-.66.692a1.676,1.676,0,0,0-1.21-.682c-.4,0-.66.2-.66.485-.022.4.418.56.924.769.748.32,1.364.661,1.342,1.54a1.714,1.714,0,0,1-1.859,1.629,2.744,2.744,0,0,1-2.211-1.122l.748-.682A1.94,1.94,0,0,0,62.114,287.228Z" fill="#d7d7d7"/></g><g id="6490f9e6-db6d-424c-9015-112e759d74c0" data-name="Legend"><circle cx="27.839" cy="248.302" r="13.636" fill="none" stroke="#00cfb5" stroke-miterlimit="10"/><circle cx="87.186" cy="284.696" r="13.636" fill="none" stroke="#e4a5cb" stroke-miterlimit="10"/><circle cx="27.839" cy="284.696" r="13.636" fill="none" stroke="#00cfb5" stroke-miterlimit="10"/><path d="M17.255,185.888a.662.662,0,0,1-.376-.117,25.123,25.123,0,1,1,28.454-.01.664.664,0,0,1-.753-1.094,23.8,23.8,0,1,0-26.949.01.664.664,0,0,1-.376,1.211Z" fill="#00cfb5"/><path d="M18.308,183.468a2,2,0,1,1-2.769.55A2,2,0,0,1,18.308,183.468Z" fill="#00cfb5"/><circle cx="45.01" cy="185.119" r="1.997" fill="#00cfb5"/><path d="M42.722,315.378c3.559-.817,11.5-.564,13.644-1.918,2.184-1.377.069-17.9,6.37-18.306,3.016-.193,4.957.228,8.4-1.077" fill="none" stroke="#d7d7d7" stroke-miterlimit="10" stroke-dasharray="2 2"/><polygon points="69.93 296.347 70.915 294.16 68.728 293.176 70.074 292.666 72.26 293.65 71.276 295.836 69.93 296.347" fill="#d7d7d7"/><path d="M32.753,192.519A61.013,61.013,0,0,1,39.1,210.888a62.452,62.452,0,0,1-1.043,28.465" fill="none" stroke="#00cfb5" stroke-miterlimit="10"/><polygon points="32.114 195.077 32.858 192.797 35.137 193.542 34.486 192.259 32.206 191.515 31.463 193.794 32.114 195.077" fill="#00cfb5"/><path d="M80.605,133.085c-3.288,13.907-5.159,26.24-6.63,43.559a327.925,327.925,0,0,0,1.043,65.631" fill="none" stroke="#e4a5cb" stroke-miterlimit="10"/><polygon points="78.54 134.671 80.56 133.379 81.851 135.4 82.161 133.994 80.87 131.974 78.849 133.265 78.54 134.671" fill="#e4a5cb"/><circle cx="87.186" cy="248.302" r="13.636" fill="none" stroke="#e4a5cb" stroke-miterlimit="10"/><circle cx="67.583" cy="122.83" r="1.483" fill="#e4a5cb"/><circle cx="62.192" cy="116.6" r="1.483" fill="#e4a5cb"/><circle cx="59.089" cy="108.969" r="1.483" fill="#e4a5cb"/><circle cx="58.604" cy="100.744" r="1.483" fill="#e4a5cb"/><circle cx="60.788" cy="92.8" r="1.483" fill="#e4a5cb"/><circle cx="65.41" cy="85.98" r="1.483" fill="#e4a5cb"/><circle cx="71.979" cy="81.008" r="1.483" fill="#e4a5cb"/><circle cx="79.797" cy="78.411" r="1.483" fill="#e4a5cb"/><circle cx="88.036" cy="78.465" r="1.483" fill="#e4a5cb"/><circle cx="95.82" cy="81.164" r="1.483" fill="#e4a5cb"/><circle cx="102.323" cy="86.222" r="1.483" fill="#e4a5cb"/><circle cx="106.855" cy="93.102" r="1.483" fill="#e4a5cb"/><circle cx="108.935" cy="101.074" r="1.483" fill="#e4a5cb"/><circle cx="108.343" cy="109.291" r="1.483" fill="#e4a5cb"/><circle cx="105.14" cy="116.882" r="1.483" fill="#e4a5cb"/><circle cx="99.667" cy="123.04" r="1.483" fill="#e4a5cb"/></g></g></svg>