<svg xmlns="http://www.w3.org/2000/svg" width="91.51184mm" height="128.49998mm" viewBox="0 0 259.40363 364.25192">
  <title>master9</title>
  <g id="0a02cea6-5c14-4930-a608-48031e47fe01" data-name="PSI OP">
    <g id="1a15668c-1584-4b8e-80c2-31ab20d39f4e" data-name="BG">
      <rect width="259.40363" height="364.25192" style="fill: #2a2d30"/>
    </g>
    <g id="2e5d1fc2-4393-4799-b41d-42ebc8e8d734" data-name="Text">
      <g>
        <path d="M90.20315,56.66748a1.18615,1.18615,0,0,0,1.26953-1.07959c.01953-.67969-.56054-.89941-1.25976-1.21924a2.14368,2.14368,0,0,1-1.54883-1.939,2.17241,2.17241,0,0,1,2.34863-1.959A2.26217,2.26217,0,0,1,93.2012,51.98l-.96973.50977A1.40265,1.40265,0,0,0,90.8926,51.52a.89849.89849,0,0,0-1.01953.82959c-.03027.56006.5293.8999,1.31934,1.20947a2.01161,2.01161,0,0,1,1.499,1.94922,2.46636,2.46636,0,0,1-2.54883,2.22852,2.59841,2.59841,0,0,1-2.42871-1.78907l.90039-.61963C88.96389,56.11768,89.40335,56.66748,90.20315,56.66748Z" style="fill: #d7d7d7"/>
        <path d="M92.92483,59.78564l1.17969-6.79638h1.05957L95.044,53.729a2.01219,2.01219,0,0,1,1.62891-.85937,1.917,1.917,0,0,1,1.80859,2.41846A2.678,2.678,0,0,1,95.92288,57.707a1.41247,1.41247,0,0,1-1.38867-.97949l-.50977,3.0581Zm3.39844-5.93652a1.67067,1.67067,0,0,0-1.53906,1.439c-.10059.76953.28906,1.41943.97949,1.43945a1.675,1.675,0,0,0,1.61914-1.43945A1.11928,1.11928,0,0,0,96.32327,53.84912Z" style="fill: #d7d7d7"/>
        <path d="M99.12405,55.58789a2.67387,2.67387,0,0,1,2.69824-2.69824,1.81582,1.81582,0,0,1,1.97852,2.01855,2.2331,2.2331,0,0,1-.10938.62989h-3.48828c-.01953.73974.33985,1.25927,1.0791,1.25927a1.61488,1.61488,0,0,0,1.33985-.72949l.89941.36963a2.64046,2.64046,0,0,1-2.3291,1.24951A1.93927,1.93927,0,0,1,99.12405,55.58789Zm1.209-.79932h2.3584v-.02c0-.65966-.31933-1.05957-.959-1.05957A1.47973,1.47973,0,0,0,100.333,54.78857Z" style="fill: #d7d7d7"/>
        <path d="M104.34378,55.58789a2.67448,2.67448,0,0,1,2.69824-2.69824,1.81582,1.81582,0,0,1,1.97851,2.01855,2.23348,2.23348,0,0,1-.10937.62989h-3.48828c-.01953.73974.33984,1.25927,1.0791,1.25927a1.61487,1.61487,0,0,0,1.33984-.72949l.89942.36963a2.64046,2.64046,0,0,1-2.3291,1.24951A1.93927,1.93927,0,0,1,104.34378,55.58789Zm1.209-.79932h2.3584v-.02c0-.65966-.31934-1.05957-.959-1.05957A1.47973,1.47973,0,0,0,105.55276,54.78857Z" style="fill: #d7d7d7"/>
        <path d="M112.10257,52.88965a1.43647,1.43647,0,0,1,1.38964.94922l.68946-4.04785h1.0791l-1.33887,7.79589h-1.06933l.12011-.70947a2.02861,2.02861,0,0,1-1.60937.80957,1.91985,1.91985,0,0,1-1.81934-2.39892A2.68452,2.68452,0,0,1,112.10257,52.88965Zm-.39942,3.85791a1.692,1.692,0,0,0,1.53906-1.45947c.09961-.76954-.28027-1.439-.97949-1.459a1.69379,1.69379,0,0,0-1.61914,1.459C110.52346,56.06787,110.92385,56.74756,111.70315,56.74756Z" style="fill: #d7d7d7"/>
      </g>
      <g>
        <path d="M15.95657,47.99951a1.18615,1.18615,0,0,0,1.26953-1.07959c.01953-.67969-.56055-.89941-1.25976-1.21924a2.14368,2.14368,0,0,1-1.54883-1.939,2.1724,2.1724,0,0,1,2.34863-1.959A2.26218,2.26218,0,0,1,18.95462,43.312l-.96973.50977a1.40265,1.40265,0,0,0-1.33887-.96973.89849.89849,0,0,0-1.01953.82959c-.03027.56006.5293.8999,1.31934,1.20947a2.01161,2.01161,0,0,1,1.499,1.94922A2.46636,2.46636,0,0,1,15.896,49.06885a2.59839,2.59839,0,0,1-2.42871-1.78906l.90039-.61963C14.71731,47.44971,15.15676,47.99951,15.95657,47.99951Z" style="fill: #d7d7d7"/>
        <path d="M20.01712,44.32129l.2705-1.59912H21.357l-.28027,1.59912h.75976l-.16992.94971h-.749l-.63965,3.648h-1.04l.62012-3.648H19.1177l.16992-.94971Z" style="fill: #d7d7d7"/>
        <path d="M24.33548,44.22168a1.43816,1.43816,0,0,1,1.40918.99951l.15039-.8999h1.05957L26.15481,48.919h-1.0293l.12989-.76954a2.06539,2.06539,0,0,1-1.65918.86963,1.91985,1.91985,0,0,1-1.81934-2.39892A2.68452,2.68452,0,0,1,24.33548,44.22168Zm-.39942,3.85791a1.692,1.692,0,0,0,1.53906-1.45947c.09961-.76953-.28027-1.439-.97949-1.459a1.6938,1.6938,0,0,0-1.61914,1.459C22.75637,47.3999,23.15676,48.07959,23.93606,48.07959Z" style="fill: #d7d7d7"/>
        <path d="M29.88626,45.231c-.49024-.00977-.79.3999-.91992.86963L28.47708,48.919H27.41751l.7998-4.59766h1.05957l-.09082.52a1.49027,1.49027,0,0,1,1.08985-.61963,1.10617,1.10617,0,0,1,.7998.35986l-.63965.89942A.82728.82728,0,0,0,29.88626,45.231Z" style="fill: #d7d7d7"/>
        <path d="M31.93606,44.32129l.27051-1.59912h1.06934l-.28028,1.59912h.75977l-.16992.94971h-.749l-.63965,3.648h-1.04l.62012-3.648h-.74023l.16992-.94971Z" style="fill: #d7d7d7"/>
        <path d="M41.69485,41.92285l-.18066,1.05957H38.896l-.2998,1.749h2.51855l-.16992,1.02929H38.41653l-.54,3.15821H36.73684l1.17969-6.9961Z" style="fill: #d7d7d7"/>
        <path d="M43.95559,45.231c-.49023-.00977-.79.3999-.91992.86963L42.54641,48.919H41.48684l.79981-4.59766h1.05859l-.08984.52a1.49025,1.49025,0,0,1,1.08984-.61963,1.10617,1.10617,0,0,1,.79981.35986l-.63965.89942A.82729.82729,0,0,0,43.95559,45.231Z" style="fill: #d7d7d7"/>
        <path d="M45.01712,46.91992a2.67387,2.67387,0,0,1,2.69824-2.69824,1.81582,1.81582,0,0,1,1.97851,2.01855,2.23341,2.23341,0,0,1-.10937.62989H46.09622c-.01953.73974.33984,1.25927,1.0791,1.25927a1.61485,1.61485,0,0,0,1.33984-.72949l.89942.36963a2.64046,2.64046,0,0,1-2.3291,1.24951A1.93927,1.93927,0,0,1,45.01712,46.91992Zm1.209-.79931h2.3584v-.02c0-.65967-.31934-1.05957-.959-1.05957A1.47972,1.47972,0,0,0,46.2261,46.12061Z" style="fill: #d7d7d7"/>
        <path d="M52.77493,44.20166a1.39952,1.39952,0,0,1,1.38965.98926l.14941-.86963h1.08008l-1.17969,6.79639h-1.0791l.50977-2.90821a2.05205,2.05205,0,0,1-1.61914.82959,1.91841,1.91841,0,0,1-1.80957-2.41894A2.67789,2.67789,0,0,1,52.77493,44.20166Zm-.39942,3.85791a1.67239,1.67239,0,0,0,1.53907-1.43945c.09961-.76953-.29-1.419-.97949-1.439a1.67506,1.67506,0,0,0-1.61915,1.439A1.11908,1.11908,0,0,0,52.37551,48.05957Z" style="fill: #d7d7d7"/>
      </g>
      <g>
        <path d="M211.75882,41.92285l-.18067,1.03955h-3.00781l-.29,1.69873h2.81836l-.17969,1.01953h-2.80859l-.37988,2.19873h3.01855l-.17969,1.03956h-4.1582l1.17969-6.9961Z" style="fill: #d7d7d7"/>
        <path d="M214.58987,45.10107a1.16644,1.16644,0,0,0-1.16895.98926l-.49023,2.82862h-1.0791l.7998-4.59766h1.06934l-.11035.67969a1.66626,1.66626,0,0,1,1.41894-.7793c1.04981,0,1.43946.79932,1.29981,1.77881l-.5,2.91846h-1.09961l.5-2.79834C215.29983,45.58057,215.18948,45.10107,214.58987,45.10107Z" style="fill: #d7d7d7"/>
        <path d="M219.75,44.22168a1.43739,1.43739,0,0,1,1.38964.94922l.68946-4.04785h1.0791l-1.33887,7.7959H220.5l.12011-.70948a2.02861,2.02861,0,0,1-1.60937.80957,1.91985,1.91985,0,0,1-1.81934-2.39892A2.68452,2.68452,0,0,1,219.75,44.22168Zm-.39942,3.85791a1.692,1.692,0,0,0,1.53906-1.45947c.09961-.76953-.28027-1.439-.97949-1.459a1.6938,1.6938,0,0,0-1.61914,1.459C218.17092,47.3999,218.57132,48.07959,219.35061,48.07959Z" style="fill: #d7d7d7"/>
        <path d="M230.88772,41.92285l-.17969,1.05957h-2.61816l-.2998,1.749h2.51855l-.16992,1.02929h-2.52832l-.54,3.15821h-1.13965l1.17969-6.9961Z" style="fill: #d7d7d7"/>
        <path d="M233.15042,45.231c-.49024-.00977-.79.3999-.91992.86963l-.48926,2.81836h-1.05957l.7998-4.59766h1.0586l-.08985.52a1.49027,1.49027,0,0,1,1.08985-.61963,1.10617,1.10617,0,0,1,.7998.35986l-.63965.89942A.82728.82728,0,0,0,233.15042,45.231Z" style="fill: #d7d7d7"/>
        <path d="M234.211,46.91992a2.67449,2.67449,0,0,1,2.69825-2.69824,1.81582,1.81582,0,0,1,1.97851,2.01855,2.23341,2.23341,0,0,1-.10937.62989h-3.48828c-.01954.73974.33984,1.25927,1.0791,1.25927a1.61485,1.61485,0,0,0,1.33984-.72949l.89941.36963a2.64046,2.64046,0,0,1-2.3291,1.24951A1.93927,1.93927,0,0,1,234.211,46.91992Zm1.209-.79931h2.3584v-.02c0-.65967-.31934-1.05957-.959-1.05957A1.47971,1.47971,0,0,0,235.42,46.12061Z" style="fill: #d7d7d7"/>
        <path d="M241.96878,44.20166a1.39951,1.39951,0,0,1,1.38964.98926l.14942-.86963h1.08008l-1.17969,6.79639h-1.0791l.50976-2.90821a2.052,2.052,0,0,1-1.61914.82959,1.91842,1.91842,0,0,1-1.80957-2.41894A2.67791,2.67791,0,0,1,241.96878,44.20166Zm-.39942,3.85791a1.67237,1.67237,0,0,0,1.53906-1.43945c.09961-.76953-.29-1.419-.97949-1.439a1.675,1.675,0,0,0-1.61914,1.439A1.11907,1.11907,0,0,0,241.56936,48.05957Z" style="fill: #d7d7d7"/>
      </g>
      <g>
        <path d="M184.3135,299.05273a2.37647,2.37647,0,0,1,2.36719,2.89454,3.40421,3.40421,0,0,1-3.29492,2.91894,2.39582,2.39582,0,0,1-2.36621-2.91894A3.40249,3.40249,0,0,1,184.3135,299.05273Zm-.832,4.87793a2.30852,2.30852,0,0,0,2.207-1.98339,1.55,1.55,0,0,0-1.4707-1.98243,2.30674,2.30674,0,0,0-2.207,1.98243A1.55468,1.55468,0,0,0,183.48147,303.93066Z" style="fill: #d7d7d7"/>
        <path d="M188.61819,304.12207a.9335.9335,0,0,0,.94336-.7832l.40039-2.27149h.85547l-.63184,3.67871h-.86425l.08886-.54394a1.34381,1.34381,0,0,1-1.13574.624c-.832,0-1.14355-.64844-1.03125-1.42383l.39941-2.335h.86329l-.38379,2.23926C188.06643,303.73828,188.15432,304.12207,188.61819,304.12207Z" style="fill: #d7d7d7"/>
        <path d="M191.96292,301.06738l.21582-1.27929h.85547l-.22364,1.27929h.6084l-.13672.75977h-.59961l-.51172,2.91894h-.83105l.49512-2.91894h-.5918l.13672-.75977Z" style="fill: #d7d7d7"/>
      </g>
      <g>
        <path d="M25.92239,227.40625a1.89462,1.89462,0,0,1,2.11816,2.17871,2.4857,2.4857,0,0,1-1.8789,2.04883l1.43945,2.76855H26.24173l-1.26954-2.64843H24.273l-.4502,2.64843H22.6636l1.17969-6.99609Zm-1.08008,1.0293-.39941,2.33886h.85937a1.45176,1.45176,0,0,0,1.53907-1.16992.96662.96662,0,0,0-1.07911-1.16894Z" style="fill: #d7d7d7"/>
        <path d="M28.40384,232.40332a2.67387,2.67387,0,0,1,2.69824-2.69824,1.8156,1.8156,0,0,1,1.97851,2.01855,2.23669,2.23669,0,0,1-.10937.62989H29.48294c-.01953.73925.33984,1.25878,1.0791,1.25878a1.61485,1.61485,0,0,0,1.33984-.72949l.89942.37012a2.64011,2.64011,0,0,1-2.32911,1.249A1.93888,1.93888,0,0,1,28.40384,232.40332Zm1.209-.7998h2.3584V231.584c0-.66015-.31934-1.05957-.959-1.05957A1.47926,1.47926,0,0,0,29.61282,231.60352Z" style="fill: #d7d7d7"/>
        <path d="M35.96243,226.60645l-1.34961,7.79589H33.563l1.31934-7.79589Z" style="fill: #d7d7d7"/>
        <path d="M36.00344,232.40332a2.67388,2.67388,0,0,1,2.69825-2.69824,1.8156,1.8156,0,0,1,1.97851,2.01855,2.23669,2.23669,0,0,1-.10937.62989H37.08255c-.01954.73925.33984,1.25878,1.0791,1.25878a1.61485,1.61485,0,0,0,1.33984-.72949l.89942.37012a2.64011,2.64011,0,0,1-2.32911,1.249A1.93889,1.93889,0,0,1,36.00344,232.40332Zm1.209-.7998h2.3584V231.584c0-.66015-.31934-1.05957-.959-1.05957A1.47926,1.47926,0,0,0,37.21243,231.60352Z" style="fill: #d7d7d7"/>
        <path d="M43.76126,229.70508a1.43774,1.43774,0,0,1,1.40918.999l.15039-.89941H46.3804l-.79981,4.59765H44.5513l.12988-.76953a2.06625,2.06625,0,0,1-1.65918.86914,1.91963,1.91963,0,0,1-1.81934-2.39843A2.6841,2.6841,0,0,1,43.76126,229.70508Zm-.39942,3.85742a1.692,1.692,0,0,0,1.53907-1.459c.0996-.76954-.28028-1.43946-.9795-1.459a1.69335,1.69335,0,0,0-1.61914,1.459A1.13537,1.13537,0,0,0,43.36184,233.5625Z" style="fill: #d7d7d7"/>
        <path d="M48.70266,233.66211a.578.578,0,0,0,.63868-.53906c.01074-.40039-.43946-.61035-.87891-.78028-.55957-.21972-1.14942-.54882-1.12988-1.3291a1.44552,1.44552,0,0,1,1.61914-1.30859,2.13793,2.13793,0,0,1,1.68945.80957l-.59961.6289a1.52316,1.52316,0,0,0-1.09961-.61914c-.35937,0-.59961.17969-.59961.43946-.01953.36035.37988.50976.83985.70019.67968.28906,1.23925.59961,1.21875,1.39844a1.5565,1.5565,0,0,1-1.68848,1.47949,2.49363,2.49363,0,0,1-2.00879-1.01953l.67969-.61914A1.75808,1.75808,0,0,0,48.70266,233.66211Z" style="fill: #d7d7d7"/>
        <path d="M51.03372,232.40332a2.67449,2.67449,0,0,1,2.69824-2.69824,1.81561,1.81561,0,0,1,1.97852,2.01855,2.23631,2.23631,0,0,1-.10938.62989H52.11282c-.01953.73925.33984,1.25878,1.0791,1.25878a1.61485,1.61485,0,0,0,1.33984-.72949l.89942.37012a2.64008,2.64008,0,0,1-2.3291,1.249A1.93888,1.93888,0,0,1,51.03372,232.40332Zm1.209-.7998h2.3584V231.584c0-.66015-.31934-1.05957-.959-1.05957A1.47927,1.47927,0,0,0,52.2427,231.60352Z" style="fill: #d7d7d7"/>
        <path d="M63.44094,232.60352h-2.499l-1.0791,1.79882H58.51321l4.61816-7.39648,2.04883,7.39648H63.90091Zm-1.999-1h1.83887l-.53906-2.21875Z" style="fill: #d7d7d7"/>
      </g>
      <g>
        <path d="M122.29446,227.40625a1.89462,1.89462,0,0,1,2.11816,2.17871,2.4857,2.4857,0,0,1-1.8789,2.04883l1.43945,2.76855H122.6138l-1.26954-2.64843h-.69921l-.4502,2.64843h-1.15918l1.17969-6.99609Zm-1.08008,1.0293-.39941,2.33886h.85937a1.45176,1.45176,0,0,0,1.53907-1.16992.96662.96662,0,0,0-1.07911-1.16894Z" style="fill: #d7d7d7"/>
        <path d="M127.314,229.70508a1.43774,1.43774,0,0,1,1.40918.999l.15039-.89941h1.05957l-.7998,4.59765H128.104l.12988-.76953a2.06485,2.06485,0,0,1-1.65918.86914,1.91962,1.91962,0,0,1-1.81933-2.39843A2.6841,2.6841,0,0,1,127.314,229.70508Zm-.39941,3.85742a1.69194,1.69194,0,0,0,1.53906-1.459c.09961-.76954-.28027-1.43946-.97949-1.459a1.69334,1.69334,0,0,0-1.61914,1.459A1.13536,1.13536,0,0,0,126.91458,233.5625Z" style="fill: #d7d7d7"/>
        <path d="M131.315,229.80469l.27051-1.59961h1.06933l-.28027,1.59961h.75976l-.16992.94922h-.749l-.63965,3.64843h-1.04l.62012-3.64843h-.74024l.16993-.94922Z" style="fill: #d7d7d7"/>
        <path d="M134.97512,229.80469l-.77929,4.59765h-1.05957l.76953-4.59765Zm-.21972-2.47852a.65009.65009,0,1,1-.67969.64942A.65506.65506,0,0,1,134.7554,227.32617Z" style="fill: #d7d7d7"/>
        <path d="M138.47415,229.70508a2.02711,2.02711,0,0,1,2.0791,2.39844,2.789,2.789,0,0,1-2.75879,2.39843,2.031,2.031,0,0,1-2.07812-2.39843A2.78877,2.78877,0,0,1,138.47415,229.70508Zm-.59961,3.83789a1.66415,1.66415,0,0,0,1.5791-1.43945,1.13967,1.13967,0,0,0-1.06934-1.43946,1.66487,1.66487,0,0,0-1.5791,1.43946A1.141,1.141,0,0,0,137.87454,233.543Z" style="fill: #d7d7d7"/>
      </g>
      <g>
        <path d="M210.94534,227.40625h1.37891l-3.9375,7.38574-1.31934-4.93652-2.87891,4.94726-1.63867-7.39648h1.33887l.83984,4.71777,2.749-5.08691L208.626,232.124Z" style="fill: #d7d7d7"/>
        <path d="M213.65823,229.70508a1.43853,1.43853,0,0,1,1.40918,1l.15039-.90039h1.05957l-.7998,4.59765h-1.0293l.12988-.76953a2.06313,2.06313,0,0,1-1.65918.87012,1.92006,1.92006,0,0,1-1.81933-2.39941A2.68493,2.68493,0,0,1,213.65823,229.70508Zm-.39941,3.8584a1.692,1.692,0,0,0,1.53906-1.46c.09961-.76954-.28028-1.43848-.97949-1.459a1.69424,1.69424,0,0,0-1.61914,1.459C212.07913,232.88379,212.47952,233.56348,213.25882,233.56348Z" style="fill: #d7d7d7"/>
        <path d="M218.03909,229.80469l.70019,2.93847,1.61914-2.93847h1.17872l-3.09766,5.03808-1.54981-5.03808Z" style="fill: #d7d7d7"/>
        <path d="M221.26077,232.40332a2.67387,2.67387,0,0,1,2.69824-2.69824,1.816,1.816,0,0,1,1.97852,2.01855,2.22989,2.22989,0,0,1-.10938.62989h-3.48828c-.01953.74023.33984,1.25976,1.0791,1.25976a1.61489,1.61489,0,0,0,1.33985-.72949l.89941.36914a2.64084,2.64084,0,0,1-2.3291,1.25A1.93965,1.93965,0,0,1,221.26077,232.40332Zm1.209-.79883h2.3584V231.584c0-.65918-.31933-1.05957-.959-1.05957A1.48018,1.48018,0,0,0,222.46975,231.60449Z" style="fill: #d7d7d7"/>
        <path d="M228.25882,233.66309a.57993.57993,0,0,0,.64062-.54c.00977-.39942-.44043-.60938-.87988-.7793-.55957-.21973-1.14942-.5498-1.12989-1.3291a1.4456,1.4456,0,0,1,1.61915-1.30957,2.13793,2.13793,0,0,1,1.68945.80957l-.59961.62988a1.52438,1.52438,0,0,0-1.09961-.62012c-.35938,0-.59961.18067-.59961.44043-.01953.35938.37988.50977.83984.69922.67969.29,1.23926.59961,1.21875,1.39942a1.55649,1.55649,0,0,1-1.68847,1.47949,2.49363,2.49363,0,0,1-2.00879-1.01953l.67969-.62012A1.76214,1.76214,0,0,0,228.25882,233.66309Z" style="fill: #d7d7d7"/>
      </g>
      <g>
        <path d="M65.17727,176.94727a1.89481,1.89481,0,0,1,2.11817,2.17871,2.48512,2.48512,0,0,1-1.87891,2.04882l1.43945,2.76856H65.49661l-1.26953-2.64844h-.69922l-.4502,2.64844H61.91848l1.17969-6.99609Zm-1.08008,1.02929-.39941,2.33887h.85938a1.45181,1.45181,0,0,0,1.53906-1.16943.9668.9668,0,0,0-1.0791-1.16944Z" style="fill: #d7d7d7"/>
        <path d="M67.65872,181.94434a2.67449,2.67449,0,0,1,2.69824-2.69825,1.81583,1.81583,0,0,1,1.97852,2.01856,2.233,2.233,0,0,1-.10938.62988H68.73782c-.01953.73975.33984,1.25977,1.0791,1.25977a1.61533,1.61533,0,0,0,1.33984-.73l.89942.36963a2.64086,2.64086,0,0,1-2.3291,1.25A1.93965,1.93965,0,0,1,67.65872,181.94434Zm1.209-.79932h2.3584v-.02c0-.65967-.31934-1.05957-.959-1.05957A1.47972,1.47972,0,0,0,68.8677,181.145Z" style="fill: #d7d7d7"/>
        <path d="M75.21731,176.14746l-1.34961,7.7959H72.8179l1.31933-7.7959Z" style="fill: #d7d7d7"/>
        <path d="M75.25833,181.94434a2.67449,2.67449,0,0,1,2.69824-2.69825,1.81583,1.81583,0,0,1,1.97852,2.01856,2.23338,2.23338,0,0,1-.10938.62988H76.33743c-.01953.73975.33984,1.25977,1.0791,1.25977a1.61533,1.61533,0,0,0,1.33984-.73l.89942.36963a2.64086,2.64086,0,0,1-2.3291,1.25A1.93965,1.93965,0,0,1,75.25833,181.94434Zm1.209-.79932h2.3584v-.02c0-.65967-.31934-1.05957-.959-1.05957A1.47972,1.47972,0,0,0,76.46731,181.145Z" style="fill: #d7d7d7"/>
        <path d="M83.01614,179.24609a1.43815,1.43815,0,0,1,1.40918.99952l.15039-.89991h1.05957l-.7998,4.59766h-1.0293l.12988-.76953a2.06316,2.06316,0,0,1-1.65918.87012,1.92025,1.92025,0,0,1-1.81933-2.39942A2.68453,2.68453,0,0,1,83.01614,179.24609Zm-.39941,3.8584a1.69245,1.69245,0,0,0,1.53906-1.46c.09961-.76953-.28028-1.439-.97949-1.459a1.69379,1.69379,0,0,0-1.61914,1.459C81.437,182.42432,81.83743,183.10449,82.61673,183.10449Z" style="fill: #d7d7d7"/>
        <path d="M87.95657,183.2041a.57992.57992,0,0,0,.64062-.54c.00977-.3999-.44043-.60986-.87988-.77978-.55957-.21973-1.14941-.54932-1.12988-1.3291a1.44555,1.44555,0,0,1,1.61914-1.30909,2.13792,2.13792,0,0,1,1.68945.80957l-.59961.6294a1.52372,1.52372,0,0,0-1.09961-.61963c-.35937,0-.59961.18018-.59961.43994-.01953.35986.37989.50977.83985.69971.67969.28955,1.23926.59961,1.21875,1.39892a1.55656,1.55656,0,0,1-1.68848,1.48,2.49365,2.49365,0,0,1-2.00879-1.01953l.67969-.62011A1.76213,1.76213,0,0,0,87.95657,183.2041Z" style="fill: #d7d7d7"/>
        <path d="M90.2886,181.94434a2.67388,2.67388,0,0,1,2.69824-2.69825,1.81582,1.81582,0,0,1,1.97852,2.01856,2.233,2.233,0,0,1-.10938.62988H91.3677c-.01953.73975.33985,1.25977,1.0791,1.25977a1.61533,1.61533,0,0,0,1.33985-.73l.89941.36963a2.64086,2.64086,0,0,1-2.3291,1.25A1.93965,1.93965,0,0,1,90.2886,181.94434Zm1.209-.79932H93.856v-.02c0-.65967-.31933-1.05957-.959-1.05957A1.4797,1.4797,0,0,0,91.49759,181.145Z" style="fill: #d7d7d7"/>
        <path d="M100.73684,183.94336H98.51809l1.19922-6.99609h2.01856c1.17968,0,2.09961.57959,1.91894,1.75878a1.85808,1.85808,0,0,1-1.36914,1.45948,1.51918,1.51918,0,0,1,1.21,1.75879A2.50678,2.50678,0,0,1,100.73684,183.94336Zm-.48925-3.27832-.4004,2.30908.91016-.01025a1.46482,1.46482,0,0,0,1.56836-1.15918c.12012-.71973-.38965-1.1294-1.11914-1.1294Zm.15917-.89942.78028-.00976a1.19682,1.19682,0,0,0,1.25879-.91992c.09961-.55957-.29981-.90918-.87989-.90918l-.83886-.01026Z" style="fill: #d7d7d7"/>
      </g>
      <g>
        <path d="M152.86819,55.7876h-2.499l-1.0791,1.79883h-1.34961l4.61816-7.396,2.04883,7.396h-1.2793Zm-1.999-.99951H152.708l-.53906-2.21875Z" style="fill: #d7d7d7"/>
        <path d="M157.709,49.79053l-1.34961,7.7959h-1.0498l1.31933-7.7959Z" style="fill: #d7d7d7"/>
        <path d="M158.40921,57.90625a.96824.96824,0,0,0,1.05957,1.07959,1.64839,1.64839,0,0,0,1.5791-1.49951l.11035-.63965a2.0735,2.0735,0,0,1-1.60938.77978,1.8912,1.8912,0,0,1-1.81933-2.35888,2.6732,2.6732,0,0,1,2.55859-2.37842,1.44085,1.44085,0,0,1,1.39942.93945l.13964-.83984h1.04l-.75976,4.49756a2.66492,2.66492,0,0,1-2.6582,2.439,1.84734,1.84734,0,0,1-2.07911-2.02881ZM159.8887,56.687a1.654,1.654,0,0,0,1.50879-1.24951l.05078-.25a1.1279,1.1279,0,0,0-1-1.35889,1.6591,1.6591,0,0,0-1.61914,1.439A1.1028,1.1028,0,0,0,159.8887,56.687Z" style="fill: #d7d7d7"/>
        <path d="M166.22854,52.88916a2.02711,2.02711,0,0,1,2.0791,2.39844,2.78945,2.78945,0,0,1-2.75879,2.39892,2.03142,2.03142,0,0,1-2.07812-2.39892A2.78878,2.78878,0,0,1,166.22854,52.88916Zm-.59961,3.83789a1.6637,1.6637,0,0,0,1.5791-1.43945,1.13944,1.13944,0,0,0-1.06933-1.439,1.66485,1.66485,0,0,0-1.5791,1.439A1.14078,1.14078,0,0,0,165.62893,56.72705Z" style="fill: #d7d7d7"/>
      </g>
      <g>
        <path d="M177.40872,178.05273l-.17969,1.05957h-2.61816l-.29981,1.749h2.51856l-.16993,1.02929h-2.52832l-.54,3.15821h-1.13965l1.17968-6.9961Z" style="fill: #d7d7d7"/>
        <path d="M179.71048,185.04883h-2.21875l1.19921-6.9961h2.01856c1.17969,0,2.09961.57959,1.91894,1.75879a1.85808,1.85808,0,0,1-1.36914,1.45948,1.51941,1.51941,0,0,1,1.21,1.75927A2.50682,2.50682,0,0,1,179.71048,185.04883Zm-.48926-3.27832-.40039,2.30957.91015-.01074a1.46439,1.46439,0,0,0,1.56836-1.15918c.12012-.71973-.38965-1.1294-1.11914-1.1294Zm.15918-.89942.78027-.00976a1.19682,1.19682,0,0,0,1.25879-.91992c.09961-.55957-.2998-.90918-.87988-.90918l-.83887-.01026Z" style="fill: #d7d7d7"/>
      </g>
      <g>
        <path d="M102.51907,303.30664h-1.999l-.86329,1.43945h-1.0791l3.69336-5.917,1.63965,5.917h-1.02344Zm-1.59863-.7998h1.4707l-.43164-1.77442Z" style="fill: #d7d7d7"/>
        <path d="M106.27981,304.07422a1.69593,1.69593,0,0,0,1.28711-.60742l-.13574.94336a1.98458,1.98458,0,0,1-1.24707.416,1.63367,1.63367,0,0,1-1.67969-1.91894,2.228,2.228,0,0,1,2.21484-1.919,1.745,1.745,0,0,1,1.168.415l-.13672.95215a1.12869,1.12869,0,0,0-1.05468-.61621,1.36024,1.36024,0,0,0-1.31153,1.168A.93529.93529,0,0,0,106.27981,304.07422Z" style="fill: #d7d7d7"/>
        <path d="M110.01614,304.07422a1.696,1.696,0,0,0,1.28711-.60742l-.13574.94336a1.98462,1.98462,0,0,1-1.24707.416,1.63367,1.63367,0,0,1-1.67969-1.91894,2.228,2.228,0,0,1,2.21484-1.919,1.745,1.745,0,0,1,1.168.415l-.13672.95215a1.12869,1.12869,0,0,0-1.05468-.61621,1.36024,1.36024,0,0,0-1.31153,1.168A.93529.93529,0,0,0,110.01614,304.07422Z" style="fill: #d7d7d7"/>
        <path d="M111.99368,303.14648a2.13893,2.13893,0,0,1,2.1582-2.1582,1.45219,1.45219,0,0,1,1.583,1.61426,1.77373,1.77373,0,0,1-.08789.50391h-2.79c-.0166.59179.27148,1.00781.86328,1.00781a1.292,1.292,0,0,0,1.07129-.584l.71973.2959a2.11375,2.11375,0,0,1-1.86328,1A1.55142,1.55142,0,0,1,111.99368,303.14648Zm.9668-.63964h1.88769v-.01563c0-.52832-.25586-.84766-.76758-.84766A1.1841,1.1841,0,0,0,112.96048,302.50684Z" style="fill: #d7d7d7"/>
        <path d="M118.29544,301.69141a.93223.93223,0,0,0-.93457.792l-.39258,2.26269H116.105l.63965-3.67871h.85546l-.08789.54395a1.33177,1.33177,0,0,1,1.13575-.62305c.83886,0,1.15136.63965,1.03906,1.42285l-.39942,2.335h-.87988l.39942-2.23925C118.8638,302.0752,118.77591,301.69141,118.29544,301.69141Z" style="fill: #d7d7d7"/>
        <path d="M121.064,301.06738l.21582-1.27929h.85547l-.22363,1.27929h.6084l-.13672.75977h-.59961l-.51172,2.91894h-.83106l.49512-2.91894h-.5918l.13672-.75977Z" style="fill: #d7d7d7"/>
      </g>
      <g>
        <path d="M66.71341,299.14844h3.80566l-.15234.87207H68.93606l-.80762,4.72558h-.94335l.81542-4.72558H66.56106Z" style="fill: #d7d7d7"/>
        <path d="M71.46341,301.7959c-.39161-.00879-.63086.31933-.73536.69531l-.3916,2.25488H69.4888l.63964-3.67871h.84766l-.07226.416a1.19308,1.19308,0,0,1,.87207-.49512.88454.88454,0,0,1,.63964.28711l-.51171.71973A.66356.66356,0,0,0,71.46341,301.7959Z" style="fill: #d7d7d7"/>
        <path d="M73.93606,301.06738l-.624,3.67871h-.84766l.61621-3.67871Zm-.17578-1.98242a.52008.52008,0,1,1-.54394.51953A.5236.5236,0,0,1,73.76028,299.085Z" style="fill: #d7d7d7"/>
        <path d="M75.02493,305.002a.77438.77438,0,0,0,.84766.86328,1.31763,1.31763,0,0,0,1.26269-1.19921l.08887-.51172a1.65836,1.65836,0,0,1-1.28809.623,1.51273,1.51273,0,0,1-1.45508-1.88672,2.13835,2.13835,0,0,1,2.04688-1.90234,1.15233,1.15233,0,0,1,1.11914.751l.1123-.67188h.832l-.6084,3.59864a2.132,2.132,0,0,1-2.127,1.95117,1.47758,1.47758,0,0,1-1.66211-1.623Zm1.18359-.97558a1.32292,1.32292,0,0,0,1.207-1l.04-.19922a.90278.90278,0,0,0-.7998-1.08789,1.32743,1.32743,0,0,0-1.29492,1.15136A.88225.88225,0,0,0,76.20852,304.02637Z" style="fill: #d7d7d7"/>
      </g>
      <g>
        <path d="M140.8179,303.91406a2.725,2.725,0,0,0,1.85547-.7832l-.168,1.11914a2.95383,2.95383,0,0,1-1.81543.5918,2.38364,2.38364,0,0,1-2.36621-2.89453,3.3874,3.3874,0,0,1,3.29394-2.89454,2.33183,2.33183,0,0,1,1.66309.5918l-.17578,1.12793a1.8078,1.8078,0,0,0-1.55176-.792,2.34111,2.34111,0,0,0-2.22266,1.9668A1.57461,1.57461,0,0,0,140.8179,303.91406Z" style="fill: #d7d7d7"/>
        <path d="M145.64309,301.69141a.97758.97758,0,0,0-.94336.7832l-.39257,2.27148h-.86329l1.07129-6.2373h.86426l-.52832,3.07031a1.36712,1.36712,0,0,1,1.13574-.60742c.83106,0,1.127.61621,1.02344,1.415l-.4082,2.35937h-.85547l.40039-2.23925C146.19485,302.0752,146.107,301.707,145.64309,301.69141Z" style="fill: #d7d7d7"/>
        <path d="M149.94583,300.98828a1.6219,1.6219,0,0,1,1.66308,1.919,2.232,2.232,0,0,1-2.207,1.91894,1.62644,1.62644,0,0,1-1.66308-1.91894A2.232,2.232,0,0,1,149.94583,300.98828Zm-.47949,3.07031a1.33138,1.33138,0,0,0,1.26269-1.15136.91153.91153,0,0,0-.85547-1.15137,1.33129,1.33129,0,0,0-1.26269,1.15137A.912.912,0,0,0,149.46634,304.05859Z" style="fill: #d7d7d7"/>
        <path d="M155.81692,301.06738l-1.85449,1.56739,1.335,2.11132h-.99121L153.147,302.875l-.32031,1.87109h-.83106l1.05567-6.2373h.84668l-.65528,3.81445,1.48731-1.25586Z" style="fill: #d7d7d7"/>
        <path d="M155.78762,303.14648a2.13893,2.13893,0,0,1,2.15821-2.1582,1.45219,1.45219,0,0,1,1.583,1.61426,1.77371,1.77371,0,0,1-.0879.50391h-2.79c-.01563.59179.27148,1.00781.86328,1.00781a1.292,1.292,0,0,0,1.07129-.584l.71972.2959a2.11374,2.11374,0,0,1-1.86328,1A1.55143,1.55143,0,0,1,155.78762,303.14648Zm.9668-.63964h1.8877v-.01563c0-.52832-.25586-.84766-.76758-.84766A1.1841,1.1841,0,0,0,156.75442,302.50684Z" style="fill: #d7d7d7"/>
      </g>
    </g>
    <g id="d1811579-28f4-4c13-b8db-eeccb1f0559f" data-name="Name">
      <g>
        <path d="M84.07913,5.21436a7.21731,7.21731,0,0,1,0,14.43457H81.09622V29.249H76.29641V5.21436Zm0,9.63427a2.40718,2.40718,0,0,0,2.40039-2.3999,2.43693,2.43693,0,0,0-2.40039-2.43457H81.09622v4.83447Z" style="fill: #d7d7d7"/>
        <path d="M102.6929,19.06592a11.49252,11.49252,0,0,1-3.63428-1.50879,6.59646,6.59646,0,0,1-3.08594-5.417A6.42959,6.42959,0,0,1,97.72122,7.2373a8.33734,8.33734,0,0,1,5.58887-2.36621,11.92684,11.92684,0,0,1,7.20019,2.40039l.78857.51416-2.50293,4.08008-.85742-.54834a7.38027,7.38027,0,0,0-4.62841-1.646,3.6642,3.6642,0,0,0-2.126.8916,1.69172,1.69172,0,0,0-.41113,1.37158c.03418,1.23389.89111,1.91992,3.08544,2.46826.27442.06885.48047.13721.686.20606a12.7061,12.7061,0,0,1,5.31445,3.18847,6.94349,6.94349,0,0,1,1.88575,4.69727,7.47556,7.47556,0,0,1-7.44043,7.23437,14.218,14.218,0,0,1-4.21729-.583,13.28634,13.28634,0,0,1-5.72559-3.63428l3.49707-3.29151a8.30635,8.30635,0,0,0,6.44581,2.7085,2.6392,2.6392,0,0,0,2.64013-2.43408c0-1.30274-1.47412-2.50293-3.97705-3.36035l-.103-.03418Z" style="fill: #d7d7d7"/>
        <path d="M122.88284,10.01416V24.44873H125.42V29.249h-9.90869V24.44873H118.083V10.01416h-2.57177V5.21436H125.42v4.7998Z" style="fill: #d7d7d7"/>
        <path d="M164.70657,17.21436A12.446,12.446,0,1,1,152.26028,4.76855,12.46744,12.46744,0,0,1,164.70657,17.21436Zm-19.95459,0a7.50855,7.50855,0,1,0,7.5083-7.50879A7.5062,7.5062,0,0,0,144.752,17.21436Zm4.31982,0a3.18873,3.18873,0,1,0,6.37745,0,3.18873,3.18873,0,0,0-6.37745,0Z" style="fill: #d7d7d7"/>
        <path d="M176.52884,5.21436a7.21731,7.21731,0,0,1,0,14.43457h-2.98292V29.249h-4.7998V5.21436Zm0,9.63427a2.40718,2.40718,0,0,0,2.40039-2.3999,2.43693,2.43693,0,0,0-2.40039-2.43457h-2.98292v4.83447Z" style="fill: #d7d7d7"/>
      </g>
    </g>
    <g id="04cd32ce-f581-402a-a0fb-ca018463567f" data-name="Logo">
      <g>
        <polygon points="126.171 345.662 123.817 345.662 123.817 348.016 123.817 350.37 123.817 352.724 123.817 355.078 126.171 355.078 126.171 352.724 126.171 350.37 128.525 350.37 128.525 348.016 130.879 348.016 130.879 345.662 128.525 345.662 126.171 345.662" style="fill: #d7d7d7"/>
        <polygon points="128.525 355.078 130.879 355.078 133.233 355.078 135.587 355.078 135.587 352.724 135.587 350.37 135.587 348.016 135.587 345.662 133.233 345.662 133.233 348.016 133.233 350.37 130.879 350.37 130.879 352.724 128.525 352.724 128.525 355.078" style="fill: #d7d7d7"/>
        <polygon points="137.941 342.085 121.462 342.085 121.462 343.353 137.941 343.353 137.941 357.406 121.462 357.406 121.462 342.085 120.285 342.085 120.285 358.583 121.462 358.583 139.118 358.583 139.118 357.406 139.118 342.085 137.941 342.085" style="fill: #d7d7d7"/>
      </g>
    </g>
    <g id="e97168f4-56c6-40b3-8585-3eb69d3bfbbb" data-name="Legend">
      <circle cx="53.3742" cy="284.67637" r="13.63575" style="fill: none;stroke: #ff6f4a;stroke-miterlimit: 10"/>
      <circle cx="90.73291" cy="284.62751" r="13.63575" style="fill: none;stroke: #ff6f4a;stroke-miterlimit: 10"/>
      <circle cx="129.70182" cy="284.62751" r="13.63575" style="fill: none;stroke: #ff6f4a;stroke-miterlimit: 10"/>
      <circle cx="167.86597" cy="284.67637" r="13.63575" style="fill: none;stroke: #ff6f4a;stroke-miterlimit: 10"/>
      <circle cx="206.12971" cy="284.67637" r="13.63575" style="fill: none;stroke: #ff6f4a;stroke-miterlimit: 10"/>
      <circle cx="72.36" cy="321.06209" r="13.63575" style="fill: none;stroke: #ff6f4a;stroke-miterlimit: 10"/>
      <circle cx="110.52393" cy="321.11646" r="13.63575" style="fill: none;stroke: #ff6f4a;stroke-miterlimit: 10"/>
      <circle cx="148.68785" cy="320.95335" r="13.63575" style="fill: none;stroke: #ff6f4a;stroke-miterlimit: 10"/>
      <circle cx="34.22967" cy="66.38031" r="13.63575" style="fill: none;stroke: #ff6f4a;stroke-miterlimit: 10"/>
      <circle cx="101.01654" cy="77.64963" r="13.63575" style="fill: none;stroke: #ff6f4a;stroke-miterlimit: 10"/>
      <circle cx="158.32499" cy="77.64963" r="13.63575" style="fill: none;stroke: #ff6f4a;stroke-miterlimit: 10"/>
      <path d="M148.38083,132.2991a1.50118,1.50118,0,0,1-.5498-2.0498h0a1.51276,1.51276,0,0,1,2.0498-.55029h0a1.50635,1.50635,0,0,1,.54981,2.05029h0a1.50233,1.50233,0,0,1-1.29981.75h0A1.45623,1.45623,0,0,1,148.38083,132.2991Zm17.87012-.56005a1.49262,1.49262,0,0,1,.54981-2.04981h0a1.50271,1.50271,0,0,1,2.0498.54h0a1.50118,1.50118,0,0,1-.5498,2.0498h0a1.49437,1.49437,0,0,1-.75.21h0A1.5,1.5,0,0,1,166.251,131.73905Zm-27.85058-16.66993a1.4979,1.4979,0,0,1,1.5-1.5h0a1.50416,1.50416,0,0,1,1.5,1.5h0a1.50447,1.50447,0,0,1-1.5,1.5h0A1.49789,1.49789,0,0,1,138.40037,115.06912Zm36.85058-.04v-.06982h0a1.48264,1.48264,0,0,1,1.48926-1.5h0A1.49861,1.49861,0,0,1,178.251,114.949h0v.04h0v.04h0a1.49789,1.49789,0,0,1-1.5,1.5h0A1.49789,1.49789,0,0,1,175.251,115.02908ZM147.77048,99.84891a1.49419,1.49419,0,0,1,.54-2.04981h0a1.51144,1.51144,0,0,1,2.04981.54h0a1.48869,1.48869,0,0,1-.54,2.04981v.01025a1.5887,1.5887,0,0,1-.75.19971h0A1.50132,1.50132,0,0,1,147.77048,99.84891Zm18.96.49023h.00977a1.49521,1.49521,0,0,1-.55957-2.04h0a1.50484,1.50484,0,0,1,2.0498-.56h0a1.50078,1.50078,0,0,1,.54981,2.05029h0a1.48844,1.48844,0,0,1-1.29981.75h0A1.48131,1.48131,0,0,1,166.73044,100.33914Z" style="fill: #ff6f4a"/>
      <g>
        <path d="M166.97947,173.019a.499.499,0,0,1-.28321-.08789,18.92584,18.92584,0,1,1,21.43262-.00879.49964.49964,0,1,1-.56641-.82324,17.92547,17.92547,0,1,0-20.2998.00781.5.5,0,0,1-.2832.91211Z" style="fill: #00cfb5"/>
        <path d="M167.77305,171.19622a1.5039,1.5039,0,1,1-2.08609.41428A1.50409,1.50409,0,0,1,167.77305,171.19622Z" style="fill: #00cfb5"/>
        <path d="M187.0499,171.19a1.50391,1.50391,0,1,0,2.08634.413A1.50405,1.50405,0,0,0,187.0499,171.19Z" style="fill: #00cfb5"/>
      </g>
      <g>
        <path d="M71.57029,173.019a.499.499,0,0,1-.28321-.08789,18.92584,18.92584,0,1,1,21.43262-.00879.49963.49963,0,1,1-.5664-.82324,17.926,17.926,0,1,0-20.29981.00781.5.5,0,0,1-.2832.91211Z" style="fill: #00cfb5"/>
        <path d="M72.36324,171.19622a1.5039,1.5039,0,1,1-2.0861.41428A1.50406,1.50406,0,0,1,72.36324,171.19622Z" style="fill: #00cfb5"/>
        <path d="M91.64008,171.19a1.50391,1.50391,0,1,0,2.08635.413A1.50407,1.50407,0,0,0,91.64008,171.19Z" style="fill: #00cfb5"/>
      </g>
      <g>
        <path d="M110.30857,131.48172a.5.5,0,0,1-.251-.93262A17.92649,17.92649,0,1,0,83.1533,115.03153a.5.5,0,0,1-1,0,18.92529,18.92529,0,1,1,28.40625,16.38281A.49681.49681,0,0,1,110.30857,131.48172Z" style="fill: #ff6f4a"/>
        <path d="M84.15769,115.03137a1.50392,1.50392,0,1,1-1.50391-1.5039A1.50407,1.50407,0,0,1,84.15769,115.03137Z" style="fill: #ff6f4a"/>
        <path d="M109.55442,129.6806a1.50391,1.50391,0,1,0,2.05542.54652A1.50407,1.50407,0,0,0,109.55442,129.6806Z" style="fill: #ff6f4a"/>
      </g>
      <g>
        <path d="M33.40574,221.94824a.49635.49635,0,0,1-.28272-.08789,18.92439,18.92439,0,1,1,21.43311-.00781.50032.50032,0,0,1-.56739-.82422,17.92522,17.92522,0,1,0-20.29931.00781.5.5,0,0,1-.28369.91211Z" style="fill: #ff6f4a"/>
        <path d="M34.19932,220.12552a1.5039,1.5039,0,1,1-2.08609.41428A1.50408,1.50408,0,0,1,34.19932,220.12552Z" style="fill: #ff6f4a"/>
        <circle cx="54.31282" cy="221.369" r="1.50391" style="fill: #ff6f4a"/>
      </g>
      <g>
        <circle cx="205.20911" cy="221.21958" r="0.4252" style="fill: #ff6f4a"/>
        <circle cx="204.02039" cy="220.32279" r="0.4252" style="fill: #ff6f4a"/>
        <circle cx="202.90893" cy="219.33186" r="0.4252" style="fill: #ff6f4a"/>
        <circle cx="201.88216" cy="218.25342" r="0.4252" style="fill: #ff6f4a"/>
        <circle cx="200.94697" cy="217.09468" r="0.4252" style="fill: #ff6f4a"/>
        <circle cx="200.10959" cy="215.86338" r="0.4252" style="fill: #ff6f4a"/>
        <circle cx="199.37564" cy="214.56778" r="0.4252" style="fill: #ff6f4a"/>
        <circle cx="198.75002" cy="213.21652" r="0.4252" style="fill: #ff6f4a"/>
        <circle cx="198.23692" cy="211.81867" r="0.4252" style="fill: #ff6f4a"/>
        <circle cx="197.83977" cy="210.38355" r="0.4252" style="fill: #ff6f4a"/>
        <circle cx="197.56123" cy="208.92078" r="0.4252" style="fill: #ff6f4a"/>
        <circle cx="197.40316" cy="207.44014" r="0.4252" style="fill: #ff6f4a"/>
        <circle cx="197.36661" cy="205.95153" r="0.4252" style="fill: #ff6f4a"/>
        <circle cx="197.45184" cy="204.46492" r="0.4252" style="fill: #ff6f4a"/>
        <circle cx="197.65827" cy="202.99025" r="0.4252" style="fill: #ff6f4a"/>
        <circle cx="197.98453" cy="201.53737" r="0.4252" style="fill: #ff6f4a"/>
        <circle cx="198.42842" cy="200.11602" r="0.4252" style="fill: #ff6f4a"/>
        <circle cx="198.98698" cy="198.7357" r="0.4252" style="fill: #ff6f4a"/>
        <circle cx="199.65648" cy="197.40564" r="0.4252" style="fill: #ff6f4a"/>
        <circle cx="200.43243" cy="196.13474" r="0.4252" style="fill: #ff6f4a"/>
        <circle cx="201.30964" cy="194.9315" r="0.4252" style="fill: #ff6f4a"/>
        <circle cx="202.28225" cy="193.80398" r="0.4252" style="fill: #ff6f4a"/>
        <circle cx="203.34375" cy="192.75971" r="0.4252" style="fill: #ff6f4a"/>
        <circle cx="204.48704" cy="191.80568" r="0.4252" style="fill: #ff6f4a"/>
        <circle cx="205.70447" cy="190.94827" r="0.4252" style="fill: #ff6f4a"/>
        <circle cx="206.98789" cy="190.19322" r="0.4252" style="fill: #ff6f4a"/>
        <circle cx="208.32873" cy="189.54557" r="0.4252" style="fill: #ff6f4a"/>
        <circle cx="209.718" cy="189.00967" r="0.4252" style="fill: #ff6f4a"/>
        <circle cx="211.14643" cy="188.58909" r="0.4252" style="fill: #ff6f4a"/>
        <circle cx="212.60444" cy="188.28665" r="0.4252" style="fill: #ff6f4a"/>
        <circle cx="214.0823" cy="188.10438" r="0.4252" style="fill: #ff6f4a"/>
        <circle cx="215.57011" cy="188.04348" r="0.4252" style="fill: #ff6f4a"/>
        <circle cx="217.05792" cy="188.10438" r="0.4252" style="fill: #ff6f4a"/>
        <circle cx="218.53577" cy="188.28665" r="0.4252" style="fill: #ff6f4a"/>
        <circle cx="219.99379" cy="188.58909" r="0.4252" style="fill: #ff6f4a"/>
        <circle cx="221.42221" cy="189.00967" r="0.4252" style="fill: #ff6f4a"/>
        <circle cx="222.81149" cy="189.54557" r="0.4252" style="fill: #ff6f4a"/>
        <circle cx="224.15233" cy="190.19322" r="0.4252" style="fill: #ff6f4a"/>
        <circle cx="225.43575" cy="190.94827" r="0.4252" style="fill: #ff6f4a"/>
        <circle cx="226.65318" cy="191.80568" r="0.4252" style="fill: #ff6f4a"/>
        <circle cx="227.79647" cy="192.75971" r="0.4252" style="fill: #ff6f4a"/>
        <circle cx="228.85797" cy="193.80398" r="0.4252" style="fill: #ff6f4a"/>
        <circle cx="229.83057" cy="194.9315" r="0.4252" style="fill: #ff6f4a"/>
        <circle cx="230.70779" cy="196.13474" r="0.4252" style="fill: #ff6f4a"/>
        <circle cx="231.48374" cy="197.40564" r="0.4252" style="fill: #ff6f4a"/>
        <circle cx="232.15323" cy="198.7357" r="0.4252" style="fill: #ff6f4a"/>
        <circle cx="232.7118" cy="200.11602" r="0.4252" style="fill: #ff6f4a"/>
        <circle cx="233.15569" cy="201.53737" r="0.4252" style="fill: #ff6f4a"/>
        <circle cx="233.48194" cy="202.99025" r="0.4252" style="fill: #ff6f4a"/>
        <circle cx="233.68838" cy="204.46492" r="0.4252" style="fill: #ff6f4a"/>
        <circle cx="233.7736" cy="205.95153" r="0.4252" style="fill: #ff6f4a"/>
        <circle cx="233.73706" cy="207.44014" r="0.4252" style="fill: #ff6f4a"/>
        <circle cx="233.57899" cy="208.92078" r="0.4252" style="fill: #ff6f4a"/>
        <circle cx="233.30045" cy="210.38355" r="0.4252" style="fill: #ff6f4a"/>
        <circle cx="232.9033" cy="211.81867" r="0.4252" style="fill: #ff6f4a"/>
        <circle cx="232.3902" cy="213.21652" r="0.4252" style="fill: #ff6f4a"/>
        <circle cx="231.76458" cy="214.56778" r="0.4252" style="fill: #ff6f4a"/>
        <circle cx="231.03063" cy="215.86338" r="0.4252" style="fill: #ff6f4a"/>
        <circle cx="230.19325" cy="217.09468" r="0.4252" style="fill: #ff6f4a"/>
        <circle cx="229.25805" cy="218.25342" r="0.4252" style="fill: #ff6f4a"/>
        <circle cx="228.23129" cy="219.33186" r="0.4252" style="fill: #ff6f4a"/>
        <circle cx="227.11983" cy="220.32279" r="0.4252" style="fill: #ff6f4a"/>
        <circle cx="225.93111" cy="221.21958" r="0.4252" style="fill: #ff6f4a"/>
        <circle cx="224.67308" cy="222.01622" r="0.4252" style="fill: #ff6f4a"/>
      </g>
      <g>
        <path d="M199.33161,240.05431h2.504v.95913h-2.504Z" style="fill: #ff6f4a"/>
        <path d="M213.40228,241.04386H212.0465v1.34982h-.95913v-1.34982h-1.41066v-.95913h1.41066v-1.41066h.95913v1.41066h1.35578Z" style="fill: #ff6f4a"/>
        <path d="M217.86814,254.94437a11.84636,11.84636,0,0,0-10.07294-11.6925,1.78447,1.78447,0,0,0-3.53082.00012,11.82143,11.82143,0,0,0-6.55011,20.11047,1.5139,1.5139,0,1,0,.66717-.74878,10.82064,10.82064,0,0,1,6.01124-18.37085,1.78772,1.78772,0,0,0,3.27441-.00006,10.82118,10.82118,0,0,1,6.01636,18.36615,1.49642,1.49642,0,1,0,.66723.748A11.73359,11.73359,0,0,0,217.86814,254.94437Zm-11.83838-10.382a1.04248,1.04248,0,1,1,1.04248-1.04248A1.04248,1.04248,0,0,1,206.02976,244.56241Z" style="fill: #ff6f4a"/>
      </g>
      <g>
        <path d="M91.13572,265.08984l-.99414-.10351a248.96565,248.96565,0,0,0,.63086-44.499,210.14952,210.14952,0,0,0-4.1709-30.2871l.97851-.209a211.124,211.124,0,0,1,4.19043,30.41992A250.06085,250.06085,0,0,1,91.13572,265.08984Z" style="fill: #00cfb5"/>
        <polygon points="89.131 191.718 87.134 190.39 85.807 192.389 85.523 190.978 86.849 188.98 88.846 190.307 89.131 191.718" style="fill: #00cfb5"/>
      </g>
      <g>
        <path d="M163.28122,265.08984a250.06085,250.06085,0,0,1-.63476-44.67871,211.43491,211.43491,0,0,1,4.19043-30.41992l.97851.209a210.16585,210.16585,0,0,0-4.17089,30.2871,249.0562,249.0562,0,0,0,.63086,44.499Z" style="fill: #00cfb5"/>
        <polygon points="168.61 192.389 167.283 190.39 165.286 191.718 165.571 190.307 167.568 188.98 168.894 190.978 168.61 192.389" style="fill: #00cfb5"/>
      </g>
      <g>
        <path d="M123.00366,240.05431h2.504v.95913h-2.504Z" style="fill: #ff6f4a"/>
        <path d="M137.07434,241.04386h-1.35579v1.34982h-.95913v-1.34982h-1.41066v-.95913h1.41066v-1.41066h.95913v1.41066h1.35579Z" style="fill: #ff6f4a"/>
        <path d="M141.54019,254.94437a11.84635,11.84635,0,0,0-10.07293-11.6925,1.78447,1.78447,0,0,0-3.53082.00012,11.82143,11.82143,0,0,0-6.55011,20.11047,1.51389,1.51389,0,1,0,.66717-.74878,10.82065,10.82065,0,0,1,6.01123-18.37085,1.78773,1.78773,0,0,0,3.27442-.00006,10.82118,10.82118,0,0,1,6.01635,18.36615,1.49641,1.49641,0,1,0,.66724.748A11.73359,11.73359,0,0,0,141.54019,254.94437Zm-11.83837-10.382a1.04248,1.04248,0,1,1,1.04248-1.04248A1.04247,1.04247,0,0,1,129.70182,244.56241Z" style="fill: #ff6f4a"/>
      </g>
      <g>
        <path d="M199.33161,240.05431h2.504v.95913h-2.504Z" style="fill: #ff6f4a"/>
        <path d="M213.40228,241.04386H212.0465v1.34982h-.95913v-1.34982h-1.41066v-.95913h1.41066v-1.41066h.95913v1.41066h1.35578Z" style="fill: #ff6f4a"/>
        <path d="M217.86814,254.94437a11.84636,11.84636,0,0,0-10.07294-11.6925,1.78447,1.78447,0,0,0-3.53082.00012,11.82143,11.82143,0,0,0-6.55011,20.11047,1.5139,1.5139,0,1,0,.66717-.74878,10.82064,10.82064,0,0,1,6.01124-18.37085,1.78772,1.78772,0,0,0,3.27441-.00006,10.82118,10.82118,0,0,1,6.01636,18.36615,1.49642,1.49642,0,1,0,.66723.748A11.73359,11.73359,0,0,0,217.86814,254.94437Zm-11.83838-10.382a1.04248,1.04248,0,1,1,1.04248-1.04248A1.04248,1.04248,0,0,1,206.02976,244.56241Z" style="fill: #ff6f4a"/>
      </g>
      <g>
        <path d="M46.676,240.05431H49.18v.95913H46.676Z" style="fill: #ff6f4a"/>
        <path d="M60.74672,241.04386H59.39094v1.34982h-.95913v-1.34982H57.02114v-.95913h1.41067v-1.41066h.95913v1.41066h1.35578Z" style="fill: #ff6f4a"/>
        <path d="M65.21258,254.94437a11.84636,11.84636,0,0,0-10.07294-11.6925,1.78447,1.78447,0,0,0-3.53082.00012,11.82143,11.82143,0,0,0-6.55011,20.11047,1.51389,1.51389,0,1,0,.66717-.74878,10.82065,10.82065,0,0,1,6.01123-18.37085,1.78773,1.78773,0,0,0,3.27442-.00006,10.82117,10.82117,0,0,1,6.01635,18.36615,1.49641,1.49641,0,1,0,.66724.748A11.73359,11.73359,0,0,0,65.21258,254.94437Zm-11.83838-10.382a1.04248,1.04248,0,1,1,1.04248-1.04248A1.04247,1.04247,0,0,1,53.3742,244.56241Z" style="fill: #ff6f4a"/>
      </g>
      <circle cx="225.11186" cy="66.38031" r="13.63575" style="fill: none;stroke: #ff6f4a;stroke-miterlimit: 10"/>
      <g>
        <circle cx="120.46705" cy="222.10734" r="0.85039" style="fill: #ff6f4a"/>
        <circle cx="117.94909" cy="220.33276" r="0.85039" style="fill: #ff6f4a"/>
        <circle cx="115.76424" cy="218.16121" r="0.85039" style="fill: #ff6f4a"/>
        <circle cx="113.97431" cy="215.65414" r="0.85039" style="fill: #ff6f4a"/>
        <circle cx="112.62997" cy="212.8825" r="0.85039" style="fill: #ff6f4a"/>
        <circle cx="111.76926" cy="209.92473" r="0.85039" style="fill: #ff6f4a"/>
        <circle cx="111.41653" cy="206.86453" r="0.85039" style="fill: #ff6f4a"/>
        <circle cx="111.58178" cy="203.78851" r="0.85039" style="fill: #ff6f4a"/>
        <circle cx="112.26032" cy="200.78371" r="0.85039" style="fill: #ff6f4a"/>
        <circle cx="113.43295" cy="197.93517" r="0.85039" style="fill: #ff6f4a"/>
        <circle cx="115.06648" cy="195.3235" r="0.85039" style="fill: #ff6f4a"/>
        <circle cx="117.11469" cy="193.02262" r="0.85039" style="fill: #ff6f4a"/>
        <circle cx="119.51962" cy="191.09763" r="0.85039" style="fill: #ff6f4a"/>
        <circle cx="122.2132" cy="189.60302" r="0.85039" style="fill: #ff6f4a"/>
        <circle cx="125.1192" cy="188.58108" r="0.85039" style="fill: #ff6f4a"/>
        <circle cx="128.1554" cy="188.06073" r="0.85039" style="fill: #ff6f4a"/>
        <circle cx="131.23585" cy="188.0567" r="0.85039" style="fill: #ff6f4a"/>
        <circle cx="134.2734" cy="188.5691" r="0.85039" style="fill: #ff6f4a"/>
        <circle cx="137.18207" cy="189.58343" r="0.85039" style="fill: #ff6f4a"/>
        <circle cx="139.87955" cy="191.07098" r="0.85039" style="fill: #ff6f4a"/>
        <circle cx="142.28951" cy="192.98967" r="0.85039" style="fill: #ff6f4a"/>
        <circle cx="144.34374" cy="195.28518" r="0.85039" style="fill: #ff6f4a"/>
        <circle cx="145.9841" cy="197.89256" r="0.85039" style="fill: #ff6f4a"/>
        <circle cx="147.16418" cy="200.73802" r="0.85039" style="fill: #ff6f4a"/>
        <circle cx="147.85059" cy="203.74103" r="0.85039" style="fill: #ff6f4a"/>
        <circle cx="148.02389" cy="206.81661" r="0.85039" style="fill: #ff6f4a"/>
        <circle cx="147.67917" cy="209.87772" r="0.85039" style="fill: #ff6f4a"/>
        <circle cx="146.82621" cy="212.83774" r="0.85039" style="fill: #ff6f4a"/>
        <circle cx="145.48913" cy="215.61289" r="0.85039" style="fill: #ff6f4a"/>
        <circle cx="143.70577" cy="218.12463" r="0.85039" style="fill: #ff6f4a"/>
        <circle cx="141.52661" cy="220.3019" r="0.85039" style="fill: #ff6f4a"/>
        <circle cx="139.01331" cy="222.08306" r="0.85039" style="fill: #ff6f4a"/>
      </g>
    </g>
  </g>
</svg>
