<svg xmlns="http://www.w3.org/2000/svg" width="91.512mm" height="128.5mm" viewBox="0 0 259.404 364.252"><title>Aspect</title><g id="2da7a43b-aafb-4af1-bbe5-3ac3b2f83c75" data-name="PSI OP"><g id="282bbbd4-3153-4901-98af-1790dff15a7a" data-name="BG"><rect width="259.404" height="364.252" fill="#333"/></g><g id="9276c159-11bc-4c72-894e-6cee2664df35" data-name="HeaderBG"><rect width="259.404" height="31.181" fill="#ff6f4a"/></g><g id="21739430-c2ea-48a1-a402-208081966371" data-name="Text"><path d="M90.2,56.667a1.186,1.186,0,0,0,1.27-1.079c.019-.68-.561-.9-1.26-1.219a2.145,2.145,0,0,1-1.549-1.939,2.173,2.173,0,0,1,2.349-1.959A2.262,2.262,0,0,1,93.2,51.98l-.97.51a1.4,1.4,0,0,0-1.338-.97.9.9,0,0,0-1.02.83c-.03.56.529.9,1.319,1.209a2.012,2.012,0,0,1,1.5,1.949,2.466,2.466,0,0,1-2.548,2.229,2.6,2.6,0,0,1-2.429-1.789l.9-.62C88.964,56.118,89.4,56.667,90.2,56.667Z" fill="#d7d7d7"/><path d="M92.925,59.786l1.18-6.8h1.059l-.12.74a2.011,2.011,0,0,1,1.629-.859,1.916,1.916,0,0,1,1.808,2.418,2.678,2.678,0,0,1-2.558,2.419,1.412,1.412,0,0,1-1.389-.979l-.51,3.058Zm3.4-5.937a1.671,1.671,0,0,0-1.539,1.439c-.1.77.289,1.42.98,1.44a1.676,1.676,0,0,0,1.619-1.44A1.119,1.119,0,0,0,96.323,53.849Z" fill="#d7d7d7"/><path d="M99.124,55.588a2.674,2.674,0,0,1,2.7-2.7,1.816,1.816,0,0,1,1.979,2.018,2.225,2.225,0,0,1-.11.63H100.2c-.019.74.34,1.259,1.079,1.259a1.614,1.614,0,0,0,1.34-.729l.9.37a2.643,2.643,0,0,1-2.33,1.249A1.939,1.939,0,0,1,99.124,55.588Zm1.209-.8h2.358v-.02c0-.66-.319-1.06-.959-1.06A1.48,1.48,0,0,0,100.333,54.789Z" fill="#d7d7d7"/><path d="M104.344,55.588a2.674,2.674,0,0,1,2.7-2.7,1.816,1.816,0,0,1,1.979,2.018,2.225,2.225,0,0,1-.11.63h-3.488c-.02.74.34,1.259,1.079,1.259a1.617,1.617,0,0,0,1.34-.729l.9.37a2.64,2.64,0,0,1-2.329,1.249A1.939,1.939,0,0,1,104.344,55.588Zm1.209-.8h2.358v-.02c0-.66-.319-1.06-.959-1.06A1.478,1.478,0,0,0,105.553,54.789Z" fill="#d7d7d7"/><path d="M112.1,52.89a1.433,1.433,0,0,1,1.389.949l.69-4.048h1.079l-1.339,7.8h-1.069l.12-.71a2.03,2.03,0,0,1-1.61.81,1.92,1.92,0,0,1-1.819-2.4A2.683,2.683,0,0,1,112.1,52.89Zm-.4,3.858a1.692,1.692,0,0,0,1.539-1.46c.1-.769-.28-1.439-.979-1.459a1.693,1.693,0,0,0-1.619,1.459A1.135,1.135,0,0,0,111.7,56.748Z" fill="#d7d7d7"/><path d="M15.957,48a1.186,1.186,0,0,0,1.269-1.08c.02-.68-.56-.9-1.26-1.219a2.143,2.143,0,0,1-1.548-1.939A2.172,2.172,0,0,1,16.766,41.8a2.263,2.263,0,0,1,2.189,1.509l-.97.51a1.4,1.4,0,0,0-1.339-.97.9.9,0,0,0-1.02.83c-.03.56.53.9,1.32,1.209a2.013,2.013,0,0,1,1.5,1.949A2.467,2.467,0,0,1,15.9,49.069a2.6,2.6,0,0,1-2.429-1.789l.9-.62C14.717,47.45,15.157,48,15.957,48Z" fill="#d7d7d7"/><path d="M20.017,44.321l.271-1.6h1.069l-.28,1.6h.759l-.169.95h-.749l-.64,3.648h-1.04l.62-3.648h-.74l.17-.95Z" fill="#d7d7d7"/><path d="M24.335,44.222a1.437,1.437,0,0,1,1.41,1l.15-.9h1.06l-.8,4.6H25.126l.129-.77a2.064,2.064,0,0,1-1.659.87,1.92,1.92,0,0,1-1.819-2.4A2.683,2.683,0,0,1,24.335,44.222Zm-.4,3.858a1.692,1.692,0,0,0,1.539-1.46c.1-.769-.28-1.439-.979-1.459a1.7,1.7,0,0,0-1.62,1.459A1.136,1.136,0,0,0,23.936,48.08Z" fill="#d7d7d7"/><path d="M29.886,45.231c-.49-.01-.79.4-.92.87l-.489,2.818H27.418l.8-4.6h1.06l-.091.52a1.488,1.488,0,0,1,1.09-.619,1.1,1.1,0,0,1,.8.36l-.64.9A.828.828,0,0,0,29.886,45.231Z" fill="#d7d7d7"/><path d="M31.936,44.321l.271-1.6h1.069l-.28,1.6h.759l-.17.95h-.749L32.2,48.919h-1.04l.62-3.648h-.74l.17-.95Z" fill="#d7d7d7"/><path d="M41.7,41.923l-.181,1.059H38.9l-.3,1.749h2.519l-.17,1.03H38.417l-.541,3.158H36.737l1.18-7Z" fill="#d7d7d7"/><path d="M43.956,45.231c-.491-.01-.79.4-.92.87l-.49,2.818H41.487l.8-4.6h1.058l-.09.52a1.488,1.488,0,0,1,1.09-.619,1.1,1.1,0,0,1,.8.36l-.64.9A.827.827,0,0,0,43.956,45.231Z" fill="#d7d7d7"/><path d="M45.017,46.92a2.674,2.674,0,0,1,2.7-2.7,1.816,1.816,0,0,1,1.979,2.018,2.225,2.225,0,0,1-.11.63H46.1c-.019.74.34,1.259,1.079,1.259a1.614,1.614,0,0,0,1.34-.729l.9.37a2.643,2.643,0,0,1-2.33,1.249A1.939,1.939,0,0,1,45.017,46.92Zm1.209-.8h2.358V46.1c0-.66-.319-1.06-.958-1.06A1.481,1.481,0,0,0,46.226,46.121Z" fill="#d7d7d7"/><path d="M52.775,44.2a1.4,1.4,0,0,1,1.39.989l.149-.87h1.08l-1.18,6.8H53.135l.51-2.909a2.05,2.05,0,0,1-1.619.83,1.919,1.919,0,0,1-1.81-2.419A2.678,2.678,0,0,1,52.775,44.2Zm-.4,3.858a1.674,1.674,0,0,0,1.539-1.44c.1-.769-.29-1.419-.98-1.439a1.676,1.676,0,0,0-1.619,1.439A1.119,1.119,0,0,0,52.376,48.06Z" fill="#d7d7d7"/><path d="M211.759,41.923l-.181,1.039H208.57l-.29,1.7H211.1l-.18,1.02H208.11l-.38,2.2h3.019l-.18,1.04h-4.158l1.18-7Z" fill="#d7d7d7"/><path d="M214.59,45.1a1.166,1.166,0,0,0-1.169.989l-.49,2.829h-1.079l.8-4.6h1.07l-.111.68a1.665,1.665,0,0,1,1.419-.779c1.05,0,1.44.8,1.3,1.778l-.5,2.919h-1.1l.5-2.8C215.3,45.581,215.189,45.1,214.59,45.1Z" fill="#d7d7d7"/><path d="M219.75,44.222a1.437,1.437,0,0,1,1.39.949l.689-4.048h1.079l-1.339,7.8H220.5l.12-.71a2.027,2.027,0,0,1-1.609.81,1.921,1.921,0,0,1-1.82-2.4A2.684,2.684,0,0,1,219.75,44.222Zm-.4,3.858a1.692,1.692,0,0,0,1.539-1.46c.1-.769-.281-1.439-.98-1.459a1.694,1.694,0,0,0-1.619,1.459C218.171,47.4,218.571,48.08,219.351,48.08Z" fill="#d7d7d7"/><path d="M230.888,41.923l-.18,1.059H228.09l-.3,1.749h2.519l-.17,1.03H227.61l-.54,3.158h-1.139l1.179-7Z" fill="#d7d7d7"/><path d="M233.15,45.231c-.49-.01-.79.4-.92.87l-.489,2.818h-1.059l.8-4.6h1.059l-.09.52a1.488,1.488,0,0,1,1.09-.619,1.1,1.1,0,0,1,.8.36l-.64.9A.828.828,0,0,0,233.15,45.231Z" fill="#d7d7d7"/><path d="M234.211,46.92a2.674,2.674,0,0,1,2.7-2.7,1.816,1.816,0,0,1,1.979,2.018,2.225,2.225,0,0,1-.11.63H235.29c-.019.74.34,1.259,1.079,1.259a1.617,1.617,0,0,0,1.34-.729l.9.37a2.64,2.64,0,0,1-2.329,1.249A1.939,1.939,0,0,1,234.211,46.92Zm1.209-.8h2.358V46.1c0-.66-.319-1.06-.959-1.06A1.479,1.479,0,0,0,235.42,46.121Z" fill="#d7d7d7"/><path d="M241.969,44.2a1.4,1.4,0,0,1,1.389.989l.15-.87h1.08l-1.18,6.8h-1.079l.51-2.909a2.05,2.05,0,0,1-1.619.83,1.918,1.918,0,0,1-1.81-2.419A2.677,2.677,0,0,1,241.969,44.2Zm-.4,3.858a1.672,1.672,0,0,0,1.539-1.44c.1-.769-.29-1.419-.979-1.439a1.676,1.676,0,0,0-1.619,1.439A1.119,1.119,0,0,0,241.569,48.06Z" fill="#d7d7d7"/><path d="M184.452,299.053a2.375,2.375,0,0,1,2.367,2.894,3.4,3.4,0,0,1-3.295,2.919,2.4,2.4,0,0,1-2.366-2.919A3.4,3.4,0,0,1,184.452,299.053Zm-.832,4.878a2.309,2.309,0,0,0,2.207-1.984,1.55,1.55,0,0,0-1.471-1.982,2.307,2.307,0,0,0-2.207,1.982A1.555,1.555,0,0,0,183.62,303.931Z" fill="#d7d7d7"/><path d="M188.757,304.122a.933.933,0,0,0,.943-.783l.4-2.272h.855l-.632,3.679h-.864l.089-.544a1.345,1.345,0,0,1-1.136.624c-.832,0-1.143-.648-1.031-1.424l.4-2.335h.864l-.384,2.24C188.205,303.738,188.293,304.122,188.757,304.122Z" fill="#d7d7d7"/><path d="M192.1,301.067l.215-1.279h.856l-.224,1.279h.609l-.137.76h-.6l-.511,2.919h-.831l.495-2.919h-.592l.137-.76Z" fill="#d7d7d7"/><path d="M25.922,227.406a1.9,1.9,0,0,1,2.119,2.179,2.487,2.487,0,0,1-1.879,2.049L27.6,234.4H26.242l-1.27-2.648h-.7l-.45,2.648H22.664l1.179-7Zm-1.08,1.03-.4,2.338H25.3a1.451,1.451,0,0,0,1.539-1.17.966.966,0,0,0-1.079-1.168Z" fill="#d7d7d7"/><path d="M28.4,232.4a2.674,2.674,0,0,1,2.7-2.7,1.816,1.816,0,0,1,1.979,2.019,2.231,2.231,0,0,1-.11.63H29.483c-.02.739.34,1.258,1.079,1.258a1.617,1.617,0,0,0,1.34-.729l.9.37a2.638,2.638,0,0,1-2.329,1.249A1.939,1.939,0,0,1,28.4,232.4Zm1.209-.8h2.358v-.02c0-.66-.319-1.06-.959-1.06A1.479,1.479,0,0,0,29.613,231.6Z" fill="#d7d7d7"/><path d="M35.962,226.606l-1.349,7.8h-1.05l1.319-7.8Z" fill="#d7d7d7"/><path d="M36,232.4a2.674,2.674,0,0,1,2.7-2.7,1.815,1.815,0,0,1,1.978,2.019,2.233,2.233,0,0,1-.109.63H37.083c-.02.739.339,1.258,1.079,1.258a1.614,1.614,0,0,0,1.339-.729l.9.37a2.641,2.641,0,0,1-2.329,1.249A1.939,1.939,0,0,1,36,232.4Zm1.209-.8h2.359v-.02c0-.66-.32-1.06-.959-1.06A1.481,1.481,0,0,0,37.212,231.6Z" fill="#d7d7d7"/><path d="M43.761,229.705a1.436,1.436,0,0,1,1.409,1l.151-.9H46.38l-.8,4.6h-1.03l.13-.769a2.066,2.066,0,0,1-1.659.869,1.919,1.919,0,0,1-1.819-2.4A2.683,2.683,0,0,1,43.761,229.705Zm-.4,3.857A1.691,1.691,0,0,0,44.9,232.1c.1-.77-.28-1.44-.98-1.459A1.692,1.692,0,0,0,42.3,232.1,1.135,1.135,0,0,0,43.362,233.562Z" fill="#d7d7d7"/><path d="M48.7,233.662a.577.577,0,0,0,.638-.539c.011-.4-.439-.61-.879-.78-.559-.22-1.149-.549-1.129-1.329a1.445,1.445,0,0,1,1.619-1.309,2.137,2.137,0,0,1,1.689.81l-.6.629a1.526,1.526,0,0,0-1.1-.62c-.359,0-.6.18-.6.44-.019.36.38.51.84.7.68.289,1.239.6,1.219,1.4a1.556,1.556,0,0,1-1.689,1.48,2.492,2.492,0,0,1-2.008-1.02l.679-.619A1.756,1.756,0,0,0,48.7,233.662Z" fill="#d7d7d7"/><path d="M51.034,232.4a2.674,2.674,0,0,1,2.7-2.7,1.815,1.815,0,0,1,1.978,2.019,2.233,2.233,0,0,1-.109.63H52.113c-.02.739.34,1.258,1.079,1.258a1.617,1.617,0,0,0,1.34-.729l.9.37A2.638,2.638,0,0,1,53.1,234.5,1.939,1.939,0,0,1,51.034,232.4Zm1.209-.8H54.6v-.02c0-.66-.319-1.06-.959-1.06A1.478,1.478,0,0,0,52.243,231.6Z" fill="#d7d7d7"/><path d="M63.441,232.6h-2.5l-1.079,1.8h-1.35l4.618-7.4,2.049,7.4H63.9Zm-2-1h1.839l-.539-2.219Z" fill="#d7d7d7"/><path d="M122.294,227.406a1.9,1.9,0,0,1,2.119,2.179,2.487,2.487,0,0,1-1.879,2.049l1.439,2.768h-1.359l-1.27-2.648h-.7l-.45,2.648h-1.159l1.179-7Zm-1.08,1.03-.4,2.338h.859a1.45,1.45,0,0,0,1.539-1.17c.121-.708-.339-1.168-1.079-1.168Z" fill="#d7d7d7"/><path d="M127.314,229.705a1.438,1.438,0,0,1,1.409,1l.151-.9h1.059l-.8,4.6H128.1l.13-.769a2.067,2.067,0,0,1-1.659.869,1.92,1.92,0,0,1-1.82-2.4A2.684,2.684,0,0,1,127.314,229.705Zm-.4,3.857a1.691,1.691,0,0,0,1.539-1.458c.1-.77-.281-1.44-.98-1.459a1.692,1.692,0,0,0-1.619,1.459A1.135,1.135,0,0,0,126.915,233.562Z" fill="#d7d7d7"/><path d="M131.315,229.805l.27-1.6h1.07l-.28,1.6h.759l-.17.949h-.749l-.639,3.648h-1.04l.62-3.648h-.74l.169-.949Z" fill="#d7d7d7"/><path d="M134.975,229.805l-.779,4.6h-1.06l.77-4.6Zm-.22-2.479a.65.65,0,1,1-.679.65A.655.655,0,0,1,134.755,227.326Z" fill="#d7d7d7"/><path d="M138.474,229.705a2.027,2.027,0,0,1,2.079,2.4,2.788,2.788,0,0,1-2.759,2.4,2.031,2.031,0,0,1-2.078-2.4A2.789,2.789,0,0,1,138.474,229.705Zm-.6,3.838a1.664,1.664,0,0,0,1.579-1.439,1.14,1.14,0,0,0-1.07-1.44,1.664,1.664,0,0,0-1.579,1.44A1.141,1.141,0,0,0,137.875,233.543Z" fill="#d7d7d7"/><path d="M210.945,227.406h1.379l-3.937,7.386-1.32-4.937-2.878,4.948-1.639-7.4h1.339l.84,4.718,2.749-5.087,1.148,5.087Z" fill="#d7d7d7"/><path d="M213.658,229.705a1.437,1.437,0,0,1,1.409,1l.151-.9h1.059l-.8,4.6h-1.03l.13-.769a2.062,2.062,0,0,1-1.659.87,1.919,1.919,0,0,1-1.819-2.4A2.684,2.684,0,0,1,213.658,229.705Zm-.4,3.858A1.691,1.691,0,0,0,214.8,232.1c.1-.77-.28-1.439-.98-1.459A1.693,1.693,0,0,0,212.2,232.1,1.136,1.136,0,0,0,213.259,233.563Z" fill="#d7d7d7"/><path d="M218.039,229.805l.7,2.938,1.619-2.938h1.179l-3.1,5.038-1.549-5.038Z" fill="#d7d7d7"/><path d="M221.261,232.4a2.673,2.673,0,0,1,2.7-2.7,1.817,1.817,0,0,1,1.979,2.019,2.225,2.225,0,0,1-.11.63H222.34c-.02.74.34,1.259,1.079,1.259a1.617,1.617,0,0,0,1.34-.729l.9.369a2.639,2.639,0,0,1-2.329,1.25A1.939,1.939,0,0,1,221.261,232.4Zm1.209-.8h2.358v-.02c0-.659-.319-1.06-.959-1.06A1.48,1.48,0,0,0,222.47,231.6Z" fill="#d7d7d7"/><path d="M228.259,233.663a.579.579,0,0,0,.64-.54c.01-.4-.44-.609-.879-.779-.56-.22-1.15-.55-1.13-1.329a1.445,1.445,0,0,1,1.619-1.31,2.137,2.137,0,0,1,1.689.81l-.6.63a1.527,1.527,0,0,0-1.1-.621c-.359,0-.6.181-.6.441-.019.359.38.51.84.7.68.29,1.24.6,1.219,1.4a1.556,1.556,0,0,1-1.688,1.48,2.493,2.493,0,0,1-2.009-1.02l.679-.62A1.761,1.761,0,0,0,228.259,233.663Z" fill="#d7d7d7"/><path d="M65.177,176.947a1.9,1.9,0,0,1,2.118,2.179,2.484,2.484,0,0,1-1.878,2.049l1.439,2.768H65.5l-1.27-2.648h-.7l-.45,2.648h-1.16l1.18-7Zm-1.08,1.03-.4,2.338h.859a1.451,1.451,0,0,0,1.539-1.169.967.967,0,0,0-1.079-1.169Z" fill="#d7d7d7"/><path d="M67.659,181.944a2.674,2.674,0,0,1,2.7-2.7,1.815,1.815,0,0,1,1.978,2.019,2.233,2.233,0,0,1-.109.63H68.738c-.02.739.34,1.259,1.079,1.259a1.615,1.615,0,0,0,1.34-.73l.9.37a2.639,2.639,0,0,1-2.329,1.25A1.939,1.939,0,0,1,67.659,181.944Zm1.209-.8h2.358v-.02c0-.66-.319-1.06-.959-1.06A1.478,1.478,0,0,0,68.868,181.145Z" fill="#d7d7d7"/><path d="M75.217,176.147l-1.349,7.8h-1.05l1.319-7.8Z" fill="#d7d7d7"/><path d="M75.258,181.944a2.675,2.675,0,0,1,2.7-2.7,1.815,1.815,0,0,1,1.978,2.019,2.233,2.233,0,0,1-.109.63H76.337c-.019.739.34,1.259,1.08,1.259a1.612,1.612,0,0,0,1.339-.73l.9.37a2.641,2.641,0,0,1-2.329,1.25A1.94,1.94,0,0,1,75.258,181.944Zm1.209-.8h2.359v-.02c0-.66-.32-1.06-.959-1.06A1.481,1.481,0,0,0,76.467,181.145Z" fill="#d7d7d7"/><path d="M83.016,179.246a1.437,1.437,0,0,1,1.409,1l.151-.9h1.059l-.8,4.6H83.806l.13-.769a2.062,2.062,0,0,1-1.659.87,1.919,1.919,0,0,1-1.819-2.4A2.684,2.684,0,0,1,83.016,179.246Zm-.4,3.858a1.692,1.692,0,0,0,1.539-1.459c.1-.77-.28-1.439-.98-1.459a1.693,1.693,0,0,0-1.619,1.459A1.135,1.135,0,0,0,82.617,183.1Z" fill="#d7d7d7"/><path d="M87.957,183.2a.58.58,0,0,0,.64-.54c.01-.4-.44-.61-.88-.78-.559-.219-1.149-.549-1.13-1.329a1.447,1.447,0,0,1,1.62-1.309,2.137,2.137,0,0,1,1.689.81l-.6.629a1.522,1.522,0,0,0-1.1-.62c-.36,0-.6.181-.6.44-.019.36.38.51.84.7.68.29,1.239.6,1.219,1.4a1.557,1.557,0,0,1-1.689,1.48,2.491,2.491,0,0,1-2.008-1.02l.679-.62A1.761,1.761,0,0,0,87.957,183.2Z" fill="#d7d7d7"/><path d="M90.289,181.944a2.673,2.673,0,0,1,2.7-2.7,1.815,1.815,0,0,1,1.978,2.019,2.233,2.233,0,0,1-.109.63H91.368c-.02.739.34,1.259,1.079,1.259a1.615,1.615,0,0,0,1.34-.73l.9.37a2.639,2.639,0,0,1-2.329,1.25A1.939,1.939,0,0,1,90.289,181.944Zm1.209-.8h2.358v-.02c0-.66-.319-1.06-.959-1.06A1.478,1.478,0,0,0,91.5,181.145Z" fill="#d7d7d7"/><path d="M100.737,183.943H98.518l1.2-7h2.019c1.18,0,2.1.58,1.919,1.759a1.858,1.858,0,0,1-1.369,1.46,1.519,1.519,0,0,1,1.21,1.758A2.507,2.507,0,0,1,100.737,183.943Zm-.489-3.278-.4,2.309.91-.01a1.465,1.465,0,0,0,1.569-1.159c.12-.72-.39-1.13-1.119-1.13Zm.159-.9.78-.01a1.2,1.2,0,0,0,1.259-.92c.1-.56-.3-.909-.88-.909l-.839-.01Z" fill="#d7d7d7"/><path d="M152.868,55.788h-2.5l-1.079,1.8h-1.35l4.619-7.4,2.048,7.4h-1.279Zm-2-1h1.839l-.539-2.219Z" fill="#d7d7d7"/><path d="M157.709,49.791l-1.35,7.8H155.31l1.319-7.8Z" fill="#d7d7d7"/><path d="M158.409,57.906a.969.969,0,0,0,1.06,1.08,1.649,1.649,0,0,0,1.579-1.5l.11-.639a2.072,2.072,0,0,1-1.609.779,1.89,1.89,0,0,1-1.819-2.358,2.672,2.672,0,0,1,2.558-2.379,1.443,1.443,0,0,1,1.4.94l.139-.84h1.04l-.76,4.5a2.664,2.664,0,0,1-2.658,2.439A1.847,1.847,0,0,1,157.37,57.9Zm1.48-1.219a1.653,1.653,0,0,0,1.508-1.249l.051-.25a1.127,1.127,0,0,0-1-1.359,1.658,1.658,0,0,0-1.619,1.439A1.1,1.1,0,0,0,159.889,56.687Z" fill="#d7d7d7"/><path d="M166.229,52.889a2.028,2.028,0,0,1,2.079,2.4,2.79,2.79,0,0,1-2.759,2.4,2.031,2.031,0,0,1-2.078-2.4A2.788,2.788,0,0,1,166.229,52.889Zm-.6,3.838a1.664,1.664,0,0,0,1.579-1.439,1.139,1.139,0,0,0-1.069-1.439,1.664,1.664,0,0,0-1.579,1.439A1.14,1.14,0,0,0,165.629,56.727Z" fill="#d7d7d7"/><path d="M177.409,178.053l-.18,1.059h-2.618l-.3,1.749h2.519l-.17,1.03h-2.529l-.54,3.158h-1.139l1.179-7Z" fill="#d7d7d7"/><path d="M179.71,185.049h-2.218l1.2-7h2.018c1.18,0,2.1.579,1.919,1.759a1.858,1.858,0,0,1-1.369,1.459,1.519,1.519,0,0,1,1.21,1.759A2.507,2.507,0,0,1,179.71,185.049Zm-.489-3.278-.4,2.309.91-.011a1.463,1.463,0,0,0,1.568-1.159c.12-.72-.389-1.129-1.119-1.129Zm.159-.9.781-.01a1.2,1.2,0,0,0,1.258-.92c.1-.559-.3-.909-.879-.909l-.839-.01Z" fill="#d7d7d7"/><path d="M102.519,303.307h-2l-.863,1.439H98.578l3.693-5.917,1.64,5.917h-1.024Zm-1.6-.8h1.471l-.432-1.775Z" fill="#d7d7d7"/><path d="M106.28,304.074a1.7,1.7,0,0,0,1.287-.607l-.136.943a1.983,1.983,0,0,1-1.247.416,1.634,1.634,0,0,1-1.68-1.919,2.228,2.228,0,0,1,2.215-1.919,1.744,1.744,0,0,1,1.168.415l-.136.952a1.13,1.13,0,0,0-1.055-.616,1.362,1.362,0,0,0-1.312,1.168A.936.936,0,0,0,106.28,304.074Z" fill="#d7d7d7"/><path d="M110.016,304.074a1.7,1.7,0,0,0,1.287-.607l-.135.943a1.986,1.986,0,0,1-1.248.416,1.633,1.633,0,0,1-1.679-1.919,2.228,2.228,0,0,1,2.215-1.919,1.747,1.747,0,0,1,1.168.415l-.137.952a1.129,1.129,0,0,0-1.055-.616,1.36,1.36,0,0,0-1.311,1.168A.934.934,0,0,0,110.016,304.074Z" fill="#d7d7d7"/><path d="M111.994,303.146a2.139,2.139,0,0,1,2.158-2.158,1.452,1.452,0,0,1,1.583,1.615,1.766,1.766,0,0,1-.088.5h-2.79c-.017.592.271,1.008.863,1.008a1.294,1.294,0,0,0,1.072-.584l.719.3a2.112,2.112,0,0,1-1.863,1A1.551,1.551,0,0,1,111.994,303.146Zm.966-.639h1.888v-.016c0-.528-.256-.847-.767-.847A1.185,1.185,0,0,0,112.96,302.507Z" fill="#d7d7d7"/><path d="M118.3,301.691a.932.932,0,0,0-.934.792l-.393,2.263h-.863l.64-3.679h.855l-.088.544a1.334,1.334,0,0,1,1.136-.623c.839,0,1.151.64,1.039,1.423l-.4,2.335h-.88l.4-2.239C118.864,302.075,118.776,301.691,118.3,301.691Z" fill="#d7d7d7"/><path d="M121.064,301.067l.216-1.279h.855l-.223,1.279h.608l-.137.76h-.6l-.512,2.919h-.831l.5-2.919h-.592l.137-.76Z" fill="#d7d7d7"/><path d="M66.713,299.148h3.806l-.152.873H68.936l-.808,4.725h-.943L68,300.021h-1.44Z" fill="#d7d7d7"/><path d="M71.463,301.8c-.391-.009-.63.319-.735.695l-.392,2.255h-.847l.639-3.679h.848l-.072.416a1.2,1.2,0,0,1,.872-.5.888.888,0,0,1,.64.287L71.9,302A.666.666,0,0,0,71.463,301.8Z" fill="#d7d7d7"/><path d="M73.936,301.067l-.624,3.679h-.848l.617-3.679Zm-.176-1.982a.52.52,0,1,1-.544.519A.524.524,0,0,1,73.76,299.085Z" fill="#d7d7d7"/><path d="M75.025,305a.774.774,0,0,0,.848.863,1.316,1.316,0,0,0,1.262-1.2l.089-.512a1.656,1.656,0,0,1-1.288.623,1.512,1.512,0,0,1-1.455-1.886,2.138,2.138,0,0,1,2.047-1.9,1.153,1.153,0,0,1,1.119.751l.112-.672h.832l-.608,3.6a2.132,2.132,0,0,1-2.127,1.951,1.477,1.477,0,0,1-1.662-1.623Zm1.184-.976a1.324,1.324,0,0,0,1.207-1l.04-.2a.9.9,0,0,0-.8-1.088,1.327,1.327,0,0,0-1.3,1.152A.881.881,0,0,0,76.209,304.026Z" fill="#d7d7d7"/><path d="M140.818,303.914a2.724,2.724,0,0,0,1.855-.783l-.168,1.119a2.952,2.952,0,0,1-1.815.592,2.384,2.384,0,0,1-2.366-2.895,3.387,3.387,0,0,1,3.294-2.894,2.329,2.329,0,0,1,1.663.592l-.176,1.127a1.81,1.81,0,0,0-1.552-.792,2.341,2.341,0,0,0-2.222,1.967A1.574,1.574,0,0,0,140.818,303.914Z" fill="#d7d7d7"/><path d="M145.643,301.691a.977.977,0,0,0-.943.784l-.393,2.271h-.863l1.071-6.237h.864l-.528,3.07a1.368,1.368,0,0,1,1.136-.607c.831,0,1.127.616,1.023,1.415l-.408,2.359h-.855l.4-2.239C146.2,302.075,146.107,301.707,145.643,301.691Z" fill="#d7d7d7"/><path d="M149.946,300.988a1.623,1.623,0,0,1,1.663,1.919,2.233,2.233,0,0,1-2.207,1.919,1.626,1.626,0,0,1-1.663-1.919A2.231,2.231,0,0,1,149.946,300.988Zm-.48,3.071a1.332,1.332,0,0,0,1.263-1.152.911.911,0,0,0-.855-1.151,1.331,1.331,0,0,0-1.263,1.151A.912.912,0,0,0,149.466,304.059Z" fill="#d7d7d7"/><path d="M155.817,301.067l-1.855,1.568,1.335,2.111h-.991l-1.159-1.871-.32,1.871H152l1.055-6.237h.847l-.655,3.814,1.487-1.256Z" fill="#d7d7d7"/><path d="M155.788,303.146a2.139,2.139,0,0,1,2.158-2.158,1.452,1.452,0,0,1,1.583,1.615,1.766,1.766,0,0,1-.088.5h-2.79c-.016.592.271,1.008.863,1.008a1.29,1.29,0,0,0,1.071-.584l.72.3a2.112,2.112,0,0,1-1.863,1A1.551,1.551,0,0,1,155.788,303.146Zm.966-.639h1.888v-.016c0-.528-.256-.847-.767-.847A1.185,1.185,0,0,0,156.754,302.507Z" fill="#d7d7d7"/></g><g id="3d536a3e-2bc7-4745-830e-866c814c526a" data-name="Name"><path d="M81.785,3.108a7.578,7.578,0,0,1,0,15.155H78.653V28.341H73.614V3.108Zm0,10.115a2.527,2.527,0,0,0,2.52-2.519,2.559,2.559,0,0,0-2.52-2.556H78.653v5.075Z" fill="#333"/><path d="M101.333,17.651a12.066,12.066,0,0,1-3.815-1.584,6.925,6.925,0,0,1-3.24-5.688,6.751,6.751,0,0,1,1.836-5.147,8.752,8.752,0,0,1,5.867-2.483,12.528,12.528,0,0,1,7.559,2.519l.828.54-2.628,4.284-.9-.576a7.747,7.747,0,0,0-4.859-1.728,3.846,3.846,0,0,0-2.232.936,1.774,1.774,0,0,0-.432,1.44c.036,1.3.936,2.015,3.24,2.591.288.072.5.144.72.216a13.337,13.337,0,0,1,5.579,3.348,7.288,7.288,0,0,1,1.98,4.931,7.848,7.848,0,0,1-7.811,7.595,14.94,14.94,0,0,1-4.428-.612,13.961,13.961,0,0,1-6.011-3.815l3.672-3.456a8.719,8.719,0,0,0,6.767,2.844A2.771,2.771,0,0,0,105.8,21.25c0-1.368-1.547-2.627-4.175-3.527l-.108-.036Z" fill="#333"/><path d="M122.536,8.148V23.3H125.2v5.039H114.8V23.3h2.7V8.148h-2.7V3.108h10.4v5.04Z" fill="#333"/><path d="M166.453,15.707A13.067,13.067,0,1,1,153.386,2.641,13.089,13.089,0,0,1,166.453,15.707Zm-20.95,0a7.883,7.883,0,1,0,7.883-7.883A7.881,7.881,0,0,0,145.5,15.707Zm4.536,0a3.348,3.348,0,1,0,6.7,0,3.348,3.348,0,1,0-6.7,0Z" fill="#333"/><path d="M178.876,3.108a7.578,7.578,0,0,1,0,15.155h-3.132V28.341h-5.039V3.108Zm0,10.115A2.526,2.526,0,0,0,181.4,10.7a2.558,2.558,0,0,0-2.519-2.556h-3.132v5.075Z" fill="#333"/></g><g id="c9af1fbf-956b-4c00-9958-bd8c12537ac7" data-name="Logo"><polygon points="126.171 345.662 123.817 345.662 123.817 348.016 123.817 350.37 123.817 352.724 123.817 355.078 126.171 355.078 126.171 352.724 126.171 350.37 128.525 350.37 128.525 348.016 130.879 348.016 130.879 345.662 128.525 345.662 126.171 345.662" fill="#d7d7d7"/><polygon points="128.525 355.078 130.879 355.078 133.233 355.078 135.587 355.078 135.587 352.724 135.587 350.37 135.587 348.016 135.587 345.662 133.233 345.662 133.233 348.016 133.233 350.37 130.879 350.37 130.879 352.724 128.525 352.724 128.525 355.078" fill="#d7d7d7"/><polygon points="137.941 342.085 121.462 342.085 121.462 343.353 137.941 343.353 137.941 357.406 121.462 357.406 121.462 342.085 120.285 342.085 120.285 358.583 121.462 358.583 139.118 358.583 139.118 357.406 139.118 342.085 137.941 342.085" fill="#d7d7d7"/></g><g id="6bea2705-3abd-4a25-9531-718d76c11106" data-name="Legend"><circle cx="53.374" cy="284.676" r="13.636" fill="none" stroke="#ff6f4a" stroke-miterlimit="10"/><circle cx="90.733" cy="284.628" r="13.636" fill="none" stroke="#ff6f4a" stroke-miterlimit="10"/><circle cx="129.702" cy="284.628" r="13.636" fill="none" stroke="#ff6f4a" stroke-miterlimit="10"/><circle cx="167.866" cy="284.676" r="13.636" fill="none" stroke="#ff6f4a" stroke-miterlimit="10"/><circle cx="206.13" cy="284.676" r="13.636" fill="none" stroke="#ff6f4a" stroke-miterlimit="10"/><circle cx="72.36" cy="321.062" r="13.636" fill="none" stroke="#ff6f4a" stroke-miterlimit="10"/><circle cx="110.524" cy="321.116" r="13.636" fill="none" stroke="#ff6f4a" stroke-miterlimit="10"/><circle cx="148.688" cy="320.953" r="13.636" fill="none" stroke="#ff6f4a" stroke-miterlimit="10"/><circle cx="34.23" cy="66.38" r="13.636" fill="none" stroke="#ff6f4a" stroke-miterlimit="10"/><circle cx="101.017" cy="77.65" r="13.636" fill="none" stroke="#ff6f4a" stroke-miterlimit="10"/><circle cx="158.325" cy="77.65" r="13.636" fill="none" stroke="#ff6f4a" stroke-miterlimit="10"/><path d="M148.381,132.3a1.5,1.5,0,0,1-.55-2.05h0a1.513,1.513,0,0,1,2.05-.55h0a1.506,1.506,0,0,1,.55,2.05h0a1.5,1.5,0,0,1-1.3.75h0A1.456,1.456,0,0,1,148.381,132.3Zm17.87-.56a1.493,1.493,0,0,1,.55-2.05h0a1.5,1.5,0,0,1,2.05.54h0a1.5,1.5,0,0,1-.55,2.05h0a1.5,1.5,0,0,1-.75.21h0A1.5,1.5,0,0,1,166.251,131.739ZM138.4,115.069a1.5,1.5,0,0,1,1.5-1.5h0a1.5,1.5,0,0,1,1.5,1.5h0a1.5,1.5,0,0,1-1.5,1.5h0A1.5,1.5,0,0,1,138.4,115.069Zm36.851-.04v-.07h0a1.482,1.482,0,0,1,1.489-1.5h0a1.5,1.5,0,0,1,1.511,1.49h0v.04h0v.04h0a1.5,1.5,0,0,1-1.5,1.5h0A1.5,1.5,0,0,1,175.251,115.029ZM147.77,99.849a1.5,1.5,0,0,1,.541-2.05h0a1.511,1.511,0,0,1,2.049.54h0a1.489,1.489,0,0,1-.54,2.05v.01a1.587,1.587,0,0,1-.75.2h0A1.5,1.5,0,0,1,147.77,99.849Zm18.96.49h.01a1.494,1.494,0,0,1-.559-2.04h0a1.5,1.5,0,0,1,2.049-.56h0a1.5,1.5,0,0,1,.55,2.05h0a1.488,1.488,0,0,1-1.3.75h0A1.484,1.484,0,0,1,166.73,100.339Z" fill="#ff6f4a"/><path d="M166.979,173.019a.5.5,0,0,1-.283-.088,18.926,18.926,0,1,1,21.433-.009.5.5,0,0,1-.567-.823,17.926,17.926,0,1,0-20.3.008.5.5,0,0,1-.284.912Z" fill="#00cfb5"/><path d="M167.773,171.2a1.5,1.5,0,1,1-2.086.415A1.5,1.5,0,0,1,167.773,171.2Z" fill="#00cfb5"/><path d="M187.05,171.19a1.5,1.5,0,1,0,2.086.413A1.5,1.5,0,0,0,187.05,171.19Z" fill="#00cfb5"/><path d="M71.57,173.019a.5.5,0,0,1-.283-.088,18.926,18.926,0,1,1,21.433-.009.5.5,0,1,1-.567-.823,17.925,17.925,0,1,0-20.3.008.5.5,0,0,1-.283.912Z" fill="#00cfb5"/><path d="M72.363,171.2a1.5,1.5,0,1,1-2.086.415A1.5,1.5,0,0,1,72.363,171.2Z" fill="#00cfb5"/><path d="M91.64,171.19a1.5,1.5,0,1,0,2.086.413A1.5,1.5,0,0,0,91.64,171.19Z" fill="#00cfb5"/><path d="M110.309,131.482a.5.5,0,0,1-.251-.933,17.927,17.927,0,1,0-26.9-15.517.5.5,0,0,1-1,0,18.926,18.926,0,1,1,28.407,16.382A.5.5,0,0,1,110.309,131.482Z" fill="#ff6f4a"/><path d="M84.158,115.031a1.5,1.5,0,1,1-1.5-1.5A1.5,1.5,0,0,1,84.158,115.031Z" fill="#ff6f4a"/><path d="M109.554,129.681a1.5,1.5,0,1,0,2.056.546A1.5,1.5,0,0,0,109.554,129.681Z" fill="#ff6f4a"/><path d="M33.406,221.948a.492.492,0,0,1-.283-.088,18.924,18.924,0,1,1,21.433-.007.5.5,0,0,1-.567-.825,17.925,17.925,0,1,0-20.3.008.5.5,0,0,1-.283.912Z" fill="#ff6f4a"/><path d="M34.2,220.126a1.5,1.5,0,1,1-2.086.414A1.5,1.5,0,0,1,34.2,220.126Z" fill="#ff6f4a"/><circle cx="54.313" cy="221.369" r="1.504" fill="#ff6f4a"/><circle cx="205.209" cy="221.22" r="0.425" fill="#ff6f4a"/><circle cx="204.02" cy="220.323" r="0.425" fill="#ff6f4a"/><circle cx="202.909" cy="219.332" r="0.425" fill="#ff6f4a"/><circle cx="201.882" cy="218.253" r="0.425" fill="#ff6f4a"/><circle cx="200.947" cy="217.095" r="0.425" fill="#ff6f4a"/><circle cx="200.11" cy="215.863" r="0.425" fill="#ff6f4a"/><circle cx="199.376" cy="214.568" r="0.425" fill="#ff6f4a"/><circle cx="198.75" cy="213.217" r="0.425" fill="#ff6f4a"/><circle cx="198.237" cy="211.819" r="0.425" fill="#ff6f4a"/><circle cx="197.84" cy="210.384" r="0.425" fill="#ff6f4a"/><circle cx="197.561" cy="208.921" r="0.425" fill="#ff6f4a"/><circle cx="197.403" cy="207.44" r="0.425" fill="#ff6f4a"/><circle cx="197.367" cy="205.952" r="0.425" fill="#ff6f4a"/><circle cx="197.452" cy="204.465" r="0.425" fill="#ff6f4a"/><circle cx="197.658" cy="202.99" r="0.425" fill="#ff6f4a"/><circle cx="197.985" cy="201.537" r="0.425" fill="#ff6f4a"/><circle cx="198.428" cy="200.116" r="0.425" fill="#ff6f4a"/><circle cx="198.987" cy="198.736" r="0.425" fill="#ff6f4a"/><circle cx="199.656" cy="197.406" r="0.425" fill="#ff6f4a"/><circle cx="200.432" cy="196.135" r="0.425" fill="#ff6f4a"/><circle cx="201.31" cy="194.932" r="0.425" fill="#ff6f4a"/><circle cx="202.282" cy="193.804" r="0.425" fill="#ff6f4a"/><circle cx="203.344" cy="192.76" r="0.425" fill="#ff6f4a"/><circle cx="204.487" cy="191.806" r="0.425" fill="#ff6f4a"/><circle cx="205.704" cy="190.948" r="0.425" fill="#ff6f4a"/><circle cx="206.988" cy="190.193" r="0.425" fill="#ff6f4a"/><circle cx="208.329" cy="189.546" r="0.425" fill="#ff6f4a"/><circle cx="209.718" cy="189.01" r="0.425" fill="#ff6f4a"/><circle cx="211.146" cy="188.589" r="0.425" fill="#ff6f4a"/><circle cx="212.604" cy="188.287" r="0.425" fill="#ff6f4a"/><circle cx="214.082" cy="188.104" r="0.425" fill="#ff6f4a"/><circle cx="215.57" cy="188.043" r="0.425" fill="#ff6f4a"/><circle cx="217.058" cy="188.104" r="0.425" fill="#ff6f4a"/><circle cx="218.536" cy="188.287" r="0.425" fill="#ff6f4a"/><circle cx="219.994" cy="188.589" r="0.425" fill="#ff6f4a"/><circle cx="221.422" cy="189.01" r="0.425" fill="#ff6f4a"/><circle cx="222.811" cy="189.546" r="0.425" fill="#ff6f4a"/><circle cx="224.152" cy="190.193" r="0.425" fill="#ff6f4a"/><circle cx="225.436" cy="190.948" r="0.425" fill="#ff6f4a"/><circle cx="226.653" cy="191.806" r="0.425" fill="#ff6f4a"/><circle cx="227.796" cy="192.76" r="0.425" fill="#ff6f4a"/><circle cx="228.858" cy="193.804" r="0.425" fill="#ff6f4a"/><circle cx="229.831" cy="194.932" r="0.425" fill="#ff6f4a"/><circle cx="230.708" cy="196.135" r="0.425" fill="#ff6f4a"/><circle cx="231.484" cy="197.406" r="0.425" fill="#ff6f4a"/><circle cx="232.153" cy="198.736" r="0.425" fill="#ff6f4a"/><circle cx="232.712" cy="200.116" r="0.425" fill="#ff6f4a"/><circle cx="233.156" cy="201.537" r="0.425" fill="#ff6f4a"/><circle cx="233.482" cy="202.99" r="0.425" fill="#ff6f4a"/><circle cx="233.688" cy="204.465" r="0.425" fill="#ff6f4a"/><circle cx="233.774" cy="205.952" r="0.425" fill="#ff6f4a"/><circle cx="233.737" cy="207.44" r="0.425" fill="#ff6f4a"/><circle cx="233.579" cy="208.921" r="0.425" fill="#ff6f4a"/><circle cx="233.3" cy="210.384" r="0.425" fill="#ff6f4a"/><circle cx="232.903" cy="211.819" r="0.425" fill="#ff6f4a"/><circle cx="232.39" cy="213.217" r="0.425" fill="#ff6f4a"/><circle cx="231.765" cy="214.568" r="0.425" fill="#ff6f4a"/><circle cx="231.031" cy="215.863" r="0.425" fill="#ff6f4a"/><circle cx="230.193" cy="217.095" r="0.425" fill="#ff6f4a"/><circle cx="229.258" cy="218.253" r="0.425" fill="#ff6f4a"/><circle cx="228.231" cy="219.332" r="0.425" fill="#ff6f4a"/><circle cx="227.12" cy="220.323" r="0.425" fill="#ff6f4a"/><circle cx="225.931" cy="221.22" r="0.425" fill="#ff6f4a"/><circle cx="224.673" cy="222.016" r="0.425" fill="#ff6f4a"/><circle cx="120.618" cy="222.009" r="0.85" fill="#ff6f4a"/><circle cx="118.097" cy="220.255" r="0.85" fill="#ff6f4a"/><circle cx="115.907" cy="218.102" r="0.85" fill="#ff6f4a"/><circle cx="114.11" cy="215.611" r="0.85" fill="#ff6f4a"/><circle cx="112.758" cy="212.853" r="0.85" fill="#ff6f4a"/><circle cx="111.888" cy="209.908" r="0.85" fill="#ff6f4a"/><circle cx="111.526" cy="206.858" r="0.85" fill="#ff6f4a"/><circle cx="111.681" cy="203.79" r="0.85" fill="#ff6f4a"/><circle cx="112.35" cy="200.792" r="0.85" fill="#ff6f4a"/><circle cx="113.514" cy="197.95" r="0.85" fill="#ff6f4a"/><circle cx="115.138" cy="195.343" r="0.85" fill="#ff6f4a"/><circle cx="117.178" cy="193.047" r="0.85" fill="#ff6f4a"/><circle cx="119.575" cy="191.126" r="0.85" fill="#ff6f4a"/><circle cx="122.26" cy="189.636" r="0.85" fill="#ff6f4a"/><circle cx="125.158" cy="188.618" r="0.85" fill="#ff6f4a"/><circle cx="128.185" cy="188.102" r="0.85" fill="#ff6f4a"/><circle cx="131.257" cy="188.102" r="0.85" fill="#ff6f4a"/><circle cx="134.285" cy="188.618" r="0.85" fill="#ff6f4a"/><circle cx="137.182" cy="189.636" r="0.85" fill="#ff6f4a"/><circle cx="139.868" cy="191.126" r="0.85" fill="#ff6f4a"/><circle cx="142.264" cy="193.047" r="0.85" fill="#ff6f4a"/><circle cx="144.304" cy="195.343" r="0.85" fill="#ff6f4a"/><circle cx="145.929" cy="197.95" r="0.85" fill="#ff6f4a"/><circle cx="147.092" cy="200.792" r="0.85" fill="#ff6f4a"/><circle cx="147.761" cy="203.79" r="0.85" fill="#ff6f4a"/><circle cx="147.917" cy="206.858" r="0.85" fill="#ff6f4a"/><circle cx="147.554" cy="209.908" r="0.85" fill="#ff6f4a"/><circle cx="146.685" cy="212.853" r="0.85" fill="#ff6f4a"/><circle cx="145.332" cy="215.611" r="0.85" fill="#ff6f4a"/><circle cx="143.535" cy="218.102" r="0.85" fill="#ff6f4a"/><circle cx="141.345" cy="220.255" r="0.85" fill="#ff6f4a"/><circle cx="138.824" cy="222.009" r="0.85" fill="#ff6f4a"/><path d="M199.332,240.054h2.5v.959h-2.5Z" fill="#ff6f4a"/><path d="M213.4,241.044h-1.356v1.35h-.959v-1.35h-1.41v-.959h1.41v-1.411h.959v1.411H213.4Z" fill="#ff6f4a"/><path d="M217.868,254.944A11.846,11.846,0,0,0,207.8,243.252a1.785,1.785,0,0,0-3.531,0,11.821,11.821,0,0,0-6.55,20.11,1.514,1.514,0,1,0,.667-.748,10.821,10.821,0,0,1,6.012-18.371,1.787,1.787,0,0,0,3.274,0,10.821,10.821,0,0,1,6.016,18.366,1.5,1.5,0,1,0,.668.748A11.736,11.736,0,0,0,217.868,254.944ZM206.03,244.562a1.043,1.043,0,1,1,1.042-1.042A1.042,1.042,0,0,1,206.03,244.562Z" fill="#ff6f4a"/><path d="M91.136,265.09l-.994-.1a248.891,248.891,0,0,0,.63-44.5A210.293,210.293,0,0,0,86.6,190.2l.978-.209a210.947,210.947,0,0,1,4.19,30.42A249.969,249.969,0,0,1,91.136,265.09Z" fill="#00cfb5"/><polygon points="89.131 191.718 87.134 190.39 85.807 192.389 85.523 190.978 86.849 188.98 88.846 190.307 89.131 191.718" fill="#00cfb5"/><path d="M163.281,265.09a250.063,250.063,0,0,1-.635-44.679,211.4,211.4,0,0,1,4.191-30.42l.978.209a210.29,210.29,0,0,0-4.17,30.287,248.984,248.984,0,0,0,.63,44.5Z" fill="#00cfb5"/><polygon points="168.61 192.389 167.283 190.39 165.286 191.718 165.571 190.307 167.568 188.98 168.894 190.978 168.61 192.389" fill="#00cfb5"/><path d="M123,240.054h2.5v.959H123Z" fill="#ff6f4a"/><path d="M137.074,241.044h-1.355v1.35h-.96v-1.35h-1.41v-.959h1.41v-1.411h.96v1.411h1.355Z" fill="#ff6f4a"/><path d="M141.54,254.944a11.846,11.846,0,0,0-10.073-11.692,1.785,1.785,0,0,0-3.531,0,11.821,11.821,0,0,0-6.55,20.11,1.515,1.515,0,1,0,.668-.748,10.82,10.82,0,0,1,6.011-18.371,1.787,1.787,0,0,0,3.274,0,10.822,10.822,0,0,1,6.017,18.366,1.5,1.5,0,1,0,.667.748A11.736,11.736,0,0,0,141.54,254.944ZM129.7,244.562a1.043,1.043,0,1,1,1.042-1.042A1.042,1.042,0,0,1,129.7,244.562Z" fill="#ff6f4a"/><path d="M199.332,240.054h2.5v.959h-2.5Z" fill="#ff6f4a"/><path d="M213.4,241.044h-1.356v1.35h-.959v-1.35h-1.41v-.959h1.41v-1.411h.959v1.411H213.4Z" fill="#ff6f4a"/><path d="M217.868,254.944A11.846,11.846,0,0,0,207.8,243.252a1.785,1.785,0,0,0-3.531,0,11.821,11.821,0,0,0-6.55,20.11,1.514,1.514,0,1,0,.667-.748,10.821,10.821,0,0,1,6.012-18.371,1.787,1.787,0,0,0,3.274,0,10.821,10.821,0,0,1,6.016,18.366,1.5,1.5,0,1,0,.668.748A11.736,11.736,0,0,0,217.868,254.944ZM206.03,244.562a1.043,1.043,0,1,1,1.042-1.042A1.042,1.042,0,0,1,206.03,244.562Z" fill="#ff6f4a"/><path d="M46.676,240.054h2.5v.959h-2.5Z" fill="#ff6f4a"/><path d="M60.747,241.044H59.391v1.35h-.959v-1.35H57.021v-.959h1.411v-1.411h.959v1.411h1.356Z" fill="#ff6f4a"/><path d="M65.213,254.944A11.846,11.846,0,0,0,55.14,243.252a1.785,1.785,0,0,0-3.531,0,11.821,11.821,0,0,0-6.55,20.11,1.514,1.514,0,1,0,.667-.748,10.821,10.821,0,0,1,6.011-18.371,1.788,1.788,0,0,0,3.275,0,10.821,10.821,0,0,1,6.016,18.366,1.5,1.5,0,1,0,.667.748A11.736,11.736,0,0,0,65.213,254.944ZM53.374,244.562a1.043,1.043,0,1,1,1.043-1.042A1.041,1.041,0,0,1,53.374,244.562Z" fill="#ff6f4a"/><circle cx="225.112" cy="66.38" r="13.636" fill="none" stroke="#ff6f4a" stroke-miterlimit="10"/></g></g></svg>