<svg xmlns="http://www.w3.org/2000/svg" width="101.6mm" height="128.5mm" viewBox="0 0 288 364.25197">
  <title>master9</title>
  <g id="b4a78b77-a23b-4694-987f-5bf3210019bc" data-name="Rasoir">
    <rect id="9c2b3737-f251-4f28-8425-c1d3c311022e" data-name="BG" width="288" height="364.25197" style="fill: #2a2d30"/>
    <g id="9878992c-4781-4b73-bf0d-a8efe389c5de" data-name="Logo">
      <g>
        <polygon points="140.469 345.662 138.115 345.662 138.115 348.016 138.115 350.37 138.115 352.724 138.115 355.078 140.469 355.078 140.469 352.724 140.469 350.37 142.823 350.37 142.823 348.016 145.177 348.016 145.177 345.662 142.823 345.662 140.469 345.662" style="fill: #d7d7d7"/>
        <polygon points="142.823 355.078 145.177 355.078 147.531 355.078 149.885 355.078 149.885 352.724 149.885 350.37 149.885 348.016 149.885 345.662 147.531 345.662 147.531 348.016 147.531 350.37 145.177 350.37 145.177 352.724 142.823 352.724 142.823 355.078" style="fill: #d7d7d7"/>
        <polygon points="152.239 342.085 135.761 342.085 135.761 343.353 152.239 343.353 152.239 357.406 135.761 357.406 135.761 342.085 134.583 342.085 134.583 358.583 135.761 358.583 153.417 358.583 153.417 357.406 153.417 342.085 152.239 342.085" style="fill: #d7d7d7"/>
      </g>
    </g>
    <g id="f1423e05-1de6-48da-8875-ebbb96a42547" data-name="Text">
      <g>
        <path d="M32.14733,40.4206h5.23731l-.209,1.19922H35.20593l-1.11133,6.502H32.79675l1.12207-6.502H31.93835Z" style="fill: #d7d7d7"/>
        <path d="M39.87,43.91864a1.34608,1.34608,0,0,0-1.29785,1.07813l-.53907,3.125H36.8446l1.47461-8.58106h1.1875l-.72559,4.22461a1.8784,1.8784,0,0,1,1.5625-.83691c1.14356,0,1.55078.84766,1.4082,1.94727l-.56152,3.24609H40.01354l.54981-3.08106C40.62878,44.447,40.50866,43.94111,39.87,43.91864Z" style="fill: #d7d7d7"/>
        <path d="M45.33678,44.0622c-.53906-.01172-.86914.43945-1.01269.957L43.785,48.12177H42.619l.87988-5.06055h1.166l-.09863.57129a1.64341,1.64341,0,0,1,1.19922-.68164,1.21924,1.21924,0,0,1,.87988.39551l-.7041.99023A.91071.91071,0,0,0,45.33678,44.0622Z" style="fill: #d7d7d7"/>
        <path d="M46.50182,45.92157a2.94457,2.94457,0,0,1,2.97071-2.9707,1.99968,1.99968,0,0,1,2.17871,2.22266,2.45232,2.45232,0,0,1-.1211.69238H47.6903c-.02246.81445.374,1.38672,1.18848,1.38672a1.77574,1.77574,0,0,0,1.47363-.80371l.99023.40722a2.90748,2.90748,0,0,1-2.56347,1.375A2.13428,2.13428,0,0,1,46.50182,45.92157Zm1.33106-.88086h2.59668v-.02148c0-.72656-.35156-1.166-1.05567-1.166A1.62722,1.62722,0,0,0,47.83288,45.04071Z" style="fill: #d7d7d7"/>
        <path d="M54.202,47.30732a.63728.63728,0,0,0,.70508-.59375c.01074-.44043-.48438-.6709-.96875-.8584-.61621-.24219-1.26465-.60547-1.24317-1.46289a1.59067,1.59067,0,0,1,1.78223-1.44141,2.35393,2.35393,0,0,1,1.85937.89063l-.66015.69336a1.67506,1.67506,0,0,0-1.21-.68165c-.39649,0-.66016.19727-.66016.4834-.02246.39649.418.56153.92383.77051.748.31934,1.36426.66016,1.34277,1.54a1.71394,1.71394,0,0,1-1.85937,1.62793A2.74476,2.74476,0,0,1,52.00182,47.153l.748-.68164A1.94309,1.94309,0,0,0,54.202,47.30732Z" style="fill: #d7d7d7"/>
        <path d="M59.702,43.91864a1.34609,1.34609,0,0,0-1.29785,1.07813l-.53906,3.125H56.67663l1.47461-8.58106h1.1875l-.72559,4.22461a1.8784,1.8784,0,0,1,1.5625-.83691c1.144,0,1.55127.84766,1.40869,1.94727l-.56152,3.24609H59.84557l.5503-3.08106C60.4613,44.447,60.34118,43.94111,59.702,43.91864Z" style="fill: #d7d7d7"/>
        <path d="M65.62145,42.95087a2.2319,2.2319,0,0,1,2.28809,2.64063,3.07059,3.07059,0,0,1-3.03613,2.63964,2.23639,2.23639,0,0,1-2.28907-2.63964A3.07171,3.07171,0,0,1,65.62145,42.95087Zm-.66015,4.22461a1.83268,1.83268,0,0,0,1.73828-1.584,1.25584,1.25584,0,0,0-1.17774-1.585,1.8328,1.8328,0,0,0-1.73828,1.585A1.255,1.255,0,0,0,64.9613,47.17548Z" style="fill: #d7d7d7"/>
        <path d="M71.12048,39.54071,69.6361,48.12177H68.48083L69.933,39.54071Z" style="fill: #d7d7d7"/>
        <path d="M73.95934,42.95087a1.581,1.581,0,0,1,1.5293,1.04492l.75879-4.45508h1.18848L75.9613,48.12177H74.78454l.13183-.78125a2.2307,2.2307,0,0,1-1.77148.89062,2.112,2.112,0,0,1-2.002-2.63964A2.95486,2.95486,0,0,1,73.95934,42.95087ZM73.51891,47.197a1.86248,1.86248,0,0,0,1.69434-1.60546c.11035-.84766-.30762-1.585-1.07813-1.60645A1.86324,1.86324,0,0,0,72.3529,45.5915C72.22106,46.44892,72.66052,47.197,73.51891,47.197Z" style="fill: #d7d7d7"/>
      </g>
      <g>
        <path d="M142.77868,40.4206l-1.3418,7.70117h-1.27636l1.29785-7.70117Z" style="fill: #d7d7d7"/>
        <path d="M145.99059,43.91962a1.28379,1.28379,0,0,0-1.28711,1.08887l-.53906,3.11328h-1.18848l.87989-5.06055h1.17773l-.12109.748a1.83307,1.83307,0,0,1,1.5625-.8584c1.1543,0,1.584.88086,1.42969,1.959l-.54981,3.21191h-1.21l.5498-3.08008C146.77184,44.44794,146.65075,43.91962,145.99059,43.91962Z" style="fill: #d7d7d7"/>
      </g>
      <g>
        <path d="M140.40563,296.777a3.26915,3.26915,0,0,1,3.25684,3.98242,4.68357,4.68357,0,0,1-4.53223,4.01563,3.29616,3.29616,0,0,1-3.25683-4.01563A4.6806,4.6806,0,0,1,140.40563,296.777Zm-1.14355,6.71094a3.176,3.176,0,0,0,3.03613-2.72852,2.1339,2.1339,0,0,0-2.02441-2.72851,3.176,3.176,0,0,0-3.03614,2.72851A2.1393,2.1393,0,0,0,139.26208,303.488Z" style="fill: #d7d7d7"/>
        <path d="M146.3236,303.75165a1.28413,1.28413,0,0,0,1.29785-1.07812l.54981-3.124H149.349l-.86914,5.06055h-1.18848l.1211-.748a1.84673,1.84673,0,0,1-1.5625.8584c-1.14356,0-1.57324-.8916-1.419-1.959l.54981-3.21192h1.18847l-.52832,3.08008C145.56384,303.22431,145.68493,303.75165,146.3236,303.75165Z" style="fill: #d7d7d7"/>
        <path d="M150.92223,299.5495l.29688-1.76074h1.17676l-.30762,1.76074h.83594l-.1875,1.04493h-.8252l-.7041,4.01562h-1.14355l.68164-4.01562H149.932l.18652-1.04493Z" style="fill: #d7d7d7"/>
      </g>
      <g>
        <path d="M67.23864,296.90888,66.11657,303.444h2.9707l-.19824,1.166H64.63122l1.32031-7.70117Z" style="fill: #d7d7d7"/>
        <path d="M72.82751,299.43915a2.23189,2.23189,0,0,1,2.28808,2.64063,3.0706,3.0706,0,0,1-3.03613,2.63965,2.23639,2.23639,0,0,1-2.28906-2.63965A3.0717,3.0717,0,0,1,72.82751,299.43915Zm-.66016,4.22461a1.83268,1.83268,0,0,0,1.73828-1.584,1.25583,1.25583,0,0,0-1.17773-1.585,1.83279,1.83279,0,0,0-1.73828,1.585A1.255,1.255,0,0,0,72.16735,303.66376Z" style="fill: #d7d7d7"/>
        <path d="M76.89684,299.5495l.627,2.96973,1.958-3.37695.83594,3.39941,1.66211-2.99219h1.30859l-3.25585,5.44532-.93555-3.42188-2.0791,3.42188-1.36426-5.44532Z" style="fill: #d7d7d7"/>
      </g>
      <g>
        <path d="M206.03259,296.9079l-.50586,2.97071h3.71875l.50586-2.97071h1.30957l-1.33106,7.70117h-1.27637l.59375-3.542h-3.72949l-.60449,3.542h-1.27637l1.29785-7.70117Z" style="fill: #d7d7d7"/>
        <path d="M213.4027,299.54853l-.8584,5.06054h-1.166l.84765-5.06054Zm-.24218-2.72852a.71605.71605,0,1,1-.748.71485A.72178.72178,0,0,1,213.16052,296.82Z" style="fill: #d7d7d7"/>
        <path d="M214.8988,304.96161a1.0648,1.0648,0,0,0,1.166,1.1875,1.814,1.814,0,0,0,1.73828-1.64941l.1211-.7041a2.28413,2.28413,0,0,1-1.77149.85742,2.08107,2.08107,0,0,1-2.002-2.5957,2.94291,2.94291,0,0,1,2.81641-2.61914,1.589,1.589,0,0,1,1.54,1.03418l.1543-.92383h1.14356l-.83594,4.95117a2.93333,2.93333,0,0,1-2.92676,2.68359,2.03379,2.03379,0,0,1-2.28808-2.2334Zm1.62793-1.34277a1.82014,1.82014,0,0,0,1.66113-1.375l.05469-.27441a1.24144,1.24144,0,0,0-1.09961-1.49707,1.82731,1.82731,0,0,0-1.78223,1.585A1.21322,1.21322,0,0,0,216.52673,303.61884Z" style="fill: #d7d7d7"/>
        <path d="M223.35778,300.40693a1.34411,1.34411,0,0,0-1.29785,1.07812l-.53906,3.124h-1.18848l1.47461-8.581h1.1875l-.72559,4.22461a1.87991,1.87991,0,0,1,1.5625-.83594c1.14356,0,1.55078.84668,1.40821,1.94727l-.56153,3.24511h-1.17675l.5498-3.08007C224.11657,300.93525,223.99645,300.42841,223.35778,300.40693Z" style="fill: #d7d7d7"/>
      </g>
      <g>
        <path d="M51.39977,195.445a1.30453,1.30453,0,0,0,1.39649-1.18847c.02246-.74805-.61524-.99024-1.38574-1.3418A2.35886,2.35886,0,0,1,49.70544,190.78a2.39053,2.39053,0,0,1,2.585-2.15625,2.48889,2.48889,0,0,1,2.40918,1.66114l-1.06641.56152a1.54642,1.54642,0,0,0-1.47461-1.06738.98844.98844,0,0,0-1.12207.91308c-.0332.61621.583.99024,1.45215,1.33106a2.21583,2.21583,0,0,1,1.65039,2.1455,2.71557,2.71557,0,0,1-2.80566,2.45313,2.85762,2.85762,0,0,1-2.67285-1.96875l.98925-.68262C50.03552,194.83954,50.51891,195.445,51.39977,195.445Z" style="fill: #d7d7d7"/>
        <path d="M57.87829,192.25458a1.34412,1.34412,0,0,0-1.29785,1.07813l-.53907,3.124H54.8529l1.47461-8.58105H57.515l-.72559,4.22461a1.87991,1.87991,0,0,1,1.5625-.83594c1.14356,0,1.55078.84668,1.4082,1.94726l-.56152,3.24512H58.02184l.54981-3.08008C58.63708,192.7829,58.517,192.27607,57.87829,192.25458Z" style="fill: #d7d7d7"/>
        <path d="M62.78454,191.39618l-.8584,5.06055h-1.166l.84766-5.06055Zm-.24219-2.72851a.716.716,0,1,1-.748.71484A.72177.72177,0,0,1,62.54235,188.66767Z" style="fill: #d7d7d7"/>
        <path d="M64.46716,191.39618l.31933-1.87011a1.87069,1.87069,0,0,1,1.87012-1.78223,1.406,1.406,0,0,1,1.07812.50586l-.68164.90234a.56842.56842,0,0,0-.46191-.28613c-.38574,0-.61621.418-.68262.90234l-.27539,1.62793H66.7777l-.18652,1.04493H65.44665l-.68262,4.01562H63.598l.69335-4.01562h-.53906l.1875-1.04493Z" style="fill: #d7d7d7"/>
        <path d="M67.767,191.39618l.29688-1.75976h1.17675l-.30761,1.75976h.83593l-.1875,1.04493h-.82519l-.7041,4.01562H66.90856l.68164-4.01562h-.81347l.18652-1.04493Z" style="fill: #d7d7d7"/>
      </g>
      <g>
        <path d="M106.891,188.75556c1.54,0,2.51954.94629,2.32129,2.39844a2.86609,2.86609,0,0,1-3.05859,2.38671h-1.02246l-.49512,2.916h-1.27637l1.29786-7.70117Zm-1.13281,1.14355-.42969,2.49805h.93555a1.59332,1.59332,0,0,0,1.69434-1.24316c.13183-.78125-.374-1.25489-1.18848-1.25489Z" style="fill: #d7d7d7"/>
        <path d="M111.56579,191.39618l-.8584,5.06055h-1.166l.84766-5.06055Zm-.24219-2.72851a.71558.71558,0,1,1-.748.71484A.72117.72117,0,0,1,111.3236,188.66767Z" style="fill: #d7d7d7"/>
        <path d="M115.26208,192.25361a1.28375,1.28375,0,0,0-1.28711,1.08984l-.53906,3.11328h-1.18848l.87988-5.06055h1.17774l-.1211.74805a1.83308,1.83308,0,0,1,1.5625-.8584c1.1543,0,1.584.87988,1.42969,1.958l-.5498,3.21289h-1.21l.54981-3.08105C116.04333,192.78193,115.92223,192.25361,115.26208,192.25361Z" style="fill: #d7d7d7"/>
        <path d="M120.56384,195.53193a2.33122,2.33122,0,0,0,1.7705-.83594l-.18652,1.29883a2.7321,2.7321,0,0,1-1.7168.57129,2.24584,2.24584,0,0,1-2.30957-2.63965,3.06458,3.06458,0,0,1,3.04688-2.64063,2.39693,2.39693,0,0,1,1.60644.57227l-.18652,1.30859a1.55621,1.55621,0,0,0-1.45313-.84668,1.87135,1.87135,0,0,0-1.80371,1.60645A1.28638,1.28638,0,0,0,120.56384,195.53193Z" style="fill: #d7d7d7"/>
        <path d="M126.21813,192.25361a1.34607,1.34607,0,0,0-1.29785,1.07812l-.53906,3.125h-1.18848l1.47461-8.58105h1.1875l-.72558,4.22461a1.87837,1.87837,0,0,1,1.5625-.83692c1.14355,0,1.55078.84766,1.4082,1.94727l-.56153,3.24609h-1.17675l.5498-3.08105C126.97692,192.78193,126.8568,192.27607,126.21813,192.25361Z" style="fill: #d7d7d7"/>
      </g>
      <g>
        <path d="M168.03747,188.75556l-.19824,1.166h-2.88282l-.33007,1.92481h2.77246l-.18653,1.13379h-2.78418l-.59375,3.47656h-1.2539l1.29785-7.70117Z" style="fill: #d7d7d7"/>
        <path d="M170.86364,191.28583a2.2319,2.2319,0,0,1,2.28809,2.64063,3.07062,3.07062,0,0,1-3.03614,2.63965,2.23686,2.23686,0,0,1-2.28906-2.63965A3.0717,3.0717,0,0,1,170.86364,191.28583Zm-.66016,4.22461a1.8327,1.8327,0,0,0,1.73829-1.584,1.25584,1.25584,0,0,0-1.17774-1.585,1.8328,1.8328,0,0,0-1.73828,1.585A1.255,1.255,0,0,0,170.20348,195.51044Z" style="fill: #d7d7d7"/>
        <path d="M176.36266,187.87568l-1.48437,8.58105H173.723l1.45214-8.58105Z" style="fill: #d7d7d7"/>
        <path d="M179.20153,191.28583a1.58189,1.58189,0,0,1,1.5293,1.04492l.75879-4.45507h1.18847l-1.47461,8.58105h-1.17675l.13183-.78125a2.23068,2.23068,0,0,1-1.77148.89063,2.112,2.112,0,0,1-2.002-2.63965A2.95487,2.95487,0,0,1,179.20153,191.28583Zm-.44043,4.2461a1.86249,1.86249,0,0,0,1.69434-1.60547c.11035-.84766-.30762-1.585-1.07813-1.60645a1.86323,1.86323,0,0,0-1.78222,1.60645C177.46325,194.78388,177.9027,195.53193,178.7611,195.53193Z" style="fill: #d7d7d7"/>
      </g>
      <g>
        <path d="M220.89,195.444a1.30447,1.30447,0,0,0,1.39648-1.1875c.02246-.74805-.61523-.99024-1.38574-1.34278a2.35866,2.35866,0,0,1-1.70508-2.13379,2.39054,2.39054,0,0,1,2.585-2.15625,2.48766,2.48766,0,0,1,2.40918,1.66114l-1.0664.56054a1.54564,1.54564,0,0,0-1.47461-1.0664.98785.98785,0,0,0-1.12207.91308c-.03321.61524.583.98926,1.45214,1.33106a2.21381,2.21381,0,0,1,1.6504,2.14453,2.71564,2.71564,0,0,1-2.80567,2.4541,2.8585,2.8585,0,0,1-2.67285-1.96973l.98926-.68164C219.52575,194.83954,220.00915,195.444,220.89,195.444Z" style="fill: #d7d7d7"/>
        <path d="M227.00524,187.87568l-1.48437,8.58105h-1.15528l1.45215-8.58105Z" style="fill: #d7d7d7"/>
        <path d="M227.04919,194.25654a2.94456,2.94456,0,0,1,2.9707-2.97071,1.99968,1.99968,0,0,1,2.17871,2.22266,2.4527,2.4527,0,0,1-.12109.69238h-3.83985c-.02246.81445.374,1.38672,1.18848,1.38672a1.77574,1.77574,0,0,0,1.47363-.80371l.99024.40723a2.9075,2.9075,0,0,1-2.56348,1.375A2.13428,2.13428,0,0,1,227.04919,194.25654Zm1.331-.88086h2.59668v-.02149c0-.72656-.35156-1.166-1.05566-1.166A1.62721,1.62721,0,0,0,228.38024,193.37568Z" style="fill: #d7d7d7"/>
        <path d="M233.93493,191.39618l.62695,2.96973,1.958-3.377.83594,3.39941,1.66211-2.99219h1.30859l-3.25586,5.44532-.93555-3.42188-2.0791,3.42188-1.36425-5.44532Z" style="fill: #d7d7d7"/>
      </g>
      <g>
        <path d="M232.99938,40.4206h1.51856l-4.335,8.12988-1.45215-5.43457-3.168,5.44531-1.80469-8.14062h1.47461l.92383,5.19238,3.02539-5.59961,1.26562,5.59961Z" style="fill: #d7d7d7"/>
        <path d="M233.18493,45.92157a2.94456,2.94456,0,0,1,2.9707-2.9707,1.99968,1.99968,0,0,1,2.17871,2.22266,2.45234,2.45234,0,0,1-.12109.69238h-3.83984c-.02247.81445.374,1.38672,1.18847,1.38672a1.77575,1.77575,0,0,0,1.47364-.80371l.99023.40722a2.90748,2.90748,0,0,1-2.56348,1.375A2.13428,2.13428,0,0,1,233.18493,45.92157Zm1.33105-.88086h2.59668v-.02148c0-.72656-.35156-1.166-1.05566-1.166A1.62723,1.62723,0,0,0,234.516,45.04071Z" style="fill: #d7d7d7"/>
        <path d="M239.85192,43.06122l.29688-1.76074h1.17675l-.30761,1.76074h.83593l-.1875,1.04492h-.82519l-.7041,4.01563h-1.14356l.68164-4.01563h-.81347l.18652-1.04492Z" style="fill: #d7d7d7"/>
        <path d="M248.09118,40.4206l-6.0293,9.35156-1.19922-.01172,6.0293-9.33984Z" style="fill: #d7d7d7"/>
        <path d="M247.71618,48.12177,249.014,40.4206h2.39844a3.1303,3.1303,0,0,1,3.23437,3.85058,4.44249,4.44249,0,0,1-4.46679,3.85059Zm2.41992-6.48047-.91308,5.25879h1.04492a3.02029,3.02029,0,0,0,3.05859-2.62891,2.041,2.041,0,0,0-2.0791-2.62988Z" style="fill: #d7d7d7"/>
        <path d="M257.80309,44.0622c-.53906-.01172-.86914.43945-1.01269.957l-.53906,3.10254h-1.166l.87988-5.06055h1.166l-.09863.57129a1.64339,1.64339,0,0,1,1.19921-.68164,1.21925,1.21925,0,0,1,.87989.39551l-.7041.99023A.91071.91071,0,0,0,257.80309,44.0622Z" style="fill: #d7d7d7"/>
        <path d="M260.14587,50.54169H258.8695l1.84766-3.04687-1.23145-4.4336h1.27637l.75879,3.27832,1.82617-3.27832h1.28711Z" style="fill: #d7d7d7"/>
      </g>
      <g>
        <path d="M136.8529,125.528l1.29785-7.70117h2.39844a3.1303,3.1303,0,0,1,3.23437,3.85058,4.4425,4.4425,0,0,1-4.46679,3.85059Zm2.41992-6.47949-.91309,5.25879h1.04493a3.02113,3.02113,0,0,0,3.05859-2.62989,2.0402,2.0402,0,0,0-2.0791-2.6289Z" style="fill: #d7d7d7"/>
        <path d="M147.98473,124.38446a3.75155,3.75155,0,0,0,2.55274-1.07812l-.23145,1.54a4.06878,4.06878,0,0,1-2.49707.81348,3.27934,3.27934,0,0,1-3.25683-3.98243,4.66041,4.66041,0,0,1,4.5332-3.98242,3.2056,3.2056,0,0,1,2.28809.81445l-.24219,1.55079a2.488,2.488,0,0,0-2.13477-1.08887,3.22069,3.22069,0,0,0-3.05761,2.70605A2.16629,2.16629,0,0,0,147.98473,124.38446Z" style="fill: #d7d7d7"/>
      </g>
    </g>
    <g id="6567d20d-5da4-4330-a27b-5afbf8623ed3" data-name="Components">
      <g id="478f0ff3-7ac6-4310-8f9d-b36f876c479a" data-name="Knobs">
        <circle cx="59.01647" cy="167.35911" r="14.17323" style="fill: #676767"/>
        <circle cx="59.01647" cy="167.32233" r="12.40488" style="fill: #c9c9c7"/>
        <circle cx="59.01647" cy="159.32625" r="1.77165" style="fill: #4b4846"/>
        <circle cx="115.69097" cy="167.35911" r="14.17323" style="fill: #676767"/>
        <circle cx="115.69097" cy="167.32233" r="12.40488" style="fill: #c9c9c7"/>
        <circle cx="115.69097" cy="159.32625" r="1.77165" style="fill: #4b4846"/>
        <circle cx="172.36546" cy="167.35911" r="14.17323" style="fill: #676767"/>
        <circle cx="172.36546" cy="167.32233" r="12.40488" style="fill: #c9c9c7"/>
        <circle cx="172.36546" cy="159.32625" r="1.77165" style="fill: #4b4846"/>
        <circle cx="229.03995" cy="167.35911" r="14.17323" style="fill: #676767"/>
        <circle cx="229.03995" cy="167.32233" r="12.40488" style="fill: #c9c9c7"/>
        <circle cx="229.03995" cy="159.32625" r="1.77165" style="fill: #4b4846"/>
        <circle cx="222.52819" cy="66.37988" r="14.17323" style="fill: #676767"/>
        <circle cx="222.52819" cy="66.3431" r="12.40488" style="fill: #c9c9c7"/>
        <circle cx="222.52819" cy="58.34702" r="1.77165" style="fill: #4b4846"/>
        <circle cx="59.01647" cy="219.95941" r="14.17323" style="fill: #676767"/>
        <circle cx="59.01647" cy="219.92264" r="12.40488" style="fill: #c9c9c7"/>
        <circle cx="59.01647" cy="211.92656" r="1.77165" style="fill: #4b4846"/>
        <circle cx="115.69097" cy="219.95941" r="14.17323" style="fill: #676767"/>
        <circle cx="115.69097" cy="219.92264" r="12.40488" style="fill: #c9c9c7"/>
        <circle cx="115.69097" cy="211.92656" r="1.77165" style="fill: #4b4846"/>
        <circle cx="172.36546" cy="219.95941" r="14.17323" style="fill: #676767"/>
        <circle cx="172.36546" cy="219.92264" r="12.40488" style="fill: #c9c9c7"/>
        <circle cx="172.36546" cy="211.92656" r="1.77165" style="fill: #4b4846"/>
        <circle cx="229.03995" cy="219.95941" r="14.17323" style="fill: #676767"/>
        <circle cx="229.03995" cy="219.92264" r="12.40488" style="fill: #c9c9c7"/>
        <circle cx="229.03995" cy="211.92656" r="1.77165" style="fill: #4b4846"/>
        <g>
          <circle cx="85.27868" cy="66.37988" r="14.17323" style="fill: #676767"/>
          <circle cx="85.27868" cy="66.3431" r="12.40488" style="fill: #c9c9c7"/>
          <circle cx="85.27868" cy="58.34702" r="1.77165" style="fill: #4b4846"/>
        </g>
      </g>
      <g id="a4fb5062-9812-4ea9-b08e-8ad0f9b42048" data-name="Trimmers">
        <g>
          <circle cx="50.51352" cy="136.86269" r="8.50394" style="fill: #676767"/>
          <circle cx="50.51352" cy="136.84063" r="7.44293" style="fill: #c9c9c7"/>
          <circle cx="50.51352" cy="132.04298" r="1.06299" style="fill: #4b4846"/>
        </g>
        <g>
          <circle cx="110.02124" cy="136.86269" r="8.50394" style="fill: #676767"/>
          <circle cx="110.02124" cy="136.84063" r="7.44293" style="fill: #c9c9c7"/>
          <circle cx="110.02124" cy="132.04298" r="1.06299" style="fill: #4b4846"/>
        </g>
        <g>
          <circle cx="178.03573" cy="136.86269" r="8.50394" style="fill: #676767"/>
          <circle cx="178.03573" cy="136.84063" r="7.44293" style="fill: #c9c9c7"/>
          <circle cx="178.03573" cy="132.04298" r="1.06299" style="fill: #4b4846"/>
        </g>
        <g>
          <circle cx="237.54344" cy="136.86269" r="8.50394" style="fill: #676767"/>
          <circle cx="237.54344" cy="136.84063" r="7.44293" style="fill: #c9c9c7"/>
          <circle cx="237.54344" cy="132.04298" r="1.06299" style="fill: #4b4846"/>
        </g>
        <g>
          <circle cx="50.51352" cy="255.18428" r="8.50394" style="fill: #676767"/>
          <circle cx="50.51352" cy="255.16221" r="7.44293" style="fill: #c9c9c7"/>
          <circle cx="50.51352" cy="250.36457" r="1.06299" style="fill: #4b4846"/>
        </g>
        <g>
          <circle cx="110.02124" cy="255.18428" r="8.50394" style="fill: #676767"/>
          <circle cx="110.02124" cy="255.16221" r="7.44293" style="fill: #c9c9c7"/>
          <circle cx="110.02124" cy="250.36457" r="1.06299" style="fill: #4b4846"/>
        </g>
        <g>
          <circle cx="178.03573" cy="255.18428" r="8.50394" style="fill: #676767"/>
          <circle cx="178.03573" cy="255.16221" r="7.44293" style="fill: #c9c9c7"/>
          <circle cx="178.03573" cy="250.36457" r="1.06299" style="fill: #4b4846"/>
        </g>
        <g>
          <circle cx="237.54344" cy="255.18428" r="8.50394" style="fill: #676767"/>
          <circle cx="237.54344" cy="255.16221" r="7.44293" style="fill: #c9c9c7"/>
          <circle cx="237.54344" cy="250.36457" r="1.06299" style="fill: #4b4846"/>
        </g>
        <g>
          <circle cx="54.25646" cy="67.64467" r="8.50394" style="fill: #676767"/>
          <circle cx="54.25646" cy="67.6226" r="7.44293" style="fill: #c9c9c7"/>
          <circle cx="54.25646" cy="62.82496" r="1.06299" style="fill: #4b4846"/>
        </g>
      </g>
      <g id="61379d01-77ee-45e2-8448-ac86ffd8e26f" data-name="Jacks">
        <g id="05ff0b8e-2f22-40c9-b365-eae6c32870d3" data-name="layer1">
          <g>
            <path id="b993bca0-2edf-4018-ae4a-0ae00db152bd" data-name="path7255" d="M143.88008,77.86774a11.48829,11.48829,0,1,1,11.48828-11.4883,11.49963,11.49963,0,0,1-11.48828,11.4883" style="fill: #dde3e6"/>
            <path d="M143.8802,77.99316a11.61328,11.61328,0,1,1,11.61328-11.61328A11.62646,11.62646,0,0,1,143.8802,77.99316Zm0-22.97656a11.36328,11.36328,0,1,0,11.36328,11.36328A11.37628,11.37628,0,0,0,143.8802,55.0166Z" style="fill: #5e625f"/>
          </g>
          <line x1="132.3918" y1="66.37944" x2="155.24348" y2="66.37944" style="fill: none;stroke: #5e625f;stroke-miterlimit: 10;stroke-width: 2px"/>
          <g>
            <path id="154f28be-da64-4d1c-9499-f0886a08891e" data-name="path7261" d="M143.88008,74.65294a8.27345,8.27345,0,1,1,8.27342-8.2735,8.2822,8.2822,0,0,1-8.27342,8.2735" style="fill: #e2e8f1"/>
            <path d="M143.8802,74.77831a8.39844,8.39844,0,1,1,8.39843-8.39843A8.408,8.408,0,0,1,143.8802,74.77831Zm0-16.54687a8.14844,8.14844,0,1,0,8.14843,8.14844A8.15753,8.15753,0,0,0,143.8802,58.23144Z" style="fill: #5e625f"/>
          </g>
          <path id="08a58a94-8888-4f5a-90da-7393d629d031" data-name="path7265" d="M148.98165,66.37944A5.10156,5.10156,0,1,1,143.8801,61.278a5.103,5.103,0,0,1,5.10155,5.10149"/>
        </g>
        <g id="16b6af94-6c50-4f60-8393-8b4d96260d07" data-name="layer1">
          <g>
            <path id="24039388-c036-4e5b-aed8-c128e1ec7556" data-name="path7255" d="M265.32271,77.86774A11.48829,11.48829,0,1,1,276.811,66.37944a11.49963,11.49963,0,0,1-11.48829,11.4883" style="fill: #dde3e6"/>
            <path d="M265.32283,77.99316a11.61328,11.61328,0,1,1,11.61329-11.61328A11.62646,11.62646,0,0,1,265.32283,77.99316Zm0-22.97656a11.36328,11.36328,0,1,0,11.36329,11.36328A11.37629,11.37629,0,0,0,265.32283,55.0166Z" style="fill: #5e625f"/>
          </g>
          <line x1="253.83443" y1="66.37944" x2="276.68612" y2="66.37944" style="fill: none;stroke: #5e625f;stroke-miterlimit: 10;stroke-width: 2px"/>
          <g>
            <path id="1d6f7211-5ddd-41eb-8354-0f39bef67722" data-name="path7261" d="M265.32271,74.65294a8.27345,8.27345,0,1,1,8.27342-8.2735,8.28221,8.28221,0,0,1-8.27342,8.2735" style="fill: #e2e8f1"/>
            <path d="M265.32283,74.77831a8.39844,8.39844,0,1,1,8.39844-8.39843A8.408,8.408,0,0,1,265.32283,74.77831Zm0-16.54687a8.14844,8.14844,0,1,0,8.14844,8.14844A8.15753,8.15753,0,0,0,265.32283,58.23144Z" style="fill: #5e625f"/>
          </g>
          <path id="b4a75f2e-9a6a-4e54-8389-be8e174152fe" data-name="path7265" d="M270.42428,66.37944a5.10156,5.10156,0,1,1-5.10154-5.10149,5.103,5.103,0,0,1,5.10154,5.10149"/>
        </g>
        <g id="b4df4588-f649-42ab-852f-a41ceed3db05" data-name="layer1">
          <g>
            <path id="9da26600-959e-4c33-818b-7237f242fc07" data-name="path7255" d="M143.99988,332.44078a11.48829,11.48829,0,1,1,11.48828-11.4883,11.49964,11.49964,0,0,1-11.48828,11.4883" style="fill: #dde3e6"/>
            <path d="M144,332.5662a11.61329,11.61329,0,1,1,11.61328-11.61328A11.62646,11.62646,0,0,1,144,332.5662Zm0-22.97657a11.36329,11.36329,0,1,0,11.36328,11.36329A11.3763,11.3763,0,0,0,144,309.58963Z" style="fill: #5e625f"/>
          </g>
          <line x1="132.5116" y1="320.95248" x2="155.36328" y2="320.95248" style="fill: none;stroke: #5e625f;stroke-miterlimit: 10;stroke-width: 2px"/>
          <g>
            <path id="02a97916-d755-4b0f-bebd-e13e0425f0b8" data-name="path7261" d="M143.99988,329.226a8.27345,8.27345,0,1,1,8.27342-8.2735,8.2822,8.2822,0,0,1-8.27342,8.2735" style="fill: #e2e8f1"/>
            <path d="M144,329.35135a8.39844,8.39844,0,1,1,8.39844-8.39843A8.408,8.408,0,0,1,144,329.35135Zm0-16.54687a8.14844,8.14844,0,1,0,8.14844,8.14844A8.15754,8.15754,0,0,0,144,312.80448Z" style="fill: #5e625f"/>
          </g>
          <path id="76b508b1-8637-43c6-9e28-abdaa9c797cf" data-name="path7265" d="M149.10145,320.95248a5.10156,5.10156,0,1,1-5.10155-5.10149,5.103,5.103,0,0,1,5.10155,5.10149"/>
        </g>
        <g id="150e2328-33d2-4739-b658-4fae4fdb1ad1" data-name="layer1">
          <g>
            <path id="c256d060-2c65-4dd3-8b93-34c686f8de24" data-name="path7255" d="M73.70067,332.44078A11.48829,11.48829,0,1,1,85.189,320.95248a11.49964,11.49964,0,0,1-11.48828,11.4883" style="fill: #dde3e6"/>
            <path d="M73.70079,332.5662a11.61329,11.61329,0,1,1,11.61328-11.61328A11.62646,11.62646,0,0,1,73.70079,332.5662Zm0-22.97657a11.36329,11.36329,0,1,0,11.36328,11.36329A11.37629,11.37629,0,0,0,73.70079,309.58963Z" style="fill: #5e625f"/>
          </g>
          <line x1="62.21239" y1="320.95248" x2="85.06407" y2="320.95248" style="fill: none;stroke: #5e625f;stroke-miterlimit: 10;stroke-width: 2px"/>
          <g>
            <path id="11b3c0ac-3f80-4408-9900-4c87cefa957e" data-name="path7261" d="M73.70067,329.226a8.27345,8.27345,0,1,1,8.27342-8.2735,8.2822,8.2822,0,0,1-8.27342,8.2735" style="fill: #e2e8f1"/>
            <path d="M73.70079,329.35135a8.39844,8.39844,0,1,1,8.39843-8.39843A8.408,8.408,0,0,1,73.70079,329.35135Zm0-16.54687a8.14844,8.14844,0,1,0,8.14843,8.14844A8.15753,8.15753,0,0,0,73.70079,312.80448Z" style="fill: #5e625f"/>
          </g>
          <path id="2a0d2e5b-0162-47d3-9d3c-ffafcfb82ec1" data-name="path7265" d="M78.80224,320.95248a5.10156,5.10156,0,1,1-5.10155-5.10149,5.103,5.103,0,0,1,5.10155,5.10149"/>
        </g>
        <g id="3a401f34-2d81-4c3e-bf00-7f4563505306" data-name="layer1">
          <g>
            <path id="9736ff03-6b56-4e92-ad8e-12cf6559b3fc" data-name="path7255" d="M214.29909,332.44078a11.48829,11.48829,0,1,1,11.48828-11.4883,11.49964,11.49964,0,0,1-11.48828,11.4883" style="fill: #dde3e6"/>
            <path d="M214.29921,332.5662a11.61329,11.61329,0,1,1,11.61328-11.61328A11.62646,11.62646,0,0,1,214.29921,332.5662Zm0-22.97657a11.36329,11.36329,0,1,0,11.36328,11.36329A11.3763,11.3763,0,0,0,214.29921,309.58963Z" style="fill: #5e625f"/>
          </g>
          <line x1="202.81081" y1="320.95248" x2="225.66249" y2="320.95248" style="fill: none;stroke: #5e625f;stroke-miterlimit: 10;stroke-width: 2px"/>
          <g>
            <path id="fffca08d-ab64-4160-bf43-6892fb4b82f6" data-name="path7261" d="M214.29909,329.226a8.27345,8.27345,0,1,1,8.27342-8.2735,8.28221,8.28221,0,0,1-8.27342,8.2735" style="fill: #e2e8f1"/>
            <path d="M214.29921,329.35135a8.39844,8.39844,0,1,1,8.39844-8.39843A8.408,8.408,0,0,1,214.29921,329.35135Zm0-16.54687a8.14844,8.14844,0,1,0,8.14844,8.14844A8.15753,8.15753,0,0,0,214.29921,312.80448Z" style="fill: #5e625f"/>
          </g>
          <path id="8b296eac-a14b-4561-8342-ae42cb3b2ed4" data-name="path7265" d="M219.40066,320.95248a5.10156,5.10156,0,1,1-5.10155-5.10149,5.103,5.103,0,0,1,5.10155,5.10149"/>
        </g>
        <g id="fda179bb-5a17-4518-b6f6-25d7ada7ea36" data-name="layer1">
          <g>
            <path id="fd438536-fe9e-4928-bafa-6c0389fc12cf" data-name="path7255" d="M42.00933,114.24665a11.48829,11.48829,0,1,1,11.48828-11.4883,11.49963,11.49963,0,0,1-11.48828,11.4883" style="fill: #dde3e6"/>
            <path d="M42.00945,114.37207a11.61328,11.61328,0,1,1,11.61328-11.61328A11.62646,11.62646,0,0,1,42.00945,114.37207Zm0-22.97656a11.36328,11.36328,0,1,0,11.36328,11.36328A11.37628,11.37628,0,0,0,42.00945,91.39551Z" style="fill: #5e625f"/>
          </g>
          <line x1="30.52105" y1="102.75835" x2="53.37273" y2="102.75835" style="fill: none;stroke: #5e625f;stroke-miterlimit: 10;stroke-width: 2px"/>
          <g>
            <path id="156977f9-bf23-49cf-ae95-6e8acfa4c6de" data-name="path7261" d="M42.00933,111.03186a8.27346,8.27346,0,1,1,8.27342-8.27351,8.2822,8.2822,0,0,1-8.27342,8.27351" style="fill: #e2e8f1"/>
            <path d="M42.00945,111.15723a8.39844,8.39844,0,1,1,8.39844-8.39844A8.408,8.408,0,0,1,42.00945,111.15723Zm0-16.54688a8.14844,8.14844,0,1,0,8.14844,8.14844A8.15753,8.15753,0,0,0,42.00945,94.61035Z" style="fill: #5e625f"/>
          </g>
          <path id="b4348801-837b-474d-8d41-fd1e404bf0d8" data-name="path7265" d="M47.1109,102.75835a5.10156,5.10156,0,1,1-5.10155-5.10148,5.103,5.103,0,0,1,5.10155,5.10148"/>
        </g>
        <g id="67268578-680e-4cf1-903f-bc35ba0babaf" data-name="layer1">
          <g>
            <path id="117df92d-c78f-4084-b343-b145017a92da" data-name="path7255" d="M104.35169,114.24665A11.48829,11.48829,0,1,1,115.84,102.75835a11.49963,11.49963,0,0,1-11.48828,11.4883" style="fill: #dde3e6"/>
            <path d="M104.35181,114.37207a11.61328,11.61328,0,1,1,11.61328-11.61328A11.62646,11.62646,0,0,1,104.35181,114.37207Zm0-22.97656a11.36328,11.36328,0,1,0,11.36328,11.36328A11.37629,11.37629,0,0,0,104.35181,91.39551Z" style="fill: #5e625f"/>
          </g>
          <line x1="92.86341" y1="102.75835" x2="115.71509" y2="102.75835" style="fill: none;stroke: #5e625f;stroke-miterlimit: 10;stroke-width: 2px"/>
          <g>
            <path id="6b524bc8-d76c-42f6-b01a-d9187fd037af" data-name="path7261" d="M104.35169,111.03186a8.27346,8.27346,0,1,1,8.27342-8.27351,8.28221,8.28221,0,0,1-8.27342,8.27351" style="fill: #e2e8f1"/>
            <path d="M104.35181,111.15723a8.39844,8.39844,0,1,1,8.39844-8.39844A8.408,8.408,0,0,1,104.35181,111.15723Zm0-16.54688a8.14844,8.14844,0,1,0,8.14844,8.14844A8.15754,8.15754,0,0,0,104.35181,94.61035Z" style="fill: #5e625f"/>
          </g>
          <path id="9070f265-c4d7-4257-9f44-4b394c60a215" data-name="path7265" d="M109.45326,102.75835a5.10156,5.10156,0,1,1-5.10155-5.10148,5.103,5.103,0,0,1,5.10155,5.10148"/>
        </g>
        <g id="51f1a0b2-8af9-4ddd-9418-09b85be418b6" data-name="layer1">
          <g>
            <path id="6be6cf1f-d7b4-4437-a076-dbdecf2726a4" data-name="path7255" d="M183.70476,114.24665a11.48829,11.48829,0,1,1,11.48828-11.4883,11.49963,11.49963,0,0,1-11.48828,11.4883" style="fill: #dde3e6"/>
            <path d="M183.70488,114.37207a11.61328,11.61328,0,1,1,11.61328-11.61328A11.62646,11.62646,0,0,1,183.70488,114.37207Zm0-22.97656a11.36328,11.36328,0,1,0,11.36328,11.36328A11.37629,11.37629,0,0,0,183.70488,91.39551Z" style="fill: #5e625f"/>
          </g>
          <line x1="172.21648" y1="102.75835" x2="195.06816" y2="102.75835" style="fill: none;stroke: #5e625f;stroke-miterlimit: 10;stroke-width: 2px"/>
          <g>
            <path id="1dbc6100-1be1-4018-a919-fc3e09be684c" data-name="path7261" d="M183.70476,111.03186a8.27346,8.27346,0,1,1,8.27342-8.27351,8.28221,8.28221,0,0,1-8.27342,8.27351" style="fill: #e2e8f1"/>
            <path d="M183.70488,111.15723a8.39844,8.39844,0,1,1,8.39844-8.39844A8.408,8.408,0,0,1,183.70488,111.15723Zm0-16.54688a8.14844,8.14844,0,1,0,8.14844,8.14844A8.15754,8.15754,0,0,0,183.70488,94.61035Z" style="fill: #5e625f"/>
          </g>
          <path id="c4ba3f02-3742-4e20-92e9-df139b5abee0" data-name="path7265" d="M188.80633,102.75835a5.10156,5.10156,0,1,1-5.10155-5.10148,5.103,5.103,0,0,1,5.10155,5.10148"/>
        </g>
        <g id="d3a7412f-953c-4bc1-9564-568ec29ff19f" data-name="layer1">
          <g>
            <path id="ad600edc-3750-49d2-a079-2b0e55ed4756" data-name="path7255" d="M246.04712,114.24665a11.48829,11.48829,0,1,1,11.48829-11.4883,11.49963,11.49963,0,0,1-11.48829,11.4883" style="fill: #dde3e6"/>
            <path d="M246.04724,114.37207a11.61328,11.61328,0,1,1,11.61329-11.61328A11.62646,11.62646,0,0,1,246.04724,114.37207Zm0-22.97656a11.36328,11.36328,0,1,0,11.36329,11.36328A11.37629,11.37629,0,0,0,246.04724,91.39551Z" style="fill: #5e625f"/>
          </g>
          <line x1="234.55884" y1="102.75835" x2="257.41053" y2="102.75835" style="fill: none;stroke: #5e625f;stroke-miterlimit: 10;stroke-width: 2px"/>
          <g>
            <path id="9f341dc3-a8df-4cda-a911-c6a21df8f486" data-name="path7261" d="M246.04712,111.03186a8.27346,8.27346,0,1,1,8.27342-8.27351,8.28221,8.28221,0,0,1-8.27342,8.27351" style="fill: #e2e8f1"/>
            <path d="M246.04724,111.15723a8.39844,8.39844,0,1,1,8.39844-8.39844A8.408,8.408,0,0,1,246.04724,111.15723Zm0-16.54688a8.14844,8.14844,0,1,0,8.14844,8.14844A8.15753,8.15753,0,0,0,246.04724,94.61035Z" style="fill: #5e625f"/>
          </g>
          <path id="81173c91-cede-4b8a-a466-d1c4c92da7ec" data-name="path7265" d="M251.14869,102.75835a5.10156,5.10156,0,1,1-5.10154-5.10148,5.103,5.103,0,0,1,5.10154,5.10148"/>
        </g>
        <g id="77c785af-e47e-48ee-a1a6-33654c6d7fe8" data-name="layer1">
          <g>
            <path id="3a9d9395-92b0-48bf-bc42-45f3e0523a6e" data-name="path7255" d="M42.00933,296.0476a11.4883,11.4883,0,1,1,11.48828-11.48831A11.49964,11.49964,0,0,1,42.00933,296.0476" style="fill: #dde3e6"/>
            <path d="M42.00945,296.173a11.61328,11.61328,0,1,1,11.61328-11.61328A11.62646,11.62646,0,0,1,42.00945,296.173Zm0-22.97656a11.36328,11.36328,0,1,0,11.36328,11.36328A11.37629,11.37629,0,0,0,42.00945,273.19645Z" style="fill: #5e625f"/>
          </g>
          <line x1="30.52105" y1="284.55929" x2="53.37273" y2="284.55929" style="fill: none;stroke: #5e625f;stroke-miterlimit: 10;stroke-width: 2px"/>
          <g>
            <path id="dd9b06a0-8812-445f-988f-50ee3dc4bc90" data-name="path7261" d="M42.00933,292.8328a8.27345,8.27345,0,1,1,8.27342-8.27351,8.2822,8.2822,0,0,1-8.27342,8.27351" style="fill: #e2e8f1"/>
            <path d="M42.00945,292.95817a8.39844,8.39844,0,1,1,8.39844-8.39844A8.408,8.408,0,0,1,42.00945,292.95817Zm0-16.54688a8.14844,8.14844,0,1,0,8.14844,8.14844A8.15754,8.15754,0,0,0,42.00945,276.41129Z" style="fill: #5e625f"/>
          </g>
          <path id="7a2447c7-7abf-4aac-b0fd-183bb626a8d9" data-name="path7265" d="M47.1109,284.55929a5.10156,5.10156,0,1,1-5.10155-5.10148,5.103,5.103,0,0,1,5.10155,5.10148"/>
        </g>
        <g id="1c4f3342-1e2c-4727-9791-535488a0c3e1" data-name="layer1">
          <g>
            <path id="f0a14d62-2575-4ca6-9f0f-0eb37510bbe1" data-name="path7255" d="M104.35169,296.0476A11.4883,11.4883,0,1,1,115.84,284.55929a11.49964,11.49964,0,0,1-11.48828,11.48831" style="fill: #dde3e6"/>
            <path d="M104.35181,296.173a11.61328,11.61328,0,1,1,11.61328-11.61328A11.62646,11.62646,0,0,1,104.35181,296.173Zm0-22.97656a11.36328,11.36328,0,1,0,11.36328,11.36328A11.3763,11.3763,0,0,0,104.35181,273.19645Z" style="fill: #5e625f"/>
          </g>
          <line x1="92.86341" y1="284.55929" x2="115.71509" y2="284.55929" style="fill: none;stroke: #5e625f;stroke-miterlimit: 10;stroke-width: 2px"/>
          <g>
            <path id="f91bfe06-fbf9-4c77-8c71-c07a29d3f787" data-name="path7261" d="M104.35169,292.8328a8.27345,8.27345,0,1,1,8.27342-8.27351,8.28221,8.28221,0,0,1-8.27342,8.27351" style="fill: #e2e8f1"/>
            <path d="M104.35181,292.95817a8.39844,8.39844,0,1,1,8.39844-8.39844A8.408,8.408,0,0,1,104.35181,292.95817Zm0-16.54688a8.14844,8.14844,0,1,0,8.14844,8.14844A8.15755,8.15755,0,0,0,104.35181,276.41129Z" style="fill: #5e625f"/>
          </g>
          <path id="f9252d7f-851c-457b-934c-1c501a6c9cf4" data-name="path7265" d="M109.45326,284.55929a5.10156,5.10156,0,1,1-5.10155-5.10148,5.103,5.103,0,0,1,5.10155,5.10148"/>
        </g>
        <g id="9b6850ee-fe12-465d-a979-aac7458e413d" data-name="layer1">
          <g>
            <path id="1c11446b-580e-4338-95d0-5cace1f8ee40" data-name="path7255" d="M183.70476,296.0476A11.4883,11.4883,0,1,1,195.193,284.55929a11.49964,11.49964,0,0,1-11.48828,11.48831" style="fill: #dde3e6"/>
            <path d="M183.70488,296.173a11.61328,11.61328,0,1,1,11.61328-11.61328A11.62646,11.62646,0,0,1,183.70488,296.173Zm0-22.97656a11.36328,11.36328,0,1,0,11.36328,11.36328A11.3763,11.3763,0,0,0,183.70488,273.19645Z" style="fill: #5e625f"/>
          </g>
          <line x1="172.21648" y1="284.55929" x2="195.06816" y2="284.55929" style="fill: none;stroke: #5e625f;stroke-miterlimit: 10;stroke-width: 2px"/>
          <g>
            <path id="bf389dd5-a7d5-41d3-822a-403e916d888d" data-name="path7261" d="M183.70476,292.8328a8.27345,8.27345,0,1,1,8.27342-8.27351,8.28221,8.28221,0,0,1-8.27342,8.27351" style="fill: #e2e8f1"/>
            <path d="M183.70488,292.95817a8.39844,8.39844,0,1,1,8.39844-8.39844A8.408,8.408,0,0,1,183.70488,292.95817Zm0-16.54688a8.14844,8.14844,0,1,0,8.14844,8.14844A8.15755,8.15755,0,0,0,183.70488,276.41129Z" style="fill: #5e625f"/>
          </g>
          <path id="1be402cd-325e-49dd-b258-9c25d1afdbe9" data-name="path7265" d="M188.80633,284.55929a5.10156,5.10156,0,1,1-5.10155-5.10148,5.103,5.103,0,0,1,5.10155,5.10148"/>
        </g>
        <g id="827ba0e8-2a58-4c9a-ba22-06bcdaf6d1ae" data-name="layer1">
          <g>
            <path id="f36bd6ed-4fd8-437f-bf5a-dfc03218b044" data-name="path7255" d="M246.04712,296.0476a11.4883,11.4883,0,1,1,11.48829-11.48831,11.49964,11.49964,0,0,1-11.48829,11.48831" style="fill: #dde3e6"/>
            <path d="M246.04724,296.173a11.61328,11.61328,0,1,1,11.61329-11.61328A11.62646,11.62646,0,0,1,246.04724,296.173Zm0-22.97656a11.36328,11.36328,0,1,0,11.36329,11.36328A11.3763,11.3763,0,0,0,246.04724,273.19645Z" style="fill: #5e625f"/>
          </g>
          <line x1="234.55884" y1="284.55929" x2="257.41053" y2="284.55929" style="fill: none;stroke: #5e625f;stroke-miterlimit: 10;stroke-width: 2px"/>
          <g>
            <path id="7b0c7945-4453-43c7-8425-44b6a7f91636" data-name="path7261" d="M246.04712,292.8328a8.27345,8.27345,0,1,1,8.27342-8.27351,8.28221,8.28221,0,0,1-8.27342,8.27351" style="fill: #e2e8f1"/>
            <path d="M246.04724,292.95817a8.39844,8.39844,0,1,1,8.39844-8.39844A8.408,8.408,0,0,1,246.04724,292.95817Zm0-16.54688a8.14844,8.14844,0,1,0,8.14844,8.14844A8.15754,8.15754,0,0,0,246.04724,276.41129Z" style="fill: #5e625f"/>
          </g>
          <path id="bf6ba8d8-9b85-4a45-9c43-d6497119baa3" data-name="path7265" d="M251.14869,284.55929a5.10156,5.10156,0,1,1-5.10154-5.10148,5.103,5.103,0,0,1,5.10154,5.10148"/>
        </g>
        <g id="daab71ec-93d5-4fd2-b67c-d775e31d2c4f" data-name="layer1">
          <g>
            <path id="c99c16ae-e2f3-43e7-9ac3-f0fe208eb394" data-name="path7255" d="M22.67705,77.86774a11.48829,11.48829,0,1,1,11.48828-11.4883,11.49963,11.49963,0,0,1-11.48828,11.4883" style="fill: #dde3e6"/>
            <path d="M22.67717,77.99316A11.61328,11.61328,0,1,1,34.29045,66.37988,11.62647,11.62647,0,0,1,22.67717,77.99316Zm0-22.97656A11.36328,11.36328,0,1,0,34.04045,66.37988,11.37629,11.37629,0,0,0,22.67717,55.0166Z" style="fill: #5e625f"/>
          </g>
          <line x1="11.18876" y1="66.37944" x2="34.04045" y2="66.37944" style="fill: none;stroke: #5e625f;stroke-miterlimit: 10;stroke-width: 2px"/>
          <g>
            <path id="b637ad07-e828-45ba-93c6-162f21c8d243" data-name="path7261" d="M22.67705,74.65294a8.27345,8.27345,0,1,1,8.27341-8.2735,8.2822,8.2822,0,0,1-8.27341,8.2735" style="fill: #e2e8f1"/>
            <path d="M22.67717,74.77831a8.39844,8.39844,0,1,1,8.39843-8.39843A8.408,8.408,0,0,1,22.67717,74.77831Zm0-16.54687a8.14844,8.14844,0,1,0,8.14843,8.14844A8.15753,8.15753,0,0,0,22.67717,58.23144Z" style="fill: #5e625f"/>
          </g>
          <path id="e852c96a-429e-4b03-a687-8ce635a88761" data-name="path7265" d="M27.77862,66.37944A5.10156,5.10156,0,1,1,22.67707,61.278a5.103,5.103,0,0,1,5.10155,5.10149"/>
        </g>
      </g>
      <g id="739e4b84-1853-4972-a81a-632441f9ff39" data-name="layer1">
        <g id="6fb4bd9b-a8db-4f2c-beee-03c9e2c466a1" data-name="g56702">
          <g id="34428bc3-0842-446b-b1b4-4d4ba95ac61d" data-name="g5827">
            <path id="34d8d5ed-1890-4efb-80fe-7d3ab0c3189f" data-name="path5829" d="M137,93.9133a1.48065,1.48065,0,0,1,1.47511-1.47511h11.04978A1.48065,1.48065,0,0,1,151,93.9133v17.69193a1.47976,1.47976,0,0,1-1.47511,1.47406H138.47511A1.47976,1.47976,0,0,1,137,111.60523Z"/>
          </g>
          <g id="34b83234-ce1b-4a88-8965-6249bcff7b62" data-name="g5839">
            <g id="9af7260f-0e26-4f65-b09e-9ca91cf1929f" data-name="g5841">
              <path id="f117184e-7b27-499a-aa9a-f46675559c12" data-name="path5849" d="M139.19414,93.77107a.88789.88789,0,0,0-.88631.88421h0v16.35726a.88877.88877,0,0,0,.88631.88522h9.6111a.88774.88774,0,0,0,.8842-.88522h0V94.65528a.88679.88679,0,0,0-.8842-.88421h-9.6111Z" style="fill: #282828"/>
            </g>
          </g>
          <path id="d5d11591-b40a-4816-830f-8bae64bc75fc" data-name="path5859" d="M138.30993,93.76993h11.38059v8.84651H138.30993Z" style="fill: #444"/>
          <path id="c65770fe-2e4c-49e1-a862-371ff07b3a0d" data-name="path5861" d="M138.30993,97.70638h11.38059v.97373H138.30993Z" style="fill: #979797"/>
          <path id="16aef2cf-6e9b-403c-821d-5fd1cc900ae8" data-name="path5863" d="M138.30993,101.64271h11.38059v.97373H138.30993Z" style="fill: #979797"/>
          <path id="fa0d142a-3d09-4d38-a1ba-b3c0aae24d82" data-name="path5865" d="M138.30993,99.67556h11.38059v.97373H138.30993Z" style="fill: #979797"/>
          <path id="c0e45050-7cbe-43c4-8f9a-ea31a14dcab3" data-name="path5867" d="M138.30993,95.73822h11.38059V96.712H138.30993Z" style="fill: #979797"/>
          <path id="5d98fb3f-ec32-4025-b765-034842458979" data-name="path5869" d="M138.30993,93.76993h11.38059v.97373H138.30993Z" style="fill: #979797"/>
        </g>
      </g>
    </g>
    <g id="2bcdeba8-7d0b-4042-823e-aeb579dd68a9" data-name="Legend">
      <circle cx="143.8802" cy="66.37988" r="13.63575" style="fill: none;stroke: #63a4bf;stroke-miterlimit: 10"/>
      <circle cx="42.00945" cy="102.75879" r="13.63575" style="fill: none;stroke: #63a4bf;stroke-miterlimit: 10"/>
      <g>
        <path d="M43.81523,122.06285h2.504v.95913h-2.504Z" style="fill: #63a4bf"/>
        <path d="M57.88591,123.0524H56.53012v1.34982H55.571V123.0524H54.16033v-.95913H55.571v-1.41066h.95913v1.41066h1.35579Z" style="fill: #63a4bf"/>
        <path d="M62.35176,136.95291A11.84636,11.84636,0,0,0,52.27883,125.2604a1.78448,1.78448,0,0,0-3.53083.00013A11.82143,11.82143,0,0,0,42.1979,145.371a1.51389,1.51389,0,1,0,.66717-.74878,10.82065,10.82065,0,0,1,6.01123-18.37085,1.78772,1.78772,0,0,0,3.27441-.00006,10.82118,10.82118,0,0,1,6.01636,18.36615,1.4964,1.4964,0,1,0,.66724.748A11.73355,11.73355,0,0,0,62.35176,136.95291ZM50.51339,126.571a1.04248,1.04248,0,1,1,1.04248-1.04248A1.04248,1.04248,0,0,1,50.51339,126.571Z" style="fill: #63a4bf"/>
      </g>
      <circle cx="104.35181" cy="102.75879" r="13.63575" style="fill: none;stroke: #63a4bf;stroke-miterlimit: 10"/>
      <g>
        <path d="M103.323,122.06285h2.504v.95913h-2.504Z" style="fill: #63a4bf"/>
        <path d="M117.39363,123.0524h-1.35579v1.34982h-.95913V123.0524h-1.41066v-.95913h1.41066v-1.41066h.95913v1.41066h1.35579Z" style="fill: #63a4bf"/>
        <path d="M121.85948,136.95291a11.84637,11.84637,0,0,0-10.07294-11.69251,1.78447,1.78447,0,0,0-3.53082.00013,11.82143,11.82143,0,0,0-6.55011,20.11047,1.51391,1.51391,0,1,0,.66718-.74878,10.82064,10.82064,0,0,1,6.01123-18.37085,1.78772,1.78772,0,0,0,3.27441-.00006,10.82118,10.82118,0,0,1,6.01636,18.36615,1.4964,1.4964,0,1,0,.66724.748A11.73355,11.73355,0,0,0,121.85948,136.95291ZM110.0211,126.571a1.04248,1.04248,0,1,1,1.04248-1.04248A1.04249,1.04249,0,0,1,110.0211,126.571Z" style="fill: #63a4bf"/>
      </g>
      <circle cx="183.70488" cy="102.75879" r="13.63575" style="fill: none;stroke: #63a4bf;stroke-miterlimit: 10"/>
      <g>
        <path d="M171.33744,122.06285h2.504v.95913h-2.504Z" style="fill: #63a4bf"/>
        <path d="M185.40811,123.0524h-1.35578v1.34982h-.95913V123.0524h-1.41066v-.95913h1.41066v-1.41066h.95913v1.41066h1.35578Z" style="fill: #63a4bf"/>
        <path d="M189.874,136.95291A11.84637,11.84637,0,0,0,179.801,125.2604a1.78447,1.78447,0,0,0-3.53082.00013A11.82143,11.82143,0,0,0,169.7201,145.371a1.51391,1.51391,0,1,0,.66718-.74878,10.82064,10.82064,0,0,1,6.01123-18.37085,1.78772,1.78772,0,0,0,3.27441-.00006,10.82118,10.82118,0,0,1,6.01636,18.36615,1.49641,1.49641,0,1,0,.66723.748A11.73355,11.73355,0,0,0,189.874,136.95291Zm-11.83838-10.382a1.04248,1.04248,0,1,1,1.04248-1.04248A1.04249,1.04249,0,0,1,178.03559,126.571Z" style="fill: #63a4bf"/>
      </g>
      <circle cx="246.04724" cy="102.75879" r="13.63575" style="fill: none;stroke: #63a4bf;stroke-miterlimit: 10"/>
      <g>
        <path d="M230.84515,122.06285h2.504v.95913h-2.504Z" style="fill: #63a4bf"/>
        <path d="M244.91583,123.0524h-1.35578v1.34982h-.95913V123.0524h-1.41067v-.95913h1.41067v-1.41066h.95913v1.41066h1.35578Z" style="fill: #63a4bf"/>
        <path d="M249.38169,136.95291a11.84637,11.84637,0,0,0-10.07294-11.69251,1.78447,1.78447,0,0,0-3.53082.00013,11.82143,11.82143,0,0,0-6.55011,20.11047,1.51389,1.51389,0,1,0,.66717-.74878,10.82065,10.82065,0,0,1,6.01123-18.37085,1.78773,1.78773,0,0,0,3.27442-.00006,10.82117,10.82117,0,0,1,6.01635,18.36615,1.4964,1.4964,0,1,0,.66724.748A11.73355,11.73355,0,0,0,249.38169,136.95291Zm-11.83838-10.382a1.04248,1.04248,0,1,1,1.04248-1.04248A1.04248,1.04248,0,0,1,237.54331,126.571Z" style="fill: #63a4bf"/>
      </g>
      <g>
        <path d="M43.81523,240.26347h2.504v.95913h-2.504Z" style="fill: #63a4bf"/>
        <path d="M57.88591,241.253H56.53012v1.34982H55.571V241.253H54.16033v-.95913H55.571v-1.41066h.95913v1.41066h1.35579Z" style="fill: #63a4bf"/>
        <path d="M62.35176,255.15353A11.84635,11.84635,0,0,0,52.27883,243.461a1.78448,1.78448,0,0,0-3.53083.00012,11.82143,11.82143,0,0,0-6.5501,20.11047,1.51391,1.51391,0,1,0,.66717-.74877A10.82065,10.82065,0,0,1,48.8763,244.452a1.78772,1.78772,0,0,0,3.27441-.00007,10.82118,10.82118,0,0,1,6.01636,18.36615,1.49641,1.49641,0,1,0,.66724.748A11.73357,11.73357,0,0,0,62.35176,255.15353ZM50.51339,244.77158a1.04249,1.04249,0,1,1,1.04248-1.04248A1.04248,1.04248,0,0,1,50.51339,244.77158Z" style="fill: #63a4bf"/>
      </g>
      <g>
        <path d="M103.323,240.26347h2.504v.95913h-2.504Z" style="fill: #63a4bf"/>
        <path d="M117.39363,241.253h-1.35579v1.34982h-.95913V241.253h-1.41066v-.95913h1.41066v-1.41066h.95913v1.41066h1.35579Z" style="fill: #63a4bf"/>
        <path d="M121.85948,255.15353a11.84636,11.84636,0,0,0-10.07294-11.6925,1.78447,1.78447,0,0,0-3.53082.00012,11.82143,11.82143,0,0,0-6.55011,20.11047,1.51392,1.51392,0,1,0,.66718-.74877A10.82064,10.82064,0,0,1,108.384,244.452a1.78772,1.78772,0,0,0,3.27441-.00007,10.82118,10.82118,0,0,1,6.01636,18.36615,1.4964,1.4964,0,1,0,.66724.748A11.73357,11.73357,0,0,0,121.85948,255.15353ZM110.0211,244.77158a1.04249,1.04249,0,1,1,1.04248-1.04248A1.04249,1.04249,0,0,1,110.0211,244.77158Z" style="fill: #63a4bf"/>
      </g>
      <g>
        <path d="M171.33744,240.26347h2.504v.95913h-2.504Z" style="fill: #63a4bf"/>
        <path d="M185.40811,241.253h-1.35578v1.34982h-.95913V241.253h-1.41066v-.95913h1.41066v-1.41066h.95913v1.41066h1.35578Z" style="fill: #63a4bf"/>
        <path d="M189.874,255.15353A11.84636,11.84636,0,0,0,179.801,243.461a1.78447,1.78447,0,0,0-3.53082.00012,11.82143,11.82143,0,0,0-6.55011,20.11047,1.51392,1.51392,0,1,0,.66718-.74877,10.82064,10.82064,0,0,1,6.01123-18.37085,1.78772,1.78772,0,0,0,3.27441-.00007,10.82118,10.82118,0,0,1,6.01636,18.36615,1.49642,1.49642,0,1,0,.66723.748A11.73358,11.73358,0,0,0,189.874,255.15353Zm-11.83838-10.38195a1.04249,1.04249,0,1,1,1.04248-1.04248A1.04249,1.04249,0,0,1,178.03559,244.77158Z" style="fill: #63a4bf"/>
      </g>
      <g>
        <path d="M230.84515,240.26347h2.504v.95913h-2.504Z" style="fill: #63a4bf"/>
        <path d="M244.91583,241.253h-1.35578v1.34982h-.95913V241.253h-1.41067v-.95913h1.41067v-1.41066h.95913v1.41066h1.35578Z" style="fill: #63a4bf"/>
        <path d="M249.38169,255.15353a11.84636,11.84636,0,0,0-10.07294-11.6925,1.78447,1.78447,0,0,0-3.53082.00012,11.82143,11.82143,0,0,0-6.55011,20.11047,1.51391,1.51391,0,1,0,.66717-.74877,10.82065,10.82065,0,0,1,6.01123-18.37085,1.78773,1.78773,0,0,0,3.27442-.00007,10.82117,10.82117,0,0,1,6.01635,18.36615,1.49641,1.49641,0,1,0,.66724.748A11.73358,11.73358,0,0,0,249.38169,255.15353Zm-11.83838-10.38195a1.04249,1.04249,0,1,1,1.04248-1.04248A1.04248,1.04248,0,0,1,237.54331,244.77158Z" style="fill: #63a4bf"/>
      </g>
      <circle cx="42.00945" cy="284.55973" r="13.63575" style="fill: none;stroke: #63a4bf;stroke-miterlimit: 10"/>
      <circle cx="104.35181" cy="284.55973" r="13.63575" style="fill: none;stroke: #63a4bf;stroke-miterlimit: 10"/>
      <circle cx="265.32283" cy="66.37988" r="13.63575" style="fill: none;stroke: #63a4bf;stroke-miterlimit: 10"/>
      <circle cx="183.70488" cy="284.55973" r="13.63575" style="fill: none;stroke: #63a4bf;stroke-miterlimit: 10"/>
      <circle cx="246.04724" cy="284.55973" r="13.63575" style="fill: none;stroke: #63a4bf;stroke-miterlimit: 10"/>
      <circle cx="22.67717" cy="66.37988" r="13.63575" style="fill: none;stroke: #63a4bf;stroke-miterlimit: 10"/>
      <g>
        <path d="M47.55817,52.84482h2.504V53.804h-2.504Z" style="fill: #63a4bf"/>
        <path d="M61.62885,53.83438H60.27306V55.1842h-.95913V53.83438H57.90327v-.95913h1.41066V51.46458h.95913v1.41067h1.35579Z" style="fill: #63a4bf"/>
        <path d="M66.0947,67.73489A11.84636,11.84636,0,0,0,56.02177,56.04238a1.78448,1.78448,0,0,0-3.53083.00012A11.82145,11.82145,0,0,0,45.94083,76.153a1.51391,1.51391,0,1,0,.66718-.74878,10.82065,10.82065,0,0,1,6.01123-18.37085,1.78772,1.78772,0,0,0,3.27441-.00006A10.82118,10.82118,0,0,1,61.91,75.39944a1.4964,1.4964,0,1,0,.66724.748A11.73356,11.73356,0,0,0,66.0947,67.73489Zm-11.83838-10.382a1.04248,1.04248,0,1,1,1.04248-1.04248A1.04249,1.04249,0,0,1,54.25632,57.35293Z" style="fill: #63a4bf"/>
      </g>
    </g>
    <g>
      <path d="M86.74059,5.63056a9.74879,9.74879,0,0,1,4.63965,1.9707,6.58821,6.58821,0,0,1,2.25879,5.167,8.8469,8.8469,0,0,1-2.14941,6.32325,5.88609,5.88609,0,0,1-.82813.72558L98.23766,27.364H89.6488l-8.32813-8.293v8.2334H79.15759V7.5329a16.24079,16.24079,0,0,0-2.14844.06153v19.71H74.8529V5.68525l.91015-.14356a23.95856,23.95856,0,0,1,5.14649-.04785,18.06667,18.06667,0,0,1,2.11523-.15723A19.38672,19.38672,0,0,1,86.74059,5.63056Zm-5.41992,13.208,1.78613-.35547a4.5648,4.5648,0,0,0,1.82715-.96485,5.6605,5.6605,0,0,0,1.92969-4.75,4.18272,4.18272,0,0,0-1.499-3.51074A7.80326,7.80326,0,0,0,81.7445,7.75263c-.14258-.02637-.28418-.042-.42383-.05469Zm7.69238-6.07032a8.06358,8.06358,0,0,1-2.68945,6.41309,6.87166,6.87166,0,0,1-1.10254.73828l5.31738,5.28809h2.49805l-6.28906-6.25293,1.84766-.458a2.93145,2.93145,0,0,0,1.335-.88965c.73437-.76562,1.54589-2.13965,1.54589-4.83887a4.1817,4.1817,0,0,0-1.49121-3.51074,7.19032,7.19032,0,0,0-2.8955-1.2998A6.59225,6.59225,0,0,1,89.01305,12.76825Z" style="fill: #d7d7d7"/>
      <path d="M127.64782,27.31806H118.7445l-4.55762-8.77539-3.89355,8.78418H107.7611l6.42578-13.16406L120.059,25.12763h3.69532L114.18688,7.76337,104.06579,27.32685h-2.53223L114.18688,3.38349Z" style="fill: #d7d7d7"/>
      <path d="M144.25231,9.54755h3.03906V11.737h-5.10546V10.64228a3.09364,3.09364,0,0,0-3.10059-3.02442,3.00673,3.00673,0,0,0-3.01758,3.02442,3.30958,3.30958,0,0,0,3.01758,3.36035h1.78613a7.00742,7.00742,0,0,1,6.94629,6.99414,6.76544,6.76544,0,0,1-6.9668,6.65918h-.00683a6.814,6.814,0,0,1-6.85059-5.55762l-2.7373.01367-.01367-2.18945,4.26367-.02734a5.19429,5.19429,0,0,1-1.36133-7.28907,7.35124,7.35124,0,0,1-.26758-1.96386,5.23065,5.23065,0,0,1,5.208-5.21485A5.30411,5.30411,0,0,1,144.25231,9.54755Zm-8.85547,6.043a3.01547,3.01547,0,0,0,3.01856,3.03516h1.793a6.976,6.976,0,0,1,5.41308,2.63086c.00391-.085.00684-.17188.00684-.25977a4.77965,4.77965,0,0,0-4.77735-4.80371h-1.793a5.20817,5.20817,0,0,1-3.53809-1.45117A3.86811,3.86811,0,0,0,135.39684,15.59052Zm.6709,5.40625a4.47208,4.47208,0,0,0,4.7832,4.46875,4.85018,4.85018,0,0,0,3.77833-1.62207,4.79413,4.79413,0,0,0-4.44825-3.02832H138.4154a5.16916,5.16916,0,0,1-2.34766-.585Z" style="fill: #d7d7d7"/>
      <path d="M168.40368,6.8581l1.25293.71191-3.39453,3.3877a6.365,6.365,0,0,1,1.84082,1.68261l3.35351-3.3457.73926,1.14258A10.94426,10.94426,0,0,1,157.057,25.56806l-1.14258-.73926,3.35352-3.35254a6.3816,6.3816,0,0,1-1.6836-1.834L154.18981,23.029l-.71191-1.252A10.944,10.944,0,0,1,168.40368,6.8581Zm-14.166,9.51953a8.66923,8.66923,0,0,0,.541,2.96973l1.9707-1.97754a6.2777,6.2777,0,0,1-.082-.99219,6.34713,6.34713,0,0,1,6.33008-6.33106,8.87556,8.87556,0,0,1,.999.083l1.97071-1.97851a8.72587,8.72587,0,0,0-11.7295,8.22656Zm4.61914,0a4.13383,4.13383,0,0,0,1.97852,3.53125l5.69336-5.6875a4.1383,4.1383,0,0,0-7.67188,2.15625Zm.60938,8a8.73788,8.73788,0,0,0,11.53809-11.53125Z" style="fill: #d7d7d7"/>
      <path d="M185.37731,5.7331V27.32685h-2.15625V7.88935h-2.15527v19.4375h-2.15625V5.7331Z" style="fill: #d7d7d7"/>
      <path d="M202.73278,5.63056a9.74879,9.74879,0,0,1,4.63965,1.9707,6.58824,6.58824,0,0,1,2.25879,5.167,8.84686,8.84686,0,0,1-2.14942,6.32325,5.88548,5.88548,0,0,1-.82812.72558l7.57617,7.54688H205.641l-8.32812-8.293v8.2334h-2.16309V7.5329a16.24063,16.24063,0,0,0-2.14843.06153v19.71h-2.15625V5.68525l.91015-.14356a23.95856,23.95856,0,0,1,5.14649-.04785,18.06667,18.06667,0,0,1,2.11523-.15723A19.38678,19.38678,0,0,1,202.73278,5.63056Zm-5.41992,13.208,1.78613-.35547a4.5648,4.5648,0,0,0,1.82715-.96485,5.6605,5.6605,0,0,0,1.92969-4.75,4.1827,4.1827,0,0,0-1.499-3.51074,7.80323,7.80323,0,0,0-3.62011-1.50488c-.14258-.02637-.28418-.042-.42383-.05469Zm7.69238-6.07032a8.06358,8.06358,0,0,1-2.68945,6.41309,6.87166,6.87166,0,0,1-1.10254.73828l5.31738,5.28809h2.49805l-6.28906-6.25293,1.84765-.458a2.9314,2.9314,0,0,0,1.335-.88965c.73438-.76562,1.5459-2.13965,1.5459-4.83887a4.1817,4.1817,0,0,0-1.49121-3.51074,7.1903,7.1903,0,0,0-2.89551-1.2998A6.59226,6.59226,0,0,1,205.00524,12.76825Z" style="fill: #d7d7d7"/>
    </g>
  </g>
</svg>
