<?xml version="1.0" encoding="UTF-8" standalone="no"?>
<svg
   xmlns:dc="http://purl.org/dc/elements/1.1/"
   xmlns:cc="http://creativecommons.org/ns#"
   xmlns:rdf="http://www.w3.org/1999/02/22-rdf-syntax-ns#"
   xmlns:svg="http://www.w3.org/2000/svg"
   xmlns="http://www.w3.org/2000/svg"
   xmlns:sodipodi="http://sodipodi.sourceforge.net/DTD/sodipodi-0.dtd"
   xmlns:inkscape="http://www.inkscape.org/namespaces/inkscape"
   inkscape:version="1.0 (4035a4f, 2020-05-01)"
   sodipodi:docname="Rasoir.svg"
   id="svg1027"
   version="1.1"
   viewBox="0 0 288 364.252"
   height="128.5mm"
   width="101.6mm">
  <metadata
     id="metadata1033">
    <rdf:RDF>
      <cc:Work
         rdf:about="">
        <dc:format>image/svg+xml</dc:format>
        <dc:type
           rdf:resource="http://purl.org/dc/dcmitype/StillImage" />
        <dc:title>Rasoir</dc:title>
      </cc:Work>
    </rdf:RDF>
  </metadata>
  <defs
     id="defs1031" />
  <sodipodi:namedview
     inkscape:current-layer="svg1027"
     inkscape:window-maximized="1"
     inkscape:window-y="22"
     inkscape:window-x="0"
     inkscape:cy="242.83465"
     inkscape:cx="192"
     inkscape:zoom="1.4947917"
     showgrid="false"
     id="namedview1029"
     inkscape:window-height="1152"
     inkscape:window-width="1920"
     inkscape:pageshadow="2"
     inkscape:pageopacity="0"
     guidetolerance="10"
     gridtolerance="10"
     objecttolerance="10"
     borderopacity="1"
     bordercolor="#666666"
     pagecolor="#ffffff" />
  <title
     id="title833">Rasoir</title>
  <g
     data-name="Rasoir"
     id="4f4930e5-e739-4671-9c12-14c9fcf0f2c1">
    <rect
       fill="#333"
       height="364.252"
       width="288"
       data-name="BG"
       id="ca32be9a-f59f-4d6b-8d86-cb1a7b175b66" />
    <rect
       fill="#63a4bf"
       height="31.181"
       width="288"
       data-name="Header"
       id="e96770ef-0c9f-47a9-b61f-1850cdcccdc6" />
    <g
       data-name="Logo"
       id="8f72680e-1e25-4e26-a13f-835b089ff65d">
      <polygon
         id="polygon837"
         fill="#d7d7d7"
         points="140.469 345.662 138.115 345.662 138.115 348.016 138.115 350.37 138.115 352.724 138.115 355.078 140.469 355.078 140.469 352.724 140.469 350.37 142.823 350.37 142.823 348.016 145.177 348.016 145.177 345.662 142.823 345.662 140.469 345.662" />
      <polygon
         id="polygon839"
         fill="#d7d7d7"
         points="142.823 355.078 145.177 355.078 147.531 355.078 149.885 355.078 149.885 352.724 149.885 350.37 149.885 348.016 149.885 345.662 147.531 345.662 147.531 348.016 147.531 350.37 145.177 350.37 145.177 352.724 142.823 352.724 142.823 355.078" />
      <polygon
         id="polygon841"
         fill="#d7d7d7"
         points="152.239 342.085 135.761 342.085 135.761 343.353 152.239 343.353 152.239 357.406 135.761 357.406 135.761 342.085 134.583 342.085 134.583 358.583 135.761 358.583 153.417 358.583 153.417 357.406 153.417 342.085 152.239 342.085" />
    </g>
    <g
       data-name="Text"
       id="6a522b6a-b732-4c40-8ebf-26a3c871fa75">
      <path
         id="path844"
         fill="#d9d8d6"
         d="M32.147,40.42h5.238l-.209,1.2h-1.97l-1.111,6.5H32.8l1.122-6.5H31.938Z" />
      <path
         id="path846"
         fill="#d9d8d6"
         d="M39.87,43.919A1.345,1.345,0,0,0,38.572,45l-.539,3.125H36.845l1.474-8.581h1.188l-.726,4.224a1.88,1.88,0,0,1,1.563-.836c1.143,0,1.55.847,1.408,1.947l-.562,3.246H40.014l.549-3.081C40.629,44.447,40.509,43.941,39.87,43.919Z" />
      <path
         id="path848"
         fill="#d9d8d6"
         d="M45.337,44.062c-.539-.011-.869.44-1.013.957l-.539,3.1H42.619l.88-5.061h1.166l-.1.572a1.642,1.642,0,0,1,1.2-.682,1.216,1.216,0,0,1,.88.4l-.7.99A.906.906,0,0,0,45.337,44.062Z" />
      <path
         id="path850"
         fill="#d9d8d6"
         d="M46.5,45.921a2.944,2.944,0,0,1,2.971-2.97,2,2,0,0,1,2.178,2.222,2.447,2.447,0,0,1-.121.693H47.69c-.022.814.374,1.386,1.189,1.386a1.771,1.771,0,0,0,1.473-.8l.991.407a2.909,2.909,0,0,1-2.564,1.375A2.134,2.134,0,0,1,46.5,45.921Zm1.331-.88h2.6v-.022c0-.726-.352-1.166-1.056-1.166A1.628,1.628,0,0,0,47.833,45.041Z" />
      <path
         id="path852"
         fill="#d9d8d6"
         d="M54.2,47.308a.638.638,0,0,0,.7-.595c.011-.44-.484-.671-.969-.858-.616-.242-1.264-.6-1.243-1.463a1.591,1.591,0,0,1,1.782-1.441,2.354,2.354,0,0,1,1.86.891l-.66.693a1.676,1.676,0,0,0-1.21-.682c-.4,0-.661.2-.661.484-.022.4.418.561.924.77.748.319,1.365.66,1.343,1.54a1.713,1.713,0,0,1-1.859,1.628A2.742,2.742,0,0,1,52,47.153l.748-.682A1.945,1.945,0,0,0,54.2,47.308Z" />
      <path
         id="path854"
         fill="#d9d8d6"
         d="M59.7,43.919A1.345,1.345,0,0,0,58.4,45l-.539,3.125H56.677l1.474-8.581h1.188l-.726,4.224a1.88,1.88,0,0,1,1.563-.836c1.143,0,1.55.847,1.408,1.947l-.562,3.246H59.846l.549-3.081C60.461,44.447,60.341,43.941,59.7,43.919Z" />
      <path
         id="path856"
         fill="#d9d8d6"
         d="M65.621,42.951a2.231,2.231,0,0,1,2.288,2.64,3.071,3.071,0,0,1-3.036,2.64,2.237,2.237,0,0,1-2.289-2.64A3.071,3.071,0,0,1,65.621,42.951Zm-.66,4.224A1.833,1.833,0,0,0,66.7,45.591a1.255,1.255,0,0,0-1.178-1.584,1.832,1.832,0,0,0-1.738,1.584A1.255,1.255,0,0,0,64.961,47.175Z" />
      <path
         id="path858"
         fill="#d9d8d6"
         d="M71.12,39.541l-1.484,8.581H68.48l1.452-8.581Z" />
      <path
         id="path860"
         fill="#d9d8d6"
         d="M73.959,42.951A1.582,1.582,0,0,1,75.488,44l.759-4.455h1.188l-1.474,8.581H74.784l.132-.782a2.229,2.229,0,0,1-1.772.891,2.113,2.113,0,0,1-2-2.64A2.954,2.954,0,0,1,73.959,42.951ZM73.518,47.2a1.863,1.863,0,0,0,1.695-1.606c.11-.847-.308-1.584-1.078-1.606a1.864,1.864,0,0,0-1.783,1.606C72.221,46.449,72.66,47.2,73.518,47.2Z" />
      <path
         id="path862"
         fill="#d9d8d6"
         d="M142.779,40.42l-1.342,7.7h-1.276l1.3-7.7Z" />
      <path
         id="path864"
         fill="#d9d8d6"
         d="M145.991,43.919a1.284,1.284,0,0,0-1.287,1.089l-.539,3.114h-1.189l.88-5.061h1.178l-.121.748a1.833,1.833,0,0,1,1.562-.858c1.155,0,1.584.88,1.43,1.958l-.55,3.213h-1.21l.55-3.081C146.772,44.447,146.651,43.919,145.991,43.919Z" />
      <path
         id="path866"
         fill="#d9d8d6"
         d="M140.406,296.777a3.269,3.269,0,0,1,3.256,3.983,4.682,4.682,0,0,1-4.531,4.015,3.3,3.3,0,0,1-3.258-4.015A4.682,4.682,0,0,1,140.406,296.777Zm-1.144,6.711a3.178,3.178,0,0,0,3.037-2.728c.22-1.408-.485-2.718-2.026-2.729a3.175,3.175,0,0,0-3.035,2.729A2.138,2.138,0,0,0,139.262,303.488Z" />
      <path
         id="path868"
         fill="#d9d8d6"
         d="M146.324,303.752a1.283,1.283,0,0,0,1.3-1.078l.551-3.124h1.177l-.869,5.06h-1.189l.121-.748a1.845,1.845,0,0,1-1.563.858c-1.142,0-1.572-.891-1.418-1.958l.549-3.212h1.19l-.53,3.08C145.564,303.224,145.685,303.752,146.324,303.752Z" />
      <path
         id="path870"
         fill="#d9d8d6"
         d="M150.922,299.55l.3-1.761H152.4l-.308,1.761h.836l-.188,1.045h-.824l-.705,4.015h-1.143l.682-4.015h-.815l.188-1.045Z" />
      <path
         id="path872"
         fill="#d9d8d6"
         d="M67.238,296.909l-1.122,6.535h2.971l-.2,1.166H64.631l1.32-7.7Z" />
      <path
         id="path874"
         fill="#d9d8d6"
         d="M72.827,299.439a2.232,2.232,0,0,1,2.288,2.641,3.071,3.071,0,0,1-3.036,2.64,2.237,2.237,0,0,1-2.289-2.64A3.072,3.072,0,0,1,72.827,299.439Zm-.66,4.225a1.833,1.833,0,0,0,1.738-1.584,1.256,1.256,0,0,0-1.178-1.585,1.833,1.833,0,0,0-1.738,1.585A1.255,1.255,0,0,0,72.167,303.664Z" />
      <path
         id="path876"
         fill="#d9d8d6"
         d="M76.9,299.55l.627,2.97,1.958-3.377.836,3.4,1.662-2.992h1.309L80.032,305l-.935-3.422L77.017,305l-1.364-5.445Z" />
      <path
         id="path878"
         fill="#d9d8d6"
         d="M206.033,296.908l-.506,2.971h3.719l.506-2.971h1.309l-1.331,7.7h-1.276l.594-3.542h-3.73l-.6,3.542h-1.277l1.3-7.7Z" />
      <path
         id="path880"
         fill="#d9d8d6"
         d="M213.4,299.549l-.858,5.06h-1.166l.847-5.06Zm-.242-2.729a.716.716,0,1,1-.748.715A.722.722,0,0,1,213.161,296.82Z" />
      <path
         id="path882"
         fill="#d9d8d6"
         d="M214.9,304.962a1.065,1.065,0,0,0,1.166,1.187A1.814,1.814,0,0,0,217.8,304.5l.121-.7a2.286,2.286,0,0,1-1.772.857,2.081,2.081,0,0,1-2-2.6,2.945,2.945,0,0,1,2.817-2.62,1.589,1.589,0,0,1,1.54,1.035l.154-.924h1.144l-.836,4.951a2.935,2.935,0,0,1-2.927,2.684,2.034,2.034,0,0,1-2.288-2.234Zm1.628-1.343a1.819,1.819,0,0,0,1.661-1.375l.055-.274a1.241,1.241,0,0,0-1.1-1.5,1.827,1.827,0,0,0-1.782,1.585A1.213,1.213,0,0,0,216.527,303.619Z" />
      <path
         id="path884"
         fill="#d9d8d6"
         d="M223.358,300.407a1.346,1.346,0,0,0-1.3,1.078l-.539,3.124h-1.188l1.474-8.581H223l-.726,4.225a1.881,1.881,0,0,1,1.563-.836c1.143,0,1.551.847,1.408,1.947l-.561,3.245H223.5l.55-3.08C224.117,300.936,224,300.429,223.358,300.407Z" />
      <path
         id="path886"
         fill="#d9d8d6"
         d="M51.4,195.445a1.305,1.305,0,0,0,1.4-1.188c.022-.748-.616-.99-1.386-1.342a2.358,2.358,0,0,1-1.7-2.135,2.391,2.391,0,0,1,2.585-2.156,2.489,2.489,0,0,1,2.409,1.661l-1.066.562a1.547,1.547,0,0,0-1.475-1.068.988.988,0,0,0-1.122.913c-.033.617.583.991,1.452,1.331a2.218,2.218,0,0,1,1.651,2.146,2.716,2.716,0,0,1-2.806,2.453,2.858,2.858,0,0,1-2.673-1.969l.989-.682C50.036,194.84,50.519,195.445,51.4,195.445Z" />
      <path
         id="path888"
         fill="#d9d8d6"
         d="M57.879,192.255a1.342,1.342,0,0,0-1.3,1.078l-.539,3.124H54.853l1.475-8.581h1.187L56.79,192.1a1.88,1.88,0,0,1,1.562-.836c1.144,0,1.551.846,1.409,1.947l-.562,3.245H58.022l.55-3.08C58.638,192.783,58.517,192.276,57.879,192.255Z" />
      <path
         id="path890"
         fill="#d9d8d6"
         d="M62.785,191.4l-.858,5.061H60.761l.847-5.061Zm-.242-2.728a.716.716,0,1,1-.748.715A.722.722,0,0,1,62.543,188.668Z" />
      <path
         id="path892"
         fill="#d9d8d6"
         d="M64.468,191.4l.319-1.87a1.871,1.871,0,0,1,1.87-1.782,1.4,1.4,0,0,1,1.078.506l-.681.9a.571.571,0,0,0-.462-.286c-.386,0-.617.418-.683.9l-.275,1.627h1.144l-.186,1.045H65.447l-.682,4.016H63.6l.694-4.016h-.539l.187-1.045Z" />
      <path
         id="path894"
         fill="#d9d8d6"
         d="M67.767,191.4l.3-1.759h1.177l-.308,1.759h.836l-.187,1.045h-.825l-.7,4.016H66.909l.682-4.016h-.814l.187-1.045Z" />
      <path
         id="path896"
         fill="#d9d8d6"
         d="M106.891,188.756c1.54,0,2.52.946,2.322,2.4a2.866,2.866,0,0,1-3.059,2.387h-1.022l-.5,2.916H103.36l1.3-7.7Zm-1.132,1.143-.43,2.5h.936a1.593,1.593,0,0,0,1.694-1.243c.132-.781-.374-1.255-1.189-1.255Z" />
      <path
         id="path898"
         fill="#d9d8d6"
         d="M111.566,191.4l-.858,5.061h-1.166l.848-5.061Zm-.242-2.728a.716.716,0,1,1-.748.715A.721.721,0,0,1,111.324,188.668Z" />
      <path
         id="path900"
         fill="#d9d8d6"
         d="M115.263,192.254a1.284,1.284,0,0,0-1.288,1.09l-.539,3.113h-1.188l.88-5.061h1.178l-.122.749a1.833,1.833,0,0,1,1.563-.859c1.154,0,1.584.88,1.43,1.958l-.55,3.213h-1.21l.55-3.081C116.044,192.782,115.923,192.254,115.263,192.254Z" />
      <path
         id="path902"
         fill="#d9d8d6"
         d="M120.564,195.532a2.331,2.331,0,0,0,1.771-.836l-.187,1.3a2.728,2.728,0,0,1-1.717.571,2.245,2.245,0,0,1-2.309-2.639,3.065,3.065,0,0,1,3.047-2.641,2.4,2.4,0,0,1,1.606.572l-.186,1.309a1.556,1.556,0,0,0-1.453-.847,1.871,1.871,0,0,0-1.8,1.607A1.286,1.286,0,0,0,120.564,195.532Z" />
      <path
         id="path904"
         fill="#d9d8d6"
         d="M126.219,192.254a1.344,1.344,0,0,0-1.3,1.078l-.539,3.125h-1.189l1.475-8.581h1.187l-.725,4.225a1.877,1.877,0,0,1,1.562-.837c1.144,0,1.551.847,1.408,1.947l-.561,3.246h-1.177l.55-3.081C126.977,192.782,126.857,192.276,126.219,192.254Z" />
      <path
         id="path906"
         fill="#d9d8d6"
         d="M168.038,188.755l-.2,1.166h-2.883l-.33,1.926H167.4l-.186,1.132h-2.784l-.594,3.477h-1.254l1.3-7.7Z" />
      <path
         id="path908"
         fill="#d9d8d6"
         d="M170.864,191.285a2.232,2.232,0,0,1,2.288,2.641,3.071,3.071,0,0,1-3.036,2.64,2.237,2.237,0,0,1-2.289-2.64A3.072,3.072,0,0,1,170.864,191.285Zm-.66,4.225a1.833,1.833,0,0,0,1.738-1.584,1.255,1.255,0,0,0-1.177-1.584,1.832,1.832,0,0,0-1.739,1.584A1.256,1.256,0,0,0,170.2,195.51Z" />
      <path
         id="path910"
         fill="#d9d8d6"
         d="M176.363,187.875l-1.484,8.581h-1.156l1.453-8.581Z" />
      <path
         id="path912"
         fill="#d9d8d6"
         d="M179.2,191.285a1.585,1.585,0,0,1,1.529,1.046l.759-4.456h1.189l-1.475,8.581h-1.177l.132-.781a2.227,2.227,0,0,1-1.771.891,2.112,2.112,0,0,1-2-2.64A2.955,2.955,0,0,1,179.2,191.285Zm-.44,4.247a1.863,1.863,0,0,0,1.694-1.606c.11-.847-.308-1.584-1.078-1.607a1.863,1.863,0,0,0-1.782,1.607C177.464,194.784,177.9,195.532,178.762,195.532Z" />
      <path
         id="path914"
         fill="#d9d8d6"
         d="M220.89,195.444a1.305,1.305,0,0,0,1.4-1.187c.021-.748-.615-.99-1.387-1.343a2.36,2.36,0,0,1-1.705-2.134,2.391,2.391,0,0,1,2.586-2.156,2.485,2.485,0,0,1,2.408,1.661l-1.066.561a1.545,1.545,0,0,0-1.475-1.067.988.988,0,0,0-1.121.913c-.033.616.582.99,1.451,1.331a2.213,2.213,0,0,1,1.651,2.145,2.716,2.716,0,0,1-2.8,2.454,2.862,2.862,0,0,1-2.674-1.97l.99-.681C219.525,194.84,220.01,195.444,220.89,195.444Z" />
      <path
         id="path916"
         fill="#d9d8d6"
         d="M227.006,187.876l-1.485,8.581h-1.156l1.453-8.581Z" />
      <path
         id="path918"
         fill="#d9d8d6"
         d="M227.049,194.257a2.945,2.945,0,0,1,2.97-2.971,2,2,0,0,1,2.18,2.223,2.44,2.44,0,0,1-.121.692h-3.84c-.023.815.373,1.387,1.188,1.387a1.777,1.777,0,0,0,1.474-.8l.99.407a2.909,2.909,0,0,1-2.564,1.375A2.134,2.134,0,0,1,227.049,194.257Zm1.332-.881h2.595v-.022c0-.726-.351-1.166-1.054-1.166A1.626,1.626,0,0,0,228.381,193.376Z" />
      <path
         id="path920"
         fill="#d9d8d6"
         d="M233.935,191.4l.627,2.97,1.957-3.377.836,3.4,1.662-2.993h1.309l-3.256,5.446-.935-3.422-2.079,3.422-1.365-5.446Z" />
      <path
         id="path922"
         fill="#d9d8d6"
         d="M233,40.42h1.518l-4.335,8.131-1.452-5.435-3.168,5.446-1.8-8.142h1.474l.924,5.193,3.025-5.6,1.266,5.6Z" />
      <path
         id="path924"
         fill="#d9d8d6"
         d="M233.185,45.921a2.944,2.944,0,0,1,2.971-2.97,2,2,0,0,1,2.179,2.222,2.483,2.483,0,0,1-.121.693h-3.84c-.023.814.374,1.386,1.188,1.386a1.774,1.774,0,0,0,1.474-.8l.99.407a2.906,2.906,0,0,1-2.563,1.375A2.134,2.134,0,0,1,233.185,45.921Zm1.331-.88h2.6v-.022c0-.726-.351-1.166-1.056-1.166A1.628,1.628,0,0,0,234.516,45.041Z" />
      <path
         id="path926"
         fill="#d9d8d6"
         d="M239.852,43.061l.3-1.76h1.177l-.308,1.76h.836l-.187,1.045h-.825l-.7,4.016h-1.144l.682-4.016h-.814l.187-1.045Z" />
      <path
         id="path928"
         fill="#d9d8d6"
         d="M248.092,40.42l-6.03,9.352-1.2-.011,6.029-9.341Z" />
      <path
         id="path930"
         fill="#d9d8d6"
         d="M247.717,48.122l1.3-7.7h2.4a3.13,3.13,0,0,1,3.234,3.851,4.442,4.442,0,0,1-4.466,3.851Zm2.42-6.48-.914,5.258h1.045a3.021,3.021,0,0,0,3.059-2.629,2.041,2.041,0,0,0-2.079-2.629Z" />
      <path
         id="path932"
         fill="#d9d8d6"
         d="M257.8,44.062c-.539-.011-.87.44-1.013.957l-.539,3.1h-1.166l.88-5.061h1.166l-.1.572a1.642,1.642,0,0,1,1.2-.682,1.216,1.216,0,0,1,.88.4l-.7.99A.908.908,0,0,0,257.8,44.062Z" />
      <path
         id="path934"
         fill="#d9d8d6"
         d="M260.146,50.542H258.87l1.848-3.047-1.232-4.434h1.277l.758,3.278,1.827-3.278h1.287Z" />
    </g>
    <g
       data-name="Legend"
       id="ff587c59-89d5-49e2-a69b-bc76e725ca78">
      <circle
         id="circle937"
         stroke-miterlimit="10"
         stroke="#63a4bf"
         fill="none"
         r="13.636"
         cy="66.38"
         cx="143.88" />
      <circle
         id="circle939"
         stroke-miterlimit="10"
         stroke="#63a4bf"
         fill="none"
         r="13.636"
         cy="102.759"
         cx="42.009" />
      <path
         id="path941"
         fill="#63a4bf"
         d="M43.815,122.063h2.5v.959h-2.5Z" />
      <path
         id="path943"
         fill="#63a4bf"
         d="M57.886,123.052H56.53v1.35h-.959v-1.35H54.16v-.959h1.411v-1.41h.959v1.41h1.356Z" />
      <path
         id="path945"
         fill="#63a4bf"
         d="M62.352,136.953A11.847,11.847,0,0,0,52.279,125.26a1.785,1.785,0,0,0-3.531,0,11.821,11.821,0,0,0-6.55,20.11,1.513,1.513,0,1,0,.667-.749,10.821,10.821,0,0,1,6.011-18.371,1.788,1.788,0,0,0,3.275,0,10.821,10.821,0,0,1,6.016,18.366,1.5,1.5,0,1,0,.667.748A11.728,11.728,0,0,0,62.352,136.953ZM50.513,126.571a1.043,1.043,0,1,1,1.043-1.043A1.043,1.043,0,0,1,50.513,126.571Z" />
      <circle
         id="circle947"
         stroke-miterlimit="10"
         stroke="#63a4bf"
         fill="none"
         r="13.636"
         cy="102.759"
         cx="104.352" />
      <path
         id="path949"
         fill="#63a4bf"
         d="M103.323,122.063h2.5v.959h-2.5Z" />
      <path
         id="path951"
         fill="#63a4bf"
         d="M117.394,123.052h-1.356v1.35h-.959v-1.35h-1.411v-.959h1.411v-1.41h.959v1.41h1.356Z" />
      <path
         id="path953"
         fill="#63a4bf"
         d="M121.859,136.953a11.846,11.846,0,0,0-10.072-11.693,1.785,1.785,0,0,0-3.531,0,11.821,11.821,0,0,0-6.55,20.11,1.513,1.513,0,1,0,.667-.749,10.821,10.821,0,0,1,6.011-18.371,1.787,1.787,0,0,0,3.274,0,10.822,10.822,0,0,1,6.017,18.366,1.5,1.5,0,1,0,.667.748A11.732,11.732,0,0,0,121.859,136.953Zm-11.838-10.382a1.043,1.043,0,1,1,1.043-1.043A1.042,1.042,0,0,1,110.021,126.571Z" />
      <circle
         id="circle955"
         stroke-miterlimit="10"
         stroke="#63a4bf"
         fill="none"
         r="13.636"
         cy="102.759"
         cx="183.705" />
      <path
         id="path957"
         fill="#63a4bf"
         d="M171.337,122.063h2.5v.959h-2.5Z" />
      <path
         id="path959"
         fill="#63a4bf"
         d="M185.408,123.052h-1.356v1.35h-.959v-1.35h-1.41v-.959h1.41v-1.41h.959v1.41h1.356Z" />
      <path
         id="path961"
         fill="#63a4bf"
         d="M189.874,136.953A11.847,11.847,0,0,0,179.8,125.26a1.785,1.785,0,0,0-3.531,0,11.821,11.821,0,0,0-6.55,20.11,1.513,1.513,0,1,0,.667-.749,10.821,10.821,0,0,1,6.012-18.371,1.787,1.787,0,0,0,3.274,0,10.821,10.821,0,0,1,6.016,18.366,1.5,1.5,0,1,0,.668.748A11.732,11.732,0,0,0,189.874,136.953Zm-11.838-10.382a1.043,1.043,0,1,1,1.042-1.043A1.043,1.043,0,0,1,178.036,126.571Z" />
      <circle
         id="circle963"
         stroke-miterlimit="10"
         stroke="#63a4bf"
         fill="none"
         r="13.636"
         cy="102.759"
         cx="246.047" />
      <path
         id="path965"
         fill="#63a4bf"
         d="M230.845,122.063h2.5v.959h-2.5Z" />
      <path
         id="path967"
         fill="#63a4bf"
         d="M244.916,123.052H243.56v1.35H242.6v-1.35H241.19v-.959H242.6v-1.41h.959v1.41h1.356Z" />
      <path
         id="path969"
         fill="#63a4bf"
         d="M249.382,136.953a11.847,11.847,0,0,0-10.073-11.693,1.785,1.785,0,0,0-3.531,0,11.821,11.821,0,0,0-6.55,20.11,1.513,1.513,0,1,0,.667-.749,10.821,10.821,0,0,1,6.011-18.371,1.788,1.788,0,0,0,3.275,0,10.821,10.821,0,0,1,6.016,18.366,1.5,1.5,0,1,0,.667.748A11.728,11.728,0,0,0,249.382,136.953Zm-11.839-10.382a1.043,1.043,0,1,1,1.043-1.043A1.043,1.043,0,0,1,237.543,126.571Z" />
      <path
         id="path971"
         fill="#63a4bf"
         d="M43.815,240.263h2.5v.96h-2.5Z" />
      <path
         id="path973"
         fill="#63a4bf"
         d="M57.886,241.253H56.53v1.35h-.959v-1.35H54.16v-.959h1.411v-1.411h.959v1.411h1.356Z" />
      <path
         id="path975"
         fill="#63a4bf"
         d="M62.352,255.154a11.847,11.847,0,0,0-10.073-11.693,1.785,1.785,0,0,0-3.531,0,11.822,11.822,0,0,0-6.55,20.111,1.513,1.513,0,1,0,.667-.749,10.821,10.821,0,0,1,6.011-18.371,1.788,1.788,0,0,0,3.275,0,10.821,10.821,0,0,1,6.016,18.366,1.5,1.5,0,1,0,.667.748A11.732,11.732,0,0,0,62.352,255.154ZM50.513,244.772a1.043,1.043,0,1,1,1.043-1.043A1.043,1.043,0,0,1,50.513,244.772Z" />
      <path
         id="path977"
         fill="#63a4bf"
         d="M103.323,240.263h2.5v.96h-2.5Z" />
      <path
         id="path979"
         fill="#63a4bf"
         d="M117.394,241.253h-1.356v1.35h-.959v-1.35h-1.411v-.959h1.411v-1.411h.959v1.411h1.356Z" />
      <path
         id="path981"
         fill="#63a4bf"
         d="M121.859,255.154a11.846,11.846,0,0,0-10.072-11.693,1.785,1.785,0,0,0-3.531,0,11.822,11.822,0,0,0-6.55,20.111,1.513,1.513,0,1,0,.667-.749,10.821,10.821,0,0,1,6.011-18.371,1.787,1.787,0,0,0,3.274,0,10.822,10.822,0,0,1,6.017,18.366,1.5,1.5,0,1,0,.667.748A11.735,11.735,0,0,0,121.859,255.154Zm-11.838-10.382a1.043,1.043,0,1,1,1.043-1.043A1.042,1.042,0,0,1,110.021,244.772Z" />
      <path
         id="path983"
         fill="#63a4bf"
         d="M171.337,240.263h2.5v.96h-2.5Z" />
      <path
         id="path985"
         fill="#63a4bf"
         d="M185.408,241.253h-1.356v1.35h-.959v-1.35h-1.41v-.959h1.41v-1.411h.959v1.411h1.356Z" />
      <path
         id="path987"
         fill="#63a4bf"
         d="M189.874,255.154A11.847,11.847,0,0,0,179.8,243.461a1.785,1.785,0,0,0-3.531,0,11.822,11.822,0,0,0-6.55,20.111,1.513,1.513,0,1,0,.667-.749,10.821,10.821,0,0,1,6.012-18.371,1.787,1.787,0,0,0,3.274,0,10.821,10.821,0,0,1,6.016,18.366,1.5,1.5,0,1,0,.668.748A11.735,11.735,0,0,0,189.874,255.154Zm-11.838-10.382a1.043,1.043,0,1,1,1.042-1.043A1.043,1.043,0,0,1,178.036,244.772Z" />
      <path
         id="path989"
         fill="#63a4bf"
         d="M230.845,240.263h2.5v.96h-2.5Z" />
      <path
         id="path991"
         fill="#63a4bf"
         d="M244.916,241.253H243.56v1.35H242.6v-1.35H241.19v-.959H242.6v-1.411h.959v1.411h1.356Z" />
      <path
         id="path993"
         fill="#63a4bf"
         d="M249.382,255.154a11.847,11.847,0,0,0-10.073-11.693,1.785,1.785,0,0,0-3.531,0,11.822,11.822,0,0,0-6.55,20.111,1.513,1.513,0,1,0,.667-.749,10.821,10.821,0,0,1,6.011-18.371,1.788,1.788,0,0,0,3.275,0,10.821,10.821,0,0,1,6.016,18.366,1.5,1.5,0,1,0,.667.748A11.732,11.732,0,0,0,249.382,255.154Zm-11.839-10.382a1.043,1.043,0,1,1,1.043-1.043A1.043,1.043,0,0,1,237.543,244.772Z" />
      <circle
         id="circle995"
         stroke-miterlimit="10"
         stroke="#63a4bf"
         fill="none"
         r="13.636"
         cy="284.56"
         cx="42.009" />
      <circle
         id="circle997"
         stroke-miterlimit="10"
         stroke="#63a4bf"
         fill="none"
         r="13.636"
         cy="284.56"
         cx="104.352" />
      <circle
         id="circle999"
         stroke-miterlimit="10"
         stroke="#63a4bf"
         fill="none"
         r="13.636"
         cy="66.38"
         cx="265.323" />
      <circle
         id="circle1001"
         stroke-miterlimit="10"
         stroke="#63a4bf"
         fill="none"
         r="13.636"
         cy="284.56"
         cx="183.705" />
      <circle
         id="circle1003"
         stroke-miterlimit="10"
         stroke="#63a4bf"
         fill="none"
         r="13.636"
         cy="284.56"
         cx="246.047" />
      <circle
         id="circle1005"
         stroke-miterlimit="10"
         stroke="#63a4bf"
         fill="none"
         r="13.636"
         cy="66.38"
         cx="22.677" />
      <path
         id="path1007"
         fill="#63a4bf"
         d="M47.558,52.845h2.5V53.8h-2.5Z" />
      <path
         id="path1009"
         fill="#63a4bf"
         d="M61.629,53.834H60.273v1.35h-.959v-1.35H57.9v-.959h1.411v-1.41h.959v1.41h1.356Z" />
      <path
         id="path1011"
         fill="#63a4bf"
         d="M66.1,67.735A11.847,11.847,0,0,0,56.022,56.042a1.785,1.785,0,0,0-3.531,0,11.821,11.821,0,0,0-6.55,20.11,1.513,1.513,0,1,0,.667-.749,10.821,10.821,0,0,1,6.011-18.371,1.788,1.788,0,0,0,3.275,0A10.821,10.821,0,0,1,61.91,75.4a1.5,1.5,0,1,0,.667.748A11.728,11.728,0,0,0,66.1,67.735ZM54.256,57.353A1.043,1.043,0,1,1,55.3,56.31,1.043,1.043,0,0,1,54.256,57.353Z" />
    </g>
    <path
       id="path1014"
       fill="#333"
       d="M86.741,5.631A9.75,9.75,0,0,1,91.381,7.6a6.586,6.586,0,0,1,2.259,5.167,8.848,8.848,0,0,1-2.15,6.323,5.866,5.866,0,0,1-.828.725l7.576,7.547H89.649l-8.328-8.293V27.3H79.158V7.533A16.05,16.05,0,0,0,77.01,7.6V27.3H74.853V5.686l.911-.144a23.883,23.883,0,0,1,5.146-.048,18.094,18.094,0,0,1,2.115-.158A19.357,19.357,0,0,1,86.741,5.631Zm-5.42,13.208,1.786-.356a4.549,4.549,0,0,0,1.827-.965,5.655,5.655,0,0,0,1.93-4.749,4.182,4.182,0,0,0-1.5-3.511,7.8,7.8,0,0,0-3.62-1.506c-.143-.025-.284-.042-.424-.054Zm7.693-6.07a8.063,8.063,0,0,1-2.69,6.412,6.911,6.911,0,0,1-1.1.739l5.317,5.288h2.5l-6.289-6.253L88.6,18.5a2.934,2.934,0,0,0,1.335-.89c.734-.765,1.545-2.14,1.545-4.838a4.181,4.181,0,0,0-1.491-3.511,7.183,7.183,0,0,0-2.895-1.3A6.593,6.593,0,0,1,89.014,12.769Z" />
    <path
       id="path1016"
       fill="#333"
       d="M127.648,27.318h-8.9l-4.558-8.776-3.893,8.785h-2.532l6.425-13.164,5.872,10.965h3.7L114.187,7.764,104.066,27.327h-2.532L114.187,3.384Z" />
    <path
       id="path1018"
       fill="#333"
       d="M144.253,9.547h3.039v2.19h-5.106V10.643a3.094,3.094,0,0,0-3.1-3.025,3.007,3.007,0,0,0-3.018,3.025A3.31,3.31,0,0,0,139.086,14h1.786A7.007,7.007,0,0,1,147.818,21a6.765,6.765,0,0,1-6.967,6.659h-.006a6.815,6.815,0,0,1-6.851-5.557l-2.737.013-.014-2.19,4.264-.027a5.195,5.195,0,0,1-1.362-7.289,7.377,7.377,0,0,1-.267-1.963,5.23,5.23,0,0,1,5.208-5.215A5.3,5.3,0,0,1,144.253,9.547ZM135.4,15.59a3.015,3.015,0,0,0,3.019,3.035h1.793a6.98,6.98,0,0,1,5.413,2.632c0-.086.007-.173.007-.26a4.78,4.78,0,0,0-4.778-4.8h-1.793a5.209,5.209,0,0,1-3.538-1.451A3.907,3.907,0,0,0,135.4,15.59ZM136.068,21a4.473,4.473,0,0,0,4.783,4.469,4.853,4.853,0,0,0,3.779-1.622,4.794,4.794,0,0,0-4.449-3.029h-1.765a5.161,5.161,0,0,1-2.348-.585Z" />
    <path
       id="path1020"
       fill="#333"
       d="M168.4,6.858l1.253.712-3.394,3.388a6.36,6.36,0,0,1,1.84,1.683l3.354-3.347.739,1.143a10.944,10.944,0,0,1-15.139,15.131l-1.142-.739,3.353-3.353a6.379,6.379,0,0,1-1.683-1.834l-3.4,3.387-.712-1.252A10.945,10.945,0,0,1,168.4,6.858Zm-14.166,9.519a8.679,8.679,0,0,0,.541,2.971l1.971-1.978a6.256,6.256,0,0,1-.082-.993,6.347,6.347,0,0,1,6.33-6.33,8.633,8.633,0,0,1,1,.082l1.971-1.978a8.727,8.727,0,0,0-11.73,8.226Zm4.619,0a4.134,4.134,0,0,0,1.979,3.532l5.693-5.687a4.138,4.138,0,0,0-7.672,2.155Zm.61,8a8.738,8.738,0,0,0,11.538-11.531Z" />
    <path
       id="path1022"
       fill="#333"
       d="M185.378,5.733V27.327h-2.156V7.889h-2.156V27.327H178.91V5.733Z" />
    <path
       id="path1024"
       fill="#333"
       d="M202.733,5.631a9.75,9.75,0,0,1,4.64,1.971,6.586,6.586,0,0,1,2.259,5.167,8.843,8.843,0,0,1-2.15,6.323,5.811,5.811,0,0,1-.828.725l7.576,7.547h-8.589l-8.328-8.293V27.3H195.15V7.533A16.05,16.05,0,0,0,193,7.6V27.3h-2.156V5.686l.91-.144a23.883,23.883,0,0,1,5.146-.048,18.094,18.094,0,0,1,2.115-.158A19.357,19.357,0,0,1,202.733,5.631Zm-5.42,13.208,1.786-.356a4.556,4.556,0,0,0,1.828-.965,5.658,5.658,0,0,0,1.929-4.749,4.182,4.182,0,0,0-1.5-3.511,7.8,7.8,0,0,0-3.62-1.506c-.142-.025-.284-.042-.424-.054Zm7.693-6.07a8.059,8.059,0,0,1-2.69,6.412,6.911,6.911,0,0,1-1.1.739l5.317,5.288h2.5l-6.289-6.253,1.848-.458a2.934,2.934,0,0,0,1.335-.89c.734-.765,1.546-2.14,1.546-4.838a4.179,4.179,0,0,0-1.492-3.511,7.183,7.183,0,0,0-2.9-1.3A6.593,6.593,0,0,1,205.006,12.769Z" />
  </g>
</svg>
