<svg xmlns="http://www.w3.org/2000/svg" width="20.32mm" height="128.5mm" viewBox="0 0 57.6 364.25197">
  <title>master9</title>
  <g id="97e29bb3-9fe0-49e5-bc1a-55b0adde232b" data-name="Sigma">
    <rect id="7ceee1ec-9968-4a0e-9d55-00c198f01306" data-name="BG" width="57.6" height="364.30942" style="fill: #2a2d30"/>
    <g id="6a2946d0-4a1b-4b02-9637-f3b116bc42ae" data-name="Legend">
      <g id="642777b3-7bcc-4b4d-a5a5-ce6a63b43770" data-name="Logo">
        <polygon points="25.269 345.733 22.915 345.733 22.915 348.087 22.915 350.442 22.915 352.796 22.915 355.15 25.269 355.15 25.269 352.796 25.269 350.442 27.623 350.442 27.623 348.087 29.977 348.087 29.977 345.733 27.623 345.733 25.269 345.733" style="fill: #d7d7d7"/>
        <polygon points="27.623 355.15 29.977 355.15 32.331 355.15 34.685 355.15 34.685 352.796 34.685 350.442 34.685 348.087 34.685 345.733 32.331 345.733 32.331 348.087 32.331 350.442 29.977 350.442 29.977 352.796 27.623 352.796 27.623 355.15" style="fill: #d7d7d7"/>
        <polygon points="37.039 342.157 20.561 342.157 20.561 343.425 37.039 343.425 37.039 357.477 20.561 357.477 20.561 342.157 19.383 342.157 19.383 358.655 20.561 358.655 38.217 358.655 38.217 357.477 38.217 342.157 37.039 342.157" style="fill: #d7d7d7"/>
      </g>
      <circle cx="28.8" cy="186.79176" r="13.63575" style="fill: none;stroke: #fcdc3e;stroke-miterlimit: 10"/>
    </g>
    <g id="e49107f9-516e-4706-8bbe-0b625382c9fb" data-name="Sigma">
      <path d="M39.64507,6.812a2.97917,2.97917,0,0,1-.04248.54c-.02832.15186-.062.32227-.0996.51123l-.59668,3.06885a5.54013,5.54013,0,0,1-.17041.65332.54681.54681,0,0,1-.51172.36963q-.42627,0-.79541-1.165-.22779-.76684-.42627-1.563-.42627-1.136-.54-1.33545a2.07424,2.07424,0,0,0-1.93213-.76709h-6.5918l4.688,8.15479q.36914.654.398.68213a1.67033,1.67033,0,0,1,.19922.73877,1.175,1.175,0,0,1-.313.76709,4.4385,4.4385,0,0,1-.65332.56835L23.50591,24.145h7.7002a3.019,3.019,0,0,0,2.48633-1.26465q.98-1.26415,1.37793-1.26465.4541,0,.45459.398a1.67094,1.67094,0,0,1-.0708.46875q-.07178.2417-.12793.49756l-.68213,2.61377a2.949,2.949,0,0,1-.3125.99463,1.29069,1.29069,0,0,1-1.023.3125h-13.582a1.56393,1.56393,0,0,1-.78125-.16992.65374.65374,0,0,1-.29834-.62354,1.01588,1.01588,0,0,1,.29834-.69433,4.433,4.433,0,0,1,.80957-.666l10.769-7.56592L25.2105,8.16992q-.19921-.33984-.3833-.709a1.44807,1.44807,0,0,1-.18505-.62305.89227.89227,0,0,1,.38378-.7793,1.5212,1.5212,0,0,1,.895-.26953H38.05377a3.22467,3.22467,0,0,1,1.08007.11377A.89444.89444,0,0,1,39.64507,6.812Z" style="fill: #d7d7d7"/>
    </g>
    <g id="26362fbc-f2c8-43ba-a88a-5050855eaf54" data-name="Text">
      <g>
        <path d="M42.941,119.4834h1.90869l.33985-2.019h1.13965l-.3501,2.019H47.898l-.17968,1.06933h-1.9292l-.34961,2.01905-1.10938-.01026L44.67,120.543H42.7608Z" style="fill: #d7d7d7"/>
        <path d="M51.89947,119.21338a2.93621,2.93621,0,0,0,1.03906-1.54932.933.933,0,0,0-.95947-1.09912c-.83936-.02-1.33887.71973-1.499,1.53906H49.32086a2.84539,2.84539,0,0,1,2.77832-2.59863,1.89233,1.89233,0,0,1,2.03906,2.09912,3.36716,3.36716,0,0,1-1.21973,1.96875L50.69976,121.522h2.92871l-.16992,1.09961H48.251Z" style="fill: #d7d7d7"/>
      </g>
      <g>
        <path d="M44.20172,153.02344h1.90869l.33984-2.019H47.5899l-.3501,2.019h1.91895l-.17969,1.06933h-1.9292l-.34961,2.019-1.10937-.01026.33984-2.01855H44.02154Z" style="fill: #d7d7d7"/>
        <path d="M51.06109,149.67529l2.83838-.62988-1.23926,7.11621H51.52105l.98926-5.79687-1.65918.43994Z" style="fill: #d7d7d7"/>
      </g>
      <g>
        <path d="M42.692,52.40234h1.90869l.33985-2.019h1.13964l-.35009,2.019H47.649l-.17969,1.06934h-1.9292l-.3496,2.019-1.10938-.01025.33984-2.01856H42.51177Z" style="fill: #d7d7d7"/>
        <path d="M52.8897,48.5542l.7295-.00977-.78955,4.63721H53.899l-.16992,1.01953H52.65972l-.23,1.33936H51.23052l.23-1.33936-3.34814-.00976ZM51.69,53.26172l.43994-2.53858-2.13867,2.53858Z" style="fill: #d7d7d7"/>
      </g>
      <g>
        <path d="M43.21148,85.94287h1.90869l.33985-2.019h1.13964l-.35009,2.019h1.91894l-.17969,1.06934H46.05963l-.34961,2.019L44.60064,89.021l.33985-2.01856H43.03131Z" style="fill: #d7d7d7"/>
        <path d="M49.17144,87.082h1.15918a.95415.95415,0,0,0,1.01953,1.09961A1.31471,1.31471,0,0,0,52.69927,87.082c.14014-.78955-.51953-1.12939-1.3291-1.16943l.04-.26953.08008-.61963a1.48574,1.48574,0,0,0,1.499-1.09961.73534.73534,0,0,0-.73974-.93945,1.24514,1.24514,0,0,0-1.19922.95947l-1.09912-.00977a2.36031,2.36031,0,0,1,2.37842-1.959,1.6838,1.6838,0,0,1,1.83886,1.88867,2.0291,2.0291,0,0,1-1.519,1.56934,1.54027,1.54027,0,0,1,1.19922,1.78906,2.47556,2.47556,0,0,1-2.61817,1.979A1.89632,1.89632,0,0,1,49.17144,87.082Z" style="fill: #d7d7d7"/>
      </g>
      <g>
        <path d="M6.27545,287.46484h2.019l-.18018.96875H6.11578Z" style="fill: #d7d7d7"/>
        <path d="M8.74517,288.32422H9.90435a.95434.95434,0,0,0,1.01953,1.09961,1.31513,1.31513,0,0,0,1.34912-1.09961c.14014-.79-.51953-1.12988-1.3291-1.16992l.04-.26953.08008-.61915a1.48674,1.48674,0,0,0,1.499-1.0996.73519.73519,0,0,0-.73974-.93946,1.24472,1.24472,0,0,0-1.19922.959L9.525,285.17578a2.36075,2.36075,0,0,1,2.37842-1.959,1.68379,1.68379,0,0,1,1.83886,1.88867,2.0284,2.0284,0,0,1-1.519,1.56933,1.54054,1.54054,0,0,1,1.19922,1.78907,2.47593,2.47593,0,0,1-2.61817,1.97949A1.89632,1.89632,0,0,1,8.74517,288.32422Z" style="fill: #d7d7d7"/>
      </g>
      <g>
        <path d="M5.75494,321.00391H7.774l-.18017.96972H5.59527Z" style="fill: #d7d7d7"/>
        <path d="M12.46246,316.876l.72949-.00977-.78955,4.6377h1.06934l-.16993,1.01953H12.23248l-.23,1.33886H10.80328l.23-1.33886-3.34815-.00977Zm-1.19971,4.708.43994-2.53906L9.564,321.584Z" style="fill: #d7d7d7"/>
      </g>
      <g>
        <path d="M7.26568,220.38379h2.019l-.18017.96875H7.106Z" style="fill: #d7d7d7"/>
        <path d="M10.63482,216.75586l2.83838-.62988-1.23926,7.11621H11.09478l.98926-5.79688-1.65918.43946Z" style="fill: #d7d7d7"/>
      </g>
      <g>
        <path d="M6.00543,253.92383h2.019l-.18018.96875H5.84576Z" style="fill: #d7d7d7"/>
        <path d="M11.47369,253.374a2.93549,2.93549,0,0,0,1.03906-1.5498.93281.93281,0,0,0-.95947-1.09863c-.83936-.02051-1.33887.71972-1.499,1.53906H8.89507A2.8454,2.8454,0,0,1,11.6734,249.666a1.89218,1.89218,0,0,1,2.03906,2.09863,3.36716,3.36716,0,0,1-1.21973,1.96875L10.274,255.68262h2.92871l-.16992,1.09961H7.82525Z" style="fill: #d7d7d7"/>
      </g>
    </g>
  </g>
</svg>
