<?xml version="1.0" encoding="UTF-8" standalone="no"?>
<svg
   xmlns:dc="http://purl.org/dc/elements/1.1/"
   xmlns:cc="http://creativecommons.org/ns#"
   xmlns:rdf="http://www.w3.org/1999/02/22-rdf-syntax-ns#"
   xmlns:svg="http://www.w3.org/2000/svg"
   xmlns="http://www.w3.org/2000/svg"
   xmlns:sodipodi="http://sodipodi.sourceforge.net/DTD/sodipodi-0.dtd"
   xmlns:inkscape="http://www.inkscape.org/namespaces/inkscape"
   width="20.32mm"
   height="128.5mm"
   viewBox="0 0 57.6 364.252"
   version="1.1"
   id="svg54"
   sodipodi:docname="Sigma.svg"
   inkscape:version="1.0 (6e3e5246a0, 2020-05-07)">
  <metadata
     id="metadata60">
    <rdf:RDF>
      <cc:Work
         rdf:about="">
        <dc:format>image/svg+xml</dc:format>
        <dc:type
           rdf:resource="http://purl.org/dc/dcmitype/StillImage" />
      </cc:Work>
    </rdf:RDF>
  </metadata>
  <defs
     id="defs58" />
  <sodipodi:namedview
     inkscape:document-rotation="0"
     pagecolor="#ffffff"
     bordercolor="#666666"
     borderopacity="1"
     objecttolerance="10"
     gridtolerance="10"
     guidetolerance="10"
     inkscape:pageopacity="0"
     inkscape:pageshadow="2"
     inkscape:window-width="2738"
     inkscape:window-height="1450"
     id="namedview56"
     showgrid="false"
     inkscape:zoom="1.8531128"
     inkscape:cx="329.30816"
     inkscape:cy="268.93916"
     inkscape:window-x="0"
     inkscape:window-y="27"
     inkscape:window-maximized="0"
     inkscape:current-layer="svg54" />
  <title
     id="title2">Aspect</title>
  <rect
     y="0"
     x="0"
     fill="#333333"
     height="364.30899"
     width="57.599998"
     data-name="BG"
     id="15f39aa3-53ff-4edf-88ad-83ad9904a4d0" />
  <g
     data-name="Legend"
     id="722faa51-8e6d-4a7f-912d-2c61ea8e7bd2">
    <circle
       id="circle5"
       stroke-miterlimit="10"
       stroke="#fcdc3e"
       fill="none"
       r="13.636"
       cy="186.79201"
       cx="28.799999" />
    <g
       data-name="Logo"
       id="86376bed-3148-4e44-80e1-faaad1127e2c">
      <polygon
         id="polygon7"
         fill="#d7d7d7"
         points="22.915,348.087 22.915,350.442 22.915,352.796 22.915,355.15 25.269,355.15 25.269,352.796 25.269,350.442 27.623,350.442 27.623,348.087 29.977,348.087 29.977,345.733 27.623,345.733 25.269,345.733 22.915,345.733 " />
      <polygon
         id="polygon9"
         fill="#d7d7d7"
         points="32.331,355.15 34.685,355.15 34.685,352.796 34.685,350.442 34.685,348.087 34.685,345.733 32.331,345.733 32.331,348.087 32.331,350.442 29.977,350.442 29.977,352.796 27.623,352.796 27.623,355.15 29.977,355.15 " />
      <polygon
         id="polygon11"
         fill="#d7d7d7"
         points="20.561,343.425 37.039,343.425 37.039,357.477 20.561,357.477 20.561,342.157 19.383,342.157 19.383,358.655 20.561,358.655 38.217,358.655 38.217,357.477 38.217,342.157 37.039,342.157 20.561,342.157 " />
    </g>
    <rect
       y="0"
       x="0"
       id="rect14"
       fill="#fcdc3e"
       height="31.181"
       width="57.599998" />
  </g>
  <g
     data-name="Sigma"
     id="6ec3887b-6e85-433e-bff3-25a872df0c71">
    <path
       id="path17"
       fill="#333333"
       d="m 40.584,4.137 a 3.484,3.484 0 0 1 -0.051,0.64 q -0.05,0.27 -0.117,0.606 l -0.707,3.636 a 6.749,6.749 0 0 1 -0.2,0.774 0.648,0.648 0 0 1 -0.606,0.437 Q 38.397,10.23 37.96,8.851 37.69,7.942 37.46,6.999 36.954,5.654 36.821,5.417 a 2.459,2.459 0 0 0 -2.29,-0.91 h -7.818 l 5.556,9.662 q 0.437,0.775 0.471,0.809 a 1.971,1.971 0 0 1 0.236,0.875 1.4,1.4 0 0 1 -0.371,0.909 5.249,5.249 0 0 1 -0.774,0.673 l -10.369,7.238 h 9.123 a 3.577,3.577 0 0 0 2.946,-1.5 q 1.161,-1.5 1.633,-1.5 0.538,0 0.538,0.471 A 1.965,1.965 0 0 1 35.618,22.7 c -0.056,0.191 -0.107,0.387 -0.151,0.589 l -0.808,3.1 a 3.532,3.532 0 0 1 -0.37,1.179 1.531,1.531 0 0 1 -1.212,0.37 H 16.984 a 1.846,1.846 0 0 1 -0.925,-0.2 0.773,0.773 0 0 1 -0.354,-0.738 1.2,1.2 0 0 1 0.354,-0.823 5.222,5.222 0 0 1 0.959,-0.789 l 12.759,-8.965 -6.3,-10.676 q -0.237,-0.4 -0.455,-0.84 a 1.719,1.719 0 0 1 -0.218,-0.739 1.056,1.056 0 0 1 0.454,-0.922 1.8,1.8 0 0 1 1.06,-0.32 H 38.7 a 3.806,3.806 0 0 1 1.279,0.135 1.06,1.06 0 0 1 0.605,1.076 z" />
  </g>
  <path
     id="path20-2"
     fill="#d7d7d7"
     d="m 5.3627181,286.3926 h 2.019 l -0.18,0.969 h -2 z" />
  <path
     id="path22-6"
     fill="#d7d7d7"
     d="m 51.643777,119.213 a 2.938,2.938 0 0 0 1.039,-1.549 0.933,0.933 0 0 0 -0.96,-1.1 c -0.839,-0.02 -1.339,0.72 -1.5,1.539 h -1.153 a 2.846,2.846 0 0 1 2.778,-2.6 1.892,1.892 0 0 1 2.039,2.1 3.365,3.365 0 0 1 -1.219,1.969 l -2.219,1.949 h 2.921 l -0.17,1.1 h -5.205 z" />
  <path
     id="path24-1"
     fill="#d7d7d7"
     d="m 5.9485784,318.95129 h 2.019 l -0.18,0.969 h -2 z" />
  <path
     id="path26-8"
     fill="#d7d7d7"
     d="m 49.56,149.675 2.839,-0.63 -1.24,7.117 h -1.134 l 0.99,-5.8 -1.66,0.44 z" />
  <path
     id="path28-7"
     fill="#d7d7d7"
     d="m 6.7647836,219.3116 h 2.019 l -0.18,0.969 h -2 z" />
  <path
     id="path30-9"
     fill="#d7d7d7"
     d="m 52.889,48.554 0.73,-0.01 -0.79,4.638 h 1.07 L 53.726,54.2 h -1.07 l -0.23,1.341 h -1.2 l 0.23,-1.34 -3.348,-0.01 z m -1.2,4.708 0.44,-2.539 -2.138,2.539 z" />
  <path
     id="path32-2"
     fill="#d7d7d7"
     d="m 5.6327181,252.8526 h 2.019 l -0.18,0.969 h -2 z" />
  <path
     id="path34-0"
     fill="#d7d7d7"
     d="m 48.891416,87.082 h 1.155 a 0.955,0.955 0 0 0 1.02,1.1 1.315,1.315 0 0 0 1.349,-1.1 c 0.14,-0.79 -0.52,-1.129 -1.329,-1.169 l 0.04,-0.27 0.08,-0.62 a 1.486,1.486 0 0 0 1.5,-1.1 0.736,0.736 0 0 0 -0.74,-0.94 1.246,1.246 0 0 0 -1.2,0.96 l -1.1,-0.01 a 2.36,2.36 0 0 1 2.38,-1.958 1.684,1.684 0 0 1 1.839,1.889 2.028,2.028 0 0 1 -1.519,1.569 1.539,1.539 0 0 1 1.2,1.789 2.476,2.476 0 0 1 -2.62,1.978 1.9,1.9 0 0 1 -2.055,-2.118 z" />
  <path
     id="path36-2"
     fill="#d7d7d7"
     d="m 42.380868,119.35122 h 1.909 l 0.34,-2.019 h 1.139 l -0.35,2.019 h 1.919 l -0.18,1.069 h -1.929 l -0.349,2.019 -1.11,-0.01 0.34,-2.019 h -1.909 z" />
  <path
     id="path38-3"
     fill="#d7d7d7"
     d="m 8.4643944,288.324 h 1.159 a 0.955,0.955 0 0 0 1.0199996,1.1 1.316,1.316 0 0 0 1.349,-1.1 c 0.14,-0.79 -0.52,-1.13 -1.329,-1.17 l 0.04,-0.269 0.08,-0.619 a 1.488,1.488 0 0 0 1.5,-1.1 0.734,0.734 0 0 0 -0.74,-0.939 1.244,1.244 0 0 0 -1.2,0.959 l -1.0999996,-0.01 a 2.36,2.36 0 0 1 2.3779996,-1.959 1.683,1.683 0 0 1 1.839,1.888 2.028,2.028 0 0 1 -1.519,1.57 1.54,1.54 0 0 1 1.2,1.789 2.476,2.476 0 0 1 -2.618,1.979 1.9,1.9 0 0 1 -2.0589996,-2.119 z" />
  <path
     id="path40-7"
     fill="#d7d7d7"
     d="m 41.860868,152.89122 h 1.908 l 0.339,-2.02 h 1.14 l -0.35,2.02 h 1.919 l -0.18,1.069 h -1.928 l -0.35,2.018 -1.109,-0.009 0.34,-2.019 h -1.909 z" />
  <path
     id="path42-5"
     fill="#d7d7d7"
     d="m 12.464,316.876 0.729,-0.01 -0.789,4.634 h 1.07 l -0.17,1.019 h -1.07 l -0.23,1.339 h -1.2 l 0.23,-1.339 -3.349,-0.009 z m -1.2,4.708 0.44,-2.539 -2.139,2.539 z" />
  <path
     id="path44-9"
     fill="#d7d7d7"
     d="m 43.368868,52.26622 h 1.91 l 0.34,-2.019 h 1.14 l -0.35,2.019 h 1.919 l -0.18,1.069 h -1.929 l -0.35,2.019 -1.109,-0.01 0.34,-2.019 h -1.909 z" />
  <path
     id="path46-2"
     fill="#d7d7d7"
     d="m 10.636,216.756 2.838,-0.63 -1.239,7.116 h -1.139 l 0.989,-5.8 -1.659,0.44 z" />
  <path
     id="path48-2"
     fill="#d7d7d7"
     d="m 42.110868,85.81022 h 1.909 l 0.339,-2.019 h 1.14 l -0.35,2.019 h 1.92 l -0.18,1.069 h -1.93 l -0.35,2.019 -1.109,-0.01 0.34,-2.019 h -1.909 z" />
  <path
     id="path50-8"
     fill="#d7d7d7"
     d="m 11.222777,253.374 a 2.937,2.937 0 0 0 1.04,-1.55 0.932,0.932 0 0 0 -0.96,-1.1 c -0.839,-0.021 -1.3389996,0.719 -1.4999996,1.539 h -1.158 a 2.846,2.846 0 0 1 2.7779996,-2.6 1.892,1.892 0 0 1 2.039,2.1 3.362,3.362 0 0 1 -1.22,1.968 l -2.218,1.95 h 2.928 l -0.169,1.1 H 7.5747774 Z" />
</svg>
