<?xml version="1.0" encoding="UTF-8" standalone="no"?>
<svg
   xmlns:dc="http://purl.org/dc/elements/1.1/"
   xmlns:cc="http://creativecommons.org/ns#"
   xmlns:rdf="http://www.w3.org/1999/02/22-rdf-syntax-ns#"
   xmlns:svg="http://www.w3.org/2000/svg"
   xmlns="http://www.w3.org/2000/svg"
   xmlns:sodipodi="http://sodipodi.sourceforge.net/DTD/sodipodi-0.dtd"
   xmlns:inkscape="http://www.inkscape.org/namespaces/inkscape"
   inkscape:version="1.0 (4035a4f, 2020-05-01)"
   sodipodi:docname="Slip.svg"
   id="svg1090"
   version="1.1"
   viewBox="0 0 101.6 128.5"
   height="128.5mm"
   width="101.6mm">
  <metadata
     id="metadata1096">
    <rdf:RDF>
      <cc:Work
         rdf:about="">
        <dc:format>image/svg+xml</dc:format>
        <dc:type
           rdf:resource="http://purl.org/dc/dcmitype/StillImage" />
        <dc:title>Slip</dc:title>
      </cc:Work>
    </rdf:RDF>
  </metadata>
  <defs
     id="defs1094" />
  <sodipodi:namedview
     inkscape:current-layer="layer1"
     inkscape:window-maximized="1"
     inkscape:window-y="22"
     inkscape:window-x="0"
     inkscape:cy="248.73645"
     inkscape:cx="173.23969"
     inkscape:zoom="1.3477632"
     inkscape:document-units="mm"
     showgrid="false"
     id="namedview1092"
     inkscape:window-height="1152"
     inkscape:window-width="1920"
     inkscape:pageshadow="2"
     inkscape:pageopacity="0"
     guidetolerance="10"
     gridtolerance="10"
     objecttolerance="10"
     borderopacity="1"
     bordercolor="#666666"
     pagecolor="#ffffff" />
  <title
     id="title833">Slip</title>
  <g
     sodipodi:insensitive="true"
     style="display:inline"
     inkscape:label="Layer1"
     id="layer2"
     inkscape:groupmode="layer">
    <rect
       style="stroke-width:0.352778"
       id="badf77a0-7770-41d0-a270-7303f2a036c3"
       data-name="BG"
       width="101.6"
       height="128.50002"
       fill="#333333"
       x="0"
       y="0" />
    <rect
       style="stroke-width:0.352778"
       id="46d11c48-4826-4138-981a-2a66c2b25bc1"
       data-name="Header"
       width="101.6"
       height="10.999964"
       fill="#63a4bf"
       x="0"
       y="0" />
    <g
       transform="scale(0.35277777)"
       id="ab18eba1-6ffd-4d32-ba60-8db046b47428"
       data-name="Logo">
      <polygon
         points="140.469,345.662 138.115,345.662 138.115,348.016 138.115,350.37 138.115,352.724 138.115,355.078 140.469,355.078 140.469,352.724 140.469,350.37 142.823,350.37 142.823,348.016 145.177,348.016 145.177,345.662 142.823,345.662 "
         fill="#d7d7d7"
         id="polygon837" />
      <polygon
         points="142.823,355.078 145.177,355.078 147.531,355.078 149.885,355.078 149.885,352.724 149.885,350.37 149.885,348.016 149.885,345.662 147.531,345.662 147.531,348.016 147.531,350.37 145.177,350.37 145.177,352.724 142.823,352.724 "
         fill="#d7d7d7"
         id="polygon839" />
      <polygon
         points="135.761,342.085 135.761,343.353 152.239,343.353 152.239,357.406 135.761,357.406 135.761,342.085 134.583,342.085 134.583,358.583 135.761,358.583 153.417,358.583 153.417,357.406 153.417,342.085 152.239,342.085 "
         fill="#d7d7d7"
         id="polygon841" />
    </g>
    <path
       style="stroke-width:0.352778"
       d="m 39.14387,2.0665722 a 1.0417528,1.0417528 0 0 1 0.405341,0.777875 V 3.9832139 H 38.03897 v -0.75565 l -0.743656,-0.7549444 -4.497564,0.011289 -0.755297,0.7436556 0.01094,0.75565 0.721431,0.7323667 h 4.891969 a 1.0188222,1.0188222 0 0 1 0.776107,0.406047 c 0.135467,0.1351139 0.575028,0.5520972 0.699206,0.6875639 a 1.0823222,1.0823222 0 0 1 0.405341,0.7888111 V 8.1085973 A 1.0258778,1.0258778 0 0 1 39.142106,8.8977612 L 38.4429,9.5849723 A 1.0544528,1.0544528 0 0 1 37.666789,9.9910195 H 32.414281 A 1.0188222,1.0188222 0 0 1 31.63817,9.5849723 L 30.950253,8.8977612 A 1.0530417,1.0530417 0 0 1 30.53327,8.1085973 v -1.127125 h 1.510594 v 0.7552972 l 0.743656,0.7549444 h 4.509205 L 38.040381,7.7367695 V 6.9701834 L 37.296725,6.226175 H 32.428392 A 1.0452806,1.0452806 0 0 1 31.639581,5.8204806 L 30.951664,5.1325639 A 1.0195278,1.0195278 0 0 1 30.54597,4.3564528 V 2.8575 A 1.0466917,1.0466917 0 0 1 30.951664,2.0683361 L 31.639581,1.381125 a 1.044575,1.044575 0 0 1 0.788811,-0.40604722 h 5.241219 a 1.0459861,1.0459861 0 0 1 0.786695,0.40428332 z"
       fill="#333333"
       id="path844" />
    <path
       style="stroke-width:0.352778"
       d="m 41.037934,0.9733139 h 1.510594 v 6.7634556 l 0.744008,0.7549444 h 5.263798 V 7.7367695 h 1.499305 v 2.25425 H 42.920356 A 1.0188222,1.0188222 0 0 1 42.144245,9.5849723 L 41.456681,8.8977612 A 1.0519833,1.0519833 0 0 1 41.039345,8.1085973 Z"
       fill="#333333"
       id="path846" />
    <path
       style="stroke-width:0.352778"
       d="m 60.561361,2.4726195 h -3.753555 v 6.0190944 h 3.753555 V 9.9910195 H 51.543656 V 8.4917139 h 3.753908 V 2.4726195 H 51.543656 V 0.9733139 h 9.017705 z"
       fill="#333333"
       id="path848" />
    <path
       style="stroke-width:0.352778"
       d="m 70.661389,2.0665722 a 1.0209389,1.0209389 0 0 1 0.405342,0.777875 V 4.7272223 A 1.0459861,1.0459861 0 0 1 70.661389,5.5163861 L 69.962184,6.2152389 A 1.0198806,1.0198806 0 0 1 69.186073,6.6209334 H 63.560678 V 9.9913723 H 62.050084 V 0.9733139 h 7.13493 a 1.0188222,1.0188222 0 0 1 0.776111,0.4060472 z m -1.1049,2.2884695 V 3.2261528 L 68.812481,2.4824972 h -5.251803 v 2.6264306 h 5.252509 z"
       fill="#333333"
       id="path850" />
    <g
       transform="scale(0.35277777)"
       id="daf96990-11ce-4c2f-8802-bd92358bf85e"
       data-name="Text">
      <path
         d="m 22.244,40.42 h 5.237 l -0.209,1.2 H 25.3 l -1.112,6.5 h -1.3 l 1.122,-6.5 h -1.98 z"
         fill="#d9d8d6"
         id="path852" />
      <path
         d="M 29.967,43.919 A 1.344,1.344 0 0 0 28.669,45 l -0.539,3.125 h -1.189 l 1.475,-8.581 H 29.6 l -0.725,4.224 a 1.878,1.878 0 0 1 1.562,-0.836 c 1.144,0 1.551,0.847 1.408,1.947 l -0.561,3.246 H 30.11 l 0.55,-3.081 c 0.065,-0.597 -0.055,-1.103 -0.693,-1.125 z"
         fill="#d9d8d6"
         id="path854" />
      <path
         d="m 35.433,44.062 c -0.539,-0.011 -0.869,0.44 -1.012,0.957 l -0.539,3.1 h -1.166 l 0.88,-5.061 h 1.166 l -0.1,0.572 a 1.642,1.642 0 0 1 1.2,-0.682 1.216,1.216 0 0 1 0.88,0.4 l -0.7,0.99 a 0.91,0.91 0 0 0 -0.609,-0.276 z"
         fill="#d9d8d6"
         id="path856" />
      <path
         d="m 36.6,45.921 a 2.944,2.944 0 0 1 2.971,-2.97 2,2 0 0 1 2.179,2.222 2.483,2.483 0 0 1 -0.121,0.693 h -3.84 c -0.022,0.814 0.374,1.386 1.188,1.386 a 1.774,1.774 0 0 0 1.474,-0.8 l 0.99,0.407 A 2.906,2.906 0 0 1 38.878,48.234 2.135,2.135 0 0 1 36.6,45.921 Z m 1.332,-0.88 h 2.6 v -0.022 c 0,-0.726 -0.351,-1.166 -1.055,-1.166 a 1.627,1.627 0 0 0 -1.547,1.188 z"
         fill="#d9d8d6"
         id="path858" />
      <path
         d="M 44.3,47.308 A 0.638,0.638 0 0 0 45,46.713 c 0.011,-0.44 -0.485,-0.671 -0.969,-0.858 -0.616,-0.242 -1.265,-0.6 -1.243,-1.463 a 1.591,1.591 0 0 1 1.782,-1.441 2.352,2.352 0 0 1 1.859,0.891 l -0.66,0.693 a 1.674,1.674 0 0 0 -1.21,-0.682 c -0.4,0 -0.66,0.2 -0.66,0.484 -0.022,0.4 0.418,0.561 0.924,0.77 0.748,0.319 1.364,0.66 1.343,1.54 a 1.713,1.713 0 0 1 -1.86,1.628 2.744,2.744 0 0 1 -2.206,-1.122 l 0.749,-0.682 a 1.942,1.942 0 0 0 1.451,0.837 z"
         fill="#d9d8d6"
         id="path860" />
      <path
         d="M 49.8,43.919 A 1.344,1.344 0 0 0 48.5,45 l -0.539,3.125 h -1.188 l 1.475,-8.581 h 1.187 l -0.725,4.224 a 1.878,1.878 0 0 1 1.562,-0.836 c 1.144,0 1.551,0.847 1.409,1.947 l -0.562,3.246 h -1.177 l 0.55,-3.081 C 50.557,44.447 50.437,43.941 49.8,43.919 Z"
         fill="#d9d8d6"
         id="path862" />
      <path
         d="m 55.718,42.951 a 2.232,2.232 0 0 1 2.288,2.64 3.072,3.072 0 0 1 -3.036,2.64 2.236,2.236 0 0 1 -2.289,-2.64 3.07,3.07 0 0 1 3.037,-2.64 z m -0.661,4.224 a 1.833,1.833 0 0 0 1.743,-1.584 1.256,1.256 0 0 0 -1.178,-1.584 1.832,1.832 0 0 0 -1.738,1.584 1.255,1.255 0 0 0 1.173,1.584 z"
         fill="#d9d8d6"
         id="path864" />
      <path
         d="m 61.217,39.541 -1.485,8.581 h -1.155 l 1.452,-8.581 z"
         fill="#d9d8d6"
         id="path866" />
      <path
         d="M 64.056,42.951 A 1.582,1.582 0 0 1 65.585,44 l 0.759,-4.455 h 1.188 l -1.475,8.581 h -1.176 l 0.132,-0.782 a 2.229,2.229 0 0 1 -1.772,0.891 2.113,2.113 0 0 1 -2,-2.64 2.954,2.954 0 0 1 2.815,-2.644 z M 63.615,47.2 a 1.862,1.862 0 0 0 1.694,-1.606 C 65.42,44.747 65.002,44.01 64.231,43.988 a 1.864,1.864 0 0 0 -1.782,1.606 c -0.132,0.855 0.308,1.606 1.166,1.606 z"
         fill="#d9d8d6"
         id="path868" />
      <path
         d="m 142.779,40.42 -1.342,7.7 h -1.276 l 1.3,-7.7 z"
         fill="#d9d8d6"
         id="path870" />
      <path
         d="m 145.991,43.919 a 1.284,1.284 0 0 0 -1.287,1.089 l -0.539,3.114 h -1.189 l 0.88,-5.061 h 1.178 l -0.121,0.748 a 1.833,1.833 0 0 1 1.562,-0.858 c 1.155,0 1.584,0.88 1.43,1.958 l -0.55,3.213 h -1.21 l 0.55,-3.081 c 0.077,-0.594 -0.044,-1.122 -0.704,-1.122 z"
         fill="#d9d8d6"
         id="path872" />
      <path
         d="m 140.406,296.777 a 3.269,3.269 0 0 1 3.256,3.983 4.682,4.682 0 0 1 -4.531,4.015 3.3,3.3 0 0 1 -3.258,-4.015 4.682,4.682 0 0 1 4.533,-3.983 z m -1.144,6.711 a 3.178,3.178 0 0 0 3.037,-2.728 c 0.22,-1.408 -0.485,-2.718 -2.026,-2.729 a 3.175,3.175 0 0 0 -3.035,2.729 2.138,2.138 0 0 0 2.024,2.728 z"
         fill="#d9d8d6"
         id="path874" />
      <path
         d="m 146.324,303.752 a 1.283,1.283 0 0 0 1.3,-1.078 l 0.551,-3.124 h 1.177 l -0.869,5.06 h -1.189 l 0.121,-0.748 a 1.845,1.845 0 0 1 -1.563,0.858 c -1.142,0 -1.572,-0.891 -1.418,-1.958 l 0.549,-3.212 h 1.19 l -0.53,3.08 c -0.079,0.594 0.042,1.122 0.681,1.122 z"
         fill="#d9d8d6"
         id="path876" />
      <path
         d="m 150.922,299.55 0.3,-1.761 h 1.178 l -0.308,1.761 h 0.836 l -0.188,1.045 h -0.824 l -0.705,4.015 h -1.143 l 0.682,-4.015 h -0.815 l 0.188,-1.045 z"
         fill="#d9d8d6"
         id="path878" />
      <path
         d="m 67.238,296.909 -1.122,6.535 h 2.971 l -0.2,1.166 h -4.256 l 1.32,-7.7 z"
         fill="#d9d8d6"
         id="path880" />
      <path
         d="m 72.827,299.439 a 2.232,2.232 0 0 1 2.288,2.641 3.071,3.071 0 0 1 -3.036,2.64 2.237,2.237 0 0 1 -2.289,-2.64 3.072,3.072 0 0 1 3.037,-2.641 z m -0.66,4.225 a 1.833,1.833 0 0 0 1.738,-1.584 1.256,1.256 0 0 0 -1.178,-1.585 1.833,1.833 0 0 0 -1.738,1.585 1.255,1.255 0 0 0 1.178,1.584 z"
         fill="#d9d8d6"
         id="path882" />
      <path
         d="m 76.9,299.55 0.627,2.97 1.958,-3.377 0.836,3.4 1.662,-2.992 h 1.309 l -3.26,5.449 -0.935,-3.422 -2.08,3.422 -1.364,-5.445 z"
         fill="#d9d8d6"
         id="path884" />
      <path
         d="m 206.033,296.908 -0.506,2.971 h 3.719 l 0.506,-2.971 h 1.309 l -1.331,7.7 h -1.276 l 0.594,-3.542 h -3.73 l -0.6,3.542 h -1.277 l 1.3,-7.7 z"
         fill="#d9d8d6"
         id="path886" />
      <path
         d="m 213.4,299.549 -0.858,5.06 h -1.166 l 0.847,-5.06 z m -0.242,-2.729 a 0.716,0.716 0 1 1 -0.748,0.715 0.722,0.722 0 0 1 0.751,-0.715 z"
         fill="#d9d8d6"
         id="path888" />
      <path
         d="m 214.9,304.962 a 1.065,1.065 0 0 0 1.166,1.187 1.814,1.814 0 0 0 1.734,-1.649 l 0.121,-0.7 a 2.286,2.286 0 0 1 -1.772,0.857 2.081,2.081 0 0 1 -2,-2.6 2.945,2.945 0 0 1 2.817,-2.62 1.589,1.589 0 0 1 1.54,1.035 l 0.154,-0.924 h 1.144 l -0.836,4.951 a 2.935,2.935 0 0 1 -2.927,2.684 2.034,2.034 0 0 1 -2.288,-2.234 z m 1.628,-1.343 a 1.819,1.819 0 0 0 1.661,-1.375 l 0.055,-0.274 a 1.241,1.241 0 0 0 -1.1,-1.5 1.827,1.827 0 0 0 -1.782,1.585 1.213,1.213 0 0 0 1.165,1.564 z"
         fill="#d9d8d6"
         id="path890" />
      <path
         d="m 223.358,300.407 a 1.346,1.346 0 0 0 -1.3,1.078 l -0.539,3.124 h -1.188 l 1.474,-8.581 H 223 l -0.726,4.225 a 1.881,1.881 0 0 1 1.563,-0.836 c 1.143,0 1.551,0.847 1.408,1.947 l -0.561,3.245 H 223.5 l 0.55,-3.08 c 0.067,-0.593 -0.05,-1.1 -0.692,-1.122 z"
         fill="#d9d8d6"
         id="path892" />
      <path
         d="m 51.4,195.445 a 1.305,1.305 0 0 0 1.4,-1.188 c 0.022,-0.748 -0.616,-0.99 -1.386,-1.342 a 2.358,2.358 0 0 1 -1.7,-2.135 2.391,2.391 0 0 1 2.585,-2.156 2.489,2.489 0 0 1 2.409,1.661 l -1.066,0.562 a 1.547,1.547 0 0 0 -1.475,-1.068 0.988,0.988 0 0 0 -1.122,0.913 c -0.033,0.617 0.583,0.991 1.452,1.331 a 2.218,2.218 0 0 1 1.651,2.146 2.716,2.716 0 0 1 -2.806,2.453 2.858,2.858 0 0 1 -2.673,-1.969 l 0.989,-0.682 c 0.378,0.869 0.861,1.474 1.742,1.474 z"
         fill="#d9d8d6"
         id="path894" />
      <path
         d="m 57.879,192.255 a 1.342,1.342 0 0 0 -1.3,1.078 l -0.539,3.124 h -1.187 l 1.475,-8.581 h 1.187 L 56.79,192.1 a 1.88,1.88 0 0 1 1.562,-0.836 c 1.144,0 1.551,0.846 1.409,1.947 l -0.562,3.245 h -1.177 l 0.55,-3.08 c 0.066,-0.593 -0.055,-1.1 -0.693,-1.121 z"
         fill="#d9d8d6"
         id="path896" />
      <path
         d="m 62.785,191.4 -0.858,5.061 h -1.166 l 0.847,-5.061 z m -0.242,-2.728 a 0.716,0.716 0 1 1 -0.748,0.715 0.722,0.722 0 0 1 0.748,-0.719 z"
         fill="#d9d8d6"
         id="path898" />
      <path
         d="m 64.468,191.4 0.319,-1.87 a 1.871,1.871 0 0 1 1.87,-1.782 1.4,1.4 0 0 1 1.078,0.506 l -0.681,0.9 a 0.571,0.571 0 0 0 -0.462,-0.286 c -0.386,0 -0.617,0.418 -0.683,0.9 l -0.275,1.627 h 1.144 l -0.186,1.045 h -1.145 l -0.682,4.016 H 63.6 l 0.694,-4.016 h -0.539 l 0.187,-1.045 z"
         fill="#d9d8d6"
         id="path900" />
      <path
         d="m 67.767,191.4 0.3,-1.759 h 1.177 l -0.308,1.759 h 0.836 l -0.187,1.045 H 68.76 l -0.7,4.016 h -1.151 l 0.682,-4.016 h -0.814 l 0.187,-1.045 z"
         fill="#d9d8d6"
         id="path902" />
      <path
         d="m 106.891,188.756 c 1.54,0 2.52,0.946 2.322,2.4 a 2.866,2.866 0 0 1 -3.059,2.387 h -1.022 l -0.5,2.916 h -1.272 l 1.3,-7.7 z m -1.132,1.143 -0.43,2.5 h 0.936 a 1.593,1.593 0 0 0 1.694,-1.243 c 0.132,-0.781 -0.374,-1.255 -1.189,-1.255 z"
         fill="#d9d8d6"
         id="path904" />
      <path
         d="m 111.566,191.4 -0.858,5.061 h -1.166 l 0.848,-5.061 z m -0.242,-2.728 a 0.716,0.716 0 1 1 -0.748,0.715 0.721,0.721 0 0 1 0.748,-0.719 z"
         fill="#d9d8d6"
         id="path906" />
      <path
         d="m 115.263,192.254 a 1.284,1.284 0 0 0 -1.288,1.09 l -0.539,3.113 h -1.188 l 0.88,-5.061 h 1.178 l -0.122,0.749 a 1.833,1.833 0 0 1 1.563,-0.859 c 1.154,0 1.584,0.88 1.43,1.958 l -0.55,3.213 h -1.21 l 0.55,-3.081 c 0.077,-0.594 -0.044,-1.122 -0.704,-1.122 z"
         fill="#d9d8d6"
         id="path908" />
      <path
         d="m 120.564,195.532 a 2.331,2.331 0 0 0 1.771,-0.836 l -0.187,1.3 a 2.728,2.728 0 0 1 -1.717,0.571 2.245,2.245 0 0 1 -2.309,-2.639 3.065,3.065 0 0 1 3.047,-2.641 2.4,2.4 0 0 1 1.606,0.572 l -0.186,1.309 a 1.556,1.556 0 0 0 -1.453,-0.847 1.871,1.871 0 0 0 -1.8,1.607 1.286,1.286 0 0 0 1.228,1.604 z"
         fill="#d9d8d6"
         id="path910" />
      <path
         d="m 126.219,192.254 a 1.344,1.344 0 0 0 -1.3,1.078 l -0.539,3.125 h -1.189 l 1.475,-8.581 h 1.187 l -0.725,4.225 a 1.877,1.877 0 0 1 1.562,-0.837 c 1.144,0 1.551,0.847 1.408,1.947 l -0.561,3.246 h -1.177 l 0.55,-3.081 c 0.067,-0.594 -0.053,-1.1 -0.691,-1.122 z"
         fill="#d9d8d6"
         id="path912" />
      <path
         d="m 168.038,188.755 -0.2,1.166 h -2.883 l -0.33,1.926 h 2.775 l -0.186,1.132 h -2.784 l -0.594,3.477 h -1.254 l 1.3,-7.7 z"
         fill="#d9d8d6"
         id="path914" />
      <path
         d="m 170.864,191.285 a 2.232,2.232 0 0 1 2.288,2.641 3.071,3.071 0 0 1 -3.036,2.64 2.237,2.237 0 0 1 -2.289,-2.64 3.072,3.072 0 0 1 3.037,-2.641 z m -0.66,4.225 a 1.833,1.833 0 0 0 1.738,-1.584 1.255,1.255 0 0 0 -1.177,-1.584 1.832,1.832 0 0 0 -1.739,1.584 1.256,1.256 0 0 0 1.174,1.584 z"
         fill="#d9d8d6"
         id="path916" />
      <path
         d="m 176.363,187.875 -1.484,8.581 h -1.156 l 1.453,-8.581 z"
         fill="#d9d8d6"
         id="path918" />
      <path
         d="m 179.2,191.285 a 1.585,1.585 0 0 1 1.529,1.046 l 0.759,-4.456 h 1.189 l -1.475,8.581 h -1.177 l 0.132,-0.781 a 2.227,2.227 0 0 1 -1.771,0.891 2.112,2.112 0 0 1 -2,-2.64 2.955,2.955 0 0 1 2.814,-2.641 z m -0.44,4.247 a 1.863,1.863 0 0 0 1.694,-1.606 c 0.11,-0.847 -0.308,-1.584 -1.078,-1.607 a 1.863,1.863 0 0 0 -1.782,1.607 c -0.13,0.858 0.306,1.606 1.168,1.606 z"
         fill="#d9d8d6"
         id="path920" />
      <path
         d="m 220.89,195.444 a 1.305,1.305 0 0 0 1.4,-1.187 c 0.021,-0.748 -0.615,-0.99 -1.387,-1.343 a 2.36,2.36 0 0 1 -1.705,-2.134 2.391,2.391 0 0 1 2.586,-2.156 2.485,2.485 0 0 1 2.408,1.661 l -1.066,0.561 a 1.545,1.545 0 0 0 -1.475,-1.067 0.988,0.988 0 0 0 -1.121,0.913 c -0.033,0.616 0.582,0.99 1.451,1.331 a 2.213,2.213 0 0 1 1.651,2.145 2.716,2.716 0 0 1 -2.8,2.454 2.862,2.862 0 0 1 -2.674,-1.97 l 0.99,-0.681 c 0.377,0.869 0.862,1.473 1.742,1.473 z"
         fill="#d9d8d6"
         id="path922" />
      <path
         d="m 227.006,187.876 -1.485,8.581 h -1.156 l 1.453,-8.581 z"
         fill="#d9d8d6"
         id="path924" />
      <path
         d="m 227.049,194.257 a 2.945,2.945 0 0 1 2.97,-2.971 2,2 0 0 1 2.18,2.223 2.44,2.44 0 0 1 -0.121,0.692 h -3.84 c -0.023,0.815 0.373,1.387 1.188,1.387 a 1.777,1.777 0 0 0 1.474,-0.8 l 0.99,0.407 a 2.909,2.909 0 0 1 -2.564,1.375 2.134,2.134 0 0 1 -2.277,-2.313 z m 1.332,-0.881 h 2.595 v -0.022 c 0,-0.726 -0.351,-1.166 -1.054,-1.166 a 1.626,1.626 0 0 0 -1.541,1.188 z"
         fill="#d9d8d6"
         id="path926" />
      <path
         d="m 233.935,191.4 0.627,2.97 1.957,-3.377 0.836,3.4 1.662,-2.993 h 1.309 l -3.256,5.446 -0.935,-3.422 -2.079,3.422 -1.365,-5.446 z"
         fill="#d9d8d6"
         id="path928" />
      <path
         d="m 233,40.42 h 1.518 l -4.335,8.131 -1.452,-5.435 -3.168,5.446 -1.8,-8.142 h 1.474 l 0.924,5.193 3.025,-5.6 1.266,5.6 z"
         fill="#d9d8d6"
         id="path930" />
      <path
         d="m 233.185,45.921 a 2.944,2.944 0 0 1 2.971,-2.97 2,2 0 0 1 2.179,2.222 2.483,2.483 0 0 1 -0.121,0.693 h -3.84 c -0.023,0.814 0.374,1.386 1.188,1.386 a 1.774,1.774 0 0 0 1.474,-0.8 l 0.99,0.407 a 2.906,2.906 0 0 1 -2.563,1.375 2.134,2.134 0 0 1 -2.278,-2.313 z m 1.331,-0.88 h 2.6 v -0.022 c 0,-0.726 -0.351,-1.166 -1.056,-1.166 a 1.628,1.628 0 0 0 -1.544,1.188 z"
         fill="#d9d8d6"
         id="path932" />
      <path
         d="m 239.852,43.061 0.3,-1.76 h 1.177 l -0.308,1.76 h 0.836 l -0.187,1.045 h -0.825 l -0.7,4.016 h -1.144 l 0.682,-4.016 h -0.814 l 0.187,-1.045 z"
         fill="#d9d8d6"
         id="path934" />
      <path
         d="m 248.092,40.42 -6.03,9.352 -1.2,-0.011 6.029,-9.341 z"
         fill="#d9d8d6"
         id="path936" />
      <path
         d="m 247.717,48.122 1.3,-7.7 h 2.4 a 3.13,3.13 0 0 1 3.234,3.851 4.442,4.442 0 0 1 -4.466,3.851 z m 2.42,-6.48 -0.914,5.258 h 1.045 a 3.021,3.021 0 0 0 3.059,-2.629 2.041,2.041 0 0 0 -2.079,-2.629 z"
         fill="#d9d8d6"
         id="path938" />
      <path
         d="m 257.8,44.062 c -0.539,-0.011 -0.87,0.44 -1.013,0.957 l -0.539,3.1 h -1.166 l 0.88,-5.061 h 1.166 l -0.1,0.572 a 1.642,1.642 0 0 1 1.2,-0.682 1.216,1.216 0 0 1 0.88,0.4 l -0.7,0.99 A 0.908,0.908 0 0 0 257.8,44.062 Z"
         fill="#d9d8d6"
         id="path940" />
      <path
         d="m 260.146,50.542 h -1.276 l 1.848,-3.047 -1.232,-4.434 h 1.277 l 0.758,3.278 1.827,-3.278 h 1.287 z"
         fill="#d9d8d6"
         id="path942" />
    </g>
    <g
       transform="scale(0.35277777)"
       id="393ebe3f-374d-40a0-9bfc-2acc3774881c"
       data-name="Legend">
      <circle
         cx="143.88"
         cy="66.379997"
         r="13.636"
         fill="none"
         stroke="#63a4bf"
         stroke-miterlimit="10"
         id="circle1010" />
      <circle
         cx="22.677"
         cy="66.379997"
         r="13.636"
         fill="none"
         stroke="#63a4bf"
         stroke-miterlimit="10"
         id="circle1012" />
      <circle
         cx="42.008999"
         cy="102.759"
         r="13.636"
         fill="none"
         stroke="#63a4bf"
         stroke-miterlimit="10"
         id="circle1014" />
      <path
         d="m 43.815,122.063 h 2.5 v 0.959 h -2.5 z"
         fill="#63a4bf"
         id="path1016" />
      <path
         d="M 57.886,123.052 H 56.53 v 1.35 h -0.959 v -1.35 H 54.16 v -0.959 h 1.411 v -1.41 h 0.959 v 1.41 h 1.356 z"
         fill="#63a4bf"
         id="path1018" />
      <path
         d="m 62.352,136.953 a 11.847,11.847 0 0 0 -10.073,-11.693 1.785,1.785 0 0 0 -3.531,0 11.821,11.821 0 0 0 -6.55,20.11 1.513,1.513 0 1 0 0.667,-0.749 10.821,10.821 0 0 1 6.011,-18.371 1.788,1.788 0 0 0 3.275,0 10.821,10.821 0 0 1 6.016,18.366 1.5,1.5 0 1 0 0.667,0.748 11.728,11.728 0 0 0 3.518,-8.411 z M 50.513,126.571 a 1.043,1.043 0 1 1 1.043,-1.043 1.043,1.043 0 0 1 -1.043,1.043 z"
         fill="#63a4bf"
         id="path1020" />
      <circle
         cx="104.352"
         cy="102.759"
         r="13.636"
         fill="none"
         stroke="#63a4bf"
         stroke-miterlimit="10"
         id="circle1022" />
      <path
         d="m 103.323,122.063 h 2.5 v 0.959 h -2.5 z"
         fill="#63a4bf"
         id="path1024" />
      <path
         d="m 117.394,123.052 h -1.356 v 1.35 h -0.959 v -1.35 h -1.411 v -0.959 h 1.411 v -1.41 h 0.959 v 1.41 h 1.356 z"
         fill="#63a4bf"
         id="path1026" />
      <path
         d="m 121.859,136.953 a 11.846,11.846 0 0 0 -10.072,-11.693 1.785,1.785 0 0 0 -3.531,0 11.821,11.821 0 0 0 -6.55,20.11 1.513,1.513 0 1 0 0.667,-0.749 10.821,10.821 0 0 1 6.011,-18.371 1.787,1.787 0 0 0 3.274,0 10.822,10.822 0 0 1 6.017,18.366 1.5,1.5 0 1 0 0.667,0.748 11.732,11.732 0 0 0 3.517,-8.411 z m -11.838,-10.382 a 1.043,1.043 0 1 1 1.043,-1.043 1.042,1.042 0 0 1 -1.043,1.043 z"
         fill="#63a4bf"
         id="path1028" />
      <circle
         cx="183.705"
         cy="102.759"
         r="13.636"
         fill="none"
         stroke="#63a4bf"
         stroke-miterlimit="10"
         id="circle1030" />
      <path
         d="m 171.337,122.063 h 2.5 v 0.959 h -2.5 z"
         fill="#63a4bf"
         id="path1032" />
      <path
         d="m 185.408,123.052 h -1.356 v 1.35 h -0.959 v -1.35 h -1.41 v -0.959 h 1.41 v -1.41 h 0.959 v 1.41 h 1.356 z"
         fill="#63a4bf"
         id="path1034" />
      <path
         d="M 189.874,136.953 A 11.847,11.847 0 0 0 179.8,125.26 a 1.785,1.785 0 0 0 -3.531,0 11.821,11.821 0 0 0 -6.55,20.11 1.513,1.513 0 1 0 0.667,-0.749 10.821,10.821 0 0 1 6.012,-18.371 1.787,1.787 0 0 0 3.274,0 10.821,10.821 0 0 1 6.016,18.366 1.5,1.5 0 1 0 0.668,0.748 11.732,11.732 0 0 0 3.518,-8.411 z m -11.838,-10.382 a 1.043,1.043 0 1 1 1.042,-1.043 1.043,1.043 0 0 1 -1.042,1.043 z"
         fill="#63a4bf"
         id="path1036" />
      <circle
         cx="246.047"
         cy="102.759"
         r="13.636"
         fill="none"
         stroke="#63a4bf"
         stroke-miterlimit="10"
         id="circle1038" />
      <path
         d="m 230.845,122.063 h 2.5 v 0.959 h -2.5 z"
         fill="#63a4bf"
         id="path1040" />
      <path
         d="m 244.916,123.052 h -1.356 v 1.35 h -0.96 v -1.35 h -1.41 v -0.959 h 1.41 v -1.41 h 0.959 v 1.41 h 1.356 z"
         fill="#63a4bf"
         id="path1042" />
      <path
         d="m 249.382,136.953 a 11.847,11.847 0 0 0 -10.073,-11.693 1.785,1.785 0 0 0 -3.531,0 11.821,11.821 0 0 0 -6.55,20.11 1.513,1.513 0 1 0 0.667,-0.749 10.821,10.821 0 0 1 6.011,-18.371 1.788,1.788 0 0 0 3.275,0 10.821,10.821 0 0 1 6.016,18.366 1.5,1.5 0 1 0 0.667,0.748 11.728,11.728 0 0 0 3.518,-8.411 z m -11.839,-10.382 a 1.043,1.043 0 1 1 1.043,-1.043 1.043,1.043 0 0 1 -1.043,1.043 z"
         fill="#63a4bf"
         id="path1044" />
      <path
         d="m 43.815,240.263 h 2.5 v 0.96 h -2.5 z"
         fill="#63a4bf"
         id="path1046" />
      <path
         d="M 57.886,241.253 H 56.53 v 1.35 h -0.959 v -1.35 H 54.16 v -0.959 h 1.411 v -1.411 h 0.959 v 1.411 h 1.356 z"
         fill="#63a4bf"
         id="path1048" />
      <path
         d="m 62.352,255.154 a 11.847,11.847 0 0 0 -10.073,-11.693 1.785,1.785 0 0 0 -3.531,0 11.822,11.822 0 0 0 -6.55,20.111 1.513,1.513 0 1 0 0.667,-0.749 10.821,10.821 0 0 1 6.011,-18.371 1.788,1.788 0 0 0 3.275,0 10.821,10.821 0 0 1 6.016,18.366 1.5,1.5 0 1 0 0.667,0.748 11.732,11.732 0 0 0 3.518,-8.412 z M 50.513,244.772 a 1.043,1.043 0 1 1 1.043,-1.043 1.043,1.043 0 0 1 -1.043,1.043 z"
         fill="#63a4bf"
         id="path1050" />
      <path
         d="m 103.323,240.263 h 2.5 v 0.96 h -2.5 z"
         fill="#63a4bf"
         id="path1052" />
      <path
         d="m 117.394,241.253 h -1.356 v 1.35 h -0.959 v -1.35 h -1.411 v -0.959 h 1.411 v -1.411 h 0.959 v 1.411 h 1.356 z"
         fill="#63a4bf"
         id="path1054" />
      <path
         d="m 121.859,255.154 a 11.846,11.846 0 0 0 -10.072,-11.693 1.785,1.785 0 0 0 -3.531,0 11.822,11.822 0 0 0 -6.55,20.111 1.513,1.513 0 1 0 0.667,-0.749 10.821,10.821 0 0 1 6.011,-18.371 1.787,1.787 0 0 0 3.274,0 10.822,10.822 0 0 1 6.017,18.366 1.5,1.5 0 1 0 0.667,0.748 11.735,11.735 0 0 0 3.517,-8.412 z m -11.838,-10.382 a 1.043,1.043 0 1 1 1.043,-1.043 1.042,1.042 0 0 1 -1.043,1.043 z"
         fill="#63a4bf"
         id="path1056" />
      <path
         d="m 171.337,240.263 h 2.5 v 0.96 h -2.5 z"
         fill="#63a4bf"
         id="path1058" />
      <path
         d="m 185.408,241.253 h -1.356 v 1.35 h -0.959 v -1.35 h -1.41 v -0.959 h 1.41 v -1.411 h 0.959 v 1.411 h 1.356 z"
         fill="#63a4bf"
         id="path1060" />
      <path
         d="m 189.874,255.154 a 11.847,11.847 0 0 0 -10.074,-11.693 1.785,1.785 0 0 0 -3.531,0 11.822,11.822 0 0 0 -6.55,20.111 1.513,1.513 0 1 0 0.667,-0.749 10.821,10.821 0 0 1 6.012,-18.371 1.787,1.787 0 0 0 3.274,0 10.821,10.821 0 0 1 6.016,18.366 1.5,1.5 0 1 0 0.668,0.748 11.735,11.735 0 0 0 3.518,-8.412 z m -11.838,-10.382 a 1.043,1.043 0 1 1 1.042,-1.043 1.043,1.043 0 0 1 -1.042,1.043 z"
         fill="#63a4bf"
         id="path1062" />
      <path
         d="m 230.845,240.263 h 2.5 v 0.96 h -2.5 z"
         fill="#63a4bf"
         id="path1064" />
      <path
         d="m 244.916,241.253 h -1.356 v 1.35 h -0.96 v -1.35 h -1.41 v -0.959 h 1.41 v -1.411 h 0.959 v 1.411 h 1.356 z"
         fill="#63a4bf"
         id="path1066" />
      <path
         d="m 249.382,255.154 a 11.847,11.847 0 0 0 -10.073,-11.693 1.785,1.785 0 0 0 -3.531,0 11.822,11.822 0 0 0 -6.55,20.111 1.513,1.513 0 1 0 0.667,-0.749 10.821,10.821 0 0 1 6.011,-18.371 1.788,1.788 0 0 0 3.275,0 10.821,10.821 0 0 1 6.016,18.366 1.5,1.5 0 1 0 0.667,0.748 11.732,11.732 0 0 0 3.518,-8.412 z m -11.839,-10.382 a 1.043,1.043 0 1 1 1.043,-1.043 1.043,1.043 0 0 1 -1.043,1.043 z"
         fill="#63a4bf"
         id="path1068" />
      <circle
         cx="42.008999"
         cy="284.56"
         r="13.636"
         fill="none"
         stroke="#63a4bf"
         stroke-miterlimit="10"
         id="circle1070" />
      <circle
         cx="104.352"
         cy="284.56"
         r="13.636"
         fill="none"
         stroke="#63a4bf"
         stroke-miterlimit="10"
         id="circle1072" />
      <circle
         cx="265.323"
         cy="66.379997"
         r="13.636"
         fill="none"
         stroke="#63a4bf"
         stroke-miterlimit="10"
         id="circle1074" />
      <circle
         cx="183.705"
         cy="284.56"
         r="13.636"
         fill="none"
         stroke="#63a4bf"
         stroke-miterlimit="10"
         id="circle1076" />
      <circle
         cx="246.047"
         cy="284.56"
         r="13.636"
         fill="none"
         stroke="#63a4bf"
         stroke-miterlimit="10"
         id="circle1078" />
      <line
         x1="36.313"
         y1="66.379997"
         x2="46.508999"
         y2="66.379997"
         fill="none"
         stroke="#63a4bf"
         stroke-miterlimit="10"
         id="line1080" />
      <polygon
         points="44.517,64.685 45.956,64.685 47.651,66.38 45.956,68.075 44.517,68.075 46.213,66.38 "
         fill="#63a4bf"
         id="polygon1082" />
      <line
         x1="251.687"
         y1="66.379997"
         x2="241.491"
         y2="66.379997"
         fill="none"
         stroke="#63a4bf"
         stroke-miterlimit="10"
         id="line1084" />
      <polygon
         points="243.483,68.075 242.044,68.075 240.348,66.38 242.044,64.685 243.483,64.685 241.787,66.38 "
         fill="#63a4bf"
         id="polygon1086" />
    </g>
  </g>
  <g
     style="display:none"
     inkscape:label="components"
     id="layer1"
     inkscape:groupmode="layer">
    <circle
       inkscape:label="HIGHSHIFTTRIM"
       style="fill:#ff0000;stroke:none;stroke-width:0.352778;stroke-opacity:1"
       id="circle945"
       fill="#ff0000"
       r="1.9998972"
       cy="48.282227"
       cx="17.820217" />
    <circle
       inkscape:label="HIGHPINCHTRIM"
       style="fill:#ff0000;stroke:none;stroke-width:0.352778;stroke-opacity:1"
       id="circle947"
       fill="#ff0000"
       r="1.9998972"
       cy="48.282227"
       cx="38.812965" />
    <circle
       inkscape:label="HIGHFOLDTRIM"
       style="fill:#ff0000;stroke:none;stroke-width:0.352778;stroke-opacity:1"
       id="circle949"
       fill="#ff0000"
       r="1.9998972"
       cy="48.282227"
       cx="62.80714" />
    <circle
       inkscape:label="HIGHSLEWTRIM"
       style="fill:#ff0000;stroke:none;stroke-width:0.352778;stroke-opacity:1"
       id="circle951"
       fill="#ff0000"
       r="1.9998972"
       cy="48.282227"
       cx="83.799889" />
    <circle
       inkscape:label="HIGHFOLD"
       style="fill:#ff0000;stroke:none;stroke-width:0.352778;stroke-opacity:1"
       id="circle953"
       fill="#ff0000"
       r="1.9998972"
       cy="59.027485"
       cx="60.806541" />
    <circle
       inkscape:label="HIGHSLEW"
       style="fill:#ff0000;stroke:none;stroke-width:0.352778;stroke-opacity:1"
       id="circle955"
       fill="#ff0000"
       r="1.9998972"
       cy="59.027485"
       cx="80.800217" />
    <circle
       inkscape:label="HIGHPINCH"
       style="fill:#ff0000;stroke:none;stroke-width:0.352778;stroke-opacity:1"
       id="circle957"
       fill="#ff0000"
       r="1.9998972"
       cy="59.027485"
       cx="40.813213" />
    <circle
       inkscape:label="HIGHSHIFT"
       style="fill:#ff0000;stroke:none;stroke-width:0.352778;stroke-opacity:1"
       id="circle959"
       fill="#ff0000"
       r="1.9998972"
       cy="59.027485"
       cx="20.819532" />
    <circle
       inkscape:label="LOWFOLD"
       style="fill:#ff0000;stroke:none;stroke-width:0.352778;stroke-opacity:1"
       id="circle961"
       fill="#ff0000"
       r="1.9998972"
       cy="77.583946"
       cx="60.806541" />
    <circle
       inkscape:label="LOWSLEW"
       style="fill:#ff0000;stroke:none;stroke-width:0.352778;stroke-opacity:1"
       id="circle963"
       fill="#ff0000"
       r="1.9998972"
       cy="77.583946"
       cx="80.800217" />
    <circle
       inkscape:label="LOWPINCH"
       style="fill:#ff0000;stroke:none;stroke-width:0.352778;stroke-opacity:1"
       id="circle965"
       fill="#ff0000"
       r="1.9998972"
       cy="77.583946"
       cx="40.813213" />
    <circle
       inkscape:label="LOWSHIFT"
       style="fill:#ff0000;stroke:none;stroke-width:0.352778;stroke-opacity:1"
       id="circle967"
       fill="#ff0000"
       r="1.9998972"
       cy="77.583946"
       cx="20.819532" />
    <circle
       inkscape:label="LOWSHIFTTRIM"
       style="fill:#ff0000;stroke:none;stroke-width:0.352778;stroke-opacity:1"
       id="circle969"
       fill="#ff0000"
       r="1.9998972"
       cy="90.023247"
       cx="17.820217" />
    <circle
       inkscape:label="LOWPINCHTRIM"
       style="fill:#ff0000;stroke:none;stroke-width:0.352778;stroke-opacity:1"
       id="circle971"
       fill="#ff0000"
       r="1.9998972"
       cy="90.023247"
       cx="38.812965" />
    <circle
       inkscape:label="LOWFOLDTRIM"
       style="fill:#ff0000;stroke:none;stroke-width:0.352778;stroke-opacity:1"
       id="circle973"
       fill="#ff0000"
       r="1.9998972"
       cy="90.023247"
       cx="62.80714" />
    <circle
       inkscape:label="LOWSLEWTRIM"
       style="fill:#ff0000;stroke:none;stroke-width:0.352778;stroke-opacity:1"
       id="circle975"
       fill="#ff0000"
       r="1.9998972"
       cy="90.023247"
       cx="83.799889" />
    <circle
       inkscape:label="THRESH"
       style="fill:#ff0000;stroke:none;stroke-width:0.352778;stroke-opacity:1"
       id="circle977"
       fill="#ff0000"
       r="1.9998972"
       cy="23.404337"
       cx="23.097067" />
    <circle
       inkscape:label="WET"
       style="fill:#ff0000;stroke:none;stroke-width:0.352778;stroke-opacity:1"
       id="circle979"
       fill="#ff0000"
       r="1.9998972"
       cy="23.404337"
       cx="78.50293" />
    <circle
       inkscape:label="THRESH"
       style="fill:#00ff00;stroke:none;stroke-width:0.352778;stroke-opacity:1"
       id="circle981"
       fill="#00ff00"
       r="1.9998972"
       cy="23.417387"
       cx="7.9999413" />
    <circle
       inkscape:label="IN"
       style="fill:#00ff00;stroke:none;stroke-width:0.352778;stroke-opacity:1"
       id="circle983"
       fill="#00ff00"
       r="1.9998972"
       cy="23.417387"
       cx="50.757668" />
    <circle
       inkscape:label="WET"
       style="fill:#00ff00;stroke:none;stroke-width:0.352778;stroke-opacity:1"
       id="circle985"
       fill="#00ff00"
       r="1.9998972"
       cy="23.417387"
       cx="93.600052" />
    <circle
       inkscape:label="HIGHSLEW"
       style="fill:#00ff00;stroke:none;stroke-width:0.352778;stroke-opacity:1"
       id="circle987"
       fill="#00ff00"
       r="1.9998972"
       cy="36.251091"
       cx="86.799911" />
    <circle
       inkscape:label="HIGHFOLD"
       style="fill:#00ff00;stroke:none;stroke-width:0.352778;stroke-opacity:1"
       id="circle989"
       fill="#00ff00"
       r="1.9998972"
       cy="36.251091"
       cx="64.807037" />
    <circle
       inkscape:label="HIGHPINCH"
       style="fill:#00ff00;stroke:none;stroke-width:0.352778;stroke-opacity:1"
       id="circle991"
       fill="#00ff00"
       r="1.9998972"
       cy="36.251091"
       cx="36.813065" />
    <circle
       inkscape:label="HIGHSHIFT"
       style="fill:#00ff00;stroke:none;stroke-width:0.352778;stroke-opacity:1"
       id="circle993"
       fill="#00ff00"
       r="1.9998972"
       cy="36.251091"
       cx="14.819841" />
    <circle
       inkscape:label="LOWSLEW"
       style="fill:#00ff00;stroke:none;stroke-width:0.352778;stroke-opacity:1"
       id="circle995"
       fill="#00ff00"
       r="1.9998972"
       cy="100.38644"
       cx="86.799911" />
    <circle
       inkscape:label="LOWFOLD"
       style="fill:#00ff00;stroke:none;stroke-width:0.352778;stroke-opacity:1"
       id="circle997"
       fill="#00ff00"
       r="1.9998972"
       cy="100.38644"
       cx="64.807037" />
    <circle
       inkscape:label="LOWPINCH"
       style="fill:#00ff00;stroke:none;stroke-width:0.352778;stroke-opacity:1"
       id="circle999"
       fill="#00ff00"
       r="1.9998972"
       cy="100.38644"
       cx="36.813065" />
    <circle
       inkscape:label="LOWSHIFT"
       style="fill:#00ff00;stroke:none;stroke-width:0.352778;stroke-opacity:1"
       id="circle1001"
       fill="#00ff00"
       r="1.9998972"
       cy="100.38644"
       cx="14.819841" />
    <circle
       inkscape:label="HIGH"
       style="fill:#0000ff;stroke:none;stroke-width:0.352778;stroke-opacity:1"
       id="circle1003"
       fill="#0000ff"
       r="1.9998972"
       cy="113.22508"
       cx="75.599922" />
    <circle
       inkscape:label="OUT"
       style="fill:#0000ff;stroke:none;stroke-width:0.352778;stroke-opacity:1"
       id="circle1005"
       fill="#0000ff"
       r="1.9998972"
       cy="113.22508"
       cx="50.799999" />
    <circle
       inkscape:label="LOW"
       style="fill:#0000ff;stroke:none;stroke-width:0.352778;stroke-opacity:1"
       id="circle1007"
       fill="#0000ff"
       r="1.9998972"
       cy="113.22508"
       cx="26.000072" />
  </g>
</svg>
