<?xml version="1.0" encoding="UTF-8" standalone="no"?>
<svg
   width="71.120003mm"
   height="128.5mm"
   viewBox="0 0 201.6 364.25197"
   version="1.1"
   id="svg96"
   sodipodi:docname="Spread.svg"
   inkscape:export-filename="Spread.svg"
   inkscape:export-xdpi="96"
   inkscape:export-ydpi="96"
   inkscape:version="1.4.3 (0d15f75, 2025-12-25)"
   xmlns:inkscape="http://www.inkscape.org/namespaces/inkscape"
   xmlns:sodipodi="http://sodipodi.sourceforge.net/DTD/sodipodi-0.dtd"
   xmlns="http://www.w3.org/2000/svg"
   xmlns:svg="http://www.w3.org/2000/svg"
   xmlns:rdf="http://www.w3.org/1999/02/22-rdf-syntax-ns#"
   xmlns:cc="http://creativecommons.org/ns#"
   xmlns:dc="http://purl.org/dc/elements/1.1/">
  <sodipodi:namedview
     id="namedview1"
     pagecolor="#ffffff"
     bordercolor="#000000"
     borderopacity="0.25"
     inkscape:showpageshadow="2"
     inkscape:pageopacity="0.0"
     inkscape:pagecheckerboard="0"
     inkscape:deskcolor="#d1d1d1"
     inkscape:document-units="mm"
     inkscape:zoom="0.87874034"
     inkscape:cx="313.51696"
     inkscape:cy="259.46231"
     inkscape:window-width="1800"
     inkscape:window-height="1101"
     inkscape:window-x="0"
     inkscape:window-y="40"
     inkscape:window-maximized="1"
     inkscape:current-layer="svg96" />
  <defs
     id="defs96" />
  <title
     id="title1">master9</title>
  <g
     inkscape:groupmode="layer"
     id="layer2"
     inkscape:label="components" />
  <g
     id="8aa4c77d-b660-467b-82b4-02cf1585b388"
     data-name="Monte">
    <g
       id="2775124f-c4bf-4214-bab6-16fa230a2fb8"
       data-name="BG">
      <rect
         width="201.60001"
         height="364.25198"
         style="fill:#2a2d30"
         id="rect1"
         x="0"
         y="0" />
    </g>
    <g
       id="g5">
      <path
         d="m 93.17236,8.81641 a 11.49551,11.49551 0 0 0 -3.07666,2.001 24.02078,24.02078 0 0 0 -3.93408,4.73682 l -1.57324,2.34473 a 17.30261,17.30261 0 0 1 -2.21192,2.8374 2.52642,2.52642 0 0 1 -1.66943,0.83642 1.37117,1.37117 0 0 1 -0.8916,-0.29736 0.91031,0.91031 0 0 1 -0.36719,-0.73437 1.2629,1.2629 0 0 1 0.20117,-0.62549 6.56249,6.56249 0 0 1 0.67286,-0.89112 8.43521,8.43521 0 0 0 2.43017,-5.43994 4.93567,4.93567 0 0 0 -1.38086,-3.6582 4.95181,4.95181 0 0 0 -3.65429,-1.37549 7.98218,7.98218 0 0 0 -2.84083,0.53174 9.18,9.18 0 0 0 -2.56982,1.47705 7.64235,7.64235 0 0 0 -1.82715,2.09473 4.59586,4.59586 0 0 0 -0.66455,2.32129 2.2639,2.2639 0 0 0 0.27979,1.12548 4.10166,4.10166 0 0 0 0.90918,1.04737 l 0.45459,0.35986 a 1.16239,1.16239 0 0 1 0.45459,0.85986 1.13838,1.13838 0 0 1 -0.46338,0.89844 1.63578,1.63578 0 0 1 -1.0752,0.3833 2.9456,2.9456 0 0 1 -1.80957,-0.64111 4.42908,4.42908 0 0 1 -1.34619,-1.72705 5.4342,5.4342 0 0 1 -0.49805,-2.29053 6.953,6.953 0 0 1 0.88282,-3.36084 10.159,10.159 0 0 1 2.46533,-2.94678 12.32228,12.32228 0 0 1 3.5664,-2.07129 11.59842,11.59842 0 0 1 4.13475,-0.75051 9.45065,9.45065 0 0 1 2.95459,0.46923 7.98973,7.98973 0 0 1 2.5,1.313 6.35624,6.35624 0 0 1 1.66113,1.93067 4.82645,4.82645 0 0 1 0.59428,2.35253 25.2538,25.2538 0 0 1 2.21143,-2.59473 13.67331,13.67331 0 0 1 2.07177,-1.67285 11.65835,11.65835 0 0 1 2.62256,-1.34424 7.45306,7.45306 0 0 1 2.46533,-0.45361 2.475,2.475 0 0 1 1.51221,0.42236 1.37828,1.37828 0 0 1 0.56787,1.17236 5.3503,5.3503 0 0 1 -0.73388,1.9541 L 87.82275,25.481 a 4.7173,4.7173 0 0 1 -0.918,1.35986 1.67434,1.67434 0 0 1 -2.063,0.0078 1.11372,1.11372 0 0 1 -0.41065,-0.8833 3.641,3.641 0 0 1 0.48926,-1.34424 z M 70.70654,24.62109 77.52539,11.55225 a 5.05974,5.05974 0 0 1 0.93506,-1.37549 1.49638,1.49638 0 0 1 1.023,-0.34424 1.51563,1.51563 0 0 1 1.02246,0.35205 1.09794,1.09794 0 0 1 0.41113,0.86719 3.66335,3.66335 0 0 1 -0.50732,1.36035 L 73.59131,25.481 a 4.718,4.718 0 0 1 -0.91748,1.35986 1.67505,1.67505 0 0 1 -2.06348,0.0078 1.11374,1.11374 0 0 1 -0.41064,-0.8833 3.558,3.558 0 0 1 0.50683,-1.34428 z"
         style="fill:#d7d7d7"
         id="path1" />
      <path
         d="m 92.63086,23.24512 a 7.66377,7.66377 0 0 1 0.55078,-2.84473 8.6883,8.6883 0 0 1 1.54688,-2.53271 7.44462,7.44462 0 0 1 2.24658,-1.77442 5.576,5.576 0 0 1 2.54394,-0.63281 4.35413,4.35413 0 0 1 2.07178,0.46094 3.16148,3.16148 0 0 1 1.32861,1.32861 4.38124,4.38124 0 0 1 0.46338,2.0874 8.03167,8.03167 0 0 1 -0.97021,3.814 8.15969,8.15969 0 0 1 -2.57031,2.939 5.735,5.735 0 0 1 -3.313,1.10987 3.80308,3.80308 0 0 1 -2.832,-1.07862 3.91249,3.91249 0 0 1 -1.06643,-2.87653 z m 3.09424,0.03125 a 1.42439,1.42439 0 0 0 0.34082,1.0083 1.19221,1.19221 0 0 0 0.918,0.36767 q 1.18872,0 2.41259,-2.17285 a 6.56425,6.56425 0 0 0 0.96192,-3.15771 1.6098,1.6098 0 0 0 -0.29736,-1.04785 1.07037,1.07037 0 0 0 -0.874,-0.35938 1.98486,1.98486 0 0 0 -1.355,0.60986 6.58054,6.58054 0 0 0 -1.28515,1.86036 6.861,6.861 0 0 0 -0.82182,2.8916 z"
         style="fill:#d7d7d7"
         id="path2" />
      <path
         d="m 110.5332,16.66406 a 4.75764,4.75764 0 0 1 1.48584,-0.84424 4.82939,4.82939 0 0 1 1.6958,-0.35937 2.65035,2.65035 0 0 1 1.75733,0.5625 1.8428,1.8428 0 0 1 0.67285,1.48535 6.18,6.18 0 0 1 -0.979,2.89209 l -0.78663,1.39111 -0.71679,1.28174 a 2.48025,2.48025 0 0 0 -0.40235,1.01612 0.47458,0.47458 0 0 0 0.542,0.53173 1.57447,1.57447 0 0 0 0.57714,-0.125 5.74963,5.74963 0 0 0 0.8042,-0.42236 q 0.48927,-0.29663 1.39844,-0.95361 a 14.32682,14.32682 0 0 1 1.27637,-0.8208 1.58744,1.58744 0 0 1 0.73437,-0.17969 1.16414,1.16414 0 0 1 0.8042,0.29736 0.93009,0.93009 0 0 1 0.332,0.71875 q 0,0.813 -1.67822,1.93848 -3.07764,2.12622 -5.21,2.126 a 2.97153,2.97153 0 0 1 -1.98437,-0.65625 2.15908,2.15908 0 0 1 -0.77784,-1.73536 4.39647,4.39647 0 0 1 0.36719,-1.501 q 0.33178,-0.7815 1.64307,-3.09522 a 6.08959,6.08959 0 0 0 0.78711,-1.688 q 0,-0.438 -0.50733,-0.438 a 3.57047,3.57047 0 0 0 -1.44238,0.49267 11.56858,11.56858 0 0 0 -1.86182,1.21143 l -3.042,5.81543 a 5.10434,5.10434 0 0 1 -0.86572,1.28955 1.37989,1.37989 0 0 1 -0.95264,0.30469 1.4175,1.4175 0 0 1 -0.95264,-0.32032 1.03024,1.03024 0 0 1 -0.376,-0.8208 3.43794,3.43794 0 0 1 0.47217,-1.26611 l 4.03857,-7.73828 a 4.72656,4.72656 0 0 1 0.85645,-1.26612 1.38856,1.38856 0 0 1 0.96142,-0.32812 1.45769,1.45769 0 0 1 0.96192,0.30469 0.97868,0.97868 0 0 1 0.36718,0.78955 z"
         style="fill:#d7d7d7"
         id="path3" />
      <path
         d="m 122.92871,18.02393 -2.43017,4.62744 a 4.27846,4.27846 0 0 0 -0.55958,1.48486 q 0,0.42188 0.48975,0.42236 a 3.46515,3.46515 0 0 0 1.38086,-0.42236 q 1.084,-0.50025 2.2207,-1.14111 l 0.90918,-0.53125 a 2.22351,2.22351 0 0 1 1.10108,-0.34424 1.27229,1.27229 0 0 1 0.58593,0.14844 1.16224,1.16224 0 0 1 0.45459,0.40673 0.96092,0.96092 0 0 1 0.166,0.52344 1.41883,1.41883 0 0 1 -0.57715,1.03955 10.70445,10.70445 0 0 1 -2.04541,1.25879 12.44143,12.44143 0 0 1 -5.14013,1.70362 3.21356,3.21356 0 0 1 -2.02784,-0.58594 1.92162,1.92162 0 0 1 -0.752,-1.60254 6.485,6.485 0 0 1 0.8916,-2.73584 l 2.2207,-4.252 h -0.15771 a 3.67133,3.67133 0 0 1 -1.50342,-0.20313 0.95409,0.95409 0 0 1 -0.55957,-0.89111 1.11672,1.11672 0 0 1 0.21,-0.625 1.27989,1.27989 0 0 1 0.57715,-0.46924 5.13074,5.13074 0 0 1 1.57324,-0.15625 h 1.084 l 1.084,-2.06348 a 4.7335,4.7335 0 0 1 0.86524,-1.28174 1.39786,1.39786 0 0 1 0.95312,-0.313 1.4482,1.4482 0 0 1 0.94385,0.313 0.983,0.983 0 0 1 0.38476,0.79688 3.19293,3.19293 0 0 1 -0.47216,1.28223 l -0.647,1.26611 h 1.11914 a 3.74607,3.74607 0 0 1 1.6084,0.24219 0.85531,0.85531 0 0 1 0.45459,0.8208 1.13539,1.13539 0 0 1 -0.78662,1.10986 4.5925,4.5925 0 0 1 -1.57373,0.17188 z"
         style="fill:#d7d7d7"
         id="path4" />
      <path
         d="m 128.05127,21.32227 a 3.15825,3.15825 0 0 1 -0.48975,-1.60987 q 0,-2.11011 3.07715,-3.47021 a 18.85273,18.85273 0 0 1 1.91406,-0.72705 5.10611,5.10611 0 0 1 1.30274,-0.28907 1.41419,1.41419 0 0 1 0.93555,0.3125 1.00019,1.00019 0 0 1 -0.11377,1.64112 q -0.31494,0.17285 -1.71338,0.71924 l -1.20655,0.46923 a 3.77846,3.77846 0 0 0 -1.09228,0.60938 0.90987,0.90987 0 0 0 -0.32373,0.688 1.47675,1.47675 0 0 0 0.15723,0.59375 8.14842,8.14842 0 0 1 2.36035,-0.75 1.2242,1.2242 0 0 1 0.83935,0.32812 1.01544,1.01544 0 0 1 0.36719,0.78174 0.98181,0.98181 0 0 1 -0.271,0.69531 2.36731,2.36731 0 0 1 -0.90039,0.52393 q -0.29736,0.12525 -1.10156,0.4375 l -1.57373,0.62549 a 6.60178,6.60178 0 0 0 -1.38965,0.71142 0.89726,0.89726 0 0 0 -0.42822,0.71094 q 0,0.57861 0.8916,0.57861 a 10.0377,10.0377 0 0 0 2.92822,-0.59423 21.8229,21.8229 0 0 0 3.5752,-1.53174 4.53953,4.53953 0 0 1 1.67871,-0.67237 1.21,1.21 0 0 1 0.83887,0.29737 0.96162,0.96162 0 0 1 0.33252,0.75 1.44577,1.44577 0 0 1 -0.68213,1.11767 13.753,13.753 0 0 1 -2.5,1.33692 22.29884,22.29884 0 0 1 -3.50537,1.21924 12.64668,12.64668 0 0 1 -2.981,0.375 4.46156,4.46156 0 0 1 -2.68359,-0.71094 2.28313,2.28313 0 0 1 -0.97022,-1.94629 q 4e-5,-1.93873 2.72758,-3.22071 z"
         style="fill:#d7d7d7"
         id="path5" />
    </g>
    <g
       id="96c77501-ed28-4727-9bd4-db96becd46de"
       data-name="Legend">
      <g
         id="g45">
        <polygon
           points="97.269,355.078 97.269,352.724 97.269,350.37 99.623,350.37 99.623,348.016 101.977,348.016 101.977,345.662 99.623,345.662 97.269,345.662 94.915,345.662 94.915,348.016 94.915,350.37 94.915,352.724 94.915,355.078 "
           style="fill:#d7d7d7"
           id="polygon43" />
        <polygon
           points="106.685,348.016 106.685,345.662 104.331,345.662 104.331,348.016 104.331,350.37 101.977,350.37 101.977,352.724 99.623,352.724 99.623,355.078 101.977,355.078 104.331,355.078 106.685,355.078 106.685,352.724 106.685,350.37 "
           style="fill:#d7d7d7"
           id="polygon44" />
        <polygon
           points="92.561,342.085 91.383,342.085 91.383,358.583 92.561,358.583 110.217,358.583 110.217,357.406 110.217,342.085 109.039,342.085 92.561,342.085 92.561,343.353 109.039,343.353 109.039,357.406 92.561,357.406 "
           style="fill:#d7d7d7"
           id="polygon45" />
      </g>
    </g>
  </g>
  <metadata
     id="metadata96">
    <rdf:RDF>
      <cc:Work
         rdf:about="">
        <dc:title>master9</dc:title>
      </cc:Work>
    </rdf:RDF>
  </metadata>
</svg>
