<?xml version="1.0" encoding="UTF-8" standalone="no"?>
<svg
   xmlns:dc="http://purl.org/dc/elements/1.1/"
   xmlns:cc="http://creativecommons.org/ns#"
   xmlns:rdf="http://www.w3.org/1999/02/22-rdf-syntax-ns#"
   xmlns:svg="http://www.w3.org/2000/svg"
   xmlns="http://www.w3.org/2000/svg"
   xmlns:sodipodi="http://sodipodi.sourceforge.net/DTD/sodipodi-0.dtd"
   xmlns:inkscape="http://www.inkscape.org/namespaces/inkscape"
   inkscape:version="1.0 (4035a4f, 2020-05-01)"
   sodipodi:docname="FF01JK.svg"
   xml:space="preserve"
   style="enable-background:new 0 0 23.227 23.227;"
   viewBox="0 0 23.227 23.227"
   y="0px"
   x="0px"
   id="Layer_1"
   version="1.1"><metadata
   id="metadata1492"><rdf:RDF><cc:Work
       rdf:about=""><dc:format>image/svg+xml</dc:format><dc:type
         rdf:resource="http://purl.org/dc/dcmitype/StillImage" /><dc:title></dc:title></cc:Work></rdf:RDF></metadata><defs
   id="defs1490" /><sodipodi:namedview
   inkscape:current-layer="Layer_1"
   inkscape:window-maximized="0"
   inkscape:window-y="22"
   inkscape:window-x="0"
   inkscape:cy="11.6135"
   inkscape:cx="11.6135"
   inkscape:zoom="43.397771"
   showgrid="false"
   id="namedview1488"
   inkscape:window-height="480"
   inkscape:window-width="689"
   inkscape:pageshadow="2"
   inkscape:pageopacity="0"
   guidetolerance="10"
   gridtolerance="10"
   objecttolerance="10"
   borderopacity="1"
   bordercolor="#666666"
   pagecolor="#ffffff" />
<circle
   id="circle1475"
   r="11.363"
   cy="11.614"
   cx="11.614"
   style="fill:#E4E4E4;" />
<rect
   id="rect1477"
   height="2"
   width="22.852"
   style="fill:#636663;"
   y="10.614"
   x="0.188" />
<circle
   id="circle1479"
   r="8.399"
   cy="11.614"
   cx="11.614"
   style="fill:#4D4D4D;" />
<circle
   id="circle1481"
   r="8.148"
   cy="11.614"
   cx="11.614"
   style="fill:#F0F0F0;" />
<circle
   id="circle1483"
   r="5.101"
   cy="11.614"
   cx="11.614" />
<path
   id="path1485"
   d="M11.614,0.006c-6.411,0-11.608,5.197-11.608,11.608c0,6.411,5.197,11.608,11.608,11.608  c6.411,0,11.608-5.197,11.608-11.608C23.221,5.203,18.024,0.006,11.614,0.006z M11.614,22.971c-6.272,0-11.357-5.085-11.357-11.357  c0-6.272,5.085-11.357,11.357-11.357c6.272,0,11.357,5.085,11.357,11.357C22.971,17.886,17.886,22.971,11.614,22.971z"
   style="fill:#4D4D4D;" />
</svg>
