<?xml version="1.0" encoding="utf-8"?>
<!-- Generator: Adobe Illustrator 22.0.1, SVG Export Plug-In . SVG Version: 6.00 Build 0)  -->
<!DOCTYPE svg PUBLIC "-//W3C//DTD SVG 1.1//EN" "http://www.w3.org/Graphics/SVG/1.1/DTD/svg11.dtd" [
	<!ENTITY st0 "fill:#E4E4E4;">
	<!ENTITY st1 "fill:#636663;">
	<!ENTITY st2 "fill:#4D4D4D;">
	<!ENTITY st3 "fill:#F0F0F0;">
]>
<svg version="1.1" id="Layer_1" xmlns="http://www.w3.org/2000/svg" xmlns:xlink="http://www.w3.org/1999/xlink" x="0px" y="0px"
	 viewBox="0 0 23.227 23.227" style="enable-background:new 0 0 23.227 23.227;" xml:space="preserve">
<circle style="&st0;" cx="11.614" cy="11.614" r="11.363"/>
<rect x="0.188" y="10.614" style="&st1;" width="22.852" height="2"/>
<circle style="&st2;" cx="11.614" cy="11.614" r="8.399"/>
<circle style="&st3;" cx="11.614" cy="11.614" r="8.148"/>
<circle cx="11.614" cy="11.614" r="5.101"/>
<path style="&st2;" d="M11.614,0.006c-6.411,0-11.608,5.197-11.608,11.608c0,6.411,5.197,11.608,11.608,11.608
	c6.411,0,11.608-5.197,11.608-11.608C23.221,5.203,18.024,0.006,11.614,0.006z M11.614,22.971c-6.272,0-11.357-5.085-11.357-11.357
	c0-6.272,5.085-11.357,11.357-11.357c6.272,0,11.357,5.085,11.357,11.357C22.971,17.886,17.886,22.971,11.614,22.971z"/>
</svg>
